<?xml version="1.0" encoding="UTF-8"?>
<svg xmlns="http://www.w3.org/2000/svg" width="129" height="40" viewBox="0 0 129 40" fill="none">
  <g id="Airbnb svg" clip-path="url(#clip0_1740_7348)">
    <path id="Vector" d="M67.9854 10.05C67.9854 11.4915 66.8167 12.6527 65.3659 12.6527C63.9151 12.6527 62.7464 11.4915 62.7464 10.05C62.7464 8.60861 63.8748 7.44745 65.3659 7.44745C66.857 7.48749 67.9854 8.64865 67.9854 10.05ZM57.185 15.2953C57.185 15.5355 57.185 15.9359 57.185 15.9359C57.185 15.9359 55.9357 14.3343 53.2759 14.3343C48.8832 14.3343 45.4577 17.6577 45.4577 22.2623C45.4577 26.8268 48.8429 30.1902 53.2759 30.1902C55.976 30.1902 57.185 28.5485 57.185 28.5485V29.2292C57.185 29.5495 57.4268 29.7898 57.7492 29.7898H61.0135V14.7347C61.0135 14.7347 58.0313 14.7347 57.7492 14.7347C57.4268 14.7347 57.185 15.015 57.185 15.2953ZM57.185 24.9449C56.5805 25.8258 55.3715 26.5866 53.9207 26.5866C51.3415 26.5866 49.3668 24.985 49.3668 22.2623C49.3668 19.5395 51.3415 17.9379 53.9207 17.9379C55.3312 17.9379 56.6208 18.7387 57.185 19.5796V24.9449ZM63.4315 14.7347H67.3003V29.7898H63.4315V14.7347ZM121.222 14.3343C118.562 14.3343 117.312 15.9359 117.312 15.9359V7.48749H113.444V29.7898C113.444 29.7898 116.426 29.7898 116.708 29.7898C117.03 29.7898 117.272 29.5095 117.272 29.2292V28.5485C117.272 28.5485 118.521 30.1902 121.181 30.1902C125.574 30.1902 128.999 26.8268 128.999 22.2623C128.999 17.6977 125.574 14.3343 121.222 14.3343ZM120.577 26.5465C119.086 26.5465 117.917 25.7858 117.312 24.9049V19.5395C117.917 18.7387 119.207 17.8979 120.577 17.8979C123.156 17.8979 125.131 19.4995 125.131 22.2222C125.131 24.9449 123.156 26.5465 120.577 26.5465ZM111.429 20.8609V29.8298H107.56V21.3013C107.56 18.8188 106.754 17.8178 104.578 17.8178C103.409 17.8178 102.2 18.4184 101.434 19.2993V29.7898H97.5655V14.7347H100.628C100.951 14.7347 101.193 15.015 101.193 15.2953V15.9359C102.321 14.7748 103.812 14.3343 105.303 14.3343C106.996 14.3343 108.406 14.8148 109.535 15.7758C110.905 16.8969 111.429 18.3383 111.429 20.8609ZM88.1756 14.3343C85.5158 14.3343 84.2665 15.9359 84.2665 15.9359V7.48749H80.3978V29.7898C80.3978 29.7898 83.38 29.7898 83.662 29.7898C83.9845 29.7898 84.2262 29.5095 84.2262 29.2292V28.5485C84.2262 28.5485 85.4755 30.1902 88.1353 30.1902C92.528 30.1902 95.9535 26.8268 95.9535 22.2623C95.9938 17.6977 92.5683 14.3343 88.1756 14.3343ZM87.5308 26.5465C86.0397 26.5465 84.871 25.7858 84.2665 24.9049V19.5395C84.871 18.7387 86.1606 17.8979 87.5308 17.8979C90.11 17.8979 92.0847 19.4995 92.0847 22.2222C92.0847 24.9449 90.11 26.5465 87.5308 26.5465ZM77.0529 14.3343C78.2216 14.3343 78.8261 14.5345 78.8261 14.5345V18.0981C78.8261 18.0981 75.6021 17.017 73.5871 19.2993V29.8298H69.7183V14.7347C69.7183 14.7347 72.7005 14.7347 72.9826 14.7347C73.305 14.7347 73.5468 15.015 73.5468 15.2953V15.9359C74.2722 15.0951 75.8439 14.3343 77.0529 14.3343ZM36.8739 28.4284C36.6724 27.9479 36.4709 27.4274 36.2694 26.987C35.947 26.2663 35.6246 25.5856 35.3425 24.9449L35.3022 24.9049C32.5215 18.8989 29.5393 12.8128 26.3959 6.80681L26.275 6.56657C25.9526 5.96597 25.6302 5.32533 25.3078 4.68468C24.9048 3.96396 24.5018 3.2032 23.857 2.48248C22.5674 0.880881 20.7136 0 18.7389 0C16.7239 0 14.9104 0.880881 13.5805 2.4024C12.976 3.12312 12.5327 3.88388 12.1297 4.6046C11.8073 5.24525 11.4849 5.88589 11.1625 6.48649L11.0416 6.72673C7.93853 12.7327 4.91604 18.8188 2.13535 24.8248L2.09505 24.9049C1.81295 25.5455 1.49055 26.2262 1.16815 26.9469C0.96665 27.3874 0.76515 27.8679 0.563651 28.3884C0.039752 29.8699 -0.121448 31.2713 0.0800519 32.7127C0.523351 35.7157 2.53835 38.2382 5.31904 39.3594C6.36684 39.7998 7.45493 40 8.58333 40C8.90573 40 9.30873 39.96 9.63113 39.9199C10.961 39.7598 12.3312 39.3193 13.6611 38.5586C15.3134 37.6376 16.8851 36.3163 18.6583 34.3944C20.4315 36.3163 22.0435 37.6376 23.6555 38.5586C24.9854 39.3193 26.3556 39.7598 27.6855 39.9199C28.0079 39.96 28.4109 40 28.7333 40C29.8617 40 30.9901 39.7998 31.9976 39.3594C34.8186 38.2382 36.7933 35.6757 37.2366 32.7127C37.559 31.3113 37.3978 29.9099 36.8739 28.4284ZM18.6986 30.5105C16.5224 27.7878 15.1119 25.2252 14.6283 23.0631C14.4268 22.1421 14.3865 21.3413 14.5074 20.6206C14.588 19.98 14.8298 19.4194 15.1522 18.9389C15.9179 17.8579 17.2075 17.1772 18.6986 17.1772C20.1897 17.1772 21.5196 17.8178 22.245 18.9389C22.5674 19.4194 22.8092 19.98 22.8898 20.6206C23.0107 21.3413 22.9704 22.1822 22.7689 23.0631C22.2853 25.1852 20.8748 27.7477 18.6986 30.5105ZM34.7783 32.3924C34.4962 34.4745 33.0857 36.2763 31.111 37.0771C30.1438 37.4775 29.096 37.5976 28.0482 37.4775C27.0407 37.3574 26.0332 37.037 24.9854 36.4364C23.5346 35.6356 22.0838 34.3944 20.3912 32.5526C23.051 29.3093 24.663 26.3463 25.2675 23.7037C25.5496 22.4625 25.5899 21.3413 25.469 20.3003C25.3078 19.2993 24.9451 18.3784 24.3809 17.5776C23.1316 15.7758 21.036 14.7347 18.6986 14.7347C16.3612 14.7347 14.2656 15.8158 13.0163 17.5776C12.4521 18.3784 12.0894 19.2993 11.9282 20.3003C11.767 21.3413 11.8073 22.5025 12.1297 23.7037C12.7342 26.3463 14.3865 29.3493 17.006 32.5926C15.3537 34.4344 13.8626 35.6757 12.4118 36.4765C11.364 37.0771 10.3565 37.3974 9.34903 37.5175C8.26093 37.6376 7.21313 37.4775 6.28624 37.1171C4.31154 36.3163 2.90104 34.5145 2.61895 32.4324C2.49805 31.4314 2.57865 30.4304 2.98164 29.3093C3.10254 28.9089 3.30404 28.5085 3.50554 28.028C3.78764 27.3874 4.11004 26.7067 4.43244 26.026L4.47274 25.9459C7.25343 19.98 10.2356 13.8939 13.3387 7.96797L13.4596 7.72773C13.782 7.12713 14.1044 6.48649 14.4268 5.88589C14.7492 5.24524 15.1119 4.64464 15.5552 4.12412C16.4015 3.16316 17.5299 2.64264 18.7792 2.64264C20.0285 2.64264 21.1569 3.16316 22.0032 4.12412C22.4465 4.64464 22.8092 5.24524 23.1316 5.88589C23.454 6.48649 23.7764 7.12713 24.0988 7.72773L24.2197 7.96797C27.2825 13.9339 30.2647 20.02 33.0454 25.986V26.026C33.3678 26.6667 33.6499 27.3874 33.9723 28.028C34.1738 28.5085 34.3753 28.9089 34.4962 29.3093C34.8186 30.3503 34.9395 31.3514 34.7783 32.3924Z" fill="white"></path>
  </g>
  <defs>
    <clipPath id="clip0_1740_7348">
      <rect width="129" height="40" fill="white"></rect>
    </clipPath>
  </defs>
</svg>
