<?xml version="1.0" encoding="UTF-8"?>
<svg xmlns="http://www.w3.org/2000/svg" width="281" height="80" viewBox="0 0 281 80" fill="none">
  <g clip-path="url(#clip0_8873_16545)">
    <path fill-rule="evenodd" clip-rule="evenodd" d="M51.5 26V33H58.5874H65.6748V40V47H58.5874H51.5V54V61H58.5874H65.6748V54V47H72.7622H79.8495V54V61H86.9369H94.0243V40V19H72.7622H51.5V26ZM112.211 27.0296C110.357 31.4361 108.668 35.5007 108.457 36.0625C108.138 36.9095 108.416 37.0833 110.094 37.0833C111.822 37.0833 112.257 36.7876 113.101 35.0417L114.086 33H118.487H122.888L123.635 35.0417C124.29 36.8307 124.632 37.0833 126.395 37.0833C128.061 37.0833 128.341 36.9083 128.028 36.0625C127.82 35.5013 126.13 31.4349 124.273 27.0267L120.897 19.0111L118.24 19.014L115.582 19.0169L112.211 27.0296ZM130.052 28.0417V37.0833H132.095H134.138L134.31 32.2708L134.481 27.4583L136.79 32.2708L139.097 37.0833H141.403H143.708L146.019 32.2708L148.328 27.4583L148.344 32.2708L148.361 37.0833H150.428H152.495V28.0417V19H150.234H147.973L144.695 25.8542L141.417 32.7083L138.076 25.8542L134.734 19H132.393H130.052V28.0417ZM155.448 28.0417V37.0833H163.29C173.003 37.0833 173.757 36.7322 173.757 32.2084C173.757 30.5261 173.469 28.8647 173.115 28.5159C172.653 28.0592 172.653 27.7722 173.115 27.4898C173.469 27.274 173.757 25.7101 173.757 24.0143C173.757 19.2607 173.225 19 163.523 19H155.448V28.0417ZM159.583 24.25V26.0455L164.751 25.8769C169.824 25.7112 169.918 25.6815 169.918 24.25C169.918 22.8185 169.824 22.7887 164.751 22.6231L159.583 22.4545V24.25ZM116.67 26.2928L115.395 29.5H118.285H121.176L120.003 26.5617C119.358 24.9459 118.83 23.5022 118.83 23.3534C118.83 23.2047 118.631 23.0839 118.387 23.0845C118.144 23.0851 117.371 24.5288 116.67 26.2928ZM159.583 31.25V33H164.568C169.724 33 170.552 32.6377 169.917 30.6614C169.583 29.6225 169.017 29.5 164.563 29.5H159.583V31.25ZM109.177 43.9836C108.381 44.8516 108.199 46.356 108.199 52.0598C108.199 61.2118 107.98 61 117.456 61C125.417 61 126.508 60.5199 126.508 57.0164C126.508 55.3498 126.333 55.1667 124.736 55.1667C123.555 55.1667 122.964 55.4583 122.964 56.0417C122.964 56.758 121.944 56.9167 117.331 56.9167H111.697L111.867 51.8125L112.038 46.7083L117.255 46.5392C122.084 46.3822 122.496 46.4587 122.787 47.56C123.012 48.4105 123.588 48.75 124.805 48.75C126.343 48.75 126.508 48.5604 126.508 46.7987C126.508 43.4137 125.323 42.9167 117.251 42.9167C111.126 42.9167 110.02 43.0625 109.177 43.9836ZM129.461 51.9583V61H131.528C133.584 61 133.596 60.986 133.596 58.375V55.75H136.494C139.287 55.75 139.454 55.8457 141.072 58.3738C142.581 60.734 142.976 60.9982 145 60.9988C147.412 61 147.413 60.9901 145.193 57.8302C144.276 56.5235 144.176 56.058 144.774 55.8614C146.997 55.1299 147.77 53.4441 147.77 49.3333C147.77 43.15 147.394 42.9167 137.435 42.9167H129.461V51.9583ZM149.733 43.7327C149.907 44.1819 151.397 46.6728 153.045 49.268C155.781 53.5812 156.039 54.2887 156.039 57.4936V61H158.106H160.173V57.4936C160.173 54.2887 160.431 53.5812 163.168 49.268C167.22 42.8817 167.212 42.9167 164.699 42.9167C162.748 42.9167 162.441 43.1803 160.316 46.6862L158.03 50.4557L155.797 46.6862C153.723 43.1833 153.418 42.9167 151.49 42.9167C149.956 42.9167 149.498 43.129 149.733 43.7327ZM168.442 51.9583V61H170.509C172.565 61 172.576 60.986 172.576 58.375V55.75H178.187C185.446 55.75 186.16 55.1865 186.16 49.4634C186.16 43.0736 185.926 42.9167 176.382 42.9167H168.442V51.9583ZM189.113 44.6667V46.4167H192.657H196.201V53.7083V61H198.268H200.335V53.7083V46.4167H203.879H207.423V44.6667V42.9167H198.268H189.113V44.6667ZM211.557 44.0833C210.514 45.1129 210.376 46.0276 210.376 51.8568C210.376 58.0081 210.469 58.5506 211.742 59.7318C212.99 60.8892 213.732 61 220.241 61C230.011 61 230.094 60.9294 230.357 52.4425C230.536 46.6803 230.439 45.9692 229.281 44.5144C228.011 42.9202 227.992 42.9167 220.373 42.9167C213.525 42.9167 212.616 43.0368 211.557 44.0833ZM133.596 49.3333V52.2972L138.468 52.1275L143.341 51.9583V49.3333V46.7083L138.468 46.5392L133.596 46.3694V49.3333ZM172.576 49.3578V52.299L177.153 52.1287L181.731 51.9583L181.911 49.1875L182.091 46.4167H177.334H172.576V49.3578ZM214.572 47.217C214.125 47.7496 213.929 49.6314 214.04 52.3422L214.215 56.625L220.291 56.7913L226.369 56.9581L226.198 51.8329L226.027 46.7083L220.653 46.5415C216.535 46.4143 215.115 46.5718 214.572 47.217Z" fill="#D9D9DD"></path>
  </g>
  <defs>
    <clipPath id="clip0_8873_16545">
      <rect width="178.957" height="42" fill="white" transform="translate(51.5 19)"></rect>
    </clipPath>
  </defs>
</svg>
