<svg width="225" height="40" viewBox="0 0 225 40" fill="none" xmlns="http://www.w3.org/2000/svg">
<g clip-path="url(#clip0_2049_3516)">
<path d="M11.2553 4.98828L8.02637 8.20094L11.2553 11.4136L14.4843 8.20094L11.2553 4.98828Z" fill="white"/>
<path d="M19.2407 4.99437L16.0117 8.20703L19.2407 11.4197L22.4696 8.20703L19.2407 4.99437Z" fill="white"/>
<path d="M19.2436 20.633L16.0146 23.8457L19.2436 27.0584L22.4726 23.8457L19.2436 20.633Z" fill="white"/>
<path d="M11.5841 28.9532L14.4381 31.7929L11.2147 35L7.99134 31.7929L10.879 28.9532V26.6815L8.36069 24.2094H6.07745L3.2234 27.049L0 23.8419L3.2234 20.6348L6.07745 23.4744H8.36069L11.2147 20.6348L14.4381 23.8419L11.5841 26.6815V28.9532Z" fill="white"/>
<path d="M19.2368 28.5764L16.0078 31.7891L19.2368 35.0017L22.4657 31.7891L19.2368 28.5764Z" fill="white"/>
<path d="M27.2758 20.6252L24.0469 23.8378L27.2758 27.0505L30.5048 23.8378L27.2758 20.6252Z" fill="white"/>
<path d="M11.2514 12.635L8.02246 15.8477L11.2514 19.0603L14.4804 15.8477L11.2514 12.635Z" fill="white"/>
<path d="M3.21919 12.6428L-0.00976562 15.8555L3.21919 19.0681L6.44815 15.8555L3.21919 12.6428Z" fill="white"/>
<path d="M19.2368 12.641L16.0078 15.8536L19.2368 19.0663L22.4657 15.8536L19.2368 12.641Z" fill="white"/>
<path d="M27.268 12.633L24.0391 15.8457L27.268 19.0584L30.497 15.8457L27.268 12.633Z" fill="white"/>
<path d="M45.5648 13.9537L43.248 19.8668H47.8816L45.5648 13.9537ZM43.8859 9.41022H47.2101L53.8583 26.5817H50.4335L49.0904 23.0405H42.0392L40.629 26.5817H37.2041L43.8859 9.41022Z" fill="white"/>
<path d="M56.04 13.8868H59.2299V15.1897C59.9686 14.5884 60.6065 14.1541 61.2109 13.9202C61.8153 13.6864 62.4197 13.5528 63.0241 13.5528C64.3 13.5528 65.3745 13.9871 66.2475 14.8891C66.9862 15.624 67.3555 16.7265 67.3555 18.1964V26.5817H64.1993V21.0361C64.1993 19.5327 64.1321 18.4971 63.9978 18.0294C63.8635 17.5283 63.6285 17.1608 63.2927 16.8935C62.9569 16.6263 62.5204 16.4926 62.0503 16.4926C61.4124 16.4926 60.8416 16.6931 60.3715 17.1274C59.9014 17.5617 59.5992 18.163 59.3977 18.9314C59.297 19.3323 59.2634 20.2009 59.2634 21.5038V26.6151H56.0736V13.8868H56.04Z" fill="white"/>
<path d="M76.5223 16.4926C75.5485 16.4926 74.7091 16.8267 74.0376 17.5283C73.366 18.2298 73.0638 19.1318 73.0638 20.2009C73.0638 21.3033 73.3996 22.2053 74.0712 22.9069C74.7427 23.6084 75.5485 23.9759 76.5223 23.9759C77.5296 23.9759 78.369 23.6418 79.0406 22.9403C79.7121 22.2387 80.0479 21.3367 80.0479 20.2009C80.0479 19.0984 79.7121 18.1964 79.0406 17.5283C78.369 16.8267 77.5296 16.4926 76.5223 16.4926ZM79.88 13.8868H83.0698V26.5817H79.88V25.2454C79.242 25.8467 78.6376 26.2476 77.9997 26.5149C77.3617 26.7822 76.6902 26.9158 75.9515 26.9158C74.3062 26.9158 72.8624 26.281 71.6872 25.0116C70.4784 23.7421 69.874 22.1719 69.874 20.2677C69.874 18.2966 70.4448 16.6931 71.62 15.457C72.7952 14.1875 74.2055 13.5862 75.8507 13.5862C76.623 13.5862 77.3281 13.7198 77.9997 14.0205C78.6712 14.3211 79.3092 14.7554 79.88 15.3234V13.8868Z" fill="white"/>
<path d="M89.181 8.97656H85.9912V26.5824H89.181V8.97656Z" fill="white"/>
<path d="M90.6924 13.8868H93.9494L97.2735 21.8712L100.933 13.8868H104.224L96.2326 31.2254H92.9085L95.5275 25.6463L90.6924 13.8868Z" fill="white"/>
<path d="M106.44 9.20898H109.63V13.886H111.544V16.6255H109.63V26.5809H106.44V16.6255H104.795V13.886H106.44V9.20898Z" fill="white"/>
<path d="M112.92 13.8856H116.11V26.5805H112.92V13.8856ZM114.498 8.64062C115.069 8.64062 115.539 8.84107 115.942 9.24196C116.345 9.64285 116.547 10.144 116.547 10.7119C116.547 11.2798 116.345 11.7809 115.942 12.1818C115.539 12.5827 115.069 12.7832 114.498 12.7832C113.928 12.7832 113.458 12.5827 113.055 12.1818C112.652 11.7809 112.45 11.2798 112.45 10.6785C112.45 10.1106 112.652 9.64285 113.055 9.24196C113.458 8.84107 113.961 8.64062 114.498 8.64062Z" fill="white"/>
<path d="M131.522 16.4592L128.869 17.9292C128.366 17.3946 127.862 17.0606 127.392 16.8267C126.888 16.6263 126.317 16.526 125.679 16.526C124.471 16.526 123.497 16.8935 122.758 17.5951C122.02 18.2966 121.65 19.232 121.65 20.3345C121.65 21.4035 122.02 22.3055 122.725 22.9737C123.43 23.6418 124.37 24.0093 125.545 24.0093C126.989 24.0093 128.097 23.5082 128.903 22.5394L131.421 24.2766C130.044 26.0472 128.131 26.9492 125.612 26.9492C123.363 26.9492 121.617 26.281 120.341 24.9782C119.065 23.6418 118.427 22.1051 118.427 20.3345C118.427 19.0984 118.729 17.9626 119.367 16.9269C119.971 15.8913 120.844 15.0895 121.952 14.4882C123.06 13.8868 124.303 13.5862 125.679 13.5862C126.955 13.5862 128.097 13.8534 129.104 14.3545C130.044 14.8223 130.884 15.5238 131.522 16.4592Z" fill="white"/>
<path d="M142.233 15.6574L140.252 17.6285C139.446 16.8267 138.707 16.4258 138.069 16.4258C137.7 16.4258 137.431 16.4926 137.23 16.6597C137.028 16.8267 136.928 16.9937 136.928 17.2276C136.928 17.3946 136.995 17.5617 137.129 17.6953C137.263 17.8289 137.566 18.0294 138.069 18.2966L139.244 18.8646C140.487 19.4659 141.326 20.1006 141.796 20.7354C142.266 21.3701 142.501 22.1051 142.501 22.9403C142.501 24.0761 142.098 25.0116 141.259 25.7799C140.42 26.5483 139.312 26.9158 137.901 26.9158C136.055 26.9158 134.544 26.1808 133.436 24.7443L135.417 22.6062C135.786 23.0405 136.222 23.408 136.726 23.6753C137.23 23.9425 137.666 24.0761 138.069 24.0761C138.506 24.0761 138.841 23.9759 139.077 23.7755C139.345 23.575 139.479 23.3412 139.479 23.0739C139.479 22.5728 139.009 22.1051 138.069 21.6374L136.995 21.1029C134.913 20.0672 133.906 18.7643 133.906 17.2276C133.906 16.2254 134.309 15.3568 135.081 14.6552C135.853 13.9537 136.86 13.5862 138.069 13.5862C138.909 13.5862 139.681 13.7532 140.42 14.1207C141.091 14.4548 141.729 14.9893 142.233 15.6574Z" fill="white"/>
<path d="M155.093 9.41022H151.836V26.5817H155.093V9.41022Z" fill="white"/>
<path d="M158.45 13.8868H161.64V15.1897C162.379 14.5884 163.017 14.1541 163.621 13.9202C164.225 13.6864 164.83 13.5528 165.434 13.5528C166.71 13.5528 167.785 13.9871 168.658 14.8891C169.396 15.624 169.766 16.7265 169.766 18.1964V26.5817H166.609V21.0361C166.609 19.5327 166.542 18.4971 166.408 18.0294C166.274 17.5283 166.039 17.1608 165.703 16.8935C165.367 16.6263 164.931 16.4926 164.427 16.4926C163.789 16.4926 163.218 16.6931 162.748 17.1274C162.278 17.5617 161.976 18.163 161.774 18.9314C161.674 19.3323 161.64 20.2009 161.64 21.5038V26.6151H158.45V13.8868Z" fill="white"/>
<path d="M180.679 15.6574L178.698 17.6285C177.892 16.8267 177.153 16.4258 176.515 16.4258C176.146 16.4258 175.878 16.4926 175.676 16.6597C175.475 16.8267 175.374 16.9937 175.374 17.2276C175.374 17.3946 175.441 17.5617 175.575 17.6953C175.71 17.8289 176.012 18.0294 176.515 18.2966L177.691 18.8646C178.933 19.4659 179.772 20.1006 180.243 20.7354C180.713 21.3701 180.948 22.1051 180.948 22.9403C180.948 24.0761 180.545 25.0116 179.705 25.7799C178.866 26.5483 177.758 26.9158 176.348 26.9158C174.501 26.9158 172.99 26.1808 171.882 24.7443L173.863 22.6062C174.232 23.0405 174.669 23.408 175.172 23.6753C175.676 23.9425 176.113 24.0761 176.515 24.0761C176.952 24.0761 177.288 23.9759 177.523 23.7755C177.791 23.575 177.926 23.3412 177.926 23.0739C177.926 22.5728 177.456 22.1051 176.515 21.6374L175.441 21.1029C173.359 20.0672 172.352 18.7643 172.352 17.2276C172.352 16.2254 172.755 15.3568 173.527 14.6552C174.299 13.9537 175.307 13.5862 176.515 13.5862C177.355 13.5862 178.127 13.7532 178.866 14.1207C179.605 14.4882 180.175 14.9893 180.679 15.6574Z" fill="white"/>
<path d="M183.097 13.8856H186.286V26.5805H183.097V13.8856ZM184.708 8.64062C185.279 8.64062 185.749 8.84107 186.152 9.24196C186.555 9.64285 186.757 10.144 186.757 10.7119C186.757 11.2798 186.555 11.7809 186.152 12.1818C185.749 12.5827 185.279 12.7832 184.708 12.7832C184.138 12.7832 183.667 12.5827 183.265 12.1818C182.862 11.7809 182.66 11.2798 182.66 10.6785C182.66 10.1106 182.862 9.64285 183.265 9.24196C183.667 8.84107 184.138 8.64062 184.708 8.64062Z" fill="white"/>
<path d="M195.319 16.526C194.311 16.526 193.472 16.8601 192.834 17.5283C192.162 18.1964 191.86 19.065 191.86 20.0672C191.86 21.1363 192.196 22.0049 192.867 22.673C193.539 23.3412 194.378 23.6753 195.419 23.6753C196.427 23.6753 197.232 23.3412 197.87 22.673C198.508 22.0049 198.844 21.1363 198.844 20.0672C198.844 18.9982 198.508 18.163 197.87 17.4949C197.199 16.8601 196.359 16.526 195.319 16.526ZM198.643 13.8868H201.833V24.7777C201.833 26.9158 201.396 28.5194 200.523 29.5216C199.348 30.8913 197.602 31.5929 195.251 31.5929C194.009 31.5929 192.935 31.4258 192.095 31.1251C191.256 30.8245 190.517 30.3568 189.946 29.7554C189.375 29.1541 188.939 28.4191 188.637 27.5505H192.162C192.465 27.918 192.867 28.1853 193.371 28.3523C193.875 28.5194 194.446 28.6196 195.117 28.6196C195.99 28.6196 196.662 28.4859 197.199 28.2187C197.736 27.9514 198.105 27.6174 198.307 27.1831C198.508 26.7488 198.643 26.0472 198.643 25.0116C198.072 25.5795 197.501 25.9804 196.863 26.2142C196.259 26.4481 195.554 26.5817 194.748 26.5817C193.035 26.5817 191.591 25.9804 190.416 24.7443C189.241 23.5082 188.637 21.9715 188.637 20.0672C188.637 18.0628 189.275 16.4258 190.517 15.2231C191.659 14.1207 193.002 13.5528 194.58 13.5528C195.319 13.5528 196.024 13.6864 196.662 13.9537C197.3 14.2209 197.971 14.6552 198.643 15.29V13.8868Z" fill="white"/>
<path d="M205.089 8.97656H208.279V15.157C208.917 14.6224 209.521 14.2216 210.159 13.9543C210.797 13.687 211.435 13.5534 212.073 13.5534C213.349 13.5534 214.424 13.9877 215.263 14.8563C216.002 15.6247 216.371 16.7271 216.371 18.1971V26.5824H213.215V21.0033C213.215 19.5334 213.148 18.5311 213.013 17.9966C212.879 17.4621 212.644 17.0946 212.308 16.8273C211.973 16.5601 211.536 16.4265 211.032 16.4265C210.394 16.4265 209.824 16.6269 209.354 17.0612C208.883 17.4955 208.581 18.0634 208.38 18.7984C208.279 19.1659 208.245 20.0679 208.245 21.4042V26.5155H205.056V8.97656H205.089Z" fill="white"/>
<path d="M219.897 9.20898H223.087V13.886H225.001V16.6255H223.087V26.5809H219.897V16.6255H218.252V13.886H219.897V9.20898Z" fill="white"/>
</g>
<defs>
<clipPath id="clip0_2049_3516">
<rect width="225" height="40" fill="white"/>
</clipPath>
</defs>
</svg>
