<svg width="260" height="70" viewBox="0 0 260 70" fill="none" xmlns="http://www.w3.org/2000/svg">
<g clip-path="url(#clip0_10949_3176)">
<path fill-rule="evenodd" clip-rule="evenodd" d="M59.4775 26.9296H55.446C55.1264 26.9296 54.9006 26.6072 55.0012 26.2944L56.6024 21.3184C57.0032 20.1371 57.4618 18.07 57.4618 18.07H57.5191C57.5191 18.07 57.949 20.1371 58.3214 21.3184L59.9224 26.2946C60.0229 26.6072 59.7971 26.9296 59.4775 26.9296ZM59.5204 14.76C59.4545 14.5667 59.2774 14.4375 59.0786 14.4375H55.8737C55.6749 14.4375 55.4978 14.5667 55.4318 14.76L48.5984 34.7618C48.491 35.076 48.7172 35.4052 49.0404 35.4052H51.8506C52.053 35.4052 52.2324 35.2715 52.2957 35.0735L53.8026 30.3622C53.8659 30.1643 54.0454 30.0304 54.2477 30.0304H60.7046C60.9067 30.0304 61.0862 30.1642 61.1496 30.3622L62.6566 35.0735C62.7201 35.2715 62.8995 35.4052 63.1019 35.4052H65.9118C66.2351 35.4052 66.4612 35.076 66.354 34.7618L59.5204 14.76ZM85.8241 32.1432C83.4286 32.1432 81.4373 30.2102 81.4373 27.3408C81.4373 24.5015 83.4286 22.5383 85.8241 22.5383C88.1905 22.5383 90.1819 24.5015 90.1819 27.3408C90.1819 30.2102 88.1905 32.1432 85.8241 32.1432ZM85.7952 19.2762C81.322 19.2762 77.7143 22.6289 77.7143 27.3408C77.7143 32.0828 81.322 35.4052 85.8241 35.4052C90.297 35.4052 93.9047 32.0828 93.9047 27.3408C93.9047 22.6289 90.297 19.2762 85.7952 19.2762ZM75.5736 32.0685C75.5164 32.0708 75.455 32.072 75.3905 32.072C74.3178 32.072 72.2953 31.715 72.2953 29.2154V24.0507C72.2953 23.7813 72.5202 23.5629 72.7978 23.5629H75.3478C75.6252 23.5629 75.8501 23.3445 75.8501 23.075V21.045C75.8501 20.7756 75.6252 20.5573 75.3478 20.5573H72.7978C72.5202 20.5573 72.2953 20.3388 72.2953 20.0692L72.2962 17.3447C72.2962 17.0753 72.0713 16.8569 71.7937 16.8569L68.9979 16.9169C68.7206 16.9169 68.4957 17.1353 68.4957 17.4046V20.0692C68.4957 20.3388 68.2707 20.5573 67.9932 20.5573H66.8834C66.6058 20.5573 66.3809 20.7756 66.3809 21.045V23.075C66.3809 23.3445 66.6058 23.5629 66.8834 23.5629H67.9012C68.1787 23.5629 68.4037 23.7813 68.4037 24.0507V29.6915C68.4037 34.7804 72.7245 35.4052 74.9 35.4052C75.1934 35.4052 75.443 35.3911 75.6368 35.3738C75.8968 35.3512 76.0952 35.1412 76.0952 34.8877V32.5557C76.0952 32.2784 75.8588 32.0572 75.5736 32.0685ZM116.136 20.6015C115.103 19.8481 113.845 19.4026 112.507 19.4033H112.271C111.38 19.403 110.521 19.6005 109.744 19.9558C109.119 20.2423 108.546 20.6306 108.041 21.1001C107.86 21.2681 107.593 21.262 107.417 21.0893C107.189 20.8668 106.947 20.661 106.691 20.4746C105.659 19.7211 104.4 19.2755 103.062 19.2762H102.826C101.935 19.2762 101.077 19.4734 100.3 19.8289C99.1336 20.3625 98.1477 21.2456 97.4472 22.3578C96.7466 23.4685 96.3327 24.8219 96.3333 26.2613V34.8974C96.3333 35.1778 96.5447 35.4052 96.8054 35.4052H99.6387C99.8996 35.4052 100.111 35.1778 100.111 34.8974V26.2613C100.111 25.8578 100.187 25.4811 100.324 25.1326C100.529 24.6112 100.879 24.157 101.316 23.8398C101.753 23.5224 102.265 23.341 102.826 23.3403H103.062C103.438 23.3406 103.788 23.4218 104.111 23.5693C104.596 23.7901 105.018 24.1669 105.313 24.6363C105.609 25.107 105.777 25.6577 105.778 26.2613V34.8974C105.778 35.1778 105.989 35.4052 106.25 35.4052H109.083C109.344 35.4052 109.555 35.1778 109.555 34.8974V26.3884C109.556 25.9848 109.631 25.6079 109.769 25.2597C109.974 24.7382 110.324 24.2841 110.76 23.9669C111.198 23.6493 111.71 23.4679 112.271 23.4673H112.507C112.882 23.4676 113.232 23.5486 113.556 23.6964C114.041 23.9172 114.463 24.2938 114.758 24.7632C115.053 25.2341 115.222 25.7847 115.222 26.3884V34.8974C115.222 35.1778 115.434 35.4052 115.694 35.4052H118.528C118.789 35.4052 119 35.1778 119 34.8974V26.3884C119 25.4296 118.817 24.5064 118.486 23.6706C117.99 22.4159 117.169 21.3553 116.136 20.6015Z" fill="white"/>
<path fill-rule="evenodd" clip-rule="evenodd" d="M21.8465 6.11441C21.8536 5.98846 21.8571 5.88104 21.8571 5.81175C21.8583 5.4394 21.8173 5.07121 21.7366 4.70719C21.7188 4.62085 21.6969 4.53168 21.6725 4.44011C21.5819 4.11972 21.4927 3.86755 21.3683 3.60651C21.2393 3.35031 21.1355 3.16635 21.0263 2.99823C21.0046 2.9652 20.9828 2.93633 20.9609 2.90451C20.8657 2.7658 20.7699 2.63743 20.672 2.52007C20.6389 2.47965 20.6057 2.43709 20.5714 2.39815C20.455 2.26682 20.342 2.15188 20.2335 2.05024C20.201 2.01975 20.1693 1.99102 20.1369 1.96188C20.0014 1.84116 19.8823 1.74596 19.7838 1.67385C19.7216 1.62954 19.7031 1.61518 19.6899 1.60578C19.6522 1.58093 19.6165 1.56133 19.5795 1.5377C19.4742 1.46895 19.3718 1.40288 19.2726 1.34675C19.1165 1.26122 18.9869 1.19663 18.8646 1.14332C18.7131 1.07726 18.5921 1.03053 18.4862 0.994947C18.4169 0.97118 18.3831 0.958558 18.3593 0.951576C18.3276 0.942176 18.2957 0.936268 18.2633 0.927406C18.1522 0.895179 18.0438 0.866712 17.9381 0.843885C17.9068 0.837037 17.8751 0.830189 17.8441 0.824281C17.7344 0.802528 17.6284 0.785743 17.5267 0.772987C17.4406 0.761573 17.356 0.752711 17.2707 0.746131C17.2 0.74076 17.1292 0.735255 17.0632 0.732569C17.0068 0.730421 16.95 0.727752 16.8939 0.727752C16.6126 0.72505 16.3587 0.748145 16.0876 0.794068L16.0169 0.806959C15.6088 0.882289 15.1625 1.01858 14.7226 1.23087C14.6478 1.26538 14.5844 1.29774 14.509 1.33883L14.4383 1.37858C14.3516 1.42772 14.2505 1.48936 14.1387 1.56388C13.8967 1.72864 13.6532 1.91811 13.4104 2.15282C13.3822 2.18102 13.3563 2.20721 13.3299 2.23379C13.3007 2.26387 13.271 2.29099 13.2419 2.32268C13.1063 2.4771 13.0204 2.57674 12.9496 2.66402C12.9172 2.70309 12.8919 2.7427 12.8616 2.78258C12.732 2.95916 12.6433 3.0933 12.5673 3.22691C12.5177 3.31244 12.4873 3.37059 12.4569 3.42927C12.3624 3.60732 12.2883 3.76375 12.2446 3.86352C12.2023 3.96275 12.1599 4.06386 12.1196 4.15947C11.8511 4.80145 11.5363 5.55085 11.2744 6.17591C11.2527 6.22774 11.2283 6.28642 11.2076 6.33624C11.1905 6.37733 11.1706 6.42513 11.1521 6.46918C11.0575 6.69503 10.9523 6.94519 10.8512 7.18796C10.791 7.33016 10.7328 7.46914 10.6812 7.59321C10.6423 7.68573 10.598 7.79141 10.5562 7.89064C10.2527 8.6148 9.88962 9.48129 9.60584 10.1585C9.32757 10.8241 8.973 11.6689 8.66956 12.3947C8.61252 12.5307 8.55381 12.6716 8.50075 12.7973C8.40427 13.0277 8.28916 13.3015 8.17675 13.5699C8.09222 13.7716 8.00884 13.9711 7.93613 14.1443C7.77722 14.5226 7.59415 14.9612 7.40902 15.402C7.28595 15.6959 7.16301 15.9895 7.04456 16.2726C6.95335 16.4903 6.86457 16.7021 6.78338 16.8964C6.69936 17.0972 6.60738 17.3157 6.51347 17.5404C6.20861 18.268 5.86804 19.0811 5.59556 19.7307C5.57436 19.7805 5.5506 19.8384 5.52812 19.8918C5.35622 20.3026 5.1499 20.794 4.98855 21.1789C4.70283 21.8613 4.34441 22.716 4.0249 23.4792C3.9283 23.7091 3.83439 23.9336 3.7478 24.1401C3.47532 24.7901 3.1395 25.5919 2.83002 26.3318C2.80741 26.3851 2.78493 26.4383 2.76321 26.4908C2.6607 26.7356 2.56139 26.973 2.46941 27.1914C2.27375 27.6601 2.01129 28.2839 1.8155 28.7525C1.41404 29.7102 0.878965 30.988 0.477629 31.9462C0.357896 32.2579 0.275163 32.4844 0.20913 32.7306C0.137059 32.9906 0.0879838 33.2566 0.0331277 33.6793C0.00871869 33.8842 -0.00322888 34.0938 0.00075364 34.2517C0.00345148 34.5547 0.0192531 34.8532 0.0595923 35.1498C0.0694843 35.2404 0.103143 35.4715 0.182665 35.7871C0.211699 35.9091 0.245486 36.0293 0.291735 36.1716C0.335414 36.3023 0.361879 36.3794 0.394253 36.4695C0.500753 36.7664 0.64027 37.0389 0.750111 37.2377C0.825394 37.3733 0.867788 37.4461 0.892197 37.4878C0.931123 37.5526 0.99009 37.6389 1.04636 37.7227C1.11509 37.8249 1.19898 37.9344 1.29366 38.0542C1.3182 38.0854 1.34248 38.1184 1.36702 38.1479C1.4193 38.2121 1.47673 38.2748 1.53634 38.3416C1.63282 38.449 1.7275 38.5471 1.82013 38.6375C1.84839 38.6646 1.87164 38.6903 1.90132 38.7174C2.19307 38.9903 2.45296 39.1783 2.61637 39.2857C2.82192 39.4166 2.97673 39.5109 3.11959 39.5858C3.44358 39.755 3.78094 39.8837 3.78415 39.8843C3.82385 39.8992 3.86162 39.9054 3.90055 39.9188C4.73392 40.2143 5.4441 40.2568 5.8674 40.2411C5.90902 40.24 5.94153 40.2356 5.97724 40.2346C6.08503 40.2292 6.19679 40.2202 6.31242 40.2088C6.44872 40.1953 6.57706 40.1785 6.70206 40.1575C6.78659 40.1434 6.87061 40.1299 6.95848 40.1118C7.05124 40.0915 7.1332 40.0686 7.21773 40.0456C7.2767 40.0302 7.3349 40.016 7.39579 39.9977C7.52799 39.9573 7.64579 39.9168 7.75409 39.875C7.92084 39.8108 8.03647 39.7618 8.12575 39.7194L8.18934 39.6864C8.23289 39.6653 8.27734 39.6416 8.32167 39.6188C8.43266 39.5616 8.53711 39.5033 8.63641 39.4456C8.6675 39.4273 8.69782 39.4106 8.72891 39.3913C8.89553 39.2897 9.04186 39.1906 9.172 39.0949C9.53903 38.8211 9.7573 38.6045 9.86316 38.4886C10.0967 38.2418 10.2367 38.0686 10.2838 38.0051C10.3903 37.8674 10.4902 37.7247 10.6159 37.5277C10.6475 37.4776 10.6766 37.432 10.7098 37.3793C10.7718 37.2734 10.8122 37.2013 10.8492 37.1305C10.867 37.0961 10.8837 37.0626 10.9008 37.0275C10.9199 36.9882 10.9399 36.9486 10.9577 36.9092C11.0516 36.7089 11.129 36.5208 11.1819 36.3821L14.3608 27.5564C16.7958 20.7912 19.4127 13.5226 21.5422 7.60731L21.5826 7.47908C21.7254 7.02549 21.734 6.98426 21.7862 6.67194C21.8115 6.51993 21.8265 6.38136 21.8372 6.25393C21.8411 6.20747 21.8432 6.16087 21.8465 6.11441Z" fill="white"/>
<path fill-rule="evenodd" clip-rule="evenodd" d="M36.4091 42.2136C36.3825 41.8668 36.3078 41.4076 36.2345 41.0677C36.1765 40.7972 36.0564 40.4475 35.9721 40.185C35.8974 39.9804 35.8149 39.7546 35.7332 39.5301C35.4741 38.8206 35.1909 38.0455 34.9286 37.3267C34.8304 37.0572 34.7337 36.7932 34.6461 36.5516C34.4552 36.0287 34.1999 35.3301 34.009 34.8073C33.7403 34.0713 33.4064 33.1578 33.1027 32.3257C32.9909 32.0186 32.8823 31.7213 32.7837 31.4505C32.5194 30.7279 32.1895 29.8236 31.8929 29.0113C31.7968 28.7493 31.7044 28.4957 31.6195 28.2622C31.5311 28.0198 31.4265 27.7352 31.3234 27.4521C31.2304 27.1977 31.1384 26.945 31.0585 26.7271C30.7343 25.8387 30.3018 24.6548 29.9778 23.7669C29.6687 22.9205 29.2572 21.7926 28.948 20.9458C28.7986 20.5374 28.5998 19.9927 28.4506 19.5835C28.2403 19.0076 27.9792 18.2922 27.7408 17.6402C27.6532 17.3993 27.5681 17.1662 27.4909 16.9531C27.2148 16.199 26.8479 15.1942 26.5726 14.4397C26.4395 14.0752 26.2616 13.5885 26.1286 13.224C26.0654 13.0518 25.9973 12.8648 25.9265 12.6709C25.779 12.2659 25.62 11.8302 25.472 11.4245C25.4012 11.2307 25.333 11.0441 25.2699 10.8712C25.153 10.5787 25.0654 10.3594 24.9064 10.0714L24.8974 10.0532C24.8649 9.99281 24.8213 9.92469 24.7811 9.85856C24.7623 9.82749 24.7486 9.80213 24.7286 9.7692L24.7226 9.76123C24.6421 9.63468 24.5583 9.50972 24.4804 9.40708L24.4182 9.33551C24.2473 9.11521 24.0759 8.91709 23.9123 8.75761L23.8551 8.70661C23.6221 8.48685 23.4076 8.31807 23.2563 8.20228L23.2544 8.20108L23.2525 8.19976C23.0941 8.07905 22.7979 7.88783 22.3791 7.69542C22.3317 7.67285 22.2843 7.64828 22.2375 7.62836C22.1999 7.61203 22.1551 7.59676 22.1154 7.58069C21.9791 7.52572 21.8453 7.47552 21.7155 7.43449C21.6856 7.42467 21.6629 7.41391 21.6323 7.40395C21.4019 7.33145 21.1772 7.28431 20.9694 7.25098L20.9595 7.24898C20.8661 7.23464 20.7758 7.22256 20.6913 7.21326C20.4407 7.18485 20.2304 7.17768 20.0888 7.17945H20.0791C20.0135 7.17887 19.8271 7.18086 19.5662 7.20623C19.52 7.21074 19.4744 7.21526 19.431 7.2207L19.3726 7.22734L19.3095 7.23677L19.2348 7.24792C19.1655 7.25921 19.0953 7.27156 19.035 7.28285L19.0077 7.28962C18.9108 7.30887 18.8219 7.32932 18.7388 7.35163L18.7103 7.3584C18.5484 7.39266 18.353 7.46238 18.1719 7.53448C18.1427 7.54497 18.1174 7.55413 18.0862 7.56489C17.9701 7.60725 17.8186 7.67935 17.6589 7.76222C17.559 7.81307 17.4667 7.86141 17.3738 7.91572L17.3681 7.91957C17.3069 7.95542 17.2406 7.9938 17.1946 8.02169C17.1408 8.05462 17.0673 8.10309 16.9823 8.16337L16.948 8.18913C16.8641 8.24942 16.7733 8.31807 16.6745 8.39761L16.6421 8.42284C16.6179 8.44263 16.5822 8.47649 16.5543 8.49999C16.3914 8.63836 16.2244 8.79147 16.0719 8.96223C16.0095 9.03182 15.9653 9.09197 15.9108 9.15823C15.8207 9.26393 15.7316 9.37521 15.6407 9.50229C15.5407 9.64119 15.4556 9.77119 15.3843 9.89229L15.3407 9.95855C15.3239 9.98803 15.3141 10.0146 15.2979 10.0438C15.218 10.1901 15.1472 10.3285 15.0875 10.4521C15.0731 10.4815 15.0588 10.5192 15.0447 10.5521L15.0257 10.5953C14.9622 10.7449 14.8986 10.9089 14.857 11.0481L14.8492 11.0772C14.7393 11.4234 14.6849 11.7085 14.6492 11.9046L14.644 11.9442C14.6264 12.0691 14.605 12.2383 14.5894 12.44C14.5725 12.6392 14.566 12.8252 14.5764 13.0616V13.0782C14.5881 13.3422 14.6064 13.5197 14.6368 13.7071C14.6668 13.8976 14.705 14.073 14.7512 14.2767L14.7563 14.2993L14.7584 14.3101L22.5577 44.4405L22.5571 44.4356L22.5577 44.4385V44.4405C22.7318 45.0954 22.9225 45.5213 22.9771 45.6371C23.2512 46.2168 23.5148 46.6693 23.759 46.9816C24.1032 47.4203 24.3519 47.7374 24.8706 48.187C25.4732 48.7077 26.0116 48.9971 26.2142 49.1055C27.4584 49.7743 28.9565 50.0503 30.3239 49.865C30.6298 49.8233 31.4416 49.7135 32.4052 49.2541C33.3272 48.8151 33.8915 48.2995 34.1956 48.0223C34.8208 47.4489 35.2877 46.7213 35.5676 46.2115C36.0156 45.3981 36.2007 44.5833 36.2787 44.2354C36.4097 43.658 36.4598 42.8834 36.4091 42.2136Z" fill="white"/>
<path fill-rule="evenodd" clip-rule="evenodd" d="M34.78 24.0618L34.7812 24.0488C34.7964 23.8541 34.8075 23.6488 34.8095 23.4225L34.8087 23.3947L34.8075 23.3259C34.8075 23.166 34.802 23.012 34.7931 22.8634C34.7895 22.8001 34.7855 22.7412 34.7807 22.6818C34.7737 22.5949 34.7656 22.5123 34.7559 22.4304C34.7477 22.3554 34.74 22.2819 34.7312 22.2138L34.7292 22.1995C34.7079 22.051 34.6866 21.9244 34.6653 21.817C34.5945 21.441 34.5164 21.168 34.4786 21.0477C34.4601 20.9886 34.434 20.9109 34.4114 20.8415C34.2658 20.3775 34.1126 20.0196 33.9465 19.6958C33.9163 19.6357 33.8832 19.574 33.8497 19.5115C33.7529 19.3329 33.6514 19.1582 33.5435 18.9749C33.5422 18.9714 33.365 18.6826 33.0815 18.3184L33.0272 18.2481C32.9916 18.2032 32.9532 18.1571 32.914 18.11C32.8549 18.0385 32.798 17.9713 32.7431 17.9082C32.7156 17.8774 32.6895 17.8474 32.6643 17.8197C32.3689 17.4941 32.1396 17.2942 32.0648 17.2319L32.0599 17.2277C32.0572 17.2255 31.8938 17.0785 31.6364 16.8809C31.4475 16.7295 31.3344 16.6503 31.1147 16.508L31.0961 16.4969L31.079 16.4849C31.0014 16.435 30.9162 16.3841 30.8263 16.3329C30.4343 16.1011 30.1302 15.962 30.0349 15.9209C29.7576 15.7876 29.25 15.6118 28.7818 15.4864C28.7509 15.478 28.72 15.4703 28.6891 15.4623C28.5059 15.4155 28.3336 15.3778 28.1846 15.3551C28.0521 15.3315 27.9223 15.3168 27.7926 15.3012C27.7308 15.2937 27.6773 15.2881 27.6156 15.2812C27.5742 15.2769 27.5324 15.2691 27.4918 15.2663C27.4488 15.2635 27.4013 15.2622 27.3566 15.2592C27.3072 15.2558 27.2502 15.2482 27.2049 15.2466C27.091 15.2454 26.9366 15.2432 26.7704 15.2437C26.7141 15.2445 26.6599 15.2437 26.6015 15.2454C26.3475 15.2502 26.0708 15.2643 25.8202 15.3021L25.7584 15.3117C25.5024 15.3462 25.2353 15.3973 24.9567 15.466C24.8248 15.4968 24.697 15.5289 24.5832 15.5635C24.1053 15.7084 24.0766 15.7226 23.3172 16.0637L9.24438 23.0762L9.23263 23.0834L9.19223 23.1059C9.07749 23.1675 8.97106 23.2272 8.87019 23.2851C8.78859 23.3313 8.71029 23.3778 8.63622 23.424L8.62724 23.4303C8.54339 23.4828 8.461 23.5381 8.37729 23.5991L8.32857 23.6336C8.26678 23.6798 8.20287 23.7288 8.13421 23.7842C8.10199 23.8101 8.07242 23.8303 8.03888 23.8577C8.01062 23.8815 7.98725 23.9065 7.95979 23.93C7.88017 23.9979 7.7958 24.0723 7.70113 24.1569C7.69492 24.1617 7.1463 24.6587 6.70768 25.3553C6.6851 25.3915 6.66846 25.4267 6.64654 25.4623C6.28555 26.0461 6.09674 26.5425 6.02808 26.7547C6.01778 26.7856 6.00537 26.8271 5.9952 26.8597L5.97038 26.9384C5.94423 27.0203 5.9202 27.1085 5.8934 27.206C5.86884 27.2964 5.84613 27.384 5.82619 27.4702C5.81655 27.513 5.80771 27.5542 5.79873 27.5993C5.70129 28.0727 5.67026 28.4752 5.66894 28.7542V28.7561C5.64095 29.8087 5.87558 30.5976 5.92232 30.7456C5.96351 30.8737 6.00682 31.007 6.0562 31.1466L6.07469 31.2067C6.10215 31.2837 6.13437 31.355 6.16461 31.429C6.18243 31.4736 6.19894 31.5173 6.21887 31.5634C6.26495 31.6685 6.31302 31.768 6.36227 31.8653C6.39607 31.9334 6.43238 32.0022 6.47159 32.0737C6.54157 32.2011 6.61155 32.3193 6.68087 32.4295L6.72009 32.4956L6.74689 32.5325C7.00291 32.9223 7.2287 33.1821 7.29947 33.2593L7.34819 33.3083C7.63035 33.6231 7.87621 33.8436 8.00112 33.9433C8.0505 33.9832 8.1185 34.0351 8.18161 34.0846C8.21251 34.1087 8.24327 34.133 8.2743 34.157C8.3827 34.2382 8.5084 34.3272 8.65127 34.4204C8.75545 34.4877 8.862 34.5466 8.96776 34.6054C9.03708 34.6446 9.10218 34.6825 9.1777 34.7218L9.21269 34.7413C9.31093 34.7884 9.46 34.8583 9.64723 34.9355L9.71259 34.9658C9.87592 35.0294 10.2156 35.1617 10.7101 35.2692C10.7505 35.2782 10.7973 35.2851 10.8412 35.2929L10.8467 35.2943C10.916 35.3061 10.9861 35.3175 11.0602 35.328C11.2717 35.3617 11.4927 35.3895 11.7322 35.4015C11.8738 35.405 11.9953 35.4058 12.1105 35.4042L12.1592 35.4035C12.4669 35.3994 12.6995 35.3791 12.9351 35.3411C13.1225 35.3154 13.3229 35.2789 13.59 35.2109L13.5967 35.2095L28.784 31.2726C28.8108 31.2658 28.8376 31.2552 28.865 31.2481L28.8821 31.2426C28.8492 31.2516 28.8176 31.2642 28.784 31.2726C28.9658 31.218 29.2129 31.157 29.3909 31.0896C29.4334 31.0736 29.4815 31.0546 29.5275 31.0369C29.7004 30.9749 29.8838 30.899 30.0761 30.8123C30.1858 30.763 30.2929 30.714 30.3856 30.665L30.4459 30.6321L30.4727 30.6186L30.5023 30.6006C31.3446 30.1414 31.8039 29.7451 32.0037 29.5725L32.0477 29.5305L32.0689 29.5137C32.1046 29.4821 32.1341 29.4458 32.1691 29.4134C32.3498 29.2465 32.5192 29.0792 32.6736 28.909C32.7431 28.8324 32.8077 28.7534 32.8736 28.6754C32.995 28.5305 33.1096 28.3877 33.2141 28.2444C33.2793 28.1562 33.3444 28.0673 33.4055 27.9762C33.5587 27.7498 33.6947 27.529 33.8092 27.3194C33.8306 27.2811 33.849 27.2418 33.869 27.203C34.1937 26.5872 34.3674 26.0792 34.4353 25.8449C34.4559 25.7731 34.4786 25.6966 34.5005 25.6161L34.5198 25.5458C34.6233 25.1663 34.7305 24.6902 34.78 24.0618Z" fill="white"/>
</g>
<defs>
<clipPath id="clip0_10949_3176">
<rect width="119" height="50" fill="white"/>
</clipPath>
</defs>
</svg>
