<svg width="260" height="70" viewBox="0 0 260 70" fill="none" xmlns="http://www.w3.org/2000/svg">
<g clip-path="url(#clip0_10913_2490)">
<path d="M65.421 0.958496V30.9888H58.105V0.958496H65.421Z" fill="white"/>
<path d="M83.6381 0C92.4008 0 99.4584 6.92034 99.4584 15.9157C99.4584 24.9427 92.3491 32 83.5658 32C74.7824 32 67.6731 25.0375 67.6731 16.0316C67.6628 7.03621 74.8754 0 83.6381 0ZM83.5761 24.6689C88.2261 24.6689 91.6361 20.5714 91.6361 15.9684C91.6361 11.3654 88.2054 7.31007 83.5761 7.31007C78.9261 7.31007 75.4954 11.3654 75.4954 15.9684C75.4954 20.5714 78.9364 24.6689 83.5761 24.6689Z" fill="white"/>
<path d="M100.295 21.9091L107.001 20.287C107.487 23.8999 110.06 25.1955 112.767 25.1955C115.454 25.1955 116.435 23.5734 116.435 22.3094C116.435 21.2877 115.857 20.287 113.893 19.8868L109.801 19.0757C104.903 18.1172 101.442 14.9783 101.442 10.154C101.442 4.41342 106.577 0.368652 112.374 0.368652C119.845 0.368652 122.925 5.12968 123.462 9.11125L116.88 10.9967C116.528 8.54245 115.04 6.76233 112.343 6.76233C110.008 6.76233 108.892 8.35285 108.892 9.55364C108.892 10.5543 109.357 11.7024 111.093 12.05L115.361 12.8821C120.941 13.9776 123.999 17.4536 123.999 21.9723C123.999 26.8808 119.845 31.6103 112.726 31.6103C105.275 31.6208 101.276 27.6392 100.295 21.9091Z" fill="white"/>
<path d="M7.874 30.9888H0L12.9993 0.958496H20.894L7.874 30.9888Z" fill="white"/>
<path d="M46.5317 15.6421L56.307 0.948242H47.3687L42.0883 9.8383L36.9423 0.948242H27.88L37.7793 15.6421L31.383 25.1958L20.8947 0.958775H13L26.051 30.9891H35.9297L42.0883 21.4775L48.185 30.9891H56.2657L46.5317 15.6421Z" fill="white"/>
</g>
<defs>
<clipPath id="clip0_10913_2490">
<rect width="124" height="32" fill="white"/>
</clipPath>
</defs>
</svg>
