<svg width="260" height="70" viewBox="0 0 260 70" fill="none" xmlns="http://www.w3.org/2000/svg">
<g clip-path="url(#clip0_10935_3145)">
<mask id="mask0_10935_3145" style="mask-type:luminance" maskUnits="userSpaceOnUse" x="0" y="0" width="118" height="40">
<path d="M118 0H0V40H118V0Z" fill="white"/>
</mask>
<g mask="url(#mask0_10935_3145)">
<mask id="mask1_10935_3145" style="mask-type:luminance" maskUnits="userSpaceOnUse" x="0" y="0" width="118" height="40">
<path d="M117.214 0H0V40H117.214V0Z" fill="white"/>
</mask>
<g mask="url(#mask1_10935_3145)">
<path d="M117.214 33.2032C117.214 33.7311 117.123 34.2086 116.936 34.641C116.75 35.0732 116.497 35.4452 116.179 35.7518C115.861 36.0586 115.493 36.2998 115.074 36.4657C114.654 36.6366 114.215 36.7171 113.756 36.7171C113.246 36.7171 112.777 36.6266 112.352 36.4506C111.928 36.2697 111.56 36.0283 111.257 35.7117C110.949 35.4 110.712 35.028 110.54 34.5957C110.368 34.1633 110.283 33.7008 110.283 33.1982C110.283 32.6703 110.373 32.1927 110.56 31.7605C110.747 31.3281 111 30.9561 111.318 30.6494C111.636 30.3428 112.004 30.1015 112.428 29.9356C112.852 29.7647 113.296 29.6792 113.761 29.6792C114.225 29.6792 114.66 29.7647 115.079 29.9356C115.498 30.1066 115.866 30.3428 116.184 30.6494C116.502 30.9561 116.755 31.3281 116.941 31.7605C117.128 32.1927 117.219 32.6753 117.219 33.1982L117.214 33.2032ZM116.457 33.2032C116.457 32.7758 116.386 32.3838 116.25 32.0268C116.114 31.6699 115.922 31.3633 115.674 31.1069C115.427 30.8506 115.139 30.6495 114.816 30.5087C114.488 30.368 114.135 30.2976 113.756 30.2976C113.377 30.2976 113.014 30.368 112.686 30.5087C112.358 30.6495 112.065 30.8506 111.822 31.1069C111.575 31.3633 111.383 31.6699 111.247 32.0268C111.111 32.3838 111.04 32.7758 111.04 33.2032C111.04 33.6053 111.1 33.9823 111.227 34.3342C111.353 34.6862 111.535 34.9928 111.772 35.2542C112.009 35.5156 112.292 35.7267 112.625 35.8776C112.958 36.0335 113.337 36.1088 113.761 36.1088C114.14 36.1088 114.493 36.0384 114.821 35.8977C115.149 35.7569 115.437 35.5558 115.679 35.2995C115.922 35.0431 116.119 34.7364 116.255 34.3846C116.391 34.0327 116.462 33.6355 116.462 33.2032H116.457ZM113.054 35.2191H112.413V31.3231H113.897C114.372 31.3231 114.725 31.4136 114.968 31.5845C115.205 31.7604 115.326 32.047 115.326 32.4391C115.326 32.791 115.23 33.0473 115.033 33.2082C114.836 33.3691 114.594 33.4696 114.306 33.4998L115.402 35.214H114.675L113.665 33.5501H113.059V35.214L113.054 35.2191ZM113.776 33.0071C113.897 33.0071 114.013 33.0021 114.119 32.9921C114.225 32.982 114.326 32.9568 114.407 32.9116C114.488 32.8663 114.554 32.8061 114.604 32.7307C114.654 32.6552 114.68 32.5396 114.68 32.3988C114.68 32.2782 114.654 32.1877 114.599 32.1173C114.544 32.047 114.478 31.9967 114.397 31.9564C114.316 31.9213 114.225 31.8962 114.124 31.8861C114.023 31.8761 113.928 31.8711 113.832 31.8711H113.054V33.0122H113.771L113.776 33.0071Z" fill="white"/>
<path d="M34.3243 4.71529C33.8245 4.63988 33.2996 4.57453 32.7442 4.53934C31.4316 4.44383 30.2655 4.39858 28.9125 4.37346L31.3104 0.0301065H27.7967L27.7613 0.115566C27.3575 0.91989 26.4438 2.70448 25.6007 4.37848C25.4694 4.37848 25.3382 4.37848 25.2069 4.38853C16.2359 4.20253 11.0259 5.39897 5.96235 8.78214C2.58496 11.0493 -0.0906988 15.5083 0.00017266 18.7356C0.0355115 20.108 0.67666 22.0082 2.35778 23.2348C3.59464 24.1447 5.87147 24.9943 9.65779 23.9185C13.8833 22.7221 16.4579 19.0172 15.8573 16.6293C15.5392 15.3475 13.5905 14.4125 12.1921 14.4978C12.0608 14.508 11.9397 14.5732 11.8538 14.6838C11.7832 14.7845 11.6519 15.0508 11.7933 15.1513C11.8488 15.1916 11.9548 15.1816 12.0255 15.1816C12.0608 15.1816 12.0911 15.1816 12.1265 15.1816C12.2072 15.1816 12.288 15.1916 12.3688 15.2067C12.5707 15.2368 12.7676 15.3022 12.9443 15.4128C13.1715 15.5536 13.3481 15.7647 13.4693 16.001C13.6208 16.2925 13.7015 16.6142 13.7369 16.941C13.8429 17.8107 13.0604 19.9522 11.349 21.5357C10.2585 22.5461 8.43606 23.6571 5.9573 23.1796C4.05909 22.8126 2.9333 21.7971 2.60516 20.1281C1.89837 16.5941 5.12431 11.2705 8.25938 9.22453C14.2871 5.27832 20.845 5.42913 24.7626 5.51961H24.7879C24.7879 5.51961 24.8333 5.52967 24.8636 5.52967C24.2931 6.51999 22.5262 9.78756 21.1884 12.2357C20.4362 13.6181 19.8454 14.704 19.6586 15.0508C19.2902 15.7145 18.3259 17.484 17.4778 19.0473C17.0083 19.917 16.5741 20.7012 16.3318 21.1436C15.731 22.2395 10.5564 31.63 9.79409 32.8616C8.90052 34.3195 8.05744 34.978 6.44195 35.4505C6.1138 35.546 5.77555 35.5561 5.45751 35.5561C5.11926 35.5561 4.80626 35.5108 4.52859 35.4253C4.33171 35.3701 4.18026 35.2746 4.05909 35.1538C4.40743 34.9981 4.68005 34.7618 4.86684 34.4551C5.09402 34.0781 5.12937 33.6961 4.9981 33.314C4.84665 32.8867 4.57404 32.565 4.20045 32.379C3.82687 32.193 3.35737 32.193 2.82224 32.379C2.28711 32.565 1.88324 32.8867 1.63082 33.314C1.36829 33.7513 1.32791 34.2491 1.5147 34.7818C1.79741 35.5962 2.51933 36.1291 3.64513 36.3705C4.89209 36.6418 6.24506 36.5212 7.67376 36.0236C8.17355 35.8476 8.6683 35.6415 9.158 35.4052C8.40577 36.8278 6.73476 39.995 6.73476 39.995H10.2484C10.2484 39.995 11.8993 36.657 15.5544 29.3025L15.7714 28.8751C17.3011 25.864 23.6721 13.7137 25.1463 11.0745C25.5048 10.4763 25.8784 9.84286 26.2722 9.16923L26.6406 8.55091C27.1657 7.66112 27.6856 6.88696 28.1905 6.24853C28.4884 5.86648 28.8468 5.61009 29.2507 5.49951C29.6798 5.38388 30.1442 5.33361 30.6289 5.33361C31.361 5.33361 31.7294 5.38891 32.4715 5.49951C32.724 5.53469 32.9613 5.59502 33.2339 5.66539C33.562 5.76091 33.8852 5.88156 34.1829 6.02232C34.2587 6.05751 34.3395 6.09772 34.4203 6.13291C34.9907 6.43956 35.4652 6.88193 35.8186 7.43491C36.1771 7.98788 36.3537 8.68663 36.3537 9.53117C36.3537 10.617 36.1569 11.6375 35.7833 12.5876C35.3997 13.5427 34.8796 14.4125 34.2536 15.1765C33.6125 15.9456 32.8906 16.6243 32.103 17.1873C31.8557 17.3632 31.6437 17.5342 31.4367 17.6951C30.9874 18.042 30.5986 18.3486 30.0483 18.5948C29.6999 18.7256 29.2507 18.8312 28.7357 18.8915C28.2107 18.9568 27.7413 18.9971 27.3373 18.9971C26.8476 18.9971 26.3681 18.9317 25.9288 18.791C25.4593 18.6502 24.9544 18.5748 24.4345 18.5748C24.1618 18.5748 23.9348 18.6803 23.768 18.8713C23.6066 19.0573 23.5207 19.2936 23.5207 19.5551C23.5207 19.8818 23.5662 20.0778 23.6721 20.1835C23.753 20.2638 23.8539 20.3292 23.965 20.3695C24.1215 20.4297 24.2982 20.4046 24.4597 20.3996C24.6415 20.3896 24.8233 20.3745 25.0049 20.3543C25.4037 20.3091 25.8027 20.2437 26.2015 20.1633C26.878 20.0226 28.241 19.9371 28.241 19.9371C28.3067 19.9271 29.8464 19.7612 31.1135 19.8063C31.9566 19.8316 32.6231 20.103 33.4257 20.5453C34.1881 20.9576 34.7989 21.5156 35.228 22.1892C35.6672 22.8728 35.8843 23.7225 35.8843 24.743C35.8843 26.1253 35.647 27.5027 35.1825 28.8298C34.713 30.147 34.0063 31.3485 33.0673 32.374C32.1384 33.4045 30.952 34.244 29.5536 34.8723C28.1551 35.5007 26.4942 35.8175 24.6213 35.8175C23.3844 35.8175 22.3394 35.5258 21.5519 34.9578C20.7643 34.3948 20.3755 33.7061 20.3755 32.8616C20.3755 32.0673 20.5169 31.4138 20.7996 30.886C21.0722 30.3782 21.5317 30.1017 22.2082 30.0062L22.5565 29.961L22.2839 29.7448C21.7588 29.3326 21.1379 29.1165 20.4412 29.1165C19.3255 29.1165 18.4219 29.4231 17.7454 30.0415C17.0689 30.6597 16.7306 31.4087 16.7306 32.2683C16.7306 33.304 17.2103 34.2038 18.1492 34.9427C17.3516 36.4458 15.4887 39.9647 15.4887 39.9647H19.0023C19.0023 39.9647 20.8552 36.2498 20.8652 36.2347C21.9658 36.5313 23.2431 36.6821 24.6768 36.6821C26.3781 36.6821 28.1501 36.3855 29.9373 35.7822C31.7194 35.1941 33.355 34.3596 34.814 33.3241C36.268 32.2835 37.4897 31.0518 38.4489 29.6493C39.4182 28.2367 39.9028 26.6935 39.9028 25.0647C39.9028 23.999 39.6757 23.0538 39.2365 22.2596C38.7972 21.4753 38.1762 20.8068 37.4038 20.284C36.6314 19.7712 35.7127 19.3691 34.6778 19.0876C34.0315 18.9116 33.3248 18.7808 32.5826 18.7055C33.4459 18.3486 34.1527 17.9465 34.7989 17.5543C36.056 16.7852 37.0807 15.9657 37.8431 15.1061C38.6155 14.2465 39.1658 13.3567 39.4939 12.467C39.8221 11.5772 39.9937 10.793 39.9937 10.1294C39.9937 8.85756 39.711 7.82702 39.1658 7.07296C38.7165 6.44458 38.0855 5.93183 37.2877 5.52967C38.1712 3.86572 40.2159 -0.0151367 40.2159 -0.0151367H36.6668L34.3243 4.70021V4.71529ZM109.702 23.9436L109.626 24.0743C108.95 25.1602 108.107 26.3867 107.107 27.7391C106.113 29.0863 105.022 30.3782 103.886 31.5847C102.75 32.7811 101.564 33.8016 100.363 34.6261C99.1813 35.4405 98.0404 35.8526 96.9801 35.8526C96.4904 35.8526 96.0412 35.7421 95.6474 35.536C95.2637 35.3298 95.0467 34.978 94.9811 34.4501C94.9154 33.9273 95.0013 33.3191 95.2335 32.6353C95.4808 31.9316 95.8645 31.0518 96.3693 30.0263C96.8792 29.0058 97.5355 27.7541 98.3029 26.3113C99.0551 24.9088 99.9183 23.2147 100.867 21.2893H106.966L107.274 20.4498H101.317L104.23 15.1916H101.17L98.2979 20.4498H95.7534L95.4354 21.2893H97.8586C97.2276 22.521 96.5915 23.7123 95.9705 24.8335C95.3192 26.0047 94.7336 27.0956 94.2237 28.106C93.7038 29.1063 93.3049 30.0515 93.0222 30.9111C93.002 30.9563 92.997 31.0066 92.9768 31.0518V31.0618C92.5477 31.4842 92.1792 31.8311 91.8207 32.1377C90.5738 33.2135 89.3117 34.0831 88.0546 34.7266C86.8177 35.3651 85.6869 35.6817 84.7176 35.6817C84.3238 35.6817 83.9755 35.5962 83.6927 35.4303C83.4 35.2645 83.1576 35.0382 82.9709 34.7668C82.7739 34.4953 82.6226 34.1887 82.5115 33.8518C82.4004 33.5151 82.3145 33.1682 82.2742 32.8113C82.1783 32.0723 82.1984 31.3233 82.3095 30.5843C82.4206 29.8755 82.6023 29.217 82.8346 28.649C83.7938 28.4327 84.8893 28.1161 86.111 27.6837C87.3579 27.2463 88.5342 26.7387 89.6045 26.1807C90.6747 25.6227 91.5784 24.9842 92.2902 24.3006C93.0223 23.5917 93.3504 22.8427 93.2495 22.0636C93.1636 21.4151 92.8707 20.9123 92.376 20.5756C91.8863 20.2387 91.2502 20.0678 90.4627 20.0678C89.0844 20.0678 87.676 20.4901 86.2725 21.3095C84.8841 22.134 83.622 23.1796 82.5317 24.4262C81.4311 25.668 80.5678 27.0553 79.9418 28.5232C79.6237 29.2823 79.3965 30.0465 79.2855 30.7855C78.7958 31.3736 78.3011 31.9266 77.8215 32.4242C76.7966 33.4798 75.8022 34.3295 74.8833 34.9427C73.9745 35.541 73.1365 35.8476 72.4146 35.8476C71.8239 35.8476 71.506 35.531 71.4301 34.8472C71.3949 34.5003 71.4301 34.0781 71.5614 33.5855C71.6927 33.0777 71.9653 32.3891 72.3692 31.5295C72.7731 30.6698 73.3537 29.5287 74.0907 28.1613C74.853 26.7487 75.8172 24.9892 76.9481 22.9232C78.1143 20.8068 79.5126 18.2581 81.1383 15.2821C82.7437 12.3564 84.6621 8.79221 86.8481 4.69518L86.9641 4.47902H83.4504L83.415 4.56448C81.5623 8.22414 79.8914 11.4666 78.4475 14.1962C76.9936 16.946 75.7213 19.3238 74.6612 21.2642C73.5253 23.3605 72.6418 24.9943 71.9552 26.2762C71.2333 27.6335 70.6427 28.7997 70.2085 29.7548C69.9106 30.4285 69.6633 31.0468 69.5017 31.5998C69.2392 31.8913 68.9766 32.1678 68.7191 32.4393C67.6943 33.495 66.6998 34.3446 65.7709 34.9578C64.8622 35.5561 64.0241 35.8677 63.3022 35.8677C62.7116 35.8677 62.3935 35.5511 62.3178 34.8673C62.2825 34.5205 62.3178 34.0982 62.4491 33.6056C62.5803 33.0978 62.8529 32.4091 63.2567 31.5495C63.6607 30.6898 64.2412 29.5487 64.9883 28.1815C65.7406 26.789 66.7049 25.0195 67.8508 22.9432C69.017 20.8268 70.4155 18.2782 72.0511 15.3022C73.6566 12.3664 75.585 8.80226 77.781 4.71529L77.8972 4.49913H74.3835L74.3481 4.58458C72.4954 8.24426 70.8143 11.4766 69.3604 14.2163C67.8963 16.9661 66.619 19.354 65.5639 21.2843C64.4079 23.4158 63.5446 25.0043 62.8479 26.2963C62.1158 27.6536 61.5302 28.8198 61.1011 29.775C60.7326 30.5793 60.46 31.3183 60.3035 31.9517C60.152 32.1176 60.0106 32.2785 59.8642 32.4393C58.8496 33.5151 57.8802 34.3747 56.9817 34.983C56.0982 35.5812 55.346 35.8928 54.735 35.8928C53.9828 35.8928 53.5992 35.5561 53.5133 34.8472C53.4578 34.3295 53.6092 33.5955 53.9626 32.6756C54.3312 31.7305 54.8461 30.6296 55.5024 29.3828C56.1536 28.1412 56.911 26.7537 57.7691 25.2858C58.6122 23.808 59.5159 22.2747 60.4448 20.7012L60.5761 20.475H57.2694L56.1536 23.0086C56.0325 22.692 55.8811 22.3802 55.7144 22.0836C55.4974 21.7066 55.2046 21.3748 54.8613 21.0732C54.5129 20.7766 54.0889 20.5403 53.6042 20.3643C53.1145 20.1985 52.5541 20.103 51.9331 20.103C50.6358 20.103 49.303 20.5503 47.9601 21.4402C46.6375 22.32 45.4258 23.441 44.3606 24.758C43.3004 26.0751 42.4472 27.5078 41.8263 29.016C41.2053 30.5291 40.963 31.9366 41.1044 33.1983C41.2103 34.0982 41.5334 34.9226 42.0888 35.6315C42.6542 36.3603 43.5276 36.7323 44.6989 36.7323C45.3854 36.7323 46.0871 36.5665 46.804 36.2196C47.5007 35.8828 48.1772 35.4706 48.8031 34.978C49.4342 34.4903 50.0249 33.9575 50.5499 33.3945C50.9539 32.9671 51.3021 32.57 51.6 32.2231C51.5343 32.5047 51.4688 32.7912 51.4031 33.0827C51.3072 33.5051 51.287 33.9423 51.3475 34.3847C51.4234 35.0232 51.7061 35.5812 52.1906 36.0386C52.6803 36.5062 53.3922 36.7375 54.3059 36.7375C55.3964 36.7375 56.5222 36.3101 57.6581 35.4656C58.476 34.8573 59.2938 34.1283 60.0915 33.2938C60.0712 33.6407 60.0813 33.9776 60.1167 34.3043C60.2026 35.0332 60.4953 35.6315 60.98 36.0738C61.4697 36.5212 62.2118 36.7475 63.1861 36.7475C64.0898 36.7475 65.0642 36.4207 66.089 35.7772C66.9926 35.2092 68.0426 34.3093 69.2088 33.123C69.1736 33.5352 69.1836 33.9273 69.2291 34.3093C69.3149 35.0382 69.6077 35.6365 70.0923 36.0788C70.582 36.5262 71.3242 36.7525 72.2986 36.7525C73.2021 36.7525 74.1765 36.4257 75.2014 35.7822C76.206 35.1438 77.3872 34.1082 78.705 32.7258C78.8665 32.5498 79.0331 32.369 79.2047 32.183C79.2149 32.4192 79.2249 32.6403 79.2501 32.8666C79.4017 34.1082 79.8914 35.0835 80.699 35.7471C81.4967 36.4207 82.5669 36.7575 83.8745 36.7575C84.9195 36.7575 85.9797 36.5615 87.0197 36.1795C88.0546 35.7973 89.0844 35.2695 90.074 34.616C91.0028 33.9977 91.8863 33.299 92.7244 32.5298C92.7041 32.8213 92.7143 33.0928 92.7446 33.3542C92.8759 34.42 93.3454 35.2595 94.1228 35.8627C94.9054 36.4508 95.7837 36.7525 96.7631 36.7525C97.9747 36.7525 99.2166 36.3503 100.453 35.546C101.675 34.7618 102.887 33.7513 104.043 32.555C105.199 31.3585 106.305 30.0313 107.35 28.5886C108.385 27.166 109.344 25.7836 110.212 24.4816L110.298 24.3508L109.722 23.9537L109.702 23.9436ZM84.0663 25.8187C84.546 24.9842 85.1114 24.19 85.7273 23.4611C86.3584 22.7321 87.0045 22.1138 87.671 21.6262C88.3222 21.1486 88.9583 20.9073 89.5591 20.9073C89.8568 20.9073 90.1143 21.0028 90.3415 21.1888C90.5687 21.3748 90.6999 21.6663 90.7453 22.0485C90.8414 22.7975 90.6142 23.4812 90.0588 24.1347C89.4884 24.7982 88.7715 25.3863 87.9334 25.8941C87.0904 26.4018 86.1766 26.8291 85.2376 27.176C84.4096 27.4726 83.6979 27.6938 83.1071 27.8245C83.3243 27.2212 83.6423 26.5476 84.0663 25.8187ZM51.5142 31.072C50.873 31.8963 50.2067 32.6253 49.5302 33.2487C48.8537 33.8771 48.1873 34.3797 47.5462 34.7467C46.9151 35.1137 46.3548 35.2896 45.8651 35.2896C45.3754 35.2896 45.0118 35.1237 44.7089 34.7768C44.401 34.42 44.199 33.9072 44.1283 33.2537C43.9769 31.9266 44.1485 30.514 44.6534 29.0561C45.1633 27.5983 45.8347 26.241 46.6829 25.0345C47.526 23.828 48.4649 22.8276 49.4796 22.0485C50.4742 21.2893 51.4234 20.8972 52.2866 20.8972C52.8218 20.8972 53.3013 21.0632 53.7052 21.405C54.1091 21.7418 54.3564 22.2445 54.4271 22.893C54.5332 23.7426 54.4523 24.6625 54.21 25.6076C53.9678 26.5627 53.6092 27.5078 53.1499 28.4327C52.6955 29.3678 52.1401 30.2526 51.5041 31.077" fill="white"/>
</g>
</g>
</g>
<defs>
<clipPath id="clip0_10935_3145">
<rect width="118" height="40" fill="white"/>
</clipPath>
</defs>
</svg>
