<svg width="95" height="19" viewBox="0 0 95 19" fill="none" xmlns="http://www.w3.org/2000/svg">
<path d="M0.704 18V0.839999H7.928C9.688 0.839999 11.056 1.224 12.032 1.992C13.024 2.744 13.52 3.8 13.52 5.16C13.52 6.936 12.632 8.128 10.856 8.736V8.784C11.832 8.96 12.632 9.4 13.256 10.104C13.88 10.808 14.192 11.768 14.192 12.984C14.192 14.6 13.672 15.84 12.632 16.704C11.592 17.568 10.168 18 8.36 18H0.704ZM7.856 7.968C8.896 7.968 9.64 7.768 10.088 7.368C10.536 6.952 10.76 6.344 10.76 5.544C10.76 4.776 10.528 4.184 10.064 3.768C9.6 3.336 8.928 3.12 8.048 3.12H3.344V7.968H7.856ZM8.168 15.72C9.352 15.72 10.192 15.472 10.688 14.976C11.184 14.464 11.432 13.768 11.432 12.888C11.432 11.992 11.176 11.296 10.664 10.8C10.152 10.304 9.44 10.056 8.528 10.056H3.344V15.72H8.168ZM27.5129 11.616C27.5129 12.08 27.5049 12.376 27.4889 12.504H18.0809C18.1129 13.608 18.4409 14.544 19.0649 15.312C19.7049 16.064 20.6009 16.44 21.7529 16.44C22.7129 16.44 23.4489 16.208 23.9609 15.744C24.4889 15.28 24.8249 14.776 24.9689 14.232H27.3689C27.0169 15.48 26.3689 16.48 25.4249 17.232C24.4809 17.984 23.2409 18.36 21.7049 18.36C20.4409 18.36 19.3529 18.08 18.4409 17.52C17.5289 16.96 16.8329 16.192 16.3529 15.216C15.8889 14.24 15.6569 13.12 15.6569 11.856C15.6569 10.576 15.8969 9.448 16.3769 8.472C16.8729 7.496 17.5769 6.736 18.4889 6.192C19.4009 5.648 20.4729 5.376 21.7049 5.376C23.5449 5.376 24.9689 5.936 25.9769 7.056C27.0009 8.176 27.5129 9.696 27.5129 11.616ZM25.0649 10.656C25.0649 9.68 24.7449 8.88 24.1049 8.256C23.4809 7.616 22.6569 7.296 21.6329 7.296C20.6409 7.296 19.8169 7.608 19.1609 8.232C18.5049 8.84 18.1449 9.648 18.0809 10.656H25.0649ZM33.8242 16.2C34.1282 16.2 34.4642 16.168 34.8322 16.104V18C34.3522 18.096 33.8562 18.144 33.3442 18.144C32.2562 18.144 31.4402 17.88 30.8962 17.352C30.3682 16.824 30.1042 15.888 30.1042 14.544V7.704H28.3282V5.76H30.1042V1.824H32.4562V5.76H34.8082V7.704H32.4562V14.616C32.4562 15.24 32.5522 15.664 32.7442 15.888C32.9522 16.096 33.3122 16.2 33.8242 16.2ZM50.0853 5.4C51.3013 5.4 52.2213 5.752 52.8453 6.456C53.4853 7.16 53.8053 8.176 53.8053 9.504V18H51.4533V10.152C51.4533 9.24 51.3013 8.56 50.9973 8.112C50.7093 7.648 50.1493 7.416 49.3173 7.416C48.4533 7.416 47.7573 7.696 47.2293 8.256C46.7173 8.816 46.4613 9.56 46.4613 10.488V18H44.1093V10.152C44.1093 9.24 43.9573 8.56 43.6533 8.112C43.3653 7.648 42.8053 7.416 41.9733 7.416C41.1093 7.416 40.4133 7.696 39.8853 8.256C39.3733 8.816 39.1173 9.56 39.1173 10.488V18H36.7653V5.76H39.1173V7.296H39.1653C39.5493 6.752 40.0373 6.304 40.6293 5.952C41.2213 5.584 41.9413 5.4 42.7893 5.4C44.4533 5.4 45.5333 6.112 46.0293 7.536H46.0773C47.1493 6.112 48.4853 5.4 50.0853 5.4ZM61.8545 18.36C60.6065 18.36 59.5185 18.088 58.5905 17.544C57.6625 17 56.9505 16.24 56.4545 15.264C55.9745 14.288 55.7345 13.16 55.7345 11.88C55.7345 10.6 55.9825 9.472 56.4785 8.496C56.9745 7.52 57.6785 6.76 58.5905 6.216C59.5185 5.656 60.6145 5.376 61.8785 5.376C63.1265 5.376 64.2065 5.648 65.1185 6.192C66.0465 6.736 66.7505 7.504 67.2305 8.496C67.7265 9.472 67.9745 10.592 67.9745 11.856C67.9745 13.136 67.7265 14.272 67.2305 15.264C66.7345 16.24 66.0225 17 65.0945 17.544C64.1825 18.088 63.1025 18.36 61.8545 18.36ZM61.8785 16.416C63.0785 16.416 63.9825 16 64.5905 15.168C65.2145 14.32 65.5265 13.224 65.5265 11.88C65.5265 10.536 65.2145 9.448 64.5905 8.616C63.9825 7.768 63.0785 7.344 61.8785 7.344C60.6625 7.344 59.7425 7.76 59.1185 8.592C58.4945 9.424 58.1825 10.52 58.1825 11.88C58.1825 13.224 58.4945 14.32 59.1185 15.168C59.7425 16 60.6625 16.416 61.8785 16.416ZM78.6643 0.839999H81.0163V18H78.6643V16.56H78.6163C78.2163 17.072 77.7043 17.496 77.0803 17.832C76.4723 18.168 75.7283 18.336 74.8483 18.336C73.8083 18.336 72.8723 18.08 72.0403 17.568C71.2083 17.04 70.5523 16.288 70.0723 15.312C69.5923 14.336 69.3523 13.192 69.3523 11.88C69.3523 10.568 69.5923 9.424 70.0723 8.448C70.5523 7.472 71.2083 6.72 72.0403 6.192C72.8723 5.664 73.8083 5.4 74.8483 5.4C75.7443 5.4 76.4963 5.576 77.1043 5.928C77.7283 6.264 78.2323 6.704 78.6163 7.248H78.6643V0.839999ZM75.2323 16.392C76.2883 16.392 77.1203 15.992 77.7283 15.192C78.3363 14.376 78.6403 13.272 78.6403 11.88C78.6403 10.488 78.3363 9.392 77.7283 8.592C77.1203 7.776 76.2883 7.368 75.2323 7.368C74.1283 7.368 73.2803 7.8 72.6883 8.664C72.0963 9.528 71.8003 10.6 71.8003 11.88C71.8003 13.16 72.0963 14.232 72.6883 15.096C73.2803 15.96 74.1283 16.392 75.2323 16.392ZM94.8958 11.616C94.8958 12.08 94.8878 12.376 94.8718 12.504H85.4638C85.4958 13.608 85.8238 14.544 86.4478 15.312C87.0878 16.064 87.9838 16.44 89.1358 16.44C90.0958 16.44 90.8318 16.208 91.3438 15.744C91.8718 15.28 92.2078 14.776 92.3518 14.232H94.7518C94.3998 15.48 93.7518 16.48 92.8078 17.232C91.8638 17.984 90.6238 18.36 89.0878 18.36C87.8238 18.36 86.7358 18.08 85.8238 17.52C84.9118 16.96 84.2158 16.192 83.7358 15.216C83.2718 14.24 83.0398 13.12 83.0398 11.856C83.0398 10.576 83.2798 9.448 83.7598 8.472C84.2558 7.496 84.9598 6.736 85.8717 6.192C86.7838 5.648 87.8558 5.376 89.0878 5.376C90.9278 5.376 92.3518 5.936 93.3598 7.056C94.3838 8.176 94.8958 9.696 94.8958 11.616ZM92.4478 10.656C92.4478 9.68 92.1278 8.88 91.4878 8.256C90.8638 7.616 90.0398 7.296 89.0158 7.296C88.0238 7.296 87.1998 7.608 86.5438 8.232C85.8878 8.84 85.5278 9.648 85.4638 10.656H92.4478Z" fill="white"/>
</svg>
