<?xml version="1.0" encoding="UTF-8"?>
<svg xmlns="http://www.w3.org/2000/svg" width="149" height="30" viewBox="0 0 149 30" fill="none">
  <g id="Binance svg" clip-path="url(#clip0_1740_7374)">
    <g id="Group">
      <path id="Vector" d="M6.77273 15L3.41633 18.36L0 15L3.41633 11.58L6.77273 15ZM14.9839 6.78L20.7977 12.6L24.214 9.18L14.9839 0L5.81376 9.18L9.23009 12.6L14.9839 6.78ZM26.5515 11.58L23.1951 15L26.6114 18.42L29.9678 15L26.5515 11.58ZM14.9839 23.22L9.17015 17.4L5.75382 20.82L14.9839 30L24.1541 20.82L20.7977 17.4L14.9839 23.22ZM14.9839 18.36L18.4002 14.94L14.9839 11.58L11.5676 15L14.9839 18.36ZM50.7055 18.72C50.7055 16.44 49.5068 15.36 47.6488 14.64C48.8475 13.98 49.8065 12.96 49.8065 11.1V11.04C49.8065 8.46 47.7088 6.78 44.4123 6.78H36.7405V23.22H44.5322C48.2482 23.22 50.7055 21.72 50.7055 18.72ZM46.1504 11.7C46.1504 12.96 45.1315 13.44 43.5732 13.44H40.2168V9.96H43.813C45.3113 9.96 46.1504 10.56 46.1504 11.7ZM47.1094 18.24C47.1094 19.44 46.1504 20.04 44.5921 20.04H40.2767V16.44H44.4722C46.2703 16.44 47.1094 17.1 47.1094 18.24ZM58.2574 23.22V6.78H54.6014V23.22H58.2574ZM77.6766 23.22V6.78H74.0804V16.92L66.4087 6.78H63.0523V23.22H66.6484V12.78L74.6199 23.22H77.6766ZM97.6951 23.22L90.6227 6.66H87.2663L80.1939 23.22H83.9099L85.4083 19.5H92.3608L93.8592 23.22H97.6951ZM91.1022 16.32H86.7269L88.9445 10.98L91.1022 16.32ZM114.957 23.22V6.78H111.36V16.92L103.689 6.78H100.332V23.22H103.928V12.78L111.9 23.22H114.957ZM133.597 20.58L131.259 18.24C129.94 19.44 128.802 20.16 126.944 20.16C124.127 20.16 122.149 17.82 122.149 15V14.94C122.149 12.12 124.127 9.84 126.944 9.84C128.562 9.84 129.881 10.56 131.139 11.7L133.477 9.06C131.978 7.56 130.12 6.54 127.004 6.54C121.969 6.54 118.433 10.38 118.433 15.06V15C118.433 19.74 122.029 23.46 126.884 23.46C130 23.52 131.918 22.38 133.597 20.58ZM149 23.22V19.98H140.07V16.5H147.801V13.26H140.07V9.9H148.88V6.66H136.473V23.1L149 23.22Z" fill="white"></path>
    </g>
  </g>
  <defs>
    <clipPath id="clip0_1740_7374">
      <rect width="149" height="30" fill="white"></rect>
    </clipPath>
  </defs>
</svg>
