<svg width="260" height="70" viewBox="0 0 260 70" fill="none" xmlns="http://www.w3.org/2000/svg">
<path fill-rule="evenodd" clip-rule="evenodd" d="M0.536249 11.6736C0 13.6765 0 16.1176 0 21C0 25.8824 0 28.3235 0.536249 30.3264C1.99148 35.7616 6.23353 40.007 11.6645 41.4633C13.6658 42 16.105 42 20.9836 42C25.8622 42 28.3014 42 30.3027 41.4633C35.7336 40.007 39.9757 35.7616 41.431 30.3264C41.9672 28.3235 41.9672 25.8824 41.9672 21C41.9672 16.1176 41.9672 13.6765 41.431 11.6736C39.9757 6.2384 35.7336 1.99303 30.3027 0.536668C28.3014 0 25.8622 0 20.9836 0C16.105 0 13.6658 0 11.6645 0.536668C6.23353 1.99303 1.99148 6.2384 0.536249 11.6736ZM20.8687 30.0857C23.4573 30.0857 25.5637 27.9346 25.5637 25.2903V20.2715H16.1732V25.2903C16.1732 27.9346 18.2795 30.0857 20.8687 30.0857ZM30.7617 15.9158C32.8745 15.9158 34.5955 14.175 34.5955 12H38.9694C38.9694 16.7654 35.4699 20.2673 30.816 20.2673H29.9067V25.2818C29.9067 30.3647 25.8557 34.5 20.8761 34.5C15.8961 34.5 11.8446 30.3647 11.8446 25.2818V20.2673H11.2383C6.58695 20.2673 2.99756 16.7503 2.99756 12H7.34776C7.34776 14.1592 9.06889 15.9158 11.1843 15.9158H11.8446V12H16.1819V15.9158H25.5696V12H29.9067V15.9158H30.7617Z" fill="white"/>
<path d="M52.583 31.5002V13.1462H61.8668C63.7084 13.1462 65.0753 13.5833 65.9677 14.4573C66.8789 15.3122 67.3345 16.5283 67.3345 18.1052C67.3345 19.0932 67.1447 19.9198 66.765 20.5847C66.3852 21.2307 65.8727 21.7342 65.2272 22.0952C66.0815 22.3613 66.7555 22.8077 67.2491 23.4348C67.7618 24.0427 68.018 24.9452 68.018 26.1422C68.018 27.9092 67.5149 29.2488 66.5086 30.1607C65.5215 31.0537 64.0881 31.5002 62.2086 31.5002H52.583ZM56.4276 20.7557H61.1548C62.0852 20.7557 62.7496 20.5562 63.1483 20.1572C63.5469 19.7392 63.7463 19.1597 63.7463 18.4187C63.7463 17.6018 63.5375 16.9937 63.1198 16.5947C62.7211 16.1957 61.9712 15.9962 60.8701 15.9962H56.4276V20.7557ZM56.4276 28.6787H61.2972C62.2655 28.6787 62.9775 28.4792 63.4331 28.0802C63.8887 27.6812 64.1165 26.9783 64.1165 25.9712C64.1165 25.1543 63.8887 24.5462 63.4331 24.1472C62.9964 23.7482 62.199 23.5487 61.041 23.5487H56.4276V28.6787ZM71.2102 15.5117V12.4907H75.3964V15.5117H71.2102ZM71.5235 31.5002V20.8413H69.5016L69.8432 17.9912H75.3679V31.5002H71.5235ZM83.9952 31.7852C82.4384 31.7852 81.2803 31.3767 80.5208 30.5597C79.7804 29.7428 79.4103 28.6312 79.4103 27.2253V20.9552H77.5022V17.9912H79.4103V15.0843L83.2547 13.9442V17.9912H86.6721L86.4443 20.9552H83.2547V26.9687C83.2547 27.7097 83.4256 28.2228 83.7673 28.5077C84.109 28.7738 84.6406 28.9067 85.362 28.9067C85.8937 28.9067 86.4443 28.8117 87.0138 28.6218V31.2722C86.5961 31.4433 86.1405 31.5668 85.6469 31.6428C85.1532 31.7378 84.6027 31.7852 83.9952 31.7852ZM88.9868 31.5002V13.1462H101.887V16.1387H92.8313V20.8413H100.833V23.8052H92.8313V31.5002H88.9868ZM109.891 31.7852C107.366 31.7852 105.515 31.1772 104.338 29.9612C103.161 28.7263 102.573 26.9877 102.573 24.7457C102.573 22.5037 103.161 20.7747 104.338 19.5587C105.534 18.3238 107.385 17.7062 109.891 17.7062C112.416 17.7062 114.267 18.3238 115.445 19.5587C116.641 20.7747 117.239 22.5037 117.239 24.7457C117.239 26.9877 116.65 28.7263 115.473 29.9612C114.296 31.1772 112.435 31.7852 109.891 31.7852ZM109.891 28.5077C111.125 28.5077 112.008 28.2322 112.54 27.6812C113.071 27.1112 113.337 26.1328 113.337 24.7457C113.337 23.3588 113.071 22.3898 112.54 21.8388C112.008 21.2688 111.125 20.9837 109.891 20.9837C108.676 20.9837 107.803 21.2688 107.272 21.8388C106.74 22.3898 106.474 23.3588 106.474 24.7457C106.474 26.1328 106.74 27.1112 107.272 27.6812C107.803 28.2322 108.676 28.5077 109.891 28.5077ZM119.912 31.5002V17.9912H123.472L123.642 19.3877C124.25 19.0077 125 18.6657 125.892 18.3617C126.803 18.0387 127.696 17.8202 128.569 17.7062V20.6132C128.056 20.6892 127.496 20.8032 126.889 20.9552C126.281 21.1072 125.702 21.2782 125.152 21.4683C124.601 21.6582 124.136 21.8577 123.756 22.0668V31.5002H119.912ZM137.014 31.7852C134.678 31.7852 132.827 31.2057 131.46 30.0468C130.093 28.8687 129.41 27.0922 129.41 24.7172C129.41 22.5702 129.979 20.8698 131.118 19.6157C132.277 18.3427 133.995 17.7062 136.273 17.7062C138.361 17.7062 139.955 18.2572 141.057 19.3592C142.177 20.4423 142.737 21.8673 142.737 23.6343V26.0852H132.969C133.178 27.1682 133.672 27.9092 134.45 28.3082C135.247 28.7072 136.367 28.9067 137.811 28.9067C138.532 28.9067 139.263 28.8402 140.004 28.7072C140.763 28.5743 141.408 28.4032 141.94 28.1942V30.9302C141.313 31.2153 140.582 31.4242 139.747 31.5572C138.911 31.7092 138 31.7852 137.014 31.7852ZM132.969 23.7197H139.377V22.9787C139.377 22.1997 139.149 21.5918 138.694 21.1547C138.237 20.6987 137.469 20.4708 136.387 20.4708C135.115 20.4708 134.223 20.7272 133.71 21.2403C133.216 21.7532 132.969 22.5797 132.969 23.7197ZM143.252 31.5002L148.435 24.6318L143.452 17.9912H147.609L150.514 21.9242L153.419 17.9912H157.576L152.622 24.6318L157.776 31.5002H153.589L150.514 27.3677L147.439 31.5002H143.252Z" fill="white"/>
</svg>
