<svg width="260" height="70" viewBox="0 0 260 70" fill="none" xmlns="http://www.w3.org/2000/svg">
<g clip-path="url(#clip0_7936_17791)">
<path d="M53.6374 60.5032C48.8155 63.2178 40.5036 64 29.023 64C17.5424 64 9.2304 63.2178 4.40855 60.5032C1.51544 58.8469 0.0459224 56.6384 0.0459224 55.028C0.0459224 54.1078 0.551069 53.6017 1.60728 53.6017H56.4846C57.5867 53.6017 58.0459 54.1078 58.0459 55.028C58 56.6384 56.5305 58.8469 53.6374 60.5032ZM56.4386 18.0359H1.56136C0.505147 18.0359 0 17.4838 0 16.4716C0 10.5363 8.95487 0 28.977 0C48.8155 0 57.9541 10.5363 57.9541 16.4716C58 17.4838 57.4948 18.0359 56.4386 18.0359Z" fill="white"/>
<path fill-rule="evenodd" clip-rule="evenodd" d="M39.677 28.0202C39.677 30.7348 37.8401 32.6212 34.901 32.6212C32.1457 32.6212 29.2985 30.6888 29.2985 26.4558C29.2985 22.0849 32.0998 20.1525 34.9929 20.1525C36.6461 20.1525 37.7482 20.5666 38.5289 21.1647C38.9422 21.4868 39.2177 21.9929 39.2177 22.637C39.2177 23.5112 38.5289 24.2934 37.5645 24.2934C37.1971 24.2934 36.9216 24.1553 36.6461 24.0173C36.3246 23.8333 35.9572 23.6492 35.2684 23.6492C34.2581 23.6492 32.9723 24.3854 32.9723 26.4558C32.9723 28.2962 33.9367 29.3085 35.3143 29.3085C35.7736 29.3085 36.1409 29.0784 36.1409 28.7563C36.1409 28.4803 35.9113 28.3883 35.5439 28.3883C34.8551 28.3883 33.9367 27.8822 33.9367 26.8239C33.9367 25.6737 34.8092 25.1216 35.9113 25.1216H36.5083C38.6207 25.0755 39.677 26.2718 39.677 28.0202ZM11.4806 42.0993C11.4806 42.1913 11.4806 42.3293 11.6643 42.6054C12.1235 43.2955 13.3175 44.7679 14.3737 45.9181C15.2003 46.7923 15.6136 47.5745 15.6136 48.5407C15.6136 50.151 14.1441 51.6694 12.445 51.6694C11.4347 51.6694 10.4703 51.1172 9.68963 50.2891C8.54157 49.0008 7.30166 46.8383 6.84244 45.7801C6.84244 45.7801 6.84244 45.7341 6.79652 45.6881C6.75059 45.55 6.65875 45.32 6.38321 45.32C6.1536 45.32 6.06176 45.504 6.06176 45.6881V48.3106C6.06176 50.151 4.95962 51.6233 3.03088 51.6233C1.05622 51.6233 0 50.151 0 48.3106V36.9461C0 35.1057 1.05622 33.6334 3.03088 33.6334C5.00554 33.6334 6.06176 35.1057 6.06176 36.9461V38.7865C6.06176 39.0166 6.1536 39.1546 6.38321 39.1546C6.52098 39.1546 6.61283 39.1086 6.79652 38.9706C7.48535 38.3264 8.49564 36.6701 9.36817 35.2438C10.0111 34.1855 10.9755 33.5874 12.0317 33.5874C13.639 33.5874 15.1085 34.8757 15.1085 36.486C15.1085 37.1302 14.8789 37.8663 14.3278 38.7405C13.639 39.8448 12.3531 41.041 11.8021 41.5471C11.6184 41.7772 11.4806 41.9152 11.4806 42.0993ZM2.15835 32.4832H4.77593C7.25574 32.4832 8.77118 30.8268 8.77118 28.7563C8.77118 27.146 7.85273 26.3638 7.5772 26.1798C7.48535 26.0878 7.39351 26.0418 7.39351 25.9497C7.39351 25.8577 7.43943 25.8577 7.48535 25.7657L7.53127 25.7197C7.89865 25.3056 8.22011 24.6615 8.22011 23.6952C8.22011 21.4407 6.70467 20.2905 4.36263 20.2905H2.15835C0.688836 20.2445 0 21.0727 0 22.2689V30.4587C0 31.609 0.688836 32.4832 2.15835 32.4832ZM3.26049 23.4192C3.26049 23.1891 3.39826 23.0051 3.71971 23.0051H3.94933C4.73001 23.0051 5.00554 23.5572 5.00554 24.0633C5.00554 24.5234 4.77593 25.1216 3.94933 25.1216H3.71971C3.39826 25.1216 3.26049 24.9375 3.26049 24.7075V23.4192ZM3.26049 27.7901C3.26049 27.5601 3.39826 27.376 3.71971 27.376H4.04117C4.9137 27.376 5.18923 27.9742 5.18923 28.5263C5.18923 29.0324 4.9137 29.6765 4.04117 29.6765H3.71971C3.39826 29.6765 3.26049 29.4925 3.26049 29.2625V27.7901ZM52.6271 30.5507C52.6271 31.655 51.9842 32.5752 50.7902 32.5752C49.5962 32.5752 48.9533 31.701 48.9533 30.5507V22.2689C48.9533 21.1187 49.6421 20.2445 51.1116 20.2445H53.2241C55.5661 20.2445 57.5408 21.5788 57.5408 23.9713C57.5408 25.5356 56.8519 26.5019 56.3009 26.962C56.1172 27.1 56.1172 27.238 56.1631 27.376C56.3927 28.0202 56.806 28.5263 57.4489 29.3545C57.7704 29.7686 58.0459 30.2287 58.0459 30.8728C58.0459 31.839 57.2193 32.5752 56.2549 32.5752C55.658 32.5752 55.061 32.2991 54.418 31.4709C53.9129 30.8268 53.4537 29.5385 53.3159 28.5723C53.27 28.3423 53.2241 28.2042 52.9945 28.2042C52.8108 28.2042 52.7189 28.2962 52.7189 28.5723V30.5507H52.6271ZM52.8567 23.3272C52.5352 23.3272 52.3975 23.5112 52.3975 23.7413V25.0295C52.3975 25.2596 52.5352 25.4436 52.8567 25.4436H53.1322C53.9129 25.4436 54.1425 24.8455 54.1425 24.3854C54.1425 23.8793 53.9129 23.3272 53.1322 23.3272H52.8567ZM20.1599 33.6334C18.0934 33.6334 16.9454 35.1978 16.9454 37.1302V48.1726C16.9454 50.105 18.0934 51.6694 20.1599 51.6694C22.2264 51.6694 23.3745 50.105 23.3745 48.1726V37.1302C23.3745 35.1978 22.2724 33.6334 20.1599 33.6334ZM52.3515 40.811H53.27C56.3927 40.811 58 42.5594 58 45.0439C58 49.0008 55.2446 51.6694 50.8361 51.6694C46.6572 51.6694 42.4323 48.8167 42.4323 42.7434C42.4323 36.394 46.6572 33.6334 50.9739 33.6334C53.4078 33.6334 55.1069 34.2315 56.2549 35.1057C56.8979 35.6118 57.3112 36.302 57.3112 37.2222C57.3112 38.4645 56.3009 39.6607 54.8313 39.6607C54.2344 39.6607 53.867 39.4767 53.4537 39.2466C52.9485 39.0166 52.3975 38.7405 51.3872 38.7405C49.8717 38.7405 47.943 39.7988 47.943 42.7894C47.943 45.458 49.3666 46.8843 51.479 46.8843C52.1219 46.8843 52.7189 46.5622 52.7189 46.1021C52.7189 45.7341 52.3515 45.55 51.8464 45.55C50.8361 45.55 49.4584 44.8139 49.4584 43.2955C49.4584 41.5932 50.6983 40.811 52.3515 40.811ZM46.2439 32.4832C47.3001 32.4832 48.1267 31.885 48.1267 30.7348C48.1267 29.6305 47.3001 29.0324 46.2439 29.0324H44.5447C44.2233 29.0324 44.0855 28.8484 44.0855 28.6183V28.2502C44.0855 28.0202 44.2233 27.8361 44.5447 27.8361H45.8306C46.7031 27.8361 47.4378 27.284 47.4378 26.3638C47.4378 25.3976 46.749 24.8915 45.8306 24.8915H44.5447C44.2233 24.8915 44.0855 24.7075 44.0855 24.4774V24.2014C44.0855 23.9713 44.2233 23.7873 44.5447 23.7873H46.1979C47.2542 23.7873 48.0808 23.1891 48.0808 22.0389C48.0808 20.9346 47.2542 20.3365 46.1979 20.3365H42.7078C41.2383 20.3365 40.5495 21.2107 40.5495 22.3609V30.5507C40.5495 31.701 41.2383 32.5752 42.7078 32.5752L46.2439 32.4832ZM18.8741 28.4803C18.8741 30.7348 17.2668 32.5752 14.2359 32.5752C11.2051 32.5752 9.6437 30.7808 9.6437 28.4803V22.2229C9.6437 21.1187 10.2866 20.1985 11.4806 20.1985C12.6746 20.1985 13.3634 21.0727 13.3634 22.2229V28.2962C13.3634 28.7563 13.593 29.2625 14.2359 29.2625C14.9248 29.2625 15.1544 28.7563 15.1544 28.2962V22.2229C15.1544 21.1187 15.7973 20.1985 16.9913 20.1985C18.1853 20.1985 18.8282 21.0727 18.8282 22.2229V28.4803H18.8741ZM27.3238 32.5752C28.2882 32.5752 29.1148 31.793 29.1148 30.8728C29.1148 30.2287 28.8393 29.7686 28.5178 29.3545L28.426 29.2164C27.9208 28.5723 27.4616 27.9742 27.232 27.376C27.1861 27.238 27.232 27.1 27.3698 26.962C27.9667 26.5019 28.6097 25.5356 28.6097 23.9713C28.6097 21.6248 26.635 20.2445 24.293 20.2445H22.1805C20.711 20.2445 20.0222 21.1187 20.0222 22.2689V30.5507C20.0222 31.655 20.6651 32.5752 21.8591 32.5752C23.053 32.5752 23.696 31.701 23.696 30.5507V28.5723C23.696 28.3423 23.7878 28.2042 23.9715 28.2042C24.2011 28.2042 24.247 28.3423 24.293 28.5723C24.4766 29.5385 24.8899 30.8268 25.3951 31.4709C26.1298 32.2991 26.7268 32.5752 27.3238 32.5752ZM24.247 25.4436H23.9715C23.65 25.4436 23.5123 25.2596 23.5123 25.0295V23.7873C23.5123 23.5572 23.65 23.3732 23.9715 23.3732H24.247C25.0277 23.3732 25.2573 23.9253 25.2573 24.4314C25.3032 24.8455 25.0277 25.4436 24.247 25.4436ZM35.0388 36.9001C35.0388 35.1057 36.095 33.6794 37.9778 33.6794C39.9066 33.6794 40.9169 35.1057 40.9169 36.9001V48.4026C40.9169 50.243 39.8147 51.7154 37.886 51.7154C36.7379 51.7154 35.6817 51.2553 34.7173 49.3689L32.1457 44.3538C32.0079 44.0777 31.9161 43.9857 31.7324 43.9857C31.5487 43.9857 31.4109 44.1237 31.4109 44.4918V48.4947C31.4109 50.2891 30.3547 51.7154 28.4719 51.7154C26.5431 51.7154 25.5329 50.2891 25.5329 48.4947V36.9921C25.5329 35.1517 26.635 33.6794 28.5637 33.6794C29.7577 33.6794 30.768 34.1395 31.7324 36.0259L34.304 41.041C34.4418 41.3171 34.5336 41.4091 34.7173 41.4091C34.901 41.4091 35.0388 41.2711 35.0388 40.903V36.9001Z" fill="white"/>
</g>
<defs>
<clipPath id="clip0_7936_17791">
<rect width="58" height="64" fill="white"/>
</clipPath>
</defs>
</svg>
