<svg width="260" height="70" viewBox="0 0 260 70" fill="none" xmlns="http://www.w3.org/2000/svg">
<g clip-path="url(#clip0_10953_6915)">
<mask id="mask0_10953_6915" style="mask-type:luminance" maskUnits="userSpaceOnUse" x="0" y="0" width="67" height="70">
<path d="M67 0H0V70H67V0Z" fill="white"/>
</mask>
<g mask="url(#mask0_10953_6915)">
<path d="M10.9757 67.8786L10.2236 65.9521H7.80202L7.05818 67.8786H6.34741L8.73593 61.7967H9.32687L11.703 67.8786H10.9757ZM10.0046 65.3183L9.30211 63.4415C9.21113 63.204 9.11747 62.9126 9.02106 62.5673C8.96048 62.8325 8.87366 63.1239 8.76075 63.4415L8.04999 65.3183H10.0046ZM19.4513 67.8786H18.6496L15.3478 62.7952H15.3147C15.3588 63.3918 15.3808 63.9386 15.3808 64.4358V67.8786H14.7321V61.8216H15.5255L18.819 66.8844H18.8521C18.8466 66.8098 18.8342 66.5708 18.8148 66.1676C18.7956 65.7616 18.7887 65.4716 18.7942 65.2975V61.8216H19.4513V67.8786ZM22.9225 67.9615C22.253 67.9615 21.7241 67.7571 21.3357 67.3483C20.95 66.9396 20.7571 66.3719 20.7571 65.6456C20.7571 64.9136 20.9361 64.3323 21.2943 63.9014C21.6552 63.4705 22.1387 63.255 22.7448 63.255C23.3123 63.255 23.7613 63.4429 24.092 63.8185C24.4225 64.1914 24.5878 64.6844 24.5878 65.2975V65.7325H21.4679C21.4817 66.2657 21.6152 66.6703 21.8687 66.9464C22.1249 67.2227 22.4845 67.3608 22.9473 67.3608C23.4349 67.3608 23.917 67.2585 24.3936 67.0542V67.6674C24.1511 67.7723 23.9212 67.8469 23.7035 67.8911C23.4886 67.938 23.2282 67.9615 22.9225 67.9615ZM22.7365 63.8309C22.3729 63.8309 22.0822 63.9497 21.8646 64.1872C21.6497 64.4247 21.523 64.7535 21.4844 65.1732H23.8523C23.8523 64.7396 23.7558 64.4082 23.563 64.179C23.3701 63.947 23.0947 63.8309 22.7365 63.8309ZM29.4599 67.8786L28.6294 65.2147C28.577 65.0518 28.4792 64.6816 28.3359 64.1044H28.3029C28.1927 64.5877 28.0962 64.9606 28.0136 65.223L27.1582 67.8786H26.3648L25.1292 63.3379H25.8482C26.1403 64.4786 26.362 65.3473 26.5136 65.9439C26.6678 66.5404 26.756 66.9423 26.778 67.1495H26.811C26.8414 66.992 26.8896 66.789 26.9557 66.5404C27.0246 66.2891 27.0838 66.0902 27.1334 65.9439L27.964 63.3379H28.7079L29.5178 65.9439C29.6721 66.4189 29.7767 66.818 29.8318 67.1412H29.8649C29.8759 67.0417 29.9048 66.8885 29.9517 66.6813C30.0013 66.4742 30.2892 65.3597 30.8154 63.3379H31.5262L30.274 67.8786H29.4599ZM35.3528 65.3597V67.8786H34.6503V61.8216H36.3073C37.0484 61.8216 37.5952 61.9638 37.9479 62.2483C38.3032 62.5328 38.481 62.9609 38.481 63.5326C38.481 64.3336 38.076 64.875 37.266 65.1567L38.9066 67.8786H38.076L36.6131 65.3597H35.3528ZM35.3528 64.7548H36.3156C36.8115 64.7548 37.1751 64.6568 37.4066 64.4607C37.638 64.2618 37.7536 63.9649 37.7536 63.5699C37.7536 63.1694 37.6352 62.8808 37.3982 62.704C37.1641 62.5272 36.7867 62.4389 36.266 62.4389H35.3528V64.7548ZM41.6918 67.9615C41.0224 67.9615 40.4934 67.7571 40.105 67.3483C39.7193 66.9396 39.5264 66.3719 39.5264 65.6456C39.5264 64.9136 39.7055 64.3323 40.0636 63.9014C40.4246 63.4705 40.9081 63.255 41.5142 63.255C42.0817 63.255 42.5307 63.4429 42.8613 63.8185C43.1919 64.1914 43.3572 64.6844 43.3572 65.2975V65.7325H40.2372C40.251 66.2657 40.3846 66.6703 40.6381 66.9464C40.8943 67.2227 41.2538 67.3608 41.7166 67.3608C42.2043 67.3608 42.6864 67.2585 43.163 67.0542V67.6674C42.9205 67.7723 42.6905 67.8469 42.4729 67.8911C42.258 67.938 41.9976 67.9615 41.6918 67.9615ZM41.5059 63.8309C41.1422 63.8309 40.8516 63.9497 40.6339 64.1872C40.419 64.4247 40.2924 64.7535 40.2538 65.1732H42.6216C42.6216 64.7396 42.5252 64.4082 42.3323 64.179C42.1395 63.947 41.864 63.8309 41.5059 63.8309ZM47.316 67.8786L47.1797 67.2323H47.1466C46.9207 67.5168 46.6948 67.7101 46.4689 67.8123C46.2458 67.9118 45.9661 67.9615 45.63 67.9615C45.181 67.9615 44.8283 67.8455 44.5721 67.6135C44.3186 67.3815 44.192 67.0514 44.192 66.6233C44.192 65.7063 44.9234 65.2257 46.3863 65.1815L47.1549 65.1567V64.875C47.1549 64.5186 47.0778 64.2563 46.9235 64.0878C46.772 63.9166 46.5282 63.8309 46.192 63.8309C45.8146 63.8309 45.3876 63.947 44.911 64.179L44.7003 63.6528C44.9234 63.5313 45.1672 63.436 45.4317 63.3669C45.6989 63.2979 45.9661 63.2634 46.2334 63.2634C46.7733 63.2634 47.1728 63.3835 47.4317 63.6238C47.6935 63.8641 47.8243 64.2494 47.8243 64.7797V67.8786H47.316ZM45.7664 67.3939C46.1934 67.3939 46.5282 67.2765 46.7706 67.0417C47.0158 66.807 47.1384 66.4783 47.1384 66.0557V65.6456L46.4523 65.6746C45.9069 65.6939 45.5129 65.7795 45.2705 65.9314C45.0308 66.0806 44.911 66.314 44.911 66.6316C44.911 66.8802 44.9854 67.0694 45.1341 67.1992C45.2856 67.329 45.4964 67.3939 45.7664 67.3939ZM49.9277 67.8786H49.2417V61.4321H49.9277V67.8786ZM52.0683 67.8786H51.3823V63.3379H52.0683V67.8786ZM51.3244 62.1075C51.3244 61.95 51.363 61.8354 51.4402 61.7636C51.5173 61.689 51.6137 61.6517 51.7295 61.6517C51.8396 61.6517 51.9347 61.689 52.0146 61.7636C52.0944 61.8381 52.1344 61.9527 52.1344 62.1075C52.1344 62.2621 52.0944 62.3781 52.0146 62.4555C51.9347 62.53 51.8396 62.5673 51.7295 62.5673C51.6137 62.5673 51.5173 62.53 51.4402 62.4555C51.363 62.3781 51.3244 62.2621 51.3244 62.1075ZM54.9857 67.3939C55.107 67.3939 55.2241 67.3856 55.337 67.369C55.4499 67.3497 55.5395 67.3304 55.6057 67.3111V67.8372C55.5313 67.8731 55.421 67.9021 55.275 67.9242C55.1318 67.9491 55.0023 67.9615 54.8866 67.9615C54.0105 67.9615 53.5725 67.4989 53.5725 66.5736V63.8724H52.9237V63.5409L53.5725 63.255L53.8618 62.2856H54.2585V63.3379H55.5726V63.8724H54.2585V66.5446C54.2585 66.818 54.3232 67.028 54.4527 67.1743C54.5822 67.3207 54.7598 67.3939 54.9857 67.3939ZM55.7957 63.3379H56.5313L57.5231 65.9273C57.7407 66.5184 57.8757 66.9451 57.928 67.2075H57.9611C57.9969 67.0666 58.0713 66.8263 58.1843 66.4866C58.3 66.1441 58.6746 65.0945 59.3083 63.3379H60.0438L58.0975 68.5084C57.9046 69.0194 57.6787 69.3812 57.4197 69.5938C57.1635 69.8093 56.8481 69.917 56.4734 69.917C56.264 69.917 56.0575 69.8935 55.8536 69.8466V69.2955C56.0051 69.3287 56.1745 69.3452 56.3619 69.3452C56.833 69.3452 57.169 69.0801 57.3702 68.5498L57.6222 67.9035L55.7957 63.3379Z" fill="white"/>
<path d="M41.8514 35.8351V34.748H41.4567V34.5868H42.4382V34.748H42.0362V35.8279L41.8514 35.8351ZM43.8162 35.8351V34.8694L43.3653 35.5452H43.349L42.9072 34.8694V35.8351H42.7224V34.5868H42.9234L43.3653 35.2626L43.8162 34.5868H43.9936V35.8261L43.8162 35.8351ZM17.0723 35.9311C17.0162 35.9311 16.9927 35.8985 16.9673 35.8515L11.084 17.4827C11.084 17.4501 11.0913 17.4175 11.1238 17.3939L27.4936 0.0326136C27.5153 0.0126831 27.5424 0.00181187 27.5732 0L47.6533 0.0163068C47.7185 0.0163068 47.7656 0.0724747 47.7656 0.137702C47.7656 0.154008 47.7656 0.177563 47.742 0.202929L21.047 30.3198C21.0127 30.3543 20.9909 30.4031 20.9909 30.4557C20.9909 30.6007 21.1684 30.722 21.3133 30.6079L35.213 19.4957C35.2782 19.4631 35.3343 19.4304 35.4303 19.4159L54.9871 19.1985C55.0523 19.1985 55.0993 19.2547 55.0921 19.3199C55.0921 19.3435 55.0921 19.3761 55.0686 19.3997L38.5304 35.9076C38.5105 35.9294 38.4816 35.9439 38.4507 35.9475L17.0723 35.9311ZM64.5228 46.8748H64.9085C65.1023 46.8748 65.2309 46.7951 65.2309 46.6248C65.2309 46.4726 65.1258 46.3838 64.9248 46.3838H64.5228V46.8748ZM65.2562 47.567L64.8542 47.0524H64.5083V47.567H64.3146V46.2063H64.9266C65.0878 46.2063 65.2399 46.2552 65.3286 46.3585C65.3847 46.4237 65.4409 46.5034 65.4409 46.6248C65.4409 46.835 65.2888 46.9709 65.086 47.0271L65.5043 47.567H65.2562ZM63.63 46.9238C63.63 47.5833 64.1443 48.1323 64.8379 48.1323C65.5224 48.1486 66.0457 47.5851 66.0457 46.9238C66.0457 46.2389 65.5387 45.7152 64.8379 45.7152C64.1462 45.7152 63.63 46.2552 63.63 46.9238ZM63.5178 46.9401C63.5178 46.2153 64.0973 45.5957 64.8451 45.5957C65.5857 45.5957 66.1652 46.1918 66.1652 46.9238C66.1652 47.6485 65.5857 48.2446 64.8451 48.2446C64.0973 48.2446 63.5178 47.6485 63.5178 46.9401ZM60.9972 57.7624L56.3289 51.8593L53.7376 54.501V57.7624H52.3687V45.5793H53.7213V52.8595L60.7147 45.5793H62.4856L57.2705 50.8936L62.7193 57.7624H60.9972ZM18.5934 57.7787V45.5793H27.3903V46.835H19.9696V50.9987H26.6171V52.2633H19.9606V56.5231H27.4863V57.7787H18.5934ZM35.4774 57.7787V45.5793H44.2743V46.835H36.8627V50.9987H43.5102V52.2633H36.8627V56.5231H44.3884V57.7787H35.4774ZM0.00181081 51.7144V51.6818C0.00181081 48.2265 2.57678 45.3765 6.16581 45.3765C8.3714 45.3765 9.69144 46.1574 10.9137 47.317L9.97214 48.3316C9.01425 47.3079 7.65789 46.6665 6.15133 46.6574H6.14951C3.44597 46.6574 1.42511 48.848 1.42511 51.651V51.6835C1.42511 54.5028 3.46046 56.7006 6.14951 56.7006C7.82271 56.7006 8.91826 56.0556 10.0772 54.9449L10.9862 55.8382C9.715 57.1355 8.32246 57.9798 6.11692 57.9798C2.58403 57.9798 0 55.2094 0 51.7144H0.00181081Z" fill="white"/>
</g>
</g>
<defs>
<clipPath id="clip0_10953_6915">
<rect width="67" height="70" fill="white"/>
</clipPath>
</defs>
</svg>
