<svg width="200" height="200" viewBox="0 0 200 200" fill="none" xmlns="http://www.w3.org/2000/svg">
<path d="M100.792 111.922C100.822 111.933 100.852 111.939 100.883 111.939C100.916 111.939 100.949 111.933 100.98 111.922L101.023 111.9C101.043 111.888 101.061 111.873 101.076 111.856L112.453 99.9852C113.79 98.5783 114.541 96.6793 114.541 94.7005C114.541 92.7217 113.79 90.8228 112.453 89.4158L112.416 89.3771C111.076 87.9939 109.264 87.2209 107.376 87.2282C105.489 87.2355 103.682 88.0224 102.352 89.4158L100.819 90.9503L99.4295 89.4269L99.4246 89.4209C99.4117 89.405 99.3973 89.3903 99.3817 89.3771C98.0426 87.9945 96.2307 87.2213 94.3441 87.2275C92.4574 87.2336 90.6503 88.0185 89.3194 89.4099C87.9794 90.8154 87.2275 92.715 87.2275 94.6947C87.2275 96.6745 87.9794 98.574 89.3194 99.9796L100.69 111.85L100.738 111.894L100.792 111.922Z" stroke="url(#paint0_linear_7020_67)"/>
<path d="M126.441 61.8095C129.57 61.8132 132.63 60.8839 135.234 59.1393C137.837 57.3947 139.868 54.9132 141.069 52.0083C142.27 49.1035 142.587 45.9059 141.98 42.82C141.373 39.7341 139.869 36.8984 137.659 34.6715C135.449 32.4446 132.632 30.9265 129.564 30.3092C126.496 29.6919 123.314 30.0033 120.422 31.2037C117.53 32.4041 115.057 34.4397 113.315 37.0532C111.574 39.6667 110.642 42.7407 110.639 45.8864V66.9218M126.441 137.357C129.57 137.354 132.63 138.283 135.234 140.027C137.837 141.772 139.868 144.254 141.069 147.158C142.27 150.063 142.587 153.261 141.98 156.347C141.373 159.433 139.869 162.268 137.659 164.495C135.449 166.722 132.632 168.24 129.564 168.857C126.496 169.475 123.314 169.163 120.422 167.963C117.53 166.763 115.057 164.727 113.315 162.113C111.574 159.5 110.642 156.426 110.639 153.28L110.639 132.245M142.24 44.7738C145.596 44.7778 148.943 45.5838 151.925 47.1346C154.907 48.6855 157.479 50.9312 159.427 53.6853C161.375 56.4393 162.642 59.622 163.124 62.969C163.606 66.3159 163.288 69.7304 162.196 72.9286C167.324 74.9856 171.721 78.5456 174.818 83.1482C177.916 87.7509 179.572 93.1845 179.572 98.7459C179.572 104.307 177.916 109.741 174.818 114.343C171.721 118.946 167.324 122.506 162.196 124.563C163.296 127.757 163.62 131.169 163.144 134.516C162.667 137.862 161.403 141.045 159.457 143.798C157.511 146.551 154.94 148.796 151.957 150.343C148.975 151.891 145.624 152.696 142.27 152.693" stroke="white"/>
<path d="M72.7259 61.8095C69.5969 61.8132 66.537 60.8839 63.9332 59.1393C61.3295 57.3947 59.2989 54.9132 58.0981 52.0083C56.8973 49.1035 56.5803 45.9059 57.1872 42.82C57.7941 39.7341 59.2974 36.8984 61.5074 34.6715C63.7174 32.4446 66.5348 30.9265 69.603 30.3092C72.6712 29.6919 75.8527 30.0033 78.7449 31.2037C81.6372 32.4041 84.1103 34.4397 85.8517 37.0532C87.5932 39.6667 88.5245 42.7407 88.5281 45.8864V66.9218M72.7259 137.357C69.5969 137.354 66.537 138.283 63.9332 140.027C61.3295 141.772 59.2989 144.254 58.0981 147.158C56.8973 150.063 56.5803 153.261 57.1872 156.347C57.7941 159.433 59.2974 162.268 61.5074 164.495C63.7174 166.722 66.5348 168.24 69.603 168.857C72.6712 169.475 75.8527 169.163 78.7449 167.963C81.6372 166.763 84.1103 164.727 85.8517 162.113C87.5932 159.5 88.5245 156.426 88.5281 153.28L88.5281 132.245M56.9268 44.7738C53.5708 44.7778 50.2242 45.5838 47.2419 47.1346C44.2596 48.6855 41.6877 50.9312 39.7399 53.6853C37.7921 56.4393 36.5246 59.622 36.0429 62.969C35.5612 66.3159 35.8793 69.7304 36.9704 72.9286C31.8432 74.9856 27.4463 78.5456 24.3486 83.1482C21.251 87.7509 19.5951 93.1845 19.5951 98.7459C19.5951 104.307 21.251 109.741 24.3486 114.343C27.4463 118.946 31.8432 122.506 36.9704 124.563C35.8713 127.757 35.5464 131.169 36.0229 134.516C36.4994 137.862 37.7635 141.045 39.7096 143.798C41.6557 146.551 44.2272 148.796 47.2095 150.343C50.1918 151.891 53.5424 152.696 56.8969 152.693" stroke="white"/>
<ellipse cx="100.884" cy="99.5833" rx="34.4665" ry="34.4665" stroke="url(#paint1_linear_7020_67)"/>
<defs>
<linearGradient id="paint0_linear_7020_67" x1="114.541" y1="99.5833" x2="87.2275" y2="99.5833" gradientUnits="userSpaceOnUse">
<stop stop-color="#F66979"/>
<stop offset="1" stop-color="#D278FE"/>
</linearGradient>
<linearGradient id="paint1_linear_7020_67" x1="135.351" y1="99.5833" x2="66.4175" y2="99.5833" gradientUnits="userSpaceOnUse">
<stop stop-color="#F66979"/>
<stop offset="1" stop-color="#D278FE"/>
</linearGradient>
</defs>
</svg>
