<svg width="260" height="70" viewBox="0 0 260 70" fill="none" xmlns="http://www.w3.org/2000/svg">
<path d="M6.552 19.192C4.712 19.192 3.296 18.72 2.304 17.776C1.312 16.816 0.816 15.312 0.816 13.264V9.04C0.816 7.056 1.312 5.568 2.304 4.576C3.296 3.584 4.712 3.088 6.552 3.088C7.848 3.088 8.944 3.328 9.84 3.808C10.736 4.288 11.384 4.96 11.784 5.824C12.2 6.672 12.336 7.68 12.192 8.848C12.176 9.072 12.08 9.184 11.904 9.184H8.76C8.552 9.184 8.456 9.072 8.472 8.848C8.52 8.064 8.392 7.464 8.088 7.048C7.8 6.616 7.296 6.4 6.576 6.4C5.888 6.4 5.376 6.608 5.04 7.024C4.72 7.44 4.56 8.144 4.56 9.136V13.096C4.56 14.12 4.728 14.84 5.064 15.256C5.4 15.672 5.904 15.88 6.576 15.88C7.328 15.88 7.84 15.656 8.112 15.208C8.384 14.744 8.512 14.152 8.496 13.432C8.48 13.208 8.568 13.096 8.76 13.096H11.928C12.104 13.096 12.2 13.2 12.216 13.408C12.392 15.168 11.992 16.576 11.016 17.632C10.04 18.672 8.552 19.192 6.552 19.192ZM19.9907 19C19.7987 19 19.7027 18.896 19.7027 18.688V11.008C19.7027 10.64 19.6387 10.376 19.5107 10.216C19.3827 10.056 19.1747 9.976 18.8867 9.976C18.6147 9.976 18.3507 10.056 18.0947 10.216C17.8387 10.376 17.5827 10.584 17.3267 10.84L16.8707 9.04C17.3187 8.448 17.8547 7.936 18.4787 7.504C19.1187 7.056 19.8387 6.832 20.6387 6.832C21.5507 6.832 22.2227 7.112 22.6547 7.672C23.1027 8.216 23.3267 9.096 23.3267 10.312V18.688C23.3267 18.896 23.2307 19 23.0387 19H19.9907ZM14.2307 19C14.0227 19 13.9187 18.896 13.9187 18.688V2.92C13.9187 2.712 14.0227 2.608 14.2307 2.608H17.2307C17.4387 2.608 17.5427 2.712 17.5427 2.92V18.688C17.5427 18.896 17.4387 19 17.2307 19H14.2307ZM25.3401 19C25.1321 19 25.0281 18.896 25.0281 18.688V7.36C25.0281 7.152 25.1321 7.048 25.3401 7.048H28.3401C28.5481 7.048 28.6521 7.152 28.6521 7.36V18.688C28.6521 18.896 28.5481 19 28.3401 19H25.3401ZM26.8281 5.704C26.2041 5.704 25.7081 5.552 25.3401 5.248C24.9881 4.928 24.8121 4.496 24.8121 3.952V3.472C24.8121 2.912 24.9881 2.48 25.3401 2.176C25.7081 1.856 26.2041 1.696 26.8281 1.696C27.4841 1.696 27.9801 1.856 28.3161 2.176C28.6681 2.48 28.8441 2.912 28.8441 3.472V3.952C28.8441 4.496 28.6681 4.928 28.3161 5.248C27.9801 5.552 27.4841 5.704 26.8281 5.704ZM30.6604 19C30.4524 19 30.3484 18.896 30.3484 18.688V10.168C30.3484 9.64 30.3404 9.144 30.3244 8.68C30.3084 8.2 30.2844 7.776 30.2524 7.408C30.2364 7.168 30.3324 7.048 30.5404 7.048H33.1324C33.2924 7.048 33.3884 7.136 33.4204 7.312C33.4524 7.488 33.4764 7.704 33.4924 7.96C33.5244 8.2 33.5484 8.44 33.5644 8.68C34.0124 8.168 34.4924 7.736 35.0044 7.384C35.5324 7.016 36.1644 6.832 36.9004 6.832C37.5404 6.832 38.0444 6.968 38.4124 7.24C38.7804 7.512 39.0604 7.928 39.2524 8.488C39.6844 8.024 40.1564 7.632 40.6684 7.312C41.1964 6.992 41.7804 6.832 42.4204 6.832C43.3324 6.832 44.0044 7.12 44.4364 7.696C44.8844 8.256 45.1084 9.128 45.1084 10.312V18.688C45.1084 18.896 45.0124 19 44.8204 19H41.7724C41.5804 19 41.4844 18.896 41.4844 18.688V10.936C41.4844 10.6 41.4284 10.36 41.3164 10.216C41.2044 10.056 41.0204 9.976 40.7644 9.976C40.5564 9.976 40.3484 10.032 40.1404 10.144C39.9484 10.256 39.7484 10.408 39.5404 10.6V18.688C39.5404 18.896 39.4444 19 39.2524 19H36.2044C36.0124 19 35.9164 18.896 35.9164 18.688V10.936C35.9164 10.6 35.8604 10.36 35.7484 10.216C35.6364 10.056 35.4524 9.976 35.1964 9.976C34.9884 9.976 34.7804 10.032 34.5724 10.144C34.3804 10.256 34.1804 10.408 33.9724 10.6V18.688C33.9724 18.896 33.8684 19 33.6604 19H30.6604ZM52.8495 19.192C52.4175 19.192 51.9375 19.128 51.4095 19C50.8815 18.888 50.4255 18.728 50.0415 18.52L50.0175 15.832C50.2415 15.96 50.4815 16.064 50.7375 16.144C51.0095 16.224 51.2495 16.264 51.4575 16.264C51.8095 16.264 52.0655 16.152 52.2255 15.928C52.3855 15.688 52.4655 15.32 52.4655 14.824V11.056C52.4655 10.688 52.4095 10.416 52.2975 10.24C52.1855 10.064 51.9775 9.976 51.6735 9.976C51.4175 9.976 51.1535 10.056 50.8815 10.216C50.6255 10.376 50.3695 10.584 50.1135 10.84L49.6575 8.92C50.1855 8.376 50.7375 7.896 51.3135 7.48C51.9055 7.048 52.6175 6.832 53.4495 6.832C54.3295 6.832 54.9855 7.12 55.4175 7.696C55.8655 8.256 56.0895 9.152 56.0895 10.384V15.016C56.0895 16.472 55.8175 17.536 55.2735 18.208C54.7295 18.864 53.9215 19.192 52.8495 19.192ZM47.1135 23.44C46.9055 23.44 46.8015 23.336 46.8015 23.128V10.144C46.8015 9.632 46.7935 9.144 46.7775 8.68C46.7615 8.216 46.7375 7.792 46.7055 7.408C46.6895 7.168 46.7855 7.048 46.9935 7.048H49.5855C49.7455 7.048 49.8415 7.136 49.8735 7.312C49.9055 7.536 49.9375 7.824 49.9695 8.176C50.0175 8.528 50.0495 8.856 50.0655 9.16L50.4255 10.312V23.128C50.4255 23.336 50.3215 23.44 50.1135 23.44H47.1135ZM57.2021 19C57.0101 19 56.9141 18.904 56.9141 18.712V18.616C56.9141 18.456 56.9381 18.304 56.9861 18.16L60.0341 12.28C60.2261 11.912 60.4181 11.552 60.6101 11.2C60.8181 10.832 61.0181 10.48 61.2101 10.144V10.096C60.8741 10.112 60.5781 10.12 60.3221 10.12C60.0821 10.12 59.8341 10.12 59.5781 10.12H57.7301C57.5381 10.12 57.4421 10.016 57.4421 9.808V7.36C57.4421 7.152 57.5381 7.048 57.7301 7.048H65.8181C66.0421 7.048 66.1541 7.136 66.1541 7.312V7.408C66.1541 7.584 66.0741 7.824 65.9141 8.128L63.0341 13.696C62.8421 14.048 62.6421 14.416 62.4341 14.8C62.2421 15.168 62.0341 15.536 61.8101 15.904V15.952C62.1621 15.92 62.4501 15.904 62.6741 15.904C62.9141 15.904 63.1941 15.904 63.5141 15.904H65.4101C65.6181 15.904 65.7221 16.016 65.7221 16.24V18.688C65.7221 18.896 65.6181 19 65.4101 19H57.2021ZM71.5658 19.192C69.9498 19.192 68.7498 18.832 67.9658 18.112C67.1818 17.392 66.7898 16.28 66.7898 14.776V11.464C66.7898 9.96 67.1898 8.816 67.9898 8.032C68.7898 7.232 69.9658 6.832 71.5178 6.832C73.1338 6.832 74.3338 7.224 75.1178 8.008C75.9018 8.776 76.2938 9.952 76.2938 11.536V13.552C76.2938 13.776 76.1898 13.888 75.9818 13.888H70.3658V15.016C70.3658 15.512 70.4538 15.88 70.6298 16.12C70.8218 16.344 71.1258 16.456 71.5418 16.456C71.9098 16.456 72.1818 16.376 72.3578 16.216C72.5498 16.056 72.6378 15.792 72.6218 15.424C72.6218 15.248 72.7258 15.16 72.9338 15.16H75.7898C75.9658 15.16 76.0698 15.264 76.1018 15.472C76.1018 16.72 75.7338 17.656 74.9978 18.28C74.2618 18.888 73.1178 19.192 71.5658 19.192ZM70.3658 11.824H72.7418V11.032C72.7418 10.536 72.6458 10.176 72.4538 9.952C72.2778 9.712 71.9898 9.592 71.5898 9.592C71.1578 9.592 70.8458 9.712 70.6538 9.952C70.4618 10.176 70.3658 10.536 70.3658 11.032V11.824ZM82.5345 19.192C80.9185 19.192 79.7185 18.832 78.9345 18.112C78.1505 17.392 77.7585 16.28 77.7585 14.776V11.464C77.7585 9.96 78.1585 8.816 78.9585 8.032C79.7585 7.232 80.9345 6.832 82.4865 6.832C84.1025 6.832 85.3025 7.224 86.0865 8.008C86.8705 8.776 87.2625 9.952 87.2625 11.536V13.552C87.2625 13.776 87.1585 13.888 86.9505 13.888H81.3345V15.016C81.3345 15.512 81.4225 15.88 81.5985 16.12C81.7905 16.344 82.0945 16.456 82.5105 16.456C82.8785 16.456 83.1505 16.376 83.3265 16.216C83.5185 16.056 83.6065 15.792 83.5905 15.424C83.5905 15.248 83.6945 15.16 83.9025 15.16H86.7585C86.9345 15.16 87.0385 15.264 87.0705 15.472C87.0705 16.72 86.7025 17.656 85.9665 18.28C85.2305 18.888 84.0865 19.192 82.5345 19.192ZM81.3345 11.824H83.7105V11.032C83.7105 10.536 83.6145 10.176 83.4225 9.952C83.2465 9.712 82.9585 9.592 82.5585 9.592C82.1265 9.592 81.8145 9.712 81.6225 9.952C81.4305 10.176 81.3345 10.536 81.3345 11.032V11.824ZM91.1306 19.192C90.4266 19.192 89.8586 19.016 89.4266 18.664C89.0106 18.312 88.8026 17.824 88.8026 17.2V16.6C88.8026 15.944 89.0106 15.448 89.4266 15.112C89.8586 14.76 90.4266 14.584 91.1306 14.584C92.6986 14.584 93.4826 15.256 93.4826 16.6V17.2C93.4826 17.824 93.2826 18.312 92.8826 18.664C92.4826 19.016 91.8986 19.192 91.1306 19.192ZM95.5354 19C95.3274 19 95.2234 18.896 95.2234 18.688V7.36C95.2234 7.152 95.3274 7.048 95.5354 7.048H98.5354C98.7434 7.048 98.8474 7.152 98.8474 7.36V18.688C98.8474 18.896 98.7434 19 98.5354 19H95.5354ZM97.0234 5.704C96.3994 5.704 95.9034 5.552 95.5354 5.248C95.1834 4.928 95.0074 4.496 95.0074 3.952V3.472C95.0074 2.912 95.1834 2.48 95.5354 2.176C95.9034 1.856 96.3994 1.696 97.0234 1.696C97.6794 1.696 98.1754 1.856 98.5114 2.176C98.8634 2.48 99.0394 2.912 99.0394 3.472V3.952C99.0394 4.496 98.8634 4.928 98.5114 5.248C98.1754 5.552 97.6794 5.704 97.0234 5.704ZM105.176 19.192C103.672 19.192 102.496 18.808 101.648 18.04C100.8 17.256 100.376 16.12 100.376 14.632V11.392C100.376 9.92 100.8 8.792 101.648 8.008C102.496 7.224 103.672 6.832 105.176 6.832C106.68 6.832 107.856 7.224 108.704 8.008C109.552 8.792 109.976 9.92 109.976 11.392V14.632C109.976 16.12 109.552 17.256 108.704 18.04C107.872 18.808 106.696 19.192 105.176 19.192ZM105.176 16.096C105.592 16.096 105.888 15.976 106.064 15.736C106.256 15.48 106.352 15.072 106.352 14.512V11.536C106.352 10.96 106.256 10.552 106.064 10.312C105.888 10.072 105.592 9.952 105.176 9.952C104.776 9.952 104.48 10.072 104.288 10.312C104.096 10.552 104 10.96 104 11.536V14.512C104 15.072 104.096 15.48 104.288 15.736C104.48 15.976 104.776 16.096 105.176 16.096Z" fill="white"/>
</svg>
