<svg width="96" height="29" viewBox="0 0 96 29" fill="none" xmlns="http://www.w3.org/2000/svg">
<path d="M14.2972 19.0441C16.8081 19.0441 18.8435 17.0168 18.8435 14.5161C18.8435 12.0154 16.8081 9.98816 14.2972 9.98816C11.7863 9.98816 9.75085 12.0154 9.75085 14.5161C9.75085 17.0168 11.7863 19.0441 14.2972 19.0441Z" fill="#FF3D2E"/>
<path d="M19.6981 20.1335C18.3307 21.3591 16.519 22.04 14.5364 22.04C13.5292 22.0684 12.5268 21.8912 11.591 21.5193C10.6551 21.1473 9.8056 20.5886 9.09472 19.8774C8.38383 19.1662 7.82662 18.3176 7.4574 17.3838C7.08818 16.4501 6.91477 15.451 6.94783 14.448C6.94783 10.0562 10.0585 6.99219 14.5364 6.99219C16.4849 6.99219 18.3307 7.63904 19.7322 8.86465L20.6894 9.68173L24.928 5.46018L23.8684 4.50693C21.3015 2.22672 17.9759 0.977078 14.5364 1.00032C6.67436 1.00032 0.965821 6.65175 0.965821 14.4139C0.924048 16.2034 1.24599 17.9828 1.91232 19.6452C2.57864 21.3076 3.57559 22.8186 4.84322 24.0875C6.11085 25.3564 7.62299 26.3569 9.28876 27.0288C10.9545 27.7008 12.7395 28.0304 14.5364 27.9978C18.1256 27.9978 21.4756 26.7381 23.9367 24.4571L24.9622 23.5039L20.6552 19.2823L19.6981 20.1335Z" fill="white"/>
<path d="M39.9942 23.336C36.0342 23.336 33.8742 20.936 33.7782 18.152H36.4182C36.5862 19.664 37.4502 21.104 39.8502 21.104C41.9622 21.104 43.3542 19.808 43.3542 17.336C43.3542 15.008 42.0822 13.952 40.0182 13.952C38.6742 13.952 37.4502 14.408 36.6582 15.44H33.9942L35.7702 6.416H45.2022V8.648H37.7622L36.8502 13.232V13.28C37.7142 12.392 38.9382 11.84 40.7142 11.84C43.8582 11.84 46.0422 14.168 46.0422 17.336C46.0422 21.008 43.4022 23.336 39.9942 23.336ZM50.6035 23H47.9875V20.384H50.6035V23ZM58.6411 23.336C54.0091 23.336 52.0411 19.472 52.0411 14.72C52.0411 9.968 54.0091 6.08 58.6411 6.08C63.2731 6.08 65.2171 9.968 65.2171 14.72C65.2171 19.472 63.2731 23.336 58.6411 23.336ZM58.6411 21.104C61.6171 21.104 62.5051 18.128 62.5051 14.72C62.5051 11.312 61.6171 8.312 58.6411 8.312C55.6411 8.312 54.7531 11.312 54.7531 14.72C54.7531 18.128 55.6411 21.104 58.6411 21.104Z" fill="white"/>
<path fill-rule="evenodd" clip-rule="evenodd" d="M84.6636 3.49132C84.8742 2.83631 85.7924 2.83631 86.003 3.49132L87.9682 9.60292C88.0624 9.89583 88.3327 10.0942 88.6379 10.0942H94.999C95.6809 10.0942 95.9646 10.9746 95.4132 11.3794L90.2654 15.1588C90.019 15.3398 89.9158 15.6602 90.0099 15.9528L91.9758 22.0668C92.1864 22.7217 91.4436 23.2658 90.8919 22.8608L85.7475 19.0839C85.5006 18.9026 85.1661 18.9026 84.9192 19.0839L79.7747 22.8608C79.2231 23.2658 78.4803 22.7217 78.6908 22.0668L80.6568 15.9528C80.7508 15.6602 80.6477 15.3398 80.4012 15.1588L75.2535 11.3794C74.7021 10.9746 74.9858 10.0942 75.6677 10.0942H82.0288C82.3339 10.0942 82.6043 9.89583 82.6985 9.60292L84.6636 3.49132Z" fill="#FF3D2E"/>
</svg>
