<svg width="139" height="40" viewBox="0 0 139 40" fill="none" xmlns="http://www.w3.org/2000/svg">
<g clip-path="url(#clip0_2049_3160)">
<path d="M42.4952 0H36.167V40H42.4952V0Z" fill="#17313B"/>
<path d="M64.6437 27.24C64.6437 33.3616 59.5543 33.8496 58.0402 33.8496C54.2576 33.8496 53.5694 30.2688 53.5694 28.1088V12.8H47.2412V28.0768C47.2412 31.8688 48.4183 34.9984 50.4812 37.0848C52.3038 38.9296 55.0344 39.9376 57.9928 39.9376C60.0906 39.9376 63.0617 39.2768 64.6437 37.816V40H70.9719V12.8H64.6437V27.24Z" fill="#17313B"/>
<path d="M83.628 3.20001H77.2998V12.8H72.5537V19.2H77.2998V40H83.628V19.2H88.3742V12.8H83.628V3.20001Z" fill="#17313B"/>
<path d="M108.303 31.8672C106.925 33.12 105.106 33.8144 103.109 33.8144C98.7081 33.8144 95.476 30.5456 95.476 26.0576C95.476 21.5696 98.6053 18.4384 103.109 18.4384C105.071 18.4384 106.925 19.0992 108.338 20.352L109.298 21.1872L113.565 16.8736L112.497 15.8992C109.986 13.6064 106.653 12.32 103.108 12.32C95.1975 12.32 89.4531 18.0928 89.4531 26.024C89.4531 33.9216 95.3352 39.9008 103.108 39.9008C106.72 39.9008 110.088 38.6144 112.567 36.2848L113.598 35.3104L109.265 31L108.303 31.8672Z" fill="#17313B"/>
<path d="M136.152 15.1712C134.33 13.328 132.194 12.32 129.236 12.32C127.138 12.32 124.762 12.9808 123.18 14.44V0H116.852V40H123.18V25.016C123.18 18.8944 127.48 18.408 128.994 18.408C132.776 18.408 132.672 21.9904 132.672 24.1472V40H139V24.1808C139 20.3888 138.217 17.2592 136.152 15.1712Z" fill="#17313B"/>
<path d="M102.901 21.5008C105.429 21.5008 107.478 23.5696 107.478 26.128C107.478 28.6832 105.429 30.7552 102.901 30.7552C100.374 30.7552 98.3271 28.6832 98.3271 26.128C98.3287 23.5712 100.376 21.5008 102.901 21.5008Z" fill="#FF3D2E"/>
<path d="M27.3077 29.9536C24.9014 32.4576 21.6329 33.8144 18.1935 33.8144C11.1439 33.8144 6.0181 28.2144 6.0181 20.528C6.0181 12.8064 11.1439 7.2064 18.1935 7.2064C21.5996 7.2064 24.8318 8.56159 27.2744 11.032L28.2363 12.0064L32.4667 7.72799L31.5381 6.75359C28.0307 3.1008 23.2845 1.12 18.1935 1.12C7.80739 1.12 0 9.46719 0 20.5616C0 31.6224 7.84219 39.936 18.1935 39.936C23.3193 39.936 28.0655 37.92 31.5729 34.2672L32.5015 33.2928L28.3059 28.9456L27.3077 29.9536Z" fill="#17313B"/>
</g>
<defs>
<clipPath id="clip0_2049_3160">
<rect width="139" height="40" fill="white"/>
</clipPath>
</defs>
</svg>
