<svg width="172" height="28" viewBox="0 0 172 28" fill="none" xmlns="http://www.w3.org/2000/svg">
<path fill-rule="evenodd" clip-rule="evenodd" d="M49.0579 0.687766C49.3573 -0.229253 50.6625 -0.229257 50.9619 0.687763L53.7553 9.24401C53.8892 9.65408 54.2736 9.93177 54.7073 9.93177H63.7496C64.7188 9.93177 65.1221 11.1644 64.3383 11.7311L57.0208 17.0222C56.6705 17.2756 56.5239 17.7242 56.6576 18.1338L59.4522 26.6935C59.7515 27.6103 58.6956 28.3721 57.9114 27.8051L50.5987 22.5174C50.2477 22.2636 49.7721 22.2636 49.4212 22.5174L42.1084 27.8051C41.3243 28.3721 40.2684 27.6103 40.5677 26.6935L43.3622 18.1338C43.496 17.7242 43.3494 17.2756 42.999 17.0222L35.6815 11.7311C34.8977 11.1644 35.301 9.93177 36.2703 9.93177H45.3126C45.7463 9.93177 46.1307 9.65408 46.2645 9.24401L49.0579 0.687766ZM13.7904 0.687827C14.0898 -0.229192 15.395 -0.229196 15.6944 0.687823L18.4878 9.24407C18.6217 9.65414 19.006 9.93183 19.4398 9.93183H28.4821C29.4513 9.93183 29.8546 11.1644 29.0708 11.7312L21.7533 17.0223C21.403 17.2756 21.2564 17.7243 21.3901 18.1339L24.1846 26.6936C24.4839 27.6103 23.428 28.3721 22.6439 27.8051L15.3312 22.5175C14.9802 22.2637 14.5046 22.2637 14.1537 22.5175L6.84091 27.8051C6.05678 28.3721 5.00088 27.6103 5.30018 26.6936L8.09471 18.1339C8.22844 17.7243 8.08185 17.2756 7.7315 17.0223L0.414008 11.7312C-0.369792 11.1644 0.0335214 9.93183 1.00277 9.93183H10.0451C10.4788 9.93183 10.8632 9.65414 10.997 9.24407L13.7904 0.687827ZM87.3845 0.687763C87.0852 -0.229257 85.78 -0.229253 85.4806 0.687766L82.6872 9.24401C82.5533 9.65408 82.1689 9.93177 81.7352 9.93177H72.6929C71.7237 9.93177 71.3204 11.1644 72.1042 11.7311L79.4217 17.0222C79.772 17.2756 79.9186 17.7242 79.7849 18.1338L76.9903 26.6935C76.691 27.6103 77.7469 28.3721 78.5311 27.8051L85.8438 22.5174C86.1948 22.2636 86.6703 22.2636 87.0213 22.5174L94.3341 27.8051C95.1182 28.3721 96.1741 27.6103 95.8748 26.6935L93.0803 18.1338C92.9465 17.7242 93.0931 17.2756 93.4435 17.0222L100.761 11.7311C101.545 11.1644 101.141 9.93177 100.172 9.93177H91.1299C90.6962 9.93177 90.3118 9.65408 90.1779 9.24401L87.3845 0.687763ZM120.893 0.687766C121.192 -0.229253 122.498 -0.229257 122.797 0.687763L125.59 9.24401C125.724 9.65408 126.109 9.93177 126.542 9.93177H135.585C136.554 9.93177 136.957 11.1644 136.173 11.7311L128.856 17.0222C128.506 17.2756 128.359 17.7242 128.493 18.1338L131.287 26.6935C131.587 27.6103 130.531 28.3721 129.747 27.8051L122.434 22.5174C122.083 22.2636 121.607 22.2636 121.256 22.5174L113.944 27.8051C113.159 28.3721 112.104 27.6103 112.403 26.6935L115.197 18.1338C115.331 17.7242 115.185 17.2756 114.834 17.0222L107.517 11.7311C106.733 11.1644 107.136 9.93177 108.105 9.93177H117.148C117.581 9.93177 117.966 9.65408 118.1 9.24401L120.893 0.687766ZM158.21 0.687763C157.91 -0.229257 156.605 -0.229253 156.306 0.687766L153.512 9.24401C153.378 9.65408 152.994 9.93177 152.56 9.93177H143.518C142.549 9.93177 142.145 11.1644 142.929 11.7311L150.247 17.0222C150.597 17.2756 150.744 17.7242 150.61 18.1338L147.815 26.6935C147.516 27.6103 148.572 28.3721 149.356 27.8051L156.669 22.5174C157.02 22.2636 157.495 22.2636 157.846 22.5174L165.159 27.8051C165.943 28.3721 166.999 27.6103 166.7 26.6935L163.905 18.1338C163.772 17.7242 163.918 17.2756 164.269 17.0222L171.586 11.7311C172.37 11.1644 171.966 9.93177 170.997 9.93177H161.955C161.521 9.93177 161.137 9.65408 161.003 9.24401L158.21 0.687763Z" fill="#FF3D2E"/>
</svg>
