<svg width="153" height="56" viewBox="0 0 153 56" fill="none" xmlns="http://www.w3.org/2000/svg">
<rect x="0.5" width="152" height="56" rx="28" fill="white" fill-opacity="0.2"/>
<path d="M36.6051 36.349C34.5506 38.1659 31.838 39.173 28.8612 39.173C22.299 39.173 17.4799 34.4323 17.4799 27.9234C17.4799 21.4145 22.1457 16.8734 28.8612 16.8734C31.7861 16.8734 34.5506 17.8318 36.657 19.6487L38.0888 20.86L44.4505 14.604L42.8583 13.1909C39.1149 9.86565 34.1449 8 28.8588 8C17.0648 8 8.5 16.3722 8.5 27.8747C8.5 39.3285 17.27 48 28.8588 48C34.2439 48 39.2658 46.1344 42.9621 42.7558L44.5 41.3426L38.0393 35.0913L36.6051 36.349Z" fill="#17313B"/>
<path d="M28.4262 21.75C32.3335 21.75 35.5 24.8238 35.5 28.625C35.5 32.4215 32.3335 35.5 28.4262 35.5C24.5212 35.5 21.3572 32.4215 21.3572 28.625C21.3596 24.8262 24.5237 21.75 28.4262 21.75Z" fill="#FF3D2E"/>
<path d="M59.4761 24H57.9641V21.788H53.3581V20.388L57.9641 14.326H59.4761V20.486H60.8341V21.788H59.4761V24ZM57.9641 16.272L54.7581 20.486H57.9641V16.272ZM63.1924 24H61.6664V22.474H63.1924V24ZM67.6547 24.196C65.8487 24.196 64.6587 22.992 64.4767 21.55H66.0447C66.1567 22.348 66.6327 22.936 67.6687 22.936C69.4607 22.936 69.9367 21.256 69.9367 19.59V19.45L69.8947 19.436C69.3907 20.248 68.4947 20.71 67.4027 20.71C65.5267 20.71 64.2247 19.394 64.2247 17.49C64.2247 15.614 65.5267 14.13 67.6827 14.13C70.4547 14.13 71.4487 16.188 71.4487 19.142C71.4487 22.32 70.0627 24.196 67.6547 24.196ZM67.6267 19.436C68.9427 19.436 69.7687 18.596 69.7687 17.378C69.7687 16.202 69.0407 15.39 67.7107 15.39C66.4507 15.39 65.7647 16.188 65.7647 17.406C65.7647 18.68 66.5067 19.436 67.6267 19.436ZM76.7629 22.74H75.4609V20.08H72.8849V18.778H75.4609V16.118H76.7629V18.778H79.3389V20.08H76.7629V22.74Z" fill="white"/>
<path fill-rule="evenodd" clip-rule="evenodd" d="M93.048 12.8193C93.1901 12.3936 93.8099 12.3936 93.952 12.8193L95.2784 16.7919C95.342 16.9823 95.5245 17.1112 95.7304 17.1112H100.024C100.484 17.1112 100.676 17.6835 100.303 17.9466L96.8289 20.4032C96.6626 20.5208 96.593 20.7291 96.6565 20.9193L97.9834 24.8934C98.1255 25.3191 97.6241 25.6728 97.2518 25.4095L93.7796 22.9545C93.6129 22.8367 93.3871 22.8367 93.2204 22.9545L89.7482 25.4095C89.3759 25.6728 88.8745 25.3191 89.0166 24.8934L90.3435 20.9193C90.407 20.7291 90.3374 20.5208 90.1711 20.4032L86.6966 17.9466C86.3244 17.6835 86.5159 17.1112 86.9761 17.1112H91.2696C91.4755 17.1112 91.658 16.9823 91.7216 16.7919L93.048 12.8193Z" fill="#FF3D2E"/>
<path opacity="0.7" d="M56.0532 35.736C56.2692 35.736 56.4372 35.748 56.6172 35.772V36.9C56.4732 36.876 56.3652 36.864 56.2212 36.864C55.1532 36.864 54.3852 37.668 54.3852 38.832V42H53.2092V35.88H54.3852V37.044H54.4092C54.7332 36.276 55.2252 35.736 56.0532 35.736ZM58.9822 42.168C57.7582 42.168 56.9782 41.46 56.9782 40.416C56.9782 39.048 58.0102 38.64 59.5342 38.352C60.4942 38.172 61.0822 38.052 61.0822 37.452C61.0822 37.008 60.8182 36.636 59.9182 36.636C58.8502 36.636 58.5262 36.972 58.4662 37.788H57.2662C57.3262 36.612 58.0942 35.688 59.9662 35.688C61.2262 35.688 62.2342 36.216 62.2342 37.8V40.608C62.2342 41.052 62.2942 41.28 62.5222 41.28C62.5582 41.28 62.5942 41.28 62.6662 41.268V41.988C62.4622 42.036 62.2582 42.06 62.0662 42.06C61.4782 42.06 61.1662 41.832 61.0942 41.136H61.0702C60.6742 41.772 59.9782 42.168 58.9822 42.168ZM59.2462 41.22C60.3022 41.22 61.0822 40.68 61.0822 39.612V38.736C60.8902 38.916 60.3622 39.048 59.7382 39.18C58.6582 39.396 58.2022 39.696 58.2022 40.332C58.2022 40.908 58.5142 41.22 59.2462 41.22ZM65.924 41.1C66.128 41.1 66.224 41.088 66.428 41.052V42C66.128 42.06 65.936 42.072 65.684 42.072C64.676 42.072 64.064 41.688 64.064 40.272V36.852H63.176V35.88H64.064V33.912H65.24V35.88H66.416V36.852H65.24V40.308C65.24 40.956 65.42 41.1 65.924 41.1ZM68.7745 34.788H67.4425V33.516H68.7745V34.788ZM68.6905 42H67.5145V35.88H68.6905V42ZM73.3466 35.7C74.4746 35.7 75.3866 36.348 75.3866 37.752V42H74.2106V38.076C74.2106 37.26 73.8506 36.708 72.9626 36.708C71.9546 36.708 71.3066 37.32 71.3066 38.244V42H70.1306V35.88H71.3066V36.648H71.3306C71.6546 36.18 72.2906 35.7 73.3466 35.7ZM81.098 36.6V35.88H82.274V41.52C82.274 43.368 81.158 44.196 79.406 44.196C77.654 44.196 76.778 43.356 76.658 42.252H77.882C78.002 42.804 78.41 43.236 79.406 43.236C80.522 43.236 81.098 42.744 81.098 41.592V40.764H81.074C80.738 41.256 80.174 41.688 79.19 41.688C77.666 41.688 76.49 40.656 76.49 38.7C76.49 36.732 77.666 35.7 79.19 35.7C80.174 35.7 80.738 36.168 81.074 36.6H81.098ZM79.406 40.716C80.462 40.716 81.086 40.032 81.086 38.7C81.086 37.356 80.462 36.684 79.406 36.684C78.254 36.684 77.714 37.548 77.714 38.7C77.714 39.852 78.254 40.716 79.406 40.716ZM89.0704 42.18C87.1624 42.18 86.0104 40.86 86.0104 38.94C86.0104 37.032 87.1624 35.688 89.0824 35.688C90.9784 35.688 92.1304 37.02 92.1304 38.928C92.1304 40.848 90.9784 42.18 89.0704 42.18ZM89.0824 41.208C90.3304 41.208 90.9064 40.212 90.9064 38.94C90.9064 37.656 90.3304 36.672 89.0824 36.672C87.8104 36.672 87.2344 37.656 87.2344 38.94C87.2344 40.212 87.8104 41.208 89.0824 41.208ZM96.4672 35.7C97.5952 35.7 98.5072 36.348 98.5072 37.752V42H97.3312V38.076C97.3312 37.26 96.9712 36.708 96.0832 36.708C95.0752 36.708 94.4272 37.32 94.4272 38.244V42H93.2512V35.88H94.4272V36.648H94.4512C94.7752 36.18 95.4112 35.7 96.4672 35.7ZM106.306 42.168C103.87 42.168 102.298 40.296 102.298 37.716C102.298 35.124 103.882 33.252 106.318 33.252C108.466 33.252 109.798 34.62 110.002 36.336H108.622C108.466 35.496 107.938 34.392 106.294 34.392C104.398 34.392 103.678 36 103.678 37.704C103.678 39.42 104.398 41.028 106.294 41.028C107.95 41.028 108.538 39.924 108.622 38.88H110.002C109.81 40.788 108.466 42.168 106.306 42.168ZM112.283 42H111.107V33.42H112.283V42ZM117.755 39.636V35.88H118.931V42H117.755V41.232H117.731C117.407 41.7 116.771 42.168 115.715 42.168C114.587 42.168 113.675 41.52 113.675 40.116V35.88H114.851V39.792C114.851 40.62 115.211 41.172 116.099 41.172C117.107 41.172 117.755 40.56 117.755 39.636ZM122.627 41.1C122.831 41.1 122.927 41.088 123.131 41.052V42C122.831 42.06 122.639 42.072 122.387 42.072C121.379 42.072 120.767 41.688 120.767 40.272V36.852H119.879V35.88H120.767V33.912H121.943V35.88H123.119V36.852H121.943V40.308C121.943 40.956 122.123 41.1 122.627 41.1ZM126.776 42.18C124.952 42.18 123.764 40.86 123.764 38.94C123.764 37.02 124.952 35.7 126.764 35.7C128.336 35.7 129.38 36.72 129.524 38.1H128.312C128.252 37.464 127.892 36.672 126.776 36.672C125.468 36.672 124.988 37.788 124.988 38.94C124.988 40.092 125.468 41.196 126.776 41.196C127.904 41.196 128.252 40.428 128.312 39.732H129.524C129.44 41.136 128.348 42.18 126.776 42.18ZM133.799 35.7C134.927 35.7 135.839 36.348 135.839 37.752V42H134.663V38.076C134.663 37.26 134.303 36.708 133.415 36.708C132.407 36.708 131.759 37.32 131.759 38.244V42H130.583V33.42H131.759V36.648H131.783C132.107 36.18 132.743 35.7 133.799 35.7Z" fill="white"/>
</svg>
