<svg width="260" height="70" viewBox="0 0 260 70" fill="none" xmlns="http://www.w3.org/2000/svg">
<g clip-path="url(#clip0_10949_6847)">
<path fill-rule="evenodd" clip-rule="evenodd" d="M89.3684 9.0165C91.6316 9.0165 93.4737 7.16567 93.4737 4.89179C93.4737 2.61792 91.6316 0.76709 89.3684 0.76709C87.1053 0.76709 85.2632 2.61792 85.2632 4.89179C85.2632 7.16567 87.1053 9.0165 89.3684 9.0165Z" fill="white"/>
<path d="M133.553 22.4216C133.632 24.1931 134.158 25.5944 135.079 26.6256C136 27.6568 137.21 28.1856 138.737 28.1856C139.737 28.1856 140.632 27.9476 141.395 27.4981C142.158 27.0222 142.658 26.3877 142.868 25.568H149.184C148.474 27.9741 147.21 29.7985 145.421 31.094C143.632 32.3896 141.5 33.0242 139 33.0242C131.289 33.0242 127.421 28.7937 127.421 20.3592C127.421 18.5613 127.658 16.922 128.184 15.4942C128.684 14.04 129.421 12.7973 130.368 11.7661C131.316 10.7349 132.5 9.94172 133.868 9.38647C135.263 8.83122 136.842 8.56682 138.632 8.56682C142.21 8.56682 144.895 9.70375 146.737 12.0305C148.579 14.3308 149.5 17.7945 149.5 22.448H133.553V22.4216ZM21.8947 24.0345C21.7368 25.3829 21.3421 26.6256 20.7368 27.7097C20.1315 28.8202 19.3421 29.772 18.3947 30.5388C17.4473 31.332 16.3947 31.9401 15.1842 32.3896C13.9736 32.8391 12.6579 33.0506 11.2631 33.0506C9.68417 33.0506 8.26312 32.7862 6.94733 32.2839C5.65786 31.7815 4.52628 30.9883 3.57891 29.9307C2.63154 28.8731 1.92101 27.5775 1.3947 26.0175C0.868383 24.4575 0.605225 22.6331 0.605225 20.5443C0.605225 18.4555 0.868383 16.6576 1.3947 15.1505C1.92101 13.6434 2.63154 12.4007 3.57891 11.4488C4.52628 10.497 5.65786 9.78308 6.99996 9.30715C8.34207 8.83122 9.81575 8.59326 11.4473 8.59326C12.9473 8.59326 14.3421 8.80478 15.5526 9.20139C16.7894 9.62443 17.8684 10.2061 18.7894 10.9993C19.7105 11.7925 20.4473 12.7444 20.9736 13.8549C21.5 14.9654 21.8158 16.1817 21.921 17.5301H15.7894C15.6315 16.3403 15.1579 15.3884 14.3421 14.7274C13.5526 14.04 12.5526 13.7227 11.3947 13.7227C10.7368 13.7227 10.1315 13.8285 9.55259 14.0664C8.97365 14.2779 8.49996 14.6481 8.07891 15.1769C7.65786 15.7057 7.31575 16.3932 7.05259 17.2657C6.78943 18.1382 6.68417 19.1959 6.68417 20.465C6.68417 23.0297 7.13154 24.907 8.05259 26.1497C8.97365 27.3924 9.99996 28.0005 11.2105 28.0005C12.421 28.0005 13.421 27.6568 14.2631 27.0222C15.1052 26.3612 15.6052 25.3829 15.7368 24.1402H21.8947V24.0345ZM23.4473 32.4689V9.20139H29.2105V12.0041C29.7105 11.2109 30.2368 10.6027 30.7894 10.1532C31.3421 9.70375 31.8947 9.36003 32.4736 9.1485C33.0526 8.91054 33.6579 8.7519 34.2368 8.69902C34.8421 8.6197 35.4473 8.59326 36.0526 8.59326H36.8684V14.8861C36.3158 14.7803 35.7368 14.7539 35.1842 14.7539C31.4473 14.7539 29.5789 16.6311 29.5789 20.3857V32.4954H23.4473V32.4689ZM43.8947 22.4216C43.9736 24.1931 44.5 25.5944 45.421 26.6256C46.3421 27.6568 47.5526 28.1856 49.0789 28.1856C50.0789 28.1856 50.9736 27.9476 51.7368 27.4981C52.5 27.0222 53 26.3877 53.2105 25.568H59.5263C58.7894 27.9741 57.5526 29.7985 55.7631 31.094C53.9736 32.3896 51.8421 33.0242 49.3684 33.0242C41.6315 33.0242 37.7631 28.7937 37.7631 20.3592C37.7631 18.5613 38.0263 16.922 38.5263 15.4942C39.0263 14.04 39.7631 12.7973 40.7105 11.7661C41.6579 10.7349 42.8421 9.94172 44.2105 9.38647C45.5789 8.83122 47.1842 8.56682 48.9736 8.56682C52.5526 8.56682 55.2631 9.70375 57.1052 12.0305C58.9473 14.3308 59.8684 17.7945 59.8684 22.448H43.8947V22.4216ZM53.5526 18.5349C53.5263 17.6888 53.3684 16.9484 53.1052 16.2874C52.8421 15.6264 52.4736 15.0976 52.0526 14.6746C51.6052 14.2515 51.1052 13.9342 50.5526 13.7227C49.9736 13.5112 49.3947 13.4054 48.8157 13.4054C47.6052 13.4054 46.5263 13.8549 45.6315 14.7539C44.7368 15.6528 44.2368 16.8955 44.1052 18.5084H53.5526V18.5349ZM77.7894 32.4689L77.7368 29.6398C76.3158 31.9401 74.1842 33.0771 71.2894 33.0771C69.8158 33.0771 68.4736 32.7862 67.2368 32.231C66 31.6493 64.9473 30.8561 64.0789 29.772C63.2105 28.7144 62.5 27.3924 62 25.8588C61.5 24.3253 61.2368 22.5802 61.2368 20.5972C61.2368 18.8257 61.4473 17.2128 61.8684 15.7586C62.2894 14.3044 62.921 13.0352 63.7368 11.9512C64.5526 10.8671 65.5526 10.0475 66.7368 9.46579C67.921 8.8841 69.2631 8.59326 70.7631 8.59326C73.6052 8.59326 75.921 9.80951 77.6315 12.242V0.661133H83.6842V32.4425H77.7894V32.4689ZM72.7105 28.0534C74.1842 28.0534 75.421 27.4453 76.3947 26.2026C77.3947 24.9863 77.8684 23.3734 77.8684 21.364C77.8684 16.3139 76.1579 13.802 72.7368 13.802C69.2105 13.802 67.4736 16.2081 67.4736 20.9938C67.4736 23.0826 67.9736 24.7748 68.9473 26.0704C69.921 27.4188 71.1579 28.0534 72.7105 28.0534ZM86.2631 32.4689V11.1051C87.1842 11.5546 88.2368 11.819 89.3157 11.819C90.421 11.819 91.4473 11.5546 92.3684 11.1051V32.4689H86.2631ZM94.9736 32.4689V0.661133H101V12.2156C102.737 9.78308 105.026 8.56682 107.868 8.56682C109.368 8.56682 110.71 8.85766 111.895 9.43935C113.079 10.021 114.079 10.8407 114.895 11.9247C115.71 13.0088 116.316 14.2515 116.737 15.7322C117.158 17.2128 117.368 18.8257 117.368 20.5708C117.368 22.5274 117.105 24.2724 116.605 25.8324C116.105 27.3659 115.421 28.688 114.526 29.7456C113.658 30.8296 112.579 31.6493 111.342 32.2045C110.105 32.7862 108.763 33.0506 107.316 33.0506C104.421 33.0506 102.289 31.9137 100.868 29.6134L100.816 32.4425H94.9736V32.4689ZM105.947 28.0534C107.474 28.0534 108.737 27.3924 109.71 26.0968C110.684 24.7748 111.158 23.0826 111.158 21.0203C111.158 16.2345 109.395 13.8285 105.895 13.8285C102.474 13.8285 100.763 16.3403 100.763 21.3904C100.763 23.3734 101.263 24.9863 102.237 26.229C103.237 27.4453 104.474 28.0534 105.947 28.0534ZM119.421 32.4689V0.661133H125.526V32.4425H119.421V32.4689ZM143.184 18.5349C143.158 17.6888 143 16.9484 142.737 16.2874C142.474 15.6264 142.105 15.0976 141.684 14.6746C141.237 14.2515 140.737 13.9342 140.184 13.7227C139.632 13.5112 139.053 13.4054 138.447 13.4054C137.237 13.4054 136.158 13.8549 135.263 14.7539C134.368 15.6528 133.868 16.8955 133.737 18.5084H143.184V18.5349Z" fill="white"/>
</g>
<defs>
<clipPath id="clip0_10949_6847">
<rect width="150" height="33.5" fill="white"/>
</clipPath>
</defs>
</svg>
