<?xml version="1.0" encoding="UTF-8"?>
<svg xmlns="http://www.w3.org/2000/svg" width="281" height="80" viewBox="0 0 281 80" fill="none">
  <g clip-path="url(#clip0_8873_16550)">
    <path d="M55.095 46.919C53.7977 49.6757 50.5544 50.8649 47.7977 49.5676C45.0409 48.2703 43.8517 44.973 45.149 42.2163C46.4463 39.4595 49.6896 38.2703 52.4463 39.5676C53.6355 40.1622 54.6085 41.1352 55.149 42.3244H59.4193C58.176 37.1892 52.9869 34 47.8517 35.2973C42.7166 36.5946 39.5274 41.7298 40.8247 46.8649C42.122 52 47.2571 55.1892 52.3923 53.8919C55.8517 53.0271 58.6085 50.3244 59.4193 46.8649H55.095V46.919Z" fill="#D9D9DD"></path>
    <path d="M74.5539 35.8381C73.3647 35.2976 72.0674 34.9733 70.7161 35.0273C69.3647 35.0273 68.0134 35.4598 66.8782 36.2165V35.676H62.9863V53.4598H66.9323V44.9192C66.8782 43.7841 66.9323 42.5949 67.2025 41.4598V41.3517C67.4188 40.5949 67.9593 39.9463 68.662 39.5679C69.9593 38.7571 71.635 38.7571 72.9323 39.5679L74.5539 35.8381Z" fill="#D9D9DD"></path>
    <path d="M89.4728 35.6758V44.2163C89.5268 45.3515 89.4728 46.5406 89.2025 47.6758V47.7839C88.9863 48.5406 88.4457 49.1893 87.743 49.5677C86.4457 50.3244 84.8241 50.3244 83.4728 49.5136C82.7701 49.1352 82.2295 48.4866 82.0133 47.7298V47.6217C81.7971 46.4866 81.689 45.2974 81.743 44.1623V35.6758H77.7971V45.3515C77.689 46.919 77.9593 48.5406 78.4457 50.0001C79.0403 51.4596 80.1755 52.5947 81.6349 53.1893C82.8241 53.7298 84.1214 54.0542 85.4728 54.0001C86.8241 54.0001 88.1755 53.5677 89.3106 52.8109V53.4055H93.2025V35.6758H89.4728Z" fill="#D9D9DD"></path>
    <path d="M102.122 53.4594V44.9189C102.068 43.7297 102.176 42.5946 102.393 41.4594V41.3513C102.609 40.5946 103.149 39.9459 103.852 39.5675C105.149 38.7567 106.825 38.7567 108.122 39.5675C108.825 39.9459 109.366 40.5946 109.582 41.3513V41.4594C109.798 42.5946 109.852 43.7837 109.798 44.9189V53.4594H113.69V43.7297C113.798 42.1621 113.582 40.5405 113.041 39.081C112.447 37.6216 111.312 36.4865 109.852 35.8919C108.663 35.3513 107.366 35.027 106.014 35.081C104.663 35.081 103.312 35.5135 102.176 36.2702V35.7297H98.2305V53.4594H102.122Z" fill="#D9D9DD"></path>
    <path d="M131.798 46.9186C130.501 49.6754 127.258 50.8646 124.501 49.5673C121.744 48.27 120.555 45.0267 121.852 42.27C123.149 39.5132 126.393 38.324 129.149 39.6213C130.339 40.2159 131.312 41.1889 131.852 42.3781H136.122C134.879 37.2429 129.69 34.0538 124.555 35.3511C119.42 36.6484 116.231 41.7835 117.528 46.9186C118.825 52.0538 123.96 55.2429 129.095 53.9456C132.555 53.0808 135.312 50.3781 136.122 46.9186H131.798Z" fill="#D9D9DD"></path>
    <path d="M143.635 53.4595V44.9189C143.581 43.7838 143.635 42.5946 143.905 41.4595V41.3513C144.121 40.5946 144.662 39.9459 145.364 39.5676C146.662 38.7568 148.337 38.7568 149.635 39.5676C150.337 39.9459 150.878 40.5946 151.094 41.3513V41.4595C151.31 42.5946 151.418 43.7838 151.364 44.9189V53.4595H155.256V43.7297C155.364 42.1622 155.094 40.5405 154.608 39.0811C154.013 37.6216 152.878 36.4865 151.418 35.8919C150.229 35.3513 148.932 35.027 147.581 35.0811C146.229 35.0811 144.878 35.5135 143.743 36.2703V26H139.797V53.4595H143.635Z" fill="#D9D9DD"></path>
    <path d="M169.311 35.027H168.608C166.933 35.1351 165.311 35.7297 163.906 36.7027V26H160.014V53.4595H163.906V52.4324C168.23 55.4595 174.23 54.4324 177.257 50.1081C180.284 45.7838 179.257 39.7838 174.933 36.7568C173.311 35.6216 171.311 34.973 169.311 35.027ZM174.77 45.2973V45.4595L174.608 46.1081C174.554 46.3243 174.446 46.5946 174.338 46.8108V46.9189C173.581 48.4865 172.176 49.5676 170.5 49.9459L169.96 50.0541H169.257C168.987 50.0541 168.77 50.0541 168.5 50H168.338C167.852 49.9459 167.365 49.7838 166.933 49.5676H166.824C166.392 49.3513 165.96 49.0811 165.581 48.7568C165.203 48.4324 164.879 48 164.608 47.6216C164.5 47.4054 164.338 47.1892 164.23 46.9189C163.581 45.4595 163.635 43.8378 164.284 42.3784C165.095 40.6486 166.77 39.4595 168.716 39.2432H169.257C172.23 39.2973 174.608 41.6216 174.662 44.5946C174.824 44.8108 174.824 45.027 174.77 45.2973Z" fill="#D9D9DD"></path>
    <path d="M182.014 44.5405C182.068 49.8378 186.392 54.1081 191.689 54.054C193.581 54.054 195.365 53.4594 196.933 52.4324V53.4594H200.824V35.6756H196.933V36.7567C195.527 35.7838 193.906 35.2432 192.23 35.0811H191.527C186.338 35.0811 182.068 39.2973 182.014 44.5405ZM186.068 44.5405C186.068 41.5135 188.554 39.027 191.581 39.027H192.122C194.014 39.2432 195.689 40.4324 196.554 42.1621C197.203 43.5675 197.257 45.2432 196.608 46.7027C196.5 46.9189 196.392 47.1892 196.23 47.4054C195.96 47.8378 195.635 48.2162 195.257 48.5405C194.879 48.8648 194.446 49.1351 194.014 49.3513H193.906C193.473 49.5675 192.987 49.6756 192.5 49.7838H192.392C192.122 49.8378 191.906 49.8378 191.635 49.8378H190.987L190.446 49.7297C188.824 49.3513 187.419 48.2702 186.662 46.7567V46.6486C186.554 46.4324 186.446 46.2162 186.392 45.9459L186.23 45.2973V45.1351C186.176 44.9729 186.122 44.7567 186.068 44.5405Z" fill="#D9D9DD"></path>
    <path d="M218.824 40.9734V40.8653C218.824 37.9464 216.607 35.0274 211.635 34.9734C206.662 34.9193 204.499 37.8923 204.445 40.7572V40.9734C204.553 42.6491 205.526 44.7572 209.202 45.622L212.499 46.3788C213.364 46.595 214.824 47.0274 214.932 48.1626C214.932 49.6761 212.986 50.4328 211.635 50.4328C210.013 50.4328 208.337 49.568 208.337 48.1085V48.0004H204.445V48.0545C204.445 50.9734 206.662 53.8923 211.635 53.9464C216.607 54.0004 218.824 50.9734 218.824 48.0545V48.0004C218.716 46.3247 217.797 44.1626 214.067 43.2977L210.77 42.5409C210.067 42.3788 208.337 41.8923 208.337 40.8112C208.337 39.1355 210.067 38.5409 211.635 38.5409C213.256 38.5409 214.932 39.4058 214.932 40.8653V40.9734H218.824Z" fill="#D9D9DD"></path>
    <path d="M240.553 44.1618C240.553 38.3781 236.607 34.9727 231.418 34.9727C226.391 34.8105 222.175 38.7024 222.012 43.7294V44.4321C221.796 49.5132 225.742 53.7835 230.823 53.9997H231.418C233.31 53.9997 235.202 53.5672 236.877 52.5943C238.607 51.6213 239.904 49.9456 240.391 47.9997H236.553C235.634 49.6754 233.958 50.4862 231.58 50.4862C228.391 50.4862 226.012 47.9997 226.012 45.6213H240.499C240.553 45.0267 240.553 44.6483 240.553 44.1618ZM225.958 42.3781C226.499 39.9456 228.715 38.27 231.202 38.4321C233.958 38.4321 236.175 40.0537 236.553 42.3781H225.958Z" fill="#D9D9DD"></path>
  </g>
  <defs>
    <clipPath id="clip0_8873_16550">
      <rect width="200" height="28.5405" fill="white" transform="translate(40.5 26)"></rect>
    </clipPath>
  </defs>
</svg>
