<svg width="172" height="40" viewBox="0 0 172 40" fill="none" xmlns="http://www.w3.org/2000/svg">
<g clip-path="url(#clip0_2049_3553)">
<mask id="mask0_2049_3553" style="mask-type:luminance" maskUnits="userSpaceOnUse" x="0" y="0" width="172" height="40">
<path d="M172 0H0V40H172V0Z" fill="white"/>
</mask>
<g mask="url(#mask0_2049_3553)">
<path d="M34.6314 33.6353C33.7238 34.6123 32.7194 35.4947 31.6338 36.2691C28.2438 38.7005 24.1763 40.0075 20.0045 40.0057C16.4429 40.0055 12.9459 39.0543 9.87483 37.2504C6.80382 35.4465 4.27014 32.8555 2.53554 29.7448C0.800941 26.6341 -0.0716473 23.1168 0.00792351 19.556C0.0874943 15.9953 1.11634 12.5204 2.98817 9.49036C3.07985 9.34035 3.17153 9.21255 3.26598 9.05141L3.54379 8.6208C3.88829 8.12073 4.25871 7.63919 4.65506 7.17616L4.89121 6.89833C4.9271 6.85136 4.96609 6.80681 5.00789 6.76499C5.09401 6.6622 5.18291 6.56496 5.2857 6.46772L5.3885 6.35937L8.27779 10.4238L8.31113 10.4738C8.24445 10.5544 8.17777 10.6405 8.11665 10.7239C8.04865 10.8033 7.98555 10.8868 7.92774 10.9739C5.76923 13.8539 4.71258 17.4112 4.94889 21.0024C5.18518 24.5937 6.69883 27.982 9.21609 30.5543C11.7333 33.1265 15.0879 34.7131 18.6734 35.0271C22.2587 35.3409 25.8381 34.3615 28.7639 32.2657L27.0971 29.9293L24.2439 25.926C25.3867 25.1057 26.2699 23.9747 26.7887 22.6672C27.2237 21.5616 27.3819 20.3665 27.2497 19.1857C27.1174 18.0051 26.6987 16.8745 26.0301 15.8925C25.3613 14.9105 24.4629 14.1068 23.4126 13.5512C22.3625 12.9957 21.1925 12.7051 20.0045 12.7047H19.6877C18.2819 12.7647 16.9243 13.234 15.7817 14.0549L12.9118 10.0599C14.0098 9.27561 15.2302 8.67856 16.5234 8.29297H16.5373C17.6621 7.95504 18.8299 7.78192 20.0045 7.77901C20.3683 7.77901 20.7267 7.79568 21.0823 7.82624C23.2255 8.01332 25.2813 8.76387 27.0409 10.0018C28.8003 11.2397 30.2013 12.9209 31.1014 14.8749C32.0015 16.8289 32.369 18.9863 32.1663 21.1281C31.9637 23.27 31.1982 25.3201 29.9475 27.0705L31.6922 29.5125L34.6314 33.6353Z" fill="white"/>
<path fill-rule="evenodd" clip-rule="evenodd" d="M24.2315 25.9101C23.4561 26.4873 22.5733 26.9041 21.6349 27.136C20.6963 27.368 19.721 27.4104 18.7659 27.2608C17.8109 27.1113 16.8953 26.7728 16.0726 26.2652C15.2499 25.7575 14.5367 25.0909 13.9747 24.3043C13.4127 23.5177 13.0133 22.6269 12.7998 21.6841C12.5862 20.7413 12.5628 19.7653 12.7309 18.8133C12.8991 17.8613 13.2554 16.9525 13.779 16.1399C14.3026 15.3273 14.983 14.6272 15.7805 14.0807L24.2315 25.9101Z" fill="white"/>
<path d="M58.4344 21.8971L61.1208 23.8752C59.3733 26.2088 57.3174 27.2256 55.0449 27.2256C54.0798 27.2445 53.1208 27.0708 52.2236 26.7145C51.3265 26.3583 50.5094 25.8267 49.8202 25.1508C49.131 24.4749 48.5836 23.6684 48.2098 22.7785C47.8361 21.8885 47.6436 20.9329 47.6436 19.9677C47.6436 19.0024 47.8361 18.0468 48.2098 17.1569C48.5836 16.2669 49.131 15.4604 49.8202 14.7845C50.5094 14.1088 51.3265 13.5772 52.2236 13.2209C53.1208 12.8646 54.0798 12.6908 55.0449 12.7097C57.3564 12.7097 59.4512 13.7876 61.1958 16.1185L58.4732 18.116C57.3758 16.6464 56.2506 16.0601 55.0449 16.0601C54.0112 16.0601 53.0198 16.4708 52.2888 17.2019C51.5578 17.9328 51.1472 18.9243 51.1472 19.958C51.1472 20.9917 51.5578 21.9831 52.2888 22.7141C53.0198 23.4451 54.0112 23.8557 55.0449 23.8557C56.259 23.8557 57.3369 23.3361 58.4344 21.8971Z" fill="white"/>
<path d="M65.9747 18.5679C66.8691 18.1221 67.8564 17.8945 68.8556 17.9039L68.0916 20.9988C66.936 20.9988 65.9747 21.5849 65.9747 22.3101V27.0329H62.8799V18.0595H65.9747V18.5679Z" fill="white"/>
<path d="M71.3826 31.1673L73.4023 26.1916L70.0908 18.0599H73.2051L74.9498 22.2911L76.6528 18.0599H79.7699L74.4552 31.1673H71.3826Z" fill="white"/>
<path d="M90.545 22.5457C90.5447 23.7868 90.0533 24.9773 89.1781 25.8573C88.7443 26.2853 88.2301 26.6233 87.6652 26.8517C87.1001 27.0801 86.4954 27.1944 85.8859 27.188C85.3183 27.1716 84.7702 26.9773 84.3191 26.6324V31.1775H81.2188V18.0589H84.3135V18.4701C84.7614 18.1192 85.3115 17.9241 85.8805 17.9145C86.4901 17.9059 87.0953 18.018 87.6613 18.2445C88.2273 18.4711 88.7427 18.8073 89.1781 19.2341C90.0533 20.1141 90.5447 21.3047 90.545 22.5457ZM87.4501 22.5457C87.4469 22.236 87.352 21.9341 87.1776 21.6783C87.003 21.4223 86.7568 21.2237 86.4697 21.1075C86.1826 20.9912 85.8676 20.9625 85.5641 21.0249C85.2608 21.0873 84.9826 21.2381 84.7648 21.4584C84.5469 21.6785 84.399 21.9583 84.3398 22.2623C84.2806 22.5663 84.3126 22.8811 84.432 23.1668C84.5513 23.4527 84.7524 23.6969 85.0102 23.8687C85.268 24.0404 85.5707 24.132 85.8805 24.132C86.0877 24.1309 86.2926 24.0891 86.4837 24.0088C86.6748 23.9284 86.8481 23.8113 86.9938 23.664C87.1395 23.5167 87.2549 23.3421 87.3332 23.1503C87.4116 22.9584 87.4513 22.7529 87.4501 22.5457Z" fill="white"/>
<path d="M92.5829 23.7589V20.9392H91.5049V18.0583H92.5829V15.2579H95.6777V18.0583H97.9141V20.9392H95.6777V23.7173C95.6698 23.7828 95.6882 23.8488 95.7287 23.9009C95.7694 23.9529 95.8289 23.9868 95.8943 23.9952H97.7751L98.5781 27.0317H95.8471C95.4174 27.0332 94.9916 26.9495 94.5942 26.7853C94.197 26.6213 93.8362 26.3803 93.5326 26.0759C93.2291 25.7716 92.9889 25.4101 92.8259 25.0125C92.6629 24.6148 92.5802 24.1888 92.5829 23.7589Z" fill="white"/>
<path d="M108.865 22.5448C108.864 23.7867 108.37 24.9772 107.493 25.8563C106.624 26.7225 105.447 27.2083 104.22 27.2065C103.6 27.2216 102.983 27.1125 102.405 26.8856C101.827 26.6587 101.301 26.3184 100.857 25.8849C100.412 25.4515 100.059 24.9335 99.8183 24.3615C99.5774 23.7895 99.4531 23.1751 99.4531 22.5544C99.4531 21.9339 99.5774 21.3195 99.8183 20.7475C100.059 20.1755 100.412 19.6575 100.857 19.224C101.301 18.7905 101.827 18.4503 102.405 18.2233C102.983 17.9964 103.6 17.8873 104.22 17.9024C104.827 17.898 105.428 18.0132 105.989 18.2416C106.551 18.4699 107.062 18.8069 107.493 19.2332C108.37 20.1123 108.864 21.3029 108.865 22.5448ZM105.768 22.5448C105.751 22.1432 105.579 21.7636 105.289 21.4855C104.999 21.2073 104.613 21.052 104.211 21.052C103.809 21.052 103.422 21.2073 103.132 21.4855C102.842 21.7636 102.67 22.1432 102.653 22.5448C102.645 22.7548 102.678 22.9644 102.752 23.1611C102.827 23.3577 102.94 23.5373 103.086 23.6891C103.231 23.8408 103.406 23.9616 103.599 24.044C103.792 24.1265 104 24.1691 104.211 24.1691C104.421 24.1691 104.629 24.1265 104.822 24.044C105.016 23.9616 105.19 23.8408 105.336 23.6891C105.481 23.5373 105.594 23.3577 105.669 23.1611C105.743 22.9644 105.777 22.7548 105.768 22.5448Z" fill="white"/>
<path d="M119.776 22.5455C119.776 23.7876 119.282 24.9787 118.404 25.8571C117.971 26.2848 117.457 26.6227 116.892 26.8511C116.328 27.0795 115.724 27.1939 115.115 27.1877C114.546 27.172 113.997 26.9776 113.545 26.6321V31.1772H110.45V18.0588H113.545V18.4699C113.994 18.1189 114.545 17.9239 115.115 17.9143C115.724 17.9083 116.328 18.0227 116.892 18.2511C117.457 18.4795 117.971 18.8172 118.404 19.2451C119.28 20.1207 119.773 21.3072 119.776 22.5455ZM116.682 22.5455C116.678 22.2356 116.583 21.9337 116.409 21.6777C116.234 21.4217 115.988 21.2232 115.7 21.1069C115.413 20.9908 115.098 20.9623 114.795 21.0249C114.491 21.0876 114.213 21.2387 113.995 21.4591C113.778 21.6796 113.63 21.9595 113.571 22.2637C113.512 22.5679 113.544 22.8828 113.664 23.1685C113.784 23.4544 113.986 23.6983 114.244 23.8697C114.502 24.0412 114.805 24.1324 115.115 24.1319C115.322 24.1307 115.527 24.0888 115.718 24.0084C115.908 23.9281 116.082 23.8109 116.227 23.6636C116.373 23.5163 116.488 23.3416 116.566 23.1497C116.644 22.9579 116.683 22.7525 116.682 22.5455Z" fill="white"/>
<path d="M130.358 22.5448C130.357 23.7863 129.865 24.9769 128.988 25.8563C128.119 26.7217 126.942 27.2073 125.715 27.2065C125.095 27.2216 124.478 27.1125 123.9 26.8856C123.322 26.6587 122.796 26.3184 122.352 25.8849C121.907 25.4515 121.555 24.9335 121.313 24.3615C121.073 23.7895 120.948 23.1751 120.948 22.5544C120.948 21.9339 121.073 21.3195 121.313 20.7475C121.555 20.1755 121.907 19.6575 122.352 19.224C122.796 18.7905 123.322 18.4503 123.9 18.2233C124.478 17.9964 125.095 17.8873 125.715 17.9024C126.322 17.8984 126.923 18.0139 127.484 18.2423C128.046 18.4705 128.557 18.8073 128.988 19.2332C129.865 20.1125 130.357 21.3032 130.358 22.5448ZM127.263 22.5448C127.246 22.1432 127.074 21.7636 126.784 21.4855C126.494 21.2073 126.108 21.052 125.706 21.052C125.304 21.052 124.917 21.2073 124.627 21.4855C124.337 21.7636 124.165 22.1432 124.149 22.5448C124.14 22.7548 124.173 22.9644 124.248 23.1611C124.322 23.3577 124.435 23.5373 124.581 23.6891C124.726 23.8408 124.901 23.9616 125.094 24.044C125.287 24.1265 125.495 24.1691 125.706 24.1691C125.916 24.1691 126.124 24.1265 126.317 24.044C126.511 23.9616 126.685 23.8408 126.831 23.6891C126.976 23.5373 127.09 23.3577 127.164 23.1611C127.238 22.9644 127.272 22.7548 127.263 22.5448Z" fill="white"/>
<path d="M132.122 27.0321V12.6719H135.24V27.0321H132.122Z" fill="white"/>
<path d="M137.979 15.0819C137.979 14.8503 138.024 14.6207 138.112 14.4065C138.2 14.1923 138.329 13.9977 138.493 13.8337C138.657 13.6699 138.852 13.5399 139.065 13.4513C139.28 13.3628 139.509 13.3173 139.74 13.3177C140.208 13.3177 140.657 13.5036 140.988 13.8344C141.319 14.1652 141.505 14.614 141.505 15.0819C141.505 15.5497 141.319 15.9984 140.988 16.3293C140.657 16.6601 140.208 16.846 139.74 16.846C139.509 16.8467 139.279 16.8016 139.065 16.7132C138.851 16.6247 138.656 16.4948 138.492 16.3308C138.329 16.1668 138.199 15.972 138.111 15.7576C138.023 15.5432 137.979 15.3136 137.979 15.0819ZM138.196 18.06H141.291V27.0335H138.196V18.06Z" fill="white"/>
<path d="M144.541 23.7589V20.9392H143.467V18.0583H144.541V15.2579H147.639V18.0583H149.861V20.9392H147.639V23.7173C147.631 23.7824 147.649 23.848 147.689 23.9C147.729 23.952 147.788 23.9861 147.853 23.9952H149.743L150.545 27.0317H147.823C147.391 27.0353 146.964 26.9533 146.564 26.7903C146.165 26.6272 145.803 26.3864 145.497 26.0819C145.192 25.7773 144.951 25.4152 144.785 25.0164C144.621 24.6176 144.539 24.1901 144.541 23.7589Z" fill="white"/>
<path d="M157.711 18.4712V18.06H160.825V27.0335H157.711V26.6223C157.279 26.9907 156.728 27.1883 156.16 27.1779C155.551 27.1779 154.947 27.0579 154.384 26.8245C153.821 26.5912 153.309 26.2493 152.877 25.8183C152.447 25.3871 152.105 24.8753 151.872 24.3121C151.639 23.7489 151.519 23.1452 151.519 22.5356C151.519 21.926 151.639 21.3223 151.872 20.7591C152.105 20.1959 152.447 19.6841 152.877 19.2529C153.309 18.8219 153.821 18.48 154.384 18.2467C154.947 18.0133 155.551 17.8933 156.16 17.8933C156.731 17.8891 157.283 18.0948 157.711 18.4712ZM157.711 22.5467C157.705 22.2393 157.609 21.9405 157.435 21.6877C157.259 21.4349 157.013 21.2395 156.728 21.126C156.441 21.0125 156.129 20.9861 155.828 21.05C155.528 21.114 155.252 21.2653 155.037 21.4852C154.823 21.7051 154.677 21.9836 154.621 22.2856C154.564 22.5877 154.597 22.8999 154.717 23.1829C154.837 23.466 155.039 23.7072 155.296 23.8763C155.552 24.0453 155.853 24.1347 156.16 24.1331C156.576 24.1272 156.972 23.9571 157.263 23.6597C157.553 23.3625 157.715 22.9623 157.711 22.5467Z" fill="white"/>
<path d="M170.384 19.1949C171.194 20.0135 171.646 21.1195 171.64 22.2704V27.0321H168.546V22.2704C168.546 21.9351 168.412 21.6136 168.175 21.3765C167.938 21.1395 167.616 21.0063 167.282 21.0063C166.946 21.0063 166.624 21.1395 166.387 21.3765C166.151 21.6136 166.018 21.9351 166.018 22.2704V27.0321H162.919V18.0587H166.018V18.4699C166.172 18.0976 166.851 17.9143 167.29 17.9143C167.863 17.9095 168.431 18.018 168.962 18.2335C169.494 18.4489 169.976 18.7672 170.384 19.17V19.1949Z" fill="white"/>
<path fill-rule="evenodd" clip-rule="evenodd" d="M39.9989 20.0009C39.9989 23.6399 39.0266 27.1953 37.1377 30.3065L33.9154 25.7787C35.0821 23.0009 35.3877 19.9176 34.7766 16.9453C34.7487 16.862 34.7487 16.7509 34.721 16.6676V16.6399C34.6933 16.5287 34.6654 16.4453 34.6377 16.3343C34.6099 16.2232 34.6099 16.1676 34.5821 16.0843C34.5266 15.8899 34.471 15.7232 34.4154 15.5287C34.4154 15.4732 34.3877 15.4176 34.3599 15.362C34.3599 15.3343 34.3321 15.3065 34.3321 15.2787C34.2766 15.112 34.221 14.9453 34.1654 14.7787C34.1377 14.6676 34.0821 14.5565 34.0266 14.4453C33.971 14.3343 33.9433 14.2232 33.8877 14.112C33.8321 14.0009 33.8043 13.8899 33.7487 13.7787C33.6377 13.5565 33.5543 13.3343 33.4433 13.1121C33.3877 13.0287 33.3599 12.9176 33.3043 12.8343L33.2766 12.8065C33.2766 12.8065 33.2766 12.8065 33.2766 12.7787C33.221 12.6676 33.1654 12.5843 33.1099 12.4732C33.0543 12.3621 32.9987 12.2509 32.9154 12.1676C32.7766 11.9454 32.6377 11.7232 32.4987 11.5009C31.6933 10.3065 30.721 9.25095 29.6377 8.36205L29.3877 8.13984L29.0543 7.88984C28.971 7.80651 28.8599 7.75095 28.7489 7.66761C28.6377 7.58428 28.5543 7.52872 28.471 7.47317C28.3599 7.38984 28.2489 7.33428 28.1377 7.25095C28.0266 7.16761 27.971 7.13984 27.9155 7.11205C27.8599 7.08428 27.7766 7.02872 27.6933 6.97317C23.7766 4.66761 19.0543 4.25095 14.8043 5.80651C13.6933 6.22317 11.3599 7.61205 11.2766 7.66761L8.3877 3.72317L8.77658 3.47317C9.7488 2.80651 10.7766 2.22317 11.8321 1.75095C17.3877 -0.749053 23.7489 -0.55461 29.1655 2.22317C29.3599 2.30651 29.5543 2.41761 29.721 2.52872C29.8043 2.58428 29.9154 2.63984 29.9987 2.69539L30.2487 2.86205C30.3321 2.91761 30.4155 2.97317 30.4989 3.02872C30.6933 3.13984 30.8599 3.25095 31.0543 3.36205L31.2766 3.50095C31.3877 3.55651 31.471 3.63984 31.5821 3.72317C31.6933 3.80651 31.8043 3.86205 31.8877 3.94539L32.0543 4.08428L32.3321 4.30651C32.5821 4.50095 32.8321 4.72317 33.0821 4.91761C33.3321 5.11205 33.5543 5.33428 33.8043 5.55651L34.1377 5.88984C34.2487 6.00095 34.3599 6.11205 34.471 6.22317C34.6933 6.44539 34.8877 6.66761 35.0822 6.88984L35.3321 7.19539C35.4154 7.30651 35.4989 7.38984 35.5822 7.50095C35.6655 7.61205 35.721 7.66761 35.7766 7.75095C35.8322 7.83428 35.9155 7.91761 35.971 8.00095L36.1654 8.25095C36.2487 8.36205 36.3322 8.47317 36.3877 8.58428C36.4433 8.69539 36.5543 8.80651 36.6099 8.91761C36.6377 8.97317 36.6933 9.02872 36.721 9.08428C36.7487 9.13984 36.8043 9.19539 36.8322 9.25095L36.9987 9.52872C37.0821 9.66761 37.1655 9.80651 37.2489 9.94539L37.4154 10.2509L37.5822 10.5565C37.5822 10.5565 37.5821 10.5843 37.6099 10.5843L37.6377 10.6121C37.6377 10.6121 37.6377 10.6398 37.6655 10.6398C37.6655 10.6398 37.6654 10.6676 37.6933 10.6676L37.8599 10.9732L37.8877 11.0009C37.9433 11.1121 37.9989 11.2232 38.0543 11.3621C38.1099 11.5009 38.1655 11.6121 38.221 11.7509L38.3599 12.0843L38.4989 12.3898L38.6099 12.6676C38.6655 12.8065 38.721 12.9176 38.7489 13.0287C38.7766 13.0565 38.7766 13.0843 38.7766 13.1398C38.8322 13.2787 38.8877 13.4176 38.9155 13.5565C39.0266 13.862 39.1099 14.1676 39.1933 14.5009C39.221 14.6399 39.2766 14.8065 39.3043 14.9453V15.0009C39.3877 15.3343 39.471 15.6399 39.5266 15.9732C39.5543 16.1399 39.5822 16.3065 39.6099 16.4453C39.6099 16.4732 39.6099 16.5009 39.6099 16.5009C39.6377 16.6399 39.6654 16.7787 39.6933 16.9176L39.7489 17.3899V17.4176C39.7766 17.5843 39.7766 17.7509 39.8043 17.9176C39.8322 18.2232 39.8599 18.5287 39.8877 18.862C39.9989 19.2509 39.9989 19.612 39.9989 20.0009Z" fill="white"/>
<path d="M34.6111 33.6397C33.6944 34.612 32.6944 35.5009 31.6111 36.2787C28.25 38.6953 24.1667 40.0009 20 40.0009C8.94444 40.0009 0 31.0564 0 20.0009C0 16.2787 1.02778 12.6398 2.97223 9.50087C3.05556 9.36197 3.16667 9.22309 3.25 9.05643L3.52777 8.63976C3.86111 8.13976 4.25 7.66753 4.63889 7.19531L4.88889 6.91753C4.91667 6.86197 4.97223 6.8342 5 6.77864C5.08333 6.66753 5.16667 6.5842 5.27777 6.47309L5.38889 6.36197L8.27777 10.4175L8.30556 10.4731C8.25 10.5564 8.16667 10.6398 8.11111 10.7231C8.05556 10.8064 7.97223 10.8898 7.91667 10.9731C2.91667 17.6397 4.27777 27.0843 10.9444 32.0564C16.1944 36.0009 23.4167 36.0843 28.75 32.2509L27.0833 29.9176L24.25 25.9176C25.3889 25.0843 26.2777 23.9731 26.8056 22.6676C28.2777 18.9176 26.4444 14.6953 22.6944 13.2231C21.8333 12.8898 20.9444 12.7231 20.0277 12.7231H19.7223C18.3056 12.7786 16.9723 13.2509 15.8056 14.0843L12.9167 10.0564C14.0277 9.27864 15.2223 8.66753 16.5277 8.27864C17.6389 7.94531 18.8333 7.77864 20 7.77864C20.3611 7.77864 20.7223 7.80643 21.0833 7.8342C27.8056 8.41753 32.75 14.3343 32.1667 21.0564C31.9723 23.2231 31.1944 25.3064 29.9444 27.0843L31.6944 29.5287L34.6111 33.6397Z" fill="white"/>
<path fill-rule="evenodd" clip-rule="evenodd" d="M24.2209 25.9167C20.9986 28.3056 16.4431 27.6389 14.0542 24.4167C11.6653 21.1944 12.332 16.6389 15.5542 14.25C15.6375 14.1944 15.7209 14.1389 15.7765 14.0833L24.2209 25.9167Z" fill="white"/>
<path d="M58.4162 21.8907L61.1105 23.8628C59.3605 26.1961 57.3051 27.224 55.0272 27.224C51.0272 27.3073 47.6939 24.1128 47.6384 20.1128C47.5828 16.1128 50.7495 12.7795 54.7495 12.724C54.8328 12.724 54.9439 12.724 55.0272 12.724C57.3328 12.724 59.4439 13.8073 61.1662 16.1407L58.4439 18.1407C57.3605 16.6684 56.2217 16.0851 55.0272 16.0851C52.8884 16.0851 51.1384 17.8351 51.1384 19.974C51.1384 22.1128 52.8884 23.8628 55.0272 23.8628C56.2495 23.8628 57.3328 23.3351 58.4162 21.8907Z" fill="white"/>
<path d="M65.9726 18.5573C66.8614 18.1128 67.8614 17.8907 68.8614 17.8907L68.1114 20.974C66.9447 20.974 66.0003 21.5573 66.0003 22.2795V27.0017H62.917V18.0573H66.0003V18.5573H65.9726Z" fill="white"/>
<path d="M71.3607 31.1684L73.3886 26.1961L70.083 18.0573H73.1941L74.9441 22.2795L76.6386 18.0573H79.7497L74.4441 31.1684H71.3607Z" fill="white"/>
<path d="M90.5286 22.5289C90.5286 23.7789 90.0286 24.9733 89.1676 25.8345C88.2786 26.6956 87.112 27.1679 85.862 27.1679C85.3064 27.14 84.7509 26.9456 84.3064 26.6123V31.1679H81.1953V18.0567H84.2786V18.4733C84.723 18.1123 85.2786 17.9179 85.8342 17.9179C87.0564 17.89 88.2509 18.3623 89.1397 19.2512C90.0286 20.1123 90.5286 21.3067 90.5286 22.5289ZM87.4453 22.5289C87.4453 21.6679 86.723 20.9733 85.862 20.9733C85.0009 20.9733 84.3064 21.6956 84.3064 22.5567C84.3064 23.4179 85.0286 24.1123 85.862 24.1123C86.7509 24.1123 87.4453 23.4179 87.4453 22.5289Z" fill="white"/>
<path d="M92.555 23.75V20.9444H91.4717V18.0556H92.555V15.25H95.6383V18.0556H97.8606V20.9444H95.6383V23.7223C95.6106 23.8611 95.7217 23.9723 95.8606 24H97.7495L98.555 27.0277H95.8329C94.0273 27.0277 92.5829 25.5833 92.555 23.7777C92.555 23.7777 92.555 23.7777 92.555 23.75Z" fill="white"/>
<path d="M108.86 22.5295C108.86 23.7795 108.36 24.974 107.499 25.8351C106.638 26.6961 105.443 27.1961 104.221 27.1961C101.666 27.2517 99.5268 25.224 99.4435 22.6684C99.3879 20.1128 101.416 17.974 103.971 17.8907C104.055 17.8907 104.11 17.8907 104.193 17.8907C105.416 17.8907 106.582 18.3628 107.471 19.224C108.36 20.1128 108.832 21.3073 108.86 22.5295ZM105.749 22.5295C105.721 21.6684 104.999 21.0017 104.138 21.0295C103.332 21.0573 102.693 21.724 102.638 22.5295C102.61 23.3907 103.277 24.1128 104.138 24.1407C104.999 24.1684 105.721 23.5017 105.749 22.6407C105.749 22.6407 105.749 22.5851 105.749 22.5295Z" fill="white"/>
<path d="M119.75 22.5277C119.75 23.7777 119.25 24.9723 118.388 25.8333C117.5 26.6944 116.333 27.1667 115.111 27.1667C114.555 27.1389 113.999 26.9444 113.555 26.6111V31.1667H110.472V18.0556H113.555V18.4723C113.999 18.1111 114.555 17.9167 115.111 17.9167C116.333 17.9167 117.527 18.3889 118.388 19.25C119.25 20.1111 119.75 21.3056 119.75 22.5277ZM116.666 22.5277C116.666 21.6667 115.944 20.9723 115.083 20.9723C114.222 20.9723 113.527 21.6944 113.527 22.5556C113.527 23.4167 114.249 24.1111 115.111 24.1111C115.972 24.1111 116.666 23.4167 116.666 22.5277Z" fill="white"/>
<path d="M130.335 22.5295C130.335 23.7795 129.835 24.974 128.974 25.8351C128.113 26.6961 126.918 27.1961 125.696 27.1961C123.14 27.2517 121.001 25.224 120.918 22.6684C120.863 20.1128 122.89 17.974 125.446 17.8907C125.529 17.8907 125.585 17.8907 125.668 17.8907C126.89 17.8907 128.057 18.3628 128.946 19.224C129.835 20.1128 130.335 21.3073 130.335 22.5295ZM127.252 22.5295C127.224 21.6684 126.501 21.0017 125.64 21.0295C124.835 21.0573 124.196 21.724 124.14 22.5295C124.113 23.3907 124.779 24.1128 125.64 24.1407C126.501 24.1684 127.224 23.5017 127.252 22.6407C127.252 22.6407 127.252 22.5851 127.252 22.5295Z" fill="white"/>
<path d="M132.112 27.0277V12.6667H135.223V27.0277H132.112Z" fill="white"/>
<path d="M137.972 15.0833C137.972 14.1111 138.749 13.3333 139.721 13.3333C140.693 13.3333 141.498 14.1111 141.498 15.0833C141.498 16.0556 140.721 16.8611 139.721 16.8611C138.749 16.8333 137.972 16.0556 137.972 15.0833ZM138.165 18.0556H141.249V27.0277H138.165V18.0556Z" fill="white"/>
<path d="M144.528 23.75V20.9444H143.445V18.0556H144.528V15.25H147.64V18.0556H149.861V20.9444H147.64V23.7223C147.612 23.8611 147.723 23.9723 147.861 24H149.751L150.556 27.0277H147.835C146.028 27.0556 144.556 25.6111 144.556 23.8056C144.528 23.7777 144.528 23.7777 144.528 23.75Z" fill="white"/>
<path d="M157.695 18.474V18.0573H160.805V27.0295H157.695V26.6128C157.251 26.974 156.723 27.1684 156.139 27.1684C153.583 27.1684 151.5 25.0851 151.5 22.5295C151.5 19.974 153.583 17.8907 156.139 17.8907C156.695 17.8907 157.251 18.0851 157.695 18.474ZM157.695 22.5295C157.667 21.6684 156.972 20.974 156.111 21.0017C155.249 21.0295 154.556 21.724 154.583 22.5851C154.611 23.4461 155.305 24.1128 156.139 24.1128C157 24.1128 157.695 23.4184 157.695 22.5295Z" fill="white"/>
<path d="M170.36 19.1956C171.165 20.0012 171.61 21.1123 171.61 22.2789V27.0289H168.526V22.2789C168.526 21.5845 167.972 21.0012 167.277 21.0012C166.582 21.0012 165.998 21.5567 165.998 22.2512V27.0012H162.888V18.0567H165.998V18.4733C166.165 18.1123 166.832 17.9179 167.277 17.9179C168.416 17.89 169.526 18.3623 170.36 19.1956Z" fill="white"/>
</g>
</g>
<defs>
<clipPath id="clip0_2049_3553">
<rect width="172" height="40" fill="white"/>
</clipPath>
</defs>
</svg>
