<svg width="260" height="70" viewBox="0 0 260 70" fill="none" xmlns="http://www.w3.org/2000/svg">
<g clip-path="url(#clip0_10953_6907)">
<mask id="mask0_10953_6907" style="mask-type:luminance" maskUnits="userSpaceOnUse" x="0" y="35" width="11" height="13">
<path d="M0.000488281 35.7832H10.4929V47.9552H0.000488281V35.7832Z" fill="white"/>
</mask>
<g mask="url(#mask0_10953_6907)">
<path fill-rule="evenodd" clip-rule="evenodd" d="M5.72301 37.4734C7.3242 37.4734 8.32976 38.2511 9.02835 39.4511L10.4929 38.3696C9.57299 36.8476 8.24412 35.7832 5.72301 35.7832C2.48695 35.7832 0.000488281 38.167 0.000488281 41.8693C0.000488281 45.436 2.47059 47.9555 5.70665 47.9555C8.0738 47.9555 9.59127 46.9236 10.4929 45.3175L9.02835 44.2866C8.41444 45.4694 7.39252 46.2643 5.72301 46.2643C3.50887 46.2643 1.90864 44.3372 1.90864 41.8693C1.90864 39.2648 3.50887 37.4734 5.72301 37.4734Z" fill="white"/>
</g>
<path fill-rule="evenodd" clip-rule="evenodd" d="M23.6895 35.9521L20.7922 41.4287L17.8804 35.9521H15.7L19.8222 43.4581V47.7862H21.7294V43.4581L25.8691 35.9521H23.6895Z" fill="white"/>
<path fill-rule="evenodd" clip-rule="evenodd" d="M41.6542 44.2358C41.6542 42.6975 40.7343 41.7841 39.849 41.4125C40.4447 41.0408 41.1259 40.2459 41.1259 39.0803C41.1259 37.2191 39.8664 35.9521 37.6002 35.9521H31.946V47.7862H37.6859C39.9164 47.7862 41.6542 46.654 41.6542 44.2358ZM33.8532 37.6423H37.5146C38.4528 37.6423 39.2014 38.0818 39.2014 39.215C39.2014 40.3472 38.4528 40.7876 37.5146 40.7876H33.8532V37.6423ZM33.8532 46.0951V42.4778H37.6686C38.9628 42.4778 39.748 43.0702 39.748 44.2864C39.748 45.5036 38.9628 46.0951 37.6686 46.0951H33.8532Z" fill="white"/>
<path fill-rule="evenodd" clip-rule="evenodd" d="M51.6483 35.9521L46.811 47.7862H48.8712L50.1655 44.5731H54.97L56.2479 47.7862H58.3263L53.4718 35.9521H51.6483ZM52.5682 38.5385L54.306 42.8838H50.8304L52.5682 38.5385Z" fill="white"/>
<path fill-rule="evenodd" clip-rule="evenodd" d="M74.1454 39.655C74.1454 36.932 72.3912 35.9526 69.8528 35.9526H64.4016V47.7867H66.3088V43.3735H68.8645L72.2546 47.7867H74.6054L71.147 43.255C72.6452 42.9847 74.1454 41.9031 74.1454 39.655ZM66.3088 41.6833V37.6428H69.8865C71.3857 37.6428 72.2372 38.2342 72.2372 39.655C72.2372 41.091 71.3857 41.6833 69.8865 41.6833H66.3088Z" fill="white"/>
<path fill-rule="evenodd" clip-rule="evenodd" d="M85.8756 47.9555C88.2437 47.9555 89.7593 46.9246 90.6628 45.3175L89.1973 44.2866C88.5834 45.4694 87.5624 46.2643 85.8929 46.2643C83.6788 46.2643 82.0776 44.3372 82.0776 41.8693C82.0776 39.2648 83.6788 37.4734 85.8929 37.4734C87.4941 37.4734 88.4987 38.2511 89.1973 39.4511L90.6628 38.3696C89.7429 36.8485 88.414 35.7832 85.8929 35.7832C82.6559 35.7832 80.1694 38.167 80.1694 41.8693C80.1694 45.436 82.6386 47.9555 85.8756 47.9555Z" fill="white"/>
<mask id="mask1_10953_6907" style="mask-type:luminance" maskUnits="userSpaceOnUse" x="96" y="35" width="12" height="13">
<path d="M96.2278 35.7832H107.998V47.9555H96.2278V35.7832Z" fill="white"/>
</mask>
<g mask="url(#mask1_10953_6907)">
<path fill-rule="evenodd" clip-rule="evenodd" d="M102.103 35.7832C98.6969 35.7832 96.2278 38.4708 96.2278 41.8693C96.2278 45.2669 98.6969 47.9555 102.103 47.9555C105.528 47.9555 107.998 45.2669 107.998 41.8693C107.998 38.4708 105.528 35.7832 102.103 35.7832ZM102.103 46.2643C99.7535 46.2643 98.134 44.321 98.134 41.8693C98.134 39.4177 99.7535 37.4734 102.103 37.4734C104.471 37.4734 106.09 39.4177 106.09 41.8693C106.09 44.321 104.471 46.2643 102.103 46.2643Z" fill="white"/>
</g>
<path fill-rule="evenodd" clip-rule="evenodd" d="M53.7026 0L43.7183 5.72211V18.6692L53.7026 24.3913L59.0778 21.3101L59.1105 21.3292L59.1422 21.2738L63.687 18.6692V5.72211L59.1422 3.11759L59.1105 3.06217L59.0778 3.08128L53.7026 0ZM49.3099 3.63162L53.7026 1.11404L58.1059 3.63735L53.7151 6.15397L49.3099 3.63162ZM44.6911 18.1122V6.27817L48.338 4.18863L52.7423 6.71194L49.3677 8.64479V15.7466L52.7423 17.6794L48.338 20.2027L44.6911 18.1122ZM54.686 17.6794L58.0587 15.7466V8.64479L54.686 6.71194L59.0778 4.19437L62.716 6.27817V18.1122L59.0778 20.196L54.686 17.6794ZM50.3405 15.1895V9.20086L53.7151 7.26896L57.0859 9.20086V15.1895L53.7151 17.1224L50.3405 15.1895ZM49.3099 20.7597L53.7151 18.2364L58.1059 20.753L53.7026 23.2763L49.3099 20.7597Z" fill="white"/>
</g>
<defs>
<clipPath id="clip0_10953_6907">
<rect width="108" height="48" fill="white"/>
</clipPath>
</defs>
</svg>
