<svg width="260" height="70" viewBox="0 0 260 70" fill="none" xmlns="http://www.w3.org/2000/svg">
<g clip-path="url(#clip0_10913_2579)">
<mask id="mask0_10913_2579" style="mask-type:luminance" maskUnits="userSpaceOnUse" x="0" y="0" width="131" height="40">
<path d="M131 0H0V40H131V0Z" fill="white"/>
</mask>
<g mask="url(#mask0_10913_2579)">
<path d="M47.6919 19.0903C49.1926 19.0903 50.3451 19.4524 51.1496 20.1764C51.9539 20.8884 52.3561 21.9684 52.3561 23.4166V29.1999H49.7268V27.7609C49.1986 28.6659 48.2141 29.1999 46.7734 29.1999C46.029 29.1999 45.3808 28.9917 44.8285 28.7383C44.2882 28.4849 43.874 28.1349 43.5859 27.6884C43.2978 27.2419 43.1537 26.7351 43.1537 26.1679C43.1537 25.2629 43.4898 24.5509 44.1622 24.032C44.8465 23.5131 45.897 23.2536 47.3137 23.2536H49.5467C49.5467 22.6382 49.3606 22.1676 48.9885 21.8417C48.6163 21.5039 48.0581 21.3349 47.3137 21.3349C46.7974 21.3349 46.1171 21.4309 45.6129 21.5998C45.1206 21.7567 44.4646 22.0604 44.4646 22.0604V19.7574C44.4646 19.7574 45.0287 19.5123 45.4048 19.3981C46.2672 19.136 46.9115 19.0903 47.6919 19.0903ZM47.4758 27.2178C47.956 27.2178 48.3822 27.1092 48.7544 26.892C49.1266 26.6627 49.3907 26.3309 49.5467 25.8964V24.9009H47.6198C46.4673 24.9009 45.891 25.2809 45.891 26.0412C45.891 26.4033 46.029 26.6929 46.3052 26.9101C46.5933 27.1152 46.9835 27.2178 47.4758 27.2178Z" fill="white"/>
<path d="M57.582 20.5203C57.9181 20.0497 58.3684 19.6937 58.9326 19.4524C59.5089 19.211 60.1692 19.0903 60.9136 19.0903V21.6969C60.6015 21.6728 60.3913 21.6608 60.2833 21.6608C59.4789 21.6608 58.8486 21.89 58.3924 22.3486C57.9361 22.7951 57.708 23.4709 57.708 24.3759V29.1999H54.8987V19.2352H57.582V20.5203Z" fill="white"/>
<path d="M77.691 19.0903C79.1917 19.0903 80.3442 19.4524 81.1486 20.1764C81.9531 20.8884 82.3552 21.9684 82.3552 23.4166V29.1999H79.726V27.7609C79.1977 28.6659 78.2133 29.1999 76.7725 29.1999C76.0282 29.1999 75.3799 28.9917 74.8276 28.7383C74.2874 28.4849 73.8732 28.1349 73.585 27.6884C73.2969 27.2419 73.1528 26.7351 73.1528 26.1679C73.1528 25.2629 73.489 24.5509 74.1613 24.032C74.8456 23.5131 75.8961 23.2536 77.3128 23.2536H79.5459C79.5459 22.6382 79.3598 22.1676 78.9876 21.8417C78.6154 21.5039 78.0571 21.3349 77.3128 21.3349C76.7966 21.3349 76.1162 21.4309 75.612 21.5998C75.1197 21.7567 74.4638 22.0604 74.4638 22.0604V19.7574C74.4638 19.7574 75.0279 19.5123 75.4038 19.3981C76.2664 19.136 76.9106 19.0903 77.691 19.0903ZM77.4749 27.2178C77.9551 27.2178 78.3813 27.1092 78.7535 26.892C79.1256 26.6627 79.3898 26.3309 79.5459 25.8964V24.9009H77.619C76.4664 24.9009 75.8901 25.2809 75.8901 26.0412C75.8901 26.4033 76.0282 26.6929 76.3043 26.9101C76.5925 27.1152 76.9827 27.2178 77.4749 27.2178Z" fill="white"/>
<path d="M67.1784 29.1999C66.1459 29.1999 65.2155 28.9073 64.387 28.4848C63.5706 28.0504 62.9283 27.4531 62.4601 26.6928C62.0039 25.9326 61.7758 25.0698 61.7758 24.1044C61.7758 23.139 62.0039 22.2761 62.4601 21.5159C62.9283 20.7556 63.5706 20.1643 64.387 19.742C65.2155 19.3075 66.1665 19.0664 67.199 19.0664C68.2196 19.0664 69.151 19.4119 69.9547 19.9876C71.5622 21.1392 71.7918 22.2907 71.7918 22.7468H69.3394C68.8352 21.8538 68.1088 21.4073 67.1604 21.4073C66.428 21.4073 65.8217 21.6487 65.3415 22.1314C64.8612 22.6141 64.6212 23.2717 64.6212 24.1044C64.6212 24.937 64.8612 25.5948 65.3415 26.0775C65.8217 26.5601 66.428 26.8014 67.1604 26.8014C68.1209 26.8014 68.8472 26.3549 69.3394 25.462L71.7918 25.5149C71.7918 27.3575 69.202 29.1999 67.1784 29.1999Z" fill="white"/>
<path d="M37.5063 29.1996L37.4866 20.9525L33.6562 26.6444L29.7467 21.1241V29.1996H26.7445V16.519H29.3911L33.6562 23.0023L37.8421 16.519H40.4689L40.5084 29.1996H37.5063Z" fill="white"/>
<path d="M20.0133 19.9067V29.2091H23.9372V19.9067H20.0133Z" fill="white"/>
<path fill-rule="evenodd" clip-rule="evenodd" d="M17.9275 28.2692C17.9275 28.783 17.5093 29.1994 16.9933 29.1994H0V15.8532V0.215332H5.01046H10.1754C16.3041 0.215332 24.3794 2.93259 24.3794 12.292C24.3794 12.292 23.6516 11.4869 21.5803 11.4869C20.0129 11.4869 19.1451 12.8959 19.1451 12.8959C19.1451 8.54826 16.3742 4.53858 10.1754 4.53858H5.01046V24.6641H10.1754C14.009 24.2377 15.4923 22.7585 17.9275 20.3432V28.2692Z" fill="white"/>
<path d="M21.955 18.6043C23.245 18.6043 24.2907 17.5631 24.2907 16.2787C24.2907 14.9943 23.245 13.9531 21.955 13.9531C20.6651 13.9531 19.6194 14.9943 19.6194 16.2787C19.6194 17.5631 20.6651 18.6043 21.955 18.6043Z" fill="white"/>
<path d="M41.4813 38.9814H0V40.0684H41.4813V38.9814Z" fill="white"/>
<path d="M41.4813 35.75H0V37.5615H41.4813V35.75Z" fill="white"/>
<path d="M101.631 26.1662H105.897L110.939 21.468C110.939 21.468 109.059 21.0446 107.06 21.468C103.911 22.1349 101.631 26.1662 101.631 26.1662Z" fill="white"/>
<path fill-rule="evenodd" clip-rule="evenodd" d="M56.99 0.680855C47.8626 1.62678 26.7198 8.29166 26.7198 8.29166C26.7198 8.29166 38.3853 8.35707 47.3253 12.6559C55.0064 16.3494 62.9856 16.9695 68.7067 14.9474C72.4754 13.6154 92.4293 11.3666 87.1012 28.9069H113.266L116.97 25.5812H127.901C127.901 25.5812 129.489 28.6509 129.723 28.9301C129.77 28.581 129.928 27.4416 129.928 27.4416L128.437 24.744C123.696 24.744 116.503 24.744 116.503 24.744L113.039 27.6212H99.8491L97.7662 25.719L102.591 20.3403C102.591 20.3403 91.7979 17.9889 92.0476 17.7372C92.0826 17.7016 92.9716 17.8409 94.0222 18.0466C99.8063 19.1786 109.276 20.1985 118.308 20.5645C123.567 20.7778 128.835 19.6277 128.835 19.6277C128.835 19.6277 129.117 19.8982 129.489 20.837C130.983 24.61 129.928 27.4416 129.928 27.4416C129.928 27.4416 129.742 28.7848 129.723 28.9301C131.638 26.8836 130.983 22.4184 130.983 22.4184C130.983 22.4184 130.46 19.0055 128.454 17.2489C124.612 13.8865 120.265 11.6642 112.423 9.05555C112.423 9.05555 110.336 8.72599 108.281 8.29166C99.1967 9.76538 89.6267 8.2995 80.44 8.29166L78.0109 6.60447C76.6053 5.73127 74.6111 4.23281 72.6878 3.26885L68.7067 1.1161H73.3396C78.0843 1.05437 82.7757 1.4991 85.2048 1.86029C87.6338 2.22148 99.0142 5.69281 108.281 8.29166C109.716 8.59496 112.423 9.05555 112.423 9.05555C112.514 8.96399 88.2879 1.67423 85.1114 1.20912C81.9349 0.744001 70.6352 -0.733281 56.99 0.680855ZM77.7938 8.29166C77.7938 7.92606 69.9768 1.1161 64.8378 1.1161C52.6918 1.1161 42.2287 6.19879 42.2287 6.19879C45.8058 6.3788 48.6898 6.94615 53.2809 7.84934C54.2659 8.04313 55.3301 8.25247 56.4961 8.47666C60.8544 9.31486 63.7928 9.73268 66.7663 9.93694C68.6612 10.0671 68.7067 10.0608 68.7067 9.66347C68.7067 9.30434 68.599 9.2566 67.7883 9.2566C66.7898 9.2566 65.7347 8.96668 65.3218 8.57871C64.9281 8.20872 65.2158 7.39879 65.8604 7.06223C66.5418 6.70657 70.1435 6.65746 70.875 6.99401C71.6112 7.33266 71.551 8.44704 70.7466 9.37199L70.1359 10.074L71.6459 9.94138C72.4761 9.86834 73.6609 9.72077 74.2786 9.61338C75.5192 9.39781 77.7938 8.54259 77.7938 8.29166ZM103.569 12.9009C102.29 12.5502 99.0282 12.0216 97.1985 11.8687C95.0283 11.6871 94.9881 11.715 96.3925 12.4336C97.8666 13.1876 100.16 14.6546 101.729 15.8469C102.924 16.7542 103.232 16.9005 103.944 16.897C104.399 16.8948 105.642 17.0408 106.706 17.2214C107.769 17.402 108.683 17.5069 108.734 17.4545C108.787 17.4022 108.884 16.889 108.951 16.3146L109.072 15.2697L107.017 14.2762C105.886 13.7296 104.334 13.1108 103.569 12.9009ZM123.229 18.6344C119.843 18.8737 115.101 18.4484 115.101 18.4484C115.101 18.4484 120.922 19.5996 124.07 19.0065C125.736 18.6927 127.34 18.2623 127.34 18.2623C127.34 18.2623 124.29 18.5595 123.229 18.6344Z" fill="white"/>
<path d="M46.7405 36.1988C46.8668 36.1171 46.9774 36.0499 47.0721 35.9973C47.17 35.9448 47.2569 35.9039 47.3327 35.8747C47.4085 35.8426 47.478 35.8207 47.5412 35.8091C47.6075 35.7974 47.6722 35.7915 47.7354 35.7915C47.9818 35.7915 48.1649 35.8704 48.2849 36.028C48.405 36.1857 48.476 36.409 48.4981 36.698L47.6691 36.9257C47.6375 36.7155 47.5948 36.5666 47.5412 36.4791C47.4875 36.3915 47.4037 36.3477 47.29 36.3477C47.2237 36.3477 47.1448 36.3608 47.0532 36.3871C46.9647 36.4133 46.8605 36.4572 46.7405 36.5185V39.9998H45.7788V35.8747H46.7405V36.1988Z" fill="white"/>
<path d="M54.6342 35.7915C54.9562 35.7915 55.2279 35.847 55.449 35.9579C55.6732 36.0659 55.8548 36.2134 55.9938 36.4002C56.1359 36.5871 56.237 36.8031 56.297 37.0483C56.3602 37.2906 56.3917 37.5475 56.3917 37.8191V38.0248H53.4734C53.4734 38.1883 53.5019 38.365 53.5587 38.5547C53.6155 38.7445 53.7071 38.9196 53.8335 39.0802C53.963 39.2407 54.1288 39.3751 54.3309 39.4831C54.5362 39.5882 54.7873 39.6407 55.0842 39.6407H56.0696V39.9998H55.0699C54.6278 39.9998 54.2456 39.9531 53.9235 39.8597C53.6045 39.7662 53.3407 39.6305 53.1323 39.4524C52.927 39.2744 52.7754 39.0568 52.6775 38.7999C52.5795 38.5431 52.5306 38.2497 52.5306 37.9198C52.5306 37.6453 52.5764 37.3797 52.668 37.1227C52.7628 36.8659 52.8986 36.6396 53.0754 36.444C53.2555 36.2455 53.475 36.0879 53.734 35.9711C53.9961 35.8514 54.2962 35.7915 54.6342 35.7915ZM54.5867 36.19C54.3909 36.19 54.2235 36.2309 54.0846 36.3126C53.9456 36.3944 53.8303 36.5039 53.7387 36.6411C53.6503 36.7753 53.584 36.933 53.5398 37.114C53.4986 37.2921 53.4765 37.4775 53.4734 37.6701H55.4774V37.4819C55.4711 37.3125 55.4537 37.1505 55.4253 36.9958C55.4001 36.8411 55.3542 36.7039 55.2879 36.5841C55.2216 36.4645 55.1316 36.3696 55.0179 36.2995C54.9073 36.2265 54.7636 36.19 54.5867 36.19Z" fill="white"/>
<path d="M61.9213 36.2163C62.1234 36.1345 62.3098 36.0674 62.4803 36.0149C62.6509 35.9594 62.8104 35.9156 62.9588 35.8835C63.1073 35.8485 63.2447 35.8251 63.371 35.8134C63.5005 35.7988 63.6253 35.7915 63.7453 35.7915C64.0422 35.7915 64.268 35.8631 64.4227 36.0061C64.5807 36.1492 64.6596 36.3798 64.6596 36.698V39.9998H63.6979V36.8338C63.6979 36.7695 63.69 36.7039 63.6742 36.6367C63.6616 36.5695 63.6363 36.5097 63.5984 36.4572C63.5605 36.4046 63.5084 36.3623 63.442 36.3302C63.3789 36.2952 63.2984 36.2776 63.2005 36.2776C63.0393 36.2776 62.853 36.2965 62.6414 36.3345C62.4298 36.3696 62.1898 36.444 61.9213 36.5579V39.9998H60.9596V35.8747H61.9213V36.2163Z" fill="white"/>
<path d="M71.2884 36.2688H70.6487V39.9998H69.7392V36.2688H69.1233V35.8747H69.7392V34.5304L70.6487 34.2764V35.8747H71.2884V36.2688Z" fill="white"/>
<path d="M77.3106 36.1725C77.159 36.1725 77.0263 36.1769 76.9126 36.1857C76.802 36.1944 76.701 36.2061 76.6094 36.2207C76.5178 36.2352 76.4325 36.2528 76.3536 36.2732C76.2746 36.2907 76.1957 36.3098 76.1167 36.3302L76.003 36.0455C76.2683 35.955 76.5447 35.8908 76.8321 35.8528C77.1226 35.8119 77.3974 35.7915 77.6564 35.7915C77.988 35.7915 78.2596 35.8076 78.4712 35.8397C78.6861 35.8719 78.8534 35.9259 78.9735 36.0018C79.0935 36.0747 79.1756 36.1739 79.2198 36.2995C79.2672 36.4221 79.2909 36.5768 79.2909 36.7637V39.9998H77.737C77.3137 39.9998 76.9521 39.9589 76.652 39.8772C76.3552 39.7954 76.1119 39.6859 75.9224 39.5487C75.7329 39.4086 75.594 39.2495 75.5056 39.0714C75.4171 38.8905 75.3729 38.7006 75.3729 38.5022C75.3729 38.2569 75.414 38.0409 75.4961 37.854C75.5814 37.6672 75.703 37.5111 75.8609 37.3855C76.0188 37.2571 76.2114 37.1607 76.4388 37.0965C76.6662 37.0293 76.9253 36.9958 77.2158 36.9958C77.3737 36.9958 77.5522 37.0205 77.7512 37.0702C77.9533 37.1199 78.1459 37.1943 78.3292 37.2935V36.7462C78.3292 36.679 78.3213 36.6119 78.3055 36.5447C78.2897 36.4746 78.2486 36.4133 78.1823 36.3608C78.116 36.3053 78.0134 36.2601 77.8743 36.2251C77.7385 36.19 77.5506 36.1725 77.3106 36.1725ZM78.3292 39.6407V37.6132C78.1775 37.5285 78.0196 37.4658 77.8554 37.4249C77.6912 37.384 77.5095 37.3636 77.3106 37.3636C77.1527 37.3636 77.0121 37.3899 76.8889 37.4425C76.7689 37.495 76.6678 37.5694 76.5857 37.6658C76.5036 37.7621 76.4404 37.8774 76.3962 38.0117C76.3552 38.146 76.3346 38.2949 76.3346 38.4584C76.3346 38.5051 76.3362 38.5664 76.3394 38.6423C76.3456 38.7182 76.3614 38.7999 76.3868 38.8875C76.4152 38.9751 76.4562 39.0641 76.5099 39.1546C76.5668 39.2422 76.6457 39.3225 76.7468 39.3955C76.8479 39.4685 76.9758 39.5283 77.1305 39.575C77.2853 39.6188 77.4748 39.6407 77.699 39.6407H78.3292Z" fill="white"/>
<path d="M84.3772 33.4883H85.3389V39.9998H84.3772V33.4883Z" fill="white"/>
<path d="M98.3111 36.5666C98.1469 36.444 97.981 36.352 97.8142 36.2907C97.6465 36.2294 97.4535 36.1988 97.2361 36.1988C96.9985 36.1988 96.7889 36.2412 96.6055 36.3258C96.4256 36.4105 96.2745 36.5258 96.1505 36.6718C96.0274 36.8148 95.933 36.9812 95.8667 37.1709C95.8038 37.3607 95.7715 37.5621 95.7715 37.7752C95.7715 37.8745 95.7785 37.9899 95.7907 38.1212C95.8064 38.2497 95.837 38.3839 95.8806 38.524C95.9252 38.6612 95.9881 38.797 96.0702 38.9313C96.1557 39.0626 96.2658 39.1824 96.402 39.2904C96.5409 39.3955 96.7112 39.4801 96.9138 39.5444C97.119 39.6086 97.3618 39.6407 97.643 39.6407H98.3496V39.9998H97.643C97.2675 39.9998 96.9356 39.9735 96.6483 39.921C96.3645 39.8655 96.1164 39.7896 95.9042 39.6932C95.6964 39.5969 95.5208 39.4816 95.3785 39.3473C95.2396 39.2101 95.1278 39.0598 95.0422 38.8963C94.9567 38.7299 94.8973 38.5532 94.8623 38.3664C94.8274 38.1796 94.8099 37.9854 94.8099 37.784C94.8099 37.5184 94.8606 37.2659 94.9619 37.0265C95.0658 36.7841 95.2195 36.5725 95.4213 36.3915C95.6265 36.2075 95.8789 36.0616 96.1793 35.9536C96.4824 35.8455 96.8343 35.7915 97.2361 35.7915C97.3339 35.7915 97.4378 35.8018 97.5487 35.8222C97.6588 35.8426 97.7697 35.8732 97.8797 35.9141C97.9906 35.9521 98.0998 36.0018 98.2072 36.0631C98.3172 36.1214 98.4203 36.19 98.5146 36.2688L98.3111 36.5666Z" fill="white"/>
<path d="M104.404 36.1725C104.253 36.1725 104.121 36.1769 104.007 36.1857C103.896 36.1944 103.795 36.2061 103.703 36.2207C103.611 36.2352 103.527 36.2528 103.447 36.2732C103.369 36.2907 103.29 36.3098 103.21 36.3302L103.097 36.0455C103.362 35.955 103.638 35.8908 103.926 35.8528C104.217 35.8119 104.492 35.7915 104.75 35.7915C105.082 35.7915 105.354 35.8076 105.565 35.8397C105.78 35.8719 105.948 35.9259 106.067 36.0018C106.188 36.0747 106.27 36.1739 106.313 36.2995C106.361 36.4221 106.385 36.5768 106.385 36.7637V39.9998H104.831C104.408 39.9998 104.046 39.9589 103.746 39.8772C103.449 39.7954 103.206 39.6859 103.017 39.5487C102.827 39.4086 102.688 39.2495 102.599 39.0714C102.511 38.8905 102.467 38.7006 102.467 38.5022C102.467 38.2569 102.508 38.0409 102.59 37.854C102.675 37.6672 102.797 37.5111 102.955 37.3855C103.113 37.2571 103.306 37.1607 103.533 37.0965C103.76 37.0293 104.019 36.9958 104.31 36.9958C104.468 36.9958 104.646 37.0205 104.845 37.0702C105.047 37.1199 105.24 37.1943 105.424 37.2935V36.7462C105.424 36.679 105.416 36.6119 105.399 36.5447C105.383 36.4746 105.342 36.4133 105.276 36.3608C105.21 36.3053 105.107 36.2601 104.969 36.2251C104.832 36.19 104.645 36.1725 104.404 36.1725ZM105.424 39.6407V37.6132C105.272 37.5285 105.113 37.4658 104.949 37.4249C104.785 37.384 104.603 37.3636 104.404 37.3636C104.246 37.3636 104.106 37.3899 103.983 37.4425C103.863 37.495 103.762 37.5694 103.679 37.6658C103.597 37.7621 103.534 37.8774 103.49 38.0117C103.449 38.146 103.429 38.2949 103.429 38.4584C103.429 38.5051 103.431 38.5664 103.433 38.6423C103.439 38.7182 103.455 38.7999 103.48 38.8875C103.509 38.9751 103.55 39.0641 103.603 39.1546C103.661 39.2422 103.74 39.3225 103.841 39.3955C103.941 39.4685 104.07 39.5283 104.224 39.575C104.379 39.6188 104.569 39.6407 104.793 39.6407H105.424Z" fill="white"/>
<path d="M112.223 36.1988C112.349 36.1171 112.459 36.0499 112.554 35.9973C112.652 35.9448 112.739 35.9039 112.815 35.8747C112.891 35.8426 112.96 35.8207 113.023 35.8091C113.09 35.7974 113.154 35.7915 113.217 35.7915C113.464 35.7915 113.647 35.8704 113.767 36.028C113.887 36.1857 113.958 36.409 113.98 36.698L113.151 36.9257C113.119 36.7155 113.077 36.5666 113.023 36.4791C112.969 36.3915 112.885 36.3477 112.772 36.3477C112.705 36.3477 112.627 36.3608 112.535 36.3871C112.447 36.4133 112.342 36.4572 112.223 36.5185V39.9998H111.261V35.8747H112.223V36.1988Z" fill="white"/>
<path d="M131.732 39.0693H118.278V39.9996H131.732V39.0693Z" fill="white"/>
<path d="M131.732 35.7207H118.278V37.5812H131.732V35.7207Z" fill="white"/>
</g>
</g>
<defs>
<clipPath id="clip0_10913_2579">
<rect width="131" height="40" fill="white"/>
</clipPath>
</defs>
</svg>
