<?xml version="1.0" encoding="UTF-8"?>
<svg xmlns="http://www.w3.org/2000/svg" width="435" height="435" viewBox="0 0 435 435" fill="none">
  <path d="M241.082 117.665C284.379 176.238 320.13 245.772 378 262.685" stroke="#cd77fe" stroke-width="0.71" stroke-miterlimit="10"></path>
  <path d="M269.336 127.226C269.336 127.226 252.356 132.696 241.084 117.643C252.356 132.696 240.73 145.649 240.73 145.649" stroke="#cd77fe" stroke-width="0.71" stroke-miterlimit="10"></path>
  <path d="M50.6328 131.427C107.537 152.979 143.665 214.637 181.49 268.418" stroke="#cd77fe" stroke-width="0.71" stroke-miterlimit="10"></path>
  <path d="M171.941 87.6237C246.178 152.126 284.452 282.771 376.163 287.979" stroke="url(#paint0_linear_412_1499)" stroke-width="0.71" stroke-miterlimit="10"></path>
  <path d="M44.4062 78.5653C135.669 71.2136 181.655 153.679 230.399 223.017" stroke="#cd77fe" stroke-width="0.71" stroke-miterlimit="10"></path>
  <path d="M121.449 150.199C190.616 235.312 234.88 361.581 360.596 301.017" stroke="url(#paint1_linear_412_1499)" stroke-width="0.71" stroke-miterlimit="10"></path>
  <path d="M336.953 305.207H106.329C100.775 305.207 96.2734 300.704 96.2734 295.149V150.313V145.025C96.2734 139.471 100.775 134.968 106.329 134.968H336.953C342.507 134.968 347.009 139.471 347.009 145.025V150.313V295.151C347.011 300.704 342.507 305.207 336.953 305.207Z" fill="white"></path>
  <path d="M96.2734 150.313V295.149C96.2734 300.704 100.775 305.207 106.329 305.207H336.953C342.507 305.207 347.011 300.704 347.009 295.151V150.313M96.2734 150.313V145.025C96.2734 139.471 100.775 134.968 106.329 134.968H336.953C342.507 134.968 347.009 139.471 347.009 145.025V150.313M96.2734 150.313H347.009" stroke="#cd77fe" stroke-width="0.71"></path>
  <path d="M96.2734 288.343V299.84C96.2734 302.805 100.775 305.207 106.329 305.207H336.953C342.507 305.207 347.009 302.804 347.009 299.84V288.343H96.2734Z" fill="#3C39C6" stroke="#cd77fe" stroke-width="0.71"></path>
  <path d="M234.349 305.207H208.934V336.001H234.349V305.207Z" fill="white" stroke="#cd77fe" stroke-width="0.71"></path>
  <path d="M268.561 347.395H174.719V338.877C174.719 336.301 178.955 334.213 184.178 334.213H259.102C264.327 334.213 268.561 336.302 268.561 338.877V347.395Z" fill="#3C39C6" stroke="#cd77fe" stroke-width="0.71"></path>
  <path d="M107.5 144.703C108.797 144.703 109.848 143.656 109.848 142.364C109.848 141.073 108.797 140.026 107.5 140.026C106.203 140.026 105.152 141.073 105.152 142.364C105.152 143.656 106.203 144.703 107.5 144.703Z" fill="#cd77fe"></path>
  <path d="M115.605 144.703C116.902 144.703 117.953 143.656 117.953 142.364C117.953 141.073 116.902 140.026 115.605 140.026C114.309 140.026 113.258 141.073 113.258 142.364C113.258 143.656 114.309 144.703 115.605 144.703Z" fill="#cd77fe"></path>
  <path d="M123.699 144.703C124.996 144.703 126.047 143.656 126.047 142.364C126.047 141.073 124.996 140.026 123.699 140.026C122.403 140.026 121.352 141.073 121.352 142.364C121.352 143.656 122.403 144.703 123.699 144.703Z" fill="#cd77fe"></path>
  <path d="M315.788 327.671C315.788 327.671 310.688 338.826 321.935 352.031C322.982 353.245 322.071 355.104 320.442 355.104H308.4C307.489 355.104 306.674 354.63 306.228 353.852C304.018 349.906 297.968 337.308 303.61 325.868" fill="#cd77fe"></path>
  <path d="M315.788 327.671C315.788 327.671 310.688 338.826 321.935 352.031C322.982 353.245 322.071 355.104 320.442 355.104H308.4C307.489 355.104 306.674 354.63 306.228 353.852C304.018 349.906 297.968 337.308 303.61 325.868" stroke="#cd77fe" stroke-width="0.71"></path>
  <path d="M327.676 297.105V327.801L366.748 350.472C369.967 352.351 374.059 350.074 374.059 346.393V278.493C374.059 274.832 369.987 272.555 366.748 274.414L327.676 297.105Z" fill="white" stroke="#cd77fe" stroke-width="0.71"></path>
  <path d="M297.25 297.275C292.77 297.275 289.125 300.842 289.125 305.224V319.662C289.125 324.044 292.77 327.611 297.25 327.611H324.824V297.256H297.25V297.275Z" fill="white" stroke="#cd77fe" stroke-width="0.71"></path>
  <path d="M376.098 299.324V325.6C380.538 322.83 383.486 317.992 383.486 312.471C383.486 306.95 380.538 302.075 376.098 299.324Z" fill="#cd77fe" stroke="#cd77fe" stroke-width="0.71"></path>
  <path d="M87.4688 185.295L87.4688 267.713" stroke="#cd77fe" stroke-width="0.7087" stroke-miterlimit="2.6131" stroke-linecap="round" stroke-linejoin="round" stroke-dasharray="2.83 2.83"></path>
  <path d="M79.6562 197.825L79.6563 255.184" stroke="#cd77fe" stroke-width="0.7087" stroke-miterlimit="2.6131" stroke-linecap="round" stroke-linejoin="round" stroke-dasharray="2.83 2.83"></path>
  <path d="M101.095 320.414L96.3633 321.988C95.9126 322.213 95.6873 322.438 95.6873 322.888L94.11 327.611L92.5328 322.888C92.3074 322.438 92.0821 322.213 91.8568 321.988L87.125 320.414L91.8568 318.84C92.3074 318.615 92.5328 318.39 92.5328 317.94L94.11 313.217L95.6873 317.94C95.9126 318.39 96.1379 318.615 96.3633 318.84L101.095 320.414Z" fill="#3C39C6"></path>
  <path d="M87.6267 312.72L82.9208 314.084C82.6172 314.235 82.3136 314.538 82.1618 314.841L80.7955 319.538L79.2775 314.993C79.1257 314.69 78.8221 314.387 78.5184 314.235L73.8125 312.871L78.5184 311.508C78.8221 311.356 79.1257 311.053 79.2775 310.75L80.6437 306.053L82.01 310.75C82.1618 311.053 82.4654 311.356 82.769 311.508L87.6267 312.72Z" stroke="#cd77fe" stroke-width="0.7087" stroke-miterlimit="10"></path>
  <path d="M380.433 129.562C378.797 129.562 377.153 130.153 375.905 131.573C373.409 134.413 373.477 138.791 375.905 141.631L385.76 153.227L395.614 141.631C398.042 138.791 398.11 134.413 395.614 131.573C393.118 128.852 389.055 128.852 386.559 131.573L385.76 132.52L384.961 131.573C383.712 130.153 382.069 129.562 380.433 129.562Z" stroke="#cd77fe" stroke-width="0.71"></path>
  <path d="M380.433 139.432C378.797 139.432 377.153 139.974 375.905 141.276C373.409 143.879 373.477 147.892 375.905 150.495L385.76 161.125L395.614 150.495C398.042 147.892 398.11 143.879 395.614 141.276C393.118 138.781 389.055 138.781 386.559 141.276L385.76 142.144L384.961 141.276C383.712 139.974 382.069 139.432 380.433 139.432Z" fill="#3C39C6"></path>
  <path d="M150.395 229.54L151.515 229.518C151.503 228.957 151.603 228.399 151.81 227.877C152.017 227.355 152.325 226.879 152.718 226.478C153.111 226.077 153.581 225.759 154.098 225.542C154.616 225.324 155.172 225.213 155.733 225.214H159.399C162.226 225.214 165.839 223.056 167.094 218.322L166.011 218.034C164.891 222.197 161.811 224.094 159.399 224.094H155.733C155.023 224.093 154.32 224.234 153.664 224.509C153.009 224.784 152.416 225.187 151.918 225.694C151.421 226.202 151.03 226.803 150.769 227.464C150.507 228.124 150.38 228.83 150.395 229.54V229.54Z" fill="#3C39C6"></path>
  <path d="M150.414 263.11V261.99C142.574 261.99 136.325 256.293 135.182 248.114L139.337 240.785L138.367 240.233L134.115 247.726C134.055 247.831 134.032 247.953 134.047 248.073C135.193 256.928 141.925 263.11 150.414 263.11Z" fill="#cd77fe"></path>
  <path d="M150.415 259.377C152.394 259.382 154.311 258.68 155.82 257.399L155.074 256.548C154.06 257.408 152.828 257.971 151.514 258.175C150.2 258.378 148.855 258.213 147.629 257.698C146.403 257.183 145.343 256.339 144.568 255.259C143.792 254.179 143.331 252.905 143.235 251.579L142.115 251.657C142.268 253.754 143.209 255.716 144.748 257.148C146.288 258.58 148.312 259.376 150.415 259.377V259.377Z" fill="#cd77fe"></path>
  <path d="M153.291 236.605H154.411V228.888L156.039 229.87L156.617 228.888L154.138 227.395C154.053 227.344 153.956 227.316 153.857 227.315C153.758 227.314 153.66 227.339 153.574 227.388C153.488 227.437 153.416 227.508 153.367 227.594C153.317 227.68 153.291 227.777 153.291 227.876V236.605Z" fill="#cd77fe"></path>
  <path d="M150.337 263.073C153.334 263.09 156.227 261.973 158.435 259.946C160.644 257.92 162.005 255.134 162.246 252.146L161.126 252.049C160.909 254.783 159.662 257.333 157.638 259.183C155.613 261.034 152.962 262.047 150.219 262.018C147.477 261.989 144.847 260.92 142.862 259.027C140.877 257.135 139.685 254.559 139.525 251.821V232.957L146.947 228.787V236.231H148.067V227.831C148.066 227.733 148.04 227.638 147.991 227.553C147.942 227.469 147.872 227.398 147.788 227.349C147.704 227.3 147.608 227.273 147.51 227.272C147.413 227.271 147.316 227.295 147.231 227.342L138.693 232.139C138.606 232.188 138.533 232.259 138.483 232.345C138.432 232.431 138.405 232.529 138.405 232.628V251.855C138.6 254.89 139.94 257.737 142.156 259.82C144.371 261.903 147.296 263.066 150.337 263.073V263.073Z" fill="#cd77fe"></path>
  <path d="M149.931 240.711H151.051V245.937H149.931V240.711Z" fill="#cd77fe"></path>
  <path d="M150.083 240.711H151.267C152.1 240.71 152.899 240.379 153.488 239.789C154.078 239.2 154.409 238.401 154.41 237.568V232.281C154.409 231.448 154.078 230.649 153.488 230.06C152.899 229.47 152.1 229.139 151.267 229.138H150.083C149.25 229.139 148.452 229.471 147.863 230.06C147.274 230.649 146.944 231.448 146.944 232.281V237.568C146.944 238.401 147.274 239.2 147.863 239.789C148.452 240.379 149.25 240.71 150.083 240.711V240.711ZM151.267 230.258C151.803 230.258 152.318 230.471 152.698 230.851C153.077 231.23 153.29 231.745 153.29 232.281V237.568C153.29 237.833 153.238 238.097 153.136 238.342C153.034 238.588 152.885 238.811 152.698 238.998C152.51 239.186 152.287 239.335 152.041 239.437C151.796 239.539 151.532 239.591 151.267 239.591H150.083C149.547 239.59 149.034 239.377 148.655 238.997C148.276 238.618 148.064 238.104 148.064 237.568V232.281C148.064 231.745 148.276 231.231 148.655 230.852C149.034 230.473 149.547 230.259 150.083 230.258H151.267Z" fill="#cd77fe"></path>
  <line x1="150.656" y1="231.7" x2="150.656" y2="233.903" stroke="#cd77fe" stroke-width="0.71"></line>
  <line x1="150.656" y1="235.7" x2="150.656" y2="237.903" stroke="#cd77fe" stroke-width="0.71"></line>
  <path d="M176.062 209.186C176.062 209.186 174.378 201.067 174.701 198.278C175.024 195.49 177.53 193.164 179.673 192.859C179.673 192.859 185.418 185.763 192.39 190.474C199.361 195.185 196.913 208.39 196.913 208.39C192.892 208.198 189.05 206.671 185.994 204.05C180.832 199.647 180.087 196.587 180.087 196.587C178.227 197.922 176.896 199.871 176.33 202.091C175.79 204.417 175.699 206.826 176.062 209.186V209.186Z" fill="white"></path>
  <path d="M192.84 256.759C192.84 256.759 194.773 245.054 196.509 241.367C198.244 237.68 203.359 232.91 205.681 231.307L221.414 242.083L239.664 228.441C239.664 228.441 243.824 229.773 248.135 237.581C252.447 245.388 252.968 255.841 252.968 255.841C252.968 255.841 235.066 260.182 221.414 259.756C207.762 259.331 192.84 256.759 192.84 256.759Z" fill="white"></path>
  <path d="M229.464 220.391H228.363V227.905H229.464V220.391Z" fill="#cd77fe"></path>
  <path d="M250.245 255.012L248.667 246.206C246.378 238.663 241.3 232.631 234.725 229.652L228.293 226.717L228.752 225.737L235.183 228.672C242.048 231.787 247.346 238.083 249.727 245.946C249.727 245.964 249.727 245.986 249.727 246.008L251.309 254.814L250.245 255.012Z" fill="#cd77fe"></path>
  <path d="M191.434 254.638L190.355 254.414L192.095 245.976C192.093 245.96 192.093 245.944 192.095 245.928C194.472 238.065 199.77 231.769 206.628 228.654L213.056 225.719L213.511 226.724L207.104 229.667C200.541 232.646 195.466 238.685 193.162 246.232L191.434 254.638Z" fill="#cd77fe"></path>
  <path d="M213.499 219.456H212.398V227.906H213.499V219.456Z" fill="#cd77fe"></path>
  <path d="M220.976 240.124C220.871 240.127 220.768 240.1 220.679 240.046L205.801 230.012L206.417 229.102L220.983 238.924L235.032 229.274L235.656 230.184L221.288 240.046C221.194 240.103 221.085 240.13 220.976 240.124V240.124Z" fill="#cd77fe"></path>
  <path d="M221.806 224.394C219.67 224.391 217.598 223.657 215.936 222.314L212.964 219.933C210.26 217.765 208.646 214.591 208.646 211.439V201.676C208.183 201.676 207.706 201.647 207.215 201.588L207.321 200.487C217.521 201.485 220.266 194.092 220.291 194.019C220.328 193.915 220.395 193.826 220.484 193.761C220.572 193.696 220.678 193.659 220.788 193.654C220.897 193.65 221.006 193.679 221.099 193.736C221.192 193.794 221.266 193.878 221.311 193.978L222.61 196.87C226.521 194.954 226.745 189.267 226.745 189.205C226.748 189.109 226.776 189.016 226.826 188.934C226.876 188.852 226.947 188.785 227.031 188.739C227.115 188.693 227.21 188.67 227.306 188.672C227.402 188.674 227.496 188.701 227.578 188.75C227.882 188.93 235.099 193.3 235.099 201.28V211.318C235.099 214.433 233.397 217.732 230.656 219.929L227.684 222.311C226.02 223.655 223.946 224.391 221.806 224.394V224.394ZM209.743 201.676V211.428C209.743 214.25 211.21 217.104 213.647 219.063L216.619 221.445C218.086 222.632 219.917 223.28 221.805 223.28C223.693 223.28 225.523 222.632 226.991 221.445L229.963 219.063C232.45 217.067 233.999 214.099 233.999 211.311V201.283C233.999 195.413 229.563 191.535 227.761 190.21C227.504 192.184 226.492 196.594 222.526 198.11C222.394 198.16 222.248 198.157 222.118 198.103C221.988 198.05 221.883 197.948 221.825 197.82L220.787 195.497C219.638 197.486 216.512 201.463 209.743 201.676Z" fill="#cd77fe"></path>
  <path d="M238.852 208.185H237.751V185.613C237.744 184.574 237.604 183.541 237.333 182.538C236.782 180.455 235.655 178.568 234.081 177.095C232.508 175.622 230.551 174.622 228.435 174.21L218.379 172.236V176.096C218.38 176.21 218.345 176.322 218.279 176.415C218.213 176.509 218.12 176.579 218.012 176.617L211.232 178.818C209.247 179.466 207.52 180.727 206.298 182.42C205.076 184.112 204.423 186.149 204.433 188.236V208.177H203.332V188.244C203.322 185.923 204.048 183.66 205.406 181.779C206.764 179.898 208.685 178.496 210.89 177.776L217.293 175.696V171.568C217.293 171.487 217.311 171.407 217.346 171.333C217.38 171.26 217.431 171.195 217.494 171.143C217.557 171.092 217.63 171.055 217.709 171.035C217.788 171.015 217.87 171.013 217.949 171.029L228.663 173.131C230.98 173.582 233.123 174.677 234.847 176.29C236.571 177.904 237.805 179.97 238.408 182.252C238.705 183.347 238.859 184.475 238.866 185.609L238.852 208.185Z" fill="#cd77fe"></path>
  <path d="M191.901 220.391H190.801V226.966H191.901V220.391Z" fill="#cd77fe"></path>
  <path d="M201.38 231.681C199.81 230.006 197.928 228.654 195.84 227.7L191.07 225.539L191.525 224.537L196.295 226.694C198.507 227.711 200.5 229.146 202.165 230.921L201.38 231.681Z" fill="#cd77fe"></path>
  <path d="M180.632 220.391H179.531V226.966H180.632V220.391Z" fill="#cd77fe"></path>
  <path d="M185.713 235.452C185.603 235.454 185.496 235.422 185.405 235.361L174.387 227.938L175.003 227.025L185.709 234.238L196.034 227.149L196.654 228.056L186.014 235.357C185.925 235.418 185.82 235.451 185.713 235.452V235.452Z" fill="#cd77fe"></path>
  <path d="M185.764 223.796C184.149 223.796 182.582 223.241 181.325 222.226L179.123 220.461C177.058 218.806 175.777 216.319 175.777 213.971V206.534C175.777 201.892 181.215 199.012 181.446 198.891C181.547 198.839 181.661 198.819 181.773 198.834C181.885 198.849 181.99 198.899 182.073 198.975C182.15 199.045 189.83 206.046 196.515 205.803L196.555 206.904C196.258 206.904 195.961 206.904 195.66 206.904V214.062C195.625 215.304 195.316 216.523 194.753 217.63C194.19 218.737 193.388 219.705 192.405 220.465L190.204 222.23C188.946 223.244 187.38 223.797 185.764 223.796V223.796ZM181.629 200.054C180.507 200.726 176.878 203.162 176.878 206.534V213.971C176.878 215.996 178.001 218.153 179.813 219.603L182.015 221.367C183.075 222.227 184.399 222.696 185.764 222.696C187.13 222.696 188.454 222.227 189.514 221.367L191.716 219.603C192.57 218.946 193.267 218.108 193.758 217.15C194.249 216.191 194.522 215.135 194.555 214.059V206.798C188.729 206.005 183.005 201.261 181.629 200.054Z" fill="#cd77fe"></path>
  <path d="M198.108 211.189L197.026 210.977L198.442 203.804C199.726 198.575 198.108 195.075 196.527 193.054C194.01 189.847 190.209 188.409 187.556 188.409C182.588 188.409 179.517 192.5 179.484 192.54C179.441 192.599 179.386 192.649 179.323 192.687C179.26 192.725 179.19 192.75 179.117 192.76C177.672 192.932 176.38 193.758 175.375 195.141C173.83 197.258 173.243 200.421 173.83 203.356L175.129 210.973L174.028 211.156L172.733 203.558C172.08 200.292 172.733 196.906 174.461 194.51C174.954 193.786 175.585 193.167 176.318 192.687C177.051 192.207 177.871 191.877 178.732 191.714C179.436 190.841 182.584 187.312 187.537 187.312C190.473 187.312 194.63 188.878 197.374 192.378C199.106 194.58 200.882 198.41 199.495 204.046L198.108 211.189Z" fill="#cd77fe"></path>
  <path d="M251.999 220.391H250.898V226.966H251.999V220.391Z" fill="#cd77fe"></path>
  <path d="M240.386 232.756L239.531 232.059C241.385 229.767 243.742 227.932 246.418 226.695L251.188 224.538L251.639 225.539L246.869 227.7C244.349 228.865 242.13 230.595 240.386 232.756V232.756Z" fill="#cd77fe"></path>
  <path d="M263.273 220.391H262.172V226.966H263.273V220.391Z" fill="#cd77fe"></path>
  <path d="M257.003 235.453C256.891 235.454 256.782 235.421 256.691 235.357L246.051 228.056L246.675 227.15L257.003 234.238L267.709 227.018L268.325 227.931L257.318 235.361C257.225 235.422 257.115 235.454 257.003 235.453V235.453Z" fill="#cd77fe"></path>
  <path d="M257.037 223.796C255.421 223.796 253.854 223.241 252.597 222.226L250.396 220.461C249.413 219.702 248.611 218.733 248.048 217.626C247.485 216.519 247.176 215.3 247.141 214.059V206.901C246.844 206.901 246.543 206.901 246.246 206.901L246.286 205.8C252.979 206.042 260.651 199.041 260.728 198.972C260.811 198.895 260.916 198.845 261.028 198.83C261.14 198.815 261.255 198.835 261.355 198.887C261.586 199.008 267.024 201.889 267.024 206.53V213.967C267.024 216.315 265.743 218.803 263.678 220.457L261.476 222.222C260.22 223.239 258.653 223.794 257.037 223.796V223.796ZM248.231 206.798V214.059C248.265 215.135 248.537 216.191 249.028 217.15C249.519 218.108 250.217 218.946 251.071 219.603L253.272 221.367C254.333 222.227 255.657 222.696 257.022 222.696C258.387 222.696 259.711 222.227 260.772 221.367L262.973 219.603C264.782 218.153 265.908 215.992 265.908 213.971V206.534C265.908 203.162 262.28 200.726 261.161 200.054C259.796 201.261 254.065 206.005 248.242 206.798H248.231Z" fill="#cd77fe"></path>
  <path d="M244.605 211.19L243.192 204.017C241.813 198.407 243.588 194.587 245.324 192.375C248.065 188.875 252.24 187.308 255.157 187.308C260.114 187.308 263.262 190.827 263.962 191.711C264.823 191.873 265.642 192.204 266.374 192.684C267.107 193.163 267.737 193.783 268.23 194.507C269.965 196.903 270.611 200.289 269.954 203.569L268.662 211.153L267.562 210.97L268.879 203.356C269.47 200.403 268.879 197.258 267.345 195.141C266.344 193.758 265.048 192.94 263.607 192.76C263.534 192.751 263.463 192.726 263.4 192.688C263.337 192.65 263.283 192.6 263.24 192.54C263.207 192.5 260.139 188.409 255.168 188.409C252.519 188.409 248.714 189.847 246.201 193.054C244.616 195.075 242.998 198.576 244.278 203.782L245.698 210.977L244.605 211.19Z" fill="#cd77fe"></path>
  <path d="M221.779 266.049C208.171 266.049 195.924 264.361 185.379 261.037L185.709 259.987C196.147 263.289 208.281 264.948 221.779 264.948C233.116 264.948 243.558 263.73 252.812 261.33L253.09 262.398C243.742 264.819 233.208 266.049 221.779 266.049Z" fill="#3C39C6"></path>
  <path d="M256.69 261.382L256.371 260.329C257.608 259.962 258.833 259.554 260.022 259.136L260.389 260.175C259.2 260.593 257.941 261.004 256.69 261.382Z" fill="#3C39C6"></path>
  <path d="M221.778 259.492C196.462 259.492 176.591 253.457 164.355 242.035C164.279 241.965 164.225 241.874 164.198 241.774C164.172 241.674 164.174 241.569 164.204 241.47C165.793 236.212 169.587 229.19 175.046 226.713L179.816 224.556L180.271 225.558L175.501 227.719C170.489 229.99 166.938 236.466 165.36 241.463C177.405 252.521 196.902 258.392 221.778 258.392C246.041 258.392 265.285 252.653 277.463 241.789C275.94 236.752 272.345 230.048 267.223 227.719L262.453 225.558L262.908 224.556L267.678 226.713C273.133 229.19 276.927 236.212 278.516 241.47L278.615 241.815C278.644 241.914 278.644 242.019 278.617 242.118C278.589 242.217 278.533 242.307 278.457 242.376C266.082 253.556 246.485 259.492 221.778 259.492Z" fill="#cd77fe"></path>
  <path d="M278.913 244.071C278.321 242.455 279.89 240.875 281.519 241.466L294.226 246.134L306.848 250.778C308.477 251.381 308.646 253.625 307.125 254.457L297.291 259.837L291.909 269.669C291.076 271.201 288.832 271.032 288.228 269.391L283.582 256.773L278.913 244.071Z" fill="#3C39C6" stroke="#3C39C6" stroke-width="0.71" stroke-miterlimit="10"></path>
  <path d="M280.65 227.208L282.702 235.434L288.602 229.343L286.274 237.485L294.419 235.157L288.325 241.056L296.555 243.106L288.325 245.169L294.419 251.056L286.274 248.727L288.602 256.882L282.702 250.79L280.65 259.005L278.587 250.79L272.698 256.882L275.027 248.727L266.87 251.056L272.964 245.169L264.746 243.106L272.964 241.056L266.87 235.157L275.027 237.485L272.698 229.343L278.587 235.434L280.65 227.208Z" fill="white" stroke="#cd77fe" stroke-width="0.71" stroke-miterlimit="10"></path>
  <path fill-rule="evenodd" clip-rule="evenodd" d="M290.275 244.681L288.329 245.169L294.422 251.055L286.277 248.727L288.606 256.882L282.705 250.79L282.172 252.926L278.916 244.071C278.325 242.455 279.894 240.874 281.523 241.466L290.275 244.681Z" fill="#3C39C6"></path>
  <path d="M290.275 244.681L290.361 245.025L291.479 244.745L290.397 244.348L290.275 244.681ZM288.329 245.169L288.242 244.824L287.622 244.98L288.082 245.424L288.329 245.169ZM294.422 251.055L294.325 251.397L295.691 251.787L294.669 250.8L294.422 251.055ZM286.277 248.727L286.375 248.386L285.76 248.21L285.936 248.825L286.277 248.727ZM288.606 256.882L288.351 257.129L289.336 258.146L288.947 256.784L288.606 256.882ZM282.705 250.79L282.96 250.543L282.516 250.084L282.361 250.704L282.705 250.79ZM282.172 252.926L281.839 253.048L282.237 254.131L282.516 253.012L282.172 252.926ZM278.916 244.071L278.583 244.193L278.583 244.194L278.916 244.071ZM281.523 241.466L281.645 241.132L281.644 241.132L281.523 241.466ZM290.188 244.337L288.242 244.824L288.415 245.513L290.361 245.025L290.188 244.337ZM288.082 245.424L294.176 251.311L294.669 250.8L288.575 244.913L288.082 245.424ZM294.52 250.714L286.375 248.386L286.18 249.069L294.325 251.397L294.52 250.714ZM285.936 248.825L288.265 256.979L288.947 256.784L286.618 248.63L285.936 248.825ZM288.861 256.635L282.96 250.543L282.45 251.037L288.351 257.129L288.861 256.635ZM282.361 250.704L281.828 252.84L282.516 253.012L283.05 250.876L282.361 250.704ZM282.505 252.803L279.25 243.949L278.583 244.194L281.839 253.048L282.505 252.803ZM279.25 243.949C278.762 242.616 280.056 241.311 281.402 241.799L281.644 241.132C279.731 240.438 277.888 242.293 278.583 244.193L279.25 243.949ZM281.4 241.799L290.152 245.014L290.397 244.348L281.645 241.132L281.4 241.799Z" fill="white"></path>
  <path d="M235.184 251.75L231.994 246.875H238.374L235.184 251.75Z" fill="#3C39C6"></path>
  <defs>
    <linearGradient id="paint0_linear_412_1499" x1="336" y1="275" x2="346.5" y2="282" gradientUnits="userSpaceOnUse">
      <stop></stop>
      <stop offset="1" stop-opacity="0"></stop>
    </linearGradient>
    <linearGradient id="paint1_linear_412_1499" x1="273" y1="314" x2="278" y2="316.894" gradientUnits="userSpaceOnUse">
      <stop></stop>
      <stop offset="1" stop-opacity="0"></stop>
    </linearGradient>
  </defs>
</svg>
