<svg width="440" height="440" viewBox="0 0 440 440" fill="none" xmlns="http://www.w3.org/2000/svg">
<path fill-rule="evenodd" clip-rule="evenodd" d="M253.006 216.892L231.385 238.42C228.519 241.276 224.631 242.88 220.577 242.88C216.522 242.881 212.634 241.277 209.767 238.422C206.9 235.568 205.289 231.695 205.288 227.658C205.288 223.62 206.898 219.748 209.765 216.892L231.381 195.36L253.006 216.892Z" fill="white"/>
<path fill-rule="evenodd" clip-rule="evenodd" d="M210.311 216.892L184.317 242.88H141.246L188.778 195.36L210.311 216.892Z" fill="white"/>
<path d="M197.566 0.5C209.535 0.5 220.988 6.56155 231.457 17.6318C241.927 28.7032 251.379 44.751 259.327 64.6221C275.223 104.362 285.066 159.296 285.066 220C285.066 280.704 275.223 335.638 259.327 375.378C251.379 395.249 241.927 411.297 231.457 422.368C220.988 433.438 209.535 439.5 197.566 439.5C185.598 439.5 174.145 433.438 163.676 422.368C153.206 411.297 143.754 395.249 135.806 375.378C119.91 335.638 110.066 280.704 110.066 220C110.066 159.296 119.91 104.362 135.806 64.6221C143.754 44.751 153.206 28.7032 163.676 17.6318C174.145 6.56155 185.598 0.5 197.566 0.5Z" stroke="#808080"/>
<path d="M387.659 110.25C393.643 120.615 394.12 133.565 389.767 148.166C385.415 162.769 376.242 178.979 363.008 195.798C336.54 229.434 293.887 265.426 241.316 295.777C188.745 326.129 136.249 345.072 93.8853 351.176C72.7022 354.228 54.0787 354.066 39.2555 350.534C24.4337 347.003 13.4578 340.115 7.47361 329.75C1.48938 319.385 1.01238 306.436 5.3649 291.834C9.71784 277.231 18.8899 261.022 32.1246 244.203C58.5922 210.567 101.245 174.575 153.816 144.223C206.387 113.871 258.884 94.9285 301.247 88.8249C322.43 85.773 341.054 85.9342 355.877 89.4661C370.699 92.9976 381.675 99.8853 387.659 110.25Z" stroke="#808080"/>
<path d="M387.659 329.75C381.675 340.115 370.699 347.003 355.877 350.534C341.054 354.066 322.43 354.228 301.247 351.176C258.884 345.072 206.387 326.129 153.816 295.777C101.245 265.425 58.5922 229.434 32.1246 195.798C18.89 178.979 9.71786 162.769 5.36492 148.166C1.0124 133.565 1.4894 120.615 7.47363 110.25C13.4579 99.8853 24.4338 92.9975 39.2556 89.466C54.0787 85.9342 72.7022 85.7729 93.8853 88.8249C136.249 94.9285 188.745 113.871 241.316 144.223C293.887 174.575 336.54 210.567 363.008 244.203C376.242 261.022 385.415 277.231 389.767 291.834C394.12 306.436 393.643 319.385 387.659 329.75Z" stroke="#808080"/>
<rect x="341.007" y="292.5" width="94" height="43" rx="7.5" fill="black"/>
<rect x="341.007" y="292.5" width="94" height="43" rx="7.5" stroke="#2D69FB"/>
<path d="M352.554 321H350.394V306.7H353.294L357.414 317.94H357.454L361.594 306.7H364.494V321H362.334V309.9H362.294L358.354 321H356.534L352.594 309.9H352.554V321ZM369.632 321.28C367.592 321.28 366.292 320.1 366.292 318.36C366.292 316.08 368.012 315.4 370.552 314.92C372.152 314.62 373.132 314.42 373.132 313.42C373.132 312.68 372.692 312.06 371.192 312.06C369.412 312.06 368.872 312.62 368.772 313.98H366.772C366.872 312.02 368.152 310.48 371.272 310.48C373.372 310.48 375.052 311.36 375.052 314V318.68C375.052 319.42 375.152 319.8 375.532 319.8C375.592 319.8 375.652 319.8 375.772 319.78V320.98C375.432 321.06 375.092 321.1 374.772 321.1C373.792 321.1 373.272 320.72 373.152 319.56H373.112C372.452 320.62 371.292 321.28 369.632 321.28ZM370.072 319.7C371.832 319.7 373.132 318.8 373.132 317.02V315.56C372.812 315.86 371.932 316.08 370.892 316.3C369.092 316.66 368.332 317.16 368.332 318.22C368.332 319.18 368.852 319.7 370.072 319.7ZM382.797 310.5C384.677 310.5 386.197 311.58 386.197 313.92V321H384.237V314.46C384.237 313.1 383.637 312.18 382.157 312.18C380.477 312.18 379.397 313.2 379.397 314.74V321H377.437V310.8H379.397V312.08H379.437C379.977 311.3 381.037 310.5 382.797 310.5ZM391.136 321.28C389.096 321.28 387.796 320.1 387.796 318.36C387.796 316.08 389.516 315.4 392.056 314.92C393.656 314.62 394.636 314.42 394.636 313.42C394.636 312.68 394.196 312.06 392.696 312.06C390.916 312.06 390.376 312.62 390.276 313.98H388.276C388.376 312.02 389.656 310.48 392.776 310.48C394.876 310.48 396.556 311.36 396.556 314V318.68C396.556 319.42 396.656 319.8 397.036 319.8C397.096 319.8 397.156 319.8 397.276 319.78V320.98C396.936 321.06 396.596 321.1 396.276 321.1C395.296 321.1 394.776 320.72 394.656 319.56H394.616C393.956 320.62 392.796 321.28 391.136 321.28ZM391.576 319.7C393.336 319.7 394.636 318.8 394.636 317.02V315.56C394.316 315.86 393.436 316.08 392.396 316.3C390.596 316.66 389.836 317.16 389.836 318.22C389.836 319.18 390.356 319.7 391.576 319.7ZM406.024 312V310.8H407.984V320.2C407.984 323.28 406.124 324.66 403.204 324.66C400.284 324.66 398.824 323.26 398.624 321.42H400.664C400.864 322.34 401.544 323.06 403.204 323.06C405.064 323.06 406.024 322.24 406.024 320.32V318.94H405.984C405.424 319.76 404.484 320.48 402.844 320.48C400.304 320.48 398.344 318.76 398.344 315.5C398.344 312.22 400.304 310.5 402.844 310.5C404.484 310.5 405.424 311.28 405.984 312H406.024ZM403.204 318.86C404.964 318.86 406.004 317.72 406.004 315.5C406.004 313.26 404.964 312.14 403.204 312.14C401.284 312.14 400.384 313.58 400.384 315.5C400.384 317.42 401.284 318.86 403.204 318.86ZM419.531 315.68C419.531 315.96 419.531 316.26 419.511 316.42H411.671C411.711 318.12 412.711 319.7 414.731 319.7C416.531 319.7 417.231 318.54 417.411 317.86H419.411C418.871 319.82 417.371 321.3 414.691 321.3C411.451 321.3 409.651 319 409.651 315.88C409.651 312.68 411.571 310.48 414.691 310.48C417.791 310.48 419.531 312.52 419.531 315.68ZM411.671 314.88H417.491C417.491 313.28 416.371 312.08 414.631 312.08C412.991 312.08 411.791 313.2 411.671 314.88ZM425.927 310.56C426.287 310.56 426.567 310.58 426.867 310.62V312.5C426.627 312.46 426.447 312.44 426.207 312.44C424.427 312.44 423.147 313.78 423.147 315.72V321H421.187V310.8H423.147V312.74H423.187C423.727 311.46 424.547 310.56 425.927 310.56Z" fill="#2D69FB"/>
<path d="M341.35 289.355L339.537 289.966C339.036 290.133 338.636 290.521 338.469 291.032L337.857 292.842C337.334 294.408 335.132 294.375 334.642 292.809L332.585 286.202C332.184 284.892 333.397 283.67 334.698 284.081L341.328 286.135C342.885 286.624 342.907 288.834 341.35 289.355Z" fill="#2D69FB"/>
<rect x="242.007" y="50.5" width="139" height="43" rx="7.5" fill="black"/>
<rect x="242.007" y="50.5" width="139" height="43" rx="7.5" stroke="#F66979"/>
<path d="M256.047 79H253.667L250.107 64.7H252.407L254.927 75.96H254.967L257.927 64.7H260.247L263.227 75.96H263.267L265.787 64.7H268.087L264.507 79H262.147L259.107 67.5H259.067L256.047 79ZM277.963 73.68C277.963 73.96 277.963 74.26 277.943 74.42H270.103C270.143 76.12 271.143 77.7 273.163 77.7C274.963 77.7 275.663 76.54 275.843 75.86H277.843C277.303 77.82 275.803 79.3 273.123 79.3C269.883 79.3 268.083 77 268.083 73.88C268.083 70.68 270.003 68.48 273.123 68.48C276.223 68.48 277.963 70.52 277.963 73.68ZM270.103 72.88H275.923C275.923 71.28 274.803 70.08 273.063 70.08C271.423 70.08 270.223 71.2 270.103 72.88ZM284.759 68.5C287.359 68.5 289.339 70.54 289.339 73.9C289.339 77.26 287.359 79.28 284.759 79.28C283.159 79.28 282.179 78.56 281.619 77.74H281.579V79H279.619V64.7H281.579V70H281.619C282.179 69.28 283.159 68.5 284.759 68.5ZM284.439 77.66C286.359 77.66 287.279 75.9 287.279 73.9C287.279 71.9 286.359 70.14 284.439 70.14C282.679 70.14 281.599 71.58 281.599 73.9C281.599 76.2 282.679 77.66 284.439 77.66ZM301.004 79H295.524V64.7H300.964C304.924 64.7 307.324 67.26 307.324 71.86C307.324 76.46 304.964 79 301.004 79ZM297.724 77.1H300.864C304.184 77.1 305.044 74.62 305.044 71.86C305.044 69.1 304.184 66.6 300.864 66.6H297.724V77.1ZM318.51 73.68C318.51 73.96 318.51 74.26 318.49 74.42H310.65C310.69 76.12 311.69 77.7 313.71 77.7C315.51 77.7 316.21 76.54 316.39 75.86H318.39C317.85 77.82 316.35 79.3 313.67 79.3C310.43 79.3 308.63 77 308.63 73.88C308.63 70.68 310.55 68.48 313.67 68.48C316.77 68.48 318.51 70.52 318.51 73.68ZM310.65 72.88H316.47C316.47 71.28 315.35 70.08 313.61 70.08C311.97 70.08 310.77 71.2 310.65 72.88ZM324.185 79.28C321.085 79.28 319.545 77.68 319.485 75.6H321.465C321.545 76.78 322.265 77.7 324.165 77.7C325.885 77.7 326.345 76.94 326.345 76.2C326.345 74.92 324.985 74.78 323.665 74.5C321.885 74.08 319.845 73.56 319.845 71.44C319.845 69.68 321.265 68.5 323.725 68.5C326.525 68.5 327.865 70 328.005 71.76H326.025C325.885 70.98 325.465 70.08 323.765 70.08C322.445 70.08 321.885 70.6 321.885 71.36C321.885 72.42 323.025 72.52 324.465 72.84C326.345 73.28 328.385 73.82 328.385 76.1C328.385 78.08 326.865 79.28 324.185 79.28ZM332.031 66.98H329.811V64.86H332.031V66.98ZM331.891 79H329.931V68.8H331.891V79ZM341.291 70V68.8H343.251V78.2C343.251 81.28 341.391 82.66 338.471 82.66C335.551 82.66 334.091 81.26 333.891 79.42H335.931C336.131 80.34 336.811 81.06 338.471 81.06C340.331 81.06 341.291 80.24 341.291 78.32V76.94H341.251C340.691 77.76 339.751 78.48 338.111 78.48C335.571 78.48 333.611 76.76 333.611 73.5C333.611 70.22 335.571 68.5 338.111 68.5C339.751 68.5 340.691 69.28 341.251 70H341.291ZM338.471 76.86C340.231 76.86 341.271 75.72 341.271 73.5C341.271 71.26 340.231 70.14 338.471 70.14C336.551 70.14 335.651 71.58 335.651 73.5C335.651 75.42 336.551 76.86 338.471 76.86ZM350.799 68.5C352.679 68.5 354.199 69.58 354.199 71.92V79H352.239V72.46C352.239 71.1 351.639 70.18 350.159 70.18C348.479 70.18 347.399 71.2 347.399 72.74V79H345.439V68.8H347.399V70.08H347.439C347.979 69.3 349.039 68.5 350.799 68.5ZM365.678 73.68C365.678 73.96 365.678 74.26 365.658 74.42H357.818C357.858 76.12 358.858 77.7 360.878 77.7C362.678 77.7 363.378 76.54 363.558 75.86H365.558C365.018 77.82 363.518 79.3 360.838 79.3C357.598 79.3 355.798 77 355.798 73.88C355.798 70.68 357.718 68.48 360.838 68.48C363.938 68.48 365.678 70.52 365.678 73.68ZM357.818 72.88H363.638C363.638 71.28 362.518 70.08 360.778 70.08C359.138 70.08 357.938 71.2 357.818 72.88ZM372.073 68.56C372.433 68.56 372.713 68.58 373.013 68.62V70.5C372.773 70.46 372.593 70.44 372.353 70.44C370.573 70.44 369.293 71.78 369.293 73.72V79H367.333V68.8H369.293V70.74H369.333C369.873 69.46 370.693 68.56 372.073 68.56Z" fill="#F66979"/>
<path d="M242.35 47.3555L240.537 47.9662C240.036 48.1328 239.636 48.5214 239.469 49.0322L238.857 50.8422C238.334 52.408 236.132 52.3746 235.642 50.8089L233.585 44.2019C233.184 42.8916 234.397 41.6701 235.698 42.0809L242.328 44.1352C243.885 44.6238 243.907 46.8336 242.35 47.3555Z" fill="#F66979"/>
<rect x="88.0068" y="322.5" width="100" height="43" rx="7.5" fill="black"/>
<rect x="88.0068" y="322.5" width="100" height="43" rx="7.5" stroke="#D278FE"/>
<path d="M102.746 351.28C99.1263 351.28 96.5863 349.4 96.4263 346.18H98.7063C98.8663 348.1 100.006 349.4 102.686 349.4C104.986 349.4 105.686 348.4 105.686 347.1C105.686 345.28 104.286 345.02 101.686 344.36C99.4463 343.76 96.9863 343.04 96.9863 340.32C96.9863 337.84 98.9063 336.42 101.986 336.42C105.246 336.42 107.366 338.08 107.586 340.96H105.306C105.066 339.24 104.086 338.3 102.006 338.3C100.206 338.3 99.2863 338.96 99.2863 340.2C99.2863 341.8 100.786 342.14 102.626 342.6C105.386 343.3 107.986 343.96 107.986 346.98C107.986 349.44 106.326 351.28 102.746 351.28ZM113.306 349.5C113.646 349.5 113.806 349.48 114.146 349.42V351C113.646 351.1 113.326 351.12 112.906 351.12C111.226 351.12 110.206 350.48 110.206 348.12V342.42H108.726V340.8H110.206V337.52H112.166V340.8H114.126V342.42H112.166V348.18C112.166 349.26 112.466 349.5 113.306 349.5ZM120.497 340.56C120.857 340.56 121.137 340.58 121.437 340.62V342.5C121.197 342.46 121.017 342.44 120.777 342.44C118.997 342.44 117.717 343.78 117.717 345.72V351H115.757V340.8H117.717V342.74H117.757C118.297 341.46 119.117 340.56 120.497 340.56ZM125.179 351.28C123.139 351.28 121.839 350.1 121.839 348.36C121.839 346.08 123.559 345.4 126.099 344.92C127.699 344.62 128.679 344.42 128.679 343.42C128.679 342.68 128.239 342.06 126.739 342.06C124.959 342.06 124.419 342.62 124.319 343.98H122.319C122.419 342.02 123.699 340.48 126.819 340.48C128.919 340.48 130.599 341.36 130.599 344V348.68C130.599 349.42 130.699 349.8 131.079 349.8C131.139 349.8 131.199 349.8 131.319 349.78V350.98C130.979 351.06 130.639 351.1 130.319 351.1C129.339 351.1 128.819 350.72 128.699 349.56H128.659C127.999 350.62 126.839 351.28 125.179 351.28ZM125.619 349.7C127.379 349.7 128.679 348.8 128.679 347.02V345.56C128.359 345.86 127.479 346.08 126.439 346.3C124.639 346.66 123.879 347.16 123.879 348.22C123.879 349.18 124.399 349.7 125.619 349.7ZM136.548 349.5C136.888 349.5 137.048 349.48 137.388 349.42V351C136.888 351.1 136.568 351.12 136.148 351.12C134.468 351.12 133.448 350.48 133.448 348.12V342.42H131.968V340.8H133.448V337.52H135.408V340.8H137.368V342.42H135.408V348.18C135.408 349.26 135.708 349.5 136.548 349.5ZM148.145 345.68C148.145 345.96 148.145 346.26 148.125 346.42H140.285C140.325 348.12 141.325 349.7 143.345 349.7C145.145 349.7 145.845 348.54 146.025 347.86H148.025C147.485 349.82 145.985 351.3 143.305 351.3C140.065 351.3 138.265 349 138.265 345.88C138.265 342.68 140.185 340.48 143.305 340.48C146.405 340.48 148.145 342.52 148.145 345.68ZM140.285 344.88H146.105C146.105 343.28 144.985 342.08 143.245 342.08C141.605 342.08 140.405 343.2 140.285 344.88ZM157 342V340.8H158.96V350.2C158.96 353.28 157.1 354.66 154.18 354.66C151.26 354.66 149.8 353.26 149.6 351.42H151.64C151.84 352.34 152.52 353.06 154.18 353.06C156.04 353.06 157 352.24 157 350.32V348.94H156.96C156.4 349.76 155.46 350.48 153.82 350.48C151.28 350.48 149.32 348.76 149.32 345.5C149.32 342.22 151.28 340.5 153.82 340.5C155.46 340.5 156.4 341.28 156.96 342H157ZM154.18 348.86C155.94 348.86 156.98 347.72 156.98 345.5C156.98 343.26 155.94 342.14 154.18 342.14C152.26 342.14 151.36 343.58 151.36 345.5C151.36 347.42 152.26 348.86 154.18 348.86ZM163.248 338.98H161.028V336.86H163.248V338.98ZM163.108 351H161.148V340.8H163.108V351ZM169.328 351.28C166.228 351.28 164.688 349.68 164.628 347.6H166.608C166.688 348.78 167.408 349.7 169.308 349.7C171.028 349.7 171.488 348.94 171.488 348.2C171.488 346.92 170.128 346.78 168.808 346.5C167.028 346.08 164.988 345.56 164.988 343.44C164.988 341.68 166.408 340.5 168.868 340.5C171.668 340.5 173.008 342 173.148 343.76H171.168C171.028 342.98 170.608 342.08 168.908 342.08C167.588 342.08 167.028 342.6 167.028 343.36C167.028 344.42 168.168 344.52 169.608 344.84C171.488 345.28 173.528 345.82 173.528 348.1C173.528 350.08 172.008 351.28 169.328 351.28ZM178.716 349.5C179.056 349.5 179.216 349.48 179.556 349.42V351C179.056 351.1 178.736 351.12 178.316 351.12C176.636 351.12 175.616 350.48 175.616 348.12V342.42H174.136V340.8H175.616V337.52H177.576V340.8H179.536V342.42H177.576V348.18C177.576 349.26 177.876 349.5 178.716 349.5Z" fill="#D278FE"/>
<path d="M88.3499 319.355L86.5368 319.966C86.0362 320.133 85.6358 320.521 85.4689 321.032L84.8572 322.842C84.3343 324.408 82.1319 324.375 81.6425 322.809L79.5846 316.202C79.1842 314.892 80.3966 313.67 81.6981 314.081L88.3277 316.135C89.885 316.624 89.9072 318.834 88.3499 319.355Z" fill="#D278FE"/>
<rect x="57.0068" y="129.5" width="80" height="43" rx="7.5" fill="black"/>
<rect x="57.0068" y="129.5" width="80" height="43" rx="7.5" stroke="#FBA05A"/>
<path d="M67.1314 158H64.8114L70.1314 143.7H72.5114L77.8714 158H75.4714L74.2914 154.56H68.3114L67.1314 158ZM71.2914 145.74L68.9714 152.7H73.6714L71.3314 145.74H71.2914ZM84.3946 147.5C86.2746 147.5 87.7946 148.58 87.7946 150.92V158H85.8346V151.46C85.8346 150.1 85.2346 149.18 83.7546 149.18C82.0746 149.18 80.9946 150.2 80.9946 151.74V158H79.0346V147.8H80.9946V149.08H81.0346C81.5746 148.3 82.6346 147.5 84.3946 147.5ZM92.7335 158.28C90.6935 158.28 89.3935 157.1 89.3935 155.36C89.3935 153.08 91.1135 152.4 93.6535 151.92C95.2535 151.62 96.2335 151.42 96.2335 150.42C96.2335 149.68 95.7935 149.06 94.2935 149.06C92.5135 149.06 91.9735 149.62 91.8735 150.98H89.8735C89.9735 149.02 91.2535 147.48 94.3735 147.48C96.4735 147.48 98.1535 148.36 98.1535 151V155.68C98.1535 156.42 98.2535 156.8 98.6335 156.8C98.6935 156.8 98.7535 156.8 98.8735 156.78V157.98C98.5335 158.06 98.1935 158.1 97.8735 158.1C96.8935 158.1 96.3735 157.72 96.2535 156.56H96.2135C95.5535 157.62 94.3935 158.28 92.7335 158.28ZM93.1735 156.7C94.9335 156.7 96.2335 155.8 96.2335 154.02V152.56C95.9135 152.86 95.0335 153.08 93.9935 153.3C92.1935 153.66 91.4335 154.16 91.4335 155.22C91.4335 156.18 91.9535 156.7 93.1735 156.7ZM102.498 158H100.538V143.7H102.498V158ZM106.019 161.58C105.579 161.58 105.279 161.54 104.759 161.44V159.84C105.099 159.88 105.279 159.9 105.599 159.9C106.379 159.9 107.299 159.5 107.699 157.9L103.579 147.8H105.719L108.699 155.6H108.739L111.539 147.8H113.599L109.559 158.24C108.579 160.76 107.599 161.58 106.019 161.58ZM118.543 158.28C115.443 158.28 113.903 156.68 113.843 154.6H115.823C115.903 155.78 116.623 156.7 118.523 156.7C120.243 156.7 120.703 155.94 120.703 155.2C120.703 153.92 119.343 153.78 118.023 153.5C116.243 153.08 114.203 152.56 114.203 150.44C114.203 148.68 115.623 147.5 118.083 147.5C120.883 147.5 122.223 149 122.363 150.76H120.383C120.243 149.98 119.823 149.08 118.123 149.08C116.803 149.08 116.243 149.6 116.243 150.36C116.243 151.42 117.383 151.52 118.823 151.84C120.703 152.28 122.743 152.82 122.743 155.1C122.743 157.08 121.223 158.28 118.543 158.28ZM127.931 156.5C128.271 156.5 128.431 156.48 128.771 156.42V158C128.271 158.1 127.951 158.12 127.531 158.12C125.851 158.12 124.831 157.48 124.831 155.12V149.42H123.351V147.8H124.831V144.52H126.791V147.8H128.751V149.42H126.791V155.18C126.791 156.26 127.091 156.5 127.931 156.5Z" fill="#FBA05A"/>
<path d="M57.3499 126.355L55.5368 126.966C55.0362 127.133 54.6358 127.521 54.4689 128.032L53.8572 129.842C53.3343 131.408 51.1319 131.375 50.6425 129.809L48.5846 123.202C48.1842 121.892 49.3966 120.67 50.6981 121.081L57.3277 123.135C58.885 123.624 58.9072 125.834 57.3499 126.355Z" fill="#FBA05A"/>
</svg>
