<svg width="260" height="70" viewBox="0 0 260 70" fill="none" xmlns="http://www.w3.org/2000/svg">
<path d="M1.344 19C1.152 19 1.056 18.896 1.056 18.688V3.592C1.056 3.384 1.152 3.28 1.344 3.28H9.816C10.008 3.28 10.104 3.384 10.104 3.592V6.256C10.104 6.464 10.008 6.568 9.816 6.568H4.8V9.736H9.096C9.288 9.736 9.384 9.848 9.384 10.072V12.64C9.384 12.848 9.288 12.952 9.096 12.952H4.8V18.688C4.8 18.896 4.704 19 4.512 19H1.344ZM11.9104 19C11.7024 19 11.5984 18.896 11.5984 18.688V7.36C11.5984 7.152 11.7024 7.048 11.9104 7.048H14.9104C15.1184 7.048 15.2224 7.152 15.2224 7.36V18.688C15.2224 18.896 15.1184 19 14.9104 19H11.9104ZM13.3984 5.704C12.7744 5.704 12.2784 5.552 11.9104 5.248C11.5584 4.928 11.3824 4.496 11.3824 3.952V3.472C11.3824 2.912 11.5584 2.48 11.9104 2.176C12.2784 1.856 12.7744 1.696 13.3984 1.696C14.0544 1.696 14.5504 1.856 14.8864 2.176C15.2384 2.48 15.4144 2.912 15.4144 3.472V3.952C15.4144 4.496 15.2384 4.928 14.8864 5.248C14.5504 5.552 14.0544 5.704 13.3984 5.704ZM21.7427 19.192C20.3347 19.192 19.3427 18.864 18.7667 18.208C18.1907 17.536 17.9027 16.408 17.9027 14.824V10.12H16.5827C16.3907 10.12 16.2947 10.016 16.2947 9.808V7.36C16.2947 7.152 16.3907 7.048 16.5827 7.048H18.0227L18.3827 4.24C18.4307 4.032 18.5347 3.928 18.6947 3.928H21.2387C21.4307 3.928 21.5267 4.032 21.5267 4.24V7.048H23.9027C24.1267 7.048 24.2387 7.152 24.2387 7.36V9.808C24.2387 10.016 24.1267 10.12 23.9027 10.12H21.5267V14.56C21.5267 15.088 21.6067 15.48 21.7667 15.736C21.9267 15.976 22.2147 16.096 22.6307 16.096C22.8227 16.096 23.0147 16.072 23.2067 16.024C23.4147 15.976 23.6467 15.904 23.9027 15.808C24.1427 15.728 24.2627 15.816 24.2627 16.072V18.472C24.2627 18.664 24.1747 18.784 23.9987 18.832C23.7107 18.944 23.3667 19.032 22.9667 19.096C22.5827 19.16 22.1747 19.192 21.7427 19.192ZM31.5928 19C31.3848 19 31.2808 18.896 31.2808 18.688V11.008C31.2808 10.64 31.2168 10.376 31.0888 10.216C30.9608 10.056 30.7448 9.976 30.4408 9.976C30.1848 9.976 29.9288 10.056 29.6728 10.216C29.4168 10.376 29.1608 10.584 28.9048 10.84L28.4488 9.04C28.8968 8.448 29.4328 7.936 30.0568 7.504C30.6808 7.056 31.4008 6.832 32.2168 6.832C33.1288 6.832 33.8008 7.112 34.2328 7.672C34.6808 8.216 34.9048 9.096 34.9048 10.312V18.688C34.9048 18.896 34.8008 19 34.5928 19H31.5928ZM25.8088 19C25.6008 19 25.4968 18.896 25.4968 18.688V10.168C25.4968 9.64 25.4888 9.144 25.4728 8.68C25.4568 8.2 25.4328 7.776 25.4008 7.408C25.3848 7.168 25.4808 7.048 25.6888 7.048H28.2808C28.4408 7.048 28.5368 7.144 28.5688 7.336C28.6008 7.56 28.6328 7.872 28.6648 8.272C28.7128 8.656 28.7448 9 28.7608 9.304L29.1208 10.336V18.688C29.1208 18.896 29.0168 19 28.8088 19H25.8088ZM41.2142 19.192C39.5982 19.192 38.3982 18.832 37.6142 18.112C36.8302 17.392 36.4382 16.28 36.4382 14.776V11.464C36.4382 9.96 36.8382 8.816 37.6382 8.032C38.4382 7.232 39.6142 6.832 41.1662 6.832C42.7822 6.832 43.9822 7.224 44.7662 8.008C45.5502 8.776 45.9422 9.952 45.9422 11.536V13.552C45.9422 13.776 45.8382 13.888 45.6302 13.888H40.0142V15.016C40.0142 15.512 40.1022 15.88 40.2782 16.12C40.4702 16.344 40.7742 16.456 41.1902 16.456C41.5582 16.456 41.8302 16.376 42.0062 16.216C42.1982 16.056 42.2862 15.792 42.2702 15.424C42.2702 15.248 42.3742 15.16 42.5822 15.16H45.4382C45.6142 15.16 45.7182 15.264 45.7502 15.472C45.7502 16.72 45.3822 17.656 44.6462 18.28C43.9102 18.888 42.7662 19.192 41.2142 19.192ZM40.0142 11.824H42.3902V11.032C42.3902 10.536 42.2942 10.176 42.1022 9.952C41.9262 9.712 41.6382 9.592 41.2382 9.592C40.8062 9.592 40.4942 9.712 40.3022 9.952C40.1102 10.176 40.0142 10.536 40.0142 11.032V11.824ZM51.4641 19.192C49.9121 19.192 48.8001 18.88 48.1281 18.256C47.4721 17.632 47.2081 16.672 47.3361 15.376C47.3681 15.152 47.4721 15.04 47.6481 15.04H50.3601C50.5521 15.04 50.6481 15.16 50.6481 15.4C50.6321 15.816 50.6881 16.128 50.8161 16.336C50.9441 16.544 51.1601 16.648 51.4641 16.648C51.7681 16.648 51.9921 16.584 52.1361 16.456C52.2801 16.312 52.3521 16.088 52.3521 15.784C52.3521 15.496 52.2721 15.264 52.1121 15.088C51.9681 14.896 51.7121 14.696 51.3441 14.488L49.1361 13.216C48.5441 12.864 48.0881 12.448 47.7681 11.968C47.4641 11.488 47.3121 10.888 47.3121 10.168C47.3121 9.08 47.6561 8.256 48.3441 7.696C49.0321 7.12 50.0881 6.832 51.5121 6.832C53.0161 6.832 54.1041 7.128 54.7761 7.72C55.4641 8.312 55.8081 9.192 55.8081 10.36C55.7921 10.568 55.6881 10.672 55.4961 10.672H52.8081C52.6961 10.672 52.6161 10.64 52.5681 10.576C52.5201 10.512 52.4961 10.424 52.4961 10.312C52.5281 10.008 52.4721 9.784 52.3281 9.64C52.2001 9.48 51.9921 9.4 51.7041 9.4C51.4481 9.4 51.2561 9.456 51.1281 9.568C51.0001 9.68 50.9361 9.848 50.9361 10.072C50.9361 10.312 51.0001 10.512 51.1281 10.672C51.2561 10.832 51.4881 11.008 51.8241 11.2L53.9361 12.4C54.6241 12.8 55.1361 13.248 55.4721 13.744C55.8081 14.24 55.9761 14.88 55.9761 15.664C55.9761 16.832 55.6001 17.712 54.8481 18.304C54.1121 18.896 52.9841 19.192 51.4641 19.192ZM61.1906 19.192C59.6386 19.192 58.5266 18.88 57.8546 18.256C57.1986 17.632 56.9346 16.672 57.0626 15.376C57.0946 15.152 57.1986 15.04 57.3746 15.04H60.0866C60.2786 15.04 60.3746 15.16 60.3746 15.4C60.3586 15.816 60.4146 16.128 60.5426 16.336C60.6706 16.544 60.8866 16.648 61.1906 16.648C61.4946 16.648 61.7186 16.584 61.8626 16.456C62.0066 16.312 62.0786 16.088 62.0786 15.784C62.0786 15.496 61.9986 15.264 61.8386 15.088C61.6946 14.896 61.4386 14.696 61.0706 14.488L58.8626 13.216C58.2706 12.864 57.8146 12.448 57.4946 11.968C57.1906 11.488 57.0386 10.888 57.0386 10.168C57.0386 9.08 57.3826 8.256 58.0706 7.696C58.7586 7.12 59.8146 6.832 61.2386 6.832C62.7426 6.832 63.8306 7.128 64.5026 7.72C65.1906 8.312 65.5346 9.192 65.5346 10.36C65.5186 10.568 65.4146 10.672 65.2226 10.672H62.5346C62.4226 10.672 62.3426 10.64 62.2946 10.576C62.2466 10.512 62.2226 10.424 62.2226 10.312C62.2546 10.008 62.1986 9.784 62.0546 9.64C61.9266 9.48 61.7186 9.4 61.4306 9.4C61.1746 9.4 60.9826 9.456 60.8546 9.568C60.7266 9.68 60.6626 9.848 60.6626 10.072C60.6626 10.312 60.7266 10.512 60.8546 10.672C60.9826 10.832 61.2146 11.008 61.5506 11.2L63.6626 12.4C64.3506 12.8 64.8626 13.248 65.1986 13.744C65.5346 14.24 65.7026 14.88 65.7026 15.664C65.7026 16.832 65.3266 17.712 64.5746 18.304C63.8386 18.896 62.7106 19.192 61.1906 19.192ZM75.4101 19.192C73.8581 19.192 72.6661 18.8 71.8341 18.016C71.0181 17.216 70.6101 16.056 70.6101 14.536V11.416C70.6101 9.928 71.0261 8.792 71.8581 8.008C72.6901 7.224 73.8661 6.832 75.3861 6.832C76.3941 6.832 77.2501 7.032 77.9541 7.432C78.6581 7.816 79.1781 8.352 79.5141 9.04C79.8501 9.728 79.9701 10.504 79.8741 11.368C79.8421 11.64 79.7301 11.776 79.5381 11.776H76.8741C76.6661 11.776 76.5621 11.664 76.5621 11.44C76.5941 10.896 76.5141 10.512 76.3221 10.288C76.1461 10.064 75.8581 9.952 75.4581 9.952C75.0421 9.952 74.7301 10.072 74.5221 10.312C74.3301 10.552 74.2341 10.968 74.2341 11.56V14.392C74.2341 15.016 74.3301 15.456 74.5221 15.712C74.7141 15.952 75.0181 16.072 75.4341 16.072C75.8501 16.072 76.1381 15.96 76.2981 15.736C76.4741 15.496 76.5621 15.12 76.5621 14.608C76.5621 14.368 76.6581 14.248 76.8501 14.248H79.5621C79.7701 14.248 79.8741 14.36 79.8741 14.584C79.9221 16.088 79.5701 17.232 78.8181 18.016C78.0821 18.8 76.9461 19.192 75.4101 19.192ZM81.7776 19C81.5696 19 81.4656 18.896 81.4656 18.688V2.92C81.4656 2.712 81.5696 2.608 81.7776 2.608H84.7776C84.9856 2.608 85.0896 2.712 85.0896 2.92V18.688C85.0896 18.896 84.9856 19 84.7776 19H81.7776ZM89.4739 19.192C88.5459 19.192 87.8659 18.912 87.4339 18.352C87.0019 17.792 86.7859 16.912 86.7859 15.712V7.36C86.7859 7.152 86.8899 7.048 87.0979 7.048H90.0979C90.3059 7.048 90.4099 7.152 90.4099 7.36V14.968C90.4099 15.368 90.4659 15.656 90.5779 15.832C90.6899 15.992 90.8659 16.072 91.1059 16.072C91.3779 16.072 91.6499 15.984 91.9219 15.808C92.1939 15.632 92.4579 15.408 92.7139 15.136L93.1459 16.984C92.6979 17.592 92.1539 18.112 91.5139 18.544C90.8899 18.976 90.2099 19.192 89.4739 19.192ZM93.3139 19C93.1379 19 93.0179 18.912 92.9539 18.736C92.9219 18.48 92.8819 18.168 92.8339 17.8C92.8019 17.432 92.7859 17.096 92.7859 16.792L92.4259 15.712V7.36C92.4259 7.152 92.5299 7.048 92.7379 7.048H95.7379C95.9459 7.048 96.0499 7.152 96.0499 7.36V15.88C96.0499 16.392 96.0499 16.888 96.0499 17.368C96.0659 17.832 96.0979 18.264 96.1459 18.664C96.1779 18.888 96.0819 19 95.8579 19H93.3139ZM102.674 19.192C101.73 19.192 100.874 19.128 100.106 19C99.3541 18.856 98.5781 18.752 97.7781 18.688V2.92C97.7781 2.712 97.8821 2.608 98.0901 2.608H101.09C101.298 2.608 101.402 2.712 101.402 2.92V16.144C101.546 16.176 101.698 16.208 101.858 16.24C102.018 16.256 102.186 16.264 102.362 16.264C102.73 16.264 103.002 16.152 103.178 15.928C103.354 15.688 103.442 15.336 103.442 14.872V10.984C103.442 10.632 103.378 10.376 103.25 10.216C103.138 10.056 102.946 9.976 102.674 9.976C102.418 9.976 102.154 10.048 101.882 10.192C101.626 10.336 101.362 10.528 101.09 10.768L101.018 8.416C101.658 7.856 102.242 7.456 102.77 7.216C103.298 6.96 103.826 6.832 104.354 6.832C105.298 6.832 105.986 7.104 106.418 7.648C106.85 8.192 107.066 9.048 107.066 10.216V15.016C107.066 16.44 106.706 17.496 105.986 18.184C105.282 18.856 104.178 19.192 102.674 19.192Z" fill="white"/>
</svg>
