<svg width="260" height="70" viewBox="0 0 260 70" fill="none" xmlns="http://www.w3.org/2000/svg">
<path d="M21.2596 0.143391C18.2275 0.560528 15.1954 1.62075 12.6629 3.13288C12.0771 3.49788 11.5431 3.79335 11.5086 3.79335C11.2157 3.79335 8.33868 6.12238 7.27054 7.21737C4.85863 9.68544 3.84219 11.128 2.36058 14.2044C0.586107 17.9065 -0.0168705 20.6875 0.000357452 25.1717C0.000357452 28.0395 0.0520412 28.5957 0.465512 30.3338C0.999577 32.6628 1.8782 34.9919 2.94633 36.9906C3.37703 37.8075 3.77327 38.5028 3.84219 38.5549C3.89387 38.6071 4.2212 39.0242 4.54853 39.5109C5.46161 40.8318 5.56498 40.9535 7.13272 42.5525C10.7161 46.2025 15.1437 48.6184 20.1054 49.5917C24.5329 50.4781 30.2526 49.8872 34.1806 48.1491C36.9543 46.9325 37.6606 46.5153 39.6935 44.951C43.1046 42.3439 45.4821 39.3544 47.3083 35.4959C48.9966 31.8633 49.6168 28.5957 49.4617 23.9203C49.3756 20.6875 49.1172 19.2796 48.1352 16.5335C47.4461 14.5868 45.7405 11.2497 45.2064 10.7457C45.1548 10.6935 44.9136 10.3807 44.6896 10.0504C42.3638 6.67856 37.7812 3.15026 33.6293 1.53385C32.3716 1.04719 29.7013 0.351959 28.2369 0.143391C26.8587 -0.0477982 22.6723 -0.0477982 21.2596 0.143391ZM20.0537 15.3516C22.9307 16.0294 22.948 16.0642 20.4327 18.6713C19.8125 19.3144 18.6582 19.8011 17.4178 19.9401C15.5227 20.1487 14.6269 20.7918 13.7827 22.4951C12.9041 24.2853 13.3003 26.3884 14.7992 27.8657C15.7811 28.8391 16.5736 29.1693 17.9863 29.1693C19.3129 29.1693 20.157 28.8564 21.0873 28.0048C22.0004 27.1879 22.3622 26.4231 22.5517 24.9979C22.9824 21.6782 24.2917 19.297 26.6864 17.5242C27.9957 16.5508 29.4429 16.0989 31.5102 15.9947C32.7679 15.9425 33.5431 16.012 34.3529 16.2206C36.7992 16.8463 39.0561 18.6713 40.262 20.9829C41.2613 22.947 41.2957 22.9122 38.746 22.9122C36.3341 22.9122 35.8861 22.7732 34.6457 21.6087C33.836 20.8787 32.8713 20.5832 31.5792 20.7049C30.4593 20.8091 29.7702 21.122 28.8227 21.991C27.7718 22.947 27.41 23.7986 27.3928 25.3455C27.3755 27.4486 28.2886 28.8738 30.2009 29.7602C31.1485 30.1774 32.7679 30.2121 33.681 29.8298C34.3356 29.5343 35.5588 28.5436 35.5588 28.2829C35.5588 28.196 34.818 28.1264 33.9222 28.1264H32.2683L32.32 26.1624L32.3716 24.2158L36.6442 24.1636L40.8995 24.1289V26.3884C40.8995 28.8564 40.8133 29.1693 39.6246 30.9074C38.5392 32.5238 36.7648 33.81 34.7836 34.4357C33.2675 34.9223 30.6316 34.9397 29.1672 34.4878C27.9096 34.1054 26.4108 33.1843 25.4288 32.2109C25.0153 31.7764 24.6191 31.4288 24.5846 31.4288C24.5329 31.4288 24.1884 31.6895 23.8094 32.0197C22.4828 33.1669 20.1054 34.0185 18.2103 34.0359C17.2283 34.0359 15.0231 33.584 14.2479 33.2364C11.7154 32.0545 9.82028 29.8993 9.02779 27.3269C7.75293 23.1555 9.14839 19.1753 12.7835 16.6378C14.7647 15.2299 17.4867 14.7606 20.0537 15.3516Z" fill="white"/>
<path d="M79.9199 11.5451C75.1133 12.2578 71.8744 14.4651 69.9449 18.3237C68.6873 20.8265 68.291 22.6515 68.291 25.9886C68.291 28.8912 68.6011 30.7509 69.4281 32.5933C69.5659 32.8888 69.6693 33.1842 69.6693 33.2537C69.6693 33.6187 71.3231 35.9825 72.1156 36.7647C74.6309 39.2327 77.0428 40.2234 80.9708 40.4146C86.1908 40.658 89.9982 38.9894 92.3068 35.4437C93.0131 34.3487 93.685 32.7323 93.8228 31.7764L93.8745 31.3419L91.1869 31.2897L88.4822 31.255L87.9653 32.3326C86.6904 35.0266 84.0718 36.2259 80.5056 35.774C77.1979 35.3568 75.0616 33.4623 73.9418 29.9688C73.5972 28.8912 73.5455 28.3697 73.5455 26.0407C73.5455 23.9376 73.6144 23.1208 73.8556 22.3212C75.1822 17.9934 78.0593 15.9077 82.3318 16.1858C84.2441 16.3075 85.5017 16.8115 86.6215 17.9413C87.4657 18.7582 87.6897 19.1232 88.241 20.5136L88.4477 21.0003H91.1008C92.5652 21.0003 93.8056 20.9482 93.8573 20.8612C93.9951 20.6179 93.4438 18.8277 92.8236 17.5415C91.9105 15.6818 89.981 13.7699 88.0687 12.8661C87.2762 12.4837 86.1392 12.0492 85.5189 11.9101C84.3819 11.6321 80.8674 11.4061 79.9199 11.5451Z" fill="white"/>
<path d="M133.671 11.5973C127.159 12.4663 122.869 17.0375 122.042 23.9203C121.215 30.8726 124.023 36.8168 129.312 39.3023C130.88 40.0322 132.155 40.3103 134.446 40.4146C136.29 40.5015 136.824 40.4494 138.047 40.1539C139.839 39.6846 141.114 38.9546 142.423 37.6337C142.974 37.0775 143.474 36.6604 143.525 36.7125C143.612 36.782 143.87 38.9373 143.904 39.7194C143.922 39.8932 144.507 39.9453 146.247 39.9453H148.573V32.3152V24.685L148.194 24.5807C147.677 24.4417 137.41 24.4417 136.893 24.5807C136.514 24.685 136.496 24.7372 136.548 26.5448L136.6 28.3871L140.011 28.4393L143.405 28.474V28.8738C143.405 29.4995 142.905 31.0811 142.354 32.124C141.165 34.4356 139.322 35.6175 136.428 35.8782C131.914 36.2954 128.606 33.949 127.469 29.5169C127.228 28.6131 127.193 27.8483 127.262 25.6931C127.331 23.0338 127.435 22.5298 128.106 21.0003C128.968 19.0884 130.002 17.976 131.776 17.0896C133.998 15.9772 137.306 15.9077 139.391 16.9332C140.459 17.4546 141.682 18.6713 142.113 19.6098L142.423 20.3051H145.248C146.782 20.3051 148.056 20.2355 148.056 20.1486C148.056 19.8705 147.522 18.4801 146.988 17.3503C146.592 16.5508 146.041 15.8208 145.076 14.8649C144.335 14.1349 143.612 13.5266 143.474 13.5266C143.336 13.5266 143.233 13.4744 143.233 13.3875C143.233 13.1442 141.182 12.2925 139.753 11.9449C138.168 11.5451 135.256 11.3887 133.671 11.5973Z" fill="white"/>
<path d="M105.59 12.1709C105.556 12.2926 105.091 13.6136 104.556 15.0909C104.022 16.5683 103.402 18.289 103.178 18.9147C102.954 19.5404 101.8 22.7385 100.594 26.0408C99.3881 29.3432 98.251 32.4717 98.0615 32.9931C97.872 33.5145 97.6481 34.1055 97.5619 34.2967C97.493 34.4879 97.2346 35.2352 96.9934 35.9479C96.7694 36.6605 96.3732 37.7728 96.132 38.4333C95.8908 39.0764 95.6841 39.6847 95.6841 39.7716C95.6841 39.8759 96.7178 39.9454 98.32 39.9454H100.939L101.352 38.5897C101.593 37.8597 101.869 37.0081 101.99 36.73C102.11 36.4345 102.42 35.6002 102.679 34.8529L103.144 33.5145L108.588 33.5493L114.015 33.6014L114.342 34.5574C114.738 35.7045 115.6 38.19 115.961 39.1981L116.237 39.9454H118.873C120.337 39.9454 121.526 39.8933 121.526 39.8411C121.526 39.7369 119.855 35.0788 119.2 33.3407C118.373 31.1508 117.374 28.4046 116.547 26.0408C115.548 23.1904 114.979 21.6087 114.824 21.2611C114.635 20.8787 113.067 16.5335 112.085 13.7352L111.465 11.9624H108.571C106.4 11.9624 105.642 12.0145 105.59 12.1709ZM108.777 18.5323C108.777 18.7061 108.829 18.8973 108.881 18.9495C108.967 19.0364 110.173 22.4604 110.965 24.8242C111.103 25.2587 111.258 25.728 111.31 25.867C111.947 27.6051 112.499 29.3605 112.43 29.4301C112.378 29.4822 110.603 29.517 108.484 29.517C105.521 29.517 104.643 29.4648 104.643 29.291C104.643 29.1867 104.987 28.1091 105.418 26.9098C105.831 25.7106 106.538 23.677 106.968 22.3908C107.399 21.1047 107.864 19.7663 108.002 19.4361C108.123 19.1059 108.278 18.6887 108.329 18.5149C108.45 18.1152 108.777 18.1326 108.777 18.5323Z" fill="white"/>
<path d="M161.046 12.2578C160.994 12.4316 160.839 12.8487 160.718 13.179C160.581 13.5092 159.926 15.3516 159.237 17.2635C157.152 23.1208 156.928 23.7465 155.464 27.6919C154.086 31.4114 153.293 33.6014 152.104 36.9907C151.794 37.8945 151.398 38.9373 151.243 39.3023L150.985 39.9628L153.672 39.9106L156.377 39.8585L157.221 37.4252C157.704 36.0869 158.169 34.6964 158.272 34.3314C158.393 33.9143 158.599 33.6535 158.823 33.584C159.013 33.5493 161.476 33.5319 164.319 33.5493L169.453 33.6014L169.66 34.1576C169.763 34.4704 170.245 35.8957 170.711 37.3209L171.572 39.928L174.294 39.9454C175.776 39.9454 176.999 39.8932 176.999 39.8063C176.999 39.7368 176.723 38.9373 176.379 38.0335C176.034 37.1297 175.483 35.635 175.155 34.7312C174.828 33.8274 174.242 32.2109 173.863 31.1681C173.484 30.1079 173.054 28.9086 172.916 28.4741C172.778 28.0396 172.433 27.1358 172.175 26.4753C171.917 25.7974 171.451 24.546 171.159 23.6944C170.866 22.8253 169.78 19.8532 168.764 17.0897L166.92 12.0492L164.026 11.9971C161.39 11.9623 161.132 11.9797 161.046 12.2578ZM164.491 19.2101C164.664 19.7663 164.888 20.4963 165.025 20.8265C165.249 21.4175 166.128 23.9551 167.213 27.0836C167.489 27.9005 167.782 28.7348 167.868 28.9434C167.954 29.1345 167.971 29.3605 167.92 29.4126C167.713 29.6038 160.115 29.5343 160.115 29.3257C160.115 29.0998 162.855 21.0003 163.751 18.6018C163.992 17.9935 164.181 18.1499 164.491 19.2101Z" fill="white"/>
</svg>
