<svg width="260" height="70" viewBox="0 0 260 70" fill="none" xmlns="http://www.w3.org/2000/svg">
<path fill-rule="evenodd" clip-rule="evenodd" d="M0.394689 67.0761H2.29952V67.6326H0.401023V69.4448H2.1244V68.3511L2.52529 68.3513V69.3528L2.12983 70.0001H0.395465L0 69.3528V67.7161L0.395465 67.0688L0.394689 67.0761ZM33.9682 69.9999H34.4146V67.0761H33.9682V69.9999ZM23.8156 69.9999L24.6782 67.5535V69.9999H25.1254V67.0761H24.3316L23.5506 69.4478L22.7697 67.0761H21.9761V69.9999H22.4233V67.5535L23.2849 69.9999H23.8156ZM45.3881 69.5178L43.9496 67.0761H43.2411V69.9999H43.6882V67.5431L45.1396 69.9997L45.838 69.9999V67.0761H45.3908V69.5178H45.3881ZM54.2018 67.0761H56.1066V67.6326H54.2081V69.4448H55.9315V68.3511L56.3315 68.3513V69.3528L55.9361 70.0001H54.2027L53.8074 69.3528V67.7161L54.2027 67.0688L54.2018 67.0761ZM11.9967 67.0761H12.4502L13.5487 69.9999H13.0851L12.2216 67.7023L11.358 69.9999H10.8946L11.9967 67.0761Z" fill="white"/>
<path fill-rule="evenodd" clip-rule="evenodd" d="M22.9577 49.4176V58.3085H25.4322V52.7226L23.4176 49.4178L22.9577 49.4176ZM9.63501 44.2363V58.3082H12.1103V47.6541H21.8828V46.8998L20.2592 44.2363H9.63501Z" fill="white"/>
<path fill-rule="evenodd" clip-rule="evenodd" d="M2.47437 58.3055V44.2363H0V54.999L2.01545 58.3055H2.47437Z" fill="white"/>
<path fill-rule="evenodd" clip-rule="evenodd" d="M33.3743 53.1242V44.2363H30.8999V49.8268L32.9126 53.1242H33.3743ZM46.6998 58.3083V44.2363H44.2254V54.8858H34.4493V55.6386L36.0729 58.3036L46.6998 58.3083Z" fill="white"/>
<path fill-rule="evenodd" clip-rule="evenodd" d="M53.8567 44.2363V58.3055H56.3312V47.5413L54.3166 44.2363H53.8567Z" fill="white"/>
<path d="M59.8326 44.2375C60.1549 44.2375 60.4468 44.4521 60.658 44.7985C60.8693 45.1452 61.0001 45.6239 61.0001 46.1526C61.0001 46.6814 60.8693 47.1605 60.658 47.5067C60.4468 47.8534 60.1549 48.0677 59.8326 48.0677C59.5109 48.0677 59.2191 47.8534 59.0075 47.5067L59.007 47.5059C58.7958 47.159 58.665 46.6803 58.665 46.1524C58.665 45.6237 58.7957 45.1447 59.007 44.7983C59.2183 44.4521 59.5104 44.2375 59.8326 44.2375ZM59.3951 47.0791V45.1503H59.895C60.0206 45.1503 60.1121 45.1678 60.169 45.2024C60.2262 45.2372 60.2716 45.2984 60.3058 45.3869C60.3401 45.4757 60.3573 45.5768 60.3573 45.6909C60.3573 45.8359 60.3316 45.9553 60.2799 46.0494C60.2282 46.1437 60.151 46.2029 60.0481 46.2277C60.0993 46.2767 60.1413 46.3305 60.1745 46.3894C60.2079 46.4482 60.2527 46.5529 60.3092 46.7028L60.4525 47.0789H60.1687L59.9985 46.6576C59.9375 46.508 59.8955 46.4138 59.8729 46.3748C59.8505 46.336 59.8267 46.3093 59.8014 46.2949C59.776 46.2805 59.736 46.2733 59.6812 46.2733H59.6331V47.0787H59.3951V47.0791ZM59.6331 45.9665H59.8088C59.9226 45.9665 59.9936 45.9584 60.022 45.9425C60.0501 45.9268 60.0727 45.8995 60.0885 45.8609C60.1046 45.8225 60.1125 45.774 60.1125 45.7159C60.1125 45.6508 60.1018 45.5989 60.0807 45.5584C60.0596 45.5183 60.0298 45.4933 59.9914 45.4829C59.972 45.4784 59.9144 45.4761 59.8184 45.4761H59.633L59.6331 45.9665ZM60.4953 45.0654C60.3257 44.7875 60.0914 44.6151 59.8326 44.6151C59.5738 44.6151 59.3394 44.7873 59.1698 45.0652C59.0002 45.3436 58.8953 45.7282 58.8953 46.1526C58.8953 46.5777 59.0001 46.9623 59.1693 47.24L59.1698 47.2409C59.3391 47.5186 59.5736 47.6903 59.8326 47.6903C60.0914 47.6903 60.3257 47.5182 60.4953 47.24C60.6649 46.9621 60.7699 46.5773 60.7699 46.1526C60.7699 45.7282 60.6649 45.3436 60.4953 45.0654Z" fill="white"/>
<path fill-rule="evenodd" clip-rule="evenodd" d="M24.1706 25.9122C19.8765 23.0902 16.0056 18.9288 12.7549 13.7473C12.3468 11.5187 12.1267 9.15902 12.1267 6.71582C12.1267 4.38775 12.3259 2.13536 12.6977 0L24.1706 25.9122Z" fill="white"/>
<path fill-rule="evenodd" clip-rule="evenodd" d="M32.1628 25.9122C36.4569 23.0902 40.3278 18.9288 43.5785 13.7473C43.9866 11.5187 44.2067 9.15902 44.2067 6.71582C44.2067 4.38775 44.0076 2.13536 43.6357 0L32.1628 25.9122Z" fill="white"/>
</svg>
