<svg width="345" height="23" viewBox="0 0 345 23" fill="none" xmlns="http://www.w3.org/2000/svg">
<path d="M8.616 18.336C7 18.336 5.608 17.96 4.44 17.208C3.288 16.44 2.408 15.384 1.8 14.04C1.192 12.696 0.888 11.152 0.888 9.408C0.888 7.696 1.216 6.168 1.872 4.824C2.544 3.464 3.488 2.408 4.704 1.656C5.92 0.887999 7.328 0.503999 8.928 0.503999C11.056 0.503999 12.736 1.016 13.968 2.04C15.216 3.064 15.984 4.432 16.272 6.144H13.512C13.288 5.056 12.776 4.224 11.976 3.648C11.192 3.072 10.168 2.784 8.904 2.784C7.704 2.784 6.712 3.104 5.928 3.744C5.144 4.368 4.568 5.184 4.2 6.192C3.832 7.184 3.648 8.256 3.648 9.408C3.648 11.296 4.04 12.88 4.824 14.16C5.608 15.424 6.92 16.056 8.76 16.056C9.704 16.056 10.56 15.856 11.328 15.456C12.112 15.04 12.728 14.464 13.176 13.728C13.64 12.992 13.872 12.16 13.872 11.232H8.808V9.024H16.56V18H14.736L14.088 15.624H14.04C13.416 16.536 12.672 17.216 11.808 17.664C10.944 18.112 9.88 18.336 8.616 18.336ZM21.3439 18H18.9919V0.839999H21.3439V18ZM29.4561 18.36C28.2081 18.36 27.1201 18.088 26.1921 17.544C25.2641 17 24.5521 16.24 24.0561 15.264C23.5761 14.288 23.3361 13.16 23.3361 11.88C23.3361 10.6 23.5841 9.472 24.0801 8.496C24.5761 7.52 25.2801 6.76 26.1921 6.216C27.1201 5.656 28.2161 5.376 29.4801 5.376C30.7281 5.376 31.8081 5.648 32.7201 6.192C33.6481 6.736 34.3521 7.504 34.8321 8.496C35.3281 9.472 35.5761 10.592 35.5761 11.856C35.5761 13.136 35.3281 14.272 34.8321 15.264C34.3361 16.24 33.6241 17 32.6961 17.544C31.7841 18.088 30.7041 18.36 29.4561 18.36ZM29.4801 16.416C30.6801 16.416 31.5841 16 32.1921 15.168C32.8161 14.32 33.1281 13.224 33.1281 11.88C33.1281 10.536 32.8161 9.448 32.1921 8.616C31.5841 7.768 30.6801 7.344 29.4801 7.344C28.2641 7.344 27.3441 7.76 26.7201 8.592C26.0961 9.424 25.7841 10.52 25.7841 11.88C25.7841 13.224 26.0961 14.32 26.7201 15.168C27.3441 16 28.2641 16.416 29.4801 16.416ZM43.7458 5.4C44.7858 5.4 45.7218 5.664 46.5538 6.192C47.3858 6.72 48.0418 7.472 48.5218 8.448C49.0018 9.424 49.2418 10.568 49.2418 11.88C49.2418 13.192 49.0018 14.336 48.5218 15.312C48.0418 16.288 47.3858 17.04 46.5538 17.568C45.7218 18.08 44.7858 18.336 43.7458 18.336C42.8498 18.336 42.0898 18.168 41.4658 17.832C40.8418 17.48 40.3458 17.032 39.9778 16.488H39.9298V18H37.5778V0.839999H39.9298V7.2H39.9778C40.9058 6 42.1618 5.4 43.7458 5.4ZM43.3618 16.392C44.4658 16.392 45.3058 15.96 45.8818 15.096C46.4738 14.232 46.7698 13.16 46.7698 11.88C46.7698 10.6 46.4738 9.528 45.8818 8.664C45.3058 7.8 44.4658 7.368 43.3618 7.368C42.3058 7.368 41.4738 7.776 40.8658 8.592C40.2578 9.392 39.9538 10.488 39.9538 11.88C39.9538 13.272 40.2578 14.376 40.8658 15.192C41.4738 15.992 42.3058 16.392 43.3618 16.392ZM54.6493 18.336C53.4333 18.336 52.4573 18.016 51.7213 17.376C51.0013 16.736 50.6413 15.888 50.6413 14.832C50.6413 13.952 50.8413 13.248 51.2413 12.72C51.6573 12.176 52.2253 11.76 52.9453 11.472C53.6813 11.168 54.6173 10.912 55.7533 10.704C56.5373 10.56 57.1293 10.432 57.5293 10.32C57.9293 10.192 58.2493 10.024 58.4893 9.816C58.7293 9.592 58.8493 9.288 58.8493 8.904C58.8493 7.816 58.0733 7.272 56.5213 7.272C55.4813 7.272 54.7533 7.448 54.3373 7.8C53.9213 8.152 53.6813 8.744 53.6173 9.576H51.2173C51.2813 8.312 51.7533 7.296 52.6333 6.528C53.5133 5.76 54.8413 5.376 56.6173 5.376C57.9933 5.376 59.0893 5.712 59.9053 6.384C60.7373 7.04 61.1533 8.112 61.1533 9.6V15.216C61.1533 15.68 61.1933 16.024 61.2733 16.248C61.3533 16.456 61.5053 16.56 61.7293 16.56L62.0173 16.536V17.976C61.6013 18.072 61.2013 18.12 60.8173 18.12C60.2093 18.12 59.7453 17.984 59.4253 17.712C59.1213 17.424 58.9373 16.944 58.8733 16.272H58.8253C58.4253 16.928 57.8733 17.44 57.1693 17.808C56.4653 18.16 55.6253 18.336 54.6493 18.336ZM55.1773 16.44C56.2813 16.44 57.1693 16.168 57.8413 15.624C58.5133 15.064 58.8493 14.264 58.8493 13.224V11.472C58.6733 11.632 58.3613 11.784 57.9133 11.928C57.4813 12.056 56.8973 12.2 56.1613 12.36C55.0573 12.584 54.2653 12.872 53.7853 13.224C53.3213 13.56 53.0893 14.04 53.0893 14.664C53.0893 15.848 53.7853 16.44 55.1773 16.44ZM66.3673 18H64.0153V0.839999H66.3673V18ZM78.8471 18.336C77.0551 18.336 75.6711 17.928 74.6951 17.112C73.7351 16.296 73.2391 15.232 73.2071 13.92H75.5831C75.6311 14.688 75.9111 15.304 76.4231 15.768C76.9511 16.216 77.7511 16.44 78.8231 16.44C79.7671 16.44 80.4391 16.272 80.8391 15.936C81.2391 15.584 81.4391 15.152 81.4391 14.64C81.4391 14.16 81.2951 13.792 81.0071 13.536C80.7191 13.28 80.4071 13.112 80.0711 13.032C79.7511 12.936 79.1351 12.792 78.2231 12.6C77.2791 12.376 76.4951 12.144 75.8711 11.904C75.2471 11.664 74.7191 11.304 74.2871 10.824C73.8551 10.344 73.6391 9.712 73.6391 8.928C73.6391 7.856 74.0471 7 74.8631 6.36C75.6951 5.72 76.8391 5.4 78.2951 5.4C79.8951 5.4 81.1271 5.768 81.9911 6.504C82.8551 7.24 83.3351 8.176 83.4311 9.312H81.0551C80.9431 8.72 80.6871 8.24 80.2871 7.872C79.9031 7.488 79.2551 7.296 78.3431 7.296C77.5751 7.296 77.0071 7.432 76.6391 7.704C76.2711 7.976 76.0871 8.352 76.0871 8.832C76.0871 9.184 76.1911 9.464 76.3991 9.672C76.6071 9.88 76.8711 10.04 77.1911 10.152C77.5111 10.248 77.9831 10.36 78.6071 10.488C78.7351 10.504 78.9271 10.544 79.1831 10.608C80.1591 10.832 80.9671 11.072 81.6071 11.328C82.2471 11.584 82.7831 11.968 83.2151 12.48C83.6631 12.992 83.8871 13.672 83.8871 14.52C83.8871 15.72 83.4471 16.656 82.5671 17.328C81.6871 18 80.4471 18.336 78.8471 18.336ZM99.0619 5.4C100.278 5.4 101.198 5.752 101.822 6.456C102.462 7.16 102.782 8.176 102.782 9.504V18H100.43V10.152C100.43 9.24 100.278 8.56 99.9739 8.112C99.6859 7.648 99.1259 7.416 98.2939 7.416C97.4299 7.416 96.7339 7.696 96.2059 8.256C95.6939 8.816 95.4379 9.56 95.4379 10.488V18H93.0859V10.152C93.0859 9.24 92.9339 8.56 92.6299 8.112C92.3419 7.648 91.7819 7.416 90.9499 7.416C90.0859 7.416 89.3899 7.696 88.8619 8.256C88.3499 8.816 88.0939 9.56 88.0939 10.488V18H85.7419V5.76H88.0939V7.296H88.1419C88.5259 6.752 89.0139 6.304 89.6059 5.952C90.1979 5.584 90.9179 5.4 91.7659 5.4C93.4299 5.4 94.5099 6.112 95.0059 7.536H95.0539C96.1259 6.112 97.4619 5.4 99.0619 5.4ZM108.743 18.336C107.527 18.336 106.551 18.016 105.815 17.376C105.095 16.736 104.735 15.888 104.735 14.832C104.735 13.952 104.935 13.248 105.335 12.72C105.751 12.176 106.319 11.76 107.039 11.472C107.775 11.168 108.711 10.912 109.847 10.704C110.631 10.56 111.223 10.432 111.623 10.32C112.023 10.192 112.343 10.024 112.583 9.816C112.823 9.592 112.943 9.288 112.943 8.904C112.943 7.816 112.167 7.272 110.615 7.272C109.575 7.272 108.847 7.448 108.431 7.8C108.015 8.152 107.775 8.744 107.711 9.576H105.311C105.375 8.312 105.847 7.296 106.727 6.528C107.607 5.76 108.935 5.376 110.711 5.376C112.087 5.376 113.183 5.712 113.999 6.384C114.831 7.04 115.247 8.112 115.247 9.6V15.216C115.247 15.68 115.287 16.024 115.367 16.248C115.447 16.456 115.599 16.56 115.823 16.56L116.111 16.536V17.976C115.695 18.072 115.295 18.12 114.911 18.12C114.303 18.12 113.839 17.984 113.519 17.712C113.215 17.424 113.031 16.944 112.967 16.272H112.919C112.519 16.928 111.967 17.44 111.263 17.808C110.559 18.16 109.719 18.336 108.743 18.336ZM109.271 16.44C110.375 16.44 111.263 16.168 111.935 15.624C112.607 15.064 112.943 14.264 112.943 13.224V11.472C112.767 11.632 112.455 11.784 112.007 11.928C111.575 12.056 110.991 12.2 110.255 12.36C109.151 12.584 108.359 12.872 107.879 13.224C107.415 13.56 107.183 14.04 107.183 14.664C107.183 15.848 107.879 16.44 109.271 16.44ZM123.797 5.472C124.197 5.472 124.573 5.496 124.925 5.544V7.8C124.637 7.752 124.373 7.728 124.133 7.728C123.061 7.728 122.181 8.096 121.493 8.832C120.805 9.568 120.461 10.512 120.461 11.664V18H118.109V5.76H120.461V8.088H120.509C121.245 6.344 122.341 5.472 123.797 5.472ZM130.965 16.2C131.269 16.2 131.605 16.168 131.973 16.104V18C131.493 18.096 130.997 18.144 130.485 18.144C129.397 18.144 128.581 17.88 128.037 17.352C127.509 16.824 127.245 15.888 127.245 14.544V7.704H125.469V5.76H127.245V1.824H129.597V5.76H131.949V7.704H129.597V14.616C129.597 15.24 129.693 15.664 129.885 15.888C130.093 16.096 130.453 16.2 130.965 16.2ZM140.074 5.4C141.114 5.4 142.05 5.664 142.882 6.192C143.714 6.72 144.37 7.472 144.85 8.448C145.33 9.424 145.57 10.568 145.57 11.88C145.57 13.192 145.33 14.336 144.85 15.312C144.37 16.288 143.714 17.04 142.882 17.568C142.05 18.08 141.114 18.336 140.074 18.336C139.178 18.336 138.418 18.168 137.794 17.832C137.17 17.48 136.674 17.032 136.306 16.488H136.258V22.248H133.906V5.76H136.258V7.2H136.306C137.234 6 138.49 5.4 140.074 5.4ZM139.69 16.392C140.794 16.392 141.634 15.96 142.21 15.096C142.802 14.232 143.098 13.16 143.098 11.88C143.098 10.6 142.802 9.528 142.21 8.664C141.634 7.8 140.794 7.368 139.69 7.368C138.634 7.368 137.802 7.776 137.194 8.592C136.586 9.392 136.282 10.488 136.282 11.88C136.282 13.272 136.586 14.376 137.194 15.192C137.802 15.992 138.634 16.392 139.69 16.392ZM154.025 5.4C155.225 5.4 156.201 5.752 156.953 6.456C157.721 7.144 158.105 8.16 158.105 9.504V18H155.753V10.152C155.753 9.288 155.545 8.616 155.129 8.136C154.729 7.656 154.105 7.416 153.257 7.416C152.249 7.416 151.441 7.696 150.833 8.256C150.241 8.816 149.945 9.56 149.945 10.488V18H147.593V0.839999H149.945V7.296H149.993C150.361 6.752 150.881 6.304 151.553 5.952C152.225 5.584 153.049 5.4 154.025 5.4ZM166.12 18.36C164.872 18.36 163.784 18.088 162.856 17.544C161.928 17 161.216 16.24 160.72 15.264C160.24 14.288 160 13.16 160 11.88C160 10.6 160.248 9.472 160.744 8.496C161.24 7.52 161.944 6.76 162.856 6.216C163.784 5.656 164.88 5.376 166.144 5.376C167.392 5.376 168.472 5.648 169.384 6.192C170.312 6.736 171.016 7.504 171.496 8.496C171.992 9.472 172.24 10.592 172.24 11.856C172.24 13.136 171.992 14.272 171.496 15.264C171 16.24 170.288 17 169.36 17.544C168.448 18.088 167.368 18.36 166.12 18.36ZM166.144 16.416C167.344 16.416 168.248 16 168.856 15.168C169.48 14.32 169.792 13.224 169.792 11.88C169.792 10.536 169.48 9.448 168.856 8.616C168.248 7.768 167.344 7.344 166.144 7.344C164.928 7.344 164.008 7.76 163.384 8.592C162.76 9.424 162.448 10.52 162.448 11.88C162.448 13.224 162.76 14.32 163.384 15.168C164.008 16 164.928 16.416 166.144 16.416ZM180.674 5.4C181.874 5.4 182.85 5.752 183.602 6.456C184.37 7.144 184.754 8.16 184.754 9.504V18H182.402V10.152C182.402 9.288 182.194 8.616 181.778 8.136C181.378 7.656 180.754 7.416 179.906 7.416C178.898 7.416 178.09 7.696 177.482 8.256C176.89 8.816 176.594 9.56 176.594 10.488V18H174.242V5.76H176.594V7.296H176.642C177.01 6.752 177.53 6.304 178.202 5.952C178.874 5.584 179.698 5.4 180.674 5.4ZM198.529 11.616C198.529 12.08 198.521 12.376 198.505 12.504H189.097C189.129 13.608 189.457 14.544 190.081 15.312C190.721 16.064 191.617 16.44 192.769 16.44C193.729 16.44 194.465 16.208 194.977 15.744C195.505 15.28 195.841 14.776 195.985 14.232H198.385C198.033 15.48 197.385 16.48 196.441 17.232C195.497 17.984 194.257 18.36 192.721 18.36C191.457 18.36 190.369 18.08 189.457 17.52C188.545 16.96 187.849 16.192 187.369 15.216C186.905 14.24 186.673 13.12 186.673 11.856C186.673 10.576 186.913 9.448 187.393 8.472C187.889 7.496 188.593 6.736 189.505 6.192C190.417 5.648 191.489 5.376 192.721 5.376C194.561 5.376 195.985 5.936 196.993 7.056C198.017 8.176 198.529 9.696 198.529 11.616ZM196.081 10.656C196.081 9.68 195.761 8.88 195.121 8.256C194.497 7.616 193.673 7.296 192.649 7.296C191.657 7.296 190.833 7.608 190.177 8.232C189.521 8.84 189.161 9.648 189.097 10.656H196.081ZM218.851 5.4C220.067 5.4 220.987 5.752 221.611 6.456C222.251 7.16 222.571 8.176 222.571 9.504V18H220.219V10.152C220.219 9.24 220.067 8.56 219.763 8.112C219.475 7.648 218.915 7.416 218.083 7.416C217.219 7.416 216.523 7.696 215.995 8.256C215.483 8.816 215.227 9.56 215.227 10.488V18H212.875V10.152C212.875 9.24 212.723 8.56 212.419 8.112C212.131 7.648 211.571 7.416 210.739 7.416C209.875 7.416 209.179 7.696 208.651 8.256C208.139 8.816 207.883 9.56 207.883 10.488V18H205.531V5.76H207.883V7.296H207.931C208.315 6.752 208.803 6.304 209.395 5.952C209.987 5.584 210.707 5.4 211.555 5.4C213.219 5.4 214.299 6.112 214.795 7.536H214.843C215.915 6.112 217.251 5.4 218.851 5.4ZM228.532 18.336C227.316 18.336 226.34 18.016 225.604 17.376C224.884 16.736 224.524 15.888 224.524 14.832C224.524 13.952 224.724 13.248 225.124 12.72C225.54 12.176 226.108 11.76 226.828 11.472C227.564 11.168 228.5 10.912 229.636 10.704C230.42 10.56 231.012 10.432 231.412 10.32C231.812 10.192 232.132 10.024 232.372 9.816C232.612 9.592 232.732 9.288 232.732 8.904C232.732 7.816 231.956 7.272 230.404 7.272C229.364 7.272 228.636 7.448 228.22 7.8C227.804 8.152 227.564 8.744 227.5 9.576H225.1C225.164 8.312 225.636 7.296 226.516 6.528C227.396 5.76 228.724 5.376 230.5 5.376C231.876 5.376 232.972 5.712 233.788 6.384C234.62 7.04 235.036 8.112 235.036 9.6V15.216C235.036 15.68 235.076 16.024 235.156 16.248C235.236 16.456 235.388 16.56 235.612 16.56L235.9 16.536V17.976C235.484 18.072 235.084 18.12 234.7 18.12C234.092 18.12 233.628 17.984 233.308 17.712C233.004 17.424 232.82 16.944 232.756 16.272H232.708C232.308 16.928 231.756 17.44 231.052 17.808C230.348 18.16 229.508 18.336 228.532 18.336ZM229.06 16.44C230.164 16.44 231.052 16.168 231.724 15.624C232.396 15.064 232.732 14.264 232.732 13.224V11.472C232.556 11.632 232.244 11.784 231.796 11.928C231.364 12.056 230.78 12.2 230.044 12.36C228.94 12.584 228.148 12.872 227.668 13.224C227.204 13.56 226.972 14.04 226.972 14.664C226.972 15.848 227.668 16.44 229.06 16.44ZM244.33 5.4C245.53 5.4 246.506 5.752 247.258 6.456C248.026 7.144 248.41 8.16 248.41 9.504V18H246.058V10.152C246.058 9.288 245.85 8.616 245.434 8.136C245.034 7.656 244.41 7.416 243.562 7.416C242.554 7.416 241.746 7.696 241.138 8.256C240.546 8.816 240.25 9.56 240.25 10.488V18H237.898V5.76H240.25V7.296H240.298C240.666 6.752 241.186 6.304 241.858 5.952C242.53 5.584 243.354 5.4 244.33 5.4ZM259.017 5.76H261.369V18H259.017V16.464H258.969C258.601 17.008 258.081 17.456 257.409 17.808C256.737 18.16 255.913 18.336 254.937 18.336C253.737 18.336 252.753 17.992 251.985 17.304C251.233 16.6 250.857 15.576 250.857 14.232V5.76H253.209V13.584C253.209 14.448 253.409 15.128 253.809 15.624C254.225 16.104 254.857 16.344 255.705 16.344C256.713 16.344 257.513 16.064 258.105 15.504C258.713 14.944 259.017 14.2 259.017 13.272V5.76ZM268.52 2.64C268.024 2.64 267.688 2.744 267.512 2.952C267.336 3.16 267.248 3.584 267.248 4.224V5.76H269.528V7.704H267.248V18H264.872V7.704H263.192V5.76H264.872V4.272C264.872 2.928 265.128 1.992 265.64 1.464C266.168 0.935999 266.968 0.671999 268.04 0.671999C268.36 0.671999 268.856 0.719999 269.528 0.816V2.712C269.048 2.664 268.712 2.64 268.52 2.64ZM274.212 18.336C272.996 18.336 272.02 18.016 271.284 17.376C270.564 16.736 270.204 15.888 270.204 14.832C270.204 13.952 270.404 13.248 270.804 12.72C271.22 12.176 271.788 11.76 272.508 11.472C273.244 11.168 274.18 10.912 275.316 10.704C276.1 10.56 276.692 10.432 277.092 10.32C277.492 10.192 277.812 10.024 278.052 9.816C278.292 9.592 278.412 9.288 278.412 8.904C278.412 7.816 277.636 7.272 276.084 7.272C275.044 7.272 274.316 7.448 273.9 7.8C273.484 8.152 273.244 8.744 273.18 9.576H270.78C270.844 8.312 271.316 7.296 272.196 6.528C273.076 5.76 274.404 5.376 276.18 5.376C277.556 5.376 278.652 5.712 279.468 6.384C280.3 7.04 280.716 8.112 280.716 9.6V15.216C280.716 15.68 280.756 16.024 280.836 16.248C280.916 16.456 281.068 16.56 281.292 16.56L281.58 16.536V17.976C281.164 18.072 280.764 18.12 280.38 18.12C279.772 18.12 279.308 17.984 278.988 17.712C278.684 17.424 278.5 16.944 278.436 16.272H278.388C277.988 16.928 277.436 17.44 276.732 17.808C276.028 18.16 275.188 18.336 274.212 18.336ZM274.74 16.44C275.844 16.44 276.732 16.168 277.404 15.624C278.076 15.064 278.412 14.264 278.412 13.224V11.472C278.236 11.632 277.924 11.784 277.476 11.928C277.044 12.056 276.46 12.2 275.724 12.36C274.62 12.584 273.828 12.872 273.348 13.224C272.884 13.56 272.652 14.04 272.652 14.664C272.652 15.848 273.348 16.44 274.74 16.44ZM288.837 18.36C287.637 18.36 286.581 18.088 285.669 17.544C284.757 17 284.053 16.24 283.557 15.264C283.061 14.272 282.813 13.144 282.813 11.88C282.813 10.616 283.061 9.496 283.557 8.52C284.053 7.528 284.749 6.76 285.645 6.216C286.557 5.672 287.613 5.4 288.813 5.4C289.837 5.4 290.749 5.608 291.549 6.024C292.349 6.424 292.989 6.992 293.469 7.728C293.949 8.448 294.237 9.272 294.333 10.2H291.909C291.829 9.432 291.549 8.768 291.069 8.208C290.589 7.632 289.845 7.344 288.837 7.344C287.621 7.344 286.717 7.784 286.125 8.664C285.549 9.528 285.261 10.6 285.261 11.88C285.261 13.16 285.549 14.232 286.125 15.096C286.717 15.96 287.621 16.392 288.837 16.392C289.861 16.392 290.613 16.112 291.093 15.552C291.573 14.992 291.845 14.296 291.909 13.464H294.333C294.285 14.392 294.021 15.232 293.541 15.984C293.061 16.72 292.413 17.304 291.597 17.736C290.781 18.152 289.861 18.36 288.837 18.36ZM300.629 16.2C300.933 16.2 301.269 16.168 301.637 16.104V18C301.157 18.096 300.661 18.144 300.149 18.144C299.061 18.144 298.245 17.88 297.701 17.352C297.173 16.824 296.909 15.888 296.909 14.544V7.704H295.133V5.76H296.909V1.824H299.261V5.76H301.613V7.704H299.261V14.616C299.261 15.24 299.357 15.664 299.549 15.888C299.757 16.096 300.117 16.2 300.629 16.2ZM311.634 5.76H313.986V18H311.634V16.464H311.586C311.218 17.008 310.698 17.456 310.026 17.808C309.354 18.16 308.53 18.336 307.554 18.336C306.354 18.336 305.37 17.992 304.602 17.304C303.85 16.6 303.474 15.576 303.474 14.232V5.76H305.826V13.584C305.826 14.448 306.026 15.128 306.426 15.624C306.842 16.104 307.474 16.344 308.322 16.344C309.33 16.344 310.13 16.064 310.722 15.504C311.33 14.944 311.634 14.2 311.634 13.272V5.76ZM322.313 5.472C322.713 5.472 323.089 5.496 323.441 5.544V7.8C323.153 7.752 322.889 7.728 322.649 7.728C321.577 7.728 320.697 8.096 320.009 8.832C319.321 9.568 318.977 10.512 318.977 11.664V18H316.625V5.76H318.977V8.088H319.025C319.761 6.344 320.857 5.472 322.313 5.472ZM335.685 11.616C335.685 12.08 335.677 12.376 335.661 12.504H326.253C326.285 13.608 326.613 14.544 327.237 15.312C327.877 16.064 328.773 16.44 329.925 16.44C330.885 16.44 331.621 16.208 332.133 15.744C332.661 15.28 332.997 14.776 333.141 14.232H335.541C335.189 15.48 334.541 16.48 333.597 17.232C332.653 17.984 331.413 18.36 329.877 18.36C328.613 18.36 327.525 18.08 326.613 17.52C325.701 16.96 325.005 16.192 324.525 15.216C324.061 14.24 323.829 13.12 323.829 11.856C323.829 10.576 324.069 9.448 324.549 8.472C325.045 7.496 325.749 6.736 326.661 6.192C327.573 5.648 328.645 5.376 329.877 5.376C331.717 5.376 333.141 5.936 334.149 7.056C335.173 8.176 335.685 9.696 335.685 11.616ZM333.237 10.656C333.237 9.68 332.917 8.88 332.277 8.256C331.653 7.616 330.829 7.296 329.805 7.296C328.813 7.296 327.989 7.608 327.333 8.232C326.677 8.84 326.317 9.648 326.253 10.656H333.237ZM343.36 5.472C343.76 5.472 344.136 5.496 344.488 5.544V7.8C344.2 7.752 343.936 7.728 343.696 7.728C342.624 7.728 341.744 8.096 341.056 8.832C340.368 9.568 340.024 10.512 340.024 11.664V18H337.672V5.76H340.024V8.088H340.072C340.808 6.344 341.904 5.472 343.36 5.472Z" fill="white"/>
</svg>
