<svg width="260" height="70" viewBox="0 0 260 70" fill="none" xmlns="http://www.w3.org/2000/svg">
<g clip-path="url(#clip0_9895_1512)">
<path d="M32.0488 27.6492C29.7132 30.0958 26.461 31.6875 22.8836 31.9234V27.6492H32.0488ZM17.2366 31.9234C13.6296 31.6875 10.407 30.0958 8.04178 27.6492H17.2366V31.9234ZM40.0906 0H20.0749C8.98787 0 0 8.93147 0 19.9853C0 31.0391 8.98787 40 20.0749 40C30.6888 40 39.3515 31.8055 40.0906 21.4001V0Z" fill="white"/>
<path d="M100.226 17.0374H100.197V19.9262H100.226V20.0441H104.04V16.7427H100.226V17.0374Z" fill="white"/>
<path d="M53.7198 13.7657C55.0798 13.7657 56.558 13.2056 57.2085 11.9676H57.2676V12.3508C57.2676 14.3552 56.2624 15.7996 54.1632 15.7996C53.2171 15.7996 52.3598 15.4459 51.9458 14.5321H47.5406C47.6293 15.2395 47.8954 15.9175 48.3093 16.507C49.5806 18.3346 51.7389 19.0126 53.8972 19.0126C56.2032 19.0126 59.1007 18.1282 60.3424 16.0059C61.0815 14.7384 61.1111 13.2351 61.1111 11.8202V0.648515H57.2972V1.82759H57.238C56.4989 0.648515 55.0206 0.23584 53.7198 0.23584C49.8467 0.23584 47.3041 3.36038 47.3041 7.07445C47.3041 10.7885 49.9058 13.7657 53.7198 13.7657ZM54.1928 3.77305C56.085 3.77305 57.2972 5.21742 57.2972 7.04498C57.2972 8.87254 56.0259 10.199 54.1632 10.199C52.3302 10.199 51.118 8.69568 51.118 6.92707C51.118 5.21742 52.4189 3.77305 54.1928 3.77305Z" fill="white"/>
<path d="M67.0841 6.36695C67.0841 4.392 68.4145 4.06776 70.0997 4.03828V0.206299C68.6215 0.206299 67.5867 0.677928 66.9067 2.00438H66.8476V0.648451H63.2701V13.3529H67.0841V6.36695Z" fill="white"/>
<path d="M83.0196 9.37358H79.117C78.4961 10.14 77.8457 10.5527 76.8109 10.5527C75.3326 10.5527 74.0613 9.66835 73.8248 8.13555H83.3744C83.4335 7.78183 83.4631 7.45759 83.4631 7.13334C83.4631 3.30136 80.6248 0.206299 76.7222 0.206299C72.9674 0.206299 70.0404 3.33084 70.0404 7.01544C70.0404 10.7295 73.0856 13.7361 76.7813 13.7361C79.6787 13.7656 81.9257 11.9086 83.0196 9.37358ZM76.7517 3.41927C78.1413 3.41927 79.3535 4.21514 79.6491 5.60055H73.8543C74.1796 4.21514 75.3917 3.41927 76.7517 3.41927Z" fill="white"/>
<path d="M90.6757 13.7656C93.5436 13.7656 95.7905 11.9086 96.914 9.37358H93.0114C92.3905 10.14 91.7105 10.5527 90.7053 10.5527C89.227 10.5527 87.9557 9.66835 87.7192 8.13555H97.2392C97.2984 7.78183 97.3279 7.45759 97.3279 7.13334C97.3279 3.30136 94.4897 0.206299 90.587 0.206299C86.8322 0.206299 83.9053 3.33084 83.9053 7.01544C83.9348 10.759 86.9505 13.7656 90.6757 13.7656ZM90.6166 3.41927C92.0062 3.41927 93.2184 4.21514 93.514 5.60055H87.7192C88.0444 4.21514 89.2566 3.41927 90.6166 3.41927Z" fill="white"/>
<path d="M106.464 13.3529H110.278V5.39421C110.278 3.92037 110.012 2.29915 108.8 1.29694C107.972 0.618974 106.612 0.206299 105.548 0.206299C104.011 0.206299 102.887 0.677928 102.089 2.00438H102.03V0.648451H98.4818V13.3529H102.296V6.4259C102.296 4.92258 102.71 3.77299 104.484 3.77299C106.198 3.77299 106.494 4.98154 106.494 6.39642L106.464 13.3529Z" fill="white"/>
<path d="M129.88 0.206299C128.166 0.206299 126.747 1.03165 125.83 2.47601C125.061 1.03165 123.82 0.206299 122.164 0.206299C120.715 0.206299 119.385 0.677928 118.646 2.00438H118.587V0.648451H115.039V13.3529H118.853V6.60276C118.853 5.12892 119.237 3.77299 121.011 3.77299C122.607 3.77299 122.903 5.12892 122.903 6.4259V13.3529H126.717V6.4259C126.717 4.98154 127.131 3.80247 128.816 3.80247C130.59 3.80247 130.767 5.21735 130.767 6.63224V13.3529H134.581V6.4259C134.581 4.48043 134.641 2.97712 133.192 1.50328C132.334 0.589497 131.122 0.206299 129.88 0.206299Z" fill="white"/>
<path d="M146.111 2.00438H146.052C145.283 0.736881 143.746 0.206299 142.327 0.206299C138.483 0.206299 135.911 3.27188 135.911 6.98596C135.911 10.759 138.395 13.7951 142.327 13.7951C143.716 13.7951 145.372 13.294 146.052 11.997H146.111V13.3824H149.925V0.677927H146.111V2.00438ZM142.918 10.2579C141.115 10.2579 139.755 8.81352 139.755 7.04491C139.755 5.24683 141.055 3.77299 142.889 3.77299C144.751 3.77299 146.111 5.1584 146.111 7.01544C146.111 8.81352 144.781 10.2579 142.918 10.2579Z" fill="white"/>
<path d="M162.047 1.32648C161.219 0.648515 159.859 0.23584 158.794 0.23584C157.257 0.23584 156.134 0.707468 155.335 2.03392H155.276V0.677992H151.728V13.353H155.542V6.42597C155.542 4.92265 155.956 3.77305 157.73 3.77305C159.445 3.77305 159.74 4.9816 159.74 6.39649V13.353H163.554V5.39428C163.525 3.92044 163.288 2.32869 162.047 1.32648Z" fill="white"/>
<path d="M57.3268 22.4614H57.2677C56.5286 21.2823 55.0503 20.8696 53.7494 20.8696C49.8764 20.8696 47.3337 23.9942 47.3337 27.7082C47.3337 31.4223 49.9651 34.3995 53.7494 34.3995C55.1094 34.3995 56.5877 33.8394 57.2381 32.6014H57.2973V32.9846C57.2973 34.989 56.292 36.4334 54.1929 36.4334C53.2468 36.4334 52.3894 36.0796 51.9755 35.1659H47.5703C47.659 35.8733 47.925 36.5513 48.339 37.1408C49.6103 38.9684 51.7685 39.6463 53.9268 39.6463C56.2329 39.6463 59.1303 38.762 60.3721 36.6397C61.1112 35.3722 61.1408 33.8689 61.1408 32.454V21.2823H57.3268V22.4614ZM54.1929 30.8623C52.3598 30.8623 51.1477 29.3589 51.1477 27.5903C51.1477 25.8807 52.4485 24.4363 54.2225 24.4363C56.1146 24.4363 57.3268 25.8807 57.3268 27.7082C57.3268 29.5358 56.026 30.8623 54.1929 30.8623Z" fill="white"/>
<path d="M72.701 22.6382H72.6419C71.8732 21.3707 70.3358 20.8401 68.9167 20.8401C65.0732 20.8401 62.501 23.9057 62.501 27.6197C62.501 31.3928 64.9845 34.4289 68.9167 34.4289C70.3062 34.4289 71.9619 33.9278 72.6419 32.6308H72.701V34.0162H76.515V21.3117H72.701V22.6382ZM69.508 30.8917C67.7045 30.8917 66.3445 29.4473 66.3445 27.6787C66.3445 25.8806 67.6158 24.4068 69.4784 24.4068C71.341 24.4068 72.701 25.7922 72.701 27.6492C72.701 29.4473 71.3706 30.8917 69.508 30.8917Z" fill="white"/>
<path d="M93.4856 20.8401C91.7708 20.8401 90.3517 21.6654 89.4352 23.1098C88.6665 21.6654 87.4247 20.8401 85.7691 20.8401C84.3203 20.8401 82.9899 21.3117 82.2508 22.6382H82.1916V21.2822H78.6438V33.9867H82.4577V27.2366C82.4577 25.7627 82.8421 24.4068 84.616 24.4068C86.2125 24.4068 86.5082 25.7627 86.5082 27.0597V33.9867H90.3221V27.0597C90.3221 25.6153 90.736 24.4363 92.4213 24.4363C94.1952 24.4363 94.3726 25.8511 94.3726 27.266V33.9867H98.1865V27.0597C98.1865 25.1142 98.2456 23.6109 96.7969 22.1371C95.9395 21.2233 94.7569 20.8401 93.4856 20.8401Z" fill="white"/>
<path d="M104.011 21.2822H100.197V33.9867H104.011V21.2822Z" fill="white"/>
<path d="M116.458 21.9603C115.63 21.2823 114.27 20.8696 113.205 20.8696C111.668 20.8696 110.545 21.3413 109.746 22.6677H109.658V21.3118H106.11V33.9868H109.924V27.0598C109.924 25.5564 110.338 24.4068 112.112 24.4068C113.826 24.4068 114.122 25.6154 114.122 27.0303V33.9868H117.936V26.0281C117.906 24.5542 117.67 22.9625 116.458 21.9603Z" fill="white"/>
<path d="M129.318 22.4614H129.259C128.52 21.2823 127.041 20.8696 125.741 20.8696C121.867 20.8696 119.325 23.9942 119.325 27.7082C119.325 31.4223 121.956 34.3995 125.741 34.3995C127.101 34.3995 128.579 33.8394 129.229 32.6014H129.288V32.9846C129.288 34.989 128.283 36.4334 126.184 36.4334C125.238 36.4334 124.38 36.0796 123.967 35.1659H119.561C119.65 35.8733 119.916 36.5513 120.33 37.1408C121.601 38.9684 123.76 39.6463 125.918 39.6463C128.224 39.6463 131.121 38.762 132.363 36.6397C133.102 35.3722 133.132 33.8689 133.132 32.454V21.2823H129.318V22.4614ZM126.214 30.8623C124.381 30.8623 123.168 29.3589 123.168 27.5903C123.168 25.8807 124.469 24.4363 126.243 24.4363C128.135 24.4363 129.347 25.8807 129.347 27.7082C129.318 29.5358 128.047 30.8623 126.214 30.8623Z" fill="white"/>
</g>
<defs>
<clipPath id="clip0_9895_1512">
<rect width="163.556" height="40" fill="white"/>
</clipPath>
</defs>
</svg>
