<svg width="260" height="70" viewBox="0 0 260 70" fill="none" xmlns="http://www.w3.org/2000/svg">
<path d="M18.8403 16.7877C18.9655 10.5328 15.4548 5.0824 13.6264 3.77245C13.6181 3.76402 13.4553 3.67557 13.4678 3.91987L13.4636 3.9283C13.2841 15.7431 7.26467 18.9232 3.99193 23.2575C-3.27151 32.8862 2.78972 43.8712 10.6417 45.952C10.7753 45.9857 11.1385 46.0952 11.8273 46.2385C12.1863 46.3142 12.2906 46.0067 12.0277 45.5477C11.0884 43.8925 9.41865 41.1125 9.09306 37.5447C8.33332 29.2555 18.6983 24.0704 18.8403 16.7877Z" fill="white"/>
<path d="M22.8023 20.7975C22.7397 20.7511 22.652 20.7553 22.6437 20.8354C22.4767 22.3391 20.9363 25.456 18.9076 28.3708C12.0783 38.1975 15.518 42.6538 18.1896 45.7455C18.6822 46.3183 18.9285 46.192 19.1873 45.7835C19.4294 45.396 19.7967 44.903 21.3746 44.1493C21.6209 44.0313 27.582 40.8385 28.2291 33.5685C28.8511 26.53 24.3802 22.0864 22.8023 20.7975Z" fill="white"/>
<path d="M58.2631 19.0032V44.861H52.7653V34.415H42.2V44.861H36.5645V19.0032H42.2V29.449H52.7653V19.0032H58.2631Z" fill="white"/>
<path d="M83.6771 19.0032V24.1166H81.0598H75.7834V44.861H70.1272V24.1208H64.9925H62.3752V19.0032H83.6771Z" fill="white"/>
<path fill-rule="evenodd" clip-rule="evenodd" d="M103.701 44.8863L97.2396 35.8895L90.8276 44.8485L84.5579 44.861L94.0627 31.6605L85.0922 19.0074H91.3577L109.942 44.8905H103.701V44.8863Z" fill="white"/>
<path d="M98.9971 24.7947L102.099 29.1415L109.446 19.0032H103.213L98.9971 24.7947Z" fill="white"/>
</svg>
