<svg width="161" height="160" viewBox="0 0 161 160" fill="none" xmlns="http://www.w3.org/2000/svg">
<path d="M101.542 67.6304H102.042H101.542ZM91.613 27.4984H91.113C91.113 33.2043 86.4874 37.83 80.7814 37.83V38.33V38.83C87.0397 38.83 92.113 33.7566 92.113 27.4984H91.613ZM80.7814 38.33V37.83C75.0754 37.83 70.4499 33.2043 70.4499 27.4984H69.9499H69.4499C69.4499 33.7566 74.5231 38.83 80.7814 38.83V38.33ZM69.9499 27.4984H70.4499C70.4499 21.7924 75.0754 17.1667 80.7814 17.1667V16.6667V16.1667C74.5231 16.1667 69.4499 21.2401 69.4499 27.4984H69.9499ZM80.7814 16.6667V17.1667C86.4874 17.1667 91.113 21.7924 91.113 27.4984H91.613H92.113C92.113 21.2401 87.0397 16.1667 80.7814 16.1667V16.6667ZM99.542 69.6302V69.1302H62.0199V69.6302V70.1302H99.542V69.6302ZM62.0199 69.6302V69.1302C61.1922 69.1302 60.52 68.459 60.52 67.6304H60.02H59.52C59.52 69.0117 60.6404 70.1302 62.0199 70.1302V69.6302ZM60.02 67.6304H60.52V53.9841H60.02H59.52V67.6304H60.02ZM60.02 53.9841H60.52C60.52 50.7839 63.1136 48.1904 66.3137 48.1904V47.6904V47.1904C62.5613 47.1904 59.52 50.2317 59.52 53.9841H60.02ZM66.3137 47.6904V48.1904H95.2482V47.6904V47.1904H66.3137V47.6904ZM95.2482 47.6904V48.1904C98.4483 48.1904 101.042 50.7839 101.042 53.9841H101.542H102.042C102.042 50.2317 99.0006 47.1904 95.2482 47.1904V47.6904ZM101.542 53.9841H101.042V67.6304H101.542H102.042V53.9841H101.542ZM101.542 67.6304H101.042C101.042 68.4592 100.371 69.1302 99.542 69.1302V69.6302V70.1302C100.923 70.1302 102.042 69.0115 102.042 67.6304H101.542Z" fill="url(#paint0_linear_2016_1839)"/>
<path d="M60.0213 141.918L60.5213 141.919V141.918H60.0213ZM50.0914 101.788H49.5914C49.5914 107.494 44.9658 112.119 39.2598 112.119V112.619V113.119C45.5181 113.119 50.5914 108.046 50.5914 101.788H50.0914ZM39.2598 112.619V112.119C33.5538 112.119 28.9283 107.494 28.9283 101.788H28.4283H27.9283C27.9283 108.046 33.0015 113.119 39.2598 113.119V112.619ZM28.4283 101.788H28.9283C28.9283 96.0819 33.5538 91.4563 39.2598 91.4563V90.9563V90.4563C33.0015 90.4563 27.9283 95.5296 27.9283 101.788H28.4283ZM39.2598 90.9563V91.4563C44.9658 91.4563 49.5914 96.0819 49.5914 101.788H50.0914H50.5914C50.5914 95.5296 45.5181 90.4563 39.2598 90.4563V90.9563ZM58.0214 143.918V143.418H20.4993V143.918V144.418H58.0214V143.918ZM20.4993 143.918V143.418C19.6716 143.418 18.9995 142.747 18.9995 141.918H18.4995H17.9995C17.9995 143.3 19.1197 144.418 20.4993 144.418V143.918ZM18.4995 141.918H18.9995V128.271H18.4995H17.9995V141.918H18.4995ZM18.4995 128.271H18.9995C18.9995 125.071 21.593 122.477 24.7932 122.477V121.977V121.477C21.0407 121.477 17.9995 124.518 17.9995 128.271H18.4995ZM24.7932 121.977V122.477H53.7276V121.977V121.477H24.7932V121.977ZM53.7276 121.977V122.477C56.9277 122.477 59.5213 125.071 59.5213 128.271H60.0213H60.5213C60.5213 124.518 57.48 121.477 53.7276 121.477V121.977ZM60.0213 128.271H59.5213V141.918H60.0213H60.5213V128.271H60.0213ZM60.0213 141.918L59.5213 141.918C59.5203 142.747 58.8486 143.418 58.0214 143.418V143.918V144.418C59.4015 144.418 60.5196 143.299 60.5213 141.919L60.0213 141.918Z" fill="white"/>
<path d="M122.302 112.619C128.284 112.619 133.134 107.77 133.134 101.788C133.134 95.8058 128.284 90.9563 122.302 90.9563C116.32 90.9563 111.471 95.8058 111.471 101.788C111.471 107.77 116.32 112.619 122.302 112.619Z" stroke="white" stroke-miterlimit="10"/>
<path d="M141.064 143.918H103.542C102.438 143.918 101.542 143.023 101.542 141.918V128.271C101.542 124.794 104.359 121.977 107.836 121.977H136.77C140.246 121.977 143.064 124.794 143.064 128.271V141.918C143.062 143.023 142.168 143.918 141.064 143.918Z" stroke="white" stroke-miterlimit="10" stroke-linejoin="round"/>
<path d="M80.7818 86.3638V101.278M80.7818 101.278L70.2363 111.823M80.7818 101.278L91.3274 111.823" stroke="url(#paint1_linear_2016_1839)" stroke-miterlimit="10" stroke-linecap="round" stroke-linejoin="round"/>
<defs>
<linearGradient id="paint0_linear_2016_1839" x1="101.542" y1="43.1485" x2="60.02" y2="43.1485" gradientUnits="userSpaceOnUse">
<stop stop-color="#F66979"/>
<stop offset="1" stop-color="#D278FE"/>
</linearGradient>
<linearGradient id="paint1_linear_2016_1839" x1="91.3274" y1="99.0935" x2="70.2363" y2="99.0935" gradientUnits="userSpaceOnUse">
<stop stop-color="#F66979"/>
<stop offset="1" stop-color="#D278FE"/>
</linearGradient>
</defs>
</svg>
