<svg width="260" height="70" viewBox="0 0 260 70" fill="none" xmlns="http://www.w3.org/2000/svg">
<path d="M1.344 19C1.152 19 1.056 18.896 1.056 18.688V3.592C1.056 3.384 1.152 3.28 1.344 3.28H4.488C4.696 3.28 4.8 3.384 4.8 3.592V18.688C4.8 18.896 4.696 19 4.488 19H1.344ZM7.01194 19C6.80394 19 6.69994 18.896 6.69994 18.688V10.168C6.69994 9.64 6.69194 9.144 6.67594 8.68C6.65994 8.216 6.63594 7.792 6.60394 7.408C6.58794 7.168 6.68394 7.048 6.89194 7.048H9.48394C9.64394 7.048 9.73994 7.136 9.77194 7.312C9.81994 7.568 9.85994 7.88 9.89194 8.248C9.92394 8.616 9.94794 8.96 9.96394 9.28L10.3239 10.384V18.688C10.3239 18.896 10.2199 19 10.0119 19H7.01194ZM10.0599 11.848L9.79594 8.848C10.0519 8.496 10.3399 8.176 10.6599 7.888C10.9799 7.584 11.3159 7.336 11.6679 7.144C12.0199 6.936 12.3719 6.832 12.7239 6.832C12.8359 6.832 12.9399 6.84 13.0359 6.856C13.1319 6.872 13.2199 6.896 13.2999 6.928C13.3959 6.96 13.4519 7.008 13.4679 7.072C13.4999 7.136 13.5159 7.216 13.5159 7.312C13.5159 7.728 13.5079 8.2 13.4919 8.728C13.4919 9.256 13.4679 9.752 13.4199 10.216C13.4039 10.424 13.3079 10.52 13.1319 10.504C13.0359 10.488 12.9319 10.472 12.8199 10.456C12.7079 10.44 12.5879 10.432 12.4599 10.432C12.2039 10.432 11.9319 10.488 11.6439 10.6C11.3719 10.712 11.0999 10.872 10.8279 11.08C10.5559 11.288 10.2999 11.544 10.0599 11.848ZM19.2069 19.192C17.7029 19.192 16.5269 18.808 15.6789 18.04C14.8309 17.256 14.4069 16.12 14.4069 14.632V11.392C14.4069 9.92 14.8309 8.792 15.6789 8.008C16.5269 7.224 17.7029 6.832 19.2069 6.832C20.7109 6.832 21.8869 7.224 22.7349 8.008C23.5829 8.792 24.0069 9.92 24.0069 11.392V14.632C24.0069 16.12 23.5829 17.256 22.7349 18.04C21.9029 18.808 20.7269 19.192 19.2069 19.192ZM19.2069 16.096C19.6229 16.096 19.9189 15.976 20.0949 15.736C20.2869 15.48 20.3829 15.072 20.3829 14.512V11.536C20.3829 10.96 20.2869 10.552 20.0949 10.312C19.9189 10.072 19.6229 9.952 19.2069 9.952C18.8069 9.952 18.5109 10.072 18.3189 10.312C18.1269 10.552 18.0309 10.96 18.0309 11.536V14.512C18.0309 15.072 18.1269 15.48 18.3189 15.736C18.5109 15.976 18.8069 16.096 19.2069 16.096ZM31.6397 19C31.4317 19 31.3277 18.896 31.3277 18.688V11.008C31.3277 10.64 31.2637 10.376 31.1357 10.216C31.0077 10.056 30.7917 9.976 30.4877 9.976C30.2317 9.976 29.9757 10.056 29.7197 10.216C29.4637 10.376 29.2077 10.584 28.9517 10.84L28.4957 9.04C28.9437 8.448 29.4797 7.936 30.1037 7.504C30.7277 7.056 31.4477 6.832 32.2637 6.832C33.1757 6.832 33.8477 7.112 34.2797 7.672C34.7277 8.216 34.9517 9.096 34.9517 10.312V18.688C34.9517 18.896 34.8477 19 34.6397 19H31.6397ZM25.8557 19C25.6477 19 25.5437 18.896 25.5437 18.688V10.168C25.5437 9.64 25.5357 9.144 25.5197 8.68C25.5037 8.2 25.4797 7.776 25.4477 7.408C25.4317 7.168 25.5277 7.048 25.7357 7.048H28.3277C28.4877 7.048 28.5837 7.144 28.6157 7.336C28.6477 7.56 28.6797 7.872 28.7117 8.272C28.7597 8.656 28.7917 9 28.8077 9.304L29.1677 10.336V18.688C29.1677 18.896 29.0637 19 28.8557 19H25.8557ZM36.2451 19C36.1491 19 36.0771 18.968 36.0291 18.904C35.9971 18.824 36.0051 18.72 36.0531 18.592L39.1491 12.88L36.2451 7.408C36.1811 7.296 36.1731 7.208 36.2211 7.144C36.2691 7.08 36.3491 7.048 36.4611 7.048H39.8691C40.0451 7.048 40.1571 7.12 40.2051 7.264L40.7811 8.824C40.8771 9.112 40.9731 9.424 41.0691 9.76C41.1651 10.08 41.2531 10.496 41.3331 11.008H41.3571C41.4531 10.496 41.5411 10.072 41.6211 9.736C41.7171 9.4 41.8131 9.096 41.9091 8.824L42.4371 7.288C42.4851 7.128 42.5891 7.048 42.7491 7.048H46.1811C46.2931 7.048 46.3651 7.08 46.3971 7.144C46.4451 7.208 46.4451 7.296 46.3971 7.408L43.5171 12.856L46.6131 18.592C46.6771 18.72 46.6851 18.824 46.6371 18.904C46.6051 18.968 46.5331 19 46.4211 19H42.9651C42.7891 19 42.6771 18.936 42.6291 18.808L42.0531 17.152C41.9251 16.848 41.8051 16.52 41.6931 16.168C41.5811 15.816 41.4691 15.384 41.3571 14.872H41.3091C41.1971 15.384 41.0851 15.816 40.9731 16.168C40.8771 16.52 40.7651 16.856 40.6371 17.176L40.0371 18.808C40.0051 18.936 39.8931 19 39.7011 19H36.2451ZM50.9873 19C50.7473 19 50.6753 18.88 50.7713 18.64L55.9313 3.52C55.9953 3.36 56.1153 3.28 56.2913 3.28H58.9073C59.1313 3.28 59.2113 3.4 59.1473 3.64L53.9633 18.76C53.9153 18.92 53.8033 19 53.6273 19H50.9873ZM64.3914 19C64.1834 19 64.0794 18.896 64.0794 18.688V3.592C64.0794 3.384 64.1834 3.28 64.3914 3.28H67.5114C67.7194 3.28 67.8234 3.384 67.8234 3.592V9.448H71.6394V3.592C71.6394 3.384 71.7434 3.28 71.9514 3.28H75.0714C75.2794 3.28 75.3834 3.384 75.3834 3.592V18.688C75.3834 18.896 75.2794 19 75.0714 19H71.9514C71.7434 19 71.6394 18.896 71.6394 18.688V12.736H67.8234V18.688C67.8234 18.896 67.7194 19 67.5114 19H64.3914ZM79.1897 23.44C79.0937 23.44 79.0217 23.4 78.9737 23.32C78.9257 23.256 78.9177 23.176 78.9497 23.08L80.1017 19.024L76.7177 7.408C76.6377 7.168 76.7177 7.048 76.9577 7.048H80.2457C80.4217 7.048 80.5337 7.144 80.5817 7.336L81.3017 11.152C81.3977 11.664 81.4857 12.224 81.5657 12.832C81.6457 13.424 81.7177 14 81.7817 14.56H81.8537C81.9337 14 82.0137 13.424 82.0937 12.832C82.1737 12.224 82.2457 11.672 82.3097 11.176L83.1017 7.336C83.1177 7.144 83.2217 7.048 83.4137 7.048H86.6777C86.9017 7.048 86.9817 7.168 86.9177 7.408L82.4297 23.2C82.3977 23.36 82.2857 23.44 82.0937 23.44H79.1897ZM92.496 19.192C90.944 19.192 89.752 18.8 88.92 18.016C88.104 17.216 87.696 16.056 87.696 14.536V11.416C87.696 9.928 88.112 8.792 88.944 8.008C89.776 7.224 90.952 6.832 92.472 6.832C93.48 6.832 94.336 7.032 95.04 7.432C95.744 7.816 96.264 8.352 96.6 9.04C96.936 9.728 97.056 10.504 96.96 11.368C96.928 11.64 96.816 11.776 96.624 11.776H93.96C93.752 11.776 93.648 11.664 93.648 11.44C93.68 10.896 93.6 10.512 93.408 10.288C93.232 10.064 92.944 9.952 92.544 9.952C92.128 9.952 91.816 10.072 91.608 10.312C91.416 10.552 91.32 10.968 91.32 11.56V14.392C91.32 15.016 91.416 15.456 91.608 15.712C91.8 15.952 92.104 16.072 92.52 16.072C92.936 16.072 93.224 15.96 93.384 15.736C93.56 15.496 93.648 15.12 93.648 14.608C93.648 14.368 93.744 14.248 93.936 14.248H96.648C96.856 14.248 96.96 14.36 96.96 14.584C97.008 16.088 96.656 17.232 95.904 18.016C95.168 18.8 94.032 19.192 92.496 19.192ZM103.16 19.192C101.656 19.192 100.48 18.808 99.6321 18.04C98.7841 17.256 98.3601 16.12 98.3601 14.632V11.392C98.3601 9.92 98.7841 8.792 99.6321 8.008C100.48 7.224 101.656 6.832 103.16 6.832C104.664 6.832 105.84 7.224 106.688 8.008C107.536 8.792 107.96 9.92 107.96 11.392V14.632C107.96 16.12 107.536 17.256 106.688 18.04C105.856 18.808 104.68 19.192 103.16 19.192ZM103.16 16.096C103.576 16.096 103.872 15.976 104.048 15.736C104.24 15.48 104.336 15.072 104.336 14.512V11.536C104.336 10.96 104.24 10.552 104.048 10.312C103.872 10.072 103.576 9.952 103.16 9.952C102.76 9.952 102.464 10.072 102.272 10.312C102.08 10.552 101.984 10.96 101.984 11.536V14.512C101.984 15.072 102.08 15.48 102.272 15.736C102.464 15.976 102.76 16.096 103.16 16.096ZM115.593 19C115.385 19 115.281 18.896 115.281 18.688V11.008C115.281 10.64 115.217 10.376 115.089 10.216C114.961 10.056 114.745 9.976 114.441 9.976C114.185 9.976 113.929 10.056 113.673 10.216C113.417 10.376 113.161 10.584 112.905 10.84L112.449 9.04C112.897 8.448 113.433 7.936 114.057 7.504C114.681 7.056 115.401 6.832 116.217 6.832C117.129 6.832 117.801 7.112 118.233 7.672C118.681 8.216 118.905 9.096 118.905 10.312V18.688C118.905 18.896 118.801 19 118.593 19H115.593ZM109.809 19C109.601 19 109.497 18.896 109.497 18.688V10.168C109.497 9.64 109.489 9.144 109.473 8.68C109.457 8.2 109.433 7.776 109.401 7.408C109.385 7.168 109.481 7.048 109.689 7.048H112.281C112.441 7.048 112.537 7.144 112.569 7.336C112.601 7.56 112.633 7.872 112.665 8.272C112.713 8.656 112.745 9 112.761 9.304L113.121 10.336V18.688C113.121 18.896 113.017 19 112.809 19H109.809ZM123.854 19C123.614 19 123.542 18.88 123.638 18.64L128.798 3.52C128.862 3.36 128.982 3.28 129.158 3.28H131.774C131.998 3.28 132.078 3.4 132.014 3.64L126.83 18.76C126.782 18.92 126.67 19 126.494 19H123.854ZM137.235 19C137.043 19 136.947 18.896 136.947 18.688V3.592C136.947 3.384 137.043 3.28 137.235 3.28H145.707C145.899 3.28 145.995 3.384 145.995 3.592V6.256C145.995 6.464 145.899 6.568 145.707 6.568H140.691V9.52H145.251C145.443 9.52 145.539 9.624 145.539 9.832V12.304C145.539 12.528 145.443 12.64 145.251 12.64H140.691V15.712H145.707C145.899 15.712 145.995 15.816 145.995 16.024V18.688C145.995 18.896 145.899 19 145.707 19H137.235ZM153.51 23.44C153.318 23.44 153.222 23.336 153.222 23.128V9.928C153.046 9.88 152.87 9.848 152.694 9.832C152.534 9.8 152.366 9.784 152.19 9.784C151.806 9.784 151.526 9.896 151.35 10.12C151.19 10.344 151.11 10.688 151.11 11.152V15.064C151.11 15.432 151.174 15.696 151.302 15.856C151.43 16 151.638 16.072 151.926 16.072C152.182 16.072 152.446 16 152.718 15.856C152.99 15.696 153.246 15.464 153.486 15.16L153.51 17.704C153.046 18.184 152.526 18.552 151.95 18.808C151.39 19.064 150.814 19.192 150.222 19.192C149.294 19.192 148.606 18.92 148.158 18.376C147.71 17.816 147.486 16.952 147.486 15.784V11.008C147.486 9.6 147.838 8.552 148.542 7.864C149.246 7.176 150.35 6.832 151.854 6.832C152.83 6.832 153.71 6.912 154.494 7.072C155.278 7.216 156.062 7.304 156.846 7.336V23.128C156.846 23.336 156.742 23.44 156.534 23.44H153.51ZM161.072 19C160.896 19 160.784 18.912 160.736 18.736L158.072 7.384C158.024 7.16 158.104 7.048 158.312 7.048H161.504C161.696 7.048 161.8 7.152 161.816 7.36L162.512 12.136C162.608 12.68 162.68 13.216 162.728 13.744C162.776 14.272 162.824 14.808 162.872 15.352H162.944C163.04 14.824 163.128 14.304 163.208 13.792C163.304 13.264 163.4 12.736 163.496 12.208L163.904 10.024L163.544 7.696C163.512 7.44 163.6 7.312 163.808 7.312H166.52C166.696 7.312 166.808 7.408 166.856 7.6L167.528 12.184C167.592 12.728 167.656 13.264 167.72 13.792C167.8 14.304 167.872 14.824 167.936 15.352H168.008C168.056 14.808 168.112 14.272 168.176 13.744C168.24 13.2 168.304 12.664 168.368 12.136L169.088 7.36C169.104 7.152 169.208 7.048 169.4 7.048H172.616C172.824 7.048 172.904 7.16 172.856 7.384L170.168 18.736C170.12 18.912 170.008 19 169.832 19H166.616C166.408 19 166.288 18.912 166.256 18.736L165.92 17.056C165.856 16.576 165.784 16.08 165.704 15.568C165.64 15.04 165.568 14.384 165.488 13.6H165.392C165.328 14.384 165.256 15.04 165.176 15.568C165.112 16.08 165.032 16.576 164.936 17.056L164.648 18.736C164.6 18.912 164.488 19 164.312 19H161.072ZM174.403 19C174.195 19 174.091 18.896 174.091 18.688V7.36C174.091 7.152 174.195 7.048 174.403 7.048H177.403C177.611 7.048 177.715 7.152 177.715 7.36V18.688C177.715 18.896 177.611 19 177.403 19H174.403ZM175.891 5.704C175.267 5.704 174.771 5.552 174.403 5.248C174.051 4.928 173.875 4.496 173.875 3.952V3.472C173.875 2.912 174.051 2.48 174.403 2.176C174.771 1.856 175.267 1.696 175.891 1.696C176.547 1.696 177.043 1.856 177.379 2.176C177.731 2.48 177.907 2.912 177.907 3.472V3.952C177.907 4.496 177.731 4.928 177.379 5.248C177.043 5.552 176.547 5.704 175.891 5.704ZM184.235 19.192C182.827 19.192 181.835 18.864 181.259 18.208C180.683 17.536 180.395 16.408 180.395 14.824V10.12H179.075C178.883 10.12 178.787 10.016 178.787 9.808V7.36C178.787 7.152 178.883 7.048 179.075 7.048H180.515L180.875 4.24C180.923 4.032 181.027 3.928 181.187 3.928H183.731C183.923 3.928 184.019 4.032 184.019 4.24V7.048H186.395C186.619 7.048 186.731 7.152 186.731 7.36V9.808C186.731 10.016 186.619 10.12 186.395 10.12H184.019V14.56C184.019 15.088 184.099 15.48 184.259 15.736C184.419 15.976 184.707 16.096 185.123 16.096C185.315 16.096 185.507 16.072 185.699 16.024C185.907 15.976 186.139 15.904 186.395 15.808C186.635 15.728 186.755 15.816 186.755 16.072V18.472C186.755 18.664 186.667 18.784 186.491 18.832C186.203 18.944 185.859 19.032 185.459 19.096C185.075 19.16 184.667 19.192 184.235 19.192ZM190.237 23.44C190.141 23.44 190.069 23.4 190.021 23.32C189.973 23.256 189.965 23.176 189.997 23.08L191.149 19.024L187.765 7.408C187.685 7.168 187.765 7.048 188.005 7.048H191.293C191.469 7.048 191.581 7.144 191.629 7.336L192.349 11.152C192.445 11.664 192.533 12.224 192.613 12.832C192.693 13.424 192.765 14 192.829 14.56H192.901C192.981 14 193.061 13.424 193.141 12.832C193.221 12.224 193.293 11.672 193.357 11.176L194.149 7.336C194.165 7.144 194.269 7.048 194.461 7.048H197.725C197.949 7.048 198.029 7.168 197.965 7.408L193.477 23.2C193.445 23.36 193.333 23.44 193.141 23.44H190.237ZM0.456 42C0.216 42 0.144 41.88 0.24 41.64L5.4 26.52C5.464 26.36 5.584 26.28 5.76 26.28H8.376C8.6 26.28 8.68 26.4 8.616 26.64L3.432 41.76C3.384 41.92 3.272 42 3.096 42H0.456ZM13.8842 42C13.6602 42 13.5482 41.896 13.5482 41.688V26.592C13.5482 26.384 13.6522 26.28 13.8602 26.28H18.3722C20.0842 26.28 21.3642 26.608 22.2122 27.264C23.0762 27.92 23.5082 28.896 23.5082 30.192C23.5082 31.072 23.3322 31.792 22.9802 32.352C22.6282 32.896 22.0682 33.328 21.3002 33.648V33.744C22.2122 33.968 22.9002 34.384 23.3642 34.992C23.8442 35.6 24.0842 36.392 24.0842 37.368C24.0842 38.984 23.6282 40.16 22.7162 40.896C21.8202 41.632 20.3802 42 18.3962 42H13.8842ZM17.2922 38.976H18.4922C19.1322 38.976 19.6042 38.824 19.9082 38.52C20.2282 38.216 20.3882 37.76 20.3882 37.152C20.3882 36.576 20.2282 36.136 19.9082 35.832C19.5882 35.528 19.1002 35.376 18.4442 35.376H17.2922V38.976ZM17.2922 32.664H18.2762C18.8042 32.664 19.1962 32.52 19.4522 32.232C19.7242 31.928 19.8602 31.488 19.8602 30.912C19.8602 30.368 19.7242 29.968 19.4522 29.712C19.1802 29.44 18.7562 29.304 18.1802 29.304H17.2922V32.664ZM25.8557 42C25.6477 42 25.5437 41.896 25.5437 41.688V30.36C25.5437 30.152 25.6477 30.048 25.8557 30.048H28.8557C29.0637 30.048 29.1677 30.152 29.1677 30.36V41.688C29.1677 41.896 29.0637 42 28.8557 42H25.8557ZM27.3437 28.704C26.7197 28.704 26.2237 28.552 25.8557 28.248C25.5037 27.928 25.3277 27.496 25.3277 26.952V26.472C25.3277 25.912 25.5037 25.48 25.8557 25.176C26.2237 24.856 26.7197 24.696 27.3437 24.696C27.9997 24.696 28.4957 24.856 28.8317 25.176C29.1837 25.48 29.3597 25.912 29.3597 26.472V26.952C29.3597 27.496 29.1837 27.928 28.8317 28.248C28.4957 28.552 27.9997 28.704 27.3437 28.704ZM35.688 42.192C34.28 42.192 33.288 41.864 32.712 41.208C32.136 40.536 31.848 39.408 31.848 37.824V33.12H30.528C30.336 33.12 30.24 33.016 30.24 32.808V30.36C30.24 30.152 30.336 30.048 30.528 30.048H31.968L32.328 27.24C32.376 27.032 32.48 26.928 32.64 26.928H35.184C35.376 26.928 35.472 27.032 35.472 27.24V30.048H37.848C38.072 30.048 38.184 30.152 38.184 30.36V32.808C38.184 33.016 38.072 33.12 37.848 33.12H35.472V37.56C35.472 38.088 35.552 38.48 35.712 38.736C35.872 38.976 36.16 39.096 36.576 39.096C36.768 39.096 36.96 39.072 37.152 39.024C37.36 38.976 37.592 38.904 37.848 38.808C38.088 38.728 38.208 38.816 38.208 39.072V41.472C38.208 41.664 38.12 41.784 37.944 41.832C37.656 41.944 37.312 42.032 36.912 42.096C36.528 42.16 36.12 42.192 35.688 42.192ZM44.0507 42.192C42.4987 42.192 41.3067 41.8 40.4747 41.016C39.6587 40.216 39.2507 39.056 39.2507 37.536V34.416C39.2507 32.928 39.6667 31.792 40.4987 31.008C41.3307 30.224 42.5067 29.832 44.0267 29.832C45.0347 29.832 45.8907 30.032 46.5947 30.432C47.2987 30.816 47.8187 31.352 48.1547 32.04C48.4907 32.728 48.6107 33.504 48.5147 34.368C48.4827 34.64 48.3707 34.776 48.1787 34.776H45.5147C45.3067 34.776 45.2027 34.664 45.2027 34.44C45.2347 33.896 45.1547 33.512 44.9627 33.288C44.7867 33.064 44.4987 32.952 44.0987 32.952C43.6827 32.952 43.3707 33.072 43.1627 33.312C42.9707 33.552 42.8747 33.968 42.8747 34.56V37.392C42.8747 38.016 42.9707 38.456 43.1627 38.712C43.3547 38.952 43.6587 39.072 44.0747 39.072C44.4907 39.072 44.7787 38.96 44.9387 38.736C45.1147 38.496 45.2027 38.12 45.2027 37.608C45.2027 37.368 45.2987 37.248 45.4907 37.248H48.2027C48.4107 37.248 48.5147 37.36 48.5147 37.584C48.5627 39.088 48.2107 40.232 47.4587 41.016C46.7227 41.8 45.5867 42.192 44.0507 42.192ZM54.7148 42.192C53.2108 42.192 52.0348 41.808 51.1868 41.04C50.3388 40.256 49.9148 39.12 49.9148 37.632V34.392C49.9148 32.92 50.3388 31.792 51.1868 31.008C52.0348 30.224 53.2108 29.832 54.7148 29.832C56.2188 29.832 57.3948 30.224 58.2428 31.008C59.0908 31.792 59.5148 32.92 59.5148 34.392V37.632C59.5148 39.12 59.0908 40.256 58.2428 41.04C57.4108 41.808 56.2348 42.192 54.7148 42.192ZM54.7148 39.096C55.1308 39.096 55.4268 38.976 55.6028 38.736C55.7948 38.48 55.8908 38.072 55.8908 37.512V34.536C55.8908 33.96 55.7948 33.552 55.6028 33.312C55.4268 33.072 55.1308 32.952 54.7148 32.952C54.3148 32.952 54.0188 33.072 53.8268 33.312C53.6348 33.552 53.5388 33.96 53.5388 34.536V37.512C53.5388 38.072 53.6348 38.48 53.8268 38.736C54.0188 38.976 54.3148 39.096 54.7148 39.096ZM61.3869 42C61.1789 42 61.0749 41.896 61.0749 41.688V30.36C61.0749 30.152 61.1789 30.048 61.3869 30.048H64.3869C64.5949 30.048 64.6989 30.152 64.6989 30.36V41.688C64.6989 41.896 64.5949 42 64.3869 42H61.3869ZM62.8749 28.704C62.2509 28.704 61.7549 28.552 61.3869 28.248C61.0349 27.928 60.8589 27.496 60.8589 26.952V26.472C60.8589 25.912 61.0349 25.48 61.3869 25.176C61.7549 24.856 62.2509 24.696 62.8749 24.696C63.5309 24.696 64.0269 24.856 64.3629 25.176C64.7149 25.48 64.8909 25.912 64.8909 26.472V26.952C64.8909 27.496 64.7149 27.928 64.3629 28.248C64.0269 28.552 63.5309 28.704 62.8749 28.704ZM72.4913 42C72.2833 42 72.1793 41.896 72.1793 41.688V34.008C72.1793 33.64 72.1153 33.376 71.9873 33.216C71.8593 33.056 71.6433 32.976 71.3393 32.976C71.0833 32.976 70.8273 33.056 70.5713 33.216C70.3153 33.376 70.0593 33.584 69.8033 33.84L69.3473 32.04C69.7953 31.448 70.3313 30.936 70.9553 30.504C71.5793 30.056 72.2993 29.832 73.1153 29.832C74.0273 29.832 74.6993 30.112 75.1313 30.672C75.5793 31.216 75.8033 32.096 75.8033 33.312V41.688C75.8033 41.896 75.6993 42 75.4913 42H72.4913ZM66.7073 42C66.4993 42 66.3953 41.896 66.3953 41.688V33.168C66.3953 32.64 66.3873 32.144 66.3713 31.68C66.3553 31.2 66.3313 30.776 66.2993 30.408C66.2833 30.168 66.3793 30.048 66.5873 30.048H69.1793C69.3393 30.048 69.4353 30.144 69.4673 30.336C69.4993 30.56 69.5313 30.872 69.5633 31.272C69.6113 31.656 69.6433 32 69.6593 32.304L70.0193 33.336V41.688C70.0193 41.896 69.9153 42 69.7073 42H66.7073ZM82.1366 42.192C80.6326 42.192 79.4566 41.808 78.6086 41.04C77.7606 40.256 77.3366 39.12 77.3366 37.632V34.392C77.3366 32.92 77.7606 31.792 78.6086 31.008C79.4566 30.224 80.6326 29.832 82.1366 29.832C83.6406 29.832 84.8166 30.224 85.6646 31.008C86.5126 31.792 86.9366 32.92 86.9366 34.392V37.632C86.9366 39.12 86.5126 40.256 85.6646 41.04C84.8326 41.808 83.6566 42.192 82.1366 42.192ZM82.1366 39.096C82.5526 39.096 82.8486 38.976 83.0246 38.736C83.2166 38.48 83.3126 38.072 83.3126 37.512V34.536C83.3126 33.96 83.2166 33.552 83.0246 33.312C82.8486 33.072 82.5526 32.952 82.1366 32.952C81.7366 32.952 81.4406 33.072 81.2486 33.312C81.0566 33.552 80.9606 33.96 80.9606 34.536V37.512C80.9606 38.072 81.0566 38.48 81.2486 38.736C81.4406 38.976 81.7366 39.096 82.1366 39.096ZM88.8088 42C88.6008 42 88.4968 41.896 88.4968 41.688V30.36C88.4968 30.152 88.6008 30.048 88.8088 30.048H91.8088C92.0168 30.048 92.1208 30.152 92.1208 30.36V41.688C92.1208 41.896 92.0168 42 91.8088 42H88.8088ZM90.2968 28.704C89.6728 28.704 89.1768 28.552 88.8088 28.248C88.4568 27.928 88.2808 27.496 88.2808 26.952V26.472C88.2808 25.912 88.4568 25.48 88.8088 25.176C89.1768 24.856 89.6728 24.696 90.2968 24.696C90.9528 24.696 91.4488 24.856 91.7848 25.176C92.1368 25.48 92.3128 25.912 92.3128 26.472V26.952C92.3128 27.496 92.1368 27.928 91.7848 28.248C91.4488 28.552 90.9528 28.704 90.2968 28.704ZM94.1291 42C93.9211 42 93.8171 41.896 93.8171 41.688V25.92C93.8171 25.712 93.9211 25.608 94.1291 25.608H97.1291C97.3371 25.608 97.4411 25.712 97.4411 25.92V41.688C97.4411 41.896 97.3371 42 97.1291 42H94.1291ZM102.386 42C102.146 42 102.074 41.88 102.17 41.64L107.33 26.52C107.394 26.36 107.514 26.28 107.69 26.28H110.306C110.53 26.28 110.61 26.4 110.546 26.64L105.362 41.76C105.314 41.92 105.202 42 105.026 42H102.386ZM118.454 42C118.246 42 118.142 41.896 118.142 41.688V29.568H115.094C114.902 29.568 114.806 29.464 114.806 29.256V26.592C114.806 26.384 114.902 26.28 115.094 26.28H124.934C125.126 26.28 125.222 26.384 125.222 26.592V29.256C125.222 29.464 125.126 29.568 124.934 29.568H121.886V41.688C121.886 41.896 121.79 42 121.598 42H118.454ZM129.785 42.192C128.281 42.192 127.105 41.808 126.257 41.04C125.409 40.256 124.985 39.12 124.985 37.632V34.392C124.985 32.92 125.409 31.792 126.257 31.008C127.105 30.224 128.281 29.832 129.785 29.832C131.289 29.832 132.465 30.224 133.313 31.008C134.161 31.792 134.585 32.92 134.585 34.392V37.632C134.585 39.12 134.161 40.256 133.313 41.04C132.481 41.808 131.305 42.192 129.785 42.192ZM129.785 39.096C130.201 39.096 130.497 38.976 130.673 38.736C130.865 38.48 130.961 38.072 130.961 37.512V34.536C130.961 33.96 130.865 33.552 130.673 33.312C130.497 33.072 130.201 32.952 129.785 32.952C129.385 32.952 129.089 33.072 128.897 33.312C128.705 33.552 128.609 33.96 128.609 34.536V37.512C128.609 38.072 128.705 38.48 128.897 38.736C129.089 38.976 129.385 39.096 129.785 39.096ZM135.647 42C135.455 42 135.359 41.904 135.359 41.712V41.616C135.359 41.456 135.383 41.304 135.431 41.16L138.479 35.28C138.671 34.912 138.863 34.552 139.055 34.2C139.263 33.832 139.463 33.48 139.655 33.144V33.096C139.319 33.112 139.023 33.12 138.767 33.12C138.527 33.12 138.279 33.12 138.023 33.12H136.175C135.983 33.12 135.887 33.016 135.887 32.808V30.36C135.887 30.152 135.983 30.048 136.175 30.048H144.263C144.487 30.048 144.599 30.136 144.599 30.312V30.408C144.599 30.584 144.519 30.824 144.359 31.128L141.479 36.696C141.287 37.048 141.087 37.416 140.879 37.8C140.687 38.168 140.479 38.536 140.255 38.904V38.952C140.607 38.92 140.895 38.904 141.119 38.904C141.359 38.904 141.639 38.904 141.959 38.904H143.855C144.063 38.904 144.167 39.016 144.167 39.24V41.688C144.167 41.896 144.063 42 143.855 42H135.647ZM150.011 42.192C148.395 42.192 147.195 41.832 146.411 41.112C145.627 40.392 145.235 39.28 145.235 37.776V34.464C145.235 32.96 145.635 31.816 146.435 31.032C147.235 30.232 148.411 29.832 149.963 29.832C151.579 29.832 152.779 30.224 153.563 31.008C154.347 31.776 154.739 32.952 154.739 34.536V36.552C154.739 36.776 154.635 36.888 154.427 36.888H148.811V38.016C148.811 38.512 148.899 38.88 149.075 39.12C149.267 39.344 149.571 39.456 149.987 39.456C150.355 39.456 150.627 39.376 150.803 39.216C150.995 39.056 151.083 38.792 151.067 38.424C151.067 38.248 151.171 38.16 151.379 38.16H154.235C154.411 38.16 154.515 38.264 154.547 38.472C154.547 39.72 154.179 40.656 153.443 41.28C152.707 41.888 151.563 42.192 150.011 42.192ZM148.811 34.824H151.187V34.032C151.187 33.536 151.091 33.176 150.899 32.952C150.723 32.712 150.435 32.592 150.035 32.592C149.603 32.592 149.291 32.712 149.099 32.952C148.907 33.176 148.811 33.536 148.811 34.032V34.824ZM155.542 42C155.446 42 155.374 41.968 155.326 41.904C155.294 41.824 155.302 41.72 155.35 41.592L158.446 35.88L155.542 30.408C155.478 30.296 155.47 30.208 155.518 30.144C155.566 30.08 155.646 30.048 155.758 30.048H159.166C159.342 30.048 159.454 30.12 159.502 30.264L160.078 31.824C160.174 32.112 160.27 32.424 160.366 32.76C160.462 33.08 160.55 33.496 160.63 34.008H160.654C160.75 33.496 160.838 33.072 160.918 32.736C161.014 32.4 161.11 32.096 161.206 31.824L161.734 30.288C161.782 30.128 161.886 30.048 162.046 30.048H165.478C165.59 30.048 165.662 30.08 165.694 30.144C165.742 30.208 165.742 30.296 165.694 30.408L162.814 35.856L165.91 41.592C165.974 41.72 165.982 41.824 165.934 41.904C165.902 41.968 165.83 42 165.718 42H162.262C162.086 42 161.974 41.936 161.926 41.808L161.35 40.152C161.222 39.848 161.102 39.52 160.99 39.168C160.878 38.816 160.766 38.384 160.654 37.872H160.606C160.494 38.384 160.382 38.816 160.27 39.168C160.174 39.52 160.062 39.856 159.934 40.176L159.334 41.808C159.302 41.936 159.19 42 158.998 42H155.542Z" fill="white"/>
</svg>
