<svg width="1210" height="500" viewBox="0 0 1210 500" fill="none" xmlns="http://www.w3.org/2000/svg">
<g clip-path="url(#clip0_9849_1621)">
<rect x="861.579" y="80.9134" width="215" height="81" rx="40.5" transform="rotate(-10 861.579 80.9134)" fill="black"/>
<rect x="861.579" y="80.9134" width="215" height="81" rx="40.5" transform="rotate(-10 861.579 80.9134)" stroke="#D278FE"/>
<path d="M930.732 102.549C930.553 102.494 930.378 102.429 930.206 102.356C929.706 102.139 929.234 101.862 928.799 101.532C927.703 100.649 927.175 99.6496 926.919 98.9301L926.924 98.9293C926.71 98.3322 926.684 97.9262 926.69 97.9251L922.534 98.6579L925.368 114.73C925.406 114.946 925.443 115.159 925.471 115.371C925.476 115.398 925.478 115.422 925.481 115.451C925.483 115.462 925.485 115.474 925.485 115.487C925.486 115.49 925.486 115.493 925.487 115.496C925.545 116.08 925.458 116.67 925.234 117.213C925.011 117.756 924.657 118.236 924.205 118.61C923.733 119.001 923.168 119.262 922.565 119.367C920.629 119.709 918.781 118.406 918.437 116.456C918.093 114.506 919.384 112.65 921.321 112.309C921.687 112.244 922.062 112.237 922.43 112.289L921.689 108.057C920.607 108.106 919.547 108.38 918.576 108.86C917.604 109.34 916.743 110.016 916.047 110.846C915.44 111.595 914.969 112.444 914.654 113.354C914.532 113.688 914.084 115.02 914.352 117.007C914.499 118.136 915.04 119.237 915.285 119.688L915.286 119.698C915.437 119.962 915.998 120.857 916.778 121.557C917.406 122.118 918.113 122.583 918.877 122.938L918.876 122.928L918.888 122.936C921.141 123.949 923.356 123.466 923.356 123.466C923.739 123.382 925.036 123.169 926.382 122.214C927.876 121.155 928.6 119.841 928.6 119.841C929.072 119.05 929.405 118.183 929.586 117.28C929.787 116.225 929.704 115.017 929.62 114.543L928.117 106.017C928.173 106.038 928.923 106.364 928.923 106.364C928.923 106.364 929.999 106.813 931.58 106.951C932.714 107.047 934.183 106.85 934.183 106.85L933.456 102.724C932.954 102.87 931.888 102.892 930.732 102.549Z" fill="white"/>
<path d="M964.394 114.063L961.333 114.603L958.318 97.5064L951.949 98.6296L951.487 96.01L967.287 93.224L967.749 95.8436L961.379 96.9667L964.394 114.063ZM976.155 111.989L973.122 112.524L969.646 92.8081L972.679 92.2733L976.155 111.989ZM996.477 108.406L992.919 109.033L984.574 100.724L982.019 104.615L983.103 110.764L980.07 111.299L976.593 91.5831L979.626 91.0482L981.386 101.03L988.974 89.4L992.366 88.8019L986.094 98.3805L996.477 108.406ZM1005.92 106.741L1002.86 107.281L999.842 90.1847L993.472 91.3079L993.01 88.6883L1008.81 85.9023L1009.27 88.5219L1002.9 89.645L1005.92 106.741ZM1022.19 104.27C1016.29 105.311 1011.75 101.648 1010.7 95.7191C1009.66 89.7906 1012.68 84.8228 1018.58 83.7823C1024.48 82.7418 1029.01 86.3773 1030.06 92.3059C1031.1 98.2344 1028.09 103.23 1022.19 104.27ZM1021.73 101.651C1026.39 100.829 1027.6 96.9185 1026.89 92.865C1026.17 88.8116 1023.7 85.5802 1019.04 86.4019C1014.38 87.2236 1013.16 91.1065 1013.87 95.16C1014.59 99.2134 1017.07 102.472 1021.73 101.651ZM1051.17 98.7624L1047.61 99.3896L1039.27 91.0805L1036.71 94.9714L1037.79 101.12L1034.76 101.655L1031.28 81.9395L1034.32 81.4046L1036.08 91.3867L1043.67 79.7564L1047.06 79.1583L1040.79 88.737L1051.17 98.7624Z" fill="white"/>
<rect x="961.624" y="212.094" width="223" height="81" rx="40.5" fill="black"/>
<rect x="961.624" y="212.094" width="223" height="81" rx="40.5" stroke="#F66979"/>
<path d="M1024.93 254.415L1021.33 257.759H1017.72L1014.57 260.685V257.759H1010.52V245.219H1024.93V254.415Z" fill="#9146FF"/>
<path d="M1012.42 241.725L1011.33 242.812L1009.43 255.04L1015.13 258.029L1015.95 259.116L1021.38 257.214L1027.36 252.594L1027.63 248.246L1027.36 241.996L1026.55 241.725H1012.42Z" fill="black"/>
<path d="M1011.76 240.867L1007.25 245.047V260.096H1012.66V264.276L1017.17 260.096H1020.77L1028.88 252.572V240.867H1011.76ZM1027.08 251.736L1023.47 255.08H1019.87L1016.72 258.006V255.08H1012.66V242.539H1027.08V251.736Z" fill="white"/>
<path d="M1024.38 245.466H1022.57V250.482H1024.38V245.466Z" fill="white"/>
<path d="M1019.42 245.466H1017.62V250.482H1019.42V245.466Z" fill="white"/>
<path d="M1057.12 262.594H1054.01V245.234H1047.54V242.574H1063.59V245.234H1057.12V262.594ZM1072.7 262.594H1069.37L1064.39 242.574H1067.61L1071.13 258.338H1071.19L1075.33 242.574H1078.58L1082.75 258.338H1082.81L1086.34 242.574H1089.56L1084.55 262.594H1081.24L1076.99 246.494H1076.93L1072.7 262.594ZM1095.01 262.594H1091.93V242.574H1095.01V262.594ZM1106.99 262.594H1103.89V245.234H1097.42V242.574H1113.46V245.234H1106.99V262.594ZM1122.97 262.986C1117.29 262.986 1113.62 258.618 1113.62 252.598C1113.62 246.55 1117.32 242.182 1123 242.182C1128.01 242.182 1131.12 245.374 1131.6 249.378H1128.38C1128.01 247.418 1126.78 244.842 1122.94 244.842C1118.52 244.842 1116.84 248.594 1116.84 252.57C1116.84 256.574 1118.52 260.326 1122.94 260.326C1126.81 260.326 1128.18 257.75 1128.38 255.314H1131.6C1131.15 259.766 1128.01 262.986 1122.97 262.986ZM1137.45 262.594H1134.37V242.574H1137.45V250.946H1147.28V242.574H1150.39V262.594H1147.28V253.606H1137.45V262.594Z" fill="white"/>
<rect x="821.708" y="341.58" width="263" height="81" rx="40.5" transform="rotate(10.045 821.708 341.58)" fill="black"/>
<rect x="821.708" y="341.58" width="263" height="81" rx="40.5" transform="rotate(10.045 821.708 341.58)" stroke="#FBA05A"/>
<path d="M872.137 380.915C875.576 381.525 877.956 384.774 877.375 388.076C877.239 388.849 877.138 389.565 877.067 390.229C877.024 390.639 877.322 391.001 877.725 391.073C877.785 391.083 877.846 391.087 877.909 391.084L879.03 391.033C879.078 391.031 879.124 391.035 879.17 391.043C879.444 391.091 879.664 391.315 879.678 391.591C879.699 391.981 879.412 392.321 879.011 392.381L877.263 392.723C876.822 392.809 876.524 393.2 876.567 393.633C877.057 398.51 880.808 398.676 880.7 399.281C880.566 400.041 877.784 399.659 877.492 399.854C877.2 400.048 877.234 401.25 876.636 401.376C876.524 401.4 876.372 401.388 876.189 401.356C875.769 401.282 875.189 401.098 874.563 400.987C874.02 400.891 873.442 400.849 872.904 400.981C871.478 401.332 870.009 402.199 868.428 401.919C866.847 401.639 865.765 400.32 864.545 399.501C864.086 399.192 863.529 399.032 862.986 398.936C862.36 398.825 861.752 398.798 861.332 398.724C861.15 398.692 861.003 398.651 860.905 398.59C860.387 398.266 860.831 397.149 860.624 396.866C860.417 396.582 857.673 395.986 857.808 395.226C857.915 394.621 861.495 395.753 863.63 391.341C863.819 390.95 863.673 390.48 863.289 390.248L861.765 389.326C861.408 389.131 861.256 388.714 861.409 388.355C861.518 388.1 861.801 387.966 862.075 388.014C862.121 388.022 862.166 388.036 862.21 388.054L863.244 388.487C863.303 388.511 863.362 388.528 863.421 388.539C863.825 388.61 864.229 388.373 864.329 387.973C864.491 387.325 864.642 386.618 864.78 385.845C865.369 382.544 868.697 380.306 872.137 380.915ZM872.369 379.605L872.368 379.605C871.341 379.423 870.306 379.443 869.292 379.665C868.318 379.878 867.406 380.266 866.583 380.818C865.76 381.37 865.068 382.057 864.526 382.86C863.962 383.696 863.587 384.618 863.412 385.601C863.326 386.083 863.232 386.55 863.133 386.995L862.748 386.834C862.607 386.775 862.458 386.731 862.307 386.705C861.871 386.627 861.416 386.692 861.025 386.887C860.617 387.091 860.297 387.427 860.124 387.834C859.711 388.802 860.113 389.925 861.058 390.462L862.177 391.139C860.968 393.334 859.423 393.522 858.383 393.648C858.107 393.682 857.868 393.711 857.635 393.775C856.704 394.031 856.489 394.705 856.44 394.983C856.346 395.516 856.523 396.049 856.939 396.483C857.146 396.7 857.416 396.896 857.763 397.083C858.236 397.337 858.8 397.546 859.258 397.714C859.251 397.886 859.253 398.072 859.277 398.264C859.378 399.06 859.814 399.486 860.161 399.703C860.491 399.909 860.855 399.99 861.1 400.034C861.339 400.076 861.596 400.103 861.868 400.132C862.159 400.162 862.46 400.194 862.754 400.246C863.209 400.326 863.538 400.438 863.761 400.588C864.067 400.794 864.384 401.054 864.719 401.329C865.653 402.096 866.712 402.966 868.196 403.229C869.679 403.491 870.972 403.039 872.113 402.639C872.523 402.495 872.91 402.36 873.268 402.272C873.528 402.208 873.876 402.216 874.331 402.297C874.625 402.349 874.919 402.422 875.203 402.494C875.468 402.56 875.718 402.623 875.957 402.666C876.202 402.709 876.572 402.757 876.953 402.677C877.353 402.593 877.909 402.343 878.277 401.629C878.366 401.457 878.431 401.283 878.484 401.119C878.972 401.119 879.573 401.117 880.105 401.04C880.495 400.984 880.815 400.893 881.084 400.76C881.625 400.495 881.974 400.056 882.068 399.523C882.118 399.245 882.147 398.538 881.361 397.978C881.164 397.838 880.95 397.728 880.702 397.602C879.769 397.126 878.382 396.418 878.001 393.942L879.284 393.691C880.356 393.511 881.119 392.595 881.064 391.543C881.041 391.102 880.856 390.676 880.543 390.345C880.243 390.027 879.838 389.81 879.402 389.733C879.251 389.706 879.097 389.696 878.944 389.703L878.527 389.722C878.586 389.27 878.659 388.799 878.743 388.316C878.917 387.332 878.88 386.336 878.634 385.356C878.398 384.416 877.981 383.532 877.395 382.731C876.809 381.93 876.084 381.253 875.24 380.718C874.361 380.162 873.395 379.787 872.369 379.605Z" fill="white"/>
<path d="M906.395 408.265C901.404 407.381 898.362 404.17 898.928 399.692L902.071 400.248C901.822 402.934 903.077 405.005 906.771 405.659C909.942 406.221 911.151 405.013 911.468 403.221C911.913 400.712 910.046 400.012 906.623 398.467C903.682 397.093 900.466 395.5 901.131 391.75C901.736 388.331 904.73 386.843 908.976 387.595C913.47 388.391 915.987 391.197 915.587 395.221L912.444 394.664C912.533 392.234 911.411 390.699 908.544 390.191C906.063 389.752 904.633 390.437 904.331 392.146C903.94 394.352 905.925 395.187 908.349 396.27C911.983 397.909 915.406 399.454 914.668 403.617C914.068 407.008 911.33 409.14 906.395 408.265ZM919.499 410.189L916.467 409.651L919.959 389.938L923.433 390.554L929.9 407.339L929.955 407.349L932.641 392.185L935.702 392.727L932.21 412.44L928.736 411.825L922.241 395.034L922.186 395.025L919.499 410.189ZM937.473 413.372L934.274 412.806L945.1 394.392L948.381 394.973L952.278 415.995L948.97 415.409L948.183 410.379L939.939 408.918L937.473 413.372ZM946.201 397.487L941.303 406.515L947.782 407.663L946.256 397.497L946.201 397.487ZM957.355 416.894L954.323 416.357L957.815 396.644L966.031 398.099C969.753 398.759 972.175 400.979 971.442 405.115C970.709 409.25 967.677 410.476 963.955 409.817L958.772 408.899L957.355 416.894ZM959.236 406.28L964.281 407.173C966.57 407.579 967.908 406.764 968.299 404.558C968.695 402.325 967.717 401.1 965.429 400.694L960.383 399.8L959.236 406.28ZM979.595 421.232C973.998 420.24 971.148 415.3 972.198 409.372C973.253 403.417 977.654 399.76 983.251 400.752C988.187 401.626 990.69 405.311 990.46 409.337L987.29 408.775C987.273 406.782 986.509 404.03 982.732 403.361C978.376 402.59 976.067 405.991 975.374 409.906C974.675 413.849 975.675 417.836 980.031 418.608C983.836 419.282 985.637 416.985 986.254 414.62L989.425 415.182C988.207 419.487 984.558 422.111 979.595 421.232ZM993.919 423.371L990.886 422.834L994.378 403.121L997.411 403.658L995.951 411.902L1005.63 413.616L1007.09 405.372L1010.15 405.914L1006.66 425.627L1003.6 425.085L1005.16 416.235L995.487 414.521L993.919 423.371ZM1011.89 426.555L1008.69 425.988L1019.52 407.574L1022.8 408.155L1026.7 429.177L1023.39 428.591L1022.6 423.561L1014.36 422.101L1011.89 426.555ZM1020.62 410.67L1015.72 419.698L1022.2 420.846L1020.68 410.68L1020.62 410.67ZM1034.07 430.483L1031.01 429.941L1034.04 412.847L1027.67 411.719L1028.13 409.1L1043.93 411.898L1043.47 414.518L1037.1 413.389L1034.07 430.483Z" fill="white"/>
<rect x="478.5" y="28.5" width="275" height="81" rx="40.5" fill="black"/>
<rect x="478.5" y="28.5" width="275" height="81" rx="40.5" stroke="#2D69FB"/>
<path d="M530.839 69.0638C530.839 66.7607 532.705 64.8931 535.008 64.8931C537.31 64.8931 539.177 66.7607 539.177 69.0638C539.177 71.367 537.31 73.2346 535.008 73.2346C532.705 73.2346 530.839 71.367 530.839 69.0638ZM528.585 69.0638C528.585 72.612 531.46 75.4882 535.008 75.4882C538.555 75.4882 541.43 72.612 541.43 69.0638C541.43 65.5157 538.555 62.6395 535.008 62.6395C531.46 62.6395 528.585 65.5157 528.585 69.0638ZM540.183 62.3848C540.183 62.6817 540.271 62.9721 540.436 63.219C540.601 63.466 540.835 63.6585 541.109 63.7722C541.384 63.886 541.685 63.9158 541.977 63.858C542.268 63.8002 542.535 63.6573 542.745 63.4474C542.955 63.2376 543.098 62.9701 543.156 62.6789C543.214 62.3877 543.185 62.0858 543.071 61.8114C542.958 61.5371 542.765 61.3025 542.519 61.1374C542.272 60.9724 541.982 60.8842 541.685 60.8841H541.684C541.286 60.8843 540.905 61.0424 540.623 61.3238C540.342 61.6052 540.184 61.9868 540.183 62.3848ZM529.955 79.2476C528.735 79.192 528.072 78.9889 527.632 78.8172C527.048 78.5898 526.631 78.319 526.193 77.8814C525.755 77.4438 525.484 77.0274 525.258 76.4433C525.086 76.0029 524.883 75.3397 524.827 74.1199C524.767 72.8012 524.755 72.405 524.755 69.0639C524.755 65.7229 524.768 65.3278 524.827 64.008C524.883 62.7882 525.088 62.1263 525.258 61.6846C525.485 61.1005 525.756 60.6837 526.193 60.2455C526.631 59.8073 527.047 59.5361 527.632 59.3097C528.072 59.1379 528.735 58.9347 529.955 58.8793C531.273 58.8186 531.669 58.8065 535.008 58.8065C538.346 58.8065 538.743 58.8196 540.062 58.8793C541.282 58.9348 541.943 59.1395 542.385 59.3097C542.969 59.5361 543.385 59.8079 543.824 60.2455C544.262 60.6831 544.532 61.1005 544.759 61.6846C544.931 62.125 545.134 62.7882 545.189 64.008C545.25 65.3278 545.262 65.7229 545.262 69.0639C545.262 72.405 545.25 72.8001 545.189 74.1199C545.134 75.3397 544.93 76.0027 544.759 76.4433C544.532 77.0274 544.261 77.4442 543.824 77.8814C543.386 78.3186 542.969 78.5898 542.385 78.8172C541.945 78.989 541.282 79.1921 540.062 79.2476C538.744 79.3082 538.348 79.3204 535.008 79.3204C531.668 79.3204 531.273 79.3082 529.955 79.2476ZM529.851 56.6285C528.52 56.6892 527.61 56.9003 526.815 57.2096C525.992 57.529 525.296 57.9575 524.599 58.6527C523.903 59.3479 523.476 60.0458 523.157 60.869C522.848 61.6643 522.637 62.5739 522.576 63.9058C522.514 65.2397 522.5 65.6662 522.5 69.0638C522.5 72.4615 522.514 72.8879 522.576 74.2219C522.637 75.5539 522.848 76.4634 523.157 77.2587C523.476 78.0814 523.903 78.7801 524.599 79.475C525.295 80.1699 525.992 80.5978 526.815 80.9181C527.611 81.2274 528.52 81.4385 529.851 81.4992C531.185 81.5598 531.611 81.575 535.008 81.575C538.404 81.575 538.831 81.5608 540.164 81.4992C541.496 81.4385 542.405 81.2274 543.2 80.9181C544.023 80.5978 544.72 80.1702 545.416 79.475C546.112 78.7798 546.538 78.0814 546.858 77.2587C547.168 76.4634 547.38 75.5538 547.439 74.2219C547.5 72.8869 547.514 72.4615 547.514 69.0638C547.514 65.6662 547.5 65.2397 547.439 63.9058C547.379 62.5738 547.168 61.6638 546.858 60.869C546.538 60.0463 546.111 59.349 545.416 58.6527C544.721 57.9564 544.023 57.529 543.201 57.2096C542.405 56.9003 541.496 56.6882 540.165 56.6285C538.832 56.5678 538.405 56.5527 535.009 56.5527C531.612 56.5527 531.185 56.5668 529.851 56.6285Z" fill="white"/>
<path d="M569.068 79H565.988V58.98H569.068V79ZM576.123 79H573.043V58.98H576.571L585.867 74.38H585.923V58.98H589.031V79H585.503L576.179 63.6H576.123V79ZM600.536 79.392C595.468 79.392 591.912 76.76 591.688 72.252H594.88C595.104 74.94 596.7 76.76 600.452 76.76C603.672 76.76 604.652 75.36 604.652 73.54C604.652 70.992 602.692 70.628 599.052 69.704C595.916 68.864 592.472 67.856 592.472 64.048C592.472 60.576 595.16 58.588 599.472 58.588C604.036 58.588 607.004 60.912 607.312 64.944H604.12C603.784 62.536 602.412 61.22 599.5 61.22C596.98 61.22 595.692 62.144 595.692 63.88C595.692 66.12 597.792 66.596 600.368 67.24C604.232 68.22 607.872 69.144 607.872 73.372C607.872 76.816 605.548 79.392 600.536 79.392ZM617.828 79H614.72V61.64H608.252V58.98H624.296V61.64H617.828V79ZM625.465 79H622.217L629.665 58.98H632.997L640.501 79H637.141L635.489 74.184H627.117L625.465 79ZM631.289 61.836L628.041 71.58H634.621L631.345 61.836H631.289ZM649.904 79.392C644.136 79.392 640.888 75.024 640.888 68.976C640.888 62.956 644.556 58.588 650.268 58.588C655.448 58.588 658.192 61.36 658.836 65.168H655.616C655.084 62.648 653.208 61.248 650.24 61.248C645.816 61.248 644.108 65.224 644.108 68.976C644.108 72.756 645.396 76.732 650.072 76.732C653.376 76.732 656.008 74.436 656.036 71.104H650.128V68.528H659.172V79H657.044L656.288 76.228H656.232C654.832 78.272 652.956 79.392 649.904 79.392ZM665.564 79H662.484V58.98H670.828C675.252 58.98 677.632 61.052 677.632 64.748C677.632 67.296 676.092 69.144 673.88 69.648V69.704C678.528 70.572 676.82 78.468 677.912 78.804V79H674.608C673.712 78.16 675.616 71.16 670.716 71.16H665.564V79ZM665.564 68.5H670.156C672.984 68.5 674.524 67.268 674.524 64.972C674.524 62.816 673.292 61.64 670.212 61.64H665.564V68.5ZM682.231 79H678.983L686.431 58.98H689.763L697.267 79H693.907L692.255 74.184H683.883L682.231 79ZM688.055 61.836L684.807 71.58H691.387L688.111 61.836H688.055ZM702.367 79H699.343V58.98H703.403L709.171 74.716H709.227L715.023 58.98H719.083V79H716.059V63.46H716.003L710.487 79H707.939L702.423 63.46H702.367V79Z" fill="white"/>
<rect x="148.579" y="115.728" width="247" height="81" rx="40.5" transform="rotate(-10 148.579 115.728)" fill="black"/>
<rect x="148.579" y="115.728" width="247" height="81" rx="40.5" transform="rotate(-10 148.579 115.728)" stroke="#FBA05A"/>
<path fill-rule="evenodd" clip-rule="evenodd" d="M220.833 134.563C222.101 134.676 223.22 135.462 223.755 136.614C224.726 138.705 225.534 143.284 225.534 143.284C225.534 143.284 226.341 147.863 226.143 150.16C226.031 151.43 225.248 152.552 224.099 153.086C222.015 154.059 213.237 155.606 213.237 155.606C213.237 155.606 204.463 157.153 202.167 156.954C200.9 156.84 199.781 156.054 199.246 154.902C198.274 152.812 197.467 148.233 197.467 148.233C197.467 148.233 196.659 143.653 196.858 141.357C196.97 140.086 197.752 138.965 198.901 138.43C200.99 137.457 209.764 135.91 209.764 135.91C209.764 135.91 218.542 134.362 220.833 134.563ZM215.988 144.967L209.441 150.474L207.952 142.032L215.988 144.967Z" fill="white"/>
<path d="M251.862 148.795L248.802 149.335L247.411 141.448L238.266 130.863L241.547 130.285L248.505 138.782L248.56 138.772L252.191 128.408L255.445 127.834L250.472 140.908L251.862 148.795ZM268.365 146.283C262.464 147.323 257.923 143.66 256.878 137.732C255.832 131.803 258.852 126.836 264.753 125.795C270.654 124.755 275.19 128.39 276.235 134.319C277.28 140.247 274.266 145.242 268.365 146.283ZM267.903 143.663C272.563 142.842 273.779 138.931 273.064 134.878C272.349 130.824 269.875 127.593 265.214 128.415C260.554 129.236 259.334 133.119 260.049 137.173C260.764 141.226 263.243 144.485 267.903 143.663ZM288.561 142.722C283.157 143.675 280.367 141.238 279.618 136.992L277.323 123.977L280.357 123.442L282.651 136.457C283.191 139.518 284.983 140.652 288.099 140.102C291.243 139.548 292.511 137.874 291.972 134.813L289.677 121.798L292.738 121.259L295.032 134.274C295.781 138.52 293.993 141.764 288.561 142.722ZM307.889 138.916L304.828 139.455L301.814 122.359L295.444 123.482L294.982 120.863L310.783 118.077L311.244 120.696L304.875 121.819L307.889 138.916ZM324.241 136.431C318.837 137.383 316.047 134.947 315.298 130.7L313.003 117.685L316.037 117.15L318.332 130.166C318.871 133.226 320.663 134.36 323.779 133.811C326.923 133.257 328.191 131.583 327.652 128.522L325.357 115.507L328.418 114.967L330.713 127.982C331.461 132.229 329.673 135.473 324.241 136.431ZM344.479 132.464L335.683 134.015L332.207 114.299L340.506 112.836C344.56 112.121 347.252 113.523 347.807 116.666C348.234 119.093 347 120.476 345.47 121.314L345.48 121.37C347.611 121.363 349.643 122.569 350.164 125.519C350.83 129.297 348.56 131.744 344.479 132.464ZM336.684 121.954L341.868 121.04C344.35 120.602 345.024 119.431 344.713 117.667C344.407 115.929 343.174 115.066 341.106 115.431L335.702 116.384L336.684 121.954ZM338.254 130.861L343.797 129.883C346.72 129.368 347.299 127.816 346.973 125.968C346.609 123.9 345.131 122.938 343.063 123.303L337.107 124.353L338.254 130.861ZM368.304 128.263L354.075 130.772L350.599 111.056L364.551 108.596L365.013 111.215L354.094 113.141L355.081 118.739L364.649 117.051L365.111 119.671L355.543 121.358L356.646 127.618L367.842 125.643L368.304 128.263Z" fill="white"/>
<rect x="150.5" y="368.5" width="274" height="81" rx="40.5" fill="black"/>
<rect x="150.5" y="368.5" width="274" height="81" rx="40.5" stroke="#D278FE"/>
<path d="M213.59 398.483H217.104L209.427 407.258L218.458 419.198H211.387L205.848 411.956L199.51 419.198H195.994L204.206 409.813L195.542 398.483H202.793L207.799 405.102L213.59 398.483ZM212.357 417.095H214.304L201.735 400.476H199.645L212.357 417.095Z" fill="white"/>
<path d="M239.5 419H235.888L242.664 408.78L236.364 398.98H239.78L244.428 406.54H244.456L249.132 398.98H252.52L246.22 408.724L252.856 419H249.272L244.372 411.02H244.344L239.5 419ZM265.4 422.416H262.992C260.892 419.588 259.1 415.192 259.1 410.124C259.1 404.888 260.892 400.604 262.992 397.776H265.4C263.58 401.164 262.152 404.944 262.152 410.124C262.152 415.192 263.58 419.028 265.4 422.416ZM275.855 419H272.747V401.64H266.279V398.98H282.323V401.64H275.855V419ZM291.438 419H288.106L283.122 398.98H286.342L289.87 414.744H289.926L294.07 398.98H297.318L301.49 414.744H301.546L305.074 398.98H308.294L303.282 419H299.978L295.722 402.9H295.666L291.438 419ZM313.748 419H310.668V398.98H313.748V419ZM325.73 419H322.622V401.64H316.154V398.98H332.198V401.64H325.73V419ZM342.601 419H339.493V401.64H333.025V398.98H349.069V401.64H342.601V419ZM365.913 419H351.465V398.98H365.633V401.64H354.545V407.324H364.261V409.984H354.545V416.34H365.913V419ZM371.881 419H368.801V398.98H377.145C381.569 398.98 383.949 401.052 383.949 404.748C383.949 407.296 382.409 409.144 380.197 409.648V409.704C384.845 410.572 383.137 418.468 384.229 418.804V419H380.925C380.029 418.16 381.933 411.16 377.033 411.16H371.881V419ZM371.881 408.5H376.473C379.301 408.5 380.841 407.268 380.841 404.972C380.841 402.816 379.609 401.64 376.529 401.64H371.881V408.5ZM387.797 422.416H385.389C387.209 419.028 388.665 415.22 388.665 410.04C388.665 404.972 387.209 401.164 385.389 397.776H387.797C389.897 400.604 391.689 404.972 391.689 410.04C391.689 415.276 389.897 419.588 387.797 422.416Z" fill="white"/>
<rect x="20.5" y="242.5" width="242" height="81" rx="40.5" fill="black"/>
<rect x="20.5" y="242.5" width="242" height="81" rx="40.5" stroke="#F66979"/>
<path d="M71.2485 293.132V279.625H66.7632V293.132H71.249H71.2485ZM69.0068 277.781C70.5706 277.781 71.5441 276.744 71.5441 275.448C71.5149 274.122 70.5706 273.114 69.0365 273.114C67.5014 273.114 66.4988 274.122 66.4988 275.448C66.4988 276.744 67.472 277.781 68.9774 277.781H69.0064L69.0068 277.781ZM73.7312 293.132H78.2162V285.59C78.2162 285.187 78.2455 284.782 78.364 284.495C78.6881 283.688 79.4261 282.852 80.6654 282.852C82.288 282.852 82.9375 284.091 82.9375 285.907V293.132H87.4224V285.387C87.4224 281.239 85.2099 279.308 82.259 279.308C79.8396 279.308 78.777 280.662 78.1867 281.584H78.2166V279.626H73.7314C73.79 280.893 73.7311 293.132 73.7311 293.132L73.7312 293.132Z" fill="white"/>
<path d="M121.204 293H107.988V272.98H111.068V290.34H121.204V293ZM126.681 293H123.601V272.98H126.681V293ZM133.736 293H130.656V272.98H134.184L143.48 288.38H143.536V272.98H146.644V293H143.116L133.792 277.6H133.736V293ZM167.277 293H163.665L156.889 283.368L153.697 286.756V293H150.617V272.98H153.697V283.116L163.189 272.98H166.633L158.793 281.324L167.277 293ZM183.303 293H168.855V272.98H183.023V275.64H171.935V281.324H181.651V283.984H171.935V290.34H183.303V293ZM193.863 293H186.191V272.98H193.807C199.351 272.98 202.711 276.564 202.711 283.004C202.711 289.444 199.407 293 193.863 293ZM189.271 290.34H193.667C198.315 290.34 199.519 286.868 199.519 283.004C199.519 279.14 198.315 275.64 193.667 275.64H189.271V290.34ZM208.849 293H205.769V272.98H208.849V293ZM215.904 293H212.824V272.98H216.352L225.648 288.38H225.704V272.98H228.812V293H225.284L215.96 277.6H215.904V293Z" fill="white"/>
<rect x="510.579" y="424.009" width="181" height="81" rx="40.5" transform="rotate(-10 510.579 424.009)" fill="black"/>
<rect x="510.579" y="424.009" width="181" height="81" rx="40.5" transform="rotate(-10 510.579 424.009)" stroke="#2D69FB"/>
<path fill-rule="evenodd" clip-rule="evenodd" d="M562.48 444.812L569.497 443.575L570.346 448.39L572.685 447.977L572.26 445.57L574.599 445.158L574.175 442.75L581.192 441.513L582.465 448.735L580.126 449.148L580.55 451.555L578.212 451.967L578.636 454.375L580.975 453.962L581.399 456.369L583.738 455.957L585.012 463.179L577.995 464.416L577.571 462.009L575.232 462.421L574.807 460.014L572.468 460.426L573.317 465.241L566.3 466.478L562.48 444.812Z" fill="white"/>
<path d="M621.914 455.656L618.357 456.284L610.011 447.974L607.456 451.865L608.54 458.014L605.507 458.549L602.031 438.833L605.064 438.299L606.824 448.281L614.412 436.65L617.804 436.052L611.532 445.631L621.914 455.656ZM626.502 454.847L623.468 455.382L619.992 435.666L623.025 435.132L626.502 454.847ZM638.729 453.089C633.131 454.076 628.76 450.412 627.715 444.483C626.665 438.527 629.546 433.584 635.144 432.597C640.08 431.726 643.695 434.33 644.859 438.191L641.688 438.75C640.989 436.883 639.328 434.56 635.551 435.226C631.194 435.994 630.191 439.981 630.881 443.897C631.577 447.84 633.883 451.243 638.239 450.475C642.045 449.804 642.949 447.029 642.719 444.596L645.89 444.036C646.221 448.499 643.692 452.214 638.729 453.089ZM666.292 447.831L662.735 448.459L654.389 440.149L651.834 444.04L652.918 450.189L649.885 450.724L646.409 431.008L649.442 430.474L651.202 440.456L658.79 428.825L662.181 428.227L655.909 437.806L666.292 447.831Z" fill="white"/>
<rect x="505" y="150" width="200" height="200" rx="100" fill="#121212"/>
<path d="M537.8 264.56C529.68 264.56 524.44 258.32 524.44 249.72C524.44 241.08 529.72 234.84 537.84 234.84C545 234.84 549.44 239.4 550.12 245.12H545.52C545 242.32 543.24 238.64 537.76 238.64C531.44 238.64 529.04 244 529.04 249.68C529.04 255.4 531.44 260.76 537.76 260.76C543.28 260.76 545.24 257.08 545.52 253.6H550.12C549.48 259.96 545 264.56 537.8 264.56ZM564.123 243C567.883 243 570.923 245.16 570.923 249.84V264H567.003V250.92C567.003 248.2 565.803 246.36 562.843 246.36C559.483 246.36 557.323 248.4 557.323 251.48V264H553.403V235.4H557.323V246.16H557.403C558.483 244.6 560.603 243 564.123 243ZM580.801 264.56C576.721 264.56 574.121 262.2 574.121 258.72C574.121 254.16 577.561 252.8 582.641 251.84C585.841 251.24 587.801 250.84 587.801 248.84C587.801 247.36 586.921 246.12 583.921 246.12C580.361 246.12 579.281 247.24 579.081 249.96H575.081C575.281 246.04 577.841 242.96 584.081 242.96C588.281 242.96 591.641 244.72 591.641 250V259.36C591.641 260.84 591.841 261.6 592.601 261.6C592.721 261.6 592.841 261.6 593.081 261.56V263.96C592.401 264.12 591.721 264.2 591.081 264.2C589.121 264.2 588.081 263.44 587.841 261.12H587.761C586.441 263.24 584.121 264.56 580.801 264.56ZM581.681 261.4C585.201 261.4 587.801 259.6 587.801 256.04V253.12C587.161 253.72 585.401 254.16 583.321 254.6C579.721 255.32 578.201 256.32 578.201 258.44C578.201 260.36 579.241 261.4 581.681 261.4ZM607.131 243C610.891 243 613.931 245.16 613.931 249.84V264H610.011V250.92C610.011 248.2 608.811 246.36 605.851 246.36C602.491 246.36 600.331 248.4 600.331 251.48V264H596.411V243.6H600.331V246.16H600.411C601.491 244.6 603.611 243 607.131 243ZM628.889 243C632.649 243 635.689 245.16 635.689 249.84V264H631.769V250.92C631.769 248.2 630.569 246.36 627.609 246.36C624.249 246.36 622.089 248.4 622.089 251.48V264H618.169V243.6H622.089V246.16H622.169C623.249 244.6 625.369 243 628.889 243ZM658.647 253.36C658.647 253.92 658.647 254.52 658.607 254.84H642.927C643.007 258.24 645.007 261.4 649.047 261.4C652.647 261.4 654.047 259.08 654.407 257.72H658.407C657.327 261.64 654.327 264.6 648.967 264.6C642.487 264.6 638.887 260 638.887 253.76C638.887 247.36 642.727 242.96 648.967 242.96C655.167 242.96 658.647 247.04 658.647 253.36ZM642.927 251.76H654.567C654.567 248.56 652.327 246.16 648.847 246.16C645.567 246.16 643.167 248.4 642.927 251.76ZM665.878 264H661.958V235.4H665.878V264ZM678.318 264.56C672.118 264.56 669.038 261.36 668.918 257.2H672.878C673.038 259.56 674.478 261.4 678.278 261.4C681.718 261.4 682.638 259.88 682.638 258.4C682.638 255.84 679.918 255.56 677.278 255C673.718 254.16 669.638 253.12 669.638 248.88C669.638 245.36 672.478 243 677.398 243C682.998 243 685.678 246 685.958 249.52H681.998C681.718 247.96 680.878 246.16 677.478 246.16C674.838 246.16 673.718 247.2 673.718 248.72C673.718 250.84 675.998 251.04 678.878 251.68C682.638 252.56 686.718 253.64 686.718 258.2C686.718 262.16 683.678 264.56 678.318 264.56Z" fill="white"/>
</g>
<defs>
<clipPath id="clip0_9849_1621">
<rect width="1210" height="500" fill="white"/>
</clipPath>
</defs>
</svg>
