<svg width="161" height="160" viewBox="0 0 161 160" fill="none" xmlns="http://www.w3.org/2000/svg">
<path d="M115.413 50.4V38.9888H110.291C109.508 34.9119 107.919 31.1241 105.673 27.8109L109.286 24.1973L101.219 16.1281L97.6058 19.7418C94.2931 17.4957 90.5061 15.9061 86.43 15.1233V10H75.021V15.1233C70.9465 15.9061 67.1579 17.4957 63.8469 19.7418L60.2323 16.1266L52.1648 24.1956L55.7793 27.8109C53.5336 31.1241 51.9444 34.9119 51.1617 38.9888H46.0394V50.4H51.1617C51.9444 54.4753 53.5336 58.2631 55.7793 61.5763L52.1648 65.1916L60.2323 73.2606L63.8469 69.6454C67.1595 71.8915 70.9465 73.4811 75.021 74.2639V79.3872H86.43V74.2639C90.5045 73.4811 94.2931 71.8915 97.6042 69.6454L101.219 73.2606L109.286 65.1916L105.672 61.5763C107.917 58.2631 109.507 54.4753 110.289 50.4H115.413Z" stroke="white" stroke-miterlimit="10" stroke-linejoin="round"/>
<path d="M80.7278 59.2535C88.7666 59.2535 95.2833 52.7355 95.2833 44.6952C95.2833 36.6549 88.7666 30.1369 80.7278 30.1369C72.6891 30.1369 66.1724 36.6549 66.1724 44.6952C66.1724 52.7355 72.6891 59.2535 80.7278 59.2535Z" stroke="white" stroke-miterlimit="10" stroke-linejoin="round"/>
<path d="M55.4199 129.018C58.5297 127.08 60.6061 123.64 60.6061 119.706C60.6061 113.645 55.693 108.731 49.6331 108.731C43.5733 108.731 38.6602 113.645 38.6602 119.706C38.6602 123.64 40.7366 127.08 43.8464 129.018C34.2487 130.238 27.1666 134.401 27.1666 139.366C27.1666 145.287 37.2243 150.088 49.6331 150.088C62.0404 150.088 72.0981 145.287 72.0981 139.366C72.0997 134.401 65.0192 130.238 55.4199 129.018Z" stroke="url(#paint0_linear_182_559)" stroke-miterlimit="10" stroke-linejoin="round"/>
<path d="M117.608 129.018C120.718 127.08 122.794 123.64 122.794 119.706C122.794 113.645 117.881 108.731 111.821 108.731C105.761 108.731 100.848 113.645 100.848 119.706C100.848 123.64 102.925 127.08 106.034 129.018C96.4366 130.238 89.3545 134.401 89.3545 139.366C89.3545 145.287 99.4122 150.088 111.821 150.088C124.228 150.088 134.286 145.287 134.286 139.366C134.286 134.401 127.205 130.238 117.608 129.018Z" stroke="url(#paint1_linear_182_559)" stroke-miterlimit="10" stroke-linejoin="round"/>
<path d="M49.6348 108.731V102.186C49.6348 97.4968 53.4346 93.6962 58.1208 93.6962H103.333C108.021 93.6962 111.819 97.4968 111.819 102.184V108.729" stroke="white" stroke-miterlimit="10" stroke-linejoin="round"/>
<path d="M80.7279 93.6979V79.3872" stroke="white" stroke-miterlimit="10" stroke-linecap="round" stroke-linejoin="round"/>
<defs>
<linearGradient id="paint0_linear_182_559" x1="72.0981" y1="129.409" x2="27.1666" y2="129.409" gradientUnits="userSpaceOnUse">
<stop stop-color="#F66979"/>
<stop offset="1" stop-color="#D278FE"/>
</linearGradient>
<linearGradient id="paint1_linear_182_559" x1="134.286" y1="129.409" x2="89.3545" y2="129.409" gradientUnits="userSpaceOnUse">
<stop stop-color="#F66979"/>
<stop offset="1" stop-color="#D278FE"/>
</linearGradient>
</defs>
</svg>
