<svg width="161" height="160" viewBox="0 0 161 160" fill="none" xmlns="http://www.w3.org/2000/svg">
<path d="M114.228 53.304H80.5329M114.228 53.304L133.002 79.3373M114.228 53.304L101.017 79.3373M80.5329 53.304H46.838M80.5329 53.304L60.0487 79.3373M80.5329 53.304L101.017 79.3373M46.838 53.304L28.0658 79.3373M46.838 53.304L60.0487 79.3373M28.0658 79.3373L80.5329 142.408M28.0658 79.3373H133.002M80.5329 142.408L133.002 79.3373M80.5329 142.408L60.0487 79.3373M80.5329 142.408L101.017 79.3373" stroke="url(#paint0_linear_182_571)" stroke-miterlimit="10" stroke-linecap="round" stroke-linejoin="round"/>
<path d="M80.533 35.8829V18.0625" stroke="white" stroke-miterlimit="10" stroke-linecap="round" stroke-linejoin="round"/>
<path d="M42.5893 35.8829L29.9904 23.2816" stroke="white" stroke-miterlimit="10" stroke-linecap="round" stroke-linejoin="round"/>
<path d="M118.477 35.8829L131.077 23.2816" stroke="white" stroke-miterlimit="10" stroke-linecap="round" stroke-linejoin="round"/>
<defs>
<linearGradient id="paint0_linear_182_571" x1="133.002" y1="97.856" x2="28.0658" y2="97.856" gradientUnits="userSpaceOnUse">
<stop stop-color="#FBA05A"/>
<stop offset="1" stop-color="#F66979"/>
</linearGradient>
</defs>
</svg>
