<svg width="479" height="440" viewBox="0 0 479 440" fill="none" xmlns="http://www.w3.org/2000/svg">
<path fill-rule="evenodd" clip-rule="evenodd" d="M275.005 216.892L253.385 238.42C250.518 241.276 246.63 242.88 242.576 242.88C238.522 242.881 234.633 241.277 231.766 238.422C228.899 235.568 227.288 231.695 227.288 227.658C227.288 223.62 228.898 219.748 231.764 216.892L253.381 195.36L275.005 216.892Z" fill="white"/>
<path fill-rule="evenodd" clip-rule="evenodd" d="M232.311 216.892L206.316 242.88H163.245L210.777 195.36L232.311 216.892Z" fill="white"/>
<path d="M307.066 220C307.066 280.704 297.223 335.638 281.327 375.378C273.378 395.249 263.926 411.296 253.456 422.368C242.987 433.438 231.534 439.5 219.566 439.5C207.597 439.5 196.145 433.438 185.675 422.368C175.205 411.296 165.753 395.249 157.804 375.378C141.909 335.638 132.066 280.704 132.066 220C132.066 159.296 141.909 104.362 157.804 64.6222C165.753 44.751 175.205 28.7036 185.675 17.6322C196.145 6.56192 207.597 0.5 219.566 0.5C231.534 0.5 242.987 6.56192 253.456 17.6322C263.926 28.7036 273.378 44.751 281.327 64.6222C297.223 104.362 307.066 159.296 307.066 220Z" stroke="#808080"/>
<path d="M263.315 295.777C210.744 326.13 158.248 345.072 115.885 351.176C94.7017 354.228 76.0782 354.066 61.255 350.534C46.4332 347.003 35.4571 340.115 29.4729 329.75C23.4886 319.385 23.0121 306.436 27.3647 291.834C31.7176 277.231 40.889 261.022 54.1238 244.202C80.5914 210.566 123.244 174.575 175.815 144.223C228.387 113.871 280.883 94.9282 323.246 88.8246C344.429 85.7726 363.053 85.9347 377.876 89.4665C392.698 92.998 403.674 99.8853 409.658 110.25C415.642 120.615 416.119 133.564 411.766 148.166C407.413 162.769 398.242 178.979 385.007 195.798C358.54 229.434 315.887 265.426 263.315 295.777Z" stroke="#808080"/>
<path d="M175.815 295.777C123.244 265.425 80.5914 229.434 54.1238 195.798C40.889 178.979 31.7177 162.769 27.3647 148.166C23.0122 133.564 23.4887 120.615 29.4729 110.25C35.4571 99.8852 46.4332 92.998 61.255 89.4665C76.0782 85.9347 94.7017 85.7726 115.885 88.8246C158.248 94.9282 210.744 113.871 263.315 144.223C315.887 174.575 358.54 210.566 385.007 244.202C398.242 261.022 407.413 277.231 411.766 291.834C416.119 306.436 415.642 319.385 409.658 329.75C403.674 340.115 392.698 347.003 377.876 350.534C363.053 354.066 344.429 354.228 323.246 351.176C280.883 345.072 228.387 326.129 175.815 295.777Z" stroke="#808080"/>
<rect x="383.006" y="292.5" width="94" height="43" rx="7.5" fill="black"/>
<rect x="383.006" y="292.5" width="94" height="43" rx="7.5" stroke="#2D69FB"/>
<path d="M394.553 321H392.393V306.7H395.293L399.413 317.94H399.453L403.593 306.7H406.493V321H404.333V309.9H404.293L400.353 321H398.533L394.593 309.9H394.553V321ZM411.631 321.28C409.591 321.28 408.291 320.1 408.291 318.36C408.291 316.08 410.011 315.4 412.551 314.92C414.151 314.62 415.131 314.42 415.131 313.42C415.131 312.68 414.691 312.06 413.191 312.06C411.411 312.06 410.871 312.62 410.771 313.98H408.771C408.871 312.02 410.151 310.48 413.271 310.48C415.371 310.48 417.051 311.36 417.051 314V318.68C417.051 319.42 417.151 319.8 417.531 319.8C417.591 319.8 417.651 319.8 417.771 319.78V320.98C417.431 321.06 417.091 321.1 416.771 321.1C415.791 321.1 415.271 320.72 415.151 319.56H415.111C414.451 320.62 413.291 321.28 411.631 321.28ZM412.071 319.7C413.831 319.7 415.131 318.8 415.131 317.02V315.56C414.811 315.86 413.931 316.08 412.891 316.3C411.091 316.66 410.331 317.16 410.331 318.22C410.331 319.18 410.851 319.7 412.071 319.7ZM424.796 310.5C426.676 310.5 428.196 311.58 428.196 313.92V321H426.236V314.46C426.236 313.1 425.636 312.18 424.156 312.18C422.476 312.18 421.396 313.2 421.396 314.74V321H419.436V310.8H421.396V312.08H421.436C421.976 311.3 423.036 310.5 424.796 310.5ZM433.135 321.28C431.095 321.28 429.795 320.1 429.795 318.36C429.795 316.08 431.515 315.4 434.055 314.92C435.655 314.62 436.635 314.42 436.635 313.42C436.635 312.68 436.195 312.06 434.695 312.06C432.915 312.06 432.375 312.62 432.275 313.98H430.275C430.375 312.02 431.655 310.48 434.775 310.48C436.875 310.48 438.555 311.36 438.555 314V318.68C438.555 319.42 438.655 319.8 439.035 319.8C439.095 319.8 439.155 319.8 439.275 319.78V320.98C438.935 321.06 438.595 321.1 438.275 321.1C437.295 321.1 436.775 320.72 436.655 319.56H436.615C435.955 320.62 434.795 321.28 433.135 321.28ZM433.575 319.7C435.335 319.7 436.635 318.8 436.635 317.02V315.56C436.315 315.86 435.435 316.08 434.395 316.3C432.595 316.66 431.835 317.16 431.835 318.22C431.835 319.18 432.355 319.7 433.575 319.7ZM448.023 312V310.8H449.983V320.2C449.983 323.28 448.123 324.66 445.203 324.66C442.283 324.66 440.823 323.26 440.623 321.42H442.663C442.863 322.34 443.543 323.06 445.203 323.06C447.063 323.06 448.023 322.24 448.023 320.32V318.94H447.983C447.423 319.76 446.483 320.48 444.843 320.48C442.303 320.48 440.343 318.76 440.343 315.5C440.343 312.22 442.303 310.5 444.843 310.5C446.483 310.5 447.423 311.28 447.983 312H448.023ZM445.203 318.86C446.963 318.86 448.003 317.72 448.003 315.5C448.003 313.26 446.963 312.14 445.203 312.14C443.283 312.14 442.383 313.58 442.383 315.5C442.383 317.42 443.283 318.86 445.203 318.86ZM461.531 315.68C461.531 315.96 461.531 316.26 461.511 316.42H453.671C453.711 318.12 454.711 319.7 456.731 319.7C458.531 319.7 459.231 318.54 459.411 317.86H461.411C460.871 319.82 459.371 321.3 456.691 321.3C453.451 321.3 451.651 319 451.651 315.88C451.651 312.68 453.571 310.48 456.691 310.48C459.791 310.48 461.531 312.52 461.531 315.68ZM453.671 314.88H459.491C459.491 313.28 458.371 312.08 456.631 312.08C454.991 312.08 453.791 313.2 453.671 314.88ZM467.926 310.56C468.286 310.56 468.566 310.58 468.866 310.62V312.5C468.626 312.46 468.446 312.44 468.206 312.44C466.426 312.44 465.146 313.78 465.146 315.72V321H463.186V310.8H465.146V312.74H465.186C465.726 311.46 466.546 310.56 467.926 310.56Z" fill="#2D69FB"/>
<path d="M383.349 289.355L381.536 289.966C381.036 290.133 380.635 290.521 380.468 291.032L379.857 292.842C379.334 294.408 377.131 294.375 376.642 292.809L374.584 286.202C374.184 284.892 375.396 283.67 376.698 284.081L383.327 286.135C384.884 286.624 384.907 288.834 383.349 289.355Z" fill="#2D69FB"/>
<rect x="264.006" y="50.5" width="139" height="43" rx="7.5" fill="black"/>
<rect x="264.006" y="50.5" width="139" height="43" rx="7.5" stroke="#F66979"/>
<path d="M278.047 79H275.667L272.107 64.7H274.407L276.927 75.96H276.967L279.927 64.7H282.247L285.227 75.96H285.267L287.787 64.7H290.087L286.507 79H284.147L281.107 67.5H281.067L278.047 79ZM299.962 73.68C299.962 73.96 299.962 74.26 299.942 74.42H292.102C292.142 76.12 293.142 77.7 295.162 77.7C296.962 77.7 297.662 76.54 297.842 75.86H299.842C299.302 77.82 297.802 79.3 295.122 79.3C291.882 79.3 290.082 77 290.082 73.88C290.082 70.68 292.002 68.48 295.122 68.48C298.222 68.48 299.962 70.52 299.962 73.68ZM292.102 72.88H297.922C297.922 71.28 296.802 70.08 295.062 70.08C293.422 70.08 292.222 71.2 292.102 72.88ZM306.758 68.5C309.358 68.5 311.338 70.54 311.338 73.9C311.338 77.26 309.358 79.28 306.758 79.28C305.158 79.28 304.178 78.56 303.618 77.74H303.578V79H301.618V64.7H303.578V70H303.618C304.178 69.28 305.158 68.5 306.758 68.5ZM306.438 77.66C308.358 77.66 309.278 75.9 309.278 73.9C309.278 71.9 308.358 70.14 306.438 70.14C304.678 70.14 303.598 71.58 303.598 73.9C303.598 76.2 304.678 77.66 306.438 77.66ZM323.004 79H317.524V64.7H322.964C326.924 64.7 329.324 67.26 329.324 71.86C329.324 76.46 326.964 79 323.004 79ZM319.724 77.1H322.864C326.184 77.1 327.044 74.62 327.044 71.86C327.044 69.1 326.184 66.6 322.864 66.6H319.724V77.1ZM340.509 73.68C340.509 73.96 340.509 74.26 340.489 74.42H332.649C332.689 76.12 333.689 77.7 335.709 77.7C337.509 77.7 338.209 76.54 338.389 75.86H340.389C339.849 77.82 338.349 79.3 335.669 79.3C332.429 79.3 330.629 77 330.629 73.88C330.629 70.68 332.549 68.48 335.669 68.48C338.769 68.48 340.509 70.52 340.509 73.68ZM332.649 72.88H338.469C338.469 71.28 337.349 70.08 335.609 70.08C333.969 70.08 332.769 71.2 332.649 72.88ZM346.185 79.28C343.085 79.28 341.545 77.68 341.485 75.6H343.465C343.545 76.78 344.265 77.7 346.165 77.7C347.885 77.7 348.345 76.94 348.345 76.2C348.345 74.92 346.985 74.78 345.665 74.5C343.885 74.08 341.845 73.56 341.845 71.44C341.845 69.68 343.265 68.5 345.725 68.5C348.525 68.5 349.865 70 350.005 71.76H348.025C347.885 70.98 347.465 70.08 345.765 70.08C344.445 70.08 343.885 70.6 343.885 71.36C343.885 72.42 345.025 72.52 346.465 72.84C348.345 73.28 350.385 73.82 350.385 76.1C350.385 78.08 348.865 79.28 346.185 79.28ZM354.031 66.98H351.811V64.86H354.031V66.98ZM353.891 79H351.931V68.8H353.891V79ZM363.291 70V68.8H365.251V78.2C365.251 81.28 363.391 82.66 360.471 82.66C357.551 82.66 356.091 81.26 355.891 79.42H357.931C358.131 80.34 358.811 81.06 360.471 81.06C362.331 81.06 363.291 80.24 363.291 78.32V76.94H363.251C362.691 77.76 361.751 78.48 360.111 78.48C357.571 78.48 355.611 76.76 355.611 73.5C355.611 70.22 357.571 68.5 360.111 68.5C361.751 68.5 362.691 69.28 363.251 70H363.291ZM360.471 76.86C362.231 76.86 363.271 75.72 363.271 73.5C363.271 71.26 362.231 70.14 360.471 70.14C358.551 70.14 357.651 71.58 357.651 73.5C357.651 75.42 358.551 76.86 360.471 76.86ZM372.798 68.5C374.678 68.5 376.198 69.58 376.198 71.92V79H374.238V72.46C374.238 71.1 373.638 70.18 372.158 70.18C370.478 70.18 369.398 71.2 369.398 72.74V79H367.438V68.8H369.398V70.08H369.438C369.978 69.3 371.038 68.5 372.798 68.5ZM387.677 73.68C387.677 73.96 387.677 74.26 387.657 74.42H379.817C379.857 76.12 380.857 77.7 382.877 77.7C384.677 77.7 385.377 76.54 385.557 75.86H387.557C387.017 77.82 385.517 79.3 382.837 79.3C379.597 79.3 377.797 77 377.797 73.88C377.797 70.68 379.717 68.48 382.837 68.48C385.937 68.48 387.677 70.52 387.677 73.68ZM379.817 72.88H385.637C385.637 71.28 384.517 70.08 382.777 70.08C381.137 70.08 379.937 71.2 379.817 72.88ZM394.073 68.56C394.433 68.56 394.713 68.58 395.013 68.62V70.5C394.773 70.46 394.593 70.44 394.353 70.44C392.573 70.44 391.293 71.78 391.293 73.72V79H389.333V68.8H391.293V70.74H391.333C391.873 69.46 392.693 68.56 394.073 68.56Z" fill="#F66979"/>
<path d="M264.349 47.3555L262.536 47.9662C262.036 48.1328 261.635 48.5214 261.468 49.0322L260.857 50.8422C260.334 52.408 258.131 52.3746 257.642 50.8089L255.584 44.2019C255.184 42.8916 256.396 41.6701 257.698 42.0809L264.327 44.1352C265.884 44.6238 265.907 46.8336 264.349 47.3555Z" fill="#F66979"/>
<rect x="110.006" y="322.5" width="100" height="43" rx="7.5" fill="black"/>
<rect x="110.006" y="322.5" width="100" height="43" rx="7.5" stroke="#D278FE"/>
<path d="M124.746 351.28C121.126 351.28 118.586 349.4 118.426 346.18H120.706C120.866 348.1 122.006 349.4 124.686 349.4C126.986 349.4 127.686 348.4 127.686 347.1C127.686 345.28 126.286 345.02 123.686 344.36C121.446 343.76 118.986 343.04 118.986 340.32C118.986 337.84 120.906 336.42 123.986 336.42C127.246 336.42 129.366 338.08 129.586 340.96H127.306C127.066 339.24 126.086 338.3 124.006 338.3C122.206 338.3 121.286 338.96 121.286 340.2C121.286 341.8 122.786 342.14 124.626 342.6C127.386 343.3 129.986 343.96 129.986 346.98C129.986 349.44 128.326 351.28 124.746 351.28ZM135.306 349.5C135.646 349.5 135.806 349.48 136.146 349.42V351C135.646 351.1 135.326 351.12 134.906 351.12C133.226 351.12 132.206 350.48 132.206 348.12V342.42H130.726V340.8H132.206V337.52H134.166V340.8H136.126V342.42H134.166V348.18C134.166 349.26 134.466 349.5 135.306 349.5ZM142.497 340.56C142.857 340.56 143.137 340.58 143.437 340.62V342.5C143.197 342.46 143.017 342.44 142.777 342.44C140.997 342.44 139.717 343.78 139.717 345.72V351H137.757V340.8H139.717V342.74H139.757C140.297 341.46 141.117 340.56 142.497 340.56ZM147.178 351.28C145.138 351.28 143.838 350.1 143.838 348.36C143.838 346.08 145.558 345.4 148.098 344.92C149.698 344.62 150.678 344.42 150.678 343.42C150.678 342.68 150.238 342.06 148.738 342.06C146.958 342.06 146.418 342.62 146.318 343.98H144.318C144.418 342.02 145.698 340.48 148.818 340.48C150.918 340.48 152.598 341.36 152.598 344V348.68C152.598 349.42 152.698 349.8 153.078 349.8C153.138 349.8 153.198 349.8 153.318 349.78V350.98C152.978 351.06 152.638 351.1 152.318 351.1C151.338 351.1 150.818 350.72 150.698 349.56H150.658C149.998 350.62 148.838 351.28 147.178 351.28ZM147.618 349.7C149.378 349.7 150.678 348.8 150.678 347.02V345.56C150.358 345.86 149.478 346.08 148.438 346.3C146.638 346.66 145.878 347.16 145.878 348.22C145.878 349.18 146.398 349.7 147.618 349.7ZM158.548 349.5C158.888 349.5 159.048 349.48 159.388 349.42V351C158.888 351.1 158.568 351.12 158.148 351.12C156.468 351.12 155.448 350.48 155.448 348.12V342.42H153.968V340.8H155.448V337.52H157.408V340.8H159.368V342.42H157.408V348.18C157.408 349.26 157.708 349.5 158.548 349.5ZM170.144 345.68C170.144 345.96 170.144 346.26 170.124 346.42H162.284C162.324 348.12 163.324 349.7 165.344 349.7C167.144 349.7 167.844 348.54 168.024 347.86H170.024C169.484 349.82 167.984 351.3 165.304 351.3C162.064 351.3 160.264 349 160.264 345.88C160.264 342.68 162.184 340.48 165.304 340.48C168.404 340.48 170.144 342.52 170.144 345.68ZM162.284 344.88H168.104C168.104 343.28 166.984 342.08 165.244 342.08C163.604 342.08 162.404 343.2 162.284 344.88ZM179 342V340.8H180.96V350.2C180.96 353.28 179.1 354.66 176.18 354.66C173.26 354.66 171.8 353.26 171.6 351.42H173.64C173.84 352.34 174.52 353.06 176.18 353.06C178.04 353.06 179 352.24 179 350.32V348.94H178.96C178.4 349.76 177.46 350.48 175.82 350.48C173.28 350.48 171.32 348.76 171.32 345.5C171.32 342.22 173.28 340.5 175.82 340.5C177.46 340.5 178.4 341.28 178.96 342H179ZM176.18 348.86C177.94 348.86 178.98 347.72 178.98 345.5C178.98 343.26 177.94 342.14 176.18 342.14C174.26 342.14 173.36 343.58 173.36 345.5C173.36 347.42 174.26 348.86 176.18 348.86ZM185.247 338.98H183.027V336.86H185.247V338.98ZM185.107 351H183.147V340.8H185.107V351ZM191.328 351.28C188.228 351.28 186.688 349.68 186.628 347.6H188.608C188.688 348.78 189.408 349.7 191.308 349.7C193.028 349.7 193.488 348.94 193.488 348.2C193.488 346.92 192.128 346.78 190.808 346.5C189.028 346.08 186.988 345.56 186.988 343.44C186.988 341.68 188.408 340.5 190.868 340.5C193.668 340.5 195.008 342 195.148 343.76H193.168C193.028 342.98 192.608 342.08 190.908 342.08C189.588 342.08 189.028 342.6 189.028 343.36C189.028 344.42 190.168 344.52 191.608 344.84C193.488 345.28 195.528 345.82 195.528 348.1C195.528 350.08 194.008 351.28 191.328 351.28ZM200.716 349.5C201.056 349.5 201.216 349.48 201.556 349.42V351C201.056 351.1 200.736 351.12 200.316 351.12C198.636 351.12 197.616 350.48 197.616 348.12V342.42H196.136V340.8H197.616V337.52H199.576V340.8H201.536V342.42H199.576V348.18C199.576 349.26 199.876 349.5 200.716 349.5Z" fill="#D278FE"/>
<path d="M110.349 319.355L108.536 319.966C108.036 320.133 107.635 320.521 107.468 321.032L106.857 322.842C106.334 324.408 104.131 324.375 103.642 322.809L101.584 316.202C101.184 314.892 102.396 313.67 103.698 314.081L110.327 316.135C111.884 316.624 111.907 318.834 110.349 319.355Z" fill="#D278FE"/>
<rect x="79.0063" y="129.5" width="80" height="43" rx="7.5" fill="black"/>
<rect x="79.0063" y="129.5" width="80" height="43" rx="7.5" stroke="#FBA05A"/>
<path d="M89.131 158H86.811L92.131 143.7H94.511L99.871 158H97.471L96.291 154.56H90.311L89.131 158ZM93.291 145.74L90.971 152.7H95.671L93.331 145.74H93.291ZM106.394 147.5C108.274 147.5 109.794 148.58 109.794 150.92V158H107.834V151.46C107.834 150.1 107.234 149.18 105.754 149.18C104.074 149.18 102.994 150.2 102.994 151.74V158H101.034V147.8H102.994V149.08H103.034C103.574 148.3 104.634 147.5 106.394 147.5ZM114.733 158.28C112.693 158.28 111.393 157.1 111.393 155.36C111.393 153.08 113.113 152.4 115.653 151.92C117.253 151.62 118.233 151.42 118.233 150.42C118.233 149.68 117.793 149.06 116.293 149.06C114.513 149.06 113.973 149.62 113.873 150.98H111.873C111.973 149.02 113.253 147.48 116.373 147.48C118.473 147.48 120.153 148.36 120.153 151V155.68C120.153 156.42 120.253 156.8 120.633 156.8C120.693 156.8 120.753 156.8 120.873 156.78V157.98C120.533 158.06 120.193 158.1 119.873 158.1C118.893 158.1 118.373 157.72 118.253 156.56H118.213C117.553 157.62 116.393 158.28 114.733 158.28ZM115.173 156.7C116.933 156.7 118.233 155.8 118.233 154.02V152.56C117.913 152.86 117.033 153.08 115.993 153.3C114.193 153.66 113.433 154.16 113.433 155.22C113.433 156.18 113.953 156.7 115.173 156.7ZM124.498 158H122.538V143.7H124.498V158ZM128.018 161.58C127.578 161.58 127.278 161.54 126.758 161.44V159.84C127.098 159.88 127.278 159.9 127.598 159.9C128.378 159.9 129.298 159.5 129.698 157.9L125.578 147.8H127.718L130.698 155.6H130.738L133.538 147.8H135.598L131.558 158.24C130.578 160.76 129.598 161.58 128.018 161.58ZM140.542 158.28C137.442 158.28 135.902 156.68 135.842 154.6H137.822C137.902 155.78 138.622 156.7 140.522 156.7C142.242 156.7 142.702 155.94 142.702 155.2C142.702 153.92 141.342 153.78 140.022 153.5C138.242 153.08 136.202 152.56 136.202 150.44C136.202 148.68 137.622 147.5 140.082 147.5C142.882 147.5 144.222 149 144.362 150.76H142.382C142.242 149.98 141.822 149.08 140.122 149.08C138.802 149.08 138.242 149.6 138.242 150.36C138.242 151.42 139.382 151.52 140.822 151.84C142.702 152.28 144.742 152.82 144.742 155.1C144.742 157.08 143.222 158.28 140.542 158.28ZM149.931 156.5C150.271 156.5 150.431 156.48 150.771 156.42V158C150.271 158.1 149.951 158.12 149.531 158.12C147.851 158.12 146.831 157.48 146.831 155.12V149.42H145.351V147.8H146.831V144.52H148.791V147.8H150.751V149.42H148.791V155.18C148.791 156.26 149.091 156.5 149.931 156.5Z" fill="#FBA05A"/>
<path d="M79.3494 126.355L77.5363 126.966C77.0358 127.133 76.6353 127.521 76.4685 128.032L75.8567 129.842C75.3339 131.408 73.1314 131.375 72.642 129.809L70.5841 123.202C70.1837 121.892 71.3961 120.67 72.6976 121.081L79.3272 123.135C80.8845 123.624 80.9067 125.834 79.3494 126.355Z" fill="#FBA05A"/>
</svg>
