<svg width="590" height="250" viewBox="0 0 590 250" fill="none" xmlns="http://www.w3.org/2000/svg">
<rect x="170.466" y="0.541675" width="333" height="65" rx="32.5" transform="rotate(5 170.466 0.541675)" fill="black"/>
<rect x="170.466" y="0.541675" width="333" height="65" rx="32.5" transform="rotate(5 170.466 0.541675)" stroke="#F66979"/>
<path d="M209.02 46.5775L200.122 45.799L201.867 25.8552L210.263 26.5898C214.363 26.9485 216.601 28.9993 216.323 32.1792C216.108 34.6338 214.558 35.6506 212.863 36.0644L212.858 36.1202C214.919 36.6659 216.569 38.3562 216.308 41.3408C215.974 45.1622 213.148 46.9387 209.02 46.5775ZM204.211 34.408L209.455 34.8668C211.965 35.0864 212.92 34.13 213.076 32.3448C213.23 30.5876 212.263 29.4349 210.171 29.2518L204.704 28.7735L204.211 34.408ZM203.422 43.4176L209.029 43.9081C211.986 44.1668 212.947 42.8174 213.11 40.9486C213.293 38.8566 212.115 37.5449 210.023 37.3619L203.998 36.8347L203.422 43.4176ZM221.795 47.6952L218.727 47.4267L220.472 27.4829L228.784 28.2101C233.191 28.5957 235.382 30.8673 235.059 34.5492C234.837 37.0875 233.142 38.7943 230.895 39.1036L230.89 39.1593C235.444 40.4291 233.055 48.1462 234.113 48.5761L234.096 48.7714L230.805 48.4834C229.985 47.5685 232.492 40.7611 227.611 40.334L222.479 39.885L221.795 47.6952ZM222.71 37.2351L227.285 37.6354C230.102 37.8818 231.744 36.7887 231.944 34.5015C232.132 32.3537 231.007 31.0748 227.939 30.8063L223.308 30.4012L222.71 37.2351ZM238.399 49.1478L235.163 48.8647L244.328 29.57L247.647 29.8604L253.378 50.4583L250.03 50.1654L248.804 45.2238L240.464 44.4941L238.399 49.1478ZM245.697 32.5567L241.612 41.9806L248.167 42.554L245.752 32.5616L245.697 32.5567ZM258.514 50.9077L255.446 50.6392L257.191 30.6954L260.705 31.0029L268.624 47.1545L268.68 47.1594L270.022 31.818L273.118 32.0889L271.373 52.0327L267.859 51.7252L259.912 35.5712L259.857 35.5663L258.514 50.9077ZM282.974 53.0476L275.331 52.379L277.076 32.4351L284.663 33.0989C290.186 33.5821 293.221 37.4453 292.659 43.8608C292.098 50.2763 288.497 53.5308 282.974 53.0476ZM278.631 49.9975L283.01 50.3807C287.641 50.7858 289.143 47.4319 289.48 43.5826C289.816 39.7333 288.922 36.1417 284.292 35.7366L279.912 35.3535L278.631 49.9975ZM301.159 54.6386L297.923 54.3555L307.088 35.0609L310.407 35.3513L316.138 55.9491L312.791 55.6562L311.565 50.7146L303.225 49.9849L301.159 54.6386ZM308.457 38.0475L304.372 47.4714L310.927 48.0448L308.513 38.0524L308.457 38.0475ZM323.757 56.6157L320.437 56.3252L317.217 35.947L320.425 36.2277L322.566 52.2392L322.621 52.2441L328.124 36.9012L331.359 37.1843L334.141 53.2519L334.197 53.2568L339.086 37.8603L342.293 38.1409L335.556 57.6479L332.264 57.36L329.428 40.9503L329.372 40.9454L323.757 56.6157ZM343.135 58.3111L339.9 58.028L349.064 38.7333L352.384 39.0237L358.114 59.6215L354.767 59.3287L353.541 54.387L345.201 53.6574L343.135 58.3111ZM350.433 41.72L346.348 51.1438L352.903 51.7173L350.489 41.7249L350.433 41.72ZM363.251 60.071L360.183 59.8025L361.928 39.8587L370.24 40.5859C374.647 40.9715 376.837 43.243 376.515 46.925C376.293 49.4633 374.598 51.17 372.35 51.4793L372.346 51.5351C376.9 52.8049 374.511 60.522 375.569 60.9519L375.552 61.1472L372.261 60.8592C371.441 59.9443 373.948 53.1369 369.067 52.7098L363.934 52.2608L363.251 60.071ZM364.166 49.6109L368.741 50.0111C371.558 50.2576 373.199 49.1645 373.4 46.8773C373.587 44.7295 372.463 43.4506 369.394 43.1821L364.764 42.777L364.166 49.6109ZM392.881 62.6632L378.488 61.404L380.233 41.4602L394.347 42.695L394.115 45.3449L383.069 44.3785L382.574 50.0409L392.253 50.8877L392.021 53.5376L382.342 52.6907L381.788 59.0226L393.113 60.0134L392.881 62.6632ZM398.826 63.1834L395.758 62.9149L397.503 42.9711L401.017 43.2786L408.936 59.4302L408.991 59.4351L410.334 44.0937L413.43 44.3646L411.685 64.3084L408.17 64.0009L400.224 47.8469L400.168 47.842L398.826 63.1834ZM430.036 65.9139L415.643 64.6546L417.388 44.7108L431.502 45.9456L431.27 48.5955L420.224 47.6291L419.729 53.2915L429.408 54.1383L429.176 56.7882L419.497 55.9414L418.943 62.2732L430.268 63.264L430.036 65.9139ZM440.382 67.2125C435.333 66.7708 432.02 63.8389 432.19 59.3285L435.37 59.6067C435.359 62.304 436.79 64.2562 440.528 64.5832C443.735 64.8639 444.834 63.5546 444.992 61.7415C445.214 59.2032 443.293 58.6698 439.748 57.4321C436.697 56.3219 433.354 55.0176 433.686 51.2241C433.988 47.7653 436.84 46.0191 441.135 46.395C445.682 46.7927 448.436 49.3666 448.391 53.4101L445.211 53.1319C445.087 50.7038 443.835 49.2732 440.934 49.0194C438.423 48.7998 437.06 49.608 436.908 51.3374C436.713 53.5689 438.764 54.2261 441.274 55.0921C445.038 56.4052 448.583 57.6429 448.215 61.8548C447.914 65.2857 445.375 67.6494 440.382 67.2125ZM458.006 68.7544C452.957 68.3127 449.644 65.3808 449.814 60.8705L452.994 61.1487C452.983 63.8459 454.414 65.7981 458.152 66.1251C461.359 66.4058 462.458 65.0965 462.616 63.2834C462.838 60.7451 460.918 60.2117 457.372 58.974C454.321 57.8638 450.978 56.5595 451.31 52.766C451.613 49.3072 454.464 47.5611 458.759 47.9369C463.306 48.3346 466.06 50.9085 466.015 54.952L462.836 54.6738C462.711 52.2457 461.459 50.8151 458.558 50.5613C456.047 50.3417 454.684 51.1499 454.532 52.8793C454.337 55.1108 456.388 55.768 458.898 56.634C462.662 57.9471 466.207 59.1848 465.839 63.3967C465.539 66.8276 462.999 69.1913 458.006 68.7544Z" fill="white"/>
<rect x="30.8757" y="68.3359" width="416" height="65" rx="32.5" fill="black"/>
<rect x="30.8757" y="68.3359" width="416" height="65" rx="32.5" stroke="#2D69FB"/>
<path d="M67.4437 110.836H64.3637V90.8159H72.7077C76.4877 90.8159 79.2597 92.5799 79.2597 96.7799C79.2597 100.98 76.4877 102.716 72.7077 102.716H67.4437V110.836ZM67.4437 100.056H72.5677C74.8917 100.056 76.0677 99.0199 76.0677 96.7799C76.0677 94.5119 74.8917 93.4759 72.5677 93.4759H67.4437V100.056ZM96.2844 110.836H81.8364V90.8159H96.0044V93.4759H84.9164V99.1599H94.6324V101.82H84.9164V108.176H96.2844V110.836ZM102.252 110.836H99.1723V90.8159H107.516C111.94 90.8159 114.32 92.8879 114.32 96.5839C114.32 99.1319 112.78 100.98 110.568 101.484V101.54C115.216 102.408 113.508 110.304 114.6 110.64V110.836H111.296C110.4 109.996 112.304 102.996 107.404 102.996H102.252V110.836ZM102.252 100.336H106.844C109.672 100.336 111.212 99.1039 111.212 96.8079C111.212 94.6519 109.98 93.4759 106.9 93.4759H102.252V100.336ZM120.627 110.836H117.547V90.8159H131.435V93.4759H120.627V99.4959H129.363V102.156H120.627V110.836ZM142.009 111.228C136.017 111.228 132.181 106.832 132.181 100.812C132.181 94.7919 136.017 90.4239 142.009 90.4239C148.001 90.4239 151.837 94.7919 151.837 100.812C151.837 106.832 148.001 111.228 142.009 111.228ZM142.009 108.568C146.741 108.568 148.617 104.928 148.617 100.812C148.617 96.6959 146.741 93.0839 142.009 93.0839C137.277 93.0839 135.401 96.6959 135.401 100.812C135.401 104.928 137.277 108.568 142.009 108.568ZM157.924 110.836H154.844V90.8159H163.188C167.612 90.8159 169.992 92.8879 169.992 96.5839C169.992 99.1319 168.452 100.98 166.24 101.484V101.54C170.888 102.408 169.18 110.304 170.272 110.64V110.836H166.968C166.072 109.996 167.976 102.996 163.076 102.996H157.924V110.836ZM157.924 100.336H162.516C165.344 100.336 166.884 99.1039 166.884 96.8079C166.884 94.6519 165.652 93.4759 162.572 93.4759H157.924V100.336ZM176.243 110.836H173.219V90.8159H177.279L183.047 106.552H183.103L188.899 90.8159H192.959V110.836H189.935V95.2959H189.879L184.363 110.836H181.815L176.299 95.2959H176.243V110.836ZM198.298 110.836H195.05L202.498 90.8159H205.83L213.334 110.836H209.974L208.322 106.02H199.95L198.298 110.836ZM204.122 93.6719L200.874 103.416H207.454L204.178 93.6719H204.122ZM218.491 110.836H215.411V90.8159H218.939L228.235 106.216H228.291V90.8159H231.399V110.836H227.871L218.547 95.4359H218.491V110.836ZM243.744 111.228C238.06 111.228 234.392 106.86 234.392 100.84C234.392 94.7919 238.088 90.4239 243.772 90.4239C248.784 90.4239 251.892 93.6159 252.368 97.6199H249.148C248.784 95.6599 247.552 93.0839 243.716 93.0839C239.292 93.0839 237.612 96.8359 237.612 100.812C237.612 104.816 239.292 108.568 243.716 108.568C247.58 108.568 248.952 105.992 249.148 103.556H252.368C251.92 108.008 248.784 111.228 243.744 111.228ZM269.589 110.836H255.141V90.8159H269.309V93.4759H258.221V99.1599H267.937V101.82H258.221V108.176H269.589V110.836ZM287.177 111.228C281.185 111.228 277.349 106.832 277.349 100.812C277.349 94.7919 281.185 90.4239 287.177 90.4239C293.169 90.4239 297.005 94.7919 297.005 100.812C297.005 106.832 293.169 111.228 287.177 111.228ZM287.177 108.568C291.909 108.568 293.785 104.928 293.785 100.812C293.785 96.6959 291.909 93.0839 287.177 93.0839C282.445 93.0839 280.569 96.6959 280.569 100.812C280.569 104.928 282.445 108.568 287.177 108.568ZM303.092 110.836H300.012V90.8159H308.356C312.78 90.8159 315.16 92.8879 315.16 96.5839C315.16 99.1319 313.62 100.98 311.408 101.484V101.54C316.056 102.408 314.348 110.304 315.44 110.64V110.836H312.136C311.24 109.996 313.144 102.996 308.244 102.996H303.092V110.836ZM303.092 100.336H307.684C310.512 100.336 312.052 99.1039 312.052 96.8079C312.052 94.6519 310.82 93.4759 307.74 93.4759H303.092V100.336ZM321.467 110.836H318.387V90.8159H321.467V110.836ZM339.89 110.836H325.442V90.8159H339.61V93.4759H328.522V99.1599H338.238V101.82H328.522V108.176H339.89V110.836ZM345.858 110.836H342.778V90.8159H346.306L355.602 106.216H355.658V90.8159H358.766V110.836H355.238L345.914 95.4359H345.858V110.836ZM370.747 110.836H367.639V93.4759H361.171V90.8159H377.215V93.4759H370.747V110.836ZM394.058 110.836H379.61V90.8159H393.778V93.4759H382.69V99.1599H392.406V101.82H382.69V108.176H394.058V110.836ZM404.618 110.836H396.946V90.8159H404.562C410.106 90.8159 413.466 94.3999 413.466 100.84C413.466 107.28 410.162 110.836 404.618 110.836ZM400.026 108.176H404.422C409.07 108.176 410.274 104.704 410.274 100.84C410.274 96.9759 409.07 93.4759 404.422 93.4759H400.026V108.176Z" fill="white"/>
<rect x="237.876" y="122.336" width="348" height="65" rx="32.5" fill="black"/>
<rect x="237.876" y="122.336" width="348" height="65" rx="32.5" stroke="#FBA05A"/>
<path d="M274.444 164.836H271.364V144.816H279.708C283.488 144.816 286.26 146.58 286.26 150.78C286.26 154.98 283.488 156.716 279.708 156.716H274.444V164.836ZM274.444 154.056H279.568C281.892 154.056 283.068 153.02 283.068 150.78C283.068 148.512 281.892 147.476 279.568 147.476H274.444V154.056ZM291.916 164.836H288.836V144.816H297.18C301.604 144.816 303.984 146.888 303.984 150.584C303.984 153.132 302.444 154.98 300.232 155.484V155.54C304.88 156.408 303.172 164.304 304.264 164.64V164.836H300.96C300.064 163.996 301.968 156.996 297.068 156.996H291.916V164.836ZM291.916 154.336H296.508C299.336 154.336 300.876 153.104 300.876 150.808C300.876 148.652 299.644 147.476 296.564 147.476H291.916V154.336ZM316.032 165.228C310.04 165.228 306.204 160.832 306.204 154.812C306.204 148.792 310.04 144.424 316.032 144.424C322.024 144.424 325.86 148.792 325.86 154.812C325.86 160.832 322.024 165.228 316.032 165.228ZM316.032 162.568C320.764 162.568 322.64 158.928 322.64 154.812C322.64 150.696 320.764 147.084 316.032 147.084C311.3 147.084 309.424 150.696 309.424 154.812C309.424 158.928 311.3 162.568 316.032 162.568ZM336.54 164.836H328.868V144.816H336.484C342.028 144.816 345.388 148.4 345.388 154.84C345.388 161.28 342.084 164.836 336.54 164.836ZM331.948 162.176H336.344C340.992 162.176 342.196 158.704 342.196 154.84C342.196 150.976 340.992 147.476 336.344 147.476H331.948V162.176ZM356.118 165.228C350.63 165.228 348.306 162.344 348.306 158.032V144.816H351.386V158.032C351.386 161.14 352.954 162.568 356.118 162.568C359.31 162.568 360.85 161.14 360.85 158.032V144.816H363.958V158.032C363.958 162.344 361.634 165.228 356.118 165.228ZM376.177 165.228C370.493 165.228 366.825 160.86 366.825 154.84C366.825 148.792 370.521 144.424 376.205 144.424C381.217 144.424 384.325 147.616 384.801 151.62H381.581C381.217 149.66 379.985 147.084 376.149 147.084C371.725 147.084 370.045 150.836 370.045 154.812C370.045 158.816 371.725 162.568 376.149 162.568C380.013 162.568 381.385 159.992 381.581 157.556H384.801C384.353 162.008 381.217 165.228 376.177 165.228ZM394.68 164.836H391.572V147.476H385.104V144.816H401.148V147.476H394.68V164.836ZM421.818 164.836H408.602V144.816H411.682V162.176H421.818V164.836ZM425.587 164.836H422.339L429.787 144.816H433.119L440.623 164.836H437.263L435.611 160.02H427.239L425.587 164.836ZM431.411 147.672L428.163 157.416H434.743L431.467 147.672H431.411ZM449.852 165.228C444.364 165.228 442.04 162.344 442.04 158.032V144.816H445.12V158.032C445.12 161.14 446.688 162.568 449.852 162.568C453.044 162.568 454.584 161.14 454.584 158.032V144.816H457.692V158.032C457.692 162.344 455.368 165.228 449.852 165.228ZM464.62 164.836H461.54V144.816H465.068L474.364 160.216H474.42V144.816H477.528V164.836H474L464.676 149.436H464.62V164.836ZM489.872 165.228C484.188 165.228 480.52 160.86 480.52 154.84C480.52 148.792 484.216 144.424 489.9 144.424C494.912 144.424 498.02 147.616 498.496 151.62H495.276C494.912 149.66 493.68 147.084 489.844 147.084C485.42 147.084 483.74 150.836 483.74 154.812C483.74 158.816 485.42 162.568 489.844 162.568C493.708 162.568 495.08 159.992 495.276 157.556H498.496C498.048 162.008 494.912 165.228 489.872 165.228ZM504.35 164.836H501.27V144.816H504.35V153.188H514.178V144.816H517.286V164.836H514.178V155.848H504.35V164.836ZM535.679 164.836H521.231V144.816H535.399V147.476H524.311V153.16H534.027V155.82H524.311V162.176H535.679V164.836ZM546.099 165.228C541.031 165.228 537.475 162.596 537.251 158.088H540.443C540.667 160.776 542.263 162.596 546.015 162.596C549.235 162.596 550.215 161.196 550.215 159.376C550.215 156.828 548.255 156.464 544.615 155.54C541.479 154.7 538.035 153.692 538.035 149.884C538.035 146.412 540.723 144.424 545.035 144.424C549.599 144.424 552.567 146.748 552.875 150.78H549.683C549.347 148.372 547.975 147.056 545.063 147.056C542.543 147.056 541.255 147.98 541.255 149.716C541.255 151.956 543.355 152.432 545.931 153.076C549.795 154.056 553.435 154.98 553.435 159.208C553.435 162.652 551.111 165.228 546.099 165.228Z" fill="white"/>
<rect x="0.541675" y="137.876" width="262" height="65" rx="32.5" transform="rotate(-5 0.541675 137.876)" fill="black"/>
<rect x="0.541675" y="137.876" width="262" height="65" rx="32.5" transform="rotate(-5 0.541675 137.876)" stroke="#F66979"/>
<path d="M45.2833 177.018C39.8162 177.496 37.2497 174.826 36.8739 170.53L35.722 157.365L38.7903 157.096L39.9422 170.262C40.213 173.358 41.8995 174.644 45.0515 174.368C48.2313 174.09 49.641 172.533 49.3701 169.437L48.2183 156.271L51.3145 156L52.4663 169.166C52.8421 173.462 50.7783 176.537 45.2833 177.018ZM64.9595 175.297C59.2135 175.799 55.5971 171.731 55.07 165.706C54.5453 159.709 57.8187 155.038 63.509 154.54C68.6692 154.089 71.6444 156.611 72.6178 160.348L69.4101 160.629C68.6605 158.165 66.6696 156.934 63.7129 157.192C59.3057 157.578 57.9508 161.688 58.2778 165.425C58.6072 169.191 60.2369 173.04 64.8951 172.632C68.1865 172.344 70.6084 169.828 70.3459 166.506L64.4603 167.021L64.2358 164.454L73.2454 163.666L74.1581 174.098L72.0382 174.284L71.0435 171.588L70.9877 171.593C69.7712 173.751 67.9999 175.031 64.9595 175.297ZM85.8323 173.471C80.17 173.966 76.1352 169.934 75.6105 163.937C75.0834 157.912 78.3847 153.239 84.047 152.743C89.04 152.306 92.4143 155.215 93.2375 159.163L90.0298 159.443C89.4963 157.523 88.0445 155.064 84.2231 155.398C79.8159 155.784 78.4693 159.668 78.8159 163.629C79.1648 167.617 81.1654 171.209 85.5726 170.823C89.4219 170.486 90.5642 167.801 90.5471 165.357L93.7549 165.076C93.6966 169.55 90.8532 173.031 85.8323 173.471ZM111.356 171.238C105.694 171.733 101.659 167.701 101.134 161.704C100.607 155.679 103.908 151.006 109.571 150.51C114.564 150.073 117.938 152.982 118.761 156.93L115.553 157.21C115.02 155.289 113.568 152.831 109.747 153.165C105.34 153.551 103.993 157.435 104.339 161.396C104.688 165.384 106.689 168.976 111.096 168.59C114.946 168.253 116.088 165.568 116.071 163.124L119.278 162.843C119.22 167.317 116.377 170.798 111.356 171.238ZM131.524 169.473C125.555 169.995 121.351 165.95 120.826 159.953C120.301 153.956 123.742 149.27 129.711 148.748C135.68 148.226 139.883 152.243 140.407 158.24C140.932 164.237 137.494 168.951 131.524 169.473ZM131.293 166.823C136.007 166.411 137.558 162.621 137.199 158.521C136.841 154.42 134.657 150.986 129.943 151.398C125.229 151.81 123.675 155.572 124.034 159.673C124.392 163.773 126.579 167.236 131.293 166.823ZM147.345 167.695L144.277 167.964L142.532 148.02L146.047 147.712L156.65 162.244L156.705 162.239L155.363 146.897L158.459 146.627L160.204 166.57L156.69 166.878L146.059 152.349L146.003 152.354L147.345 167.695ZM172.14 165.526L169.043 165.797L167.53 148.503L161.087 149.067L160.855 146.417L176.838 145.019L177.07 147.668L170.626 148.232L172.14 165.526ZM195.362 163.494L180.969 164.754L179.224 144.81L193.338 143.575L193.57 146.225L182.524 147.191L183.02 152.854L192.699 152.007L192.93 154.657L183.251 155.504L183.805 161.835L195.13 160.845L195.362 163.494ZM201.307 162.974L198.239 163.243L196.494 143.299L200.009 142.991L210.611 157.523L210.667 157.518L209.325 142.176L212.421 141.905L214.166 161.849L210.651 162.157L200.021 147.628L199.965 147.633L201.307 162.974ZM226.101 160.805L223.005 161.076L221.492 143.782L215.049 144.346L214.817 141.696L230.8 140.298L231.032 142.947L224.588 143.511L226.101 160.805Z" fill="white"/>
<rect x="111.876" y="179.336" width="417" height="65" rx="32.5" fill="black"/>
<rect x="111.876" y="179.336" width="417" height="65" rx="32.5" stroke="#D278FE"/>
<path d="M146.736 221.836H143.488L150.936 201.816H154.268L161.772 221.836H158.412L156.76 217.02H148.388L146.736 221.836ZM152.56 204.672L149.312 214.416H155.892L152.616 204.672H152.56ZM166.872 221.836H163.848V201.816H167.908L173.676 217.552H173.732L179.528 201.816H183.588V221.836H180.564V206.296H180.508L174.992 221.836H172.444L166.928 206.296H166.872V221.836ZM196.487 221.836H187.555V201.816H195.983C200.099 201.816 202.507 203.664 202.507 206.856C202.507 209.32 201.051 210.468 199.399 211.028V211.084C201.499 211.448 203.291 212.988 203.291 215.984C203.291 219.82 200.631 221.836 196.487 221.836ZM190.635 210.132H195.899C198.419 210.132 199.287 209.096 199.287 207.304C199.287 205.54 198.223 204.476 196.123 204.476H190.635V210.132ZM190.635 219.176H196.263C199.231 219.176 200.071 217.748 200.071 215.872C200.071 213.772 198.783 212.568 196.683 212.568H190.635V219.176ZM207.083 221.836H203.835L211.283 201.816H214.615L222.119 221.836H218.759L217.107 217.02H208.735L207.083 221.836ZM212.907 204.672L209.659 214.416H216.239L212.963 204.672H212.907ZM231.236 222.228C226.168 222.228 222.612 219.596 222.388 215.088H225.58C225.804 217.776 227.4 219.596 231.152 219.596C234.372 219.596 235.352 218.196 235.352 216.376C235.352 213.828 233.392 213.464 229.752 212.54C226.616 211.7 223.172 210.692 223.172 206.884C223.172 203.412 225.86 201.424 230.172 201.424C234.736 201.424 237.704 203.748 238.012 207.78H234.82C234.484 205.372 233.112 204.056 230.2 204.056C227.68 204.056 226.392 204.98 226.392 206.716C226.392 208.956 228.492 209.432 231.068 210.076C234.932 211.056 238.572 211.98 238.572 216.208C238.572 219.652 236.248 222.228 231.236 222.228ZM248.927 222.228C243.859 222.228 240.303 219.596 240.079 215.088H243.271C243.495 217.776 245.091 219.596 248.843 219.596C252.063 219.596 253.043 218.196 253.043 216.376C253.043 213.828 251.083 213.464 247.443 212.54C244.307 211.7 240.863 210.692 240.863 206.884C240.863 203.412 243.551 201.424 247.863 201.424C252.427 201.424 255.395 203.748 255.703 207.78H252.511C252.175 205.372 250.803 204.056 247.891 204.056C245.371 204.056 244.083 204.98 244.083 206.716C244.083 208.956 246.183 209.432 248.759 210.076C252.623 211.056 256.263 211.98 256.263 216.208C256.263 219.652 253.939 222.228 248.927 222.228ZM259.939 221.836H256.691L264.139 201.816H267.471L274.975 221.836H271.615L269.963 217.02H261.591L259.939 221.836ZM265.763 204.672L262.515 214.416H269.095L265.819 204.672H265.763ZM284.723 221.836H277.051V201.816H284.667C290.211 201.816 293.571 205.4 293.571 211.84C293.571 218.28 290.267 221.836 284.723 221.836ZM280.131 219.176H284.527C289.175 219.176 290.379 215.704 290.379 211.84C290.379 207.976 289.175 204.476 284.527 204.476H280.131V219.176ZM305.477 222.228C299.485 222.228 295.649 217.832 295.649 211.812C295.649 205.792 299.485 201.424 305.477 201.424C311.469 201.424 315.305 205.792 315.305 211.812C315.305 217.832 311.469 222.228 305.477 222.228ZM305.477 219.568C310.209 219.568 312.085 215.928 312.085 211.812C312.085 207.696 310.209 204.084 305.477 204.084C300.745 204.084 298.869 207.696 298.869 211.812C298.869 215.928 300.745 219.568 305.477 219.568ZM321.393 221.836H318.313V201.816H326.657C331.081 201.816 333.461 203.888 333.461 207.584C333.461 210.132 331.921 211.98 329.709 212.484V212.54C334.357 213.408 332.649 221.304 333.741 221.64V221.836H330.437C329.541 220.996 331.445 213.996 326.545 213.996H321.393V221.836ZM321.393 211.336H325.985C328.813 211.336 330.353 210.104 330.353 207.808C330.353 205.652 329.121 204.476 326.041 204.476H321.393V211.336ZM345.62 221.836H342.54V201.816H350.884C354.664 201.816 357.436 203.58 357.436 207.78C357.436 211.98 354.664 213.716 350.884 213.716H345.62V221.836ZM345.62 211.056H350.744C353.068 211.056 354.244 210.02 354.244 207.78C354.244 205.512 353.068 204.476 350.744 204.476H345.62V211.056ZM363.092 221.836H360.012V201.816H368.356C372.78 201.816 375.16 203.888 375.16 207.584C375.16 210.132 373.62 211.98 371.408 212.484V212.54C376.056 213.408 374.348 221.304 375.44 221.64V221.836H372.136C371.24 220.996 373.144 213.996 368.244 213.996H363.092V221.836ZM363.092 211.336H367.684C370.512 211.336 372.052 210.104 372.052 207.808C372.052 205.652 370.82 204.476 367.74 204.476H363.092V211.336ZM387.208 222.228C381.216 222.228 377.38 217.832 377.38 211.812C377.38 205.792 381.216 201.424 387.208 201.424C393.2 201.424 397.036 205.792 397.036 211.812C397.036 217.832 393.2 222.228 387.208 222.228ZM387.208 219.568C391.94 219.568 393.816 215.928 393.816 211.812C393.816 207.696 391.94 204.084 387.208 204.084C382.476 204.084 380.6 207.696 380.6 211.812C380.6 215.928 382.476 219.568 387.208 219.568ZM408.107 222.228C402.339 222.228 399.091 217.86 399.091 211.812C399.091 205.792 402.759 201.424 408.471 201.424C413.651 201.424 416.395 204.196 417.039 208.004H413.819C413.287 205.484 411.411 204.084 408.443 204.084C404.019 204.084 402.311 208.06 402.311 211.812C402.311 215.592 403.599 219.568 408.275 219.568C411.579 219.568 414.211 217.272 414.239 213.94H408.331V211.364H417.375V221.836H415.247L414.491 219.064H414.435C413.035 221.108 411.159 222.228 408.107 222.228ZM423.768 221.836H420.688V201.816H429.032C433.456 201.816 435.836 203.888 435.836 207.584C435.836 210.132 434.296 211.98 432.084 212.484V212.54C436.732 213.408 435.024 221.304 436.116 221.64V221.836H432.812C431.916 220.996 433.82 213.996 428.92 213.996H423.768V221.836ZM423.768 211.336H428.36C431.188 211.336 432.728 210.104 432.728 207.808C432.728 205.652 431.496 204.476 428.416 204.476H423.768V211.336ZM440.435 221.836H437.187L444.635 201.816H447.967L455.471 221.836H452.111L450.459 217.02H442.087L440.435 221.836ZM446.259 204.672L443.011 214.416H449.591L446.315 204.672H446.259ZM460.571 221.836H457.547V201.816H461.607L467.375 217.552H467.431L473.227 201.816H477.287V221.836H474.263V206.296H474.207L468.691 221.836H466.143L460.627 206.296H460.571V221.836ZM488.786 222.228C483.718 222.228 480.162 219.596 479.938 215.088H483.13C483.354 217.776 484.95 219.596 488.702 219.596C491.922 219.596 492.902 218.196 492.902 216.376C492.902 213.828 490.942 213.464 487.302 212.54C484.166 211.7 480.722 210.692 480.722 206.884C480.722 203.412 483.41 201.424 487.722 201.424C492.286 201.424 495.254 203.748 495.562 207.78H492.37C492.034 205.372 490.662 204.056 487.75 204.056C485.23 204.056 483.942 204.98 483.942 206.716C483.942 208.956 486.042 209.432 488.618 210.076C492.482 211.056 496.122 211.98 496.122 216.208C496.122 219.652 493.798 222.228 488.786 222.228Z" fill="white"/>
</svg>
