<svg width="260" height="70" viewBox="0 0 260 70" fill="none" xmlns="http://www.w3.org/2000/svg">
<g clip-path="url(#clip0_10954_7163)">
<path fill-rule="evenodd" clip-rule="evenodd" d="M24.1682 0.0458984C37.4258 0.0458984 48.2896 10.8192 48.2896 24.0002C48.2896 37.1811 37.4411 47.9545 24.1682 47.9545C10.8953 47.9545 0.046875 37.1811 0.046875 24.0002C0.046875 10.8192 10.9107 0.0458984 24.1682 0.0458984ZM36.0448 14.964C36.1062 14.4764 35.8606 14.4154 35.3696 14.4154H25.9635C25.2423 14.4154 24.8894 14.903 24.6439 15.6192C24.4137 16.3507 20.9613 28.7392 20.6697 29.8821C20.3782 31.0249 19.3194 31.5583 18.5982 31.5583H13.197C12.4605 31.5583 11.9848 32.4573 11.9848 33.0364C11.9848 33.4021 12.2303 33.6002 12.706 33.6002H24.8894C25.9635 33.6002 26.209 32.3964 26.209 32.3964L30.1832 17.4173C30.1832 17.4173 30.4287 16.2135 31.3954 16.2135H35.0167C35.4463 16.2135 35.9681 15.6497 36.0448 14.964ZM13.3198 28.6783C13.0742 29.5164 13.3198 29.8669 13.9335 29.8821H17.8463C18.322 29.8821 18.7363 29.5164 18.9818 28.6783C19.2273 27.8554 22.511 16.2288 22.7259 15.5126C22.9407 14.7811 22.7259 14.3088 22.2502 14.3088H18.276C17.4321 14.3088 17.3093 14.7964 17.0638 15.5126C16.8183 16.2288 13.5653 27.9621 13.3198 28.6783Z" fill="white"/>
<path fill-rule="evenodd" clip-rule="evenodd" d="M58.6632 14.4913C58.6632 14.2475 58.7399 14.0342 58.9087 13.8513C59.0775 13.6837 59.2923 13.5923 59.5839 13.5923C59.8754 13.5923 60.0902 13.6837 60.259 13.8513C60.4278 14.019 60.5045 14.2323 60.5045 14.4913C60.5045 14.7504 60.4278 14.9485 60.259 15.1161C60.0902 15.2837 59.8601 15.3751 59.5839 15.3751C59.2923 15.3751 59.0775 15.2837 58.9087 15.1161C58.7399 14.9485 58.6632 14.7351 58.6632 14.4913ZM60.2437 30.0494H58.8934V17.9809H60.2437V30.0494Z" fill="white"/>
<path fill-rule="evenodd" clip-rule="evenodd" d="M65.1846 17.9659L65.2306 20.023C65.6909 19.2764 66.2587 18.7125 66.9338 18.3164C67.609 17.9202 68.3608 17.7373 69.1894 17.7373C70.4937 17.7373 71.4604 18.103 72.1049 18.8344C72.734 19.5659 73.0562 20.663 73.0716 22.1106V30.0344H71.7366V22.0954C71.7366 21.0135 71.4911 20.2059 71.0461 19.6878C70.5858 19.1544 69.8646 18.8954 68.8672 18.8954C68.0386 18.8954 67.3021 19.1544 66.6576 19.6725C66.0132 20.1906 65.5375 20.8916 65.2306 21.7602V30.0344H63.8956V17.9659H65.1846Z" fill="white"/>
<path fill-rule="evenodd" clip-rule="evenodd" d="M78.6271 14.8878V17.9811H81.1436V19.0783H78.6271V27.124C78.6271 27.7945 78.7498 28.2973 78.9953 28.6173C79.2409 28.9526 79.6398 29.1049 80.2076 29.1049C80.4377 29.1049 80.7906 29.0745 81.297 28.9983L81.3584 30.0802C81.0055 30.2021 80.5298 30.263 79.916 30.263C78.9953 30.263 78.3202 30.004 77.9059 29.4707C77.4916 28.9373 77.2768 28.1602 77.2768 27.124V19.063H75.0365V17.9659H77.2768V14.8726H78.6271V14.8878Z" fill="white"/>
<path fill-rule="evenodd" clip-rule="evenodd" d="M88.647 30.2782C87.6189 30.2782 86.6829 30.0191 85.8389 29.5163C85.0103 29.0134 84.3505 28.3124 83.8902 27.3982C83.4299 26.4991 83.1997 25.4782 83.1997 24.3505V23.8782C83.1997 22.7201 83.4299 21.6686 83.8749 20.7391C84.3352 19.8096 84.9643 19.0782 85.7622 18.5448C86.5755 18.0115 87.4501 17.7524 88.3861 17.7524C89.8592 17.7524 91.0253 18.2553 91.9 19.261C92.7746 20.2667 93.2042 21.6229 93.2042 23.3601V24.1067H84.5347V24.3658C84.5347 25.7372 84.9336 26.8801 85.7162 27.7791C86.5141 28.6934 87.4961 29.1505 88.693 29.1505C89.4142 29.1505 90.0433 29.0134 90.5957 28.7543C91.1481 28.4953 91.6391 28.0839 92.0994 27.5048L92.9434 28.1448C91.9613 29.562 90.519 30.2782 88.647 30.2782ZM88.4015 18.8953C87.3887 18.8953 86.5448 19.261 85.8389 20.0077C85.1484 20.7391 84.7188 21.7296 84.5807 22.9791H91.8693V22.8267C91.8386 21.6686 91.501 20.7239 90.8719 19.9924C90.2428 19.2458 89.4142 18.8953 88.4015 18.8953Z" fill="white"/>
<path fill-rule="evenodd" clip-rule="evenodd" d="M97.331 30.0496H95.9807V12.9067H97.331V30.0496Z" fill="white"/>
<path fill-rule="evenodd" clip-rule="evenodd" d="M102.488 30.0496H101.137V12.9067H102.488V30.0496Z" fill="white"/>
<path fill-rule="evenodd" clip-rule="evenodd" d="M110.85 30.2782C109.822 30.2782 108.886 30.0191 108.042 29.5163C107.213 29.0134 106.554 28.3124 106.093 27.3982C105.633 26.4991 105.403 25.4782 105.403 24.3505V23.8782C105.403 22.7201 105.633 21.6686 106.078 20.7391C106.538 19.8096 107.167 19.0782 107.965 18.5448C108.779 18.0115 109.653 17.7524 110.589 17.7524C112.062 17.7524 113.228 18.2553 114.103 19.261C114.978 20.2667 115.407 21.6229 115.407 23.3601V24.1067H106.738V24.3658C106.738 25.7372 107.137 26.8801 107.919 27.7791C108.717 28.6934 109.699 29.1505 110.896 29.1505C111.617 29.1505 112.246 29.0134 112.799 28.7543C113.351 28.4953 113.842 28.0839 114.303 27.5048L115.147 28.1448C114.164 29.562 112.737 30.2782 110.85 30.2782ZM110.605 18.8953C109.592 18.8953 108.748 19.261 108.042 20.0077C107.352 20.7391 106.922 21.7296 106.784 22.9791H114.072V22.8267C114.042 21.6686 113.704 20.7239 113.075 19.9924C112.446 19.2458 111.617 18.8953 110.605 18.8953Z" fill="white"/>
<path fill-rule="evenodd" clip-rule="evenodd" d="M122.526 29.1505C123.462 29.1505 124.245 28.8915 124.874 28.3582C125.503 27.8401 125.856 27.1543 125.902 26.3163H127.191C127.16 27.0477 126.915 27.7182 126.501 28.3277C126.086 28.9372 125.503 29.4096 124.797 29.7448C124.092 30.0801 123.324 30.2629 122.526 30.2629C120.931 30.2629 119.672 29.7143 118.736 28.6172C117.8 27.5201 117.34 26.042 117.34 24.1677V23.7715C117.34 22.5829 117.555 21.5315 117.969 20.6172C118.384 19.7029 118.997 19.002 119.78 18.4991C120.562 17.9963 121.483 17.7524 122.526 17.7524C123.861 17.7524 124.966 18.1486 125.826 18.941C126.685 19.7334 127.16 20.7696 127.207 22.0496H125.918C125.856 21.1048 125.519 20.3429 124.89 19.7639C124.26 19.1848 123.478 18.8953 122.526 18.8953C121.314 18.8953 120.363 19.3372 119.703 20.2058C119.028 21.0743 118.69 22.2934 118.69 23.8629V24.2591C118.69 25.7982 119.028 27.002 119.703 27.8705C120.363 28.7086 121.299 29.1505 122.526 29.1505Z" fill="white"/>
<path fill-rule="evenodd" clip-rule="evenodd" d="M131.979 14.8878V17.9811H134.496V19.0783H131.979V27.124C131.979 27.7945 132.102 28.2973 132.348 28.6173C132.593 28.9526 132.992 29.1049 133.56 29.1049C133.79 29.1049 134.143 29.0745 134.649 28.9983L134.711 30.0802C134.358 30.2021 133.882 30.263 133.268 30.263C132.348 30.263 131.673 30.004 131.258 29.4707C130.844 28.9373 130.629 28.1602 130.629 27.124V19.063H128.389V17.9659H130.629V14.8726H131.979V14.8878Z" fill="white"/>
<path fill-rule="evenodd" clip-rule="evenodd" d="M143.365 26.7124C143.365 26.3163 143.165 26.0115 142.782 25.7829C142.383 25.5543 141.754 25.3563 140.894 25.1734C138.01 24.5639 136.552 23.3448 136.552 21.5163C136.552 20.4496 136.997 19.5505 137.902 18.8343C138.792 18.1182 139.974 17.7524 141.416 17.7524C142.966 17.7524 144.193 18.1182 145.114 18.8343C146.035 19.5505 146.495 20.4953 146.495 21.6534H143.242C143.242 21.1963 143.088 20.8153 142.797 20.5105C142.49 20.2058 142.03 20.0534 141.385 20.0534C140.833 20.0534 140.419 20.1753 140.112 20.4191C139.805 20.6629 139.667 20.9829 139.667 21.3639C139.667 21.7143 139.835 22.0039 140.173 22.2324C140.511 22.4458 141.094 22.6439 141.892 22.7963C142.705 22.9639 143.38 23.1315 143.932 23.3448C145.651 23.9696 146.51 25.0515 146.51 26.5905C146.51 27.6877 146.035 28.5867 145.083 29.2572C144.132 29.9429 142.904 30.2782 141.401 30.2782C140.388 30.2782 139.483 30.0953 138.685 29.7296C137.887 29.3639 137.273 28.8763 136.828 28.2515C136.383 27.6267 136.153 26.941 136.153 26.2096H139.237C139.268 26.7886 139.483 27.2153 139.882 27.5201C140.28 27.8248 140.818 27.9772 141.477 27.9772C142.106 27.9772 142.567 27.8553 142.889 27.6267C143.211 27.3982 143.365 27.0934 143.365 26.7124Z" fill="white"/>
<path fill-rule="evenodd" clip-rule="evenodd" d="M148.106 23.8935C148.106 22.6897 148.336 21.623 148.796 20.6935C149.256 19.7487 149.932 19.0325 150.806 18.5144C151.681 17.9964 152.694 17.7373 153.844 17.7373C155.486 17.7373 156.821 18.2402 157.865 19.2306C158.908 20.2211 159.476 21.5773 159.598 23.2992L159.614 24.1221C159.614 25.9811 159.092 27.4592 158.049 28.5868C157.005 29.6992 155.609 30.263 153.86 30.263C152.11 30.263 150.714 29.6992 149.655 28.5868C148.597 27.4744 148.09 25.9506 148.09 24.0306V23.8935H148.106ZM151.359 24.1221C151.359 25.2649 151.573 26.1487 152.003 26.7583C152.433 27.3678 153.062 27.6725 153.875 27.6725C154.658 27.6725 155.271 27.3678 155.716 26.7735C156.161 26.1792 156.376 25.2192 156.376 23.8935C156.376 22.7659 156.161 21.8973 155.716 21.2725C155.271 20.6478 154.658 20.343 153.844 20.343C153.046 20.343 152.433 20.6478 152.003 21.2725C151.573 21.8821 151.359 22.8421 151.359 24.1221Z" fill="white"/>
<path fill-rule="evenodd" clip-rule="evenodd" d="M162.514 30.0497V20.343H160.703V17.9811H162.514V16.9601C162.514 15.6039 162.913 14.5525 163.696 13.8058C164.478 13.0592 165.568 12.6782 166.979 12.6782C167.424 12.6782 167.977 12.7544 168.636 12.9068L168.606 15.3906C168.33 15.3297 168.007 15.2839 167.624 15.2839C166.396 15.2839 165.798 15.863 165.798 17.0058V17.9811H168.207V20.343H165.798V30.0497H162.514Z" fill="white"/>
<path fill-rule="evenodd" clip-rule="evenodd" d="M173.762 15.0099V17.9813H175.834V20.3432H173.762V26.3622C173.762 26.8042 173.854 27.1242 174.023 27.3222C174.192 27.5203 174.529 27.6118 175.005 27.6118C175.358 27.6118 175.68 27.5813 175.956 27.5356V29.9737C175.312 30.1718 174.668 30.2632 173.992 30.2632C171.721 30.2632 170.555 29.1203 170.509 26.8346V20.328H168.729V17.9661H170.509V14.9946H173.762V15.0099Z" fill="white"/>
</g>
<defs>
<clipPath id="clip0_10954_7163">
<rect width="176" height="48" fill="white"/>
</clipPath>
</defs>
</svg>
