<svg width="260" height="70" viewBox="0 0 260 70" fill="none" xmlns="http://www.w3.org/2000/svg">
<g clip-path="url(#clip0_10935_2281)">
<path fill-rule="evenodd" clip-rule="evenodd" d="M7.85442 0.532642L7.589 0.692642L7.59036 0.705975C7.35009 0.952118 7.28384 1.28563 7.21795 1.61733C7.18283 1.79412 7.14781 1.97039 7.08661 2.13264L0.0381704 28.1433C-0.139225 28.61 0.334733 29.0473 0.7789 29.018H25.0307C25.445 29.106 25.9474 28.8726 26.0368 28.4353L27.1919 24.2353C27.544 23.742 26.982 23.0406 26.42 23.1286H11.4078C11.299 23.1211 11.1937 23.0884 11.1003 23.033C11.0069 22.9777 10.9281 22.9014 10.8704 22.8104C10.8127 22.7194 10.7776 22.6162 10.7682 22.5093C10.7587 22.4024 10.7751 22.2948 10.816 22.1953L16.4128 1.72864C16.4931 1.60822 16.5376 1.46809 16.5414 1.32406C16.5452 1.18003 16.508 1.03783 16.4341 0.913484C16.3602 0.789139 16.2525 0.687597 16.1231 0.620307C15.9937 0.553017 15.8478 0.522654 15.7018 0.532642H7.85442ZM36.6852 0.902312C36.4642 1.10947 36.3224 1.38529 36.2838 1.68331L36.2811 1.67131L28.9957 28.5246C29.0554 28.5835 29.1448 28.6788 29.2339 28.774C29.3225 28.8685 29.4109 28.9628 29.4696 29.0206C34.5514 29.0734 39.6438 29.0629 44.7341 29.0523C48.1271 29.0453 51.5191 29.0382 54.9063 29.05C55.3505 29.0793 55.7946 28.8166 55.884 28.3793L57.0987 23.9473C56.9511 23.5406 56.5367 23.1593 56.0628 23.2473H40.3138L39.7518 22.5473C39.8671 22.1254 39.9779 21.6989 40.0891 21.2704C40.3775 20.1593 40.6695 19.0347 41.0545 17.9406C41.1906 17.8405 41.3288 17.7432 41.4689 17.6486C44.5788 17.6046 47.707 17.6101 50.8255 17.6156C51.8635 17.6175 52.9005 17.6193 53.9354 17.6193C54.3782 17.6793 54.9699 17.4753 55.0593 16.9793L56.2442 12.6353C56.186 11.994 55.5333 11.674 54.9713 11.79H43.6599C43.2727 11.7606 42.7703 11.294 42.8881 10.8566L43.8942 7.03664C44.012 6.59664 44.486 6.33531 44.9302 6.42331H57.8083L58.0751 6.28998C58.9052 4.88998 59.8355 3.51931 60.9188 2.29531C61.4388 1.71264 61.2736 0.545975 60.3555 0.545975H37.4971C37.1929 0.569311 36.9062 0.695154 36.6852 0.902312ZM100.403 0.773831C100.202 0.928402 100.064 1.14748 100.011 1.39264L100.01 1.38064L96.7528 13.3353C97.5788 18.6726 95.8631 24.242 92.4871 28.4686C92.6335 28.6169 92.7719 28.7727 92.9015 28.9353C94.536 28.9705 96.1808 28.974 97.8235 28.9775C98.9191 28.9799 100.014 28.9822 101.104 28.994L101.458 28.8606L105.368 14.3993L105.693 14.106L113.749 27.9393C113.777 27.9877 113.805 28.039 113.835 28.0918C114.053 28.485 114.318 28.9628 114.815 28.9886C115.476 28.9886 116.137 28.9854 116.798 28.9821C118.121 28.9756 119.444 28.9691 120.766 28.9886C121.359 29.0753 121.92 28.638 122.009 28.0553L129.295 1.02864C129.249 0.967069 129.17 0.881629 129.092 0.797563C129.022 0.721435 128.953 0.646435 128.91 0.591309L120.677 0.532642L116.417 15.8553L116.119 16.0286L107.976 0.925975L107.502 0.576642L101.106 0.547309C100.852 0.539064 100.603 0.61926 100.403 0.773831Z" fill="white"/>
<path d="M62.1939 8.97396C64.4581 4.22196 69.3304 0.693958 74.6306 0.140625L70.6033 7.34063C67.8489 7.95396 65.0065 8.47796 62.2074 8.97396H62.1939ZM79.5164 0.168625C84.5498 0.968625 89.1987 4.24862 91.3017 8.82862L83.5153 7.42863C82.1218 5.06729 80.8787 2.58729 79.5164 0.168625ZM72.231 10.054C75.1628 9.88062 78.1826 10.054 81.1441 9.96596L81.3202 10.0993L84.0745 18.2926C81.7941 20.186 79.1887 21.8206 76.7891 23.6286L69.5037 18.2926L72.231 10.0393V10.054ZM60.8018 13.4353L66.576 19.4126L65.6281 27.5766C61.7484 24.0486 59.8241 18.5353 60.8018 13.4353ZM87.5114 19.414L92.901 13.67C93.7135 18.51 92.0127 23.758 88.3997 27.17C88.2643 24.5753 87.7768 22.01 87.5114 19.414ZM69.5064 30.2873L76.9096 26.7593L84.2533 30.17C79.7818 32.59 74.0374 32.59 69.4929 30.286L69.5064 30.2873Z" fill="white"/>
</g>
<defs>
<clipPath id="clip0_10935_2281">
<rect width="130" height="32" fill="white"/>
</clipPath>
</defs>
</svg>
