<svg width="260" height="70" viewBox="0 0 260 70" fill="none" xmlns="http://www.w3.org/2000/svg">
<g clip-path="url(#clip0_9805_14120)">
<mask id="mask0_9805_14120" style="mask-type:luminance" maskUnits="userSpaceOnUse" x="0" y="0" width="157" height="45">
<path d="M157 0H0V45H157V0Z" fill="white"/>
</mask>
<g mask="url(#mask0_9805_14120)">
<path d="M37.1768 37.7051C31.401 43.563 22.0366 43.563 16.2608 37.7051C10.485 31.8472 10.485 22.3498 16.2608 16.4919C22.0366 10.634 31.401 10.634 37.1768 16.4919C42.9527 22.3498 42.9527 31.8472 37.1768 37.7051Z" stroke="white" stroke-width="4"/>
<path d="M27.5233 27.9144C21.7475 33.7722 12.383 33.7722 6.60724 27.9144C0.831442 22.0565 0.831442 12.559 6.60724 6.70114C12.383 0.843274 21.7475 0.843274 27.5233 6.70114C33.299 12.559 33.299 22.0565 27.5233 27.9144Z" stroke="white" stroke-width="4"/>
<path d="M27.5232 27.9143C23.4908 32.004 17.7059 33.2414 12.6116 31.6152C11.0083 26.4484 12.2283 20.5815 16.2607 16.4918C20.293 12.4022 26.0779 11.1647 31.1723 12.7908C32.7756 17.9576 31.5555 23.8246 27.5232 27.9143Z" stroke="white" stroke-width="4"/>
<path d="M95.0981 23.7785C95.2613 24.8264 95.3157 25.9986 95.2613 27.2948C95.2341 27.6258 95.0573 27.7912 94.731 27.7912H82.127C81.9638 27.7912 81.9094 27.8602 81.9638 27.9981C82.0454 28.5496 82.195 29.1013 82.4125 29.6528C83.1196 31.1974 84.5608 31.9695 86.7363 31.9695C88.4766 31.9419 89.8499 31.225 90.8559 29.8183C90.9648 29.6528 91.0871 29.5701 91.2231 29.5701C91.3046 29.5701 91.3999 29.6253 91.5086 29.7356L94.4454 32.6728C94.5815 32.8107 94.6494 32.9348 94.6494 33.0451C94.6494 33.1003 94.595 33.2106 94.4863 33.3761C93.5889 34.5068 92.4332 35.3894 91.0192 36.0237C89.6051 36.6305 88.0551 36.9338 86.3692 36.9338C84.0305 36.9338 82.0454 36.396 80.4138 35.3204C78.8095 34.2448 77.6537 32.7418 76.9468 30.8112C76.3757 29.4322 76.0901 27.6258 76.0901 25.3918C76.0901 23.875 76.2941 22.5374 76.7019 21.3791C77.3274 19.4209 78.4152 17.8626 79.9652 16.7043C81.5423 15.5459 83.405 14.9668 85.5533 14.9668C88.2726 14.9668 90.4481 15.7666 92.0796 17.3662C93.7385 18.9658 94.7447 21.1032 95.0981 23.7785ZM85.5942 20.0138C83.8809 20.0138 82.7525 20.8274 82.2085 22.4546C82.0998 22.8132 82.0047 23.2544 81.9231 23.7785C81.9231 23.9164 81.991 23.9853 82.127 23.9853H89.1837C89.3468 23.9853 89.4012 23.9164 89.3468 23.7785C89.2109 22.9786 89.1428 22.5926 89.1428 22.6201C88.8981 21.7927 88.4631 21.1583 87.8376 20.7171C87.2394 20.2483 86.4915 20.0138 85.5942 20.0138Z" fill="white"/>
<path d="M115.734 20.7586C116.25 22.1928 116.509 23.9026 116.509 25.8884C116.509 27.7913 116.278 29.4599 115.815 30.894C115.19 32.7695 114.183 34.2449 112.797 35.3205C111.437 36.3961 109.819 36.9339 107.943 36.9339C105.958 36.9339 104.394 36.1755 103.252 34.6587C103.198 34.6035 103.143 34.5897 103.089 34.6173C103.035 34.6173 103.007 34.6587 103.007 34.7414V36.1065C103.007 36.2445 102.953 36.3686 102.844 36.4789C102.763 36.5616 102.654 36.603 102.518 36.603H97.7455C97.6096 36.603 97.4873 36.5616 97.3784 36.4789C97.2968 36.3686 97.2561 36.2445 97.2561 36.1065V8.14097C97.2561 8.00308 97.2968 7.89276 97.3784 7.81002C97.4873 7.6997 97.6096 7.64453 97.7455 7.64453H102.518C102.654 7.64453 102.763 7.6997 102.844 7.81002C102.953 7.89276 103.007 8.00308 103.007 8.14097V16.994C103.007 17.0767 103.035 17.1319 103.089 17.1594C103.143 17.187 103.198 17.1594 103.252 17.0767C104.313 15.6978 105.822 15.0082 107.78 15.0082C109.765 15.0082 111.424 15.5323 112.756 16.5803C114.115 17.6008 115.108 18.9935 115.734 20.7586ZM109.697 30.1494C110.268 29.1014 110.554 27.7224 110.554 26.0124C110.554 24.1095 110.227 22.6478 109.575 21.6274C108.922 20.5518 107.957 20.0139 106.678 20.0139C105.482 20.0139 104.571 20.5518 103.946 21.6274C103.347 22.6754 103.048 24.1233 103.048 25.9711C103.048 27.8189 103.32 29.2117 103.864 30.1494C104.517 31.3354 105.468 31.9283 106.719 31.9283C108.052 31.9283 109.044 31.3354 109.697 30.1494Z" fill="white"/>
<path d="M130.883 15.8355C130.883 15.6976 130.924 15.5873 131.005 15.5046C131.114 15.3943 131.237 15.3391 131.373 15.3391H136.145C136.281 15.3391 136.39 15.3943 136.472 15.5046C136.58 15.5873 136.634 15.6976 136.634 15.8355V36.1064C136.634 36.2444 136.58 36.3684 136.472 36.4787C136.39 36.5615 136.281 36.6029 136.145 36.6029H131.373C131.237 36.6029 131.114 36.5615 131.005 36.4787C130.924 36.3684 130.883 36.2444 130.883 36.1064V34.6998C130.883 34.6171 130.856 34.5758 130.801 34.5758C130.747 34.5482 130.692 34.5758 130.639 34.6585C129.551 36.1478 127.865 36.8925 125.581 36.8925C123.513 36.8925 121.814 36.2581 120.482 34.9895C119.149 33.7208 118.483 31.9419 118.483 29.6528V15.8355C118.483 15.6976 118.524 15.5873 118.606 15.5046C118.715 15.3943 118.836 15.3391 118.973 15.3391H123.705C123.84 15.3391 123.949 15.3943 124.03 15.5046C124.139 15.5873 124.194 15.6976 124.194 15.8355V28.205C124.194 29.308 124.479 30.2045 125.051 30.8939C125.649 31.5834 126.465 31.9282 127.498 31.9282C128.423 31.9282 129.184 31.6523 129.782 31.1008C130.381 30.5215 130.747 29.777 130.883 28.8668V15.8355Z" fill="white"/>
<path d="M147.604 36.8927C145.781 36.8927 144.191 36.6306 142.831 36.1066C141.472 35.5826 140.411 34.8518 139.649 33.914C138.915 32.9763 138.548 31.9145 138.548 30.7286V30.315C138.548 30.1771 138.589 30.0668 138.671 29.984C138.78 29.8736 138.902 29.8185 139.038 29.8185H143.565C143.702 29.8185 143.811 29.8736 143.892 29.984C144.001 30.0668 144.055 30.1771 144.055 30.315V30.3563C144.055 30.9631 144.381 31.487 145.034 31.9284C145.714 32.342 146.557 32.5489 147.563 32.5489C148.488 32.5489 149.235 32.3696 149.806 32.0111C150.377 31.6249 150.663 31.1561 150.663 30.6046C150.663 30.1081 150.418 29.7357 149.929 29.4875C149.439 29.2393 148.637 28.9773 147.522 28.7015C146.244 28.3706 145.237 28.0534 144.504 27.7501C142.763 27.1433 141.376 26.3987 140.343 25.5161C139.31 24.6335 138.794 23.3649 138.794 21.7101C138.794 19.6692 139.568 18.0558 141.118 16.8699C142.696 15.6564 144.776 15.0497 147.359 15.0497C149.1 15.0497 150.622 15.3393 151.927 15.9184C153.233 16.4701 154.239 17.2561 154.945 18.2765C155.68 19.2969 156.048 20.4552 156.048 21.7515C156.048 21.8893 155.993 22.0135 155.884 22.1238C155.802 22.2065 155.694 22.248 155.557 22.248H151.193C151.057 22.248 150.935 22.2065 150.826 22.1238C150.745 22.0135 150.704 21.8893 150.704 21.7515C150.704 21.1448 150.391 20.6345 149.765 20.2209C149.167 19.8071 148.365 19.6003 147.359 19.6003C146.462 19.6003 145.728 19.7658 145.157 20.0967C144.586 20.4276 144.3 20.8827 144.3 21.462C144.3 22.0135 144.572 22.4271 145.116 22.703C145.687 22.9788 146.624 23.2684 147.93 23.5718C148.23 23.6545 148.569 23.751 148.95 23.8614C149.331 23.9441 149.738 24.0544 150.174 24.1923C152.104 24.7714 153.627 25.5161 154.742 26.4263C155.857 27.3363 156.414 28.6601 156.414 30.3977C156.414 32.4386 155.612 34.0382 154.008 35.1965C152.431 36.3273 150.296 36.8927 147.604 36.8927Z" fill="white"/>
<path d="M66.9688 7.47217H54.3629C54.1752 7.47217 54.0232 7.62652 54.0232 7.81691V12.2986C54.0232 12.4889 54.1752 12.6433 54.3629 12.6433H66.9688C69.1117 12.6433 70.8488 14.4052 70.8488 16.5786C70.8488 18.752 69.1117 20.5139 66.9688 20.5139H54.7181C54.4151 20.5139 54.2636 20.8856 54.478 21.1027L69.4908 36.3005C69.6821 36.4942 69.9414 36.6029 70.2117 36.6028L76.1823 36.6001C76.4852 36.5998 76.6367 36.2283 76.4223 36.0112L66.7505 26.2201C66.5557 26.0229 66.6934 25.6851 66.9688 25.6851C71.9274 25.6851 75.9476 21.608 75.9476 16.5786C75.9476 11.5492 71.9274 7.47217 66.9688 7.47217Z" fill="white"/>
</g>
</g>
<defs>
<clipPath id="clip0_9805_14120">
<rect width="157" height="45" fill="white"/>
</clipPath>
</defs>
</svg>
