<svg width="260" height="70" viewBox="0 0 260 70" fill="none" xmlns="http://www.w3.org/2000/svg">
<g clip-path="url(#clip0_9814_15031)">
<path d="M53.6604 14.5C57.3832 13.2308 58.06 10.0385 58.06 7.42308C58.0224 3.46154 55.2774 0 47.155 0H31.9631V29.9231H47.1174C55.315 29.9231 58.3232 25.6154 58.3232 21.3077C58.3232 16.1154 53.6604 14.5 53.6604 14.5ZM39.183 6.5H49.4112H49.4488C50.6145 6.69231 51.4418 7.73077 51.4418 8.88461C51.4418 10.0769 50.5393 11.2308 49.336 11.3846H39.183V6.5ZM48.8847 22.9615H39.1454V17.9615H49.1104H49.148C50.3889 18.1154 51.329 19.1538 51.329 20.4231C51.329 21.7692 50.2385 22.9231 48.8847 22.9615Z" fill="white"/>
<path d="M92.3167 0H118V6.53846H99.4613V11.3462H116.157V17.9231H99.4613V23.1538H118V30H92.3167" fill="white"/>
<path d="M77.3882 0.0384521H61.8579V30H69.0026V17.8846H76.8617C79.118 17.9231 80.8477 19.8077 80.8477 22.1154V29.9615H87.842V20.3077C87.842 15.8461 83.6304 14.5 83.6304 14.5C83.6304 14.5 87.9548 13.1923 87.9548 7.88461C87.9172 1.38461 82.4647 0.0384521 77.3882 0.0384521ZM81.2614 9.34614C81.1485 10.3461 80.1709 11.3846 78.9675 11.3846H68.965V6.61538H79.0051C80.2085 6.61538 81.1485 7.49999 81.299 8.6923" fill="white"/>
<path d="M27.3378 22.7692C27.225 22.7692 17.5985 22.9615 14.2518 22.6154C8.91205 22.0769 6.99426 18 6.99426 14.6923C6.99426 10.5385 9.73932 7.5 14.0261 6.96154C16.0567 6.69231 27.1498 6.80769 27.2626 6.80769H27.4882L27.5258 0H27.3002L14.7406 0.0384615C13.3493 0.115385 11.0178 0.269231 8.64882 1.26923C6.355 2.30769 4.36201 3.96154 2.89547 6C1.0153 8.61539 0 11.6923 0 14.9231C0 15.9615 0.0752071 16.9615 0.225621 17.9231C1.12811 22.4615 4.06119 26.2308 8.23518 28.2692C9.62651 28.8846 11.8075 29.6539 16.2071 29.9231L18.5762 29.9615H27.3378H27.5634L27.601 22.7692" fill="white"/>
</g>
<defs>
<clipPath id="clip0_9814_15031">
<rect width="118" height="30" fill="white"/>
</clipPath>
</defs>
</svg>
