<svg width="260" height="70" viewBox="0 0 260 70" fill="none" xmlns="http://www.w3.org/2000/svg">
<path d="M1.128 19C0.92 19 0.816 18.896 0.816 18.688L1.056 3.592C1.056 3.384 1.16 3.28 1.368 3.28H5.016C5.192 3.28 5.312 3.36 5.376 3.52L8.088 10.984L10.776 3.52C10.84 3.36 10.952 3.28 11.112 3.28H14.76C14.952 3.28 15.048 3.384 15.048 3.592L15.312 18.688C15.312 18.896 15.208 19 15 19H11.928C11.736 19 11.64 18.896 11.64 18.688L11.544 13.504C11.528 12.624 11.536 11.824 11.568 11.104C11.616 10.384 11.672 9.712 11.736 9.088H11.664C11.488 9.648 11.288 10.224 11.064 10.816C10.84 11.408 10.608 11.984 10.368 12.544L8.424 17.152C8.36 17.296 8.264 17.368 8.136 17.368H7.992C7.864 17.368 7.768 17.296 7.704 17.152L5.76 12.52C5.52 11.976 5.288 11.408 5.064 10.816C4.856 10.224 4.656 9.648 4.464 9.088H4.416C4.464 9.696 4.504 10.368 4.536 11.104C4.584 11.824 4.6 12.624 4.584 13.504L4.512 18.688C4.512 18.896 4.408 19 4.2 19H1.128ZM22.989 19C22.813 19 22.701 18.904 22.653 18.712C22.621 18.504 22.581 18.216 22.533 17.848C22.501 17.464 22.469 17.104 22.437 16.768L22.101 16.072V10.624C22.101 10.192 22.037 9.904 21.909 9.76C21.781 9.6 21.549 9.52 21.213 9.52C20.557 9.52 20.269 9.912 20.349 10.696C20.381 10.904 20.277 11.008 20.037 11.008H17.373C17.197 11.008 17.093 10.888 17.061 10.648C16.965 9.4 17.285 8.456 18.021 7.816C18.757 7.16 19.869 6.832 21.357 6.832C22.877 6.832 23.981 7.144 24.669 7.768C25.373 8.392 25.725 9.384 25.725 10.744V15.88C25.725 16.536 25.733 17.08 25.749 17.512C25.765 17.928 25.789 18.312 25.821 18.664C25.853 18.888 25.757 19 25.533 19H22.989ZM19.221 19.192C18.405 19.192 17.765 18.904 17.301 18.328C16.837 17.752 16.605 16.944 16.605 15.904C16.605 14.736 16.901 13.848 17.493 13.24C18.101 12.632 19.141 12.248 20.613 12.088L22.365 11.872L22.341 13.792L21.357 13.888C20.877 13.968 20.533 14.12 20.325 14.344C20.133 14.568 20.037 14.912 20.037 15.376C20.037 15.76 20.093 16.048 20.205 16.24C20.333 16.432 20.525 16.528 20.781 16.528C21.053 16.528 21.325 16.424 21.597 16.216C21.885 16.008 22.197 15.672 22.533 15.208L22.821 17.08C22.229 17.768 21.661 18.296 21.117 18.664C20.573 19.016 19.941 19.192 19.221 19.192ZM28.2587 23.536C28.1307 23.632 28.0107 23.608 27.8987 23.464L26.1467 21.448C25.9867 21.272 25.9867 21.12 26.1467 20.992C26.4507 20.72 26.6907 20.4 26.8667 20.032C27.0587 19.68 27.1947 19.256 27.2747 18.76C27.3707 18.264 27.4187 17.664 27.4187 16.96V7.36C27.4187 7.152 27.5147 7.048 27.7067 7.048H30.7307C30.9387 7.048 31.0427 7.152 31.0427 7.36V16.936C31.0427 18.056 30.9547 19.016 30.7787 19.816C30.6187 20.616 30.3387 21.312 29.9387 21.904C29.5387 22.496 28.9787 23.04 28.2587 23.536ZM29.2907 5.704C28.6667 5.704 28.1707 5.552 27.8027 5.248C27.4507 4.928 27.2747 4.496 27.2747 3.952V3.472C27.2747 2.912 27.4507 2.48 27.8027 2.176C28.1707 1.856 28.6667 1.696 29.2907 1.696C29.9467 1.696 30.4427 1.856 30.7787 2.176C31.1307 2.48 31.3067 2.912 31.3067 3.472V3.952C31.3067 4.496 31.1307 4.928 30.7787 5.248C30.4427 5.552 29.9467 5.704 29.2907 5.704ZM37.3944 19.192C35.8904 19.192 34.7144 18.808 33.8664 18.04C33.0184 17.256 32.5944 16.12 32.5944 14.632V11.392C32.5944 9.92 33.0184 8.792 33.8664 8.008C34.7144 7.224 35.8904 6.832 37.3944 6.832C38.8984 6.832 40.0744 7.224 40.9224 8.008C41.7704 8.792 42.1944 9.92 42.1944 11.392V14.632C42.1944 16.12 41.7704 17.256 40.9224 18.04C40.0904 18.808 38.9144 19.192 37.3944 19.192ZM37.3944 16.096C37.8104 16.096 38.1064 15.976 38.2824 15.736C38.4744 15.48 38.5704 15.072 38.5704 14.512V11.536C38.5704 10.96 38.4744 10.552 38.2824 10.312C38.1064 10.072 37.8104 9.952 37.3944 9.952C36.9944 9.952 36.6984 10.072 36.5064 10.312C36.3144 10.552 36.2184 10.96 36.2184 11.536V14.512C36.2184 15.072 36.3144 15.48 36.5064 15.736C36.6984 15.976 36.9944 16.096 37.3944 16.096ZM44.0432 19C43.8352 19 43.7312 18.896 43.7312 18.688V10.168C43.7312 9.64 43.7232 9.144 43.7072 8.68C43.6912 8.216 43.6672 7.792 43.6352 7.408C43.6192 7.168 43.7152 7.048 43.9232 7.048H46.5152C46.6752 7.048 46.7712 7.136 46.8032 7.312C46.8512 7.568 46.8912 7.88 46.9232 8.248C46.9552 8.616 46.9792 8.96 46.9952 9.28L47.3552 10.384V18.688C47.3552 18.896 47.2512 19 47.0432 19H44.0432ZM47.0912 11.848L46.8272 8.848C47.0832 8.496 47.3712 8.176 47.6912 7.888C48.0112 7.584 48.3472 7.336 48.6992 7.144C49.0512 6.936 49.4032 6.832 49.7552 6.832C49.8672 6.832 49.9712 6.84 50.0672 6.856C50.1632 6.872 50.2512 6.896 50.3312 6.928C50.4272 6.96 50.4832 7.008 50.4992 7.072C50.5312 7.136 50.5472 7.216 50.5472 7.312C50.5472 7.728 50.5392 8.2 50.5232 8.728C50.5232 9.256 50.4992 9.752 50.4512 10.216C50.4352 10.424 50.3392 10.52 50.1632 10.504C50.0672 10.488 49.9632 10.472 49.8512 10.456C49.7392 10.44 49.6192 10.432 49.4912 10.432C49.2352 10.432 48.9632 10.488 48.6752 10.6C48.4032 10.712 48.1312 10.872 47.8592 11.08C47.5872 11.288 47.3312 11.544 47.0912 11.848ZM60.2036 19.192C58.7316 19.192 57.5476 18.72 56.6516 17.776C55.7716 16.832 55.3316 15.408 55.3316 13.504V9.016C55.3316 7.064 55.8276 5.592 56.8196 4.6C57.8116 3.592 59.2276 3.088 61.0676 3.088C62.3636 3.088 63.4356 3.312 64.2836 3.76C65.1316 4.208 65.7556 4.832 66.1556 5.632C66.5716 6.416 66.7316 7.336 66.6356 8.392C66.6196 8.6 66.5236 8.704 66.3476 8.704H63.1796C63.0036 8.704 62.9156 8.584 62.9156 8.344C62.9476 7.736 62.8196 7.264 62.5316 6.928C62.2596 6.576 61.7876 6.4 61.1156 6.4C60.4276 6.4 59.9156 6.608 59.5796 7.024C59.2436 7.44 59.0756 8.12 59.0756 9.064V13.24C59.0756 14.184 59.2356 14.864 59.5556 15.28C59.8756 15.68 60.3876 15.88 61.0916 15.88C61.7316 15.88 62.2116 15.704 62.5316 15.352C62.8676 15 63.0356 14.488 63.0356 13.816V13.144H61.2116C61.0196 13.144 60.9236 13.032 60.9236 12.808V10.888C60.9236 10.68 61.0196 10.576 61.2116 10.576H66.3956C66.5716 10.576 66.6596 10.68 66.6596 10.888V14.992C66.6596 15.744 66.6756 16.432 66.7076 17.056C66.7396 17.68 66.7876 18.216 66.8516 18.664C66.8996 18.888 66.8036 19 66.5636 19H64.0916C63.9316 19 63.8356 18.904 63.8036 18.712C63.7556 18.536 63.7156 18.32 63.6836 18.064C63.6676 17.792 63.6516 17.512 63.6356 17.224H63.5876C63.3796 17.608 63.1236 17.952 62.8196 18.256C62.5316 18.544 62.1716 18.776 61.7396 18.952C61.3236 19.112 60.8116 19.192 60.2036 19.192ZM68.9104 19C68.7024 19 68.5984 18.896 68.5984 18.688V2.92C68.5984 2.712 68.7024 2.608 68.9104 2.608H71.9104C72.1184 2.608 72.2224 2.712 72.2224 2.92V18.688C72.2224 18.896 72.1184 19 71.9104 19H68.9104ZM78.5507 19.192C77.0467 19.192 75.8707 18.808 75.0227 18.04C74.1747 17.256 73.7507 16.12 73.7507 14.632V11.392C73.7507 9.92 74.1747 8.792 75.0227 8.008C75.8707 7.224 77.0467 6.832 78.5507 6.832C80.0547 6.832 81.2307 7.224 82.0787 8.008C82.9267 8.792 83.3507 9.92 83.3507 11.392V14.632C83.3507 16.12 82.9267 17.256 82.0787 18.04C81.2467 18.808 80.0707 19.192 78.5507 19.192ZM78.5507 16.096C78.9667 16.096 79.2627 15.976 79.4387 15.736C79.6307 15.48 79.7267 15.072 79.7267 14.512V11.536C79.7267 10.96 79.6307 10.552 79.4387 10.312C79.2627 10.072 78.9667 9.952 78.5507 9.952C78.1507 9.952 77.8547 10.072 77.6627 10.312C77.4707 10.552 77.3747 10.96 77.3747 11.536V14.512C77.3747 15.072 77.4707 15.48 77.6627 15.736C77.8547 15.976 78.1507 16.096 78.5507 16.096ZM89.8069 19.192C88.8629 19.192 88.0069 19.128 87.2389 19C86.4869 18.856 85.7109 18.752 84.9109 18.688V2.92C84.9109 2.712 85.0149 2.608 85.2229 2.608H88.2229C88.4309 2.608 88.5349 2.712 88.5349 2.92V16.144C88.6789 16.176 88.8309 16.208 88.9909 16.24C89.1509 16.256 89.3189 16.264 89.4949 16.264C89.8629 16.264 90.1349 16.152 90.3109 15.928C90.4869 15.688 90.5749 15.336 90.5749 14.872V10.984C90.5749 10.632 90.5109 10.376 90.3829 10.216C90.2709 10.056 90.0789 9.976 89.8069 9.976C89.5509 9.976 89.2869 10.048 89.0149 10.192C88.7589 10.336 88.4949 10.528 88.2229 10.768L88.1509 8.416C88.7909 7.856 89.3749 7.456 89.9029 7.216C90.4309 6.96 90.9589 6.832 91.4869 6.832C92.4309 6.832 93.1189 7.104 93.5509 7.648C93.9829 8.192 94.1989 9.048 94.1989 10.216V15.016C94.1989 16.44 93.8389 17.496 93.1189 18.184C92.4149 18.856 91.3109 19.192 89.8069 19.192ZM101.833 19C101.657 19 101.545 18.904 101.497 18.712C101.465 18.504 101.425 18.216 101.377 17.848C101.345 17.464 101.313 17.104 101.281 16.768L100.945 16.072V10.624C100.945 10.192 100.881 9.904 100.753 9.76C100.625 9.6 100.393 9.52 100.057 9.52C99.4008 9.52 99.1128 9.912 99.1928 10.696C99.2248 10.904 99.1208 11.008 98.8808 11.008H96.2168C96.0408 11.008 95.9368 10.888 95.9048 10.648C95.8088 9.4 96.1288 8.456 96.8648 7.816C97.6008 7.16 98.7128 6.832 100.201 6.832C101.721 6.832 102.825 7.144 103.513 7.768C104.217 8.392 104.569 9.384 104.569 10.744V15.88C104.569 16.536 104.577 17.08 104.593 17.512C104.609 17.928 104.633 18.312 104.665 18.664C104.697 18.888 104.601 19 104.377 19H101.833ZM98.0648 19.192C97.2488 19.192 96.6088 18.904 96.1448 18.328C95.6808 17.752 95.4488 16.944 95.4488 15.904C95.4488 14.736 95.7448 13.848 96.3368 13.24C96.9448 12.632 97.9848 12.248 99.4568 12.088L101.209 11.872L101.185 13.792L100.201 13.888C99.7208 13.968 99.3768 14.12 99.1688 14.344C98.9768 14.568 98.8808 14.912 98.8808 15.376C98.8808 15.76 98.9368 16.048 99.0488 16.24C99.1768 16.432 99.3688 16.528 99.6248 16.528C99.8968 16.528 100.169 16.424 100.441 16.216C100.729 16.008 101.041 15.672 101.377 15.208L101.665 17.08C101.073 17.768 100.505 18.296 99.9608 18.664C99.4168 19.016 98.7848 19.192 98.0648 19.192ZM106.574 19C106.366 19 106.262 18.896 106.262 18.688V2.92C106.262 2.712 106.366 2.608 106.574 2.608H109.574C109.782 2.608 109.886 2.712 109.886 2.92V18.688C109.886 18.896 109.782 19 109.574 19H106.574ZM115.767 19C115.543 19 115.431 18.896 115.431 18.688V3.592C115.431 3.384 115.535 3.28 115.743 3.28H120.255C121.967 3.28 123.247 3.608 124.095 4.264C124.959 4.92 125.391 5.896 125.391 7.192C125.391 8.072 125.215 8.792 124.863 9.352C124.511 9.896 123.951 10.328 123.183 10.648V10.744C124.095 10.968 124.783 11.384 125.247 11.992C125.727 12.6 125.967 13.392 125.967 14.368C125.967 15.984 125.511 17.16 124.599 17.896C123.703 18.632 122.263 19 120.279 19H115.767ZM119.175 15.976H120.375C121.015 15.976 121.487 15.824 121.791 15.52C122.111 15.216 122.271 14.76 122.271 14.152C122.271 13.576 122.111 13.136 121.791 12.832C121.471 12.528 120.983 12.376 120.327 12.376H119.175V15.976ZM119.175 9.664H120.159C120.687 9.664 121.079 9.52 121.335 9.232C121.607 8.928 121.743 8.488 121.743 7.912C121.743 7.368 121.607 6.968 121.335 6.712C121.063 6.44 120.639 6.304 120.063 6.304H119.175V9.664ZM133.591 19C133.415 19 133.303 18.904 133.255 18.712C133.223 18.504 133.183 18.216 133.135 17.848C133.103 17.464 133.071 17.104 133.039 16.768L132.703 16.072V10.624C132.703 10.192 132.639 9.904 132.511 9.76C132.383 9.6 132.151 9.52 131.815 9.52C131.159 9.52 130.871 9.912 130.951 10.696C130.983 10.904 130.879 11.008 130.639 11.008H127.975C127.799 11.008 127.695 10.888 127.663 10.648C127.567 9.4 127.887 8.456 128.623 7.816C129.359 7.16 130.471 6.832 131.959 6.832C133.479 6.832 134.583 7.144 135.271 7.768C135.975 8.392 136.327 9.384 136.327 10.744V15.88C136.327 16.536 136.335 17.08 136.351 17.512C136.367 17.928 136.391 18.312 136.423 18.664C136.455 18.888 136.359 19 136.135 19H133.591ZM129.823 19.192C129.007 19.192 128.367 18.904 127.903 18.328C127.439 17.752 127.207 16.944 127.207 15.904C127.207 14.736 127.503 13.848 128.095 13.24C128.703 12.632 129.743 12.248 131.215 12.088L132.967 11.872L132.943 13.792L131.959 13.888C131.479 13.968 131.135 14.12 130.927 14.344C130.735 14.568 130.639 14.912 130.639 15.376C130.639 15.76 130.695 16.048 130.807 16.24C130.935 16.432 131.127 16.528 131.383 16.528C131.655 16.528 131.927 16.424 132.199 16.216C132.487 16.008 132.799 15.672 133.135 15.208L133.423 17.08C132.831 17.768 132.263 18.296 131.719 18.664C131.175 19.016 130.543 19.192 129.823 19.192ZM144.116 19C143.908 19 143.804 18.896 143.804 18.688V11.008C143.804 10.64 143.74 10.376 143.612 10.216C143.484 10.056 143.268 9.976 142.964 9.976C142.708 9.976 142.452 10.056 142.196 10.216C141.94 10.376 141.684 10.584 141.428 10.84L140.972 9.04C141.42 8.448 141.956 7.936 142.58 7.504C143.204 7.056 143.924 6.832 144.74 6.832C145.652 6.832 146.324 7.112 146.756 7.672C147.204 8.216 147.428 9.096 147.428 10.312V18.688C147.428 18.896 147.324 19 147.116 19H144.116ZM138.332 19C138.124 19 138.02 18.896 138.02 18.688V10.168C138.02 9.64 138.012 9.144 137.996 8.68C137.98 8.2 137.956 7.776 137.924 7.408C137.908 7.168 138.004 7.048 138.212 7.048H140.804C140.964 7.048 141.06 7.144 141.092 7.336C141.124 7.56 141.156 7.872 141.188 8.272C141.236 8.656 141.268 9 141.284 9.304L141.644 10.336V18.688C141.644 18.896 141.54 19 141.332 19H138.332ZM149.442 19C149.234 19 149.13 18.896 149.13 18.688V2.92C149.13 2.712 149.234 2.608 149.442 2.608H152.442C152.65 2.608 152.754 2.712 152.754 2.92V7.984C152.754 8.528 152.738 9.136 152.706 9.808C152.69 10.464 152.658 11.072 152.61 11.632H152.682C152.874 11.232 153.058 10.832 153.234 10.432C153.426 10.032 153.626 9.64 153.834 9.256L155.082 7.24C155.146 7.112 155.258 7.048 155.418 7.048H158.85C158.978 7.048 159.05 7.088 159.066 7.168C159.098 7.232 159.082 7.312 159.018 7.408L155.898 12.304L159.234 18.592C159.314 18.704 159.33 18.8 159.282 18.88C159.25 18.96 159.178 19 159.066 19H155.586C155.41 19 155.282 18.936 155.202 18.808L153.378 14.992L152.754 15.856V18.688C152.754 18.896 152.658 19 152.466 19H149.442Z" fill="white"/>
</svg>
