<?xml version="1.0" encoding="UTF-8"?>
<svg version="1.1" xmlns="http://www.w3.org/2000/svg" width="1306" height="173">
<path d="M0 0 C9.24 0 18.48 0 28 0 C32.5 9 32.5 9 34.29003906 13.40625 C34.69015198 14.3866626 35.09026489 15.3670752 35.50250244 16.37719727 C36.12774811 17.92298462 36.12774811 17.92298462 36.765625 19.5 C37.42301666 21.11442993 37.42301666 21.11442993 38.09368896 22.76147461 C39.48210752 26.17311297 40.86611751 29.58651949 42.25 33 C43.19502106 35.32433726 44.14033057 37.64855727 45.0859375 39.97265625 C47.39396429 45.64708505 49.69838172 51.32296903 52 57 C53.95883866 52.33354527 55.91707747 47.66683916 57.875 43 C58.16701294 42.30403717 58.45902588 41.60807434 58.7598877 40.89102173 C63.19703551 30.31466251 67.61923895 19.73225955 72.01513672 9.13867188 C72.39686035 8.22021484 72.77858398 7.30175781 73.171875 6.35546875 C73.6683252 5.15893677 73.6683252 5.15893677 74.17480469 3.93823242 C74.74157752 2.60698699 75.35293805 1.2941239 76 0 C79.96930989 -0.02465881 83.93859034 -0.04284023 87.90795898 -0.05493164 C89.25920386 -0.05997057 90.61044326 -0.06680177 91.96166992 -0.07543945 C93.90020434 -0.08752419 95.838778 -0.09269828 97.77734375 -0.09765625 C99.52905884 -0.10551147 99.52905884 -0.10551147 101.31616211 -0.11352539 C104 0 104 0 105 1 C105.09523905 3.89143151 105.12553027 6.75892064 105.11352539 9.65063477 C105.11367142 10.55786285 105.11381744 11.46509094 105.1139679 12.39981079 C105.11326841 15.41369985 105.10547434 18.42752793 105.09765625 21.44140625 C105.0957922 23.52505967 105.09436824 25.60871354 105.09336853 27.69236755 C105.08954234 33.18823446 105.0797112 38.68407513 105.06866455 44.17993164 C105.0584526 49.78336227 105.05387137 55.38679713 105.04882812 60.99023438 C105.03808902 71.993503 105.02049141 82.99674521 105 94 C97.41 94 89.82 94 82 94 C81.67 76.51 81.34 59.02 81 41 C78.463125 47.331875 75.92625 53.66375 73.3125 60.1875 C72.52270752 62.1574292 71.73291504 64.1273584 70.91918945 66.15698242 C67.21180928 75.41328983 63.54947572 84.68175111 60 94 C55.05 94 50.1 94 45 94 C42.0243298 88.25283992 39.50213649 82.4633595 37.1796875 76.42578125 C36.66258713 75.09549141 36.66258713 75.09549141 36.13504028 73.73832703 C35.04473279 70.93110902 33.95974263 68.12187239 32.875 65.3125 C32.13968342 63.41587582 31.40400955 61.51939012 30.66796875 59.62304688 C29.04895758 55.45131215 27.43340656 51.27825553 25.8210144 47.10395813 C24.89480036 44.73041199 23.94625168 42.36562919 23 40 C22.67 57.82 22.34 75.64 22 94 C14.74 94 7.48 94 0 94 C0 62.98 0 31.96 0 0 Z " fill="#000000" transform="translate(37,30)"/>
<path d="M0 0 C2.72167382 2.11828387 4.63017167 4.50320479 6.65625 7.2890625 C6.98625 4.3190625 7.31625 1.3490625 7.65625 -1.7109375 C15.24625 -1.7109375 22.83625 -1.7109375 30.65625 -1.7109375 C30.72425261 7.63436479 30.77919628 16.97950048 30.81168652 26.32499504 C30.82728675 30.66532521 30.8484208 35.0054761 30.88256836 39.34570312 C30.91536455 43.54082099 30.93314536 47.73576731 30.94088173 51.93100357 C30.94638912 53.52484967 30.95714293 55.11868727 30.97344017 56.71245956 C31.07778628 67.34794147 31.08893471 77.96077972 24.2421875 86.7578125 C14.8841385 95.79317015 2.14353683 96.6878256 -10.13671875 96.50390625 C-19.20178596 96.1795062 -27.81020429 93.06953336 -34.13671875 86.3984375 C-37.26575547 82.50386448 -39.08717797 79.42050301 -39.34375 74.2890625 C-32.09611225 73.12944046 -24.65516788 72.44017129 -17.34375 73.2890625 C-14.59375 75.7265625 -14.59375 75.7265625 -12.34375 78.2890625 C-7.63337312 79.66631802 -2.98346882 79.8529978 1.65625 78.1640625 C5.13386644 75.99055223 5.52364891 75.12372618 6.65625 71.2890625 C6.89637919 68.16327056 6.89637919 68.16327056 6.78125 64.9765625 C6.76320313 63.90792969 6.74515625 62.83929688 6.7265625 61.73828125 C6.70335937 60.93003906 6.68015625 60.12179688 6.65625 59.2890625 C6.19734375 59.69898438 5.7384375 60.10890625 5.265625 60.53125 C4.65203125 61.07007813 4.0384375 61.60890625 3.40625 62.1640625 C2.80296875 62.69773437 2.1996875 63.23140625 1.578125 63.78125 C-4.37295144 68.45018396 -11.13878363 67.99737051 -18.390625 67.52734375 C-24.58247774 66.77193772 -29.48214067 63.52693165 -33.71875 59.1015625 C-38.34275084 53.08905149 -40.80657497 45.80951286 -41.34375 38.2890625 C-41.3953125 37.57621094 -41.446875 36.86335938 -41.5 36.12890625 C-41.9362232 24.95068665 -39.83528199 13.85864421 -32.34375 5.2890625 C-24.03048308 -3.44206704 -10.71998862 -6.31389161 0 0 Z M-13.34375 18.2890625 C-17.95355074 24.70985638 -18.06264976 31.59781988 -17.34375 39.2890625 C-16.13775454 43.21948294 -14.29147383 46.16583426 -11.65625 49.2890625 C-7.90721832 50.91026539 -4.3517652 50.9128502 -0.34375 50.2890625 C3.99250122 48.02667056 5.68604949 45.07030751 7.15234375 40.5625 C8.69034345 33.62361762 8.31675306 26.49540415 4.65625 20.2890625 C1.94051068 16.90673262 -0.53100587 15.40313185 -4.90625 14.7890625 C-8.58788376 15.32457286 -10.45903002 15.96526029 -13.34375 18.2890625 Z " fill="#FEDF1D" transform="translate(1238.34375,55.7109375)"/>
<path d="M0 0 C10.23 0 20.46 0 31 0 C37.49584591 17.15381092 43.25679055 34.53296718 49.02600098 51.94067383 C50.34517497 55.91887507 51.66785891 59.89590892 52.99023438 63.87304688 C55.30736911 70.84339772 57.62153219 77.81472862 59.9334259 84.78681946 C60.95310244 87.85871555 61.97646271 90.92938813 63 94 C54.42 94 45.84 94 37 94 C36.175 91.421875 35.35 88.84375 34.5 86.1875 C34.23896484 85.37949951 33.97792969 84.57149902 33.70898438 83.73901367 C32.75555883 80.72323788 32 78.18094183 32 75 C21.44 75 10.88 75 0 75 C-0.99 78.63 -1.98 82.26 -3 86 C-3.99 88.64 -4.98 91.28 -6 94 C-14.25 94 -22.5 94 -31 94 C-29.27635441 87.67996615 -27.61266041 81.5887152 -25.51977539 75.42407227 C-25.29167679 74.74923798 -25.06357819 74.07440369 -24.8285675 73.37911987 C-24.08797771 71.19050214 -23.34286001 69.00345677 -22.59765625 66.81640625 C-22.07314796 65.26913704 -21.54893803 63.72176665 -21.02500916 62.17430115 C-19.65341122 58.12564677 -18.27799438 54.07830049 -16.90167236 50.03125 C-15.51104816 45.94019117 -14.12374288 41.84800753 -12.73632812 37.75585938 C-11.17053188 33.13766682 -9.60450185 28.51955705 -8.03541565 23.90248108 C-7.79475372 23.19400528 -7.5540918 22.48552948 -7.30613708 21.75558472 C-6.66164559 19.85846676 -6.01681925 17.96146256 -5.3719635 16.06446838 C-3.56615838 10.71473581 -1.78551311 5.35653933 0 0 Z M15 26 C13.71265593 29.93088838 12.43107158 33.86360274 11.15478516 37.7980957 C10.71984046 39.13617501 10.28332791 40.47374574 9.84521484 41.81079102 C9.21559861 43.73319069 8.59209157 45.65758784 7.96875 47.58203125 C7.59169922 48.73936768 7.21464844 49.8967041 6.82617188 51.08911133 C5.86348151 53.97669166 5.86348151 53.97669166 6 57 C12.6 57 19.2 57 26 57 C24.76203126 52.74352725 23.5195336 48.48897986 22.26464844 44.23754883 C21.83898498 42.79013061 21.41612165 41.34188591 20.99609375 39.89282227 C20.39272244 37.81304121 19.77942435 35.73641641 19.1640625 33.66015625 C18.79748535 32.40855713 18.4309082 31.15695801 18.05322266 29.86743164 C17.32688087 26.87786066 17.32688087 26.87786066 15 26 Z " fill="#FEDF1D" transform="translate(564,30)"/>
<path d="M0 0 C7.59 0 15.18 0 23 0 C23 31.02 23 62.04 23 94 C15.41 94 7.82 94 0 94 C-0.495 90.04 -0.495 90.04 -1 86 C-1.495 86.7425 -1.99 87.485 -2.5 88.25 C-6.57794722 92.73574194 -10.22959026 94.64380446 -16.28125 95.421875 C-25.19823731 95.77080059 -31.99319935 94.36740403 -38.8046875 88.42578125 C-46.48096788 80.2339298 -48.18976982 70.6562029 -48.25 59.875 C-48.270625 58.97523437 -48.29125 58.07546875 -48.3125 57.1484375 C-48.37112888 46.9470131 -45.86088054 37.74806337 -39 30 C-31.06608275 23.44349894 -24.197861 22.07054155 -14 23 C-7.58808552 24.83647305 -5.44464396 27.66642725 -1 33 C-0.67 22.11 -0.34 11.22 0 0 Z M-21.6875 45.6875 C-25.58482384 52.55421344 -25.40272392 59.42992794 -24 67 C-22.30451996 71.66257012 -20.32929796 74.49862785 -16 77 C-11.82607945 77.82970429 -8.91586227 77.50881237 -5.1875 75.4375 C0.33737122 69.28121493 0.5401755 63.44954418 0.3515625 55.390625 C-0.24977091 49.59109833 -1.91351323 45.75704149 -6.375 42 C-12.64544767 39.61125803 -17.03577663 41.03577663 -21.6875 45.6875 Z " fill="#000000" transform="translate(361,30)"/>
<path d="M0 0 C7.59 0 15.18 0 23 0 C23 31.02 23 62.04 23 94 C15.41 94 7.82 94 0 94 C-0.495 90.04 -0.495 90.04 -1 86 C-1.70125 86.928125 -2.4025 87.85625 -3.125 88.8125 C-5.56529968 92.0423084 -8.26411996 93.47979106 -12 95 C-21.19300108 96.22573348 -29.42083464 95.60261004 -37 90 C-43.49056776 84.45274686 -46.7363756 76.32084749 -48 68 C-48.8007384 54.66311123 -48.59628911 41.35423951 -39.5703125 30.58203125 C-33.92444969 24.89403514 -27.96018945 22.92029608 -20.125 22.625 C-11.18012998 22.79126152 -7.26555497 25.73444503 -1 32 C-0.67 21.44 -0.34 10.88 0 0 Z M-21 45 C-25.15056117 51.3641938 -24.6332735 58.62626742 -24 66 C-23.14769378 69.92457281 -21.51164048 72.42988632 -18.8125 75.4375 C-15.15369192 77.47017116 -12.03849271 77.91676156 -8 77 C-3.69775409 74.69286153 -1.41757243 71.61833551 0 67 C0.79377237 59.07063181 1.36822833 51.10564764 -3.515625 44.3828125 C-6.10104352 41.97429103 -8.39013687 41.07954736 -11.875 40.625 C-15.96629067 41.11595488 -17.89074515 42.30531247 -21 45 Z " fill="#FDDF1D" transform="translate(677,30)"/>
<path d="M0 0 C7.92 0 15.84 0 24 0 C28.51044195 15.62153065 32.81002554 31.2896791 37 47 C37.1481163 46.42592911 37.2962326 45.85185822 37.44883728 45.26039124 C38.98575263 39.30638625 40.52746615 33.35363886 42.07202148 27.40161133 C42.6484597 25.17764926 43.22365756 22.95336532 43.79760742 20.72875977 C44.62095467 17.53837798 45.44869929 14.34916568 46.27734375 11.16015625 C46.53466782 10.15912369 46.79199188 9.15809113 47.05711365 8.12672424 C47.29728714 7.20584518 47.53746063 6.28496613 47.78491211 5.33618164 C48.10134926 4.11373497 48.10134926 4.11373497 48.42417908 2.86659241 C49 1 49 1 50 0 C51.78071246 -0.08726223 53.5648314 -0.10699041 55.34765625 -0.09765625 C56.42724609 -0.09443359 57.50683594 -0.09121094 58.61914062 -0.08789062 C60.32360352 -0.07532227 60.32360352 -0.07532227 62.0625 -0.0625 C63.77276367 -0.05573242 63.77276367 -0.05573242 65.51757812 -0.04882812 C68.34510604 -0.03699746 71.17251896 -0.01967618 74 0 C71.77422171 8.69358936 69.01284353 17.16618111 66.10546875 25.65234375 C65.63083117 27.04275208 65.15624834 28.4331791 64.68171692 29.82362366 C63.6916421 32.72142885 62.69860932 35.61820156 61.70385742 38.5144043 C60.44190368 42.19038912 59.19095644 45.87001688 57.94268322 49.55066586 C56.9677679 52.41916866 55.98512359 55.28498168 55.00045204 58.15014839 C54.53650455 59.5041171 54.07525566 60.85901416 53.61699486 62.21491814 C44.77666169 88.33548149 44.77666169 88.33548149 35 94 C25.94336468 97.77798595 15.32951664 98.10983888 6 95 C6.58367389 88.69632197 8.04071619 83.01339937 10 77 C10.90492188 77.12568359 10.90492188 77.12568359 11.828125 77.25390625 C12.62734375 77.35574219 13.4265625 77.45757812 14.25 77.5625 C15.03890625 77.66691406 15.8278125 77.77132812 16.640625 77.87890625 C19.00532874 78.00027349 20.7511037 77.69633257 23 77 C24.34562032 72.50270692 23.55173157 69.73920304 22.01806641 65.36132812 C21.7954866 64.71514023 21.5729068 64.06895233 21.34358215 63.40318298 C20.60751545 61.27509619 19.85455905 59.15339889 19.1015625 57.03125 C18.58570846 55.54861904 18.07102618 54.06557991 17.5574646 52.58215332 C16.20380226 48.68086929 14.83619164 44.78462706 13.46502686 40.88946533 C11.27382521 34.65656894 9.10484378 28.41589712 6.93400192 22.17588806 C6.17508995 20.00036173 5.4108741 17.82675903 4.6456604 15.65344238 C4.17727054 14.31521259 3.70895407 12.97695711 3.24072266 11.63867188 C2.83133453 10.47460815 2.42194641 9.31054443 2.00015259 8.11120605 C1 5 1 5 0 0 Z " fill="#000000" transform="translate(464,54)"/>
<path d="M0 0 C4.19852196 3.43515433 8.01211334 7.03634002 9.75 12.25 C9.83799471 14.01408128 9.86764257 15.78133766 9.86352539 17.54760742 C9.86341209 19.16894844 9.86341209 19.16894844 9.86329651 20.82304382 C9.85813522 21.98874405 9.85297394 23.15444427 9.84765625 24.35546875 C9.8462413 25.54981033 9.84482635 26.74415192 9.84336853 27.97468567 C9.8377635 31.79564908 9.82521011 35.61655425 9.8125 39.4375 C9.80748565 42.02538978 9.80292263 44.61328048 9.79882812 47.20117188 C9.78779242 53.55080375 9.77052437 59.90039199 9.75 66.25 C2.49 66.25 -4.77 66.25 -12.25 66.25 C-12.58 64.27 -12.91 62.29 -13.25 60.25 C-14.61125 61.425625 -14.61125 61.425625 -16 62.625 C-22.3641214 68.12128666 -29.52976675 68.65157644 -37.75390625 68.07421875 C-43.62130584 67.0640056 -48.06846669 64.47079653 -52.25 60.25 C-56.24728308 54.12916029 -55.90397004 47.3791945 -55.25 40.25 C-53.58763874 34.87177238 -49.95925849 31.22558457 -45.25 28.25 C-39.20499101 25.60202324 -33.45719587 24.47183873 -26.9375 23.625 C-25.17025891 23.38511457 -23.40331552 23.14302276 -21.63671875 22.8984375 C-20.86545654 22.79708496 -20.09419434 22.69573242 -19.29956055 22.59130859 C-17.05863968 22.2729333 -17.05863968 22.2729333 -14.25 21.25 C-14.08318891 18.33347826 -14.08318891 18.33347826 -14.25 15.25 C-16.89751415 12.60248585 -18.54761096 12.53479916 -22.25 12.25 C-25.46316523 12.73762261 -25.46316523 12.73762261 -28.25 14.25 C-29.24 15.9 -30.23 17.55 -31.25 19.25 C-38.51 18.92 -45.77 18.59 -53.25 18.25 C-50.77619055 8.35476219 -47.78892754 3.45628855 -39.25 -1.75 C-27.75769395 -7.98667828 -11.08680813 -5.96981976 0 0 Z M-22.6875 37.5625 C-24.38712891 37.92794922 -24.38712891 37.92794922 -26.12109375 38.30078125 C-29.18281627 39.22961842 -30.99274776 40.00362608 -33.25 42.25 C-33.91666667 45.75 -33.91666667 45.75 -33.25 49.25 C-31.84869315 51.38575439 -31.84869315 51.38575439 -29.25 52.25 C-23.8940401 52.76009142 -20.58856137 52.7208491 -16.25 49.25 C-14.02551105 47.25563059 -13.30776413 45.9758189 -13.0703125 42.9921875 C-13.06324054 40.73623251 -13.12008248 38.50190364 -13.25 36.25 C-16.58648617 36.25 -19.42969951 36.84142044 -22.6875 37.5625 Z " fill="#000000" transform="translate(449.25,57.75)"/>
<path d="M0 0 C5.60937047 3.21968744 9.02042279 7.52695232 11.62255859 13.38745117 C12.976562 18.59139622 12.80776438 23.60663157 12.7578125 28.9609375 C12.7549826 30.10664215 12.75215271 31.2523468 12.74923706 32.43276978 C12.73807135 36.08028755 12.71297299 39.72755685 12.6875 43.375 C12.67746555 45.85286103 12.66834051 48.33072592 12.66015625 50.80859375 C12.63984823 56.87256782 12.6006917 62.93600683 12.5625 69 C4.9725 69 -2.6175 69 -10.4375 69 C-10.48648438 65.79796875 -10.53546875 62.5959375 -10.5859375 59.296875 C-10.63994698 56.19575322 -10.69725465 53.09470873 -10.75488281 49.99365234 C-10.79316602 47.83843747 -10.82802004 45.68315884 -10.859375 43.52783203 C-10.9050395 40.42978124 -10.96303212 37.33216909 -11.0234375 34.234375 C-11.03498871 33.27070007 -11.04653992 32.30702515 -11.05844116 31.31414795 C-11.07831085 30.41351624 -11.09818054 29.51288452 -11.11865234 28.58496094 C-11.13197601 27.79442322 -11.14529968 27.0038855 -11.1590271 26.18939209 C-11.47149866 23.73269789 -12.15852967 22.11079903 -13.4375 20 C-16.87452931 17.45405236 -20.28796112 17.63600536 -24.4375 18 C-27.43465305 19.26546462 -28.95931573 20.14126513 -30.54833984 22.99487305 C-31.82025844 27.29362265 -31.79521464 31.43221834 -31.8515625 35.89453125 C-31.87092865 36.84188644 -31.8902948 37.78924164 -31.9102478 38.76530457 C-31.96986371 41.78094577 -32.01635705 44.79662552 -32.0625 47.8125 C-32.10069633 49.86134446 -32.13974902 51.91017314 -32.1796875 53.95898438 C-32.27715702 58.97257259 -32.35686859 63.98599971 -32.4375 69 C-40.0275 69 -47.6175 69 -55.4375 69 C-55.4375 45.9 -55.4375 22.8 -55.4375 -1 C-48.1775 -1 -40.9175 -1 -33.4375 -1 C-33.1075 1.97 -32.7775 4.94 -32.4375 8 C-31.98375 7.278125 -31.53 6.55625 -31.0625 5.8125 C-22.892357 -2.94122464 -10.89071177 -4.81484099 0 0 Z " fill="#000000" transform="translate(289.4375,55)"/>
<path d="M0 0 C5.40102127 3.93502978 9.5893201 9.01227974 11.24290466 15.59172058 C11.64514904 18.2249282 11.76089109 20.69020674 11.75415039 23.3527832 C11.75403709 24.85377312 11.75403709 24.85377312 11.75392151 26.38508606 C11.74876022 27.4529686 11.74359894 28.52085114 11.73828125 29.62109375 C11.7368663 30.72382126 11.73545135 31.82654877 11.73399353 32.96269226 C11.72840504 36.47776017 11.71585459 39.99276391 11.703125 43.5078125 C11.69810852 45.89387929 11.69354587 48.27994707 11.68945312 50.66601562 C11.67929114 56.50915907 11.65971332 62.35216413 11.640625 68.1953125 C4.050625 68.1953125 -3.539375 68.1953125 -11.359375 68.1953125 C-11.41544922 63.64363281 -11.41544922 63.64363281 -11.47265625 59 C-11.51890859 56.05103474 -11.57012881 53.10219455 -11.62182617 50.15332031 C-11.65501641 48.1088017 -11.68306663 46.06419276 -11.70581055 44.01953125 C-11.73946493 41.07513044 -11.79178666 38.13155296 -11.84765625 35.1875 C-11.85404617 34.2778952 -11.8604361 33.36829041 -11.86701965 32.43112183 C-11.98486938 27.30827121 -12.44581709 23.59594074 -15.359375 19.1953125 C-19.04435296 16.73866053 -22.07909286 16.49444759 -26.359375 17.1953125 C-29.1694096 18.98895161 -30.86877968 20.21412185 -32.359375 23.1953125 C-32.47704972 24.6447918 -32.53626768 26.09925246 -32.56469727 27.55322266 C-32.58464249 28.45400543 -32.60458771 29.35478821 -32.62513733 30.28286743 C-32.65020607 31.74386368 -32.65020607 31.74386368 -32.67578125 33.234375 C-32.69656235 34.23036713 -32.71734344 35.22635925 -32.73875427 36.25253296 C-32.80426542 39.44172104 -32.86314204 42.63099308 -32.921875 45.8203125 C-32.96505873 47.97917543 -33.00867297 50.1380298 -33.05273438 52.296875 C-33.16076049 57.59626928 -33.2598224 62.89572507 -33.359375 68.1953125 C-40.949375 68.1953125 -48.539375 68.1953125 -56.359375 68.1953125 C-56.359375 45.0953125 -56.359375 21.9953125 -56.359375 -1.8046875 C-49.099375 -1.8046875 -41.839375 -1.8046875 -34.359375 -1.8046875 C-34.029375 1.1653125 -33.699375 4.1353125 -33.359375 7.1953125 C-32.2765625 5.803125 -32.2765625 5.803125 -31.171875 4.3828125 C-23.82808456 -4.41313989 -9.73461588 -5.84894988 0 0 Z " fill="#FEDF1D" transform="translate(1175.359375,55.8046875)"/>
<path d="M0 0 C8.97613525 6.45574259 12.38594416 13.85064938 14.56640625 24.5234375 C14.56640625 28.8134375 14.56640625 33.1034375 14.56640625 37.5234375 C-0.94359375 37.5234375 -16.45359375 37.5234375 -32.43359375 37.5234375 C-31.11359375 40.4934375 -29.79359375 43.4634375 -28.43359375 46.5234375 C-28.43359375 47.1834375 -28.43359375 47.8434375 -28.43359375 48.5234375 C-22.64824021 50.78113644 -17.99744433 51.53930282 -12.12109375 49.2109375 C-9.21805488 47.64395263 -9.21805488 47.64395263 -7.43359375 44.5234375 C-5.18701172 44.18286133 -5.18701172 44.18286133 -2.42578125 44.23046875 C-1.43964844 44.24013672 -0.45351563 44.24980469 0.5625 44.25976562 C1.59503906 44.28490234 2.62757813 44.31003906 3.69140625 44.3359375 C5.25181641 44.35624023 5.25181641 44.35624023 6.84375 44.37695312 C9.41848252 44.41238522 11.99218955 44.46178529 14.56640625 44.5234375 C14.11741565 45.94703854 13.66165069 47.36850392 13.203125 48.7890625 C12.95006592 49.58086914 12.69700684 50.37267578 12.4362793 51.18847656 C10.19351646 57.20862355 6.48333879 61.29173062 0.92578125 64.45703125 C-11.06091815 69.87486062 -24.16413106 70.11015252 -36.43359375 65.5234375 C-45.25058586 61.04654447 -49.8078018 54.78912035 -53.56640625 45.8203125 C-56.75641566 33.69252896 -55.27758165 20.13665348 -49.18359375 9.30078125 C-39.04930528 -6.1021856 -15.2637282 -9.26113846 0 0 Z M-29.43359375 16.5234375 C-30.42359375 18.8334375 -31.41359375 21.1434375 -32.43359375 23.5234375 C-24.18359375 23.5234375 -15.93359375 23.5234375 -7.43359375 23.5234375 C-8.33835801 17.32351799 -8.33835801 17.32351799 -12.55859375 13.44140625 C-18.59947924 10.4838894 -24.66027433 12.09106946 -29.43359375 16.5234375 Z " fill="#FDDF1D" transform="translate(839.43359375,57.4765625)"/>
<path d="M0 0 C7.2332303 4.78589674 11.6012697 12.45658402 13.765625 20.75 C14.95895837 32.57968116 14.96855119 44.58447689 7.77734375 54.48828125 C0.44024088 63.24465099 -7.33706872 66.91450336 -18.60546875 67.97265625 C-29.17809649 68.36172895 -39.17848357 65.76487166 -47.234375 58.75 C-54.86122662 51.27670916 -57.41105619 40.98391233 -57.671875 30.5625 C-57.27328858 18.96492097 -53.51664581 9.5416692 -45.046875 1.4375 C-32.14672434 -8.60838739 -13.71787795 -7.67433731 0 0 Z M-30.234375 15.75 C-32.85550757 20.76866141 -33.75637163 24.99965014 -33.671875 30.6875 C-33.66575195 31.3889917 -33.65962891 32.0904834 -33.65332031 32.81323242 C-33.44950834 39.5586249 -31.9785654 43.72192784 -27.421875 48.75 C-23.63631739 50.48054062 -20.02068835 50.20933772 -16.046875 49.1875 C-12.22638598 46.15745698 -10.12619124 41.47749194 -9.234375 36.75 C-8.66346355 29.06465359 -8.41742943 21.35510542 -13.55859375 15.15234375 C-15.9821048 12.86877297 -17.96981227 11.79960551 -21.234375 11.1875 C-25.15412392 11.92245292 -27.21725442 13.13516216 -30.234375 15.75 Z " fill="#000000" transform="translate(209.234375,58.25)"/>
<path d="M0 0 C5.01995958 3.47276935 8.98909684 7.09297197 11 13 C11.03925624 14.9996147 11.04437188 17.00049228 11 19 C7.58378212 19.14539953 4.16836009 19.23409725 0.75 19.3125 C-0.21808594 19.35439453 -1.18617187 19.39628906 -2.18359375 19.43945312 C-9.4152352 19.5641366 -9.4152352 19.5641366 -12.546875 16.54296875 C-13.02640625 15.70378906 -13.5059375 14.86460938 -14 14 C-17.73974432 12.13012784 -22.46790828 12.69358166 -26.5 13.5 C-26.995 13.665 -27.49 13.83 -28 14 C-28 15.65 -28 17.3 -28 19 C-21.79059279 22.61255563 -15.1233585 23.63076089 -8.14257812 25.01757812 C0.74280996 26.89425955 6.52654025 29.59473092 12 37 C14.2275263 41.4550526 13.67925079 47.598071 12.3515625 52.29296875 C9.16483097 59.33373885 3.95371596 63.36885451 -3.0625 66.3125 C-15.08773091 70.6574485 -28.6797861 70.358707 -40.35546875 64.8984375 C-45.82752438 61.71581603 -50.89024603 57.13746608 -53 51 C-53.0274974 49.00018904 -53.02988797 46.99977666 -53 45 C-49.22956968 44.85503492 -45.45985258 44.76604393 -41.6875 44.6875 C-40.61564453 44.64560547 -39.54378906 44.60371094 -38.43945312 44.56054688 C-37.41142578 44.54443359 -36.38339844 44.52832031 -35.32421875 44.51171875 C-34.37635498 44.48553467 -33.42849121 44.45935059 -32.4519043 44.43237305 C-30 45 -30 45 -28.29223633 47.46801758 C-27.86579834 48.30357178 -27.43936035 49.13912598 -27 50 C-24.41991408 51.29004296 -22.44258426 51.20410224 -19.5625 51.25 C-18.59441406 51.27578125 -17.62632813 51.3015625 -16.62890625 51.328125 C-13.99389623 51.20330031 -13.99389623 51.20330031 -12.15234375 49.734375 C-10.63106614 47.79177245 -10.63106614 47.79177245 -11 44 C-12.14855469 43.75765625 -13.29710937 43.5153125 -14.48046875 43.265625 C-43.61997169 37.0279649 -43.61997169 37.0279649 -49 30 C-52.04843351 24.59645901 -53.00333815 19.06001948 -51.49609375 12.9609375 C-49.26937501 6.16626432 -45.11680143 2.41243433 -39.0390625 -1.10546875 C-27.59148745 -6.12748922 -10.95553279 -6.34267688 0 0 Z " fill="#FEDF1D" transform="translate(1059,57)"/>
<path d="M0 0 C7.92 0 15.84 0 24 0 C25.03125 3.526875 26.0625 7.05375 27.125 10.6875 C27.4358252 11.74928467 27.74665039 12.81106934 28.06689453 13.9050293 C31.08990271 24.25761117 34.03694124 34.62929435 37 45 C40.96 30.15 44.92 15.3 49 0 C57.25 0 65.5 0 74 0 C68.0092789 18.06625839 61.99590777 36.1236184 55.8125 54.125 C55.57493988 54.81803223 55.33737976 55.51106445 55.09262085 56.22509766 C54.42409719 58.17408313 53.75350685 60.12234235 53.08203125 62.0703125 C52.70280518 63.17133301 52.3235791 64.27235352 51.93286133 65.40673828 C51 68 51 68 50 70 C41.09 70 32.18 70 23 70 C21.92621094 66.83921875 20.85242188 63.6784375 19.74609375 60.421875 C18.68047251 57.28719886 17.61454205 54.15262802 16.54858398 51.01806641 C15.82007232 48.87527206 15.09187124 46.73237209 14.36401367 44.58935547 C13.30473539 41.47073493 12.24437641 38.35248413 11.18359375 35.234375 C10.66108536 33.696745 10.66108536 33.696745 10.12802124 32.12805176 C8.4173575 27.10684439 6.68684447 22.09413675 4.91064453 17.09570312 C4.58363052 16.17372131 4.25661652 15.2517395 3.91969299 14.30181885 C3.30395296 12.57157597 2.68416557 10.84276624 2.05967712 9.11566162 C0 3.32947392 0 3.32947392 0 0 Z " fill="#FEDF1D" transform="translate(708,54)"/>
<path d="M0 0 C7.59 0 15.18 0 23 0 C23 5.61 23 11.22 23 17 C27.29 17 31.58 17 36 17 C36 22.61 36 28.22 36 34 C31.71 34 27.42 34 23 34 C23.11811981 38.66326382 23.24235866 43.3263088 23.37231445 47.98925781 C23.41567241 49.57612657 23.45734687 51.16304224 23.49731445 52.75 C23.55499632 55.02878979 23.61869638 57.30734322 23.68359375 59.5859375 C23.70030624 60.29744965 23.71701874 61.00896179 23.73423767 61.74203491 C23.79721937 65.49660817 23.79721937 65.49660817 25 69 C27.12576782 69.46651207 27.12576782 69.46651207 29.5625 69.625 C30.38878906 69.69976562 31.21507812 69.77453125 32.06640625 69.8515625 C33.02353516 69.92503906 33.02353516 69.92503906 34 70 C34.50546036 72.08201528 35.00416835 74.16567067 35.5 76.25 C35.7784375 77.41015625 36.056875 78.5703125 36.34375 79.765625 C37 83 37 83 37 87 C32.57132713 88.23940465 28.32362234 88.25964612 23.75 88.3125 C22.51830078 88.35600586 22.51830078 88.35600586 21.26171875 88.40039062 C14.51640203 88.46987487 9.09854293 86.99986322 4.16015625 82.21875 C3.61681641 81.36796875 3.61681641 81.36796875 3.0625 80.5 C2.49208984 79.64921875 2.49208984 79.64921875 1.91015625 78.78125 C0.2748337 75.58079043 -0.12509153 72.52819157 -0.11352539 68.96582031 C-0.11344986 68.18531311 -0.11337433 67.40480591 -0.11329651 66.60064697 C-0.10813522 65.76821472 -0.10297394 64.93578247 -0.09765625 64.078125 C-0.0962413 63.21813904 -0.09482635 62.35815308 -0.09336853 61.47210693 C-0.08778097 58.73136891 -0.07523075 55.99071324 -0.0625 53.25 C-0.05748339 51.3893241 -0.05292077 49.52864691 -0.04882812 47.66796875 C-0.03781561 43.11194754 -0.02055951 38.55598772 0 34 C-2.97 34 -5.94 34 -9 34 C-9 28.39 -9 22.78 -9 17 C-6.03 17 -3.06 17 0 17 C0 11.39 0 5.78 0 0 Z " fill="#FDDF1D" transform="translate(926,37)"/>
<path d="M0 0 C0.97324219 0.00644531 1.94648437 0.01289062 2.94921875 0.01953125 C5.3125 0.1875 5.3125 0.1875 6.3125 1.1875 C6.39919432 2.6762186 6.41953494 4.168945 6.41015625 5.66015625 C6.40693359 6.55927734 6.40371094 7.45839844 6.40039062 8.38476562 C6.38782227 9.80305664 6.38782227 9.80305664 6.375 11.25 C6.37048828 12.19939453 6.36597656 13.14878906 6.36132812 14.12695312 C6.3495011 16.48053065 6.33302025 18.83398477 6.3125 21.1875 C5.35988281 21.15269531 4.40726563 21.11789063 3.42578125 21.08203125 C1.54439453 21.04142578 1.54439453 21.04142578 -0.375 21 C-1.61636719 20.96519531 -2.85773437 20.93039063 -4.13671875 20.89453125 C-8.06658919 21.21877799 -9.74979863 21.56877846 -12.6875 24.1875 C-15.37484059 30.10952683 -16.1484085 35.04497628 -16.19921875 41.5 C-16.21716995 42.35432617 -16.23512115 43.20865234 -16.25361633 44.08886719 C-16.30732618 46.78836286 -16.34148739 49.48768582 -16.375 52.1875 C-16.4082079 54.02997176 -16.44270073 55.87242083 -16.47851562 57.71484375 C-16.56542332 62.20574859 -16.62582551 66.69589601 -16.6875 71.1875 C-24.2775 71.1875 -31.8675 71.1875 -39.6875 71.1875 C-39.6875 48.0875 -39.6875 24.9875 -39.6875 1.1875 C-32.0975 1.1875 -24.5075 1.1875 -16.6875 1.1875 C-16.3575 3.8275 -16.0275 6.4675 -15.6875 9.1875 C-15.30078125 8.70539062 -14.9140625 8.22328125 -14.515625 7.7265625 C-13.99484375 7.09492187 -13.4740625 6.46328125 -12.9375 5.8125 C-12.42703125 5.18601562 -11.9165625 4.55953125 -11.390625 3.9140625 C-7.88422852 0.35941285 -4.90288289 -0.07200496 0 0 Z " fill="#FEDF1C" transform="translate(903.6875,52.8125)"/>
<path d="M0 0 C7.59 0 15.18 0 23 0 C23 23.1 23 46.2 23 70 C15.41 70 7.82 70 0 70 C0 46.9 0 23.8 0 0 Z " fill="#FEDF1D" transform="translate(1082,54)"/>
<path d="M0 0 C7.59 0 15.18 0 23 0 C23 23.1 23 46.2 23 70 C15.41 70 7.82 70 0 70 C0 46.9 0 23.8 0 0 Z " fill="#FEDF1D" transform="translate(972,54)"/>
<path d="M0 0 C3.96488175 2.49640703 5.66961349 3.93110247 7.0625 8.4375 C6.99060401 12.5355716 6.24550056 14.59303364 4 18 C0.25021267 21.40153494 -2.60690223 21.56030393 -7.51953125 21.4296875 C-11.54378559 20.73257257 -13.25081366 18.96066221 -16 16 C-17.53214888 12.93570224 -17.22938548 10.3834358 -17 7 C-15.53565854 3.20993975 -14.29742311 2.17159025 -10.75 0.125 C-6.48560758 -1.15431773 -4.26488674 -1.24069433 0 0 Z " fill="#FEDF1D" transform="translate(1099,25)"/>
<path d="M0 0 C3.96488175 2.49640703 5.66961349 3.93110247 7.0625 8.4375 C6.99060401 12.5355716 6.24550056 14.59303364 4 18 C0.25021267 21.40153494 -2.60690223 21.56030393 -7.51953125 21.4296875 C-11.54378559 20.73257257 -13.25081366 18.96066221 -16 16 C-17.53214888 12.93570224 -17.22938548 10.3834358 -17 7 C-15.53565854 3.20993975 -14.29742311 2.17159025 -10.75 0.125 C-6.48560758 -1.15431773 -4.26488674 -1.24069433 0 0 Z " fill="#FEDF1D" transform="translate(989,25)"/>
</svg>
