<svg width="260" height="70" viewBox="0 0 260 70" fill="none" xmlns="http://www.w3.org/2000/svg">
<g clip-path="url(#clip0_9814_15006)">
<path d="M16.8833 49.7475L23.379 42.4372C23.4889 42.3271 23.4152 42.1446 23.2329 42.1446H16.0804C16.0255 42.1356 15.9746 42.1104 15.9343 42.072L9.87692 35.2733C9.84072 35.2008 9.80322 35.1269 9.84072 35.0531L19.985 17.6185C20.0212 17.546 20.0212 17.4722 19.985 17.4372L15.7882 10.1982C15.7158 10.0894 15.5335 10.0894 15.4598 10.1982L0.461808 36.0062C0.443923 36.0399 0.43457 36.0775 0.43457 36.1157C0.43457 36.1538 0.443923 36.1914 0.461808 36.2251L12.5029 49.7838C12.5391 49.8213 12.5753 49.8576 12.649 49.8576H16.7359C16.7721 49.8213 16.8471 49.7851 16.8833 49.7475Z" fill="white"/>
<path d="M21.3347 0.111338L17.1016 7.34781C17.0654 7.42162 17.0654 7.49414 17.1016 7.5304L21.4808 15.0608L33.0861 35.0168C33.1223 35.0906 33.1223 35.1644 33.0499 35.237L26.9188 42.1082L20.3857 49.4923C20.277 49.6024 20.3495 49.785 20.5318 49.785H30.3128C30.3678 49.7756 30.4187 49.7499 30.4589 49.7112L42.5012 36.1512C42.5374 36.0774 42.5736 36.0049 42.5374 35.9311L21.6269 0.111338C21.5907 -0.0349969 21.4071 -0.0349969 21.3347 0.111338ZM60.566 39.6594V16.4128C60.5671 16.374 60.5556 16.3358 60.5334 16.304C60.5112 16.2721 60.4793 16.2483 60.4425 16.236C60.4057 16.2236 60.366 16.2235 60.3291 16.2355C60.2922 16.2475 60.2601 16.2711 60.2376 16.3027L53.1575 24.2346C53.1213 24.2709 53.1213 24.3071 53.1213 24.3434V47.1523C53.1213 47.2623 53.1937 47.3349 53.3036 47.3349H71.1848C71.2947 47.3349 71.3684 47.2623 71.3684 47.1523V40.0246C71.3684 39.9145 71.2947 39.842 71.1848 39.842H60.7483C60.6759 39.842 60.566 39.7695 60.566 39.6594ZM81.6602 47.151V25.369C81.6612 25.3302 81.6498 25.292 81.6275 25.2602C81.6053 25.2284 81.5734 25.2045 81.5367 25.1922C81.4999 25.1799 81.4601 25.1797 81.4232 25.1917C81.3863 25.2037 81.3543 25.2273 81.3317 25.259L74.2517 33.1908C74.2155 33.2271 74.2155 33.2634 74.2155 33.2996V47.1536C74.2155 47.2623 74.2879 47.3362 74.3978 47.3362H81.4779C81.5865 47.3362 81.6589 47.2261 81.6589 47.1536L81.6602 47.151ZM119.977 36.2225C119.96 36.1888 119.95 36.1512 119.95 36.113C119.95 36.0749 119.96 36.0373 119.977 36.0036L127.24 25.1852C127.312 25.0751 127.24 24.8925 127.094 24.8925H118.955C118.882 24.8925 118.846 24.9287 118.81 24.965L113.444 33.6648C113.422 33.6965 113.39 33.7201 113.353 33.7321C113.316 33.7441 113.276 33.7439 113.239 33.7316C113.203 33.7193 113.171 33.6954 113.148 33.6636C113.126 33.6317 113.115 33.5936 113.116 33.5547V16.3753C113.117 16.3364 113.105 16.2983 113.083 16.2664C113.061 16.2346 113.029 16.2107 112.992 16.1984C112.956 16.1861 112.916 16.1859 112.879 16.1979C112.842 16.2099 112.81 16.2335 112.787 16.2652L105.709 24.1971C105.672 24.2346 105.672 24.2709 105.672 24.3071V47.151C105.672 47.2623 105.745 47.3349 105.853 47.3349H112.934C113.043 47.3349 113.116 47.2623 113.116 47.1523V38.4162C113.114 38.377 113.126 38.3384 113.148 38.3061C113.17 38.2739 113.202 38.2497 113.239 38.2373C113.277 38.2249 113.317 38.2249 113.354 38.2373C113.391 38.2497 113.423 38.2739 113.446 38.3061L119.393 47.2623C119.433 47.3007 119.484 47.3259 119.539 47.3349H127.422C127.568 47.3349 127.642 47.1523 127.568 47.0422L119.977 36.2225ZM93.665 47.7726C98.264 47.7726 103.154 45.8365 103.154 40.4273C103.154 35.0168 98.6286 33.9938 95.307 33.2271C93.484 32.7868 92.023 32.4579 92.023 31.4711C92.023 30.7044 92.716 30.2279 93.8473 30.2279C95.0161 30.2279 95.9638 30.8132 96.6219 31.9464C96.6581 32.0202 96.7667 32.0564 96.8404 32.0202L102.46 29.4975C102.569 29.4612 102.606 29.3512 102.533 29.2424C100.817 26.0981 97.8257 24.4897 93.665 24.4897C87.6438 24.4535 84.9067 28.1455 84.9067 31.8C84.9067 36.8078 89.3596 37.9409 92.6074 38.7814C94.5041 39.2566 95.8552 39.6231 95.8552 40.5724C95.8552 41.194 95.4906 41.9619 93.665 41.9619C91.9868 41.9619 90.7818 41.2315 90.1612 39.7682C90.125 39.6594 90.0164 39.6231 89.9065 39.6594L84.1038 42.5835C83.9939 42.6198 83.9577 42.7298 84.0314 42.8386C85.6734 46.1655 88.8488 47.7726 93.665 47.7726Z" fill="white"/>
</g>
<defs>
<clipPath id="clip0_9814_15006">
<rect width="128" height="50" fill="white"/>
</clipPath>
</defs>
</svg>
