<svg width="260" height="70" viewBox="0 0 260 70" fill="none" xmlns="http://www.w3.org/2000/svg">
<path d="M4.512 19C4.32 19 4.224 18.896 4.224 18.688V13.576L0.072 3.688C0.04 3.56 0.04 3.464 0.072 3.4C0.12 3.32 0.2 3.28 0.312 3.28H3.816C4.008 3.28 4.112 3.352 4.128 3.496L5.28 7.264C5.424 7.76 5.568 8.256 5.712 8.752C5.856 9.248 5.984 9.736 6.096 10.216H6.144C6.256 9.72 6.376 9.232 6.504 8.752C6.648 8.256 6.8 7.768 6.96 7.288L8.088 3.496C8.136 3.352 8.24 3.28 8.4 3.28H11.88C11.992 3.28 12.064 3.32 12.096 3.4C12.144 3.464 12.144 3.56 12.096 3.688L7.968 13.552V18.688C7.968 18.896 7.872 19 7.68 19H4.512ZM16.0194 19.192C14.5154 19.192 13.3394 18.808 12.4914 18.04C11.6434 17.256 11.2194 16.12 11.2194 14.632V11.392C11.2194 9.92 11.6434 8.792 12.4914 8.008C13.3394 7.224 14.5154 6.832 16.0194 6.832C17.5234 6.832 18.6994 7.224 19.5474 8.008C20.3954 8.792 20.8194 9.92 20.8194 11.392V14.632C20.8194 16.12 20.3954 17.256 19.5474 18.04C18.7154 18.808 17.5394 19.192 16.0194 19.192ZM16.0194 16.096C16.4354 16.096 16.7314 15.976 16.9074 15.736C17.0994 15.48 17.1954 15.072 17.1954 14.512V11.536C17.1954 10.96 17.0994 10.552 16.9074 10.312C16.7314 10.072 16.4354 9.952 16.0194 9.952C15.6194 9.952 15.3234 10.072 15.1314 10.312C14.9394 10.552 14.8434 10.96 14.8434 11.536V14.512C14.8434 15.072 14.9394 15.48 15.1314 15.736C15.3234 15.976 15.6194 16.096 16.0194 16.096ZM26.5573 23.632C24.8293 23.632 23.5653 23.408 22.7653 22.96C21.9813 22.512 21.5893 21.824 21.5893 20.896C21.5893 20.288 21.7333 19.752 22.0213 19.288C22.3093 18.84 22.7733 18.456 23.4133 18.136L25.9813 18.832C25.6933 18.992 25.4853 19.168 25.3573 19.36C25.2293 19.552 25.1653 19.768 25.1653 20.008C25.1653 20.312 25.2853 20.536 25.5253 20.68C25.7813 20.824 26.1893 20.904 26.7493 20.92C27.4373 20.936 27.8933 20.864 28.1173 20.704C28.3573 20.56 28.4773 20.32 28.4773 19.984C28.4773 19.712 28.4053 19.504 28.2613 19.36C28.1333 19.232 27.8933 19.16 27.5413 19.144L24.5173 18.904C23.7973 18.824 23.2373 18.584 22.8373 18.184C22.4533 17.784 22.2613 17.248 22.2613 16.576C22.2613 16.016 22.4053 15.536 22.6933 15.136C22.9813 14.72 23.4133 14.376 23.9893 14.104L25.9813 14.944C25.7253 15.008 25.5413 15.104 25.4293 15.232C25.3333 15.36 25.2853 15.488 25.2853 15.616C25.2853 15.744 25.3333 15.848 25.4293 15.928C25.5413 16.008 25.7413 16.064 26.0293 16.096L28.7173 16.336C29.8693 16.432 30.6933 16.768 31.1893 17.344C31.6853 17.92 31.9333 18.792 31.9333 19.96C31.9333 21.24 31.5093 22.168 30.6613 22.744C29.8293 23.336 28.4613 23.632 26.5573 23.632ZM26.7973 15.232C25.2933 15.232 24.1973 14.896 23.5093 14.224C22.8373 13.552 22.5013 12.48 22.5013 11.008C22.5013 9.584 22.8373 8.536 23.5093 7.864C24.1813 7.176 25.2773 6.832 26.7973 6.832C28.3173 6.832 29.4053 7.176 30.0613 7.864C30.7333 8.536 31.0693 9.584 31.0693 11.008C31.0693 12.48 30.7333 13.552 30.0613 14.224C29.4053 14.896 28.3173 15.232 26.7973 15.232ZM26.7973 12.568C27.1653 12.568 27.4053 12.472 27.5173 12.28C27.6453 12.072 27.7093 11.672 27.7093 11.08C27.7093 10.472 27.6453 10.064 27.5173 9.856C27.4053 9.632 27.1653 9.52 26.7973 9.52C26.4293 9.52 26.1813 9.632 26.0533 9.856C25.9253 10.064 25.8613 10.472 25.8613 11.08C25.8613 11.672 25.9253 12.072 26.0533 12.28C26.1813 12.472 26.4293 12.568 26.7973 12.568ZM29.8693 8.104L27.5413 7.24C27.5253 6.68 27.5333 6.152 27.5653 5.656C27.5973 5.144 27.6373 4.688 27.6853 4.288C27.7173 4.112 27.8133 4.024 27.9733 4.024H30.1813C30.4213 4.024 30.5093 4.136 30.4453 4.36C30.2853 5.064 30.1573 5.712 30.0613 6.304C29.9653 6.88 29.9013 7.48 29.8693 8.104ZM38.8328 19C38.6568 19 38.5448 18.904 38.4968 18.712C38.4648 18.504 38.4248 18.216 38.3768 17.848C38.3448 17.464 38.3128 17.104 38.2808 16.768L37.9448 16.072V10.624C37.9448 10.192 37.8808 9.904 37.7528 9.76C37.6248 9.6 37.3928 9.52 37.0568 9.52C36.4008 9.52 36.1128 9.912 36.1928 10.696C36.2248 10.904 36.1208 11.008 35.8808 11.008H33.2168C33.0408 11.008 32.9368 10.888 32.9048 10.648C32.8088 9.4 33.1288 8.456 33.8648 7.816C34.6008 7.16 35.7128 6.832 37.2008 6.832C38.7208 6.832 39.8248 7.144 40.5128 7.768C41.2168 8.392 41.5688 9.384 41.5688 10.744V15.88C41.5688 16.536 41.5768 17.08 41.5928 17.512C41.6088 17.928 41.6328 18.312 41.6648 18.664C41.6968 18.888 41.6008 19 41.3768 19H38.8328ZM35.0648 19.192C34.2488 19.192 33.6088 18.904 33.1448 18.328C32.6808 17.752 32.4488 16.944 32.4488 15.904C32.4488 14.736 32.7448 13.848 33.3368 13.24C33.9448 12.632 34.9848 12.248 36.4568 12.088L38.2088 11.872L38.1848 13.792L37.2008 13.888C36.7208 13.968 36.3768 14.12 36.1688 14.344C35.9768 14.568 35.8808 14.912 35.8808 15.376C35.8808 15.76 35.9368 16.048 36.0488 16.24C36.1768 16.432 36.3688 16.528 36.6248 16.528C36.8968 16.528 37.1688 16.424 37.4408 16.216C37.7288 16.008 38.0408 15.672 38.3768 15.208L38.6648 17.08C38.0728 17.768 37.5048 18.296 36.9608 18.664C36.4168 19.016 35.7848 19.192 35.0648 19.192ZM51.6227 19.192C49.7667 19.192 48.4387 18.776 47.6387 17.944C46.8387 17.112 46.5187 15.904 46.6787 14.32C46.6947 14.064 46.7987 13.936 46.9907 13.936H50.0627C50.2547 13.936 50.3347 14.056 50.3027 14.296C50.2867 14.824 50.3907 15.248 50.6147 15.568C50.8387 15.872 51.1987 16.024 51.6947 16.024C52.1907 16.024 52.5507 15.928 52.7747 15.736C52.9987 15.544 53.1107 15.24 53.1107 14.824C53.1107 14.6 53.0707 14.4 52.9907 14.224C52.9267 14.032 52.8147 13.864 52.6547 13.72C52.4947 13.56 52.2787 13.4 52.0067 13.24L49.4147 11.68C48.4387 11.088 47.7427 10.456 47.3267 9.784C46.9107 9.112 46.7107 8.264 46.7267 7.24C46.7427 5.896 47.1427 4.872 47.9267 4.168C48.7267 3.448 49.9267 3.088 51.5267 3.088C53.3347 3.088 54.6627 3.496 55.5107 4.312C56.3587 5.112 56.7187 6.272 56.5907 7.792C56.5747 8.08 56.4707 8.224 56.2787 8.224H53.1587C52.9507 8.224 52.8627 8.08 52.8947 7.792C52.9267 7.376 52.8387 7.016 52.6307 6.712C52.4387 6.392 52.1187 6.232 51.6707 6.232C51.2707 6.232 50.9667 6.32 50.7587 6.496C50.5667 6.672 50.4707 6.944 50.4707 7.312C50.4547 7.68 50.5427 7.984 50.7347 8.224C50.9267 8.448 51.2147 8.664 51.5987 8.872L54.1907 10.384C54.8467 10.784 55.3667 11.2 55.7507 11.632C56.1507 12.048 56.4307 12.512 56.5907 13.024C56.7667 13.52 56.8467 14.136 56.8307 14.872C56.8307 16.296 56.4227 17.376 55.6067 18.112C54.7907 18.832 53.4627 19.192 51.6227 19.192ZM63.1802 19.192C61.7722 19.192 60.7802 18.864 60.2042 18.208C59.6282 17.536 59.3402 16.408 59.3402 14.824V10.12H58.0202C57.8282 10.12 57.7322 10.016 57.7322 9.808V7.36C57.7322 7.152 57.8282 7.048 58.0202 7.048H59.4602L59.8202 4.24C59.8682 4.032 59.9722 3.928 60.1322 3.928H62.6762C62.8682 3.928 62.9642 4.032 62.9642 4.24V7.048H65.3402C65.5642 7.048 65.6762 7.152 65.6762 7.36V9.808C65.6762 10.016 65.5642 10.12 65.3402 10.12H62.9642V14.56C62.9642 15.088 63.0442 15.48 63.2042 15.736C63.3642 15.976 63.6522 16.096 64.0682 16.096C64.2602 16.096 64.4522 16.072 64.6442 16.024C64.8522 15.976 65.0842 15.904 65.3402 15.808C65.5802 15.728 65.7002 15.816 65.7002 16.072V18.472C65.7002 18.664 65.6122 18.784 65.4362 18.832C65.1482 18.944 64.8042 19.032 64.4042 19.096C64.0202 19.16 63.6122 19.192 63.1802 19.192ZM69.6223 19.192C68.6943 19.192 68.0143 18.912 67.5823 18.352C67.1503 17.792 66.9343 16.912 66.9343 15.712V7.36C66.9343 7.152 67.0383 7.048 67.2463 7.048H70.2463C70.4543 7.048 70.5583 7.152 70.5583 7.36V14.968C70.5583 15.368 70.6143 15.656 70.7263 15.832C70.8383 15.992 71.0143 16.072 71.2543 16.072C71.5263 16.072 71.7983 15.984 72.0703 15.808C72.3423 15.632 72.6063 15.408 72.8623 15.136L73.2943 16.984C72.8463 17.592 72.3023 18.112 71.6623 18.544C71.0383 18.976 70.3583 19.192 69.6223 19.192ZM73.4623 19C73.2863 19 73.1663 18.912 73.1023 18.736C73.0703 18.48 73.0303 18.168 72.9823 17.8C72.9503 17.432 72.9343 17.096 72.9343 16.792L72.5743 15.712V7.36C72.5743 7.152 72.6783 7.048 72.8863 7.048H75.8863C76.0943 7.048 76.1983 7.152 76.1983 7.36V15.88C76.1983 16.392 76.1983 16.888 76.1983 17.368C76.2143 17.832 76.2463 18.264 76.2943 18.664C76.3263 18.888 76.2303 19 76.0063 19H73.4623ZM80.5425 19.192C79.6145 19.192 78.9265 18.92 78.4785 18.376C78.0305 17.816 77.8065 16.928 77.8065 15.712V10.888C77.8065 9.496 78.0785 8.472 78.6225 7.816C79.1825 7.16 79.9825 6.832 81.0225 6.832C81.4865 6.832 81.9745 6.896 82.4865 7.024C83.0145 7.152 83.4705 7.328 83.8545 7.552L83.8785 10.144C83.6225 10.016 83.3665 9.928 83.1105 9.88C82.8705 9.816 82.6465 9.784 82.4385 9.784C82.1025 9.784 81.8465 9.904 81.6705 10.144C81.5105 10.368 81.4305 10.696 81.4305 11.128V15.088C81.4305 15.424 81.4945 15.672 81.6225 15.832C81.7505 15.992 81.9505 16.072 82.2225 16.072C82.5265 16.072 82.8065 15.992 83.0625 15.832C83.3185 15.672 83.5665 15.448 83.8065 15.16L84.2625 16.984C83.8305 17.592 83.2945 18.112 82.6545 18.544C82.0305 18.976 81.3265 19.192 80.5425 19.192ZM84.4065 19C84.2305 19 84.1265 18.904 84.0945 18.712C84.0305 18.472 83.9825 18.168 83.9505 17.8C83.9345 17.416 83.9185 17.08 83.9025 16.792L83.5425 15.856V2.92C83.5425 2.712 83.6465 2.608 83.8545 2.608H86.8785C87.0705 2.608 87.1665 2.712 87.1665 2.92V15.88C87.1665 16.392 87.1745 16.888 87.1905 17.368C87.2065 17.848 87.2305 18.272 87.2625 18.64C87.2785 18.88 87.1905 19 86.9985 19H84.4065ZM89.2073 19C88.9993 19 88.8953 18.896 88.8953 18.688V7.36C88.8953 7.152 88.9993 7.048 89.2073 7.048H92.2073C92.4153 7.048 92.5193 7.152 92.5193 7.36V18.688C92.5193 18.896 92.4153 19 92.2073 19H89.2073ZM90.6953 5.704C90.0713 5.704 89.5753 5.552 89.2073 5.248C88.8553 4.928 88.6793 4.496 88.6793 3.952V3.472C88.6793 2.912 88.8553 2.48 89.2073 2.176C89.5753 1.856 90.0713 1.696 90.6953 1.696C91.3513 1.696 91.8473 1.856 92.1833 2.176C92.5353 2.48 92.7113 2.912 92.7113 3.472V3.952C92.7113 4.496 92.5353 4.928 92.1833 5.248C91.8473 5.552 91.3513 5.704 90.6953 5.704ZM98.8476 19.192C97.3436 19.192 96.1676 18.808 95.3196 18.04C94.4716 17.256 94.0476 16.12 94.0476 14.632V11.392C94.0476 9.92 94.4716 8.792 95.3196 8.008C96.1676 7.224 97.3436 6.832 98.8476 6.832C100.352 6.832 101.528 7.224 102.376 8.008C103.224 8.792 103.648 9.92 103.648 11.392V14.632C103.648 16.12 103.224 17.256 102.376 18.04C101.544 18.808 100.368 19.192 98.8476 19.192ZM98.8476 16.096C99.2636 16.096 99.5596 15.976 99.7356 15.736C99.9276 15.48 100.024 15.072 100.024 14.512V11.536C100.024 10.96 99.9276 10.552 99.7356 10.312C99.5596 10.072 99.2636 9.952 98.8476 9.952C98.4476 9.952 98.1516 10.072 97.9596 10.312C97.7676 10.552 97.6716 10.96 97.6716 11.536V14.512C97.6716 15.072 97.7676 15.48 97.9596 15.736C98.1516 15.976 98.4476 16.096 98.8476 16.096Z" fill="white"/>
</svg>
