<svg width="260" height="70" viewBox="0 0 260 70" fill="none" xmlns="http://www.w3.org/2000/svg">
<path d="M1.344 19C1.152 19 1.056 18.896 1.056 18.688V3.592C1.056 3.384 1.152 3.28 1.344 3.28H4.488C4.696 3.28 4.8 3.384 4.8 3.592V18.688C4.8 18.896 4.696 19 4.488 19H1.344ZM12.7959 19C12.5879 19 12.4839 18.896 12.4839 18.688V11.008C12.4839 10.64 12.4199 10.376 12.2919 10.216C12.1639 10.056 11.9479 9.976 11.6439 9.976C11.3879 9.976 11.1319 10.056 10.8759 10.216C10.6199 10.376 10.3639 10.584 10.1079 10.84L9.65194 9.04C10.0999 8.448 10.6359 7.936 11.2599 7.504C11.8839 7.056 12.6039 6.832 13.4199 6.832C14.3319 6.832 15.0039 7.112 15.4359 7.672C15.8839 8.216 16.1079 9.096 16.1079 10.312V18.688C16.1079 18.896 16.0039 19 15.7959 19H12.7959ZM7.01194 19C6.80394 19 6.69994 18.896 6.69994 18.688V10.168C6.69994 9.64 6.69194 9.144 6.67594 8.68C6.65994 8.2 6.63594 7.776 6.60394 7.408C6.58794 7.168 6.68394 7.048 6.89194 7.048H9.48394C9.64394 7.048 9.73994 7.144 9.77194 7.336C9.80394 7.56 9.83594 7.872 9.86794 8.272C9.91594 8.656 9.94794 9 9.96394 9.304L10.3239 10.336V18.688C10.3239 18.896 10.2199 19 10.0119 19H7.01194ZM22.7036 19.192C21.2956 19.192 20.3036 18.864 19.7276 18.208C19.1516 17.536 18.8636 16.408 18.8636 14.824V10.12H17.5436C17.3516 10.12 17.2556 10.016 17.2556 9.808V7.36C17.2556 7.152 17.3516 7.048 17.5436 7.048H18.9836L19.3436 4.24C19.3916 4.032 19.4956 3.928 19.6556 3.928H22.1996C22.3916 3.928 22.4876 4.032 22.4876 4.24V7.048H24.8636C25.0876 7.048 25.1996 7.152 25.1996 7.36V9.808C25.1996 10.016 25.0876 10.12 24.8636 10.12H22.4876V14.56C22.4876 15.088 22.5676 15.48 22.7276 15.736C22.8876 15.976 23.1756 16.096 23.5916 16.096C23.7836 16.096 23.9756 16.072 24.1676 16.024C24.3756 15.976 24.6076 15.904 24.8636 15.808C25.1036 15.728 25.2236 15.816 25.2236 16.072V18.472C25.2236 18.664 25.1356 18.784 24.9596 18.832C24.6716 18.944 24.3276 19.032 23.9276 19.096C23.5436 19.16 23.1356 19.192 22.7036 19.192ZM31.0423 19.192C29.4263 19.192 28.2263 18.832 27.4423 18.112C26.6583 17.392 26.2663 16.28 26.2663 14.776V11.464C26.2663 9.96 26.6663 8.816 27.4663 8.032C28.2663 7.232 29.4423 6.832 30.9943 6.832C32.6103 6.832 33.8103 7.224 34.5943 8.008C35.3783 8.776 35.7703 9.952 35.7703 11.536V13.552C35.7703 13.776 35.6663 13.888 35.4583 13.888H29.8423V15.016C29.8423 15.512 29.9303 15.88 30.1063 16.12C30.2983 16.344 30.6023 16.456 31.0183 16.456C31.3863 16.456 31.6583 16.376 31.8343 16.216C32.0263 16.056 32.1143 15.792 32.0983 15.424C32.0983 15.248 32.2023 15.16 32.4103 15.16H35.2663C35.4423 15.16 35.5463 15.264 35.5783 15.472C35.5783 16.72 35.2103 17.656 34.4743 18.28C33.7383 18.888 32.5943 19.192 31.0423 19.192ZM29.8423 11.824H32.2183V11.032C32.2183 10.536 32.1223 10.176 31.9303 9.952C31.7543 9.712 31.4663 9.592 31.0663 9.592C30.6343 9.592 30.3223 9.712 30.1303 9.952C29.9383 10.176 29.8423 10.536 29.8423 11.032V11.824ZM37.6682 19C37.4602 19 37.3562 18.896 37.3562 18.688V10.168C37.3562 9.64 37.3482 9.144 37.3322 8.68C37.3162 8.216 37.2922 7.792 37.2602 7.408C37.2442 7.168 37.3402 7.048 37.5482 7.048H40.1402C40.3002 7.048 40.3962 7.136 40.4282 7.312C40.4762 7.568 40.5162 7.88 40.5482 8.248C40.5802 8.616 40.6042 8.96 40.6202 9.28L40.9802 10.384V18.688C40.9802 18.896 40.8762 19 40.6682 19H37.6682ZM40.7162 11.848L40.4522 8.848C40.7082 8.496 40.9962 8.176 41.3162 7.888C41.6362 7.584 41.9722 7.336 42.3242 7.144C42.6762 6.936 43.0282 6.832 43.3802 6.832C43.4922 6.832 43.5962 6.84 43.6922 6.856C43.7882 6.872 43.8762 6.896 43.9562 6.928C44.0522 6.96 44.1082 7.008 44.1242 7.072C44.1562 7.136 44.1722 7.216 44.1722 7.312C44.1722 7.728 44.1642 8.2 44.1482 8.728C44.1482 9.256 44.1242 9.752 44.0762 10.216C44.0602 10.424 43.9642 10.52 43.7882 10.504C43.6922 10.488 43.5882 10.472 43.4762 10.456C43.3642 10.44 43.2442 10.432 43.1162 10.432C42.8602 10.432 42.5882 10.488 42.3002 10.6C42.0282 10.712 41.7562 10.872 41.4842 11.08C41.2122 11.288 40.9562 11.544 40.7162 11.848ZM51.4444 19C51.2364 19 51.1324 18.896 51.1324 18.688V11.008C51.1324 10.64 51.0684 10.376 50.9404 10.216C50.8124 10.056 50.5964 9.976 50.2924 9.976C50.0364 9.976 49.7804 10.056 49.5244 10.216C49.2684 10.376 49.0124 10.584 48.7564 10.84L48.3004 9.04C48.7484 8.448 49.2844 7.936 49.9084 7.504C50.5324 7.056 51.2524 6.832 52.0684 6.832C52.9804 6.832 53.6524 7.112 54.0844 7.672C54.5324 8.216 54.7564 9.096 54.7564 10.312V18.688C54.7564 18.896 54.6524 19 54.4444 19H51.4444ZM45.6604 19C45.4524 19 45.3484 18.896 45.3484 18.688V10.168C45.3484 9.64 45.3404 9.144 45.3244 8.68C45.3084 8.2 45.2844 7.776 45.2524 7.408C45.2364 7.168 45.3324 7.048 45.5404 7.048H48.1324C48.2924 7.048 48.3884 7.144 48.4204 7.336C48.4524 7.56 48.4844 7.872 48.5164 8.272C48.5644 8.656 48.5964 9 48.6124 9.304L48.9724 10.336V18.688C48.9724 18.896 48.8684 19 48.6604 19H45.6604ZM62.4578 19C62.2818 19 62.1698 18.904 62.1218 18.712C62.0898 18.504 62.0498 18.216 62.0018 17.848C61.9698 17.464 61.9378 17.104 61.9058 16.768L61.5698 16.072V10.624C61.5698 10.192 61.5058 9.904 61.3778 9.76C61.2498 9.6 61.0178 9.52 60.6818 9.52C60.0258 9.52 59.7378 9.912 59.8178 10.696C59.8498 10.904 59.7458 11.008 59.5058 11.008H56.8418C56.6658 11.008 56.5618 10.888 56.5298 10.648C56.4338 9.4 56.7538 8.456 57.4898 7.816C58.2258 7.16 59.3378 6.832 60.8258 6.832C62.3458 6.832 63.4498 7.144 64.1378 7.768C64.8418 8.392 65.1938 9.384 65.1938 10.744V15.88C65.1938 16.536 65.2018 17.08 65.2178 17.512C65.2338 17.928 65.2578 18.312 65.2898 18.664C65.3218 18.888 65.2258 19 65.0018 19H62.4578ZM58.6898 19.192C57.8738 19.192 57.2338 18.904 56.7698 18.328C56.3058 17.752 56.0738 16.944 56.0738 15.904C56.0738 14.736 56.3698 13.848 56.9618 13.24C57.5698 12.632 58.6098 12.248 60.0818 12.088L61.8338 11.872L61.8098 13.792L60.8258 13.888C60.3458 13.968 60.0018 14.12 59.7938 14.344C59.6018 14.568 59.5058 14.912 59.5058 15.376C59.5058 15.76 59.5618 16.048 59.6738 16.24C59.8018 16.432 59.9938 16.528 60.2498 16.528C60.5218 16.528 60.7938 16.424 61.0658 16.216C61.3538 16.008 61.6658 15.672 62.0018 15.208L62.2898 17.08C61.6978 17.768 61.1298 18.296 60.5858 18.664C60.0418 19.016 59.4098 19.192 58.6898 19.192ZM71.7114 19.192C70.3034 19.192 69.3114 18.864 68.7354 18.208C68.1594 17.536 67.8714 16.408 67.8714 14.824V10.12H66.5514C66.3594 10.12 66.2634 10.016 66.2634 9.808V7.36C66.2634 7.152 66.3594 7.048 66.5514 7.048H67.9914L68.3514 4.24C68.3994 4.032 68.5034 3.928 68.6634 3.928H71.2074C71.3994 3.928 71.4954 4.032 71.4954 4.24V7.048H73.8714C74.0954 7.048 74.2074 7.152 74.2074 7.36V9.808C74.2074 10.016 74.0954 10.12 73.8714 10.12H71.4954V14.56C71.4954 15.088 71.5754 15.48 71.7354 15.736C71.8954 15.976 72.1834 16.096 72.5994 16.096C72.7914 16.096 72.9834 16.072 73.1754 16.024C73.3834 15.976 73.6154 15.904 73.8714 15.808C74.1114 15.728 74.2314 15.816 74.2314 16.072V18.472C74.2314 18.664 74.1434 18.784 73.9674 18.832C73.6794 18.944 73.3354 19.032 72.9354 19.096C72.5514 19.16 72.1434 19.192 71.7114 19.192ZM75.7776 19C75.5696 19 75.4656 18.896 75.4656 18.688V7.36C75.4656 7.152 75.5696 7.048 75.7776 7.048H78.7776C78.9856 7.048 79.0896 7.152 79.0896 7.36V18.688C79.0896 18.896 78.9856 19 78.7776 19H75.7776ZM77.2656 5.704C76.6416 5.704 76.1456 5.552 75.7776 5.248C75.4256 4.928 75.2496 4.496 75.2496 3.952V3.472C75.2496 2.912 75.4256 2.48 75.7776 2.176C76.1456 1.856 76.6416 1.696 77.2656 1.696C77.9216 1.696 78.4176 1.856 78.7536 2.176C79.1056 2.48 79.2816 2.912 79.2816 3.472V3.952C79.2816 4.496 79.1056 4.928 78.7536 5.248C78.4176 5.552 77.9216 5.704 77.2656 5.704ZM85.4179 19.192C83.9139 19.192 82.7379 18.808 81.8899 18.04C81.0419 17.256 80.6179 16.12 80.6179 14.632V11.392C80.6179 9.92 81.0419 8.792 81.8899 8.008C82.7379 7.224 83.9139 6.832 85.4179 6.832C86.9219 6.832 88.0979 7.224 88.9459 8.008C89.7939 8.792 90.2179 9.92 90.2179 11.392V14.632C90.2179 16.12 89.7939 17.256 88.9459 18.04C88.1139 18.808 86.9379 19.192 85.4179 19.192ZM85.4179 16.096C85.8339 16.096 86.1299 15.976 86.3059 15.736C86.4979 15.48 86.5939 15.072 86.5939 14.512V11.536C86.5939 10.96 86.4979 10.552 86.3059 10.312C86.1299 10.072 85.8339 9.952 85.4179 9.952C85.0179 9.952 84.7219 10.072 84.5299 10.312C84.3379 10.552 84.2419 10.96 84.2419 11.536V14.512C84.2419 15.072 84.3379 15.48 84.5299 15.736C84.7219 15.976 85.0179 16.096 85.4179 16.096ZM97.8506 19C97.6426 19 97.5386 18.896 97.5386 18.688V11.008C97.5386 10.64 97.4746 10.376 97.3466 10.216C97.2186 10.056 97.0026 9.976 96.6986 9.976C96.4426 9.976 96.1866 10.056 95.9306 10.216C95.6746 10.376 95.4186 10.584 95.1626 10.84L94.7066 9.04C95.1546 8.448 95.6906 7.936 96.3146 7.504C96.9386 7.056 97.6586 6.832 98.4746 6.832C99.3866 6.832 100.059 7.112 100.491 7.672C100.939 8.216 101.163 9.096 101.163 10.312V18.688C101.163 18.896 101.059 19 100.851 19H97.8506ZM92.0666 19C91.8586 19 91.7546 18.896 91.7546 18.688V10.168C91.7546 9.64 91.7466 9.144 91.7306 8.68C91.7146 8.2 91.6906 7.776 91.6586 7.408C91.6426 7.168 91.7386 7.048 91.9466 7.048H94.5386C94.6986 7.048 94.7946 7.144 94.8266 7.336C94.8586 7.56 94.8906 7.872 94.9226 8.272C94.9706 8.656 95.0026 9 95.0186 9.304L95.3786 10.336V18.688C95.3786 18.896 95.2746 19 95.0666 19H92.0666ZM108.864 19C108.688 19 108.576 18.904 108.528 18.712C108.496 18.504 108.456 18.216 108.408 17.848C108.376 17.464 108.344 17.104 108.312 16.768L107.976 16.072V10.624C107.976 10.192 107.912 9.904 107.784 9.76C107.656 9.6 107.424 9.52 107.088 9.52C106.432 9.52 106.144 9.912 106.224 10.696C106.256 10.904 106.152 11.008 105.912 11.008H103.248C103.072 11.008 102.968 10.888 102.936 10.648C102.84 9.4 103.16 8.456 103.896 7.816C104.632 7.16 105.744 6.832 107.232 6.832C108.752 6.832 109.856 7.144 110.544 7.768C111.248 8.392 111.6 9.384 111.6 10.744V15.88C111.6 16.536 111.608 17.08 111.624 17.512C111.64 17.928 111.664 18.312 111.696 18.664C111.728 18.888 111.632 19 111.408 19H108.864ZM105.096 19.192C104.28 19.192 103.64 18.904 103.176 18.328C102.712 17.752 102.48 16.944 102.48 15.904C102.48 14.736 102.776 13.848 103.368 13.24C103.976 12.632 105.016 12.248 106.488 12.088L108.24 11.872L108.216 13.792L107.232 13.888C106.752 13.968 106.408 14.12 106.2 14.344C106.008 14.568 105.912 14.912 105.912 15.376C105.912 15.76 105.968 16.048 106.08 16.24C106.208 16.432 106.4 16.528 106.656 16.528C106.928 16.528 107.2 16.424 107.472 16.216C107.76 16.008 108.072 15.672 108.408 15.208L108.696 17.08C108.104 17.768 107.536 18.296 106.992 18.664C106.448 19.016 105.816 19.192 105.096 19.192ZM113.606 19C113.398 19 113.294 18.896 113.294 18.688V2.92C113.294 2.712 113.398 2.608 113.606 2.608H116.606C116.814 2.608 116.918 2.712 116.918 2.92V18.688C116.918 18.896 116.814 19 116.606 19H113.606ZM126.206 19.192C124.654 19.192 123.542 18.88 122.87 18.256C122.214 17.632 121.95 16.672 122.078 15.376C122.11 15.152 122.214 15.04 122.39 15.04H125.102C125.294 15.04 125.39 15.16 125.39 15.4C125.374 15.816 125.43 16.128 125.558 16.336C125.686 16.544 125.902 16.648 126.206 16.648C126.51 16.648 126.734 16.584 126.878 16.456C127.022 16.312 127.094 16.088 127.094 15.784C127.094 15.496 127.014 15.264 126.854 15.088C126.71 14.896 126.454 14.696 126.086 14.488L123.878 13.216C123.286 12.864 122.83 12.448 122.51 11.968C122.206 11.488 122.054 10.888 122.054 10.168C122.054 9.08 122.398 8.256 123.086 7.696C123.774 7.12 124.83 6.832 126.254 6.832C127.758 6.832 128.846 7.128 129.518 7.72C130.206 8.312 130.55 9.192 130.55 10.36C130.534 10.568 130.43 10.672 130.238 10.672H127.55C127.438 10.672 127.358 10.64 127.31 10.576C127.262 10.512 127.238 10.424 127.238 10.312C127.27 10.008 127.214 9.784 127.07 9.64C126.942 9.48 126.734 9.4 126.446 9.4C126.19 9.4 125.998 9.456 125.87 9.568C125.742 9.68 125.678 9.848 125.678 10.072C125.678 10.312 125.742 10.512 125.87 10.672C125.998 10.832 126.23 11.008 126.566 11.2L128.678 12.4C129.366 12.8 129.878 13.248 130.214 13.744C130.55 14.24 130.718 14.88 130.718 15.664C130.718 16.832 130.342 17.712 129.59 18.304C128.854 18.896 127.726 19.192 126.206 19.192ZM136.769 19.192C135.265 19.192 134.089 18.808 133.241 18.04C132.393 17.256 131.969 16.12 131.969 14.632V11.392C131.969 9.92 132.393 8.792 133.241 8.008C134.089 7.224 135.265 6.832 136.769 6.832C138.273 6.832 139.449 7.224 140.297 8.008C141.145 8.792 141.569 9.92 141.569 11.392V14.632C141.569 16.12 141.145 17.256 140.297 18.04C139.465 18.808 138.289 19.192 136.769 19.192ZM136.769 16.096C137.185 16.096 137.481 15.976 137.657 15.736C137.849 15.48 137.945 15.072 137.945 14.512V11.536C137.945 10.96 137.849 10.552 137.657 10.312C137.481 10.072 137.185 9.952 136.769 9.952C136.369 9.952 136.073 10.072 135.881 10.312C135.689 10.552 135.593 10.96 135.593 11.536V14.512C135.593 15.072 135.689 15.48 135.881 15.736C136.073 15.976 136.369 16.096 136.769 16.096ZM144.426 19C144.346 19 144.274 18.968 144.21 18.904C144.162 18.84 144.138 18.768 144.138 18.688V10.12H142.842C142.634 10.12 142.53 10.016 142.53 9.808V7.36C142.53 7.152 142.634 7.048 142.842 7.048H144.138V6.304C144.138 5.008 144.442 4.04 145.05 3.4C145.658 2.744 146.57 2.416 147.786 2.416C148.362 2.416 148.882 2.448 149.346 2.512C149.826 2.56 150.186 2.624 150.426 2.704C150.57 2.784 150.642 2.896 150.642 3.04V5.248C150.642 5.504 150.53 5.584 150.306 5.488C150.098 5.44 149.874 5.392 149.634 5.344C149.394 5.296 149.138 5.272 148.866 5.272C148.482 5.272 148.202 5.376 148.026 5.584C147.85 5.776 147.762 6.08 147.762 6.496V7.048H149.586C149.794 7.048 149.898 7.152 149.898 7.36V9.808C149.898 10.016 149.794 10.12 149.586 10.12H147.762V18.688C147.762 18.768 147.73 18.84 147.666 18.904C147.602 18.968 147.53 19 147.45 19H144.426ZM156.415 19.192C155.007 19.192 154.015 18.864 153.439 18.208C152.863 17.536 152.575 16.408 152.575 14.824V10.12H151.255C151.063 10.12 150.967 10.016 150.967 9.808V7.36C150.967 7.152 151.063 7.048 151.255 7.048H152.695L153.055 4.24C153.103 4.032 153.207 3.928 153.367 3.928H155.911C156.103 3.928 156.199 4.032 156.199 4.24V7.048H158.575C158.799 7.048 158.911 7.152 158.911 7.36V9.808C158.911 10.016 158.799 10.12 158.575 10.12H156.199V14.56C156.199 15.088 156.279 15.48 156.439 15.736C156.599 15.976 156.887 16.096 157.303 16.096C157.495 16.096 157.687 16.072 157.879 16.024C158.087 15.976 158.319 15.904 158.575 15.808C158.815 15.728 158.935 15.816 158.935 16.072V18.472C158.935 18.664 158.847 18.784 158.671 18.832C158.383 18.944 158.039 19.032 157.639 19.096C157.255 19.16 156.847 19.192 156.415 19.192ZM162.806 19C162.63 19 162.518 18.912 162.47 18.736L159.806 7.384C159.758 7.16 159.838 7.048 160.046 7.048H163.238C163.43 7.048 163.534 7.152 163.55 7.36L164.246 12.136C164.342 12.68 164.414 13.216 164.462 13.744C164.51 14.272 164.558 14.808 164.606 15.352H164.678C164.774 14.824 164.862 14.304 164.942 13.792C165.038 13.264 165.134 12.736 165.23 12.208L165.638 10.024L165.278 7.696C165.246 7.44 165.334 7.312 165.542 7.312H168.254C168.43 7.312 168.542 7.408 168.59 7.6L169.262 12.184C169.326 12.728 169.39 13.264 169.454 13.792C169.534 14.304 169.606 14.824 169.67 15.352H169.742C169.79 14.808 169.846 14.272 169.91 13.744C169.974 13.2 170.038 12.664 170.102 12.136L170.822 7.36C170.838 7.152 170.942 7.048 171.134 7.048H174.35C174.558 7.048 174.638 7.16 174.59 7.384L171.902 18.736C171.854 18.912 171.742 19 171.566 19H168.35C168.142 19 168.022 18.912 167.99 18.736L167.654 17.056C167.59 16.576 167.518 16.08 167.438 15.568C167.374 15.04 167.302 14.384 167.222 13.6H167.126C167.062 14.384 166.99 15.04 166.91 15.568C166.846 16.08 166.766 16.576 166.67 17.056L166.382 18.736C166.334 18.912 166.222 19 166.046 19H162.806ZM181.591 19C181.415 19 181.303 18.904 181.255 18.712C181.223 18.504 181.183 18.216 181.135 17.848C181.103 17.464 181.071 17.104 181.039 16.768L180.703 16.072V10.624C180.703 10.192 180.639 9.904 180.511 9.76C180.383 9.6 180.151 9.52 179.815 9.52C179.159 9.52 178.871 9.912 178.951 10.696C178.983 10.904 178.879 11.008 178.639 11.008H175.975C175.799 11.008 175.695 10.888 175.663 10.648C175.567 9.4 175.887 8.456 176.623 7.816C177.359 7.16 178.471 6.832 179.959 6.832C181.479 6.832 182.583 7.144 183.271 7.768C183.975 8.392 184.327 9.384 184.327 10.744V15.88C184.327 16.536 184.335 17.08 184.351 17.512C184.367 17.928 184.391 18.312 184.423 18.664C184.455 18.888 184.359 19 184.135 19H181.591ZM177.823 19.192C177.007 19.192 176.367 18.904 175.903 18.328C175.439 17.752 175.207 16.944 175.207 15.904C175.207 14.736 175.503 13.848 176.095 13.24C176.703 12.632 177.743 12.248 179.215 12.088L180.967 11.872L180.943 13.792L179.959 13.888C179.479 13.968 179.135 14.12 178.927 14.344C178.735 14.568 178.639 14.912 178.639 15.376C178.639 15.76 178.695 16.048 178.807 16.24C178.935 16.432 179.127 16.528 179.383 16.528C179.655 16.528 179.927 16.424 180.199 16.216C180.487 16.008 180.799 15.672 181.135 15.208L181.423 17.08C180.831 17.768 180.263 18.296 179.719 18.664C179.175 19.016 178.543 19.192 177.823 19.192ZM186.332 19C186.124 19 186.02 18.896 186.02 18.688V10.168C186.02 9.64 186.012 9.144 185.996 8.68C185.98 8.216 185.956 7.792 185.924 7.408C185.908 7.168 186.004 7.048 186.212 7.048H188.804C188.964 7.048 189.06 7.136 189.092 7.312C189.14 7.568 189.18 7.88 189.212 8.248C189.244 8.616 189.268 8.96 189.284 9.28L189.644 10.384V18.688C189.644 18.896 189.54 19 189.332 19H186.332ZM189.38 11.848L189.116 8.848C189.372 8.496 189.66 8.176 189.98 7.888C190.3 7.584 190.636 7.336 190.988 7.144C191.34 6.936 191.692 6.832 192.044 6.832C192.156 6.832 192.26 6.84 192.356 6.856C192.452 6.872 192.54 6.896 192.62 6.928C192.716 6.96 192.772 7.008 192.788 7.072C192.82 7.136 192.836 7.216 192.836 7.312C192.836 7.728 192.828 8.2 192.812 8.728C192.812 9.256 192.788 9.752 192.74 10.216C192.724 10.424 192.628 10.52 192.452 10.504C192.356 10.488 192.252 10.472 192.14 10.456C192.028 10.44 191.908 10.432 191.78 10.432C191.524 10.432 191.252 10.488 190.964 10.6C190.692 10.712 190.42 10.872 190.148 11.08C189.876 11.288 189.62 11.544 189.38 11.848ZM198.503 19.192C196.887 19.192 195.687 18.832 194.903 18.112C194.119 17.392 193.727 16.28 193.727 14.776V11.464C193.727 9.96 194.127 8.816 194.927 8.032C195.727 7.232 196.903 6.832 198.455 6.832C200.071 6.832 201.271 7.224 202.055 8.008C202.839 8.776 203.231 9.952 203.231 11.536V13.552C203.231 13.776 203.127 13.888 202.919 13.888H197.303V15.016C197.303 15.512 197.391 15.88 197.567 16.12C197.759 16.344 198.063 16.456 198.479 16.456C198.847 16.456 199.119 16.376 199.295 16.216C199.487 16.056 199.575 15.792 199.559 15.424C199.559 15.248 199.663 15.16 199.871 15.16H202.727C202.903 15.16 203.007 15.264 203.039 15.472C203.039 16.72 202.671 17.656 201.935 18.28C201.199 18.888 200.055 19.192 198.503 19.192ZM197.303 11.824H199.679V11.032C199.679 10.536 199.583 10.176 199.391 9.952C199.215 9.712 198.927 9.592 198.527 9.592C198.095 9.592 197.783 9.712 197.591 9.952C197.399 10.176 197.303 10.536 197.303 11.032V11.824ZM6.912 42.192C6.48 42.192 6 42.128 5.472 42C4.944 41.888 4.488 41.728 4.104 41.52L4.08 38.832C4.304 38.96 4.544 39.064 4.8 39.144C5.072 39.224 5.312 39.264 5.52 39.264C5.872 39.264 6.128 39.152 6.288 38.928C6.448 38.688 6.528 38.32 6.528 37.824V34.056C6.528 33.688 6.472 33.416 6.36 33.24C6.248 33.064 6.04 32.976 5.736 32.976C5.48 32.976 5.216 33.056 4.944 33.216C4.688 33.376 4.432 33.584 4.176 33.84L3.72 31.92C4.248 31.376 4.8 30.896 5.376 30.48C5.968 30.048 6.68 29.832 7.512 29.832C8.392 29.832 9.048 30.12 9.48 30.696C9.928 31.256 10.152 32.152 10.152 33.384V38.016C10.152 39.472 9.88 40.536 9.336 41.208C8.792 41.864 7.984 42.192 6.912 42.192ZM1.176 46.44C0.968 46.44 0.864 46.336 0.864 46.128V33.144C0.864 32.632 0.856 32.144 0.84 31.68C0.824 31.216 0.8 30.792 0.768 30.408C0.752 30.168 0.848 30.048 1.056 30.048H3.648C3.808 30.048 3.904 30.136 3.936 30.312C3.968 30.536 4 30.824 4.032 31.176C4.08 31.528 4.112 31.856 4.128 32.16L4.488 33.312V46.128C4.488 46.336 4.384 46.44 4.176 46.44H1.176ZM12.051 42C11.843 42 11.739 41.896 11.739 41.688V33.168C11.739 32.64 11.731 32.144 11.715 31.68C11.699 31.216 11.675 30.792 11.643 30.408C11.627 30.168 11.723 30.048 11.931 30.048H14.523C14.683 30.048 14.779 30.136 14.811 30.312C14.859 30.568 14.899 30.88 14.931 31.248C14.963 31.616 14.987 31.96 15.003 32.28L15.363 33.384V41.688C15.363 41.896 15.259 42 15.051 42H12.051ZM15.099 34.848L14.835 31.848C15.091 31.496 15.379 31.176 15.699 30.888C16.019 30.584 16.355 30.336 16.707 30.144C17.059 29.936 17.411 29.832 17.763 29.832C17.875 29.832 17.979 29.84 18.075 29.856C18.171 29.872 18.259 29.896 18.339 29.928C18.435 29.96 18.491 30.008 18.507 30.072C18.539 30.136 18.555 30.216 18.555 30.312C18.555 30.728 18.547 31.2 18.531 31.728C18.531 32.256 18.507 32.752 18.459 33.216C18.443 33.424 18.347 33.52 18.171 33.504C18.075 33.488 17.971 33.472 17.859 33.456C17.747 33.44 17.627 33.432 17.499 33.432C17.243 33.432 16.971 33.488 16.683 33.6C16.411 33.712 16.139 33.872 15.867 34.08C15.595 34.288 15.339 34.544 15.099 34.848ZM24.246 42.192C22.742 42.192 21.566 41.808 20.718 41.04C19.87 40.256 19.446 39.12 19.446 37.632V34.392C19.446 32.92 19.87 31.792 20.718 31.008C21.566 30.224 22.742 29.832 24.246 29.832C25.75 29.832 26.926 30.224 27.774 31.008C28.622 31.792 29.046 32.92 29.046 34.392V37.632C29.046 39.12 28.622 40.256 27.774 41.04C26.942 41.808 25.766 42.192 24.246 42.192ZM24.246 39.096C24.662 39.096 24.958 38.976 25.134 38.736C25.326 38.48 25.422 38.072 25.422 37.512V34.536C25.422 33.96 25.326 33.552 25.134 33.312C24.958 33.072 24.662 32.952 24.246 32.952C23.846 32.952 23.55 33.072 23.358 33.312C23.166 33.552 23.07 33.96 23.07 34.536V37.512C23.07 38.072 23.166 38.48 23.358 38.736C23.55 38.976 23.846 39.096 24.246 39.096ZM33.1067 42C32.9307 42 32.8187 41.92 32.7707 41.76L29.8427 30.384C29.7947 30.16 29.8747 30.048 30.0827 30.048H33.3707C33.5467 30.048 33.6587 30.144 33.7067 30.336L34.5467 35.496C34.6267 36.008 34.6987 36.496 34.7627 36.96C34.8267 37.424 34.8827 37.912 34.9307 38.424H34.9787C35.0427 37.912 35.1147 37.424 35.1947 36.96C35.2747 36.496 35.3467 36 35.4107 35.472L36.2747 30.336C36.3227 30.144 36.4347 30.048 36.6107 30.048H39.8747C40.0987 30.048 40.1787 30.168 40.1147 30.408L37.1627 41.76C37.1147 41.92 37.0027 42 36.8267 42H33.1067ZM41.5823 42C41.3743 42 41.2703 41.896 41.2703 41.688V30.36C41.2703 30.152 41.3743 30.048 41.5823 30.048H44.5823C44.7903 30.048 44.8943 30.152 44.8943 30.36V41.688C44.8943 41.896 44.7903 42 44.5823 42H41.5823ZM43.0703 28.704C42.4463 28.704 41.9503 28.552 41.5823 28.248C41.2303 27.928 41.0543 27.496 41.0543 26.952V26.472C41.0543 25.912 41.2303 25.48 41.5823 25.176C41.9503 24.856 42.4463 24.696 43.0703 24.696C43.7263 24.696 44.2223 24.856 44.5583 25.176C44.9103 25.48 45.0863 25.912 45.0863 26.472V26.952C45.0863 27.496 44.9103 27.928 44.5583 28.248C44.2223 28.552 43.7263 28.704 43.0703 28.704ZM49.2066 42.192C48.2786 42.192 47.5906 41.92 47.1426 41.376C46.6946 40.816 46.4706 39.928 46.4706 38.712V33.888C46.4706 32.496 46.7426 31.472 47.2866 30.816C47.8466 30.16 48.6466 29.832 49.6866 29.832C50.1506 29.832 50.6386 29.896 51.1506 30.024C51.6786 30.152 52.1346 30.328 52.5186 30.552L52.5426 33.144C52.2866 33.016 52.0306 32.928 51.7746 32.88C51.5346 32.816 51.3106 32.784 51.1026 32.784C50.7666 32.784 50.5106 32.904 50.3346 33.144C50.1746 33.368 50.0946 33.696 50.0946 34.128V38.088C50.0946 38.424 50.1586 38.672 50.2866 38.832C50.4146 38.992 50.6146 39.072 50.8866 39.072C51.1906 39.072 51.4706 38.992 51.7266 38.832C51.9826 38.672 52.2306 38.448 52.4706 38.16L52.9266 39.984C52.4946 40.592 51.9586 41.112 51.3186 41.544C50.6946 41.976 49.9906 42.192 49.2066 42.192ZM53.0706 42C52.8946 42 52.7906 41.904 52.7586 41.712C52.6946 41.472 52.6466 41.168 52.6146 40.8C52.5986 40.416 52.5826 40.08 52.5666 39.792L52.2066 38.856V25.92C52.2066 25.712 52.3106 25.608 52.5186 25.608H55.5426C55.7346 25.608 55.8306 25.712 55.8306 25.92V38.88C55.8306 39.392 55.8386 39.888 55.8546 40.368C55.8706 40.848 55.8946 41.272 55.9266 41.64C55.9426 41.88 55.8546 42 55.6626 42H53.0706ZM62.1673 42.192C60.5513 42.192 59.3513 41.832 58.5673 41.112C57.7833 40.392 57.3913 39.28 57.3913 37.776V34.464C57.3913 32.96 57.7913 31.816 58.5913 31.032C59.3913 30.232 60.5673 29.832 62.1193 29.832C63.7353 29.832 64.9353 30.224 65.7193 31.008C66.5033 31.776 66.8953 32.952 66.8953 34.536V36.552C66.8953 36.776 66.7913 36.888 66.5833 36.888H60.9673V38.016C60.9673 38.512 61.0553 38.88 61.2313 39.12C61.4233 39.344 61.7273 39.456 62.1433 39.456C62.5113 39.456 62.7833 39.376 62.9593 39.216C63.1513 39.056 63.2393 38.792 63.2233 38.424C63.2233 38.248 63.3273 38.16 63.5353 38.16H66.3913C66.5673 38.16 66.6713 38.264 66.7033 38.472C66.7033 39.72 66.3353 40.656 65.5993 41.28C64.8633 41.888 63.7193 42.192 62.1673 42.192ZM60.9673 34.824H63.3433V34.032C63.3433 33.536 63.2473 33.176 63.0553 32.952C62.8793 32.712 62.5913 32.592 62.1913 32.592C61.7593 32.592 61.4473 32.712 61.2553 32.952C61.0633 33.176 60.9673 33.536 60.9673 34.032V34.824ZM68.7932 42C68.5852 42 68.4812 41.896 68.4812 41.688V33.168C68.4812 32.64 68.4732 32.144 68.4572 31.68C68.4412 31.216 68.4172 30.792 68.3852 30.408C68.3692 30.168 68.4652 30.048 68.6732 30.048H71.2652C71.4252 30.048 71.5212 30.136 71.5532 30.312C71.6012 30.568 71.6412 30.88 71.6732 31.248C71.7052 31.616 71.7292 31.96 71.7452 32.28L72.1052 33.384V41.688C72.1052 41.896 72.0012 42 71.7932 42H68.7932ZM71.8412 34.848L71.5772 31.848C71.8332 31.496 72.1212 31.176 72.4412 30.888C72.7612 30.584 73.0972 30.336 73.4492 30.144C73.8012 29.936 74.1532 29.832 74.5052 29.832C74.6172 29.832 74.7212 29.84 74.8172 29.856C74.9132 29.872 75.0012 29.896 75.0812 29.928C75.1772 29.96 75.2332 30.008 75.2492 30.072C75.2812 30.136 75.2972 30.216 75.2972 30.312C75.2972 30.728 75.2892 31.2 75.2732 31.728C75.2732 32.256 75.2492 32.752 75.2012 33.216C75.1852 33.424 75.0892 33.52 74.9132 33.504C74.8172 33.488 74.7132 33.472 74.6012 33.456C74.4892 33.44 74.3692 33.432 74.2412 33.432C73.9852 33.432 73.7132 33.488 73.4252 33.6C73.1532 33.712 72.8812 33.872 72.6092 34.08C72.3372 34.288 72.0812 34.544 71.8412 34.848Z" fill="white"/>
</svg>
