<svg width="260" height="70" viewBox="0 0 260 70" fill="none" xmlns="http://www.w3.org/2000/svg">
<path d="M1.344 19C1.152 19 1.056 18.896 1.056 18.688V3.592C1.056 3.384 1.152 3.28 1.344 3.28H9.816C10.008 3.28 10.104 3.384 10.104 3.592V6.256C10.104 6.464 10.008 6.568 9.816 6.568H4.8V9.736H9.096C9.288 9.736 9.384 9.848 9.384 10.072V12.64C9.384 12.848 9.288 12.952 9.096 12.952H4.8V18.688C4.8 18.896 4.704 19 4.512 19H1.344ZM11.9104 19C11.7024 19 11.5984 18.896 11.5984 18.688V7.36C11.5984 7.152 11.7024 7.048 11.9104 7.048H14.9104C15.1184 7.048 15.2224 7.152 15.2224 7.36V18.688C15.2224 18.896 15.1184 19 14.9104 19H11.9104ZM13.3984 5.704C12.7744 5.704 12.2784 5.552 11.9104 5.248C11.5584 4.928 11.3824 4.496 11.3824 3.952V3.472C11.3824 2.912 11.5584 2.48 11.9104 2.176C12.2784 1.856 12.7744 1.696 13.3984 1.696C14.0544 1.696 14.5504 1.856 14.8864 2.176C15.2384 2.48 15.4144 2.912 15.4144 3.472V3.952C15.4144 4.496 15.2384 4.928 14.8864 5.248C14.5504 5.552 14.0544 5.704 13.3984 5.704ZM21.7427 19.192C20.3347 19.192 19.3427 18.864 18.7667 18.208C18.1907 17.536 17.9027 16.408 17.9027 14.824V10.12H16.5827C16.3907 10.12 16.2947 10.016 16.2947 9.808V7.36C16.2947 7.152 16.3907 7.048 16.5827 7.048H18.0227L18.3827 4.24C18.4307 4.032 18.5347 3.928 18.6947 3.928H21.2387C21.4307 3.928 21.5267 4.032 21.5267 4.24V7.048H23.9027C24.1267 7.048 24.2387 7.152 24.2387 7.36V9.808C24.2387 10.016 24.1267 10.12 23.9027 10.12H21.5267V14.56C21.5267 15.088 21.6067 15.48 21.7667 15.736C21.9267 15.976 22.2147 16.096 22.6307 16.096C22.8227 16.096 23.0147 16.072 23.2067 16.024C23.4147 15.976 23.6467 15.904 23.9027 15.808C24.1427 15.728 24.2627 15.816 24.2627 16.072V18.472C24.2627 18.664 24.1747 18.784 23.9987 18.832C23.7107 18.944 23.3667 19.032 22.9667 19.096C22.5827 19.16 22.1747 19.192 21.7427 19.192ZM25.9768 19C25.7848 19 25.6888 18.896 25.6888 18.688V3.592C25.6888 3.384 25.7848 3.28 25.9768 3.28H34.4488C34.6408 3.28 34.7368 3.384 34.7368 3.592V6.256C34.7368 6.464 34.6408 6.568 34.4488 6.568H29.4328V9.736H33.7288C33.9208 9.736 34.0168 9.848 34.0168 10.072V12.64C34.0168 12.848 33.9208 12.952 33.7288 12.952H29.4328V18.688C29.4328 18.896 29.3368 19 29.1448 19H25.9768ZM36.4729 19C36.2649 19 36.1609 18.896 36.1609 18.688V2.92C36.1609 2.712 36.2649 2.608 36.4729 2.608H39.4729C39.6809 2.608 39.7849 2.712 39.7849 2.92V18.688C39.7849 18.896 39.6809 19 39.4729 19H36.4729ZM44.1692 19.192C43.2412 19.192 42.5612 18.912 42.1292 18.352C41.6972 17.792 41.4812 16.912 41.4812 15.712V7.36C41.4812 7.152 41.5852 7.048 41.7932 7.048H44.7932C45.0012 7.048 45.1052 7.152 45.1052 7.36V14.968C45.1052 15.368 45.1612 15.656 45.2732 15.832C45.3852 15.992 45.5612 16.072 45.8012 16.072C46.0732 16.072 46.3452 15.984 46.6172 15.808C46.8892 15.632 47.1532 15.408 47.4092 15.136L47.8412 16.984C47.3932 17.592 46.8492 18.112 46.2092 18.544C45.5852 18.976 44.9052 19.192 44.1692 19.192ZM48.0092 19C47.8332 19 47.7132 18.912 47.6492 18.736C47.6172 18.48 47.5772 18.168 47.5292 17.8C47.4972 17.432 47.4812 17.096 47.4812 16.792L47.1212 15.712V7.36C47.1212 7.152 47.2252 7.048 47.4332 7.048H50.4332C50.6412 7.048 50.7452 7.152 50.7452 7.36V15.88C50.7452 16.392 50.7452 16.888 50.7452 17.368C50.7612 17.832 50.7932 18.264 50.8412 18.664C50.8732 18.888 50.7772 19 50.5532 19H48.0092ZM57.0814 19.192C55.4654 19.192 54.2654 18.832 53.4814 18.112C52.6974 17.392 52.3054 16.28 52.3054 14.776V11.464C52.3054 9.96 52.7054 8.816 53.5054 8.032C54.3054 7.232 55.4814 6.832 57.0334 6.832C58.6494 6.832 59.8494 7.224 60.6334 8.008C61.4174 8.776 61.8094 9.952 61.8094 11.536V13.552C61.8094 13.776 61.7054 13.888 61.4974 13.888H55.8814V15.016C55.8814 15.512 55.9694 15.88 56.1454 16.12C56.3374 16.344 56.6414 16.456 57.0574 16.456C57.4254 16.456 57.6974 16.376 57.8734 16.216C58.0654 16.056 58.1534 15.792 58.1374 15.424C58.1374 15.248 58.2414 15.16 58.4494 15.16H61.3054C61.4814 15.16 61.5854 15.264 61.6174 15.472C61.6174 16.72 61.2494 17.656 60.5134 18.28C59.7774 18.888 58.6334 19.192 57.0814 19.192ZM55.8814 11.824H58.2574V11.032C58.2574 10.536 58.1614 10.176 57.9694 9.952C57.7934 9.712 57.5054 9.592 57.1054 9.592C56.6734 9.592 56.3614 9.712 56.1694 9.952C55.9774 10.176 55.8814 10.536 55.8814 11.032V11.824ZM69.4913 19C69.2833 19 69.1793 18.896 69.1793 18.688V11.008C69.1793 10.64 69.1153 10.376 68.9873 10.216C68.8593 10.056 68.6433 9.976 68.3393 9.976C68.0833 9.976 67.8273 10.056 67.5713 10.216C67.3153 10.376 67.0593 10.584 66.8033 10.84L66.3473 9.04C66.7953 8.448 67.3313 7.936 67.9553 7.504C68.5793 7.056 69.2993 6.832 70.1153 6.832C71.0273 6.832 71.6993 7.112 72.1313 7.672C72.5793 8.216 72.8033 9.096 72.8033 10.312V18.688C72.8033 18.896 72.6993 19 72.4913 19H69.4913ZM63.7073 19C63.4993 19 63.3953 18.896 63.3953 18.688V10.168C63.3953 9.64 63.3873 9.144 63.3713 8.68C63.3553 8.2 63.3313 7.776 63.2993 7.408C63.2833 7.168 63.3793 7.048 63.5873 7.048H66.1793C66.3393 7.048 66.4353 7.144 66.4673 7.336C66.4993 7.56 66.5313 7.872 66.5633 8.272C66.6113 8.656 66.6433 9 66.6593 9.304L67.0193 10.336V18.688C67.0193 18.896 66.9153 19 66.7073 19H63.7073ZM79.1366 19.192C77.5846 19.192 76.3926 18.8 75.5606 18.016C74.7446 17.216 74.3366 16.056 74.3366 14.536V11.416C74.3366 9.928 74.7526 8.792 75.5846 8.008C76.4166 7.224 77.5926 6.832 79.1126 6.832C80.1206 6.832 80.9766 7.032 81.6806 7.432C82.3846 7.816 82.9046 8.352 83.2406 9.04C83.5766 9.728 83.6966 10.504 83.6006 11.368C83.5686 11.64 83.4566 11.776 83.2646 11.776H80.6006C80.3926 11.776 80.2886 11.664 80.2886 11.44C80.3206 10.896 80.2406 10.512 80.0486 10.288C79.8726 10.064 79.5846 9.952 79.1846 9.952C78.7686 9.952 78.4566 10.072 78.2486 10.312C78.0566 10.552 77.9606 10.968 77.9606 11.56V14.392C77.9606 15.016 78.0566 15.456 78.2486 15.712C78.4406 15.952 78.7446 16.072 79.1606 16.072C79.5766 16.072 79.8646 15.96 80.0246 15.736C80.2006 15.496 80.2886 15.12 80.2886 14.608C80.2886 14.368 80.3846 14.248 80.5766 14.248H83.2886C83.4966 14.248 83.6006 14.36 83.6006 14.584C83.6486 16.088 83.2966 17.232 82.5446 18.016C81.8086 18.8 80.6726 19.192 79.1366 19.192ZM89.7767 19.192C88.1607 19.192 86.9607 18.832 86.1767 18.112C85.3927 17.392 85.0007 16.28 85.0007 14.776V11.464C85.0007 9.96 85.4007 8.816 86.2007 8.032C87.0007 7.232 88.1767 6.832 89.7287 6.832C91.3447 6.832 92.5447 7.224 93.3287 8.008C94.1127 8.776 94.5047 9.952 94.5047 11.536V13.552C94.5047 13.776 94.4007 13.888 94.1927 13.888H88.5767V15.016C88.5767 15.512 88.6647 15.88 88.8407 16.12C89.0327 16.344 89.3367 16.456 89.7527 16.456C90.1207 16.456 90.3927 16.376 90.5687 16.216C90.7607 16.056 90.8487 15.792 90.8327 15.424C90.8327 15.248 90.9367 15.16 91.1447 15.16H94.0007C94.1767 15.16 94.2807 15.264 94.3127 15.472C94.3127 16.72 93.9447 17.656 93.2087 18.28C92.4727 18.888 91.3287 19.192 89.7767 19.192ZM88.5767 11.824H90.9527V11.032C90.9527 10.536 90.8567 10.176 90.6647 9.952C90.4887 9.712 90.2007 9.592 89.8007 9.592C89.3687 9.592 89.0567 9.712 88.8647 9.952C88.6727 10.176 88.5767 10.536 88.5767 11.032V11.824Z" fill="white"/>
</svg>
