<svg width="260" height="70" viewBox="0 0 260 70" fill="none" xmlns="http://www.w3.org/2000/svg">
<g clip-path="url(#clip0_10946_2824)">
<path d="M60.7928 19.1146V11.0452L57.2878 15.8877L56.233 15.8695L52.7832 11.1228V19.1191H49.4486V8.99589C49.4486 7.59014 49.1999 6.60429 48.182 6.26198V5.84208H52.6865L56.9009 11.4833L61.06 5.84208H64.1275V19.1191H60.7928V19.1146ZM82.1134 19.1146H78.355L77.245 16.2665H72.0496L71.0132 19.1146H67.6786L73.026 5.83752H76.5909L82.1134 19.1146ZM76.3837 14.021L74.8868 10.1826C74.6979 9.7079 74.6565 9.42492 74.5966 9.05979H74.5598C74.5045 9.42036 74.4262 9.7079 74.2696 10.1826L72.8694 14.021H76.3791H76.3837ZM93.4807 5.83752L90.3763 14.6326V14.6143C90.2197 15.1073 90.146 15.372 90.0861 15.7325H90.0493C89.994 15.372 89.9341 15.1073 89.7591 14.6326L86.406 5.83752H81.6528V6.25742C82.8227 6.59973 83.2648 7.60383 83.8774 8.99133L88.2069 19.1146H91.583L97.0272 5.83752H93.4807ZM109.822 19.1146V16.723H104.512V13.5509H109.495V11.2141H104.512V8.23368H109.666V5.84208H99.7769V6.26198C100.79 6.60429 101.043 7.59014 101.043 8.99589V19.1191H109.818L109.822 19.1146ZM128.393 6.2346C129.406 6.57691 129.66 7.56276 129.66 8.98676V19.11H133.128V5.83752H128.393V6.2346ZM136.863 12.4829C136.863 16.796 140.253 19.4523 144.606 19.4523C146.328 19.4523 147.729 19.11 148.783 18.3706V15.5591C147.977 16.262 146.637 16.869 145.122 16.869C142.515 16.869 140.543 15.1027 140.543 12.4829C140.543 9.86308 142.519 8.09676 145.122 8.09676C146.637 8.09676 147.977 8.68553 148.783 9.40666V6.57691C147.729 5.83752 146.328 5.51346 144.606 5.51346C140.253 5.51346 136.863 8.15153 136.863 12.4829ZM160.132 11.78L165.328 5.83752H161.514L156.797 11.497V5.83752H152.063V6.25742C153.076 6.59973 153.329 7.58558 153.329 8.99133V19.1146H156.797V12.921L161.588 19.1146H165.995L160.128 11.7846L160.132 11.78ZM122.769 12.9621L126.703 19.11H122.894L119.711 13.6741H118.813H118.219V19.1054H114.751V8.9822C114.751 7.57645 114.502 6.5906 113.489 6.24829V5.83295H120.218C122.677 5.83295 124.676 7.59014 124.676 9.75354C124.676 11.0817 123.921 12.2501 122.774 12.9576L122.769 12.9621ZM120.918 9.84482C120.918 8.76312 120.227 8.11502 119.039 8.11502H118.021V11.5518H119.039C120.227 11.5518 120.918 10.9083 120.918 9.84482ZM53.7274 31.7024H55.6573V34.1944C55.1783 34.5048 54.3584 34.7284 53.4234 34.7284C51.2955 34.7284 49.9875 33.0717 49.9875 31.1593C49.9875 29.2469 51.3001 27.581 53.4234 27.581C54.4505 27.581 55.2474 27.9279 55.8185 28.5304L56.4034 27.9507C55.7033 27.2661 54.7223 26.8508 53.4096 26.8508C50.9409 26.8508 49.0985 28.6673 49.0985 31.1593C49.0985 33.6513 50.9086 35.4678 53.4096 35.4678C54.5334 35.4678 55.5974 35.2031 56.4955 34.6691V30.9767H53.7274V31.707V31.7024ZM68.1622 27.0561L71.7133 35.2579H70.7783L69.8664 33.1036H65.5875L64.6894 35.2579H63.7636L67.3424 27.0561H68.1622ZM69.5532 32.3368L67.7293 27.9827L65.9053 32.3368H69.5532ZM83.1313 33.843H83.1175L80.3125 27.0561H79.0274V35.2579H79.8703V28.1333H79.8933L82.8872 35.2579H83.3339L86.3277 28.1333H86.3508V35.2579H87.1936V27.0561H85.9086L83.1405 33.843H83.1313ZM96.3271 31.351H100.334V30.6207H96.3271V27.7955H100.615V27.0561H95.4842V35.2579H100.758V34.5185H96.3271V31.3555V31.351ZM110.84 30.7074C109.914 30.4062 109.039 30.1415 109.039 29.0963C109.039 28.0511 109.988 27.5536 110.803 27.5536C111.619 27.5536 112.162 27.8777 112.507 28.3752L113.175 27.8412C112.775 27.3072 111.95 26.8462 110.84 26.8462C109.624 26.8462 108.196 27.5171 108.196 29.1054C108.196 30.5888 109.32 31.0634 110.421 31.4012C111.471 31.7252 112.443 32.0128 112.443 33.1629C112.443 34.2173 111.462 34.7513 110.605 34.7513C109.749 34.7513 109.076 34.2994 108.712 33.7198L107.989 34.2538C108.588 35.0616 109.592 35.4678 110.596 35.4678C111.909 35.4678 113.3 34.7513 113.3 33.1036C113.3 31.456 112.015 31.0908 110.845 30.7074H110.84ZM32.3101 9.79461L34.6683 8.44363V30.0776L33.8807 30.5294L18.1195 39.5482L17.3319 40L16.5443 39.5482L0.787603 30.5294L0 30.0776V10.2465L0.787603 9.79461L16.5489 0.780466L17.9122 0L18.6998 1.35098L25.7928 13.5281L32.3101 9.79918V9.79461ZM33.0931 11.1456L25.2125 15.655L17.3319 2.13145L1.57521 11.1456L9.45584 24.6691L17.3365 20.1597V38.1926L33.0977 29.1739V11.1456H33.0931Z" fill="white"/>
</g>
<defs>
<clipPath id="clip0_10946_2824">
<rect width="166" height="40" fill="white"/>
</clipPath>
</defs>
</svg>
