<svg width="260" height="70" viewBox="0 0 260 70" fill="none" xmlns="http://www.w3.org/2000/svg">
<path d="M1.128 19C0.92 19 0.816 18.896 0.816 18.688L1.056 3.592C1.056 3.384 1.16 3.28 1.368 3.28H5.016C5.192 3.28 5.312 3.36 5.376 3.52L8.088 10.984L10.776 3.52C10.84 3.36 10.952 3.28 11.112 3.28H14.76C14.952 3.28 15.048 3.384 15.048 3.592L15.312 18.688C15.312 18.896 15.208 19 15 19H11.928C11.736 19 11.64 18.896 11.64 18.688L11.544 13.504C11.528 12.624 11.536 11.824 11.568 11.104C11.616 10.384 11.672 9.712 11.736 9.088H11.664C11.488 9.648 11.288 10.224 11.064 10.816C10.84 11.408 10.608 11.984 10.368 12.544L8.424 17.152C8.36 17.296 8.264 17.368 8.136 17.368H7.992C7.864 17.368 7.768 17.296 7.704 17.152L5.76 12.52C5.52 11.976 5.288 11.408 5.064 10.816C4.856 10.224 4.656 9.648 4.464 9.088H4.416C4.464 9.696 4.504 10.368 4.536 11.104C4.584 11.824 4.6 12.624 4.584 13.504L4.512 18.688C4.512 18.896 4.408 19 4.2 19H1.128ZM21.621 19.192C20.117 19.192 18.941 18.808 18.093 18.04C17.245 17.256 16.821 16.12 16.821 14.632V11.392C16.821 9.92 17.245 8.792 18.093 8.008C18.941 7.224 20.117 6.832 21.621 6.832C23.125 6.832 24.301 7.224 25.149 8.008C25.997 8.792 26.421 9.92 26.421 11.392V14.632C26.421 16.12 25.997 17.256 25.149 18.04C24.317 18.808 23.141 19.192 21.621 19.192ZM21.621 16.096C22.037 16.096 22.333 15.976 22.509 15.736C22.701 15.48 22.797 15.072 22.797 14.512V11.536C22.797 10.96 22.701 10.552 22.509 10.312C22.333 10.072 22.037 9.952 21.621 9.952C21.221 9.952 20.925 10.072 20.733 10.312C20.541 10.552 20.445 10.96 20.445 11.536V14.512C20.445 15.072 20.541 15.48 20.733 15.736C20.925 15.976 21.221 16.096 21.621 16.096ZM28.2932 19C28.0852 19 27.9812 18.896 27.9812 18.688V2.92C27.9812 2.712 28.0852 2.608 28.2932 2.608H31.2932C31.5012 2.608 31.6052 2.712 31.6052 2.92V7.984C31.6052 8.528 31.5892 9.136 31.5572 9.808C31.5412 10.464 31.5092 11.072 31.4612 11.632H31.5332C31.7252 11.232 31.9092 10.832 32.0852 10.432C32.2772 10.032 32.4772 9.64 32.6852 9.256L33.9332 7.24C33.9972 7.112 34.1092 7.048 34.2692 7.048H37.7012C37.8292 7.048 37.9012 7.088 37.9172 7.168C37.9492 7.232 37.9332 7.312 37.8692 7.408L34.7492 12.304L38.0852 18.592C38.1652 18.704 38.1812 18.8 38.1332 18.88C38.1012 18.96 38.0292 19 37.9172 19H34.4372C34.2612 19 34.1332 18.936 34.0532 18.808L32.2292 14.992L31.6052 15.856V18.688C31.6052 18.896 31.5092 19 31.3172 19H28.2932ZM39.4494 19C39.2414 19 39.1374 18.896 39.1374 18.688V2.92C39.1374 2.712 39.2414 2.608 39.4494 2.608H42.4494C42.6574 2.608 42.7614 2.712 42.7614 2.92V7.984C42.7614 8.528 42.7454 9.136 42.7134 9.808C42.6974 10.464 42.6654 11.072 42.6174 11.632H42.6894C42.8814 11.232 43.0654 10.832 43.2414 10.432C43.4334 10.032 43.6334 9.64 43.8414 9.256L45.0894 7.24C45.1534 7.112 45.2654 7.048 45.4254 7.048H48.8574C48.9854 7.048 49.0574 7.088 49.0734 7.168C49.1054 7.232 49.0894 7.312 49.0254 7.408L45.9054 12.304L49.2414 18.592C49.3214 18.704 49.3374 18.8 49.2894 18.88C49.2574 18.96 49.1854 19 49.0734 19H45.5934C45.4174 19 45.2894 18.936 45.2094 18.808L43.3854 14.992L42.7614 15.856V18.688C42.7614 18.896 42.6654 19 42.4734 19H39.4494ZM56.1296 19C55.9536 19 55.8416 18.904 55.7936 18.712C55.7616 18.504 55.7216 18.216 55.6736 17.848C55.6416 17.464 55.6096 17.104 55.5776 16.768L55.2416 16.072V10.624C55.2416 10.192 55.1776 9.904 55.0496 9.76C54.9216 9.6 54.6896 9.52 54.3536 9.52C53.6976 9.52 53.4096 9.912 53.4896 10.696C53.5216 10.904 53.4176 11.008 53.1776 11.008H50.5136C50.3376 11.008 50.2336 10.888 50.2016 10.648C50.1056 9.4 50.4256 8.456 51.1616 7.816C51.8976 7.16 53.0096 6.832 54.4976 6.832C56.0176 6.832 57.1216 7.144 57.8096 7.768C58.5136 8.392 58.8656 9.384 58.8656 10.744V15.88C58.8656 16.536 58.8736 17.08 58.8896 17.512C58.9056 17.928 58.9296 18.312 58.9616 18.664C58.9936 18.888 58.8976 19 58.6736 19H56.1296ZM52.3616 19.192C51.5456 19.192 50.9056 18.904 50.4416 18.328C49.9776 17.752 49.7456 16.944 49.7456 15.904C49.7456 14.736 50.0416 13.848 50.6336 13.24C51.2416 12.632 52.2816 12.248 53.7536 12.088L55.5056 11.872L55.4816 13.792L54.4976 13.888C54.0176 13.968 53.6736 14.12 53.4656 14.344C53.2736 14.568 53.1776 14.912 53.1776 15.376C53.1776 15.76 53.2336 16.048 53.3456 16.24C53.4736 16.432 53.6656 16.528 53.9216 16.528C54.1936 16.528 54.4656 16.424 54.7376 16.216C55.0256 16.008 55.3376 15.672 55.6736 15.208L55.9616 17.08C55.3696 17.768 54.8016 18.296 54.2576 18.664C53.7136 19.016 53.0816 19.192 52.3616 19.192ZM68.8476 19.192C67.2956 19.192 66.1036 18.8 65.2716 18.016C64.4556 17.216 64.0476 16.056 64.0476 14.536V11.416C64.0476 9.928 64.4636 8.792 65.2956 8.008C66.1276 7.224 67.3036 6.832 68.8236 6.832C69.8316 6.832 70.6876 7.032 71.3916 7.432C72.0956 7.816 72.6156 8.352 72.9516 9.04C73.2876 9.728 73.4076 10.504 73.3116 11.368C73.2796 11.64 73.1676 11.776 72.9756 11.776H70.3116C70.1036 11.776 69.9996 11.664 69.9996 11.44C70.0316 10.896 69.9516 10.512 69.7596 10.288C69.5836 10.064 69.2956 9.952 68.8956 9.952C68.4796 9.952 68.1676 10.072 67.9596 10.312C67.7676 10.552 67.6716 10.968 67.6716 11.56V14.392C67.6716 15.016 67.7676 15.456 67.9596 15.712C68.1516 15.952 68.4556 16.072 68.8716 16.072C69.2876 16.072 69.5756 15.96 69.7356 15.736C69.9116 15.496 69.9996 15.12 69.9996 14.608C69.9996 14.368 70.0956 14.248 70.2876 14.248H72.9996C73.2076 14.248 73.3116 14.36 73.3116 14.584C73.3596 16.088 73.0076 17.232 72.2556 18.016C71.5196 18.8 70.3836 19.192 68.8476 19.192ZM79.5116 19.192C78.0076 19.192 76.8316 18.808 75.9836 18.04C75.1356 17.256 74.7116 16.12 74.7116 14.632V11.392C74.7116 9.92 75.1356 8.792 75.9836 8.008C76.8316 7.224 78.0076 6.832 79.5116 6.832C81.0156 6.832 82.1916 7.224 83.0396 8.008C83.8876 8.792 84.3116 9.92 84.3116 11.392V14.632C84.3116 16.12 83.8876 17.256 83.0396 18.04C82.2076 18.808 81.0316 19.192 79.5116 19.192ZM79.5116 16.096C79.9276 16.096 80.2236 15.976 80.3996 15.736C80.5916 15.48 80.6876 15.072 80.6876 14.512V11.536C80.6876 10.96 80.5916 10.552 80.3996 10.312C80.2236 10.072 79.9276 9.952 79.5116 9.952C79.1116 9.952 78.8156 10.072 78.6236 10.312C78.4316 10.552 78.3356 10.96 78.3356 11.536V14.512C78.3356 15.072 78.4316 15.48 78.6236 15.736C78.8156 15.976 79.1116 16.096 79.5116 16.096ZM87.1684 19C87.0884 19 87.0164 18.968 86.9524 18.904C86.9044 18.84 86.8804 18.768 86.8804 18.688V10.12H85.5844C85.3764 10.12 85.2724 10.016 85.2724 9.808V7.36C85.2724 7.152 85.3764 7.048 85.5844 7.048H86.8804V6.304C86.8804 5.008 87.1844 4.04 87.7924 3.4C88.4004 2.744 89.3124 2.416 90.5284 2.416C91.1044 2.416 91.6244 2.448 92.0884 2.512C92.5684 2.56 92.9284 2.624 93.1684 2.704C93.3124 2.784 93.3844 2.896 93.3844 3.04V5.248C93.3844 5.504 93.2724 5.584 93.0484 5.488C92.8404 5.44 92.6164 5.392 92.3764 5.344C92.1364 5.296 91.8804 5.272 91.6084 5.272C91.2244 5.272 90.9444 5.376 90.7684 5.584C90.5924 5.776 90.5044 6.08 90.5044 6.496V7.048H92.3284C92.5364 7.048 92.6404 7.152 92.6404 7.36V9.808C92.6404 10.016 92.5364 10.12 92.3284 10.12H90.5044V18.688C90.5044 18.768 90.4724 18.84 90.4084 18.904C90.3444 18.968 90.2724 19 90.1924 19H87.1684ZM95.6164 19C95.5364 19 95.4644 18.968 95.4004 18.904C95.3524 18.84 95.3284 18.768 95.3284 18.688V10.12H94.0324C93.8244 10.12 93.7204 10.016 93.7204 9.808V7.36C93.7204 7.152 93.8244 7.048 94.0324 7.048H95.3284V6.304C95.3284 5.008 95.6324 4.04 96.2404 3.4C96.8484 2.744 97.7604 2.416 98.9764 2.416C99.5524 2.416 100.072 2.448 100.536 2.512C101.016 2.56 101.376 2.624 101.616 2.704C101.76 2.784 101.832 2.896 101.832 3.04V5.248C101.832 5.504 101.72 5.584 101.496 5.488C101.288 5.44 101.064 5.392 100.824 5.344C100.584 5.296 100.328 5.272 100.056 5.272C99.6724 5.272 99.3924 5.376 99.2164 5.584C99.0404 5.776 98.9524 6.08 98.9524 6.496V7.048H100.776C100.984 7.048 101.088 7.152 101.088 7.36V9.808C101.088 10.016 100.984 10.12 100.776 10.12H98.9524V18.688C98.9524 18.768 98.9204 18.84 98.8564 18.904C98.7924 18.968 98.7204 19 98.6404 19H95.6164ZM106.769 19.192C105.153 19.192 103.953 18.832 103.169 18.112C102.385 17.392 101.993 16.28 101.993 14.776V11.464C101.993 9.96 102.393 8.816 103.193 8.032C103.993 7.232 105.169 6.832 106.721 6.832C108.337 6.832 109.537 7.224 110.321 8.008C111.105 8.776 111.497 9.952 111.497 11.536V13.552C111.497 13.776 111.393 13.888 111.185 13.888H105.569V15.016C105.569 15.512 105.657 15.88 105.833 16.12C106.025 16.344 106.329 16.456 106.745 16.456C107.113 16.456 107.385 16.376 107.561 16.216C107.753 16.056 107.841 15.792 107.825 15.424C107.825 15.248 107.929 15.16 108.137 15.16H110.993C111.169 15.16 111.273 15.264 111.305 15.472C111.305 16.72 110.937 17.656 110.201 18.28C109.465 18.888 108.321 19.192 106.769 19.192ZM105.569 11.824H107.945V11.032C107.945 10.536 107.849 10.176 107.657 9.952C107.481 9.712 107.193 9.592 106.793 9.592C106.361 9.592 106.049 9.712 105.857 9.952C105.665 10.176 105.569 10.536 105.569 11.032V11.824ZM117.738 19.192C116.122 19.192 114.922 18.832 114.138 18.112C113.354 17.392 112.962 16.28 112.962 14.776V11.464C112.962 9.96 113.362 8.816 114.162 8.032C114.962 7.232 116.138 6.832 117.69 6.832C119.306 6.832 120.506 7.224 121.29 8.008C122.074 8.776 122.466 9.952 122.466 11.536V13.552C122.466 13.776 122.362 13.888 122.154 13.888H116.538V15.016C116.538 15.512 116.626 15.88 116.802 16.12C116.994 16.344 117.298 16.456 117.714 16.456C118.082 16.456 118.354 16.376 118.53 16.216C118.722 16.056 118.81 15.792 118.794 15.424C118.794 15.248 118.898 15.16 119.106 15.16H121.962C122.138 15.16 122.242 15.264 122.274 15.472C122.274 16.72 121.906 17.656 121.17 18.28C120.434 18.888 119.29 19.192 117.738 19.192ZM116.538 11.824H118.914V11.032C118.914 10.536 118.818 10.176 118.626 9.952C118.45 9.712 118.162 9.592 117.762 9.592C117.33 9.592 117.018 9.712 116.826 9.952C116.634 10.176 116.538 10.536 116.538 11.032V11.824Z" fill="white"/>
</svg>
