<svg width="260" height="70" viewBox="0 0 260 70" fill="none" xmlns="http://www.w3.org/2000/svg">
<g clip-path="url(#clip0_7936_17812)">
<path d="M46.1478 28.1033C45.7774 27.882 45.333 27.587 45.1108 27.4395C43.8515 27.9558 42.6663 29.0622 41.6293 30.1686C39.2589 32.6765 39.4812 34.078 36.8886 35.0369C36.2219 35.2582 35.4812 35.5533 34.4441 35.7745C33.8515 34.0043 32.37 32.1602 30.8145 32.1602C29.7034 32.1602 28.5182 32.7503 27.0367 33.3404C25.333 34.078 23.7775 34.9632 23.333 35.2582L23.9997 36.1434C24.5182 35.8483 25.9256 35.1844 27.4071 34.5206C28.6663 34.0043 29.7775 33.5617 30.5923 33.5617C31.8515 33.5617 32.6663 34.9632 33.1108 36.0696C31.4812 36.4384 28.8145 36.5122 27.9997 36.5122C27.6293 36.5122 27.4812 36.5859 27.333 36.6597C27.1849 36.7334 27.1108 36.9547 27.0367 37.2498L26.9626 37.6186H27.8515C32.37 37.6186 36.5923 36.881 39.2589 35.2582C39.6293 35.332 39.9997 35.4057 40.4441 35.4057C41.9997 35.4057 43.6293 34.5944 44.5923 33.783C44.9626 33.4879 45.0367 33.2666 45.0367 32.9716C45.0367 32.8241 45.0367 32.7503 45.0367 32.6028L44.9626 32.1602C43.5552 33.2666 42.296 34.1518 40.8145 34.1518C40.5182 34.1518 40.37 34.1518 40.2219 34.078C41.6293 31.8652 42.9626 29.7998 46.1478 28.1033Z" fill="white"/>
<path d="M36.592 30.8325C35.555 30.8325 35.7031 29.136 35.6291 27.7345C31.9994 28.1033 29.7772 29.136 27.3328 30.4637L27.6291 31.5701C29.8513 30.2424 31.9994 29.5048 34.2957 29.2098C34.2957 30.5375 34.8883 32.3078 36.3698 32.3078C37.9994 32.3078 39.9254 29.7999 42.2217 26.8494L42.8142 26.038C42.5179 25.8167 42.1476 25.5954 41.9254 25.3741C39.555 28.3984 37.555 30.8325 36.592 30.8325Z" fill="white"/>
<path d="M28.7402 12.392C28.3698 12.392 27.9994 12.3183 27.555 12.2445C27.1846 12.1707 26.8143 12.097 26.2957 12.097C25.3328 12.097 24.2957 12.4658 23.6291 13.1297C22.3698 14.3098 22.2957 15.6376 22.2217 16.8177C22.1476 18.3667 21.8513 18.7356 20.9624 19.842C20.2957 20.7271 19.3328 21.9811 18.592 23.235C18.8143 23.3088 19.555 23.7514 19.8513 23.8989C20.6661 22.6449 21.8513 21.0959 22.592 19.9895C23.2587 18.9568 23.555 18.5143 23.6291 17.1128C23.6291 16.8915 23.6291 16.6702 23.6291 16.4489C23.7032 15.7113 23.8513 14.9737 24.592 14.3098C25.1106 13.7935 25.8513 13.4985 26.592 13.4985C27.3328 13.4985 27.7031 13.7197 28.3698 13.7197C28.8143 13.7197 29.1106 13.646 29.4069 13.4985L29.6291 13.4247L29.1106 14.7524L30.3698 15.2687C29.555 15.7851 27.7032 17.9979 27.7032 20.5796C27.7032 21.5385 27.8513 22.4236 28.0735 23.1613C28.0735 23.235 28.1476 23.3088 28.2957 23.3088C28.4439 23.3088 28.518 23.235 28.518 23.0875V22.7925C28.592 21.9811 28.592 20.7271 28.9624 19.6207C29.4809 17.7029 30.9624 15.9326 32.3698 15.0475L30.3698 14.0886L31.2587 11.9495L30.2957 12.1707C29.7032 12.2445 29.2587 12.392 28.7402 12.392Z" fill="white"/>
<path d="M36.5181 3.4668C35.7033 3.4668 35.5552 4.20442 35.5552 4.64699C35.5552 5.0158 35.7033 5.38461 36.0737 5.38461C36.4441 5.38461 36.8144 5.16332 37.1848 4.86827C37.5552 4.57322 37.7774 4.35194 37.7774 4.13065C37.7774 3.90937 37.5552 3.76184 37.333 3.61432C37.0367 3.54056 36.8144 3.4668 36.5181 3.4668Z" fill="white"/>
<path d="M36.8888 18.588H31.7777L31.1851 19.6944H37.3332L36.8888 18.588Z" fill="white"/>
<path d="M24.6663 8.48265C24.9626 8.26137 25.2589 8.04008 25.2589 7.74503C25.2589 7.59751 25.1849 7.44999 25.0367 7.37622C24.8145 7.15494 24.5182 7.08118 24.2219 7.08118C23.6293 7.08118 23.333 7.67127 23.333 8.1876C23.333 8.55641 23.5552 8.7777 23.9256 8.7777C24.1478 8.70394 24.4441 8.63018 24.6663 8.48265Z" fill="white"/>
<path d="M60.2962 30.3899L60.8888 30.7587C60.9629 30.8325 61.037 30.8325 61.111 30.8325C61.2592 30.8325 61.3333 30.6849 61.3333 30.6112C61.3333 30.5374 61.3332 30.4636 61.2592 30.4636C59.4814 28.8409 57.6295 26.9231 55.8518 25.079C54.4444 23.6038 53.037 22.0548 51.7777 20.5058C51.7036 20.432 51.6295 20.3583 51.5555 20.3583C51.4073 20.3583 51.3333 20.432 51.3333 20.5796C51.3333 20.7271 51.4814 20.9484 51.7777 21.4647C52.6666 23.0137 53.8518 24.5627 55.1851 26.0379C56.6666 27.5869 58.4444 29.0622 60.2962 30.3899Z" fill="white"/>
<path d="M51.3327 69.7787H52.7401C53.1105 69.7787 53.3327 69.6312 53.5549 69.4099C53.7031 69.2624 53.7771 68.9673 53.7771 68.6723V53.0348C53.7771 52.7397 53.7031 52.5184 53.5549 52.2972C53.4068 52.0759 53.1105 51.9283 52.7401 51.9283H51.3327C50.9623 51.9283 50.7401 52.0759 50.5179 52.2972C50.3697 52.4447 50.2957 52.7397 50.2957 53.0348V68.6723C50.2957 68.9673 50.3697 69.1886 50.5179 69.4099C50.7401 69.6312 50.9623 69.7787 51.3327 69.7787Z" fill="white"/>
<path d="M27.777 14.6786C27.5548 14.531 27.3325 14.4573 27.1103 14.4573C26.5918 14.4573 26.3696 14.7523 26.2955 15.0474C26.2214 15.1949 26.2214 15.3424 26.2214 15.4899C26.2214 15.9325 26.4437 16.2276 26.74 16.2276C27.1844 16.2276 27.9992 15.6375 27.9992 15.1211C27.9992 14.9736 27.9251 14.7523 27.777 14.6786Z" fill="white"/>
<path d="M11.407 29.7998L11.4811 30.3161C11.4811 30.5374 11.6292 30.6849 11.7774 30.7587C11.9996 30.8325 12.2959 30.9062 12.8144 30.9062C14.1477 30.9062 15.1848 30.7587 15.7774 30.6112C17.2589 32.824 19.2589 33.6354 21.2589 33.6354C22.9626 33.6354 24.5922 33.0453 26.2218 32.1602L25.9255 30.98C24.37 31.8651 22.6663 32.4552 21.2589 32.4552C19.6292 32.4552 18.2218 31.7914 16.9626 29.9473C16.444 29.2097 16.0737 28.2508 15.5552 27.3656C14.9626 26.333 14.37 25.8167 13.2589 25.8167C12.2959 25.8167 11.2589 26.2592 10.2959 26.7018L10.37 26.9231C10.444 27.2919 10.5922 27.5869 10.9626 27.5869C11.1107 27.5869 11.2589 27.5132 11.3329 27.5132C11.9255 27.3656 12.2959 27.1444 12.8885 27.1444C13.7774 27.1444 14.2218 27.6607 14.8144 28.9884L15.0366 29.431C14.444 29.6523 12.9626 29.726 11.8515 29.726H11.407V29.7998Z" fill="white"/>
<path d="M67.7036 64.0253C67.9259 63.804 67.9999 63.5827 67.9999 63.0664C67.9999 61.5174 67.4814 59.8946 66.4444 58.6407C65.4073 57.3867 63.7777 56.5016 61.4814 56.5016C57.3333 56.5016 54.9629 59.7471 54.9629 63.1402C54.9629 66.7545 57.4814 70 61.4814 70C63.4814 70 65.4814 69.2624 66.5925 67.9347C67.111 67.3446 67.4814 66.5332 67.4814 66.0906C67.4814 65.9431 67.4814 65.7956 67.3333 65.6481C67.2592 65.5005 67.111 65.4268 66.8147 65.4268H64.8888C64.5184 65.4268 64.2222 65.5743 64.074 65.8693C63.4814 66.6807 62.6666 67.1233 61.4814 67.1233C59.7036 67.1233 58.5184 65.7956 58.4444 64.2466H66.8147C67.2592 64.2466 67.5555 64.1728 67.7036 64.0253ZM58.5184 61.7387C58.6666 60.2634 59.7777 59.157 61.4814 59.157C63.1851 59.157 64.2962 60.2634 64.4444 61.7387H58.5184Z" fill="white"/>
<path d="M58.2218 1.40149C57.481 2.87673 54.5181 7.52372 52.8884 9.44153L53.7773 10.4004C54.6662 9.44153 55.5551 7.81877 56.5921 6.19601H56.8144C56.8144 6.26977 56.8144 6.34353 56.8144 6.49106C56.8144 7.81877 57.481 8.85144 59.2588 8.85144C60.2958 8.85144 61.9995 8.3351 63.5551 7.81877C64.8144 7.3762 65.9995 6.93363 66.5921 6.7861V5.38463C65.9255 5.60592 64.5181 6.12225 63.1106 6.63858C61.6292 7.15491 60.1477 7.59749 59.3329 7.59749C58.3699 7.59749 58.1477 7.08115 58.1477 6.34353C58.1477 4.8683 59.1106 2.65544 59.7032 1.47525H58.2218V1.40149Z" fill="white"/>
<path d="M46.4441 6.26976C45.259 5.08957 44.296 3.76185 43.7034 3.17176C42.4441 1.77028 40.7404 0 37.9256 0C35.259 0 33.4812 1.77028 32.8886 3.24552C32.7404 3.68809 32.5923 4.20443 32.5182 4.42571C32.2219 4.86828 31.0367 6.85985 30.5923 7.67123H32.8145L31.7034 9.73656C32.9627 9.44152 33.8515 9.22023 35.0367 9.22023C36.0738 9.22023 36.8886 9.44152 37.1849 10.1054C37.7775 11.3593 37.7775 15.1212 38.8886 17.9241C39.8515 20.5796 42.296 23.1612 44.9627 25.1528L45.1108 25.2266C45.259 25.2266 45.333 25.1528 45.333 25.0053C45.333 24.9315 45.333 24.8577 45.2589 24.8577C43.0367 22.6449 41.1849 20.137 40.1478 17.4078C39.1849 14.7524 39.333 11.0643 38.5182 9.36776C37.9256 8.26133 36.7404 7.96628 35.6293 7.96628C34.7404 7.96628 33.9256 8.1138 33.5552 8.26133L34.5182 6.63857H32.8886C33.259 6.04847 33.6293 5.45838 33.7775 5.16333C33.9256 4.86828 33.9997 4.49947 34.1478 4.0569C34.7404 2.5079 36.1478 1.47524 37.9256 1.47524C40.1478 1.47524 41.4812 2.95047 42.8145 4.35195C43.4071 5.01581 44.3701 6.41728 45.5552 7.44995C46.3701 8.18757 47.8515 8.99895 50.1478 11.2856C51.4812 12.6133 53.0367 14.3836 54.5923 16.8177C60.3701 25.2266 64.2219 32.6765 66.296 38.5037C60.2219 34.373 54.9627 30.5374 50.7404 25.7429C47.7034 22.3498 45.1108 18.3667 42.8145 13.3509C42.6664 12.9821 42.5182 12.687 42.3701 12.392C42.296 12.2445 42.2219 12.2445 42.1478 12.2445C41.9997 12.2445 41.9256 12.3182 41.9256 12.4658C41.9256 12.6133 41.9997 12.9083 42.1478 13.4247C43.333 18.6618 46.7404 23.3087 50.296 27.2181C53.8515 31.0537 57.9256 34.373 61.2589 36.8072L63.8515 44.1834C63.9256 44.3309 63.9997 44.5522 63.9997 44.6997C63.9997 44.8472 63.9997 44.921 63.8515 44.9947C63.7775 45.0685 63.7034 45.0685 63.4812 45.0685H62.6664C62.296 45.0685 62.2219 44.9947 62.0738 44.921C61.9256 44.8472 61.8515 44.6997 61.7775 44.4784C61.5552 43.8145 60.1478 39.9052 59.9256 39.0938C59.8515 38.9463 59.7775 38.8725 59.7034 38.8725C59.5552 38.8725 59.4812 38.9463 59.4812 39.0938C59.4812 39.1675 59.4812 39.3151 59.5552 39.6101C59.9256 41.3804 60.296 43.372 60.4441 44.1096C60.5182 44.4784 60.5923 44.7734 60.5923 44.9947C60.5923 45.216 60.5182 45.3635 60.3701 45.5111L59.6293 46.47C59.4071 46.6913 59.333 46.6913 59.1849 46.6913C58.9627 46.6913 58.8145 46.5437 58.7404 46.2487C57.8515 41.9705 56.4441 36.7334 56.0738 35.3319C55.9997 35.0369 55.9256 34.8156 55.7034 34.8156C55.5552 34.8156 55.4812 34.9631 55.4812 35.1106C55.4812 35.1844 55.4812 35.3319 55.5552 35.4795C55.7775 36.9547 56.6664 42.4868 57.6293 47.5026C57.7775 48.3878 58.1478 48.8303 58.8886 48.8303C59.2589 48.8303 59.5552 48.6828 59.8515 48.3878C60.3701 47.8714 60.5182 47.7977 61.1108 47.2076C61.5552 46.8388 61.8515 46.6175 62.5182 46.6175H64.296C64.7404 46.6175 64.9627 46.5437 65.1108 46.3224C65.333 46.1749 65.4071 45.8799 65.4071 45.5111C65.4071 45.1423 65.333 44.8472 65.1849 44.4784C64.7404 43.2244 63.2589 39.1675 62.8145 37.9874C64.296 39.0938 66.5182 40.569 67.4812 40.569C67.7775 40.569 67.9256 40.4215 67.9256 39.9789C67.9256 37.7661 64.2219 28.7671 55.8515 16.3014C51.4812 9.58904 47.5552 7.30242 46.4441 6.26976Z" fill="white"/>
<path d="M62.518 11.8757C63.9254 11.2856 66.518 10.2529 67.9995 9.73659V8.26135C65.0365 9.36778 59.7772 11.5069 56.2217 13.4247C56.2958 13.5722 56.9624 14.3836 57.0365 14.5311C58.518 13.941 59.9254 13.4984 61.1106 13.4984C62.8143 13.4984 64.2217 13.4984 66.592 12.9821V11.8757C65.2587 12.097 63.8513 12.392 62.9624 12.392C62.4439 12.392 62.2958 12.3183 62.2958 12.1707C62.2217 12.097 62.2958 12.0232 62.518 11.8757Z" fill="white"/>
<path d="M28.148 5.53218C27.3332 5.53218 26.8147 5.53218 26.074 5.16337C25.111 4.7208 24.5925 4.49951 23.7777 4.49951C22.7406 4.49951 21.7777 4.86832 21.0369 5.60594C20.148 6.41732 19.8518 7.52375 19.5555 8.70394C19.3332 9.66284 19.0369 10.6955 18.3703 11.5807C17.7777 12.392 17.4073 12.7608 16.148 14.3098C14.4443 16.3014 13.5555 17.9242 12.074 21.4647C12.2962 21.4647 12.6666 21.391 13.0369 21.391C13.2592 21.391 13.4073 21.391 13.6295 21.391L13.7777 21.0222C14.5925 19.2519 15.7036 16.8915 17.2592 15.0475L17.7777 14.3836C19.4073 12.5396 20.3703 11.4331 21.0369 8.85146C21.2592 7.96632 21.4073 7.15494 22.074 6.56484C22.5925 6.04851 23.3332 5.82723 23.9999 5.82723C24.5925 5.82723 25.0369 5.97475 25.7036 6.2698C26.2221 6.56484 26.4443 6.63861 27.0369 6.63861C27.2592 6.63861 27.4073 6.63861 27.5555 6.63861L26.7406 7.74503L27.8518 8.55641C26.4443 8.99899 25.7036 10.3267 25.4073 10.9906C25.3332 11.1381 25.3332 11.2118 25.3332 11.2856C25.3332 11.3594 25.4073 11.5069 25.5555 11.5069C25.7036 11.5069 25.8518 11.3594 25.9999 11.1381C26.6666 10.3267 27.2592 9.7366 29.7777 8.92522L27.9999 7.59751L29.3332 5.60594H28.148V5.53218Z" fill="white"/>
<path d="M5.62963 9.88409C2.66667 9.88409 1.40741 11.2856 1.40741 12.2445C0.518519 12.6133 0 13.5722 0 14.4573C0 16.2276 1.33333 17.4816 3.03704 17.4816C3.62963 17.4816 4.22222 17.2603 4.59259 16.9652C4.88889 17.039 5.25926 17.1127 5.7037 17.1127C6.51852 17.1127 7.48148 16.8177 8.07407 15.8588C8.14815 15.8588 8.22222 15.8588 8.37037 15.8588C9.40741 15.8588 10.3704 15.1949 10.8148 14.236C10.963 14.0148 10.963 13.8672 10.963 13.7197C10.963 13.5722 10.8889 13.4984 10.7407 13.4984C10.5926 13.4984 10.5185 13.6459 10.2222 13.941C9.55556 14.5311 8.51852 14.7524 7.48148 14.7524C6.96296 15.49 6.2963 15.9326 5.62963 15.9326C5.11111 15.9326 4.66667 15.785 4.22222 15.49C3.85185 15.8588 3.40741 16.0063 3.03704 16.0063C2.07407 16.0063 1.40741 15.3425 1.40741 14.3836C1.40741 13.7197 1.85185 13.1296 2.44444 12.9083C2.51852 11.7281 3.85185 10.9168 5.40741 10.9168C5.62963 10.9168 5.77778 10.9168 6 10.9168C6.22222 10.5479 6.81482 10.1054 7.62963 10.0316C7.77778 10.0316 7.92593 10.0316 8 9.95785C8.07407 9.88409 8.14815 9.81033 8.14815 9.73656C8.14815 9.6628 8.14815 9.58904 8 9.51528C7.92593 9.44152 7.77778 9.44152 7.62963 9.44152C6.88889 9.29399 6 8.85142 5.48148 7.67123C3.7037 7.67123 2.37037 6.196 2.37037 4.57323V4.49947C1.85185 4.27819 1.40741 3.68809 1.40741 3.02424C1.40741 2.13909 2.14815 1.40148 3.03704 1.40148C3.55556 1.40148 4.07407 1.69652 4.37037 2.06533C4.59259 1.99157 4.88889 1.99157 5.18519 1.99157C6.51852 1.99157 8 2.80295 8.22222 4.49947C9.92593 4.647 10.3704 6.12223 10.4444 6.71233C10.5185 7.00738 10.5185 7.30242 10.7407 7.30242C10.963 7.30242 11.037 7.08114 11.1111 6.71233C11.2593 6.12223 11.4815 5.6059 11.9259 5.23709C11.9259 3.68809 13.1111 2.36038 14.7407 2.36038C14.963 1.84405 15.5556 1.40148 16.2222 1.40148C17.1111 1.40148 17.8519 2.06533 17.8519 3.02424C17.8519 3.54057 17.6296 4.0569 17.1852 4.27819C17.2593 4.57324 17.3333 4.86828 17.3333 5.08957C17.3333 6.12223 16.7407 6.78609 15.6296 7.1549C15.4815 7.74499 15.2593 8.33509 14.8148 8.7039C14.0741 9.36775 13.3333 9.36775 13.3333 9.6628C13.3333 9.81033 13.4074 9.88409 13.7037 9.88409C15.037 9.88409 16.3704 9.14647 16.5185 7.89252C17.7778 7.44995 18.5926 6.196 18.5926 5.16333C18.5926 4.86828 18.5926 4.647 18.4444 4.42571C18.8148 4.0569 19.1852 3.54057 19.1852 2.65543C19.1852 1.91781 18.8889 1.18019 18.2963 0.590095C17.8519 0.295047 17.1111 0 16.2963 0C15.1111 0 14.2963 0.663857 13.8519 1.25395C12.5185 1.25395 10.8889 2.72919 10.8889 4.79452H10.7407C10.5926 4.0569 9.85185 3.61433 9.25926 3.54057C8.66667 2.06533 7.55556 0.737619 5.7037 0.737619C5.48148 0.737619 5.25926 0.737619 4.96296 0.81138C4.44444 0.295047 3.77778 0 2.96296 0C1.33333 0 0 1.32771 0 2.95047C0 3.98314 0.444444 4.647 1.33333 5.31085V5.53214C1.33333 6.85985 2.74074 8.92518 4.88889 8.92518C4.88889 9.29399 5.33333 9.73656 5.77778 9.81033V9.95785H5.62963V9.88409Z" fill="white"/>
<path d="M35.6302 67.2707C35.0376 67.2707 34.445 67.1969 34.0005 66.9019C33.6302 66.7544 33.4079 66.5331 33.1857 66.1643C33.0376 65.8692 32.9635 65.7217 32.6672 65.5004C32.5191 65.4267 32.2968 65.4266 32.0005 65.4266H30.5191C30.2228 65.4266 30.0746 65.5004 29.9265 65.6479C29.8524 65.7955 29.7783 65.943 29.7783 66.1643C29.7783 66.6068 29.9265 67.2707 30.3709 67.787C31.2598 69.041 33.1857 69.9999 35.6302 69.9999C38.0005 69.9999 41.3339 69.041 41.3339 65.7955C41.3339 64.9841 41.1117 64.2465 40.6672 63.6564C40.0746 62.9187 39.3339 62.4024 37.9265 62.1074L35.1857 61.4435C34.0746 61.1485 33.5561 60.9272 33.5561 60.2633C33.5561 59.5995 34.1487 59.0831 35.5561 59.0831C36.3709 59.0831 37.1117 59.2307 37.6302 59.747C38.0005 60.1896 37.9265 60.4108 38.2968 60.5584C38.5191 60.6321 38.7413 60.6321 39.0376 60.6321H40.3709C40.5931 60.6321 40.7413 60.6321 40.8894 60.4846C40.9635 60.4108 41.0376 60.1896 41.0376 59.9683C41.0376 59.3782 40.6672 58.5668 39.9265 57.9029C38.9635 57.0916 37.482 56.5015 35.6302 56.5015C32.3709 56.5015 30.2228 58.0505 30.2228 60.5584C30.2228 61.4435 30.5191 62.1811 31.0376 62.6975C31.6302 63.3613 32.5191 63.8039 33.7783 64.0989L36.5191 64.7628C37.2598 64.9841 37.9265 65.2054 37.9265 65.8692C37.8524 66.9019 36.7413 67.2707 35.6302 67.2707Z" fill="white"/>
<path d="M10.5188 10.1053C11.1855 10.9905 12.2225 12.8345 13.2595 15.1949C13.4077 14.8998 14.0003 14.1622 14.2225 13.9409C13.3336 12.0969 11.7781 10.3266 11.1114 9.58899L10.5188 10.1053Z" fill="white"/>
<path d="M27.6299 26.2592C28.667 25.7428 30.2966 25.5215 31.1855 25.5215C31.9262 25.5215 32.7411 25.5953 33.4077 25.6691C34.2225 25.7428 35.1855 25.8903 36.1485 25.8903C38.3707 25.8903 40.5929 24.7102 40.9633 24.4889C40.667 24.2676 40.3707 23.8988 40.1485 23.6775C39.4077 23.9725 37.7781 24.5626 36.1485 24.5626C35.3336 24.5626 34.667 24.4889 33.9262 24.4151C32.9633 24.2676 32.0744 24.1938 31.3336 24.1938C30.0744 24.1938 28.5188 24.3413 27.0374 25.374L27.6299 26.2592Z" fill="white"/>
<path d="M25.4817 25.3003L24.815 24.4152C22.1484 25.4478 19.1113 27.0706 19.1113 28.7671C19.1113 29.726 19.8521 30.4636 21.4817 30.4636C23.8521 30.4636 26.3706 29.2834 28.4447 28.177L28.1484 27.882C28.0002 27.6607 27.8521 27.5869 27.6298 27.5869C27.4817 27.5869 27.3336 27.6607 27.1854 27.7344C25.4817 28.5458 23.5558 29.431 21.778 29.431C20.741 29.431 20.5187 29.1359 20.5187 28.6934C20.5187 27.3656 23.8521 25.9642 25.4817 25.3003Z" fill="white"/>
<path d="M48.5929 59.3783C48.8152 59.3783 49.0374 59.3045 49.1855 59.157C49.3337 59.0095 49.4078 58.7882 49.4078 58.5669V57.7555C49.4078 57.4605 49.3337 57.313 49.1855 57.1654C49.0374 57.0179 48.8152 56.9441 48.5929 56.9441H46.4448V53.0348C46.4448 52.7397 46.3707 52.5184 46.2226 52.2972C46.0744 52.0759 45.7781 51.9283 45.4078 51.9283H44.0744C43.7041 51.9283 43.4818 52.0759 43.2596 52.2972C43.1115 52.4447 43.0374 52.7397 43.0374 53.0348V56.9441H42.3707C42.1485 56.9441 41.9263 57.0179 41.7781 57.1654C41.63 57.313 41.5559 57.5342 41.5559 57.7555V58.5669C41.5559 58.862 41.63 59.0832 41.7781 59.157C41.9263 59.3045 42.1485 59.3783 42.3707 59.3783H42.9633V65.353C42.9633 66.902 43.4078 67.8609 44.1485 68.5985C44.8892 69.3361 45.7781 69.7787 47.4078 69.7787H48.4448C48.667 69.7787 48.8892 69.705 49.0374 69.5574C49.1855 69.4099 49.2596 69.1886 49.2596 68.9673V67.9347C49.2596 67.6396 49.1855 67.4921 49.0374 67.3446C48.8892 67.197 48.7411 67.1233 48.5189 67.1233H48.3707C47.7041 67.1233 47.2596 66.9758 46.9633 66.6807C46.5929 66.3119 46.4448 65.8693 46.4448 65.1317V59.3783H48.5929Z" fill="white"/>
<path d="M66.8155 54.6575C67.0377 54.6575 67.2599 54.5837 67.4081 54.4362C67.5562 54.2887 67.6303 54.0674 67.6303 53.8461V52.7397C67.6303 52.2971 67.5562 52.0758 67.4081 51.9283C67.2599 51.7808 67.0377 51.707 66.8155 51.707C66.5933 51.707 66.4451 51.707 66.0748 51.7808L56.5192 52.7397C56.2229 52.7397 56.1488 52.8135 56.0007 52.961C55.9266 53.1085 55.8525 53.256 55.8525 53.4773V54.0674C55.8525 54.2887 55.9266 54.4362 56.0007 54.51C56.0748 54.6575 56.297 54.6575 56.4451 54.6575H66.8155Z" fill="white"/>
<path d="M49.2596 29.6522C47.4818 33.4141 44.7411 36.1433 41.9263 37.766C40.593 38.5036 39.4078 39.02 36.8152 39.02H31.1856C29.1856 39.02 27.9263 39.315 26.9633 39.5363C25.9263 39.8314 25.2596 40.0526 24.1485 40.0526C22.593 40.0526 21.1115 39.2413 20.3707 38.5036L21.7041 37.471L21.0374 36.5858C20.667 36.8809 16.0004 40.3477 14.9633 41.0853H14.8893C14.8893 40.864 14.8893 40.6427 14.8893 40.4215C14.8893 37.766 13.63 37.1759 11.7781 36.4383L10.5189 37.1759C13.0374 37.9873 13.7041 38.7249 13.7041 40.569C13.7041 42.0442 13.1856 42.6343 12.3707 43.1506C11.5559 43.5932 10.593 43.8145 9.70407 43.8145C9.3337 43.8145 9.18556 43.8883 9.03741 44.0358C8.88926 44.1833 8.81519 44.4046 8.81519 44.6996V45.1422H9.11148C10.7411 45.1422 12.2226 44.9209 13.8522 43.5932L19.1856 39.4625C19.9263 40.3477 21.8522 41.5279 24.0744 41.5279C25.3337 41.5279 26.1485 41.2328 27.3337 40.9378C28.2226 40.7165 29.1115 40.4952 31.1115 40.4952H36.7411C39.63 40.4952 41.0374 39.9051 42.5189 39.02C45.8522 37.1759 48.667 34.0042 50.2967 30.3898C49.9263 30.0948 49.5559 29.8735 49.2596 29.6522Z" fill="white"/>
<path d="M0.0743544 41.3066H0.518799C1.40769 41.3066 1.48176 40.7903 1.48176 40.2739C1.48176 39.9051 1.48176 39.5363 1.48176 39.0938C1.48176 38.1348 1.55584 37.2497 3.11139 36.5121C3.77806 36.217 6.96324 34.9631 9.33361 33.9304C10.0003 33.6354 10.6669 33.4141 11.4077 33.4141C12.2225 33.4141 13.1114 33.7829 14.2966 34.4468C15.2595 35.0368 16.2966 35.7745 17.1114 36.6596L18.1484 35.8482C17.2595 34.8156 16.0744 33.9304 14.8151 33.1928C13.6299 32.4552 12.5188 32.0864 11.6299 32.0864C11.2595 32.0864 10.8892 32.1601 10.6669 32.2339C10.3707 32.3077 10.0744 32.3814 9.62991 32.3814C9.18547 32.3814 8.81509 32.3077 8.29658 31.6438C8.07435 31.4225 6.8151 29.9473 6.5188 29.5047C6.37065 29.2834 6.14843 28.9146 6.14843 28.3983C6.14843 28.177 6.14843 27.9557 6.29658 27.7344C7.40769 28.6196 8.81509 29.1359 10.4447 29.3572L10.2225 28.2508C7.77806 27.6607 5.18547 25.5216 5.18547 24.1939C5.18547 23.8988 5.25954 23.6775 5.33361 23.4562C6.29658 24.3414 8.44473 25.2265 9.62991 25.2265C10.2966 25.2265 10.8151 25.0052 11.3336 24.7839C11.7781 24.5627 12.2966 24.4151 12.9632 24.4151C14.5188 24.4151 16.3706 25.1528 18.0744 25.8904C18.1484 25.8904 18.2966 25.9641 18.3706 25.9641C18.6669 25.9641 18.8151 25.8166 18.9632 25.5953L19.1855 25.2265C17.3336 24.1939 14.4447 23.0137 12.8892 23.0137C12.2225 23.0137 11.704 23.1612 11.1855 23.3825C10.6669 23.6038 10.1484 23.825 9.70398 23.825C8.5188 23.825 5.40769 22.6449 5.40769 21.4647C5.40769 20.137 10.3707 19.5469 10.8892 19.5469L11.4077 18.4404C7.85213 18.4404 3.55584 19.6944 3.55584 21.3909C3.55584 21.8335 3.85213 22.1285 3.85213 22.5711C3.85213 23.1612 3.55584 23.6038 3.55584 24.2676C3.55584 24.7102 3.85213 25.3003 4.14843 25.7429C4.5188 26.2592 4.88917 26.628 4.88917 26.9968C4.88917 27.2919 4.66695 27.7344 4.66695 28.472C4.66695 30.0948 5.55584 31.0537 7.40769 32.9715L7.77806 33.3403C6.29658 33.9304 3.48176 35.1106 2.88917 35.4057C0.666947 36.3646 0.0743544 37.471 0.0743544 39.2413C0.000280311 39.8314 0.000280311 40.6427 0.0743544 41.3066Z" fill="white"/>
<path d="M15.5555 4.13071C15.5555 4.05695 15.4814 3.90942 15.3333 3.90942C15.2592 3.90942 15.1851 3.98319 15.037 4.05695C14.5925 4.42576 14.1481 4.86833 13.7777 5.3109C13.1851 5.97476 12.6666 6.93366 12.2222 7.89256L12.8888 8.26137C13.3333 7.67128 14.8148 5.45842 15.5555 4.27823C15.5555 4.27823 15.5555 4.20447 15.5555 4.13071Z" fill="white"/>
<path d="M0 68.5248C0 68.8936 0.0740741 69.1149 0.296296 69.3361C0.518519 69.5574 0.814815 69.7049 1.25926 69.7049H2.37037C2.81482 69.7049 3.11111 69.5574 3.33333 69.3361C3.48148 69.1149 3.62963 68.8936 3.62963 68.5248V57.4605H3.7037C3.7037 57.4605 9.92593 68.3772 10.1481 68.746C10.5185 69.3361 11.1111 69.7787 11.9259 69.7787H13.8519C14.2963 69.7787 14.5926 69.6312 14.8148 69.4099C14.963 69.1886 15.1111 68.9673 15.1111 68.5985V54.6575H40C40.2222 54.6575 40.4444 54.5838 40.5926 54.4362C40.7407 54.2887 40.8148 54.0674 40.8148 53.8462V52.8135C40.8148 52.5184 40.7407 52.3709 40.5926 52.2234C40.4444 52.0759 40.2222 52.0021 40 52.0021H12.6667C12.2222 52.0021 11.9259 52.1496 11.7037 52.3709C11.5556 52.5922 11.4074 52.8135 11.4074 53.1823V64.0253H11.3333C11.3333 64.0253 5.40741 53.4773 5.11111 52.961C4.88889 52.5922 4.66667 52.3709 4.37037 52.2234C4.07407 52.0759 3.77778 51.9283 3.18519 51.9283H1.18519C0.740741 51.9283 0.444444 52.0759 0.222222 52.2972C0.0740741 52.5184 0 52.7397 0 53.1823V68.5248Z" fill="white"/>
<path d="M28.8154 64.0253C29.0377 63.804 29.1117 63.5827 29.1117 63.0664C29.1117 61.5174 28.5932 59.8946 27.5562 58.6407C26.5192 57.3867 24.8895 56.5016 22.5932 56.5016C18.4451 56.5016 16.0747 59.7471 16.0747 63.1402C16.0747 66.7545 18.5932 70 22.5932 70C24.5932 70 26.5932 69.2624 27.7043 67.9347C28.2229 67.3446 28.5932 66.5332 28.5932 66.0906C28.5932 65.9431 28.5932 65.7956 28.4451 65.6481C28.371 65.5005 28.2229 65.4268 27.9266 65.4268H26.0006C25.6303 65.4268 25.334 65.5743 25.1858 65.8693C24.5932 66.6807 23.7784 67.1233 22.5932 67.1233C20.8154 67.1233 19.6303 65.7956 19.5562 64.2466H27.9266C28.371 64.2466 28.5932 64.1728 28.8154 64.0253ZM19.6303 61.7387C19.7784 60.2634 20.8895 59.157 22.5932 59.157C24.2969 59.157 25.408 60.2634 25.5562 61.7387H19.6303Z" fill="white"/>
<path d="M4.29639 13.7935C4.29639 13.8672 4.37046 14.0148 4.44453 14.0148C4.51861 14.0148 4.59268 14.0148 4.74083 13.941L9.1112 12.4658L8.88898 11.7281C7.1112 12.0232 5.77787 12.4658 4.29639 13.646C4.29639 13.646 4.29639 13.7197 4.29639 13.7935Z" fill="white"/>
<path d="M6.9634 5.23714C6.29673 4.7208 5.48192 4.35199 4.59303 3.98319L4.44488 3.90942C4.29673 3.90942 4.22266 3.98319 4.22266 4.05695C4.22266 4.13071 4.22266 4.20447 4.3708 4.27823C5.40784 5.16338 7.40784 6.8599 8.07451 7.37623L8.59303 6.78614C8.07451 6.19604 7.48192 5.67971 6.9634 5.23714Z" fill="white"/>
</g>
<defs>
<clipPath id="clip0_7936_17812">
<rect width="68" height="70" fill="white"/>
</clipPath>
</defs>
</svg>
