<svg width="260" height="70" viewBox="0 0 260 70" fill="none" xmlns="http://www.w3.org/2000/svg">
<g clip-path="url(#clip0_10935_3195)">
<path d="M79.9998 8.69466C79.9998 9.7122 79.5677 10.6301 78.709 11.4414C77.8503 12.2562 76.7242 12.8784 75.3423 13.3081L79.5506 17.7188H72.6468L69.0015 13.9201H67.0396V17.7188H60.7556V0.756836H71.3616C72.5558 0.756836 73.6818 0.890909 74.7282 1.1625C75.7745 1.43408 76.6901 1.80879 77.4806 2.28321C78.2653 2.75762 78.8852 3.3111 79.3345 3.9471C79.7838 4.57965 80.0056 5.26033 80.0056 5.98226V8.69466H79.9998ZM73.7159 5.98226C73.7159 5.59722 73.4828 5.26376 73.0164 4.98187C72.5502 4.69997 71.9985 4.55902 71.3616 4.55902H67.0396V10.0904H71.3616C71.9985 10.0904 72.5502 9.95634 73.0164 9.68473C73.4828 9.41317 73.7159 9.08657 73.7159 8.70154V5.98226Z" fill="white"/>
<path d="M100.763 0.756836V4.55558H95.77V17.7188H89.4857V4.55558H84.4927V0.756836H100.769H100.763Z" fill="white"/>
<path d="M112.665 4.55558V7.43988H119.626V10.5957H112.665V13.9201H122.316V17.7188H106.376V0.756836H122.316V4.55558H112.665Z" fill="white"/>
<path d="M140.889 6.08196V4.55558H134.212V13.9201H140.889V11.5102H138.42V8.31995H147.178V14.5973C147.178 15.027 147.048 15.4293 146.786 15.8006C146.525 16.1752 146.16 16.5019 145.695 16.7837C145.228 17.0657 144.677 17.2926 144.04 17.461C143.402 17.6295 142.732 17.7154 142.021 17.7154H133.098C132.387 17.7154 131.716 17.6295 131.08 17.461C130.442 17.2926 129.891 17.0657 129.424 16.7837C128.958 16.5019 128.594 16.1718 128.333 15.8006C128.071 15.4259 127.94 15.027 127.94 14.5973V3.87834C127.94 3.44862 128.071 3.0464 128.333 2.67511C128.594 2.3004 128.958 1.97381 129.424 1.69192C129.891 1.41002 130.442 1.18312 131.08 1.01467C131.705 0.84278 132.381 0.756836 133.092 0.756836H142.015C142.726 0.756836 143.397 0.84278 144.033 1.01123C144.671 1.17968 145.222 1.40658 145.689 1.68848C146.155 1.97038 146.519 2.3004 146.78 2.67168C147.042 3.0464 147.173 3.44518 147.173 3.8749V6.07852H140.889V6.08196Z" fill="white"/>
<path d="M184.342 4.55558V0.756836H152.791V17.7188H184.342V13.9201H159.076V10.5957H171.723V7.43988H159.076V4.55558H184.342Z" fill="white"/>
<path d="M53.6471 1.69581C53.175 1.41049 52.6234 1.18359 51.9865 1.01514C51.3496 0.846687 50.6728 0.760742 49.9563 0.760742H0.469482V4.57668H25.7133V7.47128H13.0885V10.6374H25.7133V13.9756H0.469482V17.7915H49.9563C50.6672 17.7915 51.3439 17.7056 51.9865 17.5371C52.6234 17.3687 53.1808 17.1383 53.6471 16.8564C54.1134 16.5745 54.4831 16.2445 54.7446 15.8698C55.0063 15.4951 55.1371 15.0928 55.1371 14.6597V3.89256C55.1371 3.46284 55.0063 3.05718 54.7446 2.68246C54.4831 2.30774 54.1134 1.97771 53.6471 1.69581ZM48.8304 13.9756H32.0257V4.57324H48.8304V13.9756Z" fill="white"/>
</g>
<defs>
<clipPath id="clip0_10935_3195">
<rect width="185" height="18" fill="white"/>
</clipPath>
</defs>
</svg>
