<svg width="260" height="70" viewBox="0 0 260 70" fill="none" xmlns="http://www.w3.org/2000/svg">
<path d="M30.828 35.3755H14.6992C7.07464 26.0081 5.93829 12.9306 11.9133 2.38774L22.3604 20.6082L33.9072 0.477539H50.8791L30.828 35.3755ZM62.096 2.46121C67.9243 12.9673 66.8246 25.9714 59.3467 35.3755H43.5111L48.3864 26.7428H41.9349L49.5228 13.3347H56.011L62.096 2.46121ZM78.1881 18.4408C78.1881 26.0816 81.6705 29.7551 87.6822 29.7551C93.6938 29.7551 97.1762 26.1184 97.1762 18.4408C97.1762 10.7633 93.6938 7.08978 87.6822 7.08978C81.6705 7.08978 78.1881 10.7265 78.1881 18.4408ZM75.4389 18.4408C75.4389 9.14693 80.0576 4.66529 87.6455 4.66529C95.2334 4.66529 99.8521 9.14693 99.8521 18.4408C99.8521 27.6612 95.2334 32.1796 87.6455 32.1796C80.0576 32.1796 75.4389 27.6612 75.4389 18.4408ZM111.912 26.8531L103.958 5.7306C103.848 5.39999 103.444 4.84897 102.711 4.84897C101.978 4.84897 101.392 5.43672 101.392 6.17142C101.392 6.39182 101.465 6.64896 101.502 6.75917L110.666 30.9673C110.849 31.5184 111.399 31.8857 111.912 31.8857C112.425 31.8857 112.975 31.5184 113.158 30.9673L122.322 6.75917C122.359 6.64896 122.432 6.39182 122.432 6.17142C122.432 5.43672 121.846 4.84897 121.113 4.84897C120.38 4.84897 119.976 5.39999 119.867 5.7306L111.912 26.8531ZM141.64 19.2857V30.6C141.64 31.2979 142.227 31.9224 142.96 31.9224C143.693 31.9224 144.28 31.2979 144.28 30.6V6.20815C144.28 5.51019 143.693 4.8857 142.96 4.8857C142.227 4.8857 141.64 5.51019 141.64 6.20815V16.8612H128.004V6.20815C128.004 5.51019 127.418 4.8857 126.685 4.8857C125.951 4.8857 125.365 5.51019 125.365 6.20815V30.6C125.365 31.2979 125.951 31.9224 126.685 31.9224C127.418 31.9224 128.004 31.2979 128.004 30.6V19.2857H141.64ZM156.89 13.2612C151.831 13.2612 148.825 16.2367 148.825 22.6653C148.825 29.0939 151.831 32.1428 156.89 32.1428C160.079 32.1428 161.948 30.7469 162.791 30.0122C163.194 29.6449 163.304 29.3877 163.304 29.0204C163.304 28.3959 162.791 27.8816 162.168 27.8816C161.875 27.8816 161.692 27.9551 161.435 28.1388C160.519 28.8 159.162 29.8286 156.89 29.8286C153.297 29.8286 151.354 27.551 151.354 22.6286C151.354 17.8163 153.261 15.4653 156.89 15.4653C159.492 15.4653 160.519 16.6408 161.105 17.302C161.362 17.6326 161.655 17.7796 162.058 17.7796C162.681 17.7796 163.194 17.302 163.194 16.6408C163.194 16.3837 163.121 16.1632 162.901 15.9061C162.278 15.0979 160.372 13.2612 156.89 13.2612ZM169.389 4.92243C169.389 4.26121 168.84 3.67346 168.143 3.67346C167.483 3.67346 166.897 4.26121 166.897 4.92243V27.3306C166.897 30.3428 168.363 31.9224 170.966 31.9224C171.589 31.9224 172.139 31.4082 172.139 30.7469C172.139 30.0857 171.589 29.5714 170.966 29.5714C169.903 29.5714 169.389 28.9102 169.389 27.3306V4.92243ZM188.157 22.6653C188.157 17.7061 186.068 15.5388 182.476 15.5388C178.883 15.5388 176.794 17.7428 176.794 22.6653C176.794 27.698 178.883 29.8653 182.476 29.8653C186.105 29.8653 188.157 27.698 188.157 22.6653ZM190.723 22.6653C190.723 29.0939 187.608 32.1428 182.512 32.1428C177.454 32.1428 174.301 29.1306 174.301 22.6653C174.301 16.2367 177.49 13.2612 182.512 13.2612C187.571 13.2612 190.723 16.2367 190.723 22.6653ZM196.772 14.7306C196.772 14.0326 196.185 13.4816 195.525 13.4816C194.829 13.4816 194.279 14.0326 194.279 14.7306V24.9796C194.279 28.7265 195.525 32.1061 201.574 32.1061C207.659 32.1061 208.868 28.6898 208.868 24.9796V14.7306C208.868 14.0326 208.319 13.4816 207.659 13.4816C206.962 13.4816 206.376 14.0326 206.376 14.7306V24.9796C206.376 27.5143 205.569 29.7184 201.61 29.7184C197.651 29.7184 196.845 27.5143 196.845 24.9796V14.7306M225.547 18.9918C225.547 18.9918 224.044 15.5388 220.378 15.5388C216.823 15.5388 214.843 17.8531 214.843 22.6653C214.843 27.5877 216.749 29.8653 220.378 29.8653C223.384 29.8653 225.547 28.1388 225.547 24.3918V18.9918ZM225.547 15.7959V4.92243C225.547 4.22447 226.097 3.67346 226.793 3.67346C227.49 3.67346 228.04 4.22447 228.04 4.92243V24.3918C228.04 29.5714 224.814 32.1428 220.378 32.1428C215.32 32.1428 212.351 29.1306 212.351 22.6653C212.351 16.2367 215.173 13.2612 220.232 13.2612C222.724 13.2612 224.631 14.5469 225.547 15.7959Z" fill="white"/>
</svg>
