<svg width="260" height="70" viewBox="0 0 260 70" fill="none" xmlns="http://www.w3.org/2000/svg">
<g clip-path="url(#clip0_10935_3183)">
<mask id="mask0_10935_3183" style="mask-type:luminance" maskUnits="userSpaceOnUse" x="0" y="0" width="142" height="50">
<path d="M142 0H0V49.639H142V0Z" fill="white"/>
</mask>
<g mask="url(#mask0_10935_3183)">
<path d="M84.7165 12.8374L84.7101 12.8523" stroke="white" stroke-miterlimit="10"/>
<path d="M60.8972 24.406C61.3073 23.8062 61.5069 23.0909 61.5069 22.2201V22.1334C61.5069 21.3559 61.3096 20.6983 60.9059 20.123C60.4805 19.5187 59.884 19.0523 59.0812 18.7013C58.2326 18.328 57.2259 18.1392 56.0876 18.1392H45.0912V31.4947H48.5519V26.3209H56.0876C57.25 26.3209 58.2698 26.1432 59.1164 25.7922C59.895 25.4701 60.4762 25.0169 60.895 24.4038L60.8972 24.406ZM57.9496 24.1216C57.4737 24.5393 56.807 24.7414 55.9078 24.7414H48.5542V19.6498H49.87C52.3264 19.6498 53.7783 19.6432 54.1862 19.6298H54.2301H54.8923C55.6117 19.6298 56.1469 19.6543 56.5306 19.7053C57.1162 19.7853 57.6097 20.003 58.0022 20.3563C58.3356 20.6562 58.7325 21.2226 58.7325 22.2178C58.7325 23.2131 58.3071 23.8062 57.9518 24.1216H57.9496Z" fill="white"/>
<path d="M60.8972 24.406C61.3073 23.8062 61.5069 23.0909 61.5069 22.2201V22.1334C61.5069 21.3559 61.3096 20.6983 60.9059 20.123C60.4805 19.5187 59.884 19.0523 59.0812 18.7013C58.2326 18.328 57.2259 18.1392 56.0876 18.1392H45.0912V31.4947H48.5519V26.3209H56.0876C57.25 26.3209 58.2698 26.1432 59.1164 25.7922C59.895 25.4701 60.4762 25.0169 60.895 24.4038L60.8972 24.406ZM57.9496 24.1216C57.4737 24.5393 56.807 24.7414 55.9078 24.7414H48.5542V19.6498H49.87C52.3264 19.6498 53.7783 19.6432 54.1862 19.6298H54.2301H54.8923C55.6117 19.6298 56.1469 19.6543 56.5306 19.7053C57.1162 19.7853 57.6097 20.003 58.0022 20.3563C58.3356 20.6562 58.7325 21.2226 58.7325 22.2178C58.7325 23.2131 58.3071 23.8062 57.9518 24.1216H57.9496Z" fill="white"/>
<path d="M69.8015 19.712L76.0915 31.497H79.1926L72.0473 18.1392H67.5229L60.3776 31.497H63.4765L63.4808 31.4903L69.8015 19.712Z" fill="white"/>
<path d="M69.8015 19.712L74.7646 29.0711H74.7888L76.0915 31.497H79.1926L72.0473 18.1392H67.5229L60.3776 31.497H63.4765L63.4808 31.4903L69.8015 19.712Z" fill="white"/>
<path d="M92.5336 30.2196L86.7063 18.1392H82.0042V31.497H85.4627V21.3936L90.5969 31.497H94.4219L99.3829 21.1804V31.497H102.844V18.1392H98.3341L92.5336 30.2196Z" fill="white"/>
<path d="M92.5336 30.2196L86.7063 18.1392H82.0042V31.497H85.4627V21.3936L90.5969 31.497H94.4219L99.3829 21.1804V31.497H102.844V18.1392H98.3341L92.5336 30.2196Z" fill="white"/>
<path d="M123.446 22.1334C123.446 21.3559 123.249 20.6983 122.845 20.123C122.419 19.5187 121.823 19.0523 121.02 18.7013C120.172 18.328 119.165 18.1392 118.026 18.1392H107.03V31.4947H110.491V26.3209H118.026C119.189 26.3209 120.208 26.1432 121.055 25.7922C121.834 25.4701 122.415 25.0169 122.834 24.4038C123.244 23.804 123.444 23.0886 123.444 22.2178V22.1312L123.446 22.1334ZM119.888 24.1216C119.413 24.5393 118.746 24.7414 117.847 24.7414H110.493V19.6498H111.809C114.265 19.6498 115.717 19.6432 116.125 19.6298H116.169H116.831C117.551 19.6298 118.086 19.6543 118.469 19.7053C119.055 19.7853 119.549 20.003 119.941 20.3563C120.275 20.6562 120.671 21.2226 120.671 22.2178C120.671 23.2131 120.246 23.8062 119.891 24.1216H119.888Z" fill="white"/>
<path d="M123.446 22.1334C123.446 21.3559 123.249 20.6983 122.845 20.123C122.419 19.5187 121.823 19.0523 121.02 18.7013C120.172 18.328 119.165 18.1392 118.026 18.1392H107.03V31.4947H110.491V26.3209H118.026C119.189 26.3209 120.208 26.1432 121.055 25.7922C121.834 25.4701 122.415 25.0169 122.834 24.4038C123.244 23.804 123.444 23.0886 123.444 22.2178V22.1312L123.446 22.1334ZM119.888 24.1216C119.413 24.5393 118.746 24.7414 117.847 24.7414H110.493V19.6498H111.809C114.265 19.6498 115.717 19.6432 116.125 19.6298H116.169H116.831C117.551 19.6298 118.086 19.6543 118.469 19.7053C119.055 19.7853 119.549 20.003 119.941 20.3563C120.275 20.6562 120.671 21.2226 120.671 22.2178C120.671 23.2131 120.246 23.8062 119.891 24.1216H119.888Z" fill="white"/>
<path d="M134.854 18.1392H130.33L123.184 31.497H126.286L132.608 19.712L136.75 27.796L138.9 31.497H142L134.854 18.1392Z" fill="white"/>
<path d="M134.854 18.1392H130.33L123.184 31.497H126.286L132.608 19.712L136.75 27.796L138.9 31.497H142L134.854 18.1392Z" fill="white"/>
<path d="M20.4187 19.2331L6.53601 11.5801V42.3053L20.4209 49.6385V34.6991L20.4187 34.7013V19.2331Z" fill="white"/>
<path d="M12.172 0L0 7.97956L20.4183 19.2336V34.7018L20.4204 34.6995L33.1495 27.7441V11.5962L12.172 0Z" fill="white"/>
</g>
</g>
<defs>
<clipPath id="clip0_10935_3183">
<rect width="142" height="50" fill="white"/>
</clipPath>
</defs>
</svg>
