<svg width="173" height="80" viewBox="0 0 173 80" fill="none" xmlns="http://www.w3.org/2000/svg">
<g clip-path="url(#clip0_11304_14917)">
<path d="M68.5154 28H43.5799C43.4261 28 43.2786 28.0562 43.1698 28.1562C43.0611 28.2562 43 28.3919 43 28.5333V51.4657C43 51.6072 43.0611 51.743 43.1698 51.843C43.2786 51.9429 43.4261 51.9991 43.5799 51.9991H68.5154C68.6693 51.9991 68.8167 51.9429 68.9256 51.843C69.0343 51.743 69.0955 51.6072 69.0955 51.4657V28.5333C69.0955 28.3919 69.0343 28.2562 68.9256 28.1562C68.8167 28.0562 68.6693 28 68.5154 28ZM60.3969 43.4661C60.3969 43.6076 60.3358 43.7432 60.2271 43.8432C60.1183 43.9432 59.9708 43.9994 59.817 43.9994H52.2783C52.1246 43.9994 51.9771 43.9432 51.8683 43.8432C51.7596 43.7432 51.6985 43.6076 51.6985 43.4661V36.533C51.6985 36.3916 51.7596 36.2559 51.8683 36.1559C51.9771 36.0559 52.1246 35.9997 52.2783 35.9997H59.817C59.9708 35.9997 60.1183 36.0559 60.2271 36.1559C60.3358 36.2559 60.3969 36.3916 60.3969 36.533V43.4661Z" fill="#808080"/>
<path d="M120.717 36.001H113.178C112.858 36.001 112.598 36.2397 112.598 36.5343V43.4674C112.598 43.7619 112.858 44.0007 113.178 44.0007H120.717C121.037 44.0007 121.297 43.7619 121.297 43.4674V36.5343C121.297 36.2397 121.037 36.001 120.717 36.001Z" fill="#808080"/>
<path d="M112.02 28H104.482C104.162 28 103.902 28.2388 103.902 28.5333V35.4664C103.902 35.7609 104.162 35.9997 104.482 35.9997H112.02C112.341 35.9997 112.601 35.7609 112.601 35.4664V28.5333C112.601 28.2388 112.341 28 112.02 28Z" fill="#808080"/>
<path d="M129.42 28H121.881C121.561 28 121.301 28.2388 121.301 28.5333V35.4664C121.301 35.7609 121.561 35.9997 121.881 35.9997H129.42C129.74 35.9997 130 35.7609 130 35.4664V28.5333C130 28.2388 129.74 28 129.42 28Z" fill="#808080"/>
<path d="M112.02 44H104.482C104.162 44 103.902 44.2388 103.902 44.5333V51.4665C103.902 51.7609 104.162 51.9998 104.482 51.9998H112.02C112.341 51.9998 112.601 51.7609 112.601 51.4665V44.5333C112.601 44.2388 112.341 44 112.02 44Z" fill="#808080"/>
<path d="M129.42 44H121.881C121.561 44 121.301 44.2388 121.301 44.5333V51.4665C121.301 51.7609 121.561 51.9998 121.881 51.9998H129.42C129.74 51.9998 130 51.7609 130 51.4665V44.5333C130 44.2388 129.74 44 129.42 44Z" fill="#808080"/>
<path d="M98.9623 28H91.4238C91.1035 28 90.8437 28.2388 90.8437 28.5333V35.4664C90.8437 35.7609 91.1035 35.9997 91.4238 35.9997H98.9623C99.2827 35.9997 99.5422 35.7609 99.5422 35.4664V28.5333C99.5422 28.2388 99.2827 28 98.9623 28Z" fill="#808080"/>
<path d="M98.9623 44H91.4238C91.1035 44 90.8437 44.2388 90.8437 44.5333V51.4665C90.8437 51.7609 91.1035 51.9998 91.4238 51.9998H98.9623C99.2827 51.9998 99.5422 51.7609 99.5422 51.4665V44.5333C99.5422 44.2388 99.2827 44 98.9623 44Z" fill="#808080"/>
<path d="M90.8413 36.527C90.8413 36.3856 90.7801 36.2499 90.6714 36.1499C90.5627 36.0499 90.4152 35.9937 90.2614 35.9937H82.1427V28.5333C82.1427 28.3919 82.0816 28.2562 81.9729 28.1562C81.8642 28.0562 81.7166 28 81.5629 28H74.0243C73.8703 28 73.723 28.0562 73.6141 28.1562C73.5054 28.2562 73.4442 28.3919 73.4442 28.5333V51.4538C73.4442 51.5953 73.5054 51.7309 73.6141 51.8309C73.723 51.931 73.8703 51.9871 74.0243 51.9871H81.5629C81.7166 51.9871 81.8642 51.931 81.9729 51.8309C82.0816 51.7309 82.1427 51.5953 82.1427 51.4538V43.9934H90.2614C90.4152 43.9934 90.5627 43.9372 90.6714 43.8372C90.7801 43.7372 90.8413 43.6016 90.8413 43.4601V36.527Z" fill="#808080"/>
</g>
<defs>
<clipPath id="clip0_11304_14917">
<rect width="87" height="24" fill="white" transform="translate(43 28)"/>
</clipPath>
</defs>
</svg>
