<svg width="216" height="100" viewBox="0 0 216 100" fill="none" xmlns="http://www.w3.org/2000/svg">
<g clip-path="url(#clip0_199_536)">
<path d="M67.6209 55.1988C65.5049 55.1988 63.8698 53.5827 63.8698 51.3961C63.8698 49.3046 65.5049 47.6884 67.6209 47.6884C69.7368 47.6884 71.3719 49.3046 71.3719 51.3961C71.4681 53.5827 69.7368 55.1988 67.6209 55.1988ZM74.5459 47.5934V45.0265H69.9292C69.1598 44.7413 68.3903 44.6463 67.6209 44.6463C63.6774 44.6463 60.5997 47.5934 60.5997 51.4912C60.5997 55.389 63.6774 58.336 67.6209 58.336C71.5643 58.336 74.6421 55.389 74.6421 51.4912C74.6421 50.1602 74.2573 48.9243 73.584 47.9737L74.5459 47.5934ZM52.4244 55.1988C50.3084 55.1988 48.6733 53.5827 48.6733 51.3961C48.6733 49.3046 50.3084 47.6884 52.4244 47.6884C54.5404 47.6884 56.1754 49.3046 56.1754 51.3961C56.1754 53.5827 54.5404 55.1988 52.4244 55.1988ZM52.4244 44.6463C48.481 44.6463 45.4032 47.5934 45.4032 51.4912C45.4032 55.389 48.481 58.336 52.4244 58.336C56.3678 58.336 59.4455 55.389 59.4455 51.4912C59.4455 47.5934 56.3678 44.6463 52.4244 44.6463ZM40.7866 57.9558H44.0567V39.6077H40.7866V57.9558ZM75.9886 57.9558H79.2586V45.0265H75.9886V57.9558ZM67.6209 62.5192C65.5049 62.5192 63.8698 60.9029 63.8698 58.8115H60.5997C60.5997 62.7092 63.6774 65.6565 67.6209 65.6565C71.5643 65.6565 74.6421 62.7092 74.6421 58.8115H71.3719C71.3719 60.9979 69.7368 62.5192 67.6209 62.5192ZM91.2812 50.1602C91.7622 48.449 93.0125 47.4983 94.7438 47.4983C96.4749 47.4983 97.7254 48.449 98.11 50.1602H91.2812ZM94.84 44.6463C90.8965 44.6463 87.915 47.5934 87.915 51.5863C87.915 55.484 90.6079 58.336 94.84 58.336C97.1483 58.336 99.2643 57.4804 100.803 55.8644L98.591 53.6778C97.533 54.7235 96.3789 55.389 94.9362 55.389C93.1087 55.389 91.7622 54.3431 91.3774 52.7271H101.573V51.9665C101.573 47.5934 98.7832 44.6463 94.84 44.6463ZM123.79 44.6463C122.155 44.6463 120.809 45.2167 119.847 46.2624V39.5126H116.577V57.9558H119.847V50.9208C119.847 49.0194 121.001 47.7835 123.021 47.7835C124.848 47.7835 125.906 48.9243 125.906 50.9208V57.9558H129.176V50.3504C129.176 46.7378 126.868 44.6463 123.79 44.6463ZM109.652 47.7835C110.998 47.7835 112.152 48.449 113.018 49.4948L115.326 47.3082C114.076 45.692 112.056 44.7413 109.748 44.7413C105.804 44.7413 102.727 47.6884 102.727 51.5863C102.727 55.484 105.804 58.4313 109.748 58.4313C112.056 58.4313 114.076 57.3854 115.326 55.8644L113.018 53.5827C112.152 54.5333 110.998 55.294 109.652 55.294C107.536 55.294 105.997 53.6778 105.997 51.5863C105.901 49.3997 107.536 47.7835 109.652 47.7835ZM85.7028 41.0337H82.4326V45.0265H80.7015V47.8786H82.4326V57.9558H85.7028V47.8786H87.5301V45.0265H85.7028V41.0337ZM77.6237 39.2274C76.4694 39.2274 75.5078 40.178 75.5078 41.4139C75.5078 42.5548 76.4694 43.5054 77.6237 43.5054C78.874 43.5054 79.8358 42.5548 79.8358 41.4139C79.8358 40.178 78.874 39.2274 77.6237 39.2274ZM153.991 33.3331V39.8928C148.797 39.8928 144.661 43.9808 144.661 49.1145C144.661 54.1531 148.797 58.336 153.991 58.336V64.8958C145.142 64.8958 137.929 57.8608 137.929 49.1145C137.929 40.3682 145.142 33.3331 153.991 33.3331ZM154.183 46.2624V52.7271H161.878V60.3325H168.418V46.2624H154.183Z" fill="white"/>
<path d="M168.734 62.4816H170.835V62.9145H169.994V65.7282H169.574V62.9145H168.734V62.4816Z" fill="white"/>
<path d="M172.934 65.0789H172.619L171.674 63.5637V65.7282H171.253V62.4816H171.569L172.829 64.4295L173.984 62.4816H174.299V65.7282H173.879V63.5637L172.934 65.0789Z" fill="white"/>
</g>
<defs>
<clipPath id="clip0_199_536">
<rect width="135.676" height="33.3333" fill="white" transform="translate(40.7866 33.3331)"/>
</clipPath>
</defs>
</svg>
