<svg width="173" height="80" viewBox="0 0 173 80" fill="none" xmlns="http://www.w3.org/2000/svg">
<path d="M98.1903 47.4668H99.7163V50.7668H100.021L100.767 47.4668H102.395L101.31 51.3335L102.395 55.4335H100.767L100.021 51.9668H99.7163V55.4335H98.1903V47.4668Z" fill="#808080"/>
<path d="M94.1889 47.4668H97.546V48.8335H95.6809V50.8001H97.1052V52.0335H95.6809V54.1335H97.546V55.4668H94.1889V47.4668Z" fill="#808080"/>
<path d="M90.1536 47.4668H93.5107V48.8335H91.6457V50.8001H93.0699V52.0335H91.6457V54.1335H93.5107V55.4668H90.1536V47.4668Z" fill="#808080"/>
<path d="M82.9308 47.4668H84.4228L85.0332 52.6001L85.6436 47.4668H86.9661L87.5765 52.6001L88.1868 47.4668H89.6789L88.3903 55.4335H86.8304L86.254 50.5001L85.6775 55.4335H84.1176L82.9308 47.4668Z" fill="#808080"/>
<path d="M62.3084 21.7979L58.3179 36.4136L73.1864 40.3362L77.177 25.7204L62.3084 21.7979Z" fill="#808080"/>
<path d="M53.278 32.1768L43.2573 43.666L54.9453 53.5161L64.966 42.027L53.278 32.1768Z" fill="#808080"/>
<path d="M80.3537 40.333H64.9585V55.4663H80.3537V40.333Z" fill="#808080"/>
<path d="M121.52 38.2998H122.945L124.03 42.2665V38.2998H125.556V46.2665H124.131L123.046 42.4331V46.2665H121.52V38.2998Z" fill="#808080"/>
<path d="M119.113 38.2998H120.605V46.2665H119.113V38.2998Z" fill="#808080"/>
<path d="M115.586 38.2998H117.214L118.74 46.2665H117.248L117.01 44.9331H115.79L115.552 46.2665H114.06L115.586 38.2998ZM116.807 43.7331L116.4 40.7331L115.959 43.7331H116.807Z" fill="#808080"/>
<path d="M109.686 38.2998H111.212V41.5998H112.127V38.2998H113.619V46.2665H112.127V42.8331H111.212V46.2665H109.686V38.2998Z" fill="#808080"/>
<path d="M100.632 38.2998H102.158V41.5998H102.463L103.209 38.2998H104.837L103.785 42.1665L104.871 46.2665H103.243L102.497 42.7998H102.192V46.2665H100.666V38.2998H100.632Z" fill="#808080"/>
<path d="M87.6782 38.2998H89.2042V44.9331H90.8658V46.2665H87.7121L87.6782 38.2998Z" fill="#808080"/>
<path d="M82.9308 38.2998H84.7958C85.9827 38.2998 86.7965 38.8665 86.7965 39.8665V41.0665C86.7965 41.6665 86.5931 42.0331 86.1522 42.1998C86.5931 42.3665 86.8644 42.6998 86.8644 43.3998V44.7331C86.8644 45.7331 86.0505 46.2665 84.8637 46.2665H82.9308V38.2998ZM84.7619 41.6665C84.9993 41.6665 85.3384 41.6331 85.3384 41.2665V39.9998C85.3384 39.6665 85.0332 39.5998 84.7619 39.5998H84.4567V41.6665H84.7619ZM84.7958 44.9331C85.0332 44.9331 85.3723 44.8998 85.3723 44.5331V43.1331C85.3723 42.7665 85.0671 42.7331 84.7958 42.7331H84.4567V44.9331H84.7958Z" fill="#808080"/>
<path d="M91.171 44.4334V40.1667C91.171 39.0334 91.9848 38.2334 93.1716 38.2334C94.3585 38.2334 95.1723 39.0334 95.1723 40.1667V44.4334C95.1723 45.5667 94.3246 46.3667 93.1716 46.3667C91.9848 46.3667 91.171 45.5667 91.171 44.4334ZM93.1716 45.0001C93.3751 45.0001 93.6464 44.9334 93.6464 44.4667V40.1001C93.6464 39.6334 93.3751 39.5667 93.1716 39.5667C92.9682 39.5667 92.663 39.6334 92.663 40.1001V44.5001C92.6969 44.9667 92.9682 45.0001 93.1716 45.0001Z" fill="#808080"/>
<path d="M105.006 44.4335V40.1335C105.006 39.0002 105.82 38.2002 107.007 38.2002C108.194 38.2002 109.008 39.0002 109.008 40.1335V40.6335H107.516V40.1002C107.516 39.6335 107.244 39.5669 107.041 39.5669C106.837 39.5669 106.532 39.6335 106.532 40.1002V44.5002C106.532 45.0002 106.803 45.0335 107.041 45.0335C107.278 45.0335 107.516 45.0002 107.516 44.5002V43.9335H109.042V44.4669C109.042 45.6002 108.194 46.4002 107.041 46.4002C105.854 46.3669 105.006 45.5669 105.006 44.4335Z" fill="#808080"/>
<path d="M95.9523 44.4335V40.1335C95.9523 39.0002 96.7661 38.2002 97.953 38.2002C99.1398 38.2002 99.9537 39.0002 99.9537 40.1335V40.6335H98.4277V40.1002C98.4277 39.6335 98.1564 39.5669 97.953 39.5669C97.7495 39.5669 97.4443 39.6335 97.4443 40.1002V44.5002C97.4443 45.0002 97.7156 45.0335 97.953 45.0335C98.1903 45.0335 98.4277 45.0002 98.4277 44.5002V43.9335H99.9537V44.4669C99.9537 45.6002 99.1059 46.4002 97.953 46.4002C96.7661 46.3669 95.9523 45.5669 95.9523 44.4335Z" fill="#808080"/>
<path d="M96.7322 29.0996H98.2242V37.0663H96.7322V29.0996Z" fill="#808080"/>
<path d="M91.9509 29.0996H93.9176C95.1045 29.0996 95.9183 29.8329 95.9183 31.1996V33.0329C95.9183 33.8329 95.6471 34.3996 95.1384 34.7663L95.9522 37.0996H94.3246L93.782 35.1663H93.4768V37.0996H91.9509V29.0996ZM93.7481 33.7996C94.0533 33.7996 94.4602 33.7329 94.4602 33.0329V31.1663C94.4602 30.4996 94.0872 30.3996 93.7481 30.3996H93.4768V33.7663H93.7481V33.7996Z" fill="#808080"/>
<path d="M88.4242 29.0996H90.0519L91.5779 37.0663H90.0858L89.8824 35.7329H88.6616L88.4242 37.0663H86.9322L88.4242 29.0996ZM89.645 34.5329L89.2381 31.4996L88.7972 34.5329H89.645Z" fill="#808080"/>
<path d="M82.9308 29.0996H84.8976C86.0844 29.0996 86.8983 29.8329 86.8983 31.1996V33.0996C86.8983 34.4329 86.0844 35.1663 84.8976 35.1663H84.4567V37.0996H82.9308V29.0996ZM84.728 33.7996C85.0332 33.7996 85.4401 33.7329 85.4401 33.0329V31.1663C85.4401 30.4996 85.0671 30.3996 84.728 30.3996H84.4567V33.7663H84.728V33.7996Z" fill="#808080"/>
<path d="M98.7668 35.2665H100.259C100.259 35.7332 100.564 35.8332 100.835 35.8332C101.073 35.8332 101.344 35.6999 101.344 35.3999C101.344 35.1665 101.31 34.9999 100.971 34.5332L99.4789 32.4999C98.9024 31.6999 98.8346 31.1999 98.8346 30.7332C98.8346 29.6999 99.6484 29.0332 100.801 29.0332C101.954 29.0332 102.768 29.7999 102.768 30.8999H101.276C101.276 30.4665 101.005 30.3665 100.767 30.3665C100.53 30.3665 100.327 30.4999 100.327 30.7665C100.327 30.9665 100.462 31.2332 100.7 31.5332L102.192 33.5665C102.768 34.3665 102.87 34.8332 102.87 35.4332C102.87 36.4999 102.022 37.1999 100.835 37.1999C99.6145 37.1665 98.7668 36.3999 98.7668 35.2665Z" fill="#808080"/>
</svg>
