<svg width="216" height="101" viewBox="0 0 216 101" fill="none" xmlns="http://www.w3.org/2000/svg">
<g clip-path="url(#clip0_199_574)">
<path fill-rule="evenodd" clip-rule="evenodd" d="M127.848 38H132.279V62.8077H127.848V38ZM163.561 48.4615V44.6154H159.016V39.6154H154.585V57.8846C154.585 59.5769 155.005 60.8462 155.845 61.6923C156.686 62.5385 157.946 62.9615 159.665 62.9615H163.561V59.1154H160.696C160.085 59.1154 159.627 58.9615 159.359 58.6923C159.13 58.4615 158.977 57.8077 158.977 57.1154V48.4615H163.561ZM97.8652 57.9615L102.41 44.5769H107.032L100.462 62.7692H95.2297L88.6602 44.6154H93.2818L97.8652 57.9615ZM147.404 53.6923C147.404 54.8462 147.213 55.8462 146.908 56.6538C146.564 57.4615 146.067 58.1154 145.456 58.5385C144.845 58.9615 144.081 59.1538 143.203 59.1538C141.942 59.1538 140.987 58.7308 140.376 57.9231C139.765 57.0769 139.421 55.8462 139.421 54.1923V44.5769H134.991V54.6538C134.991 56.2308 135.182 57.5769 135.564 58.6154C135.946 59.6923 136.48 60.5385 137.13 61.1923C137.779 61.8462 138.543 62.3077 139.421 62.5769C140.262 62.8462 141.178 63 142.133 63C143.508 63 144.654 62.7308 145.533 62.2692C146.335 61.8077 146.984 61.2692 147.519 60.6923L147.901 62.8077H151.758V44.6154H147.328V53.6923H147.404ZM121.088 45.5385C119.713 44.7692 118.032 44.3846 116.199 44.3846C114.365 44.3846 112.723 44.7692 111.31 45.5385C109.897 46.3077 108.789 47.4231 108.025 48.8077C107.261 50.1923 106.879 51.8462 106.879 53.6923C106.879 55.5385 107.261 57.1538 108.025 58.5385C108.789 59.9231 109.897 61.0385 111.31 61.8077C112.723 62.5769 114.365 62.9615 116.199 62.9615C118.07 62.9615 119.713 62.5769 121.088 61.8077C122.463 61.0385 123.57 59.9231 124.334 58.5385C125.098 57.1538 125.48 55.5 125.48 53.6923C125.48 51.8462 125.098 50.1923 124.334 48.8077C123.609 47.4231 122.501 46.3462 121.088 45.5385ZM118.758 58.5385C118.032 59 117.192 59.2308 116.199 59.2308C115.206 59.2308 114.365 59 113.64 58.5385C112.914 58.0769 112.341 57.4231 111.959 56.5769C111.577 55.7308 111.348 54.7692 111.348 53.6923C111.348 52.5769 111.539 51.6154 111.959 50.8077C112.341 50 112.914 49.3077 113.64 48.8462C114.365 48.3846 115.206 48.1154 116.199 48.1154C117.192 48.1154 118.07 48.3462 118.758 48.8462C119.484 49.3077 120.018 50 120.438 50.8077C120.82 51.6154 121.05 52.6154 121.05 53.6923C121.05 54.7692 120.859 55.7308 120.438 56.5769C120.057 57.4231 119.484 58.0769 118.758 58.5385ZM55.7742 44.1154H51.1908V62.7692H55.7742V44.1154ZM70.1738 45.1923C70.1738 41.2308 66.9654 38 63.0313 38H51.1908V42H62.4583C64.2535 42 65.7049 43.4231 65.7431 45.1538C65.7431 46.0385 65.4376 46.8462 64.8264 47.4615C64.2153 48.0385 63.4132 48.3846 62.5729 48.3846H58.1805C58.0277 48.3846 57.9131 48.5 57.9131 48.6538V52.2308C57.9131 52.3077 57.9131 52.3462 57.9513 52.3846L65.3994 62.7692H70.8613L63.375 52.3462C67.1181 52.1923 70.1738 49 70.1738 45.1923ZM84.2677 45.4615C82.9309 44.7692 81.3649 44.3846 79.6079 44.3846C77.851 44.3846 76.2468 44.7692 74.9099 45.5385C73.5349 46.3077 72.5037 47.4231 71.7398 48.8077C70.9758 50.1923 70.6321 51.8462 70.6321 53.7308C70.6321 55.5769 71.014 57.1923 71.7779 58.5769C72.5418 59.9615 73.6495 61.0769 75.0245 61.8077C76.4377 62.5769 78.1183 62.9615 80.0281 62.9615C81.5559 62.9615 82.8927 62.6923 84.0768 62.1154C85.2608 61.5385 86.2157 60.7692 86.9032 59.8077C87.5907 58.8846 88.049 57.8846 88.2782 56.7692L88.3164 56.6538H83.8476L83.8094 56.7308C83.5802 57.5769 83.0837 58.2308 82.4344 58.6923C81.7087 59.1923 80.792 59.4615 79.7607 59.4615C78.8822 59.4615 78.0801 59.2692 77.3926 58.8846C76.7051 58.5 76.1704 57.9615 75.7884 57.3077C75.4065 56.6154 75.2155 55.8077 75.1391 54.8846V54.7308H88.3928V54.6538C88.431 54.3846 88.4692 54.1154 88.4692 53.8846C88.4692 53.6154 88.4692 53.3846 88.4692 53.1154C88.431 51.3462 88.049 49.8077 87.3233 48.5C86.6358 47.1538 85.5664 46.1538 84.2677 45.4615ZM82.6635 48.8846C83.4274 49.5385 83.8858 50.4231 84.0768 51.5769H75.3301C75.4447 50.8462 75.6738 50.1923 76.0558 49.6538C76.4759 49.0769 76.9725 48.6538 77.6218 48.3462C78.2329 48.0385 78.9204 47.8846 79.6461 47.8846C80.8684 47.8846 81.8614 48.2308 82.6635 48.8846Z" fill="white"/>
</g>
<defs>
<clipPath id="clip0_199_574">
<rect width="112.37" height="25" fill="white" transform="translate(51.1908 38)"/>
</clipPath>
</defs>
</svg>
