<svg width="172" height="80" viewBox="0 0 172 80" fill="none" xmlns="http://www.w3.org/2000/svg">
<g clip-path="url(#clip0_11304_14940)">
<path fill-rule="evenodd" clip-rule="evenodd" d="M59.1193 44.9281C56.737 44.9281 54.9764 43.0542 54.9764 40.7527C54.9764 38.451 56.737 36.5312 59.1341 36.5312C60.6523 36.5312 61.5931 37.0954 62.3368 37.9185L61.1988 39.1524C60.6369 38.5584 60.0453 38.1469 59.1193 38.1469C57.7834 38.1469 56.8124 39.3052 56.8124 40.7222C56.8124 42.1697 57.7989 43.3279 59.2101 43.3279C60.0756 43.3279 60.7129 42.9164 61.2896 42.3224L62.3974 43.4192C61.6086 44.303 60.6826 44.9281 59.1193 44.9281Z" fill="#808080"/>
<path fill-rule="evenodd" clip-rule="evenodd" d="M65.8821 44.9286H64.0461V36.5472H65.8821V38.513C66.3827 37.3088 67.3087 36.4857 68.72 36.5472V38.4981H68.6137C67.0052 38.4981 65.8821 39.5496 65.8821 41.6829V44.9286Z" fill="#808080"/>
<path fill-rule="evenodd" clip-rule="evenodd" d="M78.3324 36.5312L74.2746 47.1844H72.4129L73.2997 44.9307L69.8231 36.5312H71.7808L74.1528 42.7352L76.4302 36.5312H78.3324Z" fill="#808080"/>
<path fill-rule="evenodd" clip-rule="evenodd" d="M83.7505 38.1314C82.5061 38.1314 81.4132 39.1524 81.4132 40.7222C81.4132 42.292 82.5061 43.3124 83.7505 43.3124C85.0103 43.3124 86.0422 42.3224 86.0422 40.7222C86.0422 39.1369 84.9948 38.1314 83.7505 38.1314ZM84.1751 44.9126C82.8554 44.9126 82.0203 44.2422 81.4583 43.4955V47.1838H79.6224V36.5312H81.4583V38.0395C82.0506 37.2016 82.8857 36.5312 84.1751 36.5312C86.0723 36.5312 87.9089 38.0395 87.9089 40.7222C87.9089 43.4043 86.0877 44.9126 84.1751 44.9126Z" fill="#808080"/>
<path fill-rule="evenodd" clip-rule="evenodd" d="M91.9337 38.2839V42.2297C91.9337 42.9453 92.2958 43.2346 92.9197 43.2346H93.6399V44.8813H92.384C91.0475 44.8774 90.0977 44.2809 90.0977 42.5189V38.2839H89.0784V36.7006H90.0977V34.4902H91.9337V36.7006H93.6399V38.2839H91.9337Z" fill="#808080"/>
<path fill-rule="evenodd" clip-rule="evenodd" d="M99.4488 38.1469C97.9764 38.1469 97.0354 39.3052 97.0354 40.7223C97.0354 42.1548 98.052 43.3279 99.4789 43.3279C100.965 43.3279 101.907 42.1703 101.907 40.7527C101.907 39.3201 100.89 38.1469 99.4488 38.1469ZM99.4488 44.9281C97.0053 44.9281 95.1989 43.0543 95.1989 40.7527C95.1989 38.4362 97.0201 36.5312 99.4789 36.5312C101.937 36.5312 103.744 38.4058 103.744 40.7223C103.744 43.0238 101.922 44.9281 99.4488 44.9281Z" fill="#808080"/>
<path fill-rule="evenodd" clip-rule="evenodd" d="M107.105 43.2374V44.1665C107.105 44.206 107.085 44.2416 107.051 44.2597L106.25 44.7243C106.216 44.7437 106.175 44.7437 106.144 44.7243L105.341 44.2597C105.308 44.2416 105.287 44.206 105.287 44.1665V43.2374C105.287 43.1998 105.308 43.1643 105.341 43.1442L106.144 42.6796C106.175 42.6602 106.216 42.6602 106.25 42.6796L107.051 43.1442C107.085 43.1643 107.105 43.1998 107.105 43.2374Z" fill="#808080"/>
<path fill-rule="evenodd" clip-rule="evenodd" d="M121.299 38.1469C119.827 38.1469 118.886 39.3052 118.886 40.7223C118.886 42.1548 119.903 43.3279 121.33 43.3279C122.816 43.3279 123.757 42.1703 123.757 40.7527C123.757 39.3201 122.741 38.1469 121.299 38.1469ZM121.299 44.9281C118.856 44.9281 117.05 43.0543 117.05 40.7527C117.05 38.4362 118.87 36.5312 121.33 36.5312C123.788 36.5312 125.595 38.4058 125.595 40.7223C125.595 43.0238 123.773 44.9281 121.299 44.9281Z" fill="#808080"/>
<path fill-rule="evenodd" clip-rule="evenodd" d="M112.695 44.9192C110.313 44.8733 108.589 42.9651 108.633 40.6642C108.677 38.3638 110.474 36.4783 112.87 36.5243C114.388 36.5534 115.318 37.1351 116.046 37.9724L114.885 39.1843C114.335 38.5793 113.751 38.1568 112.825 38.1387C111.49 38.1128 110.496 39.2523 110.469 40.6693C110.441 42.1168 111.406 43.2938 112.817 43.321C113.682 43.3378 114.327 42.9386 114.915 42.3556L116.002 43.4737C115.196 44.342 114.259 44.949 112.695 44.9192Z" fill="#808080"/>
<path fill-rule="evenodd" clip-rule="evenodd" d="M136.509 36.5312C138.255 36.5312 139.317 37.6435 139.317 39.6093V44.9281H137.482V40.1735C137.482 38.8937 136.889 38.2078 135.857 38.2078C134.856 38.2078 134.142 38.9085 134.142 40.2039V44.9281H132.306V40.158C132.306 38.9085 131.699 38.2078 130.681 38.2078C129.665 38.2078 128.967 38.97 128.967 40.2194V44.9281H127.13V36.5312H128.967V37.9185C129.483 37.2022 130.181 36.5312 131.41 36.5312C132.564 36.5312 133.368 37.0954 133.793 37.9483C134.446 37.0954 135.296 36.5312 136.509 36.5312Z" fill="#808080"/>
<path fill-rule="evenodd" clip-rule="evenodd" d="M31 34.8855V45.3612L39.9887 50.5998L48.9755 45.3612V34.8855L39.9887 29.6475L31 34.8855ZM31.7912 44.9019V35.3468L39.9887 30.567L48.1868 35.3468V44.9019L39.9887 49.6798L31.7912 44.9019Z" fill="#808080"/>
<path fill-rule="evenodd" clip-rule="evenodd" d="M43.5106 34.1699H36.4478L35.629 37.8048H44.3619L43.5106 34.1699Z" fill="#808080"/>
<path fill-rule="evenodd" clip-rule="evenodd" d="M37.7008 42.8066V40.3913L35.6088 39.0488L33.2412 40.8252L36.4685 46.4902H37.7575L39.2822 45.0577V44.3377L37.7008 42.8066Z" fill="#808080"/>
<path fill-rule="evenodd" clip-rule="evenodd" d="M42.2822 38.3535H37.7087L38.4792 40.3842L38.2445 42.6596H39.9875L41.7473 42.6517L41.528 40.3842L42.2822 38.3535Z" fill="#808080"/>
<path fill-rule="evenodd" clip-rule="evenodd" d="M44.3743 39.0322L42.3064 40.3911V42.8064L40.7256 44.3375V45.0575L42.2497 46.4741H43.5225L46.734 40.825L44.3743 39.0322Z" fill="#808080"/>
</g>
<defs>
<clipPath id="clip0_11304_14940">
<rect width="109" height="22" fill="white" transform="translate(31 29)"/>
</clipPath>
</defs>
</svg>
