<svg width="216" height="100" viewBox="0 0 216 100" fill="none" xmlns="http://www.w3.org/2000/svg">
<path d="M58.2651 46.1757C58.1851 45.8561 58.2051 45.5366 58.2451 45.3568C58.3451 44.8575 58.6853 44.3183 59.6656 44.3183C60.586 44.3183 61.1062 44.8775 61.1062 45.7363C61.1062 46.0159 61.1062 46.6949 61.1062 46.6949H64.9877V45.5965C64.9877 42.2212 61.9265 41.682 59.7257 41.682C56.9846 41.662 54.7238 42.5807 54.3036 45.1171C54.1836 45.8162 54.1636 46.4353 54.3436 47.2142C55.0239 50.3898 60.566 51.3085 61.3663 53.3257C61.5264 53.7051 61.4663 54.1845 61.4063 54.484C61.2863 55.0033 60.9261 55.5426 59.8857 55.5426C58.9054 55.5426 58.3251 54.9833 58.3251 54.1245V52.6266H54.1235V53.825C54.1235 57.3001 56.8646 58.3386 59.7857 58.3386C62.6068 58.3386 64.9076 57.38 65.2878 54.7836C65.4679 53.4455 65.3278 52.5667 65.2678 52.2472C64.6275 48.9518 58.7053 47.9931 58.2651 46.1757ZM108.944 46.2156C108.884 45.916 108.904 45.5765 108.924 45.4167C109.044 44.9174 109.365 44.3782 110.345 44.3782C111.245 44.3782 111.765 44.9374 111.765 45.7762C111.765 46.0558 111.765 46.7349 111.765 46.7349H115.607V45.6564C115.607 42.3011 112.606 41.7818 110.425 41.7818C107.684 41.7818 105.443 42.6806 105.023 45.197C104.923 45.8761 104.883 46.4952 105.063 47.2741C105.723 50.3898 111.205 51.3085 112.006 53.3057C112.146 53.6852 112.106 54.1645 112.026 54.4441C111.906 54.9634 111.565 55.4826 110.525 55.4826C109.565 55.4826 108.964 54.9234 108.964 54.0846V52.5867H104.823V53.765C104.823 57.2002 107.524 58.2388 110.425 58.2388C113.206 58.2388 115.507 57.2801 115.867 54.7237C116.047 53.3856 115.907 52.5268 115.847 52.2072C115.227 48.9718 109.385 48.0131 108.944 46.2156ZM144.318 54.6838L140.656 42.1613H134.874V57.5597H138.696L138.476 44.6378L142.417 57.5597H147.959V42.1613H144.118L144.318 54.6838ZM70.8099 42.1613L67.9288 57.7195H72.1304L74.3112 43.3197L76.432 57.7195H80.6136L77.7325 42.1613H70.8099ZM94.3388 42.1613L92.3781 54.3243L90.4174 42.1613H84.0549L83.7148 57.7195H87.6163L87.7163 43.3197L90.3973 57.7195H94.3388L97.0399 43.3197L97.1399 57.7195H101.041L100.701 42.1613H94.3388ZM130.553 42.1613H126.611V53.6652C126.611 53.8649 126.611 54.0846 126.571 54.2643C126.491 54.6438 126.171 55.4027 125.071 55.4027C123.99 55.4027 123.67 54.6638 123.59 54.2643C123.55 54.1046 123.55 53.8649 123.55 53.6652V42.1613H119.608V53.3057C119.608 53.5853 119.628 54.1845 119.648 54.3243C119.929 57.2202 122.209 58.1789 125.071 58.1789C127.932 58.1789 130.233 57.2402 130.513 54.3243C130.533 54.1645 130.573 53.5853 130.553 53.3057V42.1613ZM157.603 48.9917V51.2685H159.204V53.5054C159.204 53.7051 159.204 53.9248 159.164 54.1046C159.104 54.524 158.703 55.243 157.563 55.243C156.442 55.243 156.042 54.524 155.982 54.1046C155.962 53.9248 155.942 53.7051 155.942 53.5054V46.3954C155.942 46.1357 155.962 45.8761 156.022 45.6564C156.102 45.2769 156.442 44.538 157.563 44.538C158.763 44.538 159.043 45.3169 159.124 45.6564C159.164 45.8761 159.164 46.2556 159.164 46.2556V47.1144H163.085V46.5951C163.085 46.5951 163.105 46.0558 163.065 45.5565C162.765 42.6406 160.364 41.7219 157.603 41.7219C154.842 41.7219 152.481 42.6606 152.141 45.5565C152.101 45.8162 152.061 46.2955 152.061 46.5951V53.1259C152.061 53.4055 152.061 53.6252 152.121 54.1445C152.381 56.9805 154.842 57.9791 157.603 57.9791C160.384 57.9791 162.825 56.9805 163.085 54.1445C163.125 53.6252 163.145 53.4055 163.145 53.1259V48.9917H157.603Z" fill="white"/>
</svg>
