<svg width="216" height="100" viewBox="0 0 216 100" fill="none" xmlns="http://www.w3.org/2000/svg">
<g clip-path="url(#clip0_199_544)">
<path d="M106.32 52.1861C106.32 51.1613 105.812 50.3414 104.94 49.7272C104.286 49.3173 103.56 49.1123 102.035 48.7712C99.4204 48.2244 99.2756 48.0201 99.2756 47.3372C99.2756 46.5173 99.9294 46.0393 101.309 46.0393C102.616 46.0393 103.269 46.4492 103.56 47.4733H105.956C105.738 45.3563 104.069 44.1953 101.454 44.1953C98.7673 44.1953 97.0246 45.4932 97.0246 47.5414C97.0246 48.4974 97.4605 49.3173 98.2591 49.7953C98.7673 50.1364 99.9294 50.4783 101.527 50.8882L101.745 50.9563L102.18 51.0251C102.543 51.0939 102.907 51.2301 103.197 51.3662C103.851 51.6393 104.069 51.9811 104.069 52.4591C104.069 53.3471 103.269 53.9613 101.818 53.9613C100.147 53.9613 99.2764 53.3471 99.0584 52.1173H96.6619C96.8798 54.4393 98.695 55.8052 101.673 55.8052C104.432 55.7372 106.32 54.44 106.32 52.1861Z" fill="white"/>
<path d="M94.2654 53.4832H88.0198V51.0243H92.4503V49.1122H88.0198V46.3122H94.2654V44.3314H85.5516V55.4633H94.2654V53.4832Z" fill="white"/>
<path d="M43.8686 41.0534C44.6672 45.5605 43.5782 50.2733 39.5113 52.8002C41.0361 54.3711 44.0857 55.5321 47.2093 55.2591C48.1527 53.6882 48.6617 51.8442 48.6617 49.9321C48.6609 46.3123 46.7726 43.0343 43.8686 41.0534Z" fill="white"/>
<path d="M25.641 47.5411C25.423 48.2929 25.3506 49.1121 25.3506 49.9319C25.3506 54.9177 28.9086 59.1518 33.8472 60.4496V55.9426C33.7741 51.434 30.2162 47.9511 25.641 47.5411Z" fill="white"/>
<path d="M36.3163 52.2542C39.8749 50.6152 42.1984 47.6102 41.908 43.8542C38.1322 45.2201 36.0259 48.5662 36.0259 52.118V60.8592C36.3163 60.8592 36.6798 60.9279 36.9701 60.9279C40.3832 60.9279 43.4328 59.562 45.6115 57.3769C41.6169 57.1712 38.3494 55.3953 36.3163 52.2542Z" fill="white"/>
<path d="M43.8686 40.9851C43.7955 40.9851 43.7955 40.9163 43.7231 40.9163C41.8348 39.6873 39.5114 38.9362 37.0417 38.9362C32.2493 38.9362 28.1099 41.6681 26.2948 45.4929C29.49 45.9029 32.3224 47.5419 34.0652 49.9319C34.7914 45.0823 39.0755 42.1461 43.8686 40.9851Z" fill="white"/>
<path d="M65.799 49.1801L62.8942 44.3312H60.0625L64.5646 51.161V55.4631H66.9611V51.161L71.3908 44.2631H68.6315L65.799 49.1801Z" fill="white"/>
<path d="M77.6356 52.5952L74.6583 44.3314H72.0438L76.2555 55.4633H78.8701L83.1549 44.3314H80.5404L77.6356 52.5952Z" fill="white"/>
<path d="M37.0417 34.6333C28.0376 34.6333 20.7023 41.4624 20.7023 49.9312C20.7023 58.3993 28.0368 65.2298 37.0417 65.2298C46.0466 65.2298 53.3811 58.3993 53.3811 49.9312C53.3087 41.4631 46.0466 34.6333 37.0417 34.6333ZM37.0417 62.9766C29.3445 62.9766 23.1713 57.1709 23.1713 49.9319C23.1713 42.761 29.4169 36.8872 37.0417 36.8872C44.7397 36.8872 50.9121 42.6922 50.9121 49.9319C50.9121 57.1028 44.6673 62.9766 37.0417 62.9766Z" fill="white"/>
<path d="M163.906 49.0442H159.041V44.3314H156.644V55.4633H159.041V51.0243H163.906V55.4633H166.303V44.3314H163.906V49.0442Z" fill="white"/>
<path d="M170.079 55.5317H178.72V53.5515H172.476V51.0927H176.905V49.1799H172.476V46.3799H178.72V44.3997H170.079V55.5317Z" fill="white"/>
<path d="M189.541 50.8878C190.921 50.4097 191.865 49.18 191.865 47.7459C191.865 45.9019 190.267 44.3991 188.306 44.3991H181.843V55.5317H184.24V51.0927H187.072L189.396 55.5317H192.155L189.541 50.8878ZM187.798 49.3168H184.168V46.3119H187.798C188.669 46.3119 189.395 46.9949 189.395 47.8147C189.395 48.6346 188.669 49.3168 187.798 49.3168Z" fill="white"/>
<path d="M154.175 51.7756H151.488C150.762 52.9366 149.527 53.6877 148.076 53.6877C145.897 53.6877 144.154 51.9806 144.154 49.9316C144.154 47.8827 145.898 46.1756 148.076 46.1756C149.455 46.1756 150.69 46.9267 151.488 48.0877H154.175L154.103 47.8146C153.231 45.6288 150.907 44.0586 148.148 44.0586C144.589 44.0586 141.83 46.6536 141.83 49.9324C141.83 53.2104 144.589 55.7373 148.148 55.7373C150.907 55.7373 153.159 54.2352 154.103 51.9813L154.175 51.7756Z" fill="white"/>
<path d="M133.334 44.127C129.775 44.127 126.943 46.722 126.943 50C126.943 53.278 129.703 55.8057 133.334 55.8057C136.892 55.8057 139.652 53.2787 139.652 49.9319C139.652 46.6532 136.892 44.127 133.334 44.127ZM133.334 53.6879C131.155 53.6879 129.413 51.9809 129.413 49.9319C129.413 47.883 131.156 46.1759 133.334 46.1759C135.511 46.1759 137.183 47.883 137.183 49.9319C137.183 51.9809 135.44 53.6879 133.334 53.6879Z" fill="white"/>
<path d="M124.91 47.7459C124.91 45.9019 123.312 44.3991 121.351 44.3991H114.889V55.5317H117.285V51.0927H120.118L122.441 55.5317H125.2L122.659 50.8878C123.966 50.4097 124.91 49.18 124.91 47.7459ZM120.916 49.3168H117.286V46.3119H120.916C121.788 46.3119 122.514 46.9949 122.514 47.8147C122.514 48.6346 121.788 49.3168 120.916 49.3168Z" fill="white"/>
</g>
<defs>
<clipPath id="clip0_199_544">
<rect width="176.462" height="33.3333" fill="white" transform="translate(19.9769 33.3333)"/>
</clipPath>
</defs>
</svg>
