<svg width="216" height="100" viewBox="0 0 216 100" fill="none" xmlns="http://www.w3.org/2000/svg">
<path fill-rule="evenodd" clip-rule="evenodd" d="M145.578 50.4511C145.578 45.0819 142.96 40.8452 137.957 40.8452C132.934 40.8452 129.894 45.0819 129.894 50.4092C129.894 56.7223 133.482 59.9103 138.633 59.9103C141.145 59.9103 143.045 59.344 144.48 58.547V54.3523C143.045 55.0654 141.398 55.5058 139.308 55.5058C137.261 55.5058 135.445 54.7927 135.213 52.3178H145.536C145.536 52.0452 145.578 50.9545 145.578 50.4511ZM135.15 48.4586C135.15 46.0886 136.606 45.1028 137.936 45.1028C139.224 45.1028 140.596 46.0886 140.596 48.4586H135.15Z" fill="white"/>
<path fill-rule="evenodd" clip-rule="evenodd" d="M121.746 40.8452C119.677 40.8452 118.347 41.8099 117.608 42.4811L117.334 41.1807H112.69V65.6362L117.967 64.5246L117.988 58.589C118.748 59.1343 119.867 59.9103 121.725 59.9103C125.503 59.9103 128.944 56.8901 128.944 50.2414C128.923 44.159 125.44 40.8452 121.746 40.8452ZM120.479 55.2961C119.234 55.2961 118.495 54.8556 117.988 54.3103L117.967 46.529C118.516 45.9208 119.276 45.5013 120.479 45.5013C122.4 45.5013 123.73 47.6407 123.73 50.3882C123.73 53.1987 122.421 55.2961 120.479 55.2961Z" fill="white"/>
<path fill-rule="evenodd" clip-rule="evenodd" d="M105.428 39.6077L110.727 38.4751V34.2174L105.428 35.329V39.6077Z" fill="white"/>
<path d="M110.727 41.2017H105.428V59.5538H110.727V41.2017Z" fill="white"/>
<path fill-rule="evenodd" clip-rule="evenodd" d="M99.75 42.7538L99.4122 41.2017H94.8527V59.5538H100.13V47.1163C101.375 45.5013 103.486 45.795 104.141 46.0257V41.2017C103.465 40.95 100.995 40.4886 99.75 42.7538Z" fill="white"/>
<path fill-rule="evenodd" clip-rule="evenodd" d="M89.1954 36.6504L84.0448 37.741L84.0237 54.541C84.0237 57.6451 86.3668 59.9313 89.4909 59.9313C91.2219 59.9313 92.4884 59.6167 93.185 59.2392V54.9815C92.5095 55.2541 89.1743 56.2189 89.1743 53.1148V45.6691H93.185V41.2017H89.1743L89.1954 36.6504Z" fill="white"/>
<path fill-rule="evenodd" clip-rule="evenodd" d="M74.9257 46.529C74.9257 45.7111 75.6012 45.3965 76.72 45.3965C78.3243 45.3965 80.3507 45.8789 81.955 46.7388V41.8099C80.203 41.1178 78.472 40.8452 76.72 40.8452C72.4348 40.8452 69.5851 43.0684 69.5851 46.7807C69.5851 52.5695 77.6065 51.6467 77.6065 54.1425C77.6065 55.1073 76.7622 55.4219 75.5801 55.4219C73.828 55.4219 71.5904 54.7088 69.8173 53.744V58.7358C71.7804 59.5747 73.7647 59.9313 75.5801 59.9313C79.9708 59.9313 82.9894 57.771 82.9894 54.0167C82.9683 47.7665 74.9257 48.8781 74.9257 46.529Z" fill="white"/>
</svg>
