<svg width="173" height="80" viewBox="0 0 173 80" fill="none" xmlns="http://www.w3.org/2000/svg">
<path fill-rule="evenodd" clip-rule="evenodd" d="M37.8672 28.7254C37.7673 28.6996 37.6468 28.6996 37.5468 28.7254L31.0006 30.7813L30.9972 30.7824C30.6906 30.8879 30.5405 31.2058 30.6151 31.5136L30.6168 31.5206L30.6192 31.5275C30.7193 31.8114 31.0237 32.0017 31.336 31.8955L37.7166 29.8948L44.234 31.9558C44.5492 32.0631 44.8538 31.8686 44.9522 31.5642C45.057 31.2397 44.8694 30.9246 44.5729 30.8226L37.8738 28.7271L37.8672 28.7254ZM27.9487 32.2545C27.9185 32.0153 28.0437 31.7809 28.2371 31.6612L28.2438 31.6571L28.2509 31.6537C28.3155 31.6235 28.383 31.6058 28.4504 31.6002C28.506 31.5921 28.5641 31.5926 28.6231 31.6027C28.8611 31.6436 29.039 31.8281 29.0838 32.0571L32.8287 39.5953H42.7531C42.7733 39.5953 42.7933 39.5965 42.813 39.5987L46.3478 32.0692C46.3754 31.9144 46.465 31.7794 46.5979 31.6987C46.7593 31.5839 46.9762 31.5661 47.1631 31.6537C47.35 31.7414 47.4564 31.9164 47.4762 32.1052L47.5918 32.8011C47.6183 32.9229 47.7311 33.7342 47.7311 34.9633C47.7311 36.1808 47.6131 37.7831 47.1805 39.5882C46.7675 41.2924 46.0198 43.3433 44.6614 45.3538C43.3031 47.3643 41.3353 49.353 38.5046 50.9146L38.5037 50.9151L37.98 51.2152L37.9793 51.2157C37.8009 51.3205 37.613 51.3205 37.4347 51.2157L37.4339 51.2152L36.9102 50.9151L36.9093 50.9146C34.0787 49.353 32.1109 47.3643 30.7526 45.3538C29.3946 43.3439 28.6464 41.2933 28.2721 39.5666C27.8398 37.762 27.7219 36.1401 27.7219 34.9432C27.7219 33.7141 27.8347 32.9028 27.8612 32.781L27.9487 32.2545ZM33.4085 40.7626H42.2111L37.7192 49.4399L33.4085 40.7626ZM28.8709 34.1821C28.8609 34.4097 28.8545 34.6647 28.8545 34.9432C28.8545 36.063 28.9514 37.6016 29.358 39.279C29.7452 40.8969 30.4421 42.7938 31.6997 44.6701C32.7723 46.2531 34.2536 47.8372 36.3253 49.1865L28.8709 34.1821ZM39.1377 49.1641C41.1835 47.8235 42.6678 46.2602 43.7336 44.6703C44.9912 42.7943 45.6881 40.8775 46.0755 39.279C46.4821 37.6016 46.5791 36.063 46.5791 34.9432C46.5791 34.6947 46.5738 34.4648 46.5657 34.2565L43.8269 40.0902V40.1133L39.1377 49.1641Z" fill="#808080"/>
<path fill-rule="evenodd" clip-rule="evenodd" d="M37.6038 29.1334L31.1861 31.1489L31.1853 31.1492C30.9928 31.2154 30.8937 31.4125 30.9414 31.616C31.0083 31.8006 31.2016 31.9114 31.39 31.8473L31.3923 31.8465L37.7171 29.8634L44.1758 31.9059L44.1779 31.9066C44.3658 31.9706 44.5605 31.8604 44.6272 31.6539C44.69 31.4596 44.5836 31.2591 44.3851 31.1895L37.8169 29.1349L37.8154 29.1345C37.7511 29.1179 37.6689 29.1176 37.6038 29.1334ZM37.9139 28.7313L37.9252 28.7342L44.5085 30.7935L44.5111 30.7944C44.8931 30.9258 45.154 31.3431 45.0112 31.7849C44.885 32.1754 44.4829 32.447 44.0529 32.3019L37.7165 30.2982L31.5147 32.2428C31.0921 32.385 30.6902 32.1243 30.5598 31.7542L30.5539 31.7374L30.5496 31.72C30.4528 31.3205 30.6485 30.8954 31.0569 30.755L31.0627 30.7529L37.4959 28.7326L37.5009 28.7313C37.6313 28.6976 37.7834 28.6976 37.9139 28.7313ZM28.5987 31.5481C28.672 31.5381 28.7477 31.5391 28.824 31.5523C29.1308 31.605 29.3651 31.8379 29.4347 32.1322L33.0427 39.395H42.5939L45.996 32.1481C46.0387 31.9529 46.1554 31.782 46.3255 31.6764C46.5445 31.5239 46.8303 31.5043 47.0734 31.6183C47.3257 31.7366 47.469 31.9728 47.4972 32.2214L47.6089 32.8941C47.6409 33.0494 47.7493 33.8571 47.7493 35.0561C47.7493 36.2647 47.6322 37.8546 47.203 39.6456C46.793 41.3372 46.0502 43.3753 44.7 45.3739C43.3496 47.3726 41.3946 49.3474 38.5865 50.8967L38.5851 50.8975L38.076 51.1892L38.0752 51.1896C37.838 51.3291 37.5769 51.3292 37.3397 51.1898L37.3388 51.1893L36.8295 50.8974L36.8287 50.8969C34.0206 49.3477 32.0651 47.3726 30.7147 45.3739C29.3655 43.3769 28.6217 41.3392 28.2491 39.6221C27.8207 37.8324 27.7037 36.2242 27.7037 35.0363C27.7037 33.8374 27.812 33.0297 27.8441 32.8743L27.9245 32.3904C27.8987 32.0783 28.0643 31.7871 28.3074 31.6366L28.3238 31.6264L28.3413 31.6183C28.4243 31.5793 28.5114 31.5561 28.5987 31.5481ZM28.7572 31.9623C28.7198 31.9559 28.6836 31.9557 28.6494 31.9606L28.6434 31.9615L28.6374 31.962C28.5957 31.9655 28.5536 31.9762 28.5128 31.9948C28.3868 32.0746 28.3111 32.2266 28.3292 32.3704L28.3331 32.4013L28.2413 32.954L28.2402 32.9591C28.2186 33.0582 28.1083 33.838 28.1083 35.0363C28.1083 36.1977 28.2228 37.7727 28.6425 39.5249L28.6431 39.5271L28.6435 39.5294C29.0061 41.2016 29.731 43.1888 31.0471 45.1368C32.3633 47.0849 34.2713 49.0142 37.0201 50.5306L37.0238 50.5327L37.5398 50.8285L37.5405 50.8289C37.6533 50.8952 37.7614 50.8952 37.8742 50.8289L37.8768 50.8273L38.3938 50.531L38.3947 50.5306C41.1434 49.0142 43.0514 47.0849 44.3676 45.1368C45.6841 43.1883 46.4094 41.1997 46.8103 39.5456C47.2302 37.7931 47.3447 36.2374 47.3447 35.0561C47.3447 33.8578 47.2343 33.078 47.2128 32.9789L47.2117 32.9738L47.0963 32.2791L47.0956 32.2727C47.0831 32.1532 47.0178 32.0492 46.9054 31.9965C46.7838 31.9394 46.6469 31.9533 46.5498 32.0224L46.5438 32.0267L46.5376 32.0305C46.4587 32.0783 46.4049 32.1585 46.3882 32.2526L46.3832 32.2802L42.8395 39.8285L42.6977 39.8127C42.6855 39.8114 42.6732 39.8107 42.6606 39.8107H32.7949L29.05 32.2723L29.0445 32.2442C29.0169 32.1031 28.9072 31.9881 28.7572 31.9623ZM28.8659 33.4941L36.8676 49.6001L36.2428 49.1931C34.1848 47.8526 32.7117 46.2778 31.6446 44.7029L31.644 44.7021C30.3931 42.8359 29.7003 40.9497 29.3156 39.3422C28.9115 37.6749 28.8154 36.1471 28.8154 35.0363C28.8154 34.7596 28.8219 34.5061 28.8317 34.2799L28.8659 33.4941ZM46.5727 33.5225L46.6052 34.3539C46.6133 34.561 46.6184 34.7894 46.6184 35.0363C46.6184 36.1471 46.5222 37.6752 46.1182 39.3425C45.7334 40.9301 45.0408 42.8359 43.7896 44.7023C42.7285 46.2854 41.252 47.8395 39.2206 49.1708L38.5714 49.5963L43.5124 40.0594V40.0411L46.5727 33.5225ZM29.2202 35.1215C29.2251 36.201 29.3244 37.6584 29.7082 39.2421C30.0837 40.8107 30.7591 42.6488 31.9769 44.4658C32.9017 45.8306 34.1405 47.1969 35.8189 48.4036L29.2202 35.1215ZM43.917 40.1361V40.1631L39.6698 48.3607C41.3148 47.1689 42.5445 45.8269 43.4565 44.4665C44.6742 42.6498 45.3498 40.7926 45.7256 39.2421C46.0948 37.7185 46.2008 36.3119 46.2126 35.2462L43.917 40.1361ZM33.1576 40.5407H42.4653L37.7157 49.716L33.1576 40.5407ZM33.8183 40.9565L37.7231 48.8165L41.7918 40.9565H33.8183Z" fill="#808080"/>
<path d="M37.8646 28.9329L37.9139 28.7313M37.9139 28.7313C37.7834 28.6976 37.6313 28.6976 37.5009 28.7313L37.4959 28.7326L31.0627 30.7529L31.0569 30.755C30.6485 30.8954 30.4528 31.3205 30.5496 31.72L30.5539 31.7374L30.5598 31.7542C30.6902 32.1243 31.0921 32.385 31.5147 32.2428L37.7165 30.2982L44.0529 32.3019C44.4829 32.447 44.885 32.1754 45.0112 31.7849C45.154 31.3431 44.8931 30.9258 44.5111 30.7944L44.5085 30.7935L37.9252 28.7342L37.9139 28.7313ZM28.3413 31.6183L28.4253 31.8074M28.3413 31.6183C28.4243 31.5793 28.5114 31.5561 28.5987 31.5481C28.672 31.5381 28.7477 31.5391 28.824 31.5523C29.1308 31.605 29.3651 31.8379 29.4347 32.1322L33.0427 39.395H42.5939L45.996 32.1481C46.0387 31.9529 46.1554 31.782 46.3255 31.6764C46.5445 31.5239 46.8303 31.5043 47.0734 31.6183C47.3257 31.7366 47.469 31.9728 47.4972 32.2214L47.6089 32.8941C47.6409 33.0494 47.7493 33.8571 47.7493 35.0561C47.7493 36.2647 47.6322 37.8546 47.203 39.6456C46.793 41.3372 46.0502 43.3753 44.7 45.3739C43.3496 47.3726 41.3946 49.3474 38.5865 50.8967L38.5851 50.8975L38.076 51.1892L38.0752 51.1896C37.838 51.3291 37.5769 51.3292 37.3397 51.1898L37.3388 51.1893L36.8295 50.8974L36.8287 50.8969C34.0206 49.3477 32.0651 47.3726 30.7147 45.3739C29.3655 43.3769 28.6217 41.3392 28.2491 39.6221C27.8207 37.8324 27.7037 36.2242 27.7037 35.0363C27.7037 33.8374 27.812 33.0297 27.8441 32.8743L27.9245 32.3904C27.8987 32.0783 28.0643 31.7871 28.3074 31.6366L28.3238 31.6264L28.3413 31.6183ZM28.4261 31.8091L28.4531 31.8699M31.1861 31.1489L37.6038 29.1334C37.6689 29.1176 37.7511 29.1179 37.8154 29.1345L37.8169 29.1349L44.3851 31.1895C44.5836 31.2591 44.69 31.4596 44.6272 31.6539C44.5605 31.8604 44.3658 31.9706 44.1779 31.9066L44.1758 31.9059L37.7171 29.8634L31.3923 31.8465L31.39 31.8473C31.2016 31.9114 31.0083 31.8006 30.9414 31.616C30.8937 31.4125 30.9928 31.2154 31.1853 31.1492L31.1861 31.1489ZM28.6494 31.9606C28.6836 31.9557 28.7198 31.9559 28.7572 31.9623C28.9072 31.9881 29.0169 32.1031 29.0445 32.2442L29.05 32.2723L32.7949 39.8107H42.6606C42.6732 39.8107 42.6855 39.8114 42.6977 39.8127L42.8395 39.8285L46.3832 32.2802L46.3882 32.2526C46.4049 32.1585 46.4587 32.0783 46.5376 32.0305L46.5438 32.0267L46.5498 32.0224C46.6469 31.9533 46.7838 31.9394 46.9054 31.9965C47.0178 32.0492 47.0831 32.1532 47.0956 32.2727L47.0963 32.2791L47.2117 32.9738L47.2128 32.9789C47.2343 33.078 47.3447 33.8578 47.3447 35.0561C47.3447 36.2374 47.2302 37.7931 46.8103 39.5456C46.4094 41.1997 45.6841 43.1883 44.3676 45.1368C43.0514 47.0849 41.1434 49.0142 38.3947 50.5306L38.3938 50.5311L37.8768 50.8273L37.8748 50.8286C37.762 50.8949 37.6533 50.8952 37.5405 50.8289L37.5398 50.8285L37.0238 50.5327L37.0201 50.5306C34.2713 49.0142 32.3633 47.0849 31.0471 45.1368C29.731 43.1888 29.0061 41.2016 28.6435 39.5294L28.6431 39.5271L28.6425 39.5249C28.2228 37.7727 28.1083 36.1977 28.1083 35.0363C28.1083 33.838 28.2186 33.0582 28.2402 32.9591L28.2413 32.954L28.3331 32.4013L28.3292 32.3704C28.3111 32.2266 28.3868 32.0746 28.5128 31.9948C28.5536 31.9762 28.5957 31.9655 28.6374 31.962L28.6434 31.9615L28.6494 31.9606ZM28.8659 33.4941L28.8317 34.2799C28.8219 34.5061 28.8154 34.7596 28.8154 35.0363C28.8154 36.1471 28.9115 37.6749 29.3156 39.3422C29.7003 40.9497 30.3931 42.8359 31.644 44.7021L31.6446 44.7029C32.7117 46.2778 34.1848 47.8526 36.2428 49.1931L36.8676 49.6001L28.8659 33.4941ZM46.6052 34.3539L46.5727 33.5225L43.5124 40.0411V40.0594L38.5714 49.5963L39.2206 49.1708C41.252 47.8395 42.7285 46.2854 43.7896 44.7023C45.0408 42.8359 45.7334 40.9301 46.1182 39.3425C46.5222 37.6752 46.6184 36.1471 46.6184 35.0363C46.6184 34.7894 46.6133 34.561 46.6052 34.3539ZM29.7082 39.2421C29.3244 37.6584 29.2251 36.201 29.2202 35.1215L35.8189 48.4036C34.1405 47.1969 32.9017 45.8306 31.9769 44.4658C30.7591 42.6488 30.0837 40.8107 29.7082 39.2421ZM43.917 40.1631V40.1361L46.2126 35.2462C46.2008 36.3119 46.0948 37.7185 45.7256 39.2421C45.3498 40.7926 44.6742 42.6498 43.4565 44.4665C42.5445 45.8269 41.3148 47.1689 39.6698 48.3607L43.917 40.1631ZM33.1576 40.5407H42.4653L37.7157 49.716L33.1576 40.5407ZM37.7231 48.8165L33.8183 40.9565H41.7918L37.7231 48.8165Z" stroke="#808080" stroke-width="0.369543" stroke-miterlimit="10"/>
<path d="M67.2826 35.6363H58.2393C58.0801 35.6363 57.9475 35.6911 57.815 35.8279C57.7089 35.9373 57.6294 36.1015 57.6294 36.2656V43.7342C57.6294 43.8983 57.6824 44.0351 57.815 44.1719C57.921 44.2814 58.0801 44.3634 58.2393 44.3634H67.2826V45.6218H58.2393C57.7354 45.6218 57.3111 45.4303 56.9663 45.0747C56.6215 44.7191 56.4359 44.2814 56.4359 43.7615V36.2383C56.4359 35.7184 56.6215 35.2807 56.9663 34.9251C57.3111 34.5694 57.7354 34.3779 58.2393 34.3779H67.2826V35.6363Z" fill="#808080"/>
<path d="M66.8918 45.3377H67.0058V45.2206V44.7652V44.6481H66.8918H58.2393C57.9935 44.6481 57.7669 44.5256 57.6189 44.3729C57.4379 44.1863 57.3526 43.9786 57.3526 43.7344V36.2658C57.3526 36.0134 57.4708 35.7801 57.6189 35.6274C57.7998 35.4407 58.0016 35.3522 58.2393 35.3522H66.8918H67.0058V35.2351V34.7798V34.6626H66.8918H58.2393C57.8118 34.6626 57.4573 34.822 57.1625 35.1261C56.8676 35.4302 56.7128 35.7965 56.7128 36.2385V43.7618C56.7128 44.2038 56.8676 44.5701 57.1625 44.8742C57.4573 45.1784 57.8118 45.3377 58.2393 45.3377H66.8918ZM56.7702 34.7246C57.1649 34.3174 57.6591 34.0938 58.2393 34.0938H67.5595V35.9211H58.2393C58.2095 35.9211 58.1706 35.9231 58.1268 35.9423C58.0851 35.9606 58.0484 35.9905 58.0111 36.0289C57.9767 36.0644 57.9514 36.1054 57.9344 36.1441C57.9181 36.1814 57.9062 36.2246 57.9062 36.2658V43.7344C57.9062 43.7663 57.9083 43.8066 57.927 43.8517C57.9448 43.8949 57.9738 43.9329 58.0111 43.9715C58.0456 44.007 58.0852 44.033 58.1226 44.0504C58.1583 44.067 58.1998 44.0792 58.2393 44.0792H67.5595V45.9066H58.2393C57.6591 45.9066 57.1649 45.6829 56.7702 45.2757C56.3755 44.8686 56.1592 44.3593 56.1592 43.7618V36.2385C56.1592 35.641 56.3755 35.1318 56.7702 34.7246Z" fill="#808080" stroke="#808080" stroke-width="0.312331" stroke-miterlimit="10"/>
<path d="M84.2554 34.3779V35.6363H75.5569V39.357H82.5581V40.6428H75.5569V44.3634H84.2554V45.6218H74.3369V34.4053H84.2554V34.3779Z" fill="#808080"/>
<path d="M75.9476 35.9211H75.8336V36.0382V38.9556V39.0728H75.9476H82.8349V40.9275H75.9476H75.8336V41.0446V43.9621V44.0792H75.9476H84.5322V45.9065H74.0601V34.1211H84.5322V34.3782V35.9211H75.9476ZM83.9786 34.8071V34.69H83.8646H74.7277H74.6137V34.8071V45.2206V45.3377H74.7277H83.8646H83.9786V45.2206V44.7652V44.6481H83.8646H75.28V40.3586H82.1673H82.2813V40.2415V39.7588V39.6417H82.1673H75.28V35.3522H83.8646H83.9786V35.2351V34.8071Z" fill="#808080" stroke="#808080" stroke-width="0.312331" stroke-miterlimit="10"/>
<path d="M102.183 36.2383V39.5212C102.183 40.0409 101.998 40.4786 101.653 40.8343C101.308 41.1899 100.883 41.3815 100.38 41.3815H98.7092L102.13 45.5671H100.512L97.0915 41.4088H93.1132C93.0336 41.4088 92.8214 41.3815 92.5298 41.3541V45.5945H91.3098V34.3779H100.38C100.883 34.3779 101.308 34.5694 101.653 34.9251C101.998 35.2807 102.183 35.7184 102.183 36.2383ZM93.1132 40.123H100.353C100.512 40.123 100.645 40.0683 100.751 39.9589C100.857 39.8494 100.91 39.7126 100.91 39.5485V36.2656C100.91 36.1015 100.857 35.9647 100.751 35.8279C100.645 35.7184 100.512 35.6363 100.353 35.6363H93.1132C92.9541 35.6363 92.8214 35.6911 92.6889 35.8279C92.5828 35.9373 92.5033 36.1015 92.5033 36.2656V39.5485C92.5033 39.7126 92.5563 39.8494 92.6889 39.9589C92.7949 40.0683 92.9541 40.123 93.1132 40.123Z" fill="#808080"/>
<path d="M99.4601 41.8586L102.724 45.8519H100.384L96.9967 41.735L96.963 41.6935H96.9101H93.1131C93.069 41.6935 93.004 41.6881 92.9314 41.6809L92.8065 41.6685V41.7975V45.8792H91.033V34.0938H100.38C100.96 34.0938 101.454 34.3174 101.849 34.7246C102.244 35.1318 102.46 35.641 102.46 36.2385V39.5214C102.46 40.1189 102.244 40.6281 101.849 41.0353C101.454 41.4425 100.96 41.6662 100.38 41.6662H99.5473H99.3027L99.4601 41.8586ZM91.5866 45.1932V45.3103H91.7006H92.1389H92.2528V45.1932V41.0427L92.5548 41.0711C92.6679 41.0817 92.77 41.0924 92.8555 41.1013L92.9286 41.109C92.9782 41.114 93.0191 41.1181 93.052 41.1209C93.0683 41.1222 93.0817 41.1232 93.0926 41.1239L93.106 41.1245L93.11 41.1246L93.1114 41.1246H93.1122H93.1132H97.2199L100.607 45.2415L100.641 45.283H100.694H101.291H101.536L101.379 45.0905L98.115 41.0972H100.38C100.807 41.0972 101.162 40.9379 101.456 40.6338C101.751 40.3297 101.906 39.9635 101.906 39.5214V36.2385C101.906 35.7965 101.751 35.4302 101.456 35.1261C101.162 34.822 100.807 34.6626 100.38 34.6626H91.7006H91.5866V34.7798V45.1932ZM92.5065 40.1737L92.5011 40.1687C92.3059 40.0007 92.2263 39.7828 92.2263 39.5487V36.2658C92.2263 36.0134 92.3446 35.7801 92.4927 35.6274C92.6737 35.4407 92.8755 35.3522 93.1131 35.3522H100.353C100.612 35.3522 100.811 35.4868 100.947 35.6274L100.958 35.6386L100.967 35.6509C101.106 35.8295 101.187 36.0272 101.187 36.2658V39.5487C101.187 39.783 101.108 39.9935 100.947 40.1598C100.786 40.3262 100.581 40.4077 100.353 40.4077H93.1131C92.9044 40.4077 92.6749 40.3387 92.5065 40.1737ZM92.8622 39.7374L92.8741 39.7472L92.8849 39.7584C92.927 39.8017 93.0084 39.8388 93.1131 39.8388H100.353C100.394 39.8388 100.433 39.8332 100.469 39.8182C100.506 39.8028 100.533 39.7806 100.555 39.7584C100.576 39.7361 100.598 39.7079 100.613 39.6694C100.628 39.6318 100.633 39.5917 100.633 39.5487V36.2658C100.633 36.1849 100.613 36.1134 100.55 36.0267L100.544 36.0179L100.536 36.0103C100.466 35.9447 100.406 35.9211 100.353 35.9211H93.1131C93.0832 35.9211 93.0443 35.9231 93.0006 35.9423C92.959 35.9606 92.9221 35.9905 92.8849 36.0289C92.8505 36.0644 92.8251 36.1054 92.8082 36.1441C92.792 36.1814 92.78 36.2246 92.78 36.2658V39.5487C92.78 39.5992 92.788 39.6333 92.7989 39.6581C92.8092 39.6818 92.8269 39.7083 92.8622 39.7374Z" fill="#808080"/>
<path d="M93.0926 41.1239C93.0817 41.1232 93.0683 41.1222 93.052 41.1209C93.0191 41.1181 92.9782 41.114 92.9286 41.109L92.8555 41.1013C92.77 41.0924 92.6679 41.0817 92.5548 41.0711L92.2528 41.0427V45.1932V45.3103H92.1389H91.7006H91.5866V45.1932V34.7798V34.6626H91.7006H100.38C100.807 34.6626 101.162 34.822 101.456 35.1261C101.751 35.4302 101.906 35.7965 101.906 36.2385V39.5214C101.906 39.9635 101.751 40.3297 101.456 40.6338C101.162 40.9379 100.807 41.0972 100.38 41.0972H98.115L101.379 45.0905L101.536 45.283H101.291H100.694H100.641L100.607 45.2415L97.2199 41.1246H93.1132H93.1122M93.0926 41.1239L93.0988 41.009M93.0926 41.1239L93.106 41.1245L93.11 41.1246L93.1114 41.1246H93.1122M93.1122 41.1246L93.1132 41.0075M100.947 35.6274C100.811 35.4868 100.612 35.3522 100.353 35.3522H93.1131C92.8755 35.3522 92.6737 35.4407 92.4927 35.6274C92.3446 35.7801 92.2263 36.0134 92.2263 36.2658V39.5487C92.2263 39.7828 92.3059 40.0007 92.5011 40.1687L92.5065 40.1737C92.6749 40.3387 92.9044 40.4077 93.1131 40.4077H100.353C100.581 40.4077 100.786 40.3262 100.947 40.1598C101.108 39.9935 101.187 39.783 101.187 39.5487V36.2658C101.187 36.0272 101.106 35.8295 100.967 35.6509M100.947 35.6274L101.025 35.5476M100.947 35.6274L100.958 35.6386L100.967 35.6509M100.967 35.6509L101.057 35.5779M92.8622 39.7374L92.9326 39.6472M92.8622 39.7374L92.8741 39.7472L92.8849 39.7584C92.927 39.8017 93.0084 39.8388 93.1131 39.8388H100.353C100.394 39.8388 100.433 39.8332 100.469 39.8182C100.506 39.8028 100.533 39.7806 100.555 39.7584C100.576 39.7361 100.598 39.7079 100.613 39.6694C100.628 39.6318 100.633 39.5917 100.633 39.5487V36.2658C100.633 36.1849 100.613 36.1134 100.55 36.0267L100.544 36.0179L100.536 36.0103C100.466 35.9447 100.406 35.9211 100.353 35.9211H93.1131C93.0832 35.9211 93.0443 35.9231 93.0006 35.9423C92.959 35.9606 92.9221 35.9905 92.8849 36.0289C92.8505 36.0644 92.8251 36.1054 92.8082 36.1441C92.792 36.1814 92.78 36.2246 92.78 36.2658V39.5487C92.78 39.5992 92.788 39.6333 92.7989 39.6581M92.8622 39.7374C92.8269 39.7083 92.8092 39.6818 92.7989 39.6581M92.7989 39.6581L92.8952 39.6137M99.4601 41.8586L102.724 45.8519H100.384L96.9967 41.735L96.963 41.6935H96.9101H93.1131C93.069 41.6935 93.004 41.6881 92.9314 41.6809L92.8065 41.6685V41.7975V45.8792H91.033V34.0938H100.38C100.96 34.0938 101.454 34.3174 101.849 34.7246C102.244 35.1318 102.46 35.641 102.46 36.2385V39.5214C102.46 40.1189 102.244 40.6281 101.849 41.0353C101.454 41.4425 100.96 41.6662 100.38 41.6662H99.5473H99.3027L99.4601 41.8586Z" stroke="#808080" stroke-width="0.312331" stroke-miterlimit="10"/>
<path d="M108.68 34.3779H119.553V35.6363H114.727V45.5945H113.507V35.6363H108.68V34.3779Z" fill="#808080"/>
<path d="M115.118 35.9211H115.004V36.0382V45.8792H113.23V36.0382V35.9211H113.116H108.403V34.0938H119.83V35.9211H115.118ZM108.957 35.2351V35.3522H109.071H113.784V45.1932V45.3103H113.898H114.336H114.45V45.1932V35.3522H119.162H119.276V35.2351V34.7798V34.6626H119.162H109.071H108.957V34.7798V35.2351Z" fill="#808080" stroke="#808080" stroke-width="0.312331" stroke-miterlimit="10"/>
<path d="M126.13 45.5945V34.3779H127.35V45.5945H126.13Z" fill="#808080"/>
<path d="M126.407 45.1932V45.3103H126.521H126.959H127.073V45.1932V34.7798V34.6626H126.959H126.521H126.407V34.7798V45.1932ZM125.853 45.8792V34.0938H127.627V45.8792H125.853Z" fill="#808080" stroke="#808080" stroke-width="0.312331" stroke-miterlimit="10"/>
<path d="M143.687 34.3779H145.251L140.716 39.9862L145.278 45.5945H143.687L139.629 40.6154H136.129V45.5945H134.882V34.3779H136.129V39.357H139.629L143.687 34.3779Z" fill="#808080"/>
<path d="M143.557 34.0938H145.842L141.137 39.9109L141.077 39.986L141.138 40.0609L145.87 45.8792H143.557L139.534 40.9421L139.5 40.9002H139.447H136.52H136.406V41.0173V45.8792H134.605V34.0938H136.406V38.9557V39.0728H136.52H139.447H139.5L139.534 39.0309L143.557 34.0938ZM135.159 45.1932V45.3103H135.273H135.738H135.852V45.1932V40.3312H139.759L143.782 45.2684L143.816 45.3103H143.869H144.442H144.686L144.529 45.1181L140.356 39.987L144.506 34.8546L144.661 34.6626H144.419H143.869H143.816L143.782 34.7046L139.759 39.6417H135.852V34.7798V34.6626H135.738H135.273H135.159V34.7798V45.1932Z" fill="#808080" stroke="#808080" stroke-width="0.312331" stroke-miterlimit="10"/>
</svg>
