<svg width="172" height="80" viewBox="0 0 172 80" fill="none" xmlns="http://www.w3.org/2000/svg">
<g clip-path="url(#clip0_11304_14904)">
<path d="M27.624 32.3698L33.3884 29L39.1529 32.3698L37.0336 33.6146L33.3884 31.4898L29.7433 33.6146L27.624 32.3698ZM39.1529 36.6195L37.0336 35.3746L33.3884 37.4995L29.7433 35.3746L27.624 36.6195V39.1093L31.2691 41.2341V45.4839L33.3884 46.7288L35.5077 45.4839V41.2341L39.1529 39.1093V36.6195ZM39.1529 43.359V40.8693L37.0336 42.1141V44.6039L39.1529 43.359ZM40.6575 44.239L37.0124 46.3639V48.8536L42.7769 45.4839V38.7444L40.6575 39.9893V44.239ZM38.5383 34.4946L40.6575 35.7395V38.2293L42.7769 36.9844V34.4946L40.6575 33.2498L38.5383 34.4946ZM31.2691 47.2654V49.7552L33.3884 51L35.5077 49.7552V47.2654L33.3884 48.5102L31.2691 47.2654ZM27.624 43.359L29.7433 44.6039V42.1141L27.624 40.8693V43.359ZM31.2691 34.4946L33.3884 35.7395L35.5077 34.4946L33.3884 33.2498L31.2691 34.4946ZM26.1193 35.7395L28.2386 34.4946L26.1193 33.2498L24 34.4946V36.9844L26.1193 38.2293V35.7395ZM26.1193 39.9893L24 38.7444V45.4839L29.7644 48.8536V46.3639L26.1193 44.239V39.9893Z" fill="#808080"/>
<path d="M59.4847 42.8062V42.7713C59.4847 41.1272 58.6212 40.3051 57.2223 39.7629C58.0859 39.2731 58.8112 38.5035 58.8112 37.1217V37.0868C58.8112 35.1628 57.2915 33.9209 54.8218 33.9209H49.2088V46.1645H54.9599C57.6886 46.1645 59.4847 45.0451 59.4847 42.8062ZM56.1689 37.5765C56.1689 38.486 55.4262 38.8708 54.2518 38.8708H51.7994V36.2822H54.4245C55.5471 36.2822 56.1689 36.7369 56.1689 37.5415V37.5765ZM56.8423 42.4739C56.8423 43.3835 56.1343 43.8033 54.9599 43.8033H51.7994V41.1097H54.8735C56.2379 41.1097 56.8423 41.6169 56.8423 42.4389V42.4739Z" fill="#808080"/>
<path d="M72.5874 46.1645V33.9209H69.9624V41.4595L64.2976 33.9209H61.8452V46.1645H64.4703V38.3811L70.325 46.1645H72.5874Z" fill="#808080"/>
<path d="M85.9381 42.8062V42.7713C85.9381 41.1272 85.0746 40.3051 83.6757 39.7629C84.5392 39.2731 85.2646 38.5035 85.2646 37.1217V37.0868C85.2646 35.1628 83.7448 33.9209 81.2751 33.9209H75.6623V46.1645H81.4133C84.142 46.1645 85.9381 45.0451 85.9381 42.8062ZM82.6222 37.5765C82.6222 38.486 81.8796 38.8708 80.7052 38.8708H78.2528V36.2822H80.8779C82.0005 36.2822 82.6222 36.7369 82.6222 37.5415V37.5765ZM83.2958 42.4739C83.2958 43.3835 82.5876 43.8033 81.4133 43.8033H78.2528V41.1097H81.3269C82.6913 41.1097 83.2958 41.6169 83.2958 42.4389V42.4739Z" fill="#808080"/>
<path d="M101.967 44.0014L100.603 42.6021C99.5668 43.5816 98.617 44.1938 97.1317 44.1938C94.8175 44.1938 93.1422 42.2348 93.1422 39.821C93.1422 37.4073 94.8175 35.4833 97.1317 35.4833C98.5133 35.4833 99.5496 36.0955 100.517 37.005L101.881 35.4133C100.724 34.2939 99.3768 33.5068 97.149 33.5068C93.4876 33.5068 90.9144 36.3579 90.9144 39.856C90.9144 43.3892 93.5395 46.1702 97.0626 46.1702C99.325 46.1702 100.707 45.3307 101.967 44.0014Z" fill="#808080"/>
<path d="M112.265 40.8007V45.9605H114.39V33.7168H112.265V38.8066H106.497V33.7168H104.373V45.9605H106.497V40.8007H112.265Z" fill="#808080"/>
<path d="M123.919 33.6299H121.95L116.631 45.961H118.807L120.05 43.005H125.767L126.993 45.961H129.238L123.919 33.6299ZM124.989 41.0985H120.828L122.9 36.201L124.989 41.0985Z" fill="#808080"/>
<path d="M131.605 33.7168V45.9605H133.729V33.7168H131.605Z" fill="#808080"/>
<path d="M145.583 42.1824L139.106 33.7168H137.138V45.9605H139.228V37.25L145.894 45.9605H147.673V33.7168H145.583V42.1824Z" fill="#808080"/>
</g>
<defs>
<clipPath id="clip0_11304_14904">
<rect width="124" height="22" fill="white" transform="translate(24 29)"/>
</clipPath>
</defs>
</svg>
