<svg width="173" height="80" viewBox="0 0 173 80" fill="none" xmlns="http://www.w3.org/2000/svg">
<path d="M75.6607 50.0169H84.8447C87.7375 50.0169 89.9282 47.4901 89.9282 44.179C89.9282 40.7809 87.4286 39.532 85.94 39.4449V39.2706C87.3724 39.0963 89.2541 37.9926 89.2541 34.972C89.2541 31.8062 87.232 29.7441 84.0022 29.7441H75.6607V50.0169ZM78.385 40.8099H84.0302C85.8838 40.8099 87.0073 41.7975 87.0073 43.6854V44.7018C87.0073 46.5898 85.8838 47.5773 84.0302 47.5773H78.385V40.8099ZM78.385 32.1838H83.5808C85.2941 32.1838 86.3332 33.1423 86.3332 34.8268V35.7853C86.3332 37.4699 85.2941 38.4283 83.5808 38.4283H78.385V32.1838Z" fill="#808080"/>
<path d="M100.663 50.3656C103.977 50.3656 106.365 48.5939 107.629 45.6894L105.438 44.3243C104.708 46.4154 103.079 47.8386 100.663 47.8386C97.4615 47.8386 95.5236 45.3699 95.5236 41.4199V38.3412C95.5236 34.3912 97.4615 31.9224 100.663 31.9224C103.022 31.9224 104.539 33.2294 105.269 35.2334L107.516 33.8974C106.252 30.993 103.977 29.3955 100.663 29.3955C95.664 29.3955 92.6027 33.1132 92.6027 39.8805C92.6027 46.6479 95.664 50.3656 100.663 50.3656Z" fill="#808080"/>
<path d="M126.193 50.0169L119.424 29.7441H115.998L109.201 50.0169H111.954L113.835 44.2952H121.475L123.328 50.0169H126.193ZM120.801 41.7975H114.481L117.571 32.329H117.711L120.801 41.7975Z" fill="#808080"/>
<path d="M132.075 50.0169V41.6522H137.439C140.978 41.6522 143 39.2996 143 35.6981C143 32.0967 140.978 29.7441 137.439 29.7441H129.35V50.0169H132.075ZM132.075 32.2419H137.327C139.068 32.2419 140.107 33.2294 140.107 34.972V36.4243C140.107 38.1669 139.068 39.1544 137.327 39.1544H132.075V32.2419Z" fill="#808080"/>
<path d="M44.4435 49.6077C44.2185 49.7243 43.944 49.6356 43.8315 49.4123L42.5811 47.0133C42.4637 46.79 42.553 46.5175 42.778 46.4074L44.9033 45.3155C45.1497 45.1874 45.2291 44.8705 45.0604 44.6472L42.6605 41.4075C42.4918 41.1842 42.1676 41.1628 41.9708 41.3566L40.2888 43.0495C40.115 43.2268 39.824 43.2268 39.6437 43.0495L37.7086 41.1514C37.5299 40.979 37.5299 40.69 37.7086 40.5109L39.6206 38.5898C39.7942 38.4125 40.0853 38.4125 40.2656 38.5898L41.9708 40.2597C42.1676 40.4551 42.4984 40.4272 42.6605 40.2039L45.0274 36.9314C45.1894 36.7081 45.1117 36.3912 44.8653 36.2631L42.7234 35.1942C42.4984 35.0825 42.4091 34.8099 42.5216 34.5866L43.7439 32.1713C43.8563 31.9479 44.1309 31.8592 44.3558 31.9709L46.7888 33.1843C47.0137 33.296 47.103 33.5686 46.9906 33.7919L45.9139 35.9183C45.7898 36.1695 45.9139 36.4634 46.1834 36.5521L50.0472 37.7705C50.3101 37.8542 50.5913 37.6818 50.636 37.4093L50.9948 35.0595C51.0345 34.8148 51.2645 34.6424 51.5108 34.6802L54.2018 35.0858C54.4483 35.1252 54.6219 35.3534 54.584 35.5981L54.1754 38.2696C54.1357 38.5143 53.9058 38.6867 53.6594 38.6489L51.2925 38.2927C51.018 38.2483 50.765 38.4651 50.7716 38.7442L50.7947 42.7687C50.7947 43.0479 51.0478 43.2581 51.3223 43.2088L53.6825 42.8245C53.9289 42.7851 54.1655 42.9527 54.2035 43.1973L54.6467 45.8639C54.6864 46.1085 54.5177 46.3434 54.2714 46.3811L51.5853 46.8212C51.3389 46.8606 51.1024 46.6931 51.0643 46.4484L50.6773 44.1053C50.6326 43.8328 50.3514 43.6653 50.0885 43.749L46.2413 45.0133C45.9784 45.102 45.8543 45.4025 45.9784 45.6471L47.0766 47.7571C47.1941 47.9804 47.1047 48.253 46.8798 48.3647L44.4468 49.606L44.4435 49.6077Z" fill="#808080"/>
<path d="M55.5726 49.5074L57.3324 49.5501C57.5838 49.5566 57.7905 49.3596 57.7972 49.11L57.8401 47.363C57.8468 47.1134 57.6483 46.9065 57.3969 46.9016L55.6371 46.8589C55.3857 46.8523 55.1789 47.0493 55.1723 47.2989L55.1293 49.046C55.1227 49.2956 55.3212 49.5008 55.5726 49.5074Z" fill="#808080"/>
<path d="M57.8708 51.0293L57.535 52.0572C57.4771 52.2362 57.5747 52.4266 57.755 52.4857L58.7888 52.8207C58.969 52.8782 59.1609 52.7813 59.2204 52.6023L59.5562 51.5761C59.614 51.3971 59.5165 51.2066 59.3362 51.1475L58.3024 50.8126C58.1222 50.7551 57.9303 50.852 57.8708 51.0309V51.0293Z" fill="#808080"/>
<path d="M41.244 51.6285L41.7469 53.3034C41.8179 53.5414 42.0711 53.6777 42.3125 53.6072L43.9995 53.108C44.2394 53.0374 44.3767 52.7862 44.3055 52.5464L43.8028 50.8716C43.7316 50.6335 43.4785 50.4972 43.2371 50.5678L41.55 51.067C41.3102 51.1376 41.1729 51.3888 41.244 51.6285Z" fill="#808080"/>
<path d="M40.5145 54.2397H39.4262C39.2377 54.2397 39.0838 54.3924 39.0838 54.5796V55.6601C39.0838 55.8473 39.2377 56 39.4262 56H40.5145C40.703 56 40.8569 55.8473 40.8569 55.6601V54.5796C40.8569 54.3924 40.703 54.2397 40.5145 54.2397Z" fill="#808080"/>
<path d="M34.7906 38.7539L33.3417 39.7474C33.135 39.8885 33.0837 40.1693 33.2259 40.3746L34.2266 41.813C34.3688 42.0182 34.6516 42.0691 34.8584 41.9279L36.3073 40.9345C36.514 40.7933 36.5653 40.5125 36.423 40.3073L35.4224 38.8689C35.2802 38.6636 34.9973 38.6127 34.7906 38.7539Z" fill="#808080"/>
<path d="M32.0395 38.8623L31.7037 37.8344C31.6458 37.6554 31.4523 37.5586 31.272 37.616L30.2366 37.9493C30.0564 38.0068 29.9588 38.1989 30.0167 38.3779L30.3524 39.4058C30.4103 39.5847 30.6038 39.6816 30.7841 39.6241L31.8195 39.2908C31.9998 39.2334 32.0974 39.0413 32.0395 38.8623Z" fill="#808080"/>
<path d="M45.1284 28.6819L43.7291 27.6212C43.529 27.4701 43.2445 27.5079 43.0924 27.7049L42.024 29.0941C41.8718 29.2928 41.9098 29.5752 42.1083 29.7262L43.5076 30.787C43.7077 30.938 43.9922 30.9003 44.1443 30.7032L45.2127 29.3141C45.3649 29.1154 45.3269 28.833 45.1268 28.6819H45.1284Z" fill="#808080"/>
<path d="M44.17 26.1219L45.0499 25.4881C45.2021 25.3781 45.2368 25.1662 45.126 25.0135L44.4875 24.14C44.3767 23.9889 44.1634 23.9544 44.0096 24.0645L43.1296 24.6983C42.9775 24.8083 42.9427 25.0201 43.0536 25.1728L43.692 26.0464C43.8028 26.1974 44.0162 26.2319 44.17 26.1219Z" fill="#808080"/>
<path d="M57.9739 35.3287L58.5577 33.6802C58.6404 33.4454 58.5164 33.1875 58.2799 33.1055L56.6193 32.5258C56.3827 32.4437 56.1231 32.5669 56.0404 32.8017L55.4565 34.4502C55.3738 34.685 55.4979 34.9429 55.7344 35.0249L57.395 35.6045C57.6315 35.6867 57.8912 35.5635 57.9739 35.3287Z" fill="#808080"/>
<path d="M60.1382 33.6309L61.0181 34.2663C61.1703 34.3764 61.3852 34.3435 61.4961 34.1908L62.1361 33.3172C62.247 33.1662 62.2139 32.9527 62.0601 32.8427L61.1802 32.2073C61.028 32.0972 60.813 32.1301 60.7022 32.2828L60.0621 33.1563C59.9513 33.3074 59.9843 33.5208 60.1382 33.6309Z" fill="#808080"/>
</svg>
