<svg width="173" height="80" viewBox="0 0 173 80" fill="none" xmlns="http://www.w3.org/2000/svg">
<path d="M38.3007 41.05C38.3007 40.825 38.3752 40.6 38.5242 40.45C38.0027 40.375 37.5557 40.15 37.5557 39.625C37.5557 39.1 38.0027 38.875 38.5242 38.725C38.3007 38.575 38.2262 38.35 38.2262 38.125C38.3007 36.925 40.7591 37.975 40.7591 37.975V38.875V38.95V40V40.15V41.05C40.7591 41.125 38.3752 42.175 38.3007 41.05Z" fill="url(#paint0_linear_11304_14879)"/>
<path d="M38.5987 46.6751C38.5987 46.5251 38.6731 46.3751 38.7476 46.3001C38.3752 46.2251 38.0772 46.0751 38.0772 45.7001C38.0772 45.3251 38.3752 45.1751 38.7476 45.1001C38.5987 45.0251 38.5242 44.8751 38.5242 44.7251C38.5242 43.9001 40.2376 44.6501 40.2376 44.6501V45.3251V46.0751V46.7501C40.2376 46.7501 38.5987 47.5001 38.5987 46.6751Z" fill="url(#paint1_linear_11304_14879)"/>
<path d="M37.8537 33.4745C37.9282 33.2495 38.1517 33.0245 38.3752 32.9495C37.7792 32.5745 37.4067 32.1245 37.7047 31.5245C38.0027 30.9245 38.5987 30.8495 39.1946 31.0745C39.0456 30.8495 39.0456 30.5495 39.1946 30.3245C39.7906 29.0495 42.0255 31.4495 42.0255 31.4495L41.5785 32.4995L41.504 32.6495L40.9825 33.8495L40.908 33.9995L40.4611 34.9745C40.5356 34.8995 37.3322 34.8245 37.8537 33.4745Z" fill="url(#paint2_linear_11304_14879)"/>
<path d="M42.1745 53.2C42.1745 53.2 38.0027 55 35.7678 53.2L36.4382 52H41.355C41.4295 52 42.547 52.225 42.547 52.225L42.1745 53.2Z" fill="#D6753E"/>
<path d="M50.0711 44.3498C50.6671 44.7248 52.2315 45.3248 51.6356 46.8248C51.4121 47.1998 51.1141 47.5748 50.8161 47.7998C50.2946 48.1748 50.7416 48.3248 51.0396 48.2498C51.3376 48.2498 54.9879 47.4248 53.2745 44.3498C52.9765 43.7498 51.5611 42.5498 50.2946 42.7748C49.0282 42.9998 49.7731 44.1998 50.0711 44.3498Z" fill="url(#paint3_linear_11304_14879)"/>
<path d="M40.2376 45.1752V46.3752C40.2376 46.3752 39.9396 50.5752 37.4812 50.5752C37.4812 50.5752 33.2349 51.0252 32.5644 44.7252C32.5644 44.7252 32.3409 57.3252 42.1 52.8252L42.4725 54.9253L44.9309 51.7002L49.1027 52.1503L50.6671 54.4752L50.8906 42.2502C50.8906 42.2502 58.4893 43.3003 59.8302 43.4503C59.8302 43.4503 62.5121 27.4752 52.5295 26.8002C39.3436 25.3002 40.3121 36.1752 40.3121 36.1752L40.2376 42.7003V45.1752Z" fill="url(#paint4_linear_11304_14879)"/>
<path d="M43.8879 39.4002C43.9624 37.0752 44.4094 36.3252 44.9309 36.3252C45.4524 36.3252 45.9738 38.2752 45.9738 40.7502L43.8879 39.4002Z" fill="#EDEDBB"/>
<path d="M49.3262 35.8746C49.3262 36.3996 50.1456 36.7746 51.1886 36.7746C52.2315 36.7746 53.051 36.3246 53.051 35.8746C53.051 35.4246 52.2315 34.9746 51.1886 34.9746C50.1456 34.9746 49.3262 35.3496 49.3262 35.8746Z" fill="#D69547"/>
<path d="M55.0624 35.7245C54.9879 35.9495 55.2859 36.2495 55.7329 36.3995C56.1799 36.4745 56.5523 36.3995 56.6268 36.0995C56.7013 35.7995 56.3289 35.4995 55.9564 35.4245C55.5094 35.3495 55.0624 35.4245 55.0624 35.7245Z" fill="#D69547"/>
<path d="M47.5383 36.6245C47.5383 36.7745 47.6872 36.9995 48.0597 37.0745C48.3577 37.1495 48.6557 37.0745 48.7302 36.9245C48.7302 36.7745 48.5812 36.5495 48.2087 36.4745C47.8362 36.3245 47.5383 36.3995 47.5383 36.6245Z" fill="#D69547"/>
<path d="M51.1886 37.5251C51.1141 37.6751 51.3376 37.9001 51.6356 37.9751C51.9336 38.0501 52.2315 37.9751 52.306 37.8251C52.3805 37.6751 52.157 37.4501 51.8591 37.3751C51.5611 37.3001 51.1886 37.3751 51.1886 37.5251Z" fill="#D69547"/>
<path d="M46.1973 44.3504C46.1973 44.3504 45.7503 45.7004 45.0799 46.0754C45.5268 46.6754 46.3463 47.2754 47.2403 45.9254C46.7933 45.4754 46.4953 44.9504 46.2718 44.3504C46.2718 44.3504 47.6872 47.3504 49.1772 44.2754C49.1772 44.2754 48.4322 46.7504 47.3148 45.9254C46.9423 46.8254 46.0483 48.0254 45.0054 46.0004C44.5584 46.2254 43.9624 45.8504 43.2919 44.2754C43.2919 44.4254 44.7074 47.5004 46.1973 44.3504Z" fill="#D6721E"/>
<path d="M51.8591 29.8748C51.7846 28.2998 50.5181 27.0248 48.8792 27.0998C48.5067 27.0998 48.1342 27.1748 47.8362 27.3248C46.7933 27.7748 46.1228 28.8248 46.0483 29.9498C46.0483 30.9248 46.4953 31.8248 47.3148 32.3498C48.8047 33.1748 50.6671 32.6498 51.4866 31.1498C51.4866 31.0748 51.5611 31.0748 51.5611 30.9998C51.7846 30.6248 51.8591 30.2498 51.8591 29.8748Z" fill="#D6753E"/>
<path d="M51.6356 29.5746C51.5611 28.0746 50.3691 26.8746 48.8792 26.9496C48.5067 26.9496 48.2087 27.0246 47.9108 27.1746C46.9423 27.6246 46.2718 28.5246 46.2718 29.6496C46.1973 30.5496 46.7188 31.4496 47.4638 31.9746C48.8792 32.7996 50.5926 32.2746 51.4121 30.8496C51.4121 30.7746 51.4866 30.7746 51.4866 30.6996C51.5611 30.3246 51.6356 29.9496 51.6356 29.5746Z" fill="#EDEDBB"/>
<path d="M47.7617 30.1753C47.7617 30.7753 48.2087 31.2253 48.8047 31.2253C49.4007 31.2253 49.8476 30.7753 49.8476 30.1753C49.8476 29.5753 49.4007 29.1253 48.8047 29.1253C48.2832 29.0503 47.8362 29.5003 47.7617 30.1753C47.7617 30.1003 47.7617 30.1003 47.7617 30.1753Z" fill="#9E512B"/>
<path d="M48.1342 30.0254C48.1342 30.4004 48.4322 30.7004 48.8047 30.7004C49.1772 30.7004 49.4751 30.4004 49.4751 30.0254C49.4751 29.6504 49.1772 29.3504 48.8047 29.3504C48.5067 29.2754 48.2087 29.5754 48.1342 30.0254C48.2087 29.9504 48.1342 29.9504 48.1342 30.0254Z" fill="#542713"/>
<path d="M47.8362 29.1998C47.8362 29.4998 48.0597 29.7248 48.3577 29.7248C48.6557 29.7248 48.8792 29.4998 48.8792 29.1998C48.8792 28.8998 48.6557 28.6748 48.3577 28.6748C48.0597 28.6748 47.8362 28.8998 47.8362 29.1998Z" fill="white"/>
<path d="M48.3577 33.4C49.5497 33.4 50.7416 32.95 51.6356 32.125C50.2946 33.925 47.7617 34.3 45.9738 32.95C45.6758 32.725 45.3778 32.425 45.1544 32.125C45.9738 32.95 47.1658 33.4 48.3577 33.4Z" fill="#D69547"/>
<path d="M48.7302 32.875C49.6986 32.875 50.6671 32.425 51.3376 31.75C50.2946 33.25 48.2087 33.625 46.7188 32.575C46.4208 32.35 46.1973 32.125 45.9738 31.9C46.7933 32.575 47.7617 32.95 48.7302 32.875Z" fill="#D69547"/>
<path d="M48.9537 41.9498C50.2946 42.3248 51.7101 42.6248 53.1255 42.8498C54.3919 43.0748 55.5839 43.2248 56.5523 43.2998C58.4892 43.5248 59.7557 43.5248 59.7557 43.5248C59.7557 43.5248 58.5637 43.3748 56.6268 43.0748C55.6584 42.9248 54.4664 42.6998 53.2 42.4748C51.9335 42.2498 50.5181 41.8748 49.1027 41.4998C47.7617 41.1248 46.4208 40.5998 45.2288 39.9998C44.7074 39.6998 44.1859 39.3998 43.7389 39.0248C43.2919 38.6498 42.994 38.2748 42.696 37.7498C42.4725 37.3748 42.398 36.9248 42.398 36.4748V36.3248C42.398 36.2498 42.398 36.2498 42.398 36.1748C42.398 36.0998 42.398 36.0248 42.398 35.9498C42.398 35.8748 42.398 35.7998 42.4725 35.7248C42.547 35.6498 42.547 35.5748 42.547 35.4998C42.6215 35.2748 42.696 35.1248 42.7704 34.8998L42.8449 34.6748L42.696 34.8998C42.547 35.0498 42.4725 35.2748 42.398 35.4998C42.398 35.5748 42.3235 35.6498 42.3235 35.7248C42.3235 35.7998 42.249 35.8748 42.249 35.9498C42.249 36.0248 42.1745 36.0998 42.1745 36.2498C42.1745 36.3248 42.1745 36.3248 42.1745 36.3998C42.1745 36.4748 42.1745 36.4748 42.1745 36.5498C42.1 36.9998 42.1745 37.4498 42.398 37.8998C42.6215 38.4248 42.994 38.8748 43.3664 39.3248C43.8134 39.7748 44.3349 40.1498 44.9309 40.4498C46.2718 41.0498 47.6127 41.5748 48.9537 41.9498Z" fill="#D6753E"/>
<mask id="mask0_11304_14879" style="mask-type:luminance" maskUnits="userSpaceOnUse" x="52" y="27" width="9" height="7">
<path d="M52.753 33.7752H60.1282L60.4262 27.7002L52.753 29.2752V33.7752Z" fill="white"/>
</mask>
<g mask="url(#mask0_11304_14879)">
<path d="M52.902 29.9503C52.9765 31.4503 54.1684 32.6503 55.6584 32.5753C56.0309 32.5753 56.3288 32.5003 56.6268 32.3503C57.5953 31.9003 58.2658 31.0003 58.2658 29.8753C58.2658 28.9753 57.8188 28.0753 57.0738 27.5503C55.6584 26.7253 53.945 27.2503 53.1255 28.6753C53.1255 28.7503 53.051 28.7503 53.051 28.8253C52.9765 29.2003 52.902 29.5753 52.902 29.9503Z" fill="#D6753E"/>
<path d="M52.9765 29.6502C52.9765 31.0752 54.2429 32.2752 55.6584 32.2002C56.0309 32.2002 56.3288 32.1252 56.6268 31.9752C57.5953 31.5252 58.1913 30.6252 58.2658 29.5752C58.2658 28.6752 57.8188 27.8502 57.0738 27.3252C55.7329 26.5752 54.0194 27.0252 53.2745 28.3752C53.2745 28.4502 53.2 28.5252 53.2 28.5252C53.051 28.9002 52.9765 29.2752 52.9765 29.6502Z" fill="#EDEDBB"/>
<path d="M55.8074 31.225C56.3834 31.225 56.8503 30.7549 56.8503 30.175C56.8503 29.5951 56.3834 29.125 55.8074 29.125C55.2313 29.125 54.7644 29.5951 54.7644 30.175C54.7644 30.7549 55.2313 31.225 55.8074 31.225Z" fill="#9E512B"/>
<path d="M55.0624 30.0254C55.0624 30.4004 55.3604 30.7004 55.7329 30.7004C56.1054 30.7004 56.4033 30.4004 56.4033 30.0254C56.4033 29.6504 56.1054 29.3504 55.7329 29.3504C55.4349 29.2754 55.0624 29.5754 55.0624 30.0254Z" fill="#542713"/>
<path d="M56.1798 33.2504C57.2228 33.4004 58.2657 33.1004 59.1597 32.5004C57.8188 33.9254 55.5839 34.0754 54.0939 32.7254C53.8705 32.5004 53.647 32.2004 53.4235 31.9004C54.1684 32.6504 55.1369 33.1754 56.1798 33.2504Z" fill="#D69547"/>
<path d="M54.7644 29.1998C54.7644 29.4998 54.9879 29.7248 55.2859 29.7248C55.5839 29.7248 55.8074 29.4998 55.8074 29.1998C55.8074 28.8998 55.5839 28.6748 55.2859 28.6748C54.9879 28.6748 54.7644 28.8998 54.7644 29.1998Z" fill="white"/>
<path d="M56.4033 32.7254C57.2973 32.5754 58.0423 32.2004 58.6382 31.5254C57.8188 32.9504 56.0309 33.4754 54.6154 32.7254C54.3919 32.5754 54.1684 32.4254 53.9449 32.2004C54.6899 32.6504 55.5839 32.8754 56.4033 32.7254Z" fill="#D69547"/>
</g>
<path d="M58.2658 26.2754C57.2973 28.3004 55.1369 29.5004 52.902 29.1254C52.9765 29.1254 56.7758 28.1504 58.2658 26.2754Z" fill="#D69547"/>
<path d="M51.6356 26.7249C50.7416 26.2749 47.0168 24.4749 45.5268 26.9499C45.8248 26.0499 46.5698 25.3749 47.5383 25.2249C49.0282 24.7749 50.6671 25.3749 51.6356 26.7249Z" fill="#D69547"/>
<path d="M41.4295 44.3498C40.8335 44.7248 39.2691 45.3248 39.8651 46.8248C40.0886 47.1998 40.3121 47.4998 40.6846 47.7998C41.206 48.0998 40.7591 48.3248 40.4611 48.2498C40.1631 48.2498 36.5128 47.4998 38.2262 44.3498C38.5242 43.7498 39.9396 42.5498 41.206 42.7748C42.4725 42.9998 41.7275 44.1998 41.4295 44.3498Z" fill="url(#paint5_linear_11304_14879)"/>
<path d="M65.7154 42.4002C65.7154 41.7252 65.7899 41.0502 66.0879 40.3752C66.3114 39.7752 66.6094 39.2502 67.0564 38.7252C67.5033 38.2752 68.0248 37.9002 68.6208 37.6002C69.2913 37.3002 70.0362 37.1502 70.7067 37.2252C71.1537 37.2252 71.6752 37.3002 72.1222 37.3752C72.5691 37.4502 72.9416 37.6002 73.3886 37.7502L72.7926 39.9252C72.4946 39.8502 72.1966 39.7752 71.9732 39.7002C71.6007 39.6252 71.3027 39.5502 70.9302 39.6252C70.2597 39.5502 69.5893 39.8502 69.1423 40.3752C68.6953 40.9752 68.4718 41.6502 68.5463 42.4002C68.4718 43.1502 68.6953 43.8252 69.1423 44.4252C69.6638 44.9502 70.3342 45.2502 71.0792 45.1752C71.4517 45.1752 71.8242 45.1752 72.1222 45.1002C72.4946 45.0252 72.8671 44.9502 73.1651 44.8002L73.5376 47.0502C73.1651 47.2002 72.7181 47.3502 72.3456 47.4252C71.8242 47.5002 71.3027 47.5752 70.7812 47.5752C70.0362 47.5752 69.2168 47.4252 68.4718 47.2002C67.8758 46.9752 67.3544 46.6002 66.9074 46.0752C66.4604 45.6252 66.1624 45.0252 66.0134 44.4252C65.7899 43.7502 65.7154 43.0752 65.7154 42.4002Z" fill="#808080"/>
<path d="M84.4141 42.4C84.4141 43.15 84.3396 43.825 84.1161 44.5C83.8926 45.1 83.5946 45.625 83.1476 46.15C82.7007 46.6 82.2537 46.975 81.6577 47.2C81.0617 47.425 80.3913 47.575 79.7208 47.575C79.0503 47.575 78.3799 47.425 77.7839 47.2C77.1879 46.975 76.7409 46.6 76.2939 46.15C75.847 45.7 75.549 45.1 75.3255 44.5C75.102 43.825 74.953 43.15 74.953 42.4C74.953 41.65 75.102 40.975 75.3255 40.3C75.549 39.7 75.9215 39.175 76.2939 38.725C76.7409 38.275 77.1879 37.9 77.7839 37.675C78.9758 37.15 80.3913 37.15 81.5832 37.675C82.1792 37.9 82.6262 38.275 83.0731 38.725C83.5201 39.175 83.8181 39.775 84.0416 40.3C84.3396 40.975 84.4141 41.725 84.4141 42.4ZM81.6577 42.4C81.7322 41.725 81.5087 40.975 81.1362 40.375C80.5403 39.55 79.4228 39.4 78.6033 40C78.4544 40.075 78.3799 40.225 78.2309 40.375C77.8584 40.975 77.7094 41.65 77.7094 42.4C77.6349 43.15 77.8584 43.825 78.2309 44.425C78.5289 44.95 79.1248 45.175 79.7208 45.175C80.3168 45.175 80.8382 44.95 81.1362 44.425C81.5087 43.825 81.7322 43.15 81.6577 42.4Z" fill="#808080"/>
<path d="M90.0013 34.7496C90.0013 35.1996 89.8523 35.6496 89.5544 35.9496C89.2564 36.2496 88.8094 36.3996 88.3624 36.3996C87.9154 36.3996 87.5429 36.2496 87.245 35.9496C86.947 35.6496 86.7235 35.1996 86.798 34.7496C86.798 34.2996 86.947 33.8496 87.3195 33.5496C87.9899 32.9496 88.9584 32.9496 89.6289 33.5496C89.8524 33.8496 90.0758 34.2996 90.0013 34.7496ZM89.7778 47.3496H87.0215V37.5996H89.7778V47.3496Z" fill="#808080"/>
<path d="M92.8322 37.9C94.1731 37.525 95.5886 37.375 96.9295 37.375C97.6 37.375 98.3449 37.45 99.0154 37.675C99.5369 37.9 99.9839 38.2 100.282 38.575C100.58 39.025 100.803 39.475 100.952 40C101.101 40.6 101.176 41.2 101.176 41.8V47.275H98.4195V42.1C98.494 41.425 98.345 40.825 98.047 40.225C97.749 39.85 97.2275 39.625 96.706 39.7C96.4826 39.7 96.259 39.7 96.1101 39.7L95.5141 39.775V47.275H92.7577L92.8322 37.9Z" fill="#808080"/>
<path d="M111.382 39.4746L110.488 40.4496C110.115 40.8996 109.743 41.3496 109.296 41.8746C108.849 42.3996 108.402 42.9246 107.955 43.4496C107.508 43.9746 107.136 44.5746 106.763 45.0996H111.456V47.4246H103.411V45.7746C103.709 45.2496 104.007 44.7996 104.305 44.3496C104.677 43.8246 105.05 43.2996 105.422 42.7746C105.795 42.2496 106.242 41.7246 106.614 41.2746C106.987 40.8246 107.359 40.3746 107.732 39.9246H103.634V37.5996H111.307V39.4746H111.382Z" fill="#808080"/>
<path d="M116.746 34.7496C116.746 35.1996 116.597 35.6496 116.224 35.9496C115.926 36.2496 115.479 36.3996 115.107 36.3996C114.66 36.3996 114.287 36.2496 113.989 35.9496C113.691 35.6496 113.468 35.1996 113.468 34.7496C113.468 34.2996 113.617 33.8496 113.989 33.5496C114.66 32.9496 115.628 32.9496 116.299 33.5496C116.597 33.8496 116.746 34.2996 116.746 34.7496ZM116.448 47.3496H113.691V37.5996H116.448V47.3496Z" fill="#808080"/>
<path d="M123.376 47.5C122.705 47.5 122.035 47.425 121.439 47.2C120.992 47.05 120.619 46.825 120.247 46.525C119.949 46.225 119.725 45.85 119.651 45.475C119.577 45.025 119.502 44.575 119.502 44.05V33.325L122.258 32.875V43.45C122.258 43.675 122.258 43.9 122.333 44.125C122.333 44.275 122.407 44.5 122.556 44.65C122.705 44.8 122.854 44.95 123.003 44.95C123.227 45.025 123.525 45.1 123.823 45.1L123.376 47.5Z" fill="#808080"/>
<path d="M129.634 47.5C128.963 47.5 128.293 47.425 127.697 47.2C127.25 47.05 126.877 46.825 126.505 46.525C126.207 46.225 125.983 45.85 125.909 45.475C125.834 45.025 125.76 44.575 125.76 44.05V33.325L128.516 32.875V43.45C128.516 43.675 128.516 43.9 128.591 44.125C128.591 44.275 128.665 44.5 128.814 44.65C128.963 44.8 129.112 44.95 129.261 44.95C129.485 45.025 129.783 45.1 130.081 45.1L129.634 47.5Z" fill="#808080"/>
<path d="M135.817 37.375C136.487 37.375 137.158 37.45 137.828 37.675C138.35 37.825 138.797 38.125 139.095 38.5C139.393 38.875 139.691 39.325 139.765 39.775C139.914 40.3 139.989 40.9 139.989 41.425V47.125C139.616 47.2 139.02 47.275 138.35 47.425C137.53 47.575 136.636 47.65 135.817 47.575C135.221 47.575 134.699 47.5 134.103 47.425C133.656 47.35 133.209 47.125 132.762 46.9C132.39 46.675 132.092 46.3 131.943 45.925C131.719 45.475 131.645 44.95 131.645 44.425C131.645 43.9 131.719 43.45 132.017 43C132.241 42.625 132.539 42.325 132.911 42.025C133.284 41.8 133.731 41.65 134.252 41.5C134.774 41.425 135.295 41.35 135.817 41.35C136.115 41.35 136.413 41.35 136.785 41.425C137.009 41.425 137.232 41.5 137.456 41.575V41.35C137.456 40.9 137.307 40.525 137.009 40.225C136.562 39.925 136.04 39.775 135.519 39.775C135.072 39.775 134.625 39.775 134.103 39.85C133.731 39.925 133.284 40 132.911 40.15L132.539 37.9L133.135 37.75C133.358 37.675 133.656 37.675 133.954 37.6C134.252 37.525 134.55 37.525 134.848 37.525C135.146 37.525 135.519 37.375 135.817 37.375ZM136.04 45.4C136.338 45.4 136.562 45.4 136.785 45.4C137.009 45.4 137.158 45.4 137.381 45.325V43.225C137.232 43.225 137.083 43.15 136.86 43.15C136.636 43.15 136.413 43.15 136.264 43.15C136.04 43.15 135.742 43.15 135.519 43.225C135.295 43.225 135.146 43.3 134.923 43.375C134.774 43.45 134.625 43.6 134.55 43.75C134.252 44.275 134.401 44.875 134.848 45.175C135.221 45.4 135.593 45.475 136.04 45.4Z" fill="#808080"/>
<defs>
<linearGradient id="paint0_linear_11304_14879" x1="39.4361" y1="38.4823" x2="39.1266" y2="40.6267" gradientUnits="userSpaceOnUse">
<stop stop-color="#EA8632"/>
<stop offset="1" stop-color="#D6721E"/>
</linearGradient>
<linearGradient id="paint1_linear_11304_14879" x1="39.602" y1="44.3629" x2="39.1422" y2="46.3566" gradientUnits="userSpaceOnUse">
<stop stop-color="#EA8632"/>
<stop offset="1" stop-color="#D6721E"/>
</linearGradient>
<linearGradient id="paint2_linear_11304_14879" x1="39.9964" y1="31.211" x2="38.9176" y2="34.3415" gradientUnits="userSpaceOnUse">
<stop stop-color="#EA8632"/>
<stop offset="1" stop-color="#D6721E"/>
</linearGradient>
<linearGradient id="paint3_linear_11304_14879" x1="50.9884" y1="48.2749" x2="51.7772" y2="42.8525" gradientUnits="userSpaceOnUse">
<stop stop-color="#D69547"/>
<stop offset="1" stop-color="#CC6806"/>
</linearGradient>
<linearGradient id="paint4_linear_11304_14879" x1="49.2488" y1="33.4692" x2="45.6513" y2="45.7187" gradientUnits="userSpaceOnUse">
<stop stop-color="#F0CD59"/>
<stop offset="1" stop-color="#F7931A"/>
</linearGradient>
<linearGradient id="paint5_linear_11304_14879" x1="41.936" y1="59.7016" x2="41.1635" y2="54.2753" gradientUnits="userSpaceOnUse">
<stop stop-color="#D69547"/>
<stop offset="1" stop-color="#CC6806"/>
</linearGradient>
</defs>
</svg>
