<svg width="216" height="100" viewBox="0 0 216 100" fill="none" xmlns="http://www.w3.org/2000/svg">
<path fill-rule="evenodd" clip-rule="evenodd" d="M59.9282 65.8335H64.92V40.8335H59.9282V65.8335Z" fill="white"/>
<path fill-rule="evenodd" clip-rule="evenodd" d="M78.0542 51.6404C77.186 51.4671 76.6927 51.4337 76.1337 51.4337C72.7137 51.4337 71.3786 53.8871 71.3786 57.1937V65.4871H66.4196V47.3604H71.1353V50.6937C72.2533 48.3404 74.2922 46.9404 76.9755 46.9404C77.357 46.9404 77.5609 46.9804 78.0542 47.0471V51.6404Z" fill="white"/>
<path fill-rule="evenodd" clip-rule="evenodd" d="M83.3423 56.4201C83.3423 60.1401 84.9471 62.2801 87.716 62.2801C90.4388 62.2801 92.0436 60.1068 92.0436 56.3801C92.0436 52.7601 90.4059 50.6201 87.6436 50.6201C84.9866 50.6268 83.3423 52.8068 83.3423 56.4201ZM97.0157 56.4201C97.0157 62.2468 93.3458 66.0334 87.716 66.0334C82.0861 66.0334 78.3834 62.2134 78.3834 56.4201C78.3834 50.6601 82.1256 46.8334 87.7883 46.8334C93.3392 46.8334 97.0157 50.6601 97.0157 56.4201Z" fill="white"/>
<path fill-rule="evenodd" clip-rule="evenodd" d="M109.795 65.487V54.907C109.795 52.6603 109.374 50.9737 106.717 50.9737C103.744 50.9737 102.803 53.1203 102.803 55.7537V65.487H97.8774V47.3603H102.593V49.887C104.02 47.9603 106.02 46.867 108.578 46.867C112.379 46.867 114.826 49.147 114.826 53.3603V65.4803H109.795V65.487Z" fill="white"/>
<path fill-rule="evenodd" clip-rule="evenodd" d="M134.03 45.0869V40.4602L116.542 40.4535V65.4602H122.034V54.4535H129.4V56.3669L131.702 54.2469L133.997 52.1335L131.702 50.0202L129.4 47.9002V49.8135H122.034V51.6069L119.732 49.5002L117.437 47.3802L119.732 45.2669L122.034 43.1535V45.0869H134.03Z" fill="white"/>
<path fill-rule="evenodd" clip-rule="evenodd" d="M135.095 40.4534H141.442L146.322 48.4334L151.379 40.4534H157.377L149.393 52.3868L158.074 65.4534H151.55L146.111 56.8068L140.567 65.4534H134.431L143.112 52.3534L135.095 40.4534Z" fill="white"/>
<path fill-rule="evenodd" clip-rule="evenodd" d="M62.4204 76.64C61.7298 76.64 61.1313 76.4667 60.7367 76.1667L60.6183 74.8667C61.1576 75.3 61.7429 75.5067 62.3612 75.5067C62.861 75.5067 63.1372 75.3 63.1372 74.9667C63.1372 74.6333 62.9465 74.4667 62.2559 74.22C61.2891 73.88 60.7761 73.2534 60.7761 72.4867C60.7761 71.54 61.4799 70.7867 62.7032 70.7867C63.3937 70.7867 63.8212 70.9667 64.0646 71.12L63.9593 72.26C63.6963 72.0867 63.2425 71.9067 62.8018 71.9067C62.3217 71.9067 62.0981 72.1133 62.0981 72.3867C62.0981 72.6467 62.2888 72.82 62.9465 73.0334C63.841 73.3334 64.4921 73.9533 64.4921 74.8267C64.4921 75.92 63.7883 76.64 62.4204 76.64Z" fill="white"/>
<path fill-rule="evenodd" clip-rule="evenodd" d="M70.9448 71.9733C70.1095 71.9733 69.3203 72.66 69.3203 73.7C69.3203 74.7533 70.1095 75.44 70.9448 75.44C71.7801 75.44 72.5759 74.7533 72.5759 73.7C72.5759 72.66 71.7801 71.9733 70.9448 71.9733ZM70.9448 76.64C69.4058 76.64 67.9523 75.5066 67.9523 73.7C67.9523 71.9133 69.4058 70.78 70.9448 70.78C72.4904 70.78 73.9439 71.9133 73.9439 73.7C73.9439 75.5066 72.4838 76.64 70.9448 76.64Z" fill="white"/>
<path fill-rule="evenodd" clip-rule="evenodd" d="M77.6993 76.507V70.9136H79.0542V75.3403H81.2837V76.507H77.6993Z" fill="white"/>
<path fill-rule="evenodd" clip-rule="evenodd" d="M84.8944 76.5071H86.2492V70.9137H84.8944V76.5071Z" fill="white"/>
<path fill-rule="evenodd" clip-rule="evenodd" d="M91.9844 72.0871H91.57V75.3471H91.9844C92.9512 75.3471 93.7667 74.8004 93.7667 73.7137C93.7667 72.6271 92.9512 72.0871 91.9844 72.0871ZM92.1422 76.5071H90.2678V70.9137H92.1422C93.747 70.9137 95.1215 71.9671 95.1215 73.7071C95.1215 75.4537 93.747 76.5071 92.1422 76.5071Z" fill="white"/>
<path fill-rule="evenodd" clip-rule="evenodd" d="M106.44 72.0069V76.5135H105.092V72.0002H103.408V70.9202H108.111V72.0069H106.44Z" fill="white"/>
<path fill-rule="evenodd" clip-rule="evenodd" d="M113.53 71.9871H112.951V73.2404H113.53C113.879 73.2404 114.227 73.0471 114.227 72.6137C114.227 72.1871 113.879 71.9871 113.53 71.9871ZM114.931 76.5071L113.431 74.3071H112.951V76.5071H111.649V70.9137H113.727C114.681 70.9137 115.523 71.5537 115.523 72.6071C115.523 73.2604 115.141 73.7871 114.674 74.0071L116.444 76.5071H114.931Z" fill="white"/>
<path fill-rule="evenodd" clip-rule="evenodd" d="M122.119 73.1933C122.06 73.0333 121.994 72.82 121.942 72.62H121.922C121.876 72.82 121.81 73.0333 121.751 73.1933L121.35 74.3133H122.52L122.119 73.1933ZM123.29 76.5066L122.849 75.34H121.021L120.593 76.5066H119.317L121.514 70.8666H122.441L124.632 76.5066H123.29Z" fill="white"/>
<path fill-rule="evenodd" clip-rule="evenodd" d="M129.887 72.087H129.472V75.347H129.887C130.853 75.347 131.675 74.8003 131.675 73.7136C131.675 72.627 130.853 72.087 129.887 72.087ZM130.044 76.507H128.163V70.9136H130.044C131.649 70.9136 133.03 71.967 133.03 73.707C133.03 75.4536 131.649 76.507 130.044 76.507Z" fill="white"/>
<path fill-rule="evenodd" clip-rule="evenodd" d="M136.864 76.507H138.213V70.9136H136.864V76.507Z" fill="white"/>
<path fill-rule="evenodd" clip-rule="evenodd" d="M146.776 76.5737L144.613 74.1871C144.264 73.8004 143.869 73.3271 143.573 72.9604L143.56 72.9671C143.58 73.3604 143.587 73.7871 143.587 74.1404V76.5071H142.232V70.9137H143.323L145.211 73.0004C145.468 73.2871 145.862 73.7471 146.112 74.0671L146.132 74.0604C146.112 73.7271 146.106 73.3671 146.106 73.0204V70.9204H147.46V76.5737H146.776Z" fill="white"/>
<path fill-rule="evenodd" clip-rule="evenodd" d="M154.3 76.64C152.767 76.64 151.215 75.6267 151.215 73.7133C151.215 71.7867 152.807 70.7867 154.274 70.7867C155.05 70.7867 155.655 70.98 156.043 71.2333L155.938 72.4267C155.556 72.1467 155.023 71.96 154.412 71.96C153.399 71.96 152.564 72.64 152.564 73.7467C152.564 74.8 153.353 75.48 154.366 75.48C154.688 75.48 154.931 75.4267 155.122 75.3133V74.5267H154.109V73.48H156.358V76.06C155.892 76.44 155.201 76.64 154.3 76.64Z" fill="white"/>
<path fill-rule="evenodd" clip-rule="evenodd" d="M157.629 33.2269H167.481V43.1269L157.629 33.2269Z" fill="white"/>
<path fill-rule="evenodd" clip-rule="evenodd" d="M163.073 65.4402V63.0535H163.652L164.251 64.9602L164.829 63.0535H165.402V65.4402H165.04V63.4402L164.428 65.4402H164.073L163.435 63.4069V65.4402H163.073ZM161.633 65.4402V63.4069H160.864V63.0535H162.804V63.4069H162.028V65.4402H161.633Z" fill="white"/>
</svg>
