<svg width="216" height="100" viewBox="0 0 216 100" fill="none" xmlns="http://www.w3.org/2000/svg">
<g clip-path="url(#clip0_199_528)">
<path d="M81.7986 44.5252C81.8833 40.3552 79.5113 36.7216 78.276 35.8483C78.2703 35.8427 78.1603 35.7837 78.1688 35.9466L78.166 35.9522C78.0447 43.8288 73.9777 45.9488 71.7665 48.8383C66.859 55.2575 70.9542 62.5808 76.2594 63.968C76.3496 63.9905 76.595 64.0635 77.0604 64.159C77.3029 64.2095 77.3734 64.0045 77.1958 63.6985C76.5612 62.595 75.433 60.7417 75.213 58.3632C74.6997 52.837 81.7028 49.3803 81.7986 44.5252Z" fill="white"/>
<path d="M84.4761 47.1983C84.4338 47.1674 84.3745 47.1702 84.3689 47.2236C84.2561 48.2261 83.2153 50.304 81.8446 52.2472C77.2305 58.7984 79.5545 61.7692 81.3595 63.8304C81.6923 64.2122 81.8587 64.128 82.0336 63.8557C82.1972 63.5974 82.4454 63.2687 83.5115 62.7662C83.6779 62.6875 87.7054 60.559 88.1426 55.7124C88.5629 51.02 85.5422 48.0576 84.4761 47.1983Z" fill="white"/>
<path d="M108.435 46.002V63.2405H104.72V56.2765H97.5816V63.2405H93.774V46.002H97.5816V52.9659H104.72V46.002H108.435Z" fill="white"/>
<path d="M125.606 46.002V49.4109H123.837H120.272V63.2405H116.451V49.4137H112.981H111.213V46.002H125.606Z" fill="white"/>
<path fill-rule="evenodd" clip-rule="evenodd" d="M139.135 63.2578L134.769 57.2599L130.437 63.2326L126.201 63.2409L132.623 54.4406L126.562 46.0052H130.795L143.352 63.2606H139.135V63.2578Z" fill="white"/>
<path d="M135.957 49.863L138.052 52.7609L143.016 46.002H138.805L135.957 49.863Z" fill="white"/>
</g>
<defs>
<clipPath id="clip0_199_528">
<rect width="77.0233" height="33.3333" fill="white" transform="translate(69.0698 33.3333)"/>
</clipPath>
</defs>
</svg>
