<svg width="78" height="19" viewBox="0 0 78 19" fill="none" xmlns="http://www.w3.org/2000/svg">
<path d="M3.344 18H0.704V0.839999H7.856C11.096 0.839999 13.472 2.352 13.472 5.952C13.472 9.552 11.096 11.04 7.856 11.04H3.344V18ZM3.344 8.76H7.736C9.728 8.76 10.736 7.872 10.736 5.952C10.736 4.008 9.728 3.12 7.736 3.12H3.344V8.76ZM17.6251 18H15.2731V0.839999H17.6251V18ZM23.6493 18.336C21.2013 18.336 19.6413 16.92 19.6413 14.832C19.6413 12.096 21.7053 11.28 24.7533 10.704C26.6733 10.344 27.8493 10.104 27.8493 8.904C27.8493 8.016 27.3213 7.272 25.5213 7.272C23.3853 7.272 22.7373 7.944 22.6173 9.576H20.2173C20.3373 7.224 21.8733 5.376 25.6173 5.376C28.1373 5.376 30.1533 6.432 30.1533 9.6V15.216C30.1533 16.104 30.2733 16.56 30.7293 16.56C30.8013 16.56 30.8733 16.56 31.0173 16.536V17.976C30.6093 18.072 30.2013 18.12 29.8173 18.12C28.6413 18.12 28.0173 17.664 27.8733 16.272H27.8253C27.0333 17.544 25.6413 18.336 23.6493 18.336ZM24.1773 16.44C26.2893 16.44 27.8493 15.36 27.8493 13.224V11.472C27.4653 11.832 26.4093 12.096 25.1613 12.36C23.0013 12.792 22.0893 13.392 22.0893 14.664C22.0893 15.816 22.7133 16.44 24.1773 16.44ZM37.2929 16.2C37.7009 16.2 37.8929 16.176 38.3009 16.104V18C37.7009 18.12 37.3169 18.144 36.8129 18.144C34.7969 18.144 33.5729 17.376 33.5729 14.544V7.704H31.7969V5.76H33.5729V1.824H35.9249V5.76H38.2769V7.704H35.9249V14.616C35.9249 15.912 36.2849 16.2 37.2929 16.2ZM45.4483 18.36C41.6323 18.36 39.3283 15.72 39.3283 11.88C39.3283 8.064 41.6323 5.376 45.4723 5.376C49.2643 5.376 51.5683 8.04 51.5683 11.856C51.5683 15.696 49.2643 18.36 45.4483 18.36ZM45.4723 16.416C47.9683 16.416 49.1203 14.424 49.1203 11.88C49.1203 9.312 47.9683 7.344 45.4723 7.344C42.9283 7.344 41.7763 9.312 41.7763 11.88C41.7763 14.424 42.9283 16.416 45.4723 16.416ZM59.042 18.36C55.226 18.36 52.922 15.72 52.922 11.88C52.922 8.064 55.226 5.376 59.066 5.376C62.858 5.376 65.162 8.04 65.162 11.856C65.162 15.696 62.858 18.36 59.042 18.36ZM59.066 16.416C61.562 16.416 62.714 14.424 62.714 11.88C62.714 9.312 61.562 7.344 59.066 7.344C56.522 7.344 55.37 9.312 55.37 11.88C55.37 14.424 56.522 16.416 59.066 16.416ZM73.5958 5.4C75.8518 5.4 77.6758 6.696 77.6758 9.504V18H75.3238V10.152C75.3238 8.52 74.6038 7.416 72.8278 7.416C70.8118 7.416 69.5158 8.64 69.5158 10.488V18H67.1638V5.76H69.5158V7.296H69.5638C70.2118 6.36 71.4838 5.4 73.5958 5.4Z" fill="white"/>
</svg>
