<svg width="40" height="40" viewBox="0 0 40 40" fill="none" xmlns="http://www.w3.org/2000/svg">
<path d="M34.9 18.3333C34.967 18.8864 35.0004 19.4429 35 20C35 22.9667 34.1203 25.8668 32.4721 28.3336C30.8238 30.8003 28.4811 32.7229 25.7403 33.8582C22.9994 34.9935 19.9834 35.2906 17.0737 34.7118C14.1639 34.133 11.4912 32.7044 9.3934 30.6066C7.29562 28.5088 5.86701 25.8361 5.28823 22.9264C4.70945 20.0166 5.0065 17.0006 6.14181 14.2597C7.27713 11.5189 9.19972 9.17618 11.6665 7.52796C14.1332 5.87973 17.0333 5 20 5C22.3226 5.02168 24.6071 5.5928 26.6667 6.66667" stroke="white" stroke-linecap="round" stroke-linejoin="round"/>
<path d="M35 8.33301L20 23.333L13.3333 16.6663" stroke="white" stroke-linecap="round" stroke-linejoin="round"/>
</svg>
