<svg width="40" height="40" viewBox="0 0 40 40" fill="none" xmlns="http://www.w3.org/2000/svg">
<path d="M6.66667 34.9999L26.6667 34.9999C27.5871 34.9999 28.3333 34.2537 28.3333 33.3333L28.3333 19.9999C28.3333 19.0794 27.5871 18.3333 26.6667 18.3333L5 18.3333L5 33.3332C5 34.2537 5.74619 34.9999 6.66667 34.9999Z" stroke="white" stroke-linecap="round" stroke-linejoin="round"/>
<path d="M28.3337 24.9999H33.3337C34.2541 24.9999 35.0003 24.2537 35.0003 23.3333V9.99992C35.0003 9.07945 34.2541 8.33325 33.3337 8.33325L11.667 8.33325L11.667 14.9999" stroke="white" stroke-linecap="round" stroke-linejoin="round"/>
<path d="M16.6667 18.3333L14.5745 15.6434C14.2588 15.2375 13.7733 15 13.2589 15H6.66667C5.74619 15 5 15.7462 5 16.6667V18.3333" stroke="white" stroke-linecap="round" stroke-linejoin="round"/>
<path d="M23.3337 8.33333L21.2415 5.64343C20.9258 5.23745 20.4402 5 19.9259 5H13.3337C12.4132 5 11.667 5.74619 11.667 6.66667V8.33333" stroke="white" stroke-linecap="round" stroke-linejoin="round"/>
</svg>
