<svg width="40" height="40" viewBox="0 0 40 40" fill="none" xmlns="http://www.w3.org/2000/svg">
<path d="M20.75 27.4997C20.75 27.2235 20.5262 26.9997 20.25 26.9997C19.9739 26.9997 19.75 27.2235 19.75 27.4997H20.25H20.75ZM19.75 30.9997C19.75 31.2758 19.9739 31.4997 20.25 31.4997C20.5262 31.4997 20.75 31.2758 20.75 30.9997H20.25H19.75ZM11.9167 36.6663H11.4167V37.1663H11.9167V36.6663ZM28.5834 36.6663V37.1663H29.0834V36.6663H28.5834ZM10.25 36.1663C9.97388 36.1663 9.75002 36.3902 9.75002 36.6663C9.75002 36.9425 9.97388 37.1663 10.25 37.1663V36.6663V36.1663ZM30.25 37.1663C30.5262 37.1663 30.75 36.9425 30.75 36.6663C30.75 36.3902 30.5262 36.1663 30.25 36.1663V36.6663V37.1663ZM9.11669 19.4163L8.9643 19.8926C9.15091 19.9523 9.35521 19.8975 9.4869 19.7524C9.6186 19.6073 9.65342 19.3987 9.57599 19.2187L9.11669 19.4163ZM5.90002 17.4163L5.52838 17.7508C5.53424 17.7573 5.54027 17.7637 5.54647 17.7699L5.90002 17.4163ZM8.65002 7.24967L9.10856 7.44904C9.17576 7.29448 9.16057 7.11647 9.06816 6.97552C8.97576 6.83458 8.81856 6.74967 8.65002 6.74967V7.24967ZM8.15002 14.7497H8.65002H8.15002ZM30.8834 19.4163L30.4241 19.2187C30.3466 19.3987 30.3815 19.6073 30.5132 19.7524C30.6448 19.8975 30.8491 19.9523 31.0357 19.8926L30.8834 19.4163ZM34.1 17.4163L34.4536 17.7699C34.4598 17.7637 34.4658 17.7573 34.4717 17.7508L34.1 17.4163ZM31.35 7.24967V6.74967C31.1815 6.74967 31.0243 6.83458 30.9319 6.97552C30.8395 7.11647 30.8243 7.29448 30.8915 7.44904L31.35 7.24967ZM31.85 14.7497H32.35H31.85ZM20.25 27.4997H19.75V30.9997H20.25H20.75V27.4997H20.25ZM11.9167 36.6663V37.1663H28.5834V36.6663V36.1663H11.9167V36.6663ZM28.5834 36.6663H29.0834V34.9997H28.5834H28.0834V36.6663H28.5834ZM28.5834 34.9997H29.0834C29.0834 32.8902 27.3595 31.1663 25.25 31.1663V31.6663V32.1663C26.8072 32.1663 28.0834 33.4425 28.0834 34.9997H28.5834ZM25.25 31.6663V31.1663H15.25V31.6663V32.1663H25.25V31.6663ZM15.25 31.6663V31.1663C13.1405 31.1663 11.4167 32.8902 11.4167 34.9997H11.9167H12.4167C12.4167 33.4425 13.6928 32.1663 15.25 32.1663V31.6663ZM11.9167 34.9997H11.4167V36.6663H11.9167H12.4167V34.9997H11.9167ZM10.25 36.6663V37.1663H30.25V36.6663V36.1663H10.25V36.6663ZM20 26.6663V26.1663C13.8262 26.1663 8.83336 21.1735 8.83336 14.9997H8.33336H7.83336C7.83336 21.7258 13.2739 27.1663 20 27.1663V26.6663ZM8.33336 14.9997H8.83336V9.99967H8.33336H7.83336V14.9997H8.33336ZM8.33336 9.99967H8.83336C8.83336 6.59248 11.5928 3.83301 15 3.83301V3.33301V2.83301C11.0405 2.83301 7.83336 6.0402 7.83336 9.99967H8.33336ZM15 3.33301V3.83301H25V3.33301V2.83301H15V3.33301ZM25 3.33301V3.83301C28.4072 3.83301 31.1667 6.59248 31.1667 9.99967H31.6667H32.1667C32.1667 6.0402 28.9595 2.83301 25 2.83301V3.33301ZM31.6667 9.99967H31.1667V14.9997H31.6667H32.1667V9.99967H31.6667ZM31.6667 14.9997H31.1667C31.1667 21.1735 26.1739 26.1663 20 26.1663V26.6663V27.1663C26.7262 27.1663 32.1667 21.7258 32.1667 14.9997H31.6667ZM9.11669 19.4163L9.26908 18.9401C8.10562 18.5678 7.07241 17.8816 6.25358 17.0628L5.90002 17.4163L5.54647 17.7699C6.46097 18.6844 7.62776 19.4649 8.9643 19.8926L9.11669 19.4163ZM5.90002 17.4163L6.27167 17.0819C4.83102 15.4811 3.90002 13.5953 3.90002 11.4163H3.40002H2.90002C2.90002 13.9041 3.96903 16.0182 5.52838 17.7508L5.90002 17.4163ZM3.40002 11.4163H3.90002C3.90002 9.35915 5.5095 7.74967 7.56669 7.74967V7.24967V6.74967C4.95722 6.74967 2.90002 8.80687 2.90002 11.4163H3.40002ZM7.56669 7.24967V7.74967H8.65002V7.24967V6.74967H7.56669V7.24967ZM8.65002 7.24967L8.19149 7.05031C7.82851 7.88516 7.65002 8.80374 7.65002 9.74967H8.15002H8.65002C8.65002 8.92894 8.80487 8.14752 9.10856 7.44904L8.65002 7.24967ZM8.15002 9.74967H7.65002V14.7497H8.15002H8.65002V9.74967H8.15002ZM8.15002 14.7497H7.65002C7.65002 16.4877 8.01524 18.1214 8.65739 19.6139L9.11669 19.4163L9.57599 19.2187C8.98481 17.8446 8.65002 16.345 8.65002 14.7497H8.15002ZM30.8834 19.4163L31.0357 19.8926C32.3723 19.4649 33.5391 18.6844 34.4536 17.7699L34.1 17.4163L33.7465 17.0628C32.9276 17.8816 31.8944 18.5678 30.731 18.9401L30.8834 19.4163ZM34.1 17.4163L34.4717 17.7508C36.031 16.0182 37.1 13.9041 37.1 11.4163H36.6H36.1C36.1 13.5953 35.169 15.4811 33.7284 17.0819L34.1 17.4163ZM36.6 11.4163H37.1C37.1 8.80687 35.0428 6.74967 32.4334 6.74967V7.24967V7.74967C34.4905 7.74967 36.1 9.35915 36.1 11.4163H36.6ZM32.4334 7.24967V6.74967H31.35V7.24967V7.74967H32.4334V7.24967ZM31.35 7.24967L30.8915 7.44904C31.1952 8.14752 31.35 8.92894 31.35 9.74967H31.85H32.35C32.35 8.80374 32.1715 7.88516 31.8086 7.05031L31.35 7.24967ZM31.85 9.74967H31.35V14.7497H31.85H32.35V9.74967H31.85ZM31.85 14.7497H31.35C31.35 16.345 31.0152 17.8446 30.4241 19.2187L30.8834 19.4163L31.3427 19.6139C31.9848 18.1214 32.35 16.4877 32.35 14.7497H31.85Z" fill="white"/>
</svg>
