<svg width="260" height="70" viewBox="0 0 260 70" fill="none" xmlns="http://www.w3.org/2000/svg">
<g clip-path="url(#clip0_11009_6043)">
<path d="M41.6064 1.11685C40.8386 1.15843 40.1123 1.23118 39.9982 1.26236C39.8841 1.30394 39.4691 1.39748 39.0644 1.47024C37.8401 1.70929 36.9996 1.95874 35.4329 2.56158C34.9453 2.74867 32.9324 3.76725 32.8079 3.88158C32.7352 3.95434 32.6315 4.0167 32.5796 4.0167C32.4655 4.0167 31.293 4.81702 30.4526 5.46143C30.1102 5.72127 29.3839 6.36568 28.8444 6.89576L27.8587 7.85199L29.5707 9.56695C30.5148 10.5232 31.3449 11.2923 31.4279 11.2923C31.5005 11.2923 31.7392 11.1156 31.9571 10.887C32.922 9.88916 34.6651 8.58994 35.7442 8.05986C36.0347 7.92474 36.2837 7.77923 36.2941 7.72726C36.3148 7.68569 36.3771 7.65451 36.429 7.65451C36.4912 7.65451 36.7299 7.56096 36.9685 7.45703C37.3524 7.28033 38.8465 6.78143 39.7907 6.5008C40.4755 6.30332 42.0422 6.15781 43.4222 6.15781C44.8852 6.15781 46.7631 6.35529 46.9499 6.52159C47.0018 6.57356 47.1886 6.61513 47.3649 6.61513C47.5309 6.61513 47.8111 6.68789 47.9667 6.77104C48.1224 6.85419 48.4129 6.94773 48.6204 6.98931C48.8175 7.02049 49.0043 7.09325 49.0354 7.14521C49.0665 7.19718 49.1703 7.23876 49.2637 7.23876C49.3571 7.23876 49.8862 7.46742 50.4361 7.73766C52.8848 8.96412 54.8665 10.6479 56.7342 13.1112C56.7757 13.1632 57.0454 13.6101 57.336 14.0986C57.8444 14.9509 58.0726 15.4082 58.3943 16.1774C58.4773 16.3748 58.581 16.6139 58.6329 16.7074C58.6744 16.801 58.7471 17.0504 58.7782 17.2583C58.8197 17.4662 58.8923 17.6637 58.9442 17.6845C58.9857 17.7156 59.0583 17.9651 59.0998 18.2353C59.1309 18.5056 59.2036 18.7966 59.2555 18.8901C59.297 18.9837 59.38 19.493 59.4422 20.0334C59.4941 20.5739 59.5564 21.0832 59.5771 21.1664C59.5979 21.2599 59.5149 21.3327 59.3903 21.3534C59.2243 21.3742 58.8716 21.0936 58.0311 20.2621C57.4086 19.6489 55.5928 17.8508 53.995 16.2709C50.7163 13.0177 50.239 12.6331 48.6619 11.864C47.1574 11.126 46.7424 10.9909 45.103 10.7207C43.3288 10.4192 40.8386 10.6895 39.3549 11.3547C39.1785 11.4378 38.9918 11.5002 38.9295 11.5002C38.7843 11.5002 37.6844 12.103 36.8855 12.6227C35.6301 13.4438 33.7521 15.4602 33.2748 16.4892C33.2333 16.5723 33.088 16.853 32.9428 17.1024C32.7975 17.3519 32.6834 17.6013 32.6834 17.6637C32.6834 17.7156 32.6211 17.9027 32.5381 18.0794C32.3513 18.5056 32.1023 19.2747 32.0193 19.6281C31.9778 19.8152 31.8844 19.9191 31.7703 19.9191C31.5732 19.9191 31.1996 19.5761 27.2984 15.772C25.742 14.2545 24.4243 12.9969 24.3932 12.9761C24.3517 12.9657 24.2376 13.1528 24.1338 13.3918C24.0301 13.6413 23.8537 14.0259 23.7603 14.2545C23.5735 14.6807 23.1896 15.8136 22.8991 16.801C22.4322 18.412 22.1521 20.4804 22.1521 22.3616C22.1521 23.5985 22.3699 25.9683 22.5152 26.3112C22.5671 26.4256 22.6501 26.779 22.7123 27.0908C22.8369 27.8183 23.0236 28.5563 23.1274 28.7538C23.1792 28.8473 23.2519 29.076 23.2934 29.2735C23.3349 29.4709 23.4075 29.6996 23.4594 29.7931C23.5113 29.8763 23.6462 30.1777 23.7603 30.4687C23.8848 30.7494 24.0508 31.1547 24.1338 31.3522C24.2168 31.5497 24.3309 31.7991 24.3932 31.9031C24.4451 32.007 24.663 32.402 24.8705 32.7865C25.0676 33.1711 25.3063 33.5557 25.3789 33.6492C25.4619 33.7324 25.5242 33.8467 25.5242 33.8883C25.5242 33.9298 25.576 34.013 25.6279 34.0858C25.6902 34.1585 26.0844 34.6886 26.5202 35.2706C28.0973 37.4118 30.5875 39.584 33.0465 40.9768C33.6379 41.3198 34.7689 41.8603 35.2773 42.0577C35.5886 42.1721 35.9413 42.3072 36.0555 42.3592C37.0619 42.7957 38.722 43.2218 40.4132 43.4713C41.8866 43.6896 44.5116 43.7727 45.3417 43.6272C45.7152 43.5544 46.3689 43.4609 46.7943 43.4089C48.1535 43.2322 49.6683 42.8477 50.8927 42.3592C53.0404 41.5069 55.0118 40.374 56.6512 39.0747C57.3152 38.5447 58.9338 36.9336 58.9234 36.8193C58.9131 36.7569 58.1141 35.9358 57.1596 35.0004L55.4165 33.2958L54.8354 33.8779C54.5242 34.2001 53.9431 34.7198 53.5592 35.0108C53.1753 35.3122 52.8225 35.5928 52.7603 35.6448C52.5113 35.8423 51.5671 36.4243 51.1417 36.6426C50.8927 36.7673 50.6125 36.9128 50.5295 36.9544C50.3843 37.048 50.073 37.1831 49.2637 37.5261C49.0562 37.6196 48.8279 37.6924 48.7449 37.6924C48.6619 37.6924 48.5581 37.734 48.4959 37.7859C48.4025 37.8795 47.8111 38.0354 46.8462 38.2225C46.566 38.2744 46.0991 38.3784 45.819 38.4407C45.186 38.5758 42.3639 38.6382 41.6583 38.5239C41.3782 38.4719 40.8179 38.3888 40.4132 38.316C40.019 38.2536 39.5936 38.1601 39.4794 38.1081C39.3653 38.0562 39.1059 37.9834 38.9088 37.9418C38.7116 37.9106 38.5041 37.8379 38.4419 37.7963C38.39 37.7547 38.2032 37.6924 38.0268 37.6508C37.6326 37.5469 36.1488 36.8817 35.5367 36.5283C34.4576 35.8943 33.2644 35.0212 32.4551 34.2728C31.6147 33.5037 30.3696 32.007 29.8923 31.2067C29.747 30.9676 29.6122 30.7598 29.5707 30.7286C29.498 30.6662 28.5331 28.7018 28.3048 28.1301C28.2218 27.9327 28.0662 27.4857 27.9728 27.1427C27.8691 26.7998 27.7342 26.3632 27.6823 26.1657C27.5682 25.7812 27.4333 24.9497 27.3295 23.8895C27.2154 22.819 26.9456 22.6007 31.7496 27.3402C34.9038 30.448 36.1696 31.6224 36.8233 32.059C37.1864 32.298 37.5184 32.4955 37.5599 32.4955C37.6118 32.4955 37.7156 32.5579 37.7882 32.6202C37.8608 32.693 38.0891 32.8281 38.2862 32.9217C38.4834 33.0048 38.8154 33.1607 39.0125 33.2543C39.2097 33.3478 39.5313 33.4621 39.7181 33.4933C39.9048 33.5349 40.0812 33.6076 40.1123 33.6492C40.1435 33.7012 40.2991 33.7428 40.4547 33.7428C40.6104 33.7428 40.9943 33.8155 41.3055 33.9091C42.0941 34.1481 44.7814 34.1377 45.736 33.8987C47.8941 33.3582 49.5023 32.6202 50.7889 31.5601C51.4945 30.978 52.6877 29.6892 53.1338 29.0032C53.6733 28.2029 54.2648 27.122 54.2648 26.9453C54.2648 26.8829 54.327 26.7062 54.41 26.5503C54.493 26.3944 54.5864 26.1138 54.6279 25.9267C54.6694 25.7396 54.742 25.5317 54.7835 25.4797C54.8354 25.4174 54.8873 25.2615 54.9081 25.116C54.9288 24.9601 55.0014 24.8561 55.1156 24.8561C55.3335 24.8561 57.0247 26.436 61.3928 30.7078C62.2955 31.5913 62.6691 31.8407 62.6691 31.5497C62.6691 31.4561 62.8247 31.082 63.2501 30.1361C63.3331 29.9594 63.3954 29.7412 63.3954 29.658C63.3954 29.5645 63.4369 29.4709 63.4887 29.4398C63.5406 29.3982 63.6132 29.1903 63.6547 28.9616C63.6962 28.733 63.7585 28.5251 63.8104 28.4939C63.8519 28.4627 63.9245 28.2237 63.966 27.9638C64.0075 27.6936 64.0698 27.4026 64.1217 27.309C64.2047 27.1324 64.3914 26.1242 64.5367 25.012C64.6612 24.1286 64.6508 20.5947 64.5367 19.6593C63.7585 13.5685 60.3968 8.11183 55.2505 4.62993C54.7939 4.31812 54.327 4.0167 54.2129 3.95434C53.6111 3.61135 51.6501 2.66552 51.2039 2.50961C50.9238 2.40567 50.6436 2.28095 50.5918 2.22898C50.5295 2.18741 50.3946 2.14583 50.2909 2.14583C50.1871 2.14583 49.9485 2.08347 49.7721 2.00032C49.2844 1.78205 47.4687 1.3767 46.2236 1.22079C45.0615 1.06488 43.1213 1.02331 41.6064 1.11685ZM44.9267 15.8656C45.0304 15.9279 45.2068 15.9695 45.3106 15.9695C45.4143 15.9799 45.6841 16.063 45.9123 16.1774C46.1406 16.2917 46.3896 16.3748 46.4623 16.3852C46.5245 16.3852 46.5868 16.4164 46.5868 16.4684C46.5868 16.51 46.7424 16.6035 46.9292 16.6867C47.3961 16.8945 48.9835 18.5263 49.2429 19.0876C49.9692 20.5843 50.0626 20.9689 50.0626 22.3097C50.0626 23.7232 49.9485 24.1701 49.2429 25.6253C48.9005 26.3632 47.3961 27.7976 46.5141 28.2549C46.0991 28.4731 45.6737 28.6498 45.57 28.6498C45.4662 28.6498 45.3209 28.7122 45.2587 28.7746C45.1653 28.8681 44.6673 28.9201 43.7335 28.9409C42.5299 28.972 42.2394 28.9513 41.6064 28.7538C39.7284 28.1717 38.3174 26.9661 37.4769 25.2095C37.2902 24.8353 37.1449 24.4612 37.1449 24.378C37.1449 24.2949 37.0826 24.1597 37.0204 24.087C36.927 24.0038 36.8855 23.5049 36.8855 22.3616C36.8855 21.2183 36.927 20.7194 37.0204 20.6259C37.0826 20.5635 37.1449 20.4284 37.1449 20.3452C37.1449 20.0854 37.7778 18.8486 38.1721 18.36C38.3692 18.1002 38.7428 17.6948 39.0021 17.4454C39.4794 16.9985 40.5585 16.2813 40.7556 16.2813C40.8075 16.2813 40.9943 16.2085 41.1499 16.1254C41.3159 16.0422 41.5442 15.9695 41.6687 15.9695C41.7828 15.9695 41.9177 15.9279 41.98 15.8759C42.0318 15.824 42.2394 15.7616 42.4365 15.7408C43.0487 15.6785 44.7295 15.7616 44.9267 15.8656ZM0.0726298 53.865C0.0311271 53.9066 0 56.5466 0 59.7271V65.5268L0.653667 65.5788C1.00644 65.5995 1.32809 65.5891 1.37996 65.558C1.42147 65.5164 1.44222 62.866 1.43184 59.6647L1.40072 53.8546L0.778175 53.8234C0.425402 53.8027 0.114132 53.8234 0.0726298 53.865ZM14.4222 53.865C14.1109 53.9274 13.9864 53.9794 12.9592 54.4783C11.7349 55.0707 10.7181 56.162 10.0748 57.5652C9.96064 57.8354 9.85689 58.1368 9.85689 58.2408C9.85689 58.3551 9.80501 58.4902 9.74275 58.5526C9.54562 58.7501 9.58712 61.0263 9.79463 61.7019C10.1682 62.866 10.6143 63.5936 11.4132 64.4043C12.3159 65.3085 12.347 65.3293 17.3792 67.6263C17.6075 67.7303 18.0744 67.9381 18.4168 68.094C18.7592 68.2499 19.3299 68.5202 19.693 68.6865C20.0458 68.8632 20.4089 68.9775 20.4816 68.9463C20.5646 68.9151 20.658 68.7488 20.6995 68.5721C20.741 68.3954 20.8136 68.2292 20.8655 68.198C20.9174 68.1564 20.9589 68.0317 20.9589 67.907C20.9589 67.7406 20.8343 67.6263 20.5127 67.4912C20.2741 67.3873 19.7968 67.169 19.4544 67.0027C19.112 66.8468 18.5102 66.5662 18.1055 66.3791C17.7113 66.2024 17.1925 65.9633 16.9642 65.8594C16.736 65.7554 16.2691 65.5476 15.9267 65.3917C15.5843 65.2358 14.9721 64.9447 14.5571 64.7577C14.1524 64.5602 13.7893 64.4043 13.7478 64.4043C13.6233 64.4043 12.7206 63.7391 12.4197 63.4169C12.0047 62.9803 11.4859 62.1592 11.2472 61.546C11.102 61.151 11.0501 60.7665 11.0501 59.9246C11.0501 59.2802 11.102 58.7605 11.1642 58.6773C11.2265 58.5942 11.3095 58.3967 11.351 58.2304C11.4651 57.7835 12.0877 56.8792 12.6272 56.4011C13.7063 55.4449 15.107 55.0499 16.6737 55.2474C17.7528 55.3825 18.6555 55.8294 19.4336 56.6194C20.0043 57.2014 20.5438 58.1472 20.5438 58.5526C20.5438 58.6669 20.5957 58.802 20.6476 58.854C20.824 59.0307 20.7928 60.8704 20.6165 61.3901C20.4608 61.8474 20.1599 62.4814 20.0147 62.6893C19.6619 63.157 19.0394 63.7702 18.6866 63.9885C18.2508 64.2588 18.1159 64.6121 18.4479 64.6121C18.5517 64.6121 18.7177 64.6745 18.8318 64.7473C18.946 64.8304 19.2054 64.9447 19.4025 65.0175L19.7553 65.1318L20.492 64.3731C21.6644 63.157 22.1936 61.8162 22.1936 60.0909C22.1936 58.3135 21.5606 56.7649 20.3467 55.5696C19.7968 55.0291 18.5932 54.2184 18.3338 54.2184C18.2612 54.2184 18.0744 54.1457 17.898 54.0521C17.6594 53.917 17.2444 53.8754 16.1342 53.8442C15.3352 53.8338 14.5674 53.8442 14.4222 53.865ZM33.6172 53.865C33.4719 53.8962 33.2644 53.9586 33.1503 54.0105C33.0361 54.0625 32.7145 54.1976 32.4447 54.312C31.6769 54.6342 30.8676 55.3097 30.2451 56.1412C29.8923 56.609 29.4669 57.4405 29.4669 57.6691C29.4669 57.7523 29.4046 57.877 29.3424 57.9394C29.249 58.0329 29.2075 58.5214 29.2075 59.6024C29.2075 61.2861 29.3113 61.7227 29.9546 62.8452C30.5252 63.8326 32.0193 65.1006 32.8598 65.2981C33.0258 65.3397 33.2125 65.4229 33.2955 65.4852C33.5134 65.6619 36.4809 65.6411 36.9374 65.454C37.7052 65.1526 38.2447 64.8616 38.6494 64.5706C39.1682 64.1756 39.9982 63.3025 40.1642 62.9491C40.2369 62.8036 40.351 62.6165 40.4132 62.5334C40.4755 62.4502 40.6208 62.0969 40.7245 61.7539C41.0047 60.912 41.015 58.1888 40.7453 57.7003C40.6519 57.5236 40.5689 57.3261 40.5689 57.2638C40.5689 57.0455 39.936 56.0685 39.4794 55.5904C39.0125 55.0707 37.9335 54.3431 37.2487 54.0625C36.8959 53.917 36.4394 53.8754 35.3292 53.8442C34.5302 53.8338 33.7624 53.8442 33.6172 53.865ZM36.3045 55.1642C37.4665 55.528 38.556 56.4011 39.0021 57.3053C39.137 57.5756 39.303 57.8978 39.3549 58.0121C39.4172 58.1264 39.4898 58.7709 39.5106 59.4361C39.5521 60.5066 39.5313 60.7457 39.3134 61.3901C38.888 62.6997 37.7467 63.8326 36.4601 64.2276C35.6716 64.477 34.3435 64.4562 33.6379 64.2068C32.4343 63.7598 31.5732 63.0219 31.1166 62.0241C30.9921 61.7643 30.8365 61.4317 30.7742 61.2965C30.712 61.151 30.6601 60.4858 30.6601 59.7375C30.6601 58.2408 30.795 57.7419 31.4487 56.8584C32.0504 56.0373 32.7871 55.5072 33.7728 55.1746C34.2086 55.0291 35.8583 55.0291 36.3045 55.1642ZM48.5063 53.9274C48.4751 54.0001 48.4648 56.6609 48.4751 59.831L48.5063 65.5891L49.2118 65.5995C49.6165 65.5995 49.907 65.558 49.907 65.4956C49.907 65.4436 49.9174 63.4792 49.9381 61.1302C49.9589 57.3157 49.9796 56.8688 50.1249 56.8376C50.2805 56.8064 50.4569 57.0455 51.3077 58.3655C51.3699 58.4591 51.9302 59.3009 52.5528 60.226C53.1857 61.1614 53.7667 62.0345 53.8497 62.1696C53.9327 62.2943 54.4723 63.105 55.0429 63.9677L56.0805 65.5268L56.6927 65.558C57.0247 65.5788 57.336 65.5684 57.3878 65.5372C57.4397 65.506 57.4708 63.0635 57.4605 59.6647L57.4293 53.8546H56.0805L56.0286 58.22C55.9871 61.8578 55.956 62.5854 55.8315 62.5854C55.7485 62.5854 55.6343 62.4918 55.5721 62.3879C55.5098 62.2839 55.0429 61.5772 54.5449 60.8288C54.0469 60.0805 52.781 58.1888 51.7435 56.6298L49.8551 53.8027H49.2014C48.776 53.8027 48.5374 53.8442 48.5063 53.9274ZM65.7299 53.9274C65.6987 54.0001 65.6884 56.6505 65.6988 59.8206L65.7299 65.5891L66.3317 65.5788C66.6533 65.5684 66.975 65.558 67.0268 65.558C67.0995 65.5476 67.1202 63.5728 67.1098 59.6959L67.0787 53.8546L66.425 53.8234C65.9685 53.8027 65.761 53.8338 65.7299 53.9274ZM79.322 53.865C78.7306 53.9586 77.527 54.551 76.8526 55.0811C76.2923 55.528 75.6386 56.1932 75.6386 56.3179C75.6386 56.3595 75.5764 56.4531 75.5141 56.5258C75.3792 56.6609 75.1821 57.0455 74.8708 57.7523C74.6737 58.2096 74.3936 59.5504 74.3936 60.0493C74.3936 60.2572 74.4662 60.7768 74.5596 61.1926C74.8086 62.3567 75.0784 62.9387 75.8254 63.9158C76.697 65.0591 77.029 65.2565 81.9159 67.4704C82.7979 67.8758 83.7317 68.3019 84.4891 68.6657C84.8522 68.832 85.205 68.9775 85.2673 68.9775C85.3295 68.9775 85.4748 68.78 85.5785 68.5306C85.9521 67.6991 85.9624 67.751 85.3088 67.46C84.0533 66.8884 83.5553 66.6597 82.9535 66.3791C81.8329 65.849 81.3556 65.6515 81.2519 65.6515C81.1896 65.6515 81.1377 65.5995 81.1377 65.5476C81.1377 65.4852 81.0859 65.4436 81.0236 65.4436C80.8991 65.4436 80.6086 65.3189 79.0937 64.6017C77.4544 63.8222 76.3961 62.6789 76.0433 61.2861C75.3274 58.4798 77.1431 55.6631 79.9445 55.2474C80.7331 55.1227 82.1753 55.2474 82.5592 55.4553C82.663 55.5176 82.9327 55.6423 83.161 55.7463C83.7317 55.9957 84.79 57.0767 85.0701 57.7003C85.205 57.9809 85.3606 58.3135 85.4229 58.4279C85.4852 58.5422 85.5578 59.2074 85.5785 59.9038L85.62 61.1718L85.2361 61.9825C84.8107 62.8556 84.1986 63.5728 83.5345 63.9885C83.3063 64.134 83.1091 64.3003 83.1091 64.3731C83.1091 64.529 84.1571 65.0279 84.4891 65.0279C84.8315 65.0279 85.9624 63.8118 86.3463 63.0427C86.9274 61.8786 87 61.546 87 59.9765C87 59.0619 86.9585 58.4591 86.8859 58.3655C86.8236 58.2824 86.7406 58.0745 86.6991 57.9082C86.5538 57.3261 85.8898 56.266 85.2361 55.6216C84.5928 54.9668 83.5449 54.2808 83.0261 54.156C82.8705 54.1145 82.6837 54.0417 82.6111 53.9794C82.4658 53.865 79.8927 53.7819 79.322 53.865Z" fill="white"/>
</g>
<defs>
<clipPath id="clip0_11009_6043">
<rect width="87" height="70" fill="white"/>
</clipPath>
</defs>
</svg>
