<svg width="260" height="70" viewBox="0 0 260 70" fill="none" xmlns="http://www.w3.org/2000/svg">
<g clip-path="url(#clip0_10954_7135)">
<path d="M59.4172 24.1847L63.1753 30.6388C63.1753 30.6388 63.1843 30.6388 63.1932 30.6388H66.595C66.595 30.6388 66.6218 30.6206 66.6129 30.6116L62.4896 23.8674C62.4896 23.8674 62.4896 23.8402 62.4985 23.8402C64.529 23.4867 66.506 21.8279 66.506 18.7459C66.506 15.6639 64.3063 13.3252 60.9401 13.3252H53.4773C53.4773 13.3252 53.4595 13.3252 53.4595 13.3433V14.4855C53.4595 15.3104 54.1185 15.9811 54.9289 15.9811H59.5597V15.9993H60.5304C62.2136 15.9993 63.4336 17.0961 63.4336 18.7549C63.4336 20.0693 62.6677 21.0392 61.51 21.3656C61.3052 21.4381 61.0915 21.4743 60.8599 21.4925C60.7531 21.5015 60.6373 21.5106 60.5304 21.5106H57.5026L54.6617 21.4925C54.0027 21.4925 53.4595 22.0273 53.4595 22.7071V30.6388C53.4595 30.6388 53.4595 30.6569 53.4773 30.6569H54.9734C55.7838 30.6569 56.4428 29.9861 56.4428 29.1612V24.2119C56.4428 24.2119 56.4428 24.1938 56.4606 24.1938H59.4083L59.4172 24.1847Z" fill="white"/>
<path d="M72.0454 13.3252H83.7116V14.2045C83.7116 15.1925 82.919 15.9993 81.9483 15.9993H75.0376V20.4954H83.5335V23.1694H75.0376V27.9737H81.8058C82.8656 27.9737 83.7205 28.8439 83.7205 29.9226V30.6478H72.0543V13.3252H72.0454Z" fill="white"/>
<path d="M162.195 13.3252H173.861V14.2045C173.861 15.1925 173.069 15.9993 172.098 15.9993H165.188V20.4954H173.683V23.1694H165.188V27.9737H171.956C173.015 27.9737 173.87 28.8439 173.87 29.9226V30.6478H162.204V13.3252H162.195Z" fill="white"/>
<path d="M198.334 13.3252H210V14.2045C210 15.1925 209.207 15.9993 208.237 15.9993H201.326V20.4954H209.822V23.1694H201.326V27.9737H208.094C209.154 27.9737 210.009 28.8439 210.009 29.9226V30.6478H198.343V13.3252H198.334Z" fill="white"/>
<path d="M88.556 22.0001C88.556 16.6792 92.4566 13.0352 97.3635 13.0352C100.935 13.0352 103.054 14.8572 104.328 16.933L102.564 17.8485C102.146 18.0661 101.62 17.9663 101.318 17.6038C100.418 16.516 99.0021 15.7455 97.3546 15.7455C94.113 15.7455 91.6106 18.3652 91.6106 22.0092C91.6106 25.6532 94.113 28.2729 97.3546 28.2729C99.0021 28.2729 100.427 27.5205 101.318 26.4146C101.62 26.043 102.137 25.9433 102.564 26.1608L104.319 27.0764C103.019 29.1522 100.926 30.9742 97.3546 30.9742C92.4566 30.9742 88.5471 27.3392 88.5471 22.0092L88.556 22.0001Z" fill="white"/>
<path d="M125.71 22.0001C125.71 16.6792 129.61 13.0352 134.517 13.0352C138.088 13.0352 140.208 14.8572 141.481 16.933L139.718 17.8485C139.299 18.0661 138.774 17.9663 138.471 17.6038C137.572 16.516 136.156 15.7455 134.508 15.7455C131.267 15.7455 128.764 18.3652 128.764 22.0092C128.764 25.6532 131.267 28.2729 134.508 28.2729C136.156 28.2729 137.581 27.5205 138.471 26.4146C138.774 26.043 139.29 25.9433 139.718 26.1608L141.472 27.0764C140.172 29.1522 138.079 30.9742 134.508 30.9742C129.61 30.9742 125.701 27.3392 125.701 22.0092L125.71 22.0001Z" fill="white"/>
<path d="M113.589 23.4595L106.981 13.3252H109.6C110.098 13.3252 110.57 13.5881 110.838 14.0141L115.103 20.7582L119.316 14.0232C119.583 13.5881 120.055 13.3343 120.553 13.3343H123.163L116.582 23.4686V30.6659H113.598V23.4686L113.589 23.4595Z" fill="white"/>
<path d="M184.245 23.4595L177.637 13.3252H180.256C180.754 13.3252 181.226 13.5881 181.494 14.0141L185.759 20.7582L189.972 14.0232C190.239 13.5881 190.711 13.3343 191.209 13.3343H193.819L187.238 23.4686V30.6659H184.254V23.4686L184.245 23.4595Z" fill="white"/>
<path d="M146.504 13.3252H148.018C148.828 13.3252 149.487 13.996 149.487 14.8209V27.9737H156.995V30.6478H146.504V13.3252Z" fill="white"/>
<path d="M34.4553 19.2354C33.8764 21.3475 30.8129 23.1151 27.7227 24.0941C27.5446 24.1485 27.3665 24.2029 27.1973 24.2573C27.9275 20.9305 27.037 17.3137 24.5167 14.7031C24.1605 14.3405 23.7954 14.0051 23.4036 13.706L25.808 8.3125L33.2797 15.8815C34.384 16.9965 34.7402 18.1114 34.4553 19.2354Z" fill="white"/>
<path d="M11.1407 30.2853L8.73622 35.6697L1.27343 28.1188C0.169152 26.9948 -0.195972 25.8889 0.0979086 24.7649C0.703481 22.544 4.03413 20.722 7.28463 19.7793C6.58109 23.0788 7.48055 26.6685 9.98299 29.2519C10.0631 29.3335 10.1433 29.4151 10.2323 29.4966C10.3392 29.6054 10.455 29.7051 10.5618 29.8048C10.6598 29.8864 10.7578 29.9771 10.8557 30.0496C10.9537 30.1312 11.0516 30.2128 11.1496 30.2853H11.1407Z" fill="white"/>
<path d="M20.251 16.9871C19.9571 16.8058 19.6454 16.6426 19.3159 16.5248C18.9775 16.3888 18.6213 16.2891 18.2562 16.2256C17.9445 16.1622 17.615 16.135 17.2944 16.135C14.1151 16.1078 11.5147 18.7093 11.488 21.9454C11.4702 24.1028 12.6012 25.9974 14.3021 27.0307C14.596 27.212 14.9077 27.3661 15.2283 27.484C15.5578 27.6109 15.9051 27.7106 16.2613 27.765C16.5641 27.8194 16.8847 27.8466 17.2053 27.8556C20.3846 27.8828 22.985 25.2812 23.0117 22.0452C23.0295 19.915 21.9252 18.0386 20.2599 16.9961L20.251 16.9871ZM17.2231 24.5379C15.8339 24.5289 14.7207 23.3686 14.7296 21.9545C14.7385 20.5404 15.8784 19.4073 17.2677 19.4164C18.6569 19.4255 19.7701 20.5857 19.7612 21.9998C19.7523 23.4139 18.6124 24.547 17.2231 24.5379Z" fill="white"/>
<path d="M24.7215 7.01611C24.7215 7.01611 24.7215 7.05237 24.7126 7.06144C24.6948 7.08863 24.6859 7.12489 24.6681 7.16115C24.6236 7.26086 24.5613 7.39683 24.49 7.55093C24.4544 7.62345 24.4188 7.70503 24.3831 7.78661C24.3831 7.78661 24.3831 7.78661 24.3831 7.79568C24.3653 7.841 24.3475 7.88632 24.3208 7.93165C24.2585 8.06762 24.1872 8.22172 24.116 8.38488C24.0715 8.48459 24.0269 8.5843 23.9735 8.69308C23.9735 8.70214 23.9735 8.71121 23.9646 8.72027C23.8933 8.88344 23.8132 9.05567 23.733 9.2279C23.7063 9.29135 23.6796 9.3548 23.644 9.41825C23.546 9.64487 23.4392 9.88055 23.3323 10.1162C23.2878 10.2069 23.2432 10.3066 23.2076 10.3972C23.1097 10.6148 23.0117 10.8414 22.9048 11.068C22.7623 11.3853 22.6199 11.7116 22.4685 12.038C22.3438 12.3099 22.228 12.5818 22.1033 12.8447C22.0855 12.8719 22.0766 12.9082 22.0588 12.9354C21.9074 13.2707 21.7649 13.5971 21.6135 13.9143L21.1772 14.8933C21.0792 15.1018 20.9902 15.3103 20.9011 15.5007C20.6339 16.0808 20.4113 16.5794 20.2421 16.9601C20.1976 17.0689 20.153 17.1595 20.1085 17.2411C19.9838 17.513 19.9215 17.6671 19.9215 17.6671C19.8948 17.7306 19.8503 17.7578 19.8057 17.7668C19.7434 17.794 19.6721 17.7668 19.6276 17.6671L19.6009 17.5583L19.4406 16.9601L19.3159 16.4978L18.8261 14.6939C18.746 14.5489 18.7104 14.431 18.6391 14.3585C18.5679 14.2769 18.461 14.3223 18.274 14.3585C18.2651 14.3585 17.7129 14.5217 16.8491 14.7574C14.7919 15.3284 11.0071 16.3618 8.89652 16.951C8.63826 17.0235 8.40672 17.087 8.2108 17.1414C7.69428 17.2864 7.37369 17.3771 7.37369 17.3861C3.38403 18.4739 1.40702 19.897 0.489753 20.7582C0.382888 20.867 0.195873 20.7582 0.231495 20.5769L2.27085 12.745C3.4998 7.96791 4.41707 6.81669 7.64085 5.9918C10.9626 5.05814 15.6558 3.74376 15.6558 3.74376C15.9497 3.67124 15.914 3.48088 15.8784 3.29959L15.0324 0.20853C14.9611 0.0634952 15.1749 -0.0815399 15.2817 0.0272364C15.2817 0.0272364 16.8402 1.15126 18.7015 2.49283C20.3312 3.67124 22.2013 5.02188 23.4303 5.89209C24.0002 6.3 24.4277 6.6082 24.6414 6.7623C24.7037 6.82575 24.7394 6.9164 24.7215 7.00705V7.01611Z" fill="white"/>
<path d="M34.3128 23.4049L32.2824 31.2368C31.0445 36.0139 30.1362 37.1651 26.9124 37.99C23.5817 38.9237 18.8975 40.2381 18.8975 40.2381C18.6125 40.3106 18.6392 40.5009 18.6748 40.6822L19.5208 43.7733C19.5921 43.9183 19.3783 44.0634 19.2626 43.9546C19.2626 43.9546 17.7041 42.8306 15.8518 41.489C14.2221 40.3106 12.3697 38.9781 11.1497 38.1079C10.5708 37.6909 10.1345 37.3736 9.92073 37.2286C9.84059 37.1561 9.81387 37.0473 9.84059 36.9385C9.8584 36.9113 9.8673 36.866 9.88511 36.8297C10.2502 36.0139 11.3545 33.5664 12.3965 31.2368C12.4143 31.2006 12.4321 31.1643 12.4499 31.128C13.1979 29.4692 13.9104 27.892 14.3022 27.0127C14.32 26.9674 14.3468 26.922 14.3646 26.8767C14.5249 26.5051 14.6228 26.2966 14.6228 26.2966C14.6495 26.2331 14.6852 26.2059 14.7297 26.1969C14.792 26.1787 14.8633 26.2059 14.9078 26.2966L14.9345 26.4053L15.2106 27.4025L15.2284 27.4659L15.7182 29.2788C15.7983 29.4239 15.8251 29.5417 15.8963 29.6142C15.9765 29.6958 16.0833 29.6505 16.2614 29.6142C16.2614 29.6142 16.8314 29.442 17.6952 29.2063C19.9572 28.5809 24.3209 27.3843 26.2267 26.8586C26.5294 26.777 26.7699 26.7045 26.9302 26.6592C27.0816 26.6048 27.1706 26.5776 27.1706 26.5776C31.1514 25.4898 33.1284 24.0667 34.0457 23.2055C34.1614 23.0967 34.3395 23.2055 34.3039 23.3868L34.3128 23.4049Z" fill="white"/>
</g>
<defs>
<clipPath id="clip0_10954_7135">
<rect width="210" height="44" fill="white"/>
</clipPath>
</defs>
</svg>
