<svg width="260" height="70" viewBox="0 0 260 70" fill="none" xmlns="http://www.w3.org/2000/svg">
<path d="M1.344 19C1.152 19 1.056 18.896 1.056 18.688V3.592C1.056 3.384 1.152 3.28 1.344 3.28H5.928C7.864 3.28 9.272 3.688 10.152 4.504C11.048 5.304 11.496 6.536 11.496 8.2C11.496 9.288 11.312 10.2 10.944 10.936C10.592 11.656 10.024 12.184 9.24 12.52V12.544L12.216 18.592C12.328 18.864 12.264 19 12.024 19H8.52C8.344 19 8.224 18.928 8.16 18.784L5.688 13.168H4.8V18.688C4.8 18.896 4.696 19 4.488 19H1.344ZM4.8 10.12H5.928C6.552 10.12 7.008 9.976 7.296 9.688C7.6 9.4 7.752 8.944 7.752 8.32C7.752 7.696 7.608 7.248 7.32 6.976C7.048 6.688 6.6 6.544 5.976 6.544H4.8V10.12ZM17.7767 19.192C16.1607 19.192 14.9607 18.832 14.1767 18.112C13.3927 17.392 13.0007 16.28 13.0007 14.776V11.464C13.0007 9.96 13.4007 8.816 14.2007 8.032C15.0007 7.232 16.1767 6.832 17.7287 6.832C19.3447 6.832 20.5447 7.224 21.3287 8.008C22.1127 8.776 22.5047 9.952 22.5047 11.536V13.552C22.5047 13.776 22.4007 13.888 22.1927 13.888H16.5767V15.016C16.5767 15.512 16.6647 15.88 16.8407 16.12C17.0327 16.344 17.3367 16.456 17.7527 16.456C18.1207 16.456 18.3927 16.376 18.5687 16.216C18.7607 16.056 18.8487 15.792 18.8327 15.424C18.8327 15.248 18.9367 15.16 19.1447 15.16H22.0007C22.1767 15.16 22.2807 15.264 22.3127 15.472C22.3127 16.72 21.9447 17.656 21.2087 18.28C20.4727 18.888 19.3287 19.192 17.7767 19.192ZM16.5767 11.824H18.9527V11.032C18.9527 10.536 18.8567 10.176 18.6647 9.952C18.4887 9.712 18.2007 9.592 17.8007 9.592C17.3687 9.592 17.0567 9.712 16.8647 9.952C16.6727 10.176 16.5767 10.536 16.5767 11.032V11.824ZM30.1866 19C29.9786 19 29.8746 18.896 29.8746 18.688V11.008C29.8746 10.64 29.8106 10.376 29.6826 10.216C29.5546 10.056 29.3386 9.976 29.0346 9.976C28.7786 9.976 28.5226 10.056 28.2666 10.216C28.0106 10.376 27.7546 10.584 27.4986 10.84L27.0426 9.04C27.4906 8.448 28.0266 7.936 28.6506 7.504C29.2746 7.056 29.9946 6.832 30.8106 6.832C31.7226 6.832 32.3946 7.112 32.8266 7.672C33.2746 8.216 33.4986 9.096 33.4986 10.312V18.688C33.4986 18.896 33.3946 19 33.1866 19H30.1866ZM24.4026 19C24.1946 19 24.0906 18.896 24.0906 18.688V10.168C24.0906 9.64 24.0826 9.144 24.0666 8.68C24.0506 8.2 24.0266 7.776 23.9946 7.408C23.9786 7.168 24.0746 7.048 24.2826 7.048H26.8746C27.0346 7.048 27.1306 7.144 27.1626 7.336C27.1946 7.56 27.2266 7.872 27.2586 8.272C27.3066 8.656 27.3386 9 27.3546 9.304L27.7146 10.336V18.688C27.7146 18.896 27.6106 19 27.4026 19H24.4026ZM39.8319 19.192C38.3279 19.192 37.1519 18.808 36.3039 18.04C35.4559 17.256 35.0319 16.12 35.0319 14.632V11.392C35.0319 9.92 35.4559 8.792 36.3039 8.008C37.1519 7.224 38.3279 6.832 39.8319 6.832C41.3359 6.832 42.5119 7.224 43.3599 8.008C44.2079 8.792 44.6319 9.92 44.6319 11.392V14.632C44.6319 16.12 44.2079 17.256 43.3599 18.04C42.5279 18.808 41.3519 19.192 39.8319 19.192ZM39.8319 16.096C40.2479 16.096 40.5439 15.976 40.7199 15.736C40.9119 15.48 41.0079 15.072 41.0079 14.512V11.536C41.0079 10.96 40.9119 10.552 40.7199 10.312C40.5439 10.072 40.2479 9.952 39.8319 9.952C39.4319 9.952 39.1359 10.072 38.9439 10.312C38.7519 10.552 38.6559 10.96 38.6559 11.536V14.512C38.6559 15.072 38.7519 15.48 38.9439 15.736C39.1359 15.976 39.4319 16.096 39.8319 16.096ZM48.6418 19C48.4658 19 48.3538 18.912 48.3058 18.736L45.6418 7.384C45.5938 7.16 45.6738 7.048 45.8818 7.048H49.0738C49.2658 7.048 49.3698 7.152 49.3858 7.36L50.0818 12.136C50.1778 12.68 50.2498 13.216 50.2978 13.744C50.3458 14.272 50.3938 14.808 50.4418 15.352H50.5138C50.6098 14.824 50.6978 14.304 50.7778 13.792C50.8738 13.264 50.9698 12.736 51.0658 12.208L51.4738 10.024L51.1138 7.696C51.0818 7.44 51.1698 7.312 51.3778 7.312H54.0898C54.2658 7.312 54.3778 7.408 54.4258 7.6L55.0978 12.184C55.1618 12.728 55.2258 13.264 55.2898 13.792C55.3698 14.304 55.4418 14.824 55.5058 15.352H55.5778C55.6258 14.808 55.6818 14.272 55.7458 13.744C55.8098 13.2 55.8738 12.664 55.9378 12.136L56.6578 7.36C56.6738 7.152 56.7778 7.048 56.9698 7.048H60.1858C60.3938 7.048 60.4738 7.16 60.4258 7.384L57.7378 18.736C57.6898 18.912 57.5778 19 57.4018 19H54.1858C53.9778 19 53.8578 18.912 53.8258 18.736L53.4898 17.056C53.4258 16.576 53.3538 16.08 53.2738 15.568C53.2098 15.04 53.1378 14.384 53.0578 13.6H52.9618C52.8978 14.384 52.8258 15.04 52.7458 15.568C52.6818 16.08 52.6018 16.576 52.5058 17.056L52.2178 18.736C52.1698 18.912 52.0578 19 51.8818 19H48.6418ZM66.1048 19.192C64.4888 19.192 63.2888 18.832 62.5048 18.112C61.7208 17.392 61.3288 16.28 61.3288 14.776V11.464C61.3288 9.96 61.7288 8.816 62.5288 8.032C63.3288 7.232 64.5048 6.832 66.0568 6.832C67.6728 6.832 68.8728 7.224 69.6568 8.008C70.4408 8.776 70.8328 9.952 70.8328 11.536V13.552C70.8328 13.776 70.7288 13.888 70.5208 13.888H64.9048V15.016C64.9048 15.512 64.9928 15.88 65.1688 16.12C65.3608 16.344 65.6648 16.456 66.0808 16.456C66.4488 16.456 66.7208 16.376 66.8968 16.216C67.0888 16.056 67.1768 15.792 67.1608 15.424C67.1608 15.248 67.2648 15.16 67.4728 15.16H70.3288C70.5048 15.16 70.6088 15.264 70.6408 15.472C70.6408 16.72 70.2728 17.656 69.5368 18.28C68.8008 18.888 67.6568 19.192 66.1048 19.192ZM64.9048 11.824H67.2808V11.032C67.2808 10.536 67.1848 10.176 66.9928 9.952C66.8168 9.712 66.5288 9.592 66.1288 9.592C65.6968 9.592 65.3848 9.712 65.1928 9.952C65.0008 10.176 64.9048 10.536 64.9048 11.032V11.824ZM75.0816 19.192C74.1536 19.192 73.4656 18.92 73.0176 18.376C72.5696 17.816 72.3456 16.928 72.3456 15.712V10.888C72.3456 9.496 72.6176 8.472 73.1616 7.816C73.7216 7.16 74.5216 6.832 75.5616 6.832C76.0256 6.832 76.5136 6.896 77.0256 7.024C77.5536 7.152 78.0096 7.328 78.3936 7.552L78.4176 10.144C78.1616 10.016 77.9056 9.928 77.6496 9.88C77.4096 9.816 77.1856 9.784 76.9776 9.784C76.6416 9.784 76.3856 9.904 76.2096 10.144C76.0496 10.368 75.9696 10.696 75.9696 11.128V15.088C75.9696 15.424 76.0336 15.672 76.1616 15.832C76.2896 15.992 76.4896 16.072 76.7616 16.072C77.0656 16.072 77.3456 15.992 77.6016 15.832C77.8576 15.672 78.1056 15.448 78.3456 15.16L78.8016 16.984C78.3696 17.592 77.8336 18.112 77.1936 18.544C76.5696 18.976 75.8656 19.192 75.0816 19.192ZM78.9456 19C78.7696 19 78.6656 18.904 78.6336 18.712C78.5696 18.472 78.5216 18.168 78.4896 17.8C78.4736 17.416 78.4576 17.08 78.4416 16.792L78.0816 15.856V2.92C78.0816 2.712 78.1856 2.608 78.3936 2.608H81.4176C81.6096 2.608 81.7056 2.712 81.7056 2.92V15.88C81.7056 16.392 81.7136 16.888 81.7296 17.368C81.7456 17.848 81.7696 18.272 81.8016 18.64C81.8176 18.88 81.7296 19 81.5376 19H78.9456ZM91.7946 19.192C89.9386 19.192 88.6106 18.776 87.8106 17.944C87.0106 17.112 86.6906 15.904 86.8506 14.32C86.8666 14.064 86.9706 13.936 87.1626 13.936H90.2346C90.4266 13.936 90.5066 14.056 90.4746 14.296C90.4586 14.824 90.5626 15.248 90.7866 15.568C91.0106 15.872 91.3706 16.024 91.8666 16.024C92.3626 16.024 92.7226 15.928 92.9466 15.736C93.1706 15.544 93.2826 15.24 93.2826 14.824C93.2826 14.6 93.2426 14.4 93.1626 14.224C93.0986 14.032 92.9866 13.864 92.8266 13.72C92.6666 13.56 92.4506 13.4 92.1786 13.24L89.5866 11.68C88.6106 11.088 87.9146 10.456 87.4986 9.784C87.0826 9.112 86.8826 8.264 86.8986 7.24C86.9146 5.896 87.3146 4.872 88.0986 4.168C88.8986 3.448 90.0986 3.088 91.6986 3.088C93.5066 3.088 94.8346 3.496 95.6826 4.312C96.5306 5.112 96.8906 6.272 96.7626 7.792C96.7466 8.08 96.6426 8.224 96.4506 8.224H93.3306C93.1226 8.224 93.0346 8.08 93.0666 7.792C93.0986 7.376 93.0106 7.016 92.8026 6.712C92.6106 6.392 92.2906 6.232 91.8426 6.232C91.4426 6.232 91.1386 6.32 90.9306 6.496C90.7386 6.672 90.6426 6.944 90.6426 7.312C90.6266 7.68 90.7146 7.984 90.9066 8.224C91.0986 8.448 91.3866 8.664 91.7706 8.872L94.3626 10.384C95.0186 10.784 95.5386 11.2 95.9226 11.632C96.3226 12.048 96.6026 12.512 96.7626 13.024C96.9386 13.52 97.0186 14.136 97.0026 14.872C97.0026 16.296 96.5946 17.376 95.7786 18.112C94.9626 18.832 93.6346 19.192 91.7946 19.192ZM100.283 23.44C100.187 23.44 100.115 23.4 100.067 23.32C100.019 23.256 100.011 23.176 100.043 23.08L101.195 19.024L97.8114 7.408C97.7314 7.168 97.8114 7.048 98.0514 7.048H101.339C101.515 7.048 101.627 7.144 101.675 7.336L102.395 11.152C102.491 11.664 102.579 12.224 102.659 12.832C102.739 13.424 102.811 14 102.875 14.56H102.947C103.027 14 103.107 13.424 103.187 12.832C103.267 12.224 103.339 11.672 103.403 11.176L104.195 7.336C104.211 7.144 104.315 7.048 104.507 7.048H107.771C107.995 7.048 108.075 7.168 108.011 7.408L103.523 23.2C103.491 23.36 103.379 23.44 103.187 23.44H100.283ZM113.034 19.192C111.482 19.192 110.37 18.88 109.698 18.256C109.042 17.632 108.778 16.672 108.906 15.376C108.938 15.152 109.042 15.04 109.218 15.04H111.93C112.122 15.04 112.218 15.16 112.218 15.4C112.202 15.816 112.258 16.128 112.386 16.336C112.514 16.544 112.73 16.648 113.034 16.648C113.338 16.648 113.562 16.584 113.706 16.456C113.85 16.312 113.922 16.088 113.922 15.784C113.922 15.496 113.842 15.264 113.682 15.088C113.538 14.896 113.282 14.696 112.914 14.488L110.706 13.216C110.114 12.864 109.658 12.448 109.338 11.968C109.034 11.488 108.882 10.888 108.882 10.168C108.882 9.08 109.226 8.256 109.914 7.696C110.602 7.12 111.658 6.832 113.082 6.832C114.586 6.832 115.674 7.128 116.346 7.72C117.034 8.312 117.378 9.192 117.378 10.36C117.362 10.568 117.258 10.672 117.066 10.672H114.378C114.266 10.672 114.186 10.64 114.138 10.576C114.09 10.512 114.066 10.424 114.066 10.312C114.098 10.008 114.042 9.784 113.898 9.64C113.77 9.48 113.562 9.4 113.274 9.4C113.018 9.4 112.826 9.456 112.698 9.568C112.57 9.68 112.506 9.848 112.506 10.072C112.506 10.312 112.57 10.512 112.698 10.672C112.826 10.832 113.058 11.008 113.394 11.2L115.506 12.4C116.194 12.8 116.706 13.248 117.042 13.744C117.378 14.24 117.546 14.88 117.546 15.664C117.546 16.832 117.17 17.712 116.418 18.304C115.682 18.896 114.554 19.192 113.034 19.192ZM123.743 19.192C122.335 19.192 121.343 18.864 120.767 18.208C120.191 17.536 119.903 16.408 119.903 14.824V10.12H118.583C118.391 10.12 118.295 10.016 118.295 9.808V7.36C118.295 7.152 118.391 7.048 118.583 7.048H120.023L120.383 4.24C120.431 4.032 120.535 3.928 120.695 3.928H123.239C123.431 3.928 123.527 4.032 123.527 4.24V7.048H125.903C126.127 7.048 126.239 7.152 126.239 7.36V9.808C126.239 10.016 126.127 10.12 125.903 10.12H123.527V14.56C123.527 15.088 123.607 15.48 123.767 15.736C123.927 15.976 124.215 16.096 124.631 16.096C124.823 16.096 125.015 16.072 125.207 16.024C125.415 15.976 125.647 15.904 125.903 15.808C126.143 15.728 126.263 15.816 126.263 16.072V18.472C126.263 18.664 126.175 18.784 125.999 18.832C125.711 18.944 125.367 19.032 124.967 19.096C124.583 19.16 124.175 19.192 123.743 19.192ZM132.081 19.192C130.465 19.192 129.265 18.832 128.481 18.112C127.697 17.392 127.305 16.28 127.305 14.776V11.464C127.305 9.96 127.705 8.816 128.505 8.032C129.305 7.232 130.481 6.832 132.033 6.832C133.649 6.832 134.849 7.224 135.633 8.008C136.417 8.776 136.809 9.952 136.809 11.536V13.552C136.809 13.776 136.705 13.888 136.497 13.888H130.881V15.016C130.881 15.512 130.969 15.88 131.145 16.12C131.337 16.344 131.641 16.456 132.057 16.456C132.425 16.456 132.697 16.376 132.873 16.216C133.065 16.056 133.153 15.792 133.137 15.424C133.137 15.248 133.241 15.16 133.449 15.16H136.305C136.481 15.16 136.585 15.264 136.617 15.472C136.617 16.72 136.249 17.656 135.513 18.28C134.777 18.888 133.633 19.192 132.081 19.192ZM130.881 11.824H133.257V11.032C133.257 10.536 133.161 10.176 132.969 9.952C132.793 9.712 132.505 9.592 132.105 9.592C131.673 9.592 131.361 9.712 131.169 9.952C130.977 10.176 130.881 10.536 130.881 11.032V11.824ZM138.707 19C138.499 19 138.395 18.896 138.395 18.688V10.168C138.395 9.64 138.387 9.144 138.371 8.68C138.355 8.2 138.331 7.776 138.299 7.408C138.283 7.168 138.379 7.048 138.587 7.048H141.179C141.339 7.048 141.435 7.136 141.467 7.312C141.499 7.488 141.523 7.704 141.539 7.96C141.571 8.2 141.595 8.44 141.611 8.68C142.059 8.168 142.539 7.736 143.051 7.384C143.579 7.016 144.211 6.832 144.947 6.832C145.587 6.832 146.091 6.968 146.459 7.24C146.827 7.512 147.107 7.928 147.299 8.488C147.731 8.024 148.203 7.632 148.715 7.312C149.243 6.992 149.827 6.832 150.467 6.832C151.379 6.832 152.051 7.12 152.483 7.696C152.931 8.256 153.155 9.128 153.155 10.312V18.688C153.155 18.896 153.059 19 152.867 19H149.819C149.627 19 149.531 18.896 149.531 18.688V10.936C149.531 10.6 149.475 10.36 149.363 10.216C149.251 10.056 149.067 9.976 148.811 9.976C148.603 9.976 148.395 10.032 148.187 10.144C147.995 10.256 147.795 10.408 147.587 10.6V18.688C147.587 18.896 147.491 19 147.299 19H144.251C144.059 19 143.963 18.896 143.963 18.688V10.936C143.963 10.6 143.907 10.36 143.795 10.216C143.683 10.056 143.499 9.976 143.243 9.976C143.035 9.976 142.827 10.032 142.619 10.144C142.427 10.256 142.227 10.408 142.019 10.6V18.688C142.019 18.896 141.915 19 141.707 19H138.707ZM155.16 19C154.952 19 154.848 18.896 154.848 18.688V7.36C154.848 7.152 154.952 7.048 155.16 7.048H158.16C158.368 7.048 158.472 7.152 158.472 7.36V18.688C158.472 18.896 158.368 19 158.16 19H155.16ZM156.648 5.704C156.024 5.704 155.528 5.552 155.16 5.248C154.808 4.928 154.632 4.496 154.632 3.952V3.472C154.632 2.912 154.808 2.48 155.16 2.176C155.528 1.856 156.024 1.696 156.648 1.696C157.304 1.696 157.8 1.856 158.136 2.176C158.488 2.48 158.664 2.912 158.664 3.472V3.952C158.664 4.496 158.488 4.928 158.136 5.248C157.8 5.552 157.304 5.704 156.648 5.704ZM164.801 19.192C163.249 19.192 162.057 18.8 161.225 18.016C160.409 17.216 160.001 16.056 160.001 14.536V11.416C160.001 9.928 160.417 8.792 161.249 8.008C162.081 7.224 163.257 6.832 164.777 6.832C165.785 6.832 166.641 7.032 167.345 7.432C168.049 7.816 168.569 8.352 168.905 9.04C169.241 9.728 169.361 10.504 169.265 11.368C169.233 11.64 169.121 11.776 168.929 11.776H166.265C166.057 11.776 165.953 11.664 165.953 11.44C165.985 10.896 165.905 10.512 165.713 10.288C165.537 10.064 165.249 9.952 164.849 9.952C164.433 9.952 164.121 10.072 163.913 10.312C163.721 10.552 163.625 10.968 163.625 11.56V14.392C163.625 15.016 163.721 15.456 163.913 15.712C164.105 15.952 164.409 16.072 164.825 16.072C165.241 16.072 165.529 15.96 165.689 15.736C165.865 15.496 165.953 15.12 165.953 14.608C165.953 14.368 166.049 14.248 166.241 14.248H168.953C169.161 14.248 169.265 14.36 169.265 14.584C169.313 16.088 168.961 17.232 168.209 18.016C167.473 18.8 166.337 19.192 164.801 19.192ZM5.472 42.192C3.856 42.192 2.656 41.832 1.872 41.112C1.088 40.392 0.696 39.28 0.696 37.776V34.464C0.696 32.96 1.096 31.816 1.896 31.032C2.696 30.232 3.872 29.832 5.424 29.832C7.04 29.832 8.24 30.224 9.024 31.008C9.808 31.776 10.2 32.952 10.2 34.536V36.552C10.2 36.776 10.096 36.888 9.888 36.888H4.272V38.016C4.272 38.512 4.36 38.88 4.536 39.12C4.728 39.344 5.032 39.456 5.448 39.456C5.816 39.456 6.088 39.376 6.264 39.216C6.456 39.056 6.544 38.792 6.528 38.424C6.528 38.248 6.632 38.16 6.84 38.16H9.696C9.872 38.16 9.976 38.264 10.008 38.472C10.008 39.72 9.64 40.656 8.904 41.28C8.168 41.888 7.024 42.192 5.472 42.192ZM4.272 34.824H6.648V34.032C6.648 33.536 6.552 33.176 6.36 32.952C6.184 32.712 5.896 32.592 5.496 32.592C5.064 32.592 4.752 32.712 4.56 32.952C4.368 33.176 4.272 33.536 4.272 34.032V34.824ZM17.8819 42C17.6739 42 17.5699 41.896 17.5699 41.688V34.008C17.5699 33.64 17.5059 33.376 17.3779 33.216C17.2499 33.056 17.0339 32.976 16.7299 32.976C16.4739 32.976 16.2179 33.056 15.9619 33.216C15.7059 33.376 15.4499 33.584 15.1939 33.84L14.7379 32.04C15.1859 31.448 15.7219 30.936 16.3459 30.504C16.9699 30.056 17.6899 29.832 18.5059 29.832C19.4179 29.832 20.0899 30.112 20.5219 30.672C20.9699 31.216 21.1939 32.096 21.1939 33.312V41.688C21.1939 41.896 21.0899 42 20.8819 42H17.8819ZM12.0979 42C11.8899 42 11.7859 41.896 11.7859 41.688V33.168C11.7859 32.64 11.7779 32.144 11.7619 31.68C11.7459 31.2 11.7219 30.776 11.6899 30.408C11.6739 30.168 11.7699 30.048 11.9779 30.048H14.5699C14.7299 30.048 14.8259 30.144 14.8579 30.336C14.8899 30.56 14.9219 30.872 14.9539 31.272C15.0019 31.656 15.0339 32 15.0499 32.304L15.4099 33.336V41.688C15.4099 41.896 15.3059 42 15.0979 42H12.0979ZM22.6553 42C22.4633 42 22.3673 41.904 22.3673 41.712V41.616C22.3673 41.456 22.3913 41.304 22.4393 41.16L25.4873 35.28C25.6793 34.912 25.8713 34.552 26.0633 34.2C26.2713 33.832 26.4713 33.48 26.6633 33.144V33.096C26.3273 33.112 26.0313 33.12 25.7753 33.12C25.5353 33.12 25.2873 33.12 25.0312 33.12H23.1833C22.9913 33.12 22.8953 33.016 22.8953 32.808V30.36C22.8953 30.152 22.9913 30.048 23.1833 30.048H31.2713C31.4953 30.048 31.6073 30.136 31.6073 30.312V30.408C31.6073 30.584 31.5273 30.824 31.3673 31.128L28.4873 36.696C28.2953 37.048 28.0953 37.416 27.8873 37.8C27.6953 38.168 27.4873 38.536 27.2633 38.904V38.952C27.6153 38.92 27.9033 38.904 28.1273 38.904C28.3673 38.904 28.6473 38.904 28.9673 38.904H30.8633C31.0713 38.904 31.1753 39.016 31.1753 39.24V41.688C31.1753 41.896 31.0713 42 30.8633 42H22.6553ZM34.9163 46.44C34.8203 46.44 34.7483 46.4 34.7003 46.32C34.6523 46.256 34.6443 46.176 34.6763 46.08L35.8283 42.024L32.4443 30.408C32.3643 30.168 32.4443 30.048 32.6843 30.048H35.9723C36.1483 30.048 36.2603 30.144 36.3083 30.336L37.0283 34.152C37.1243 34.664 37.2123 35.224 37.2923 35.832C37.3723 36.424 37.4443 37 37.5083 37.56H37.5803C37.6603 37 37.7403 36.424 37.8203 35.832C37.9003 35.224 37.9723 34.672 38.0363 34.176L38.8283 30.336C38.8443 30.144 38.9483 30.048 39.1403 30.048H42.4043C42.6283 30.048 42.7083 30.168 42.6443 30.408L38.1562 46.2C38.1243 46.36 38.0123 46.44 37.8203 46.44H34.9163ZM44.0901 42C43.8821 42 43.7781 41.896 43.7781 41.688V33.168C43.7781 32.64 43.7701 32.144 43.7541 31.68C43.7381 31.2 43.7141 30.776 43.6821 30.408C43.6661 30.168 43.7621 30.048 43.9701 30.048H46.5621C46.7221 30.048 46.8181 30.136 46.8501 30.312C46.8821 30.488 46.9061 30.704 46.9221 30.96C46.9541 31.2 46.9781 31.44 46.9941 31.68C47.4421 31.168 47.9221 30.736 48.4341 30.384C48.9621 30.016 49.5941 29.832 50.3301 29.832C50.9701 29.832 51.4741 29.968 51.8421 30.24C52.2101 30.512 52.4901 30.928 52.6821 31.488C53.1141 31.024 53.5861 30.632 54.0981 30.312C54.6261 29.992 55.2101 29.832 55.8501 29.832C56.7621 29.832 57.4341 30.12 57.8661 30.696C58.3141 31.256 58.5381 32.128 58.5381 33.312V41.688C58.5381 41.896 58.4421 42 58.2501 42H55.2021C55.0101 42 54.9141 41.896 54.9141 41.688V33.936C54.9141 33.6 54.8581 33.36 54.7461 33.216C54.6341 33.056 54.4501 32.976 54.1941 32.976C53.9861 32.976 53.7781 33.032 53.5701 33.144C53.3781 33.256 53.1781 33.408 52.9701 33.6V41.688C52.9701 41.896 52.8741 42 52.6821 42H49.6341C49.4421 42 49.3461 41.896 49.3461 41.688V33.936C49.3461 33.6 49.2901 33.36 49.1781 33.216C49.0661 33.056 48.8821 32.976 48.6261 32.976C48.4181 32.976 48.2101 33.032 48.0021 33.144C47.8101 33.256 47.6101 33.408 47.4021 33.6V41.688C47.4021 41.896 47.2981 42 47.0901 42H44.0901ZM64.8392 42.192C63.2232 42.192 62.0232 41.832 61.2392 41.112C60.4552 40.392 60.0632 39.28 60.0632 37.776V34.464C60.0632 32.96 60.4632 31.816 61.2632 31.032C62.0632 30.232 63.2392 29.832 64.7912 29.832C66.4072 29.832 67.6072 30.224 68.3912 31.008C69.1752 31.776 69.5672 32.952 69.5672 34.536V36.552C69.5672 36.776 69.4632 36.888 69.2552 36.888H63.6392V38.016C63.6392 38.512 63.7272 38.88 63.9032 39.12C64.0952 39.344 64.3992 39.456 64.8152 39.456C65.1832 39.456 65.4552 39.376 65.6312 39.216C65.8232 39.056 65.9112 38.792 65.8952 38.424C65.8952 38.248 65.9992 38.16 66.2072 38.16H69.0632C69.2392 38.16 69.3432 38.264 69.3752 38.472C69.3752 39.72 69.0072 40.656 68.2712 41.28C67.5352 41.888 66.3912 42.192 64.8392 42.192ZM63.6392 34.824H66.0152V34.032C66.0152 33.536 65.9192 33.176 65.7272 32.952C65.5512 32.712 65.2632 32.592 64.8632 32.592C64.4312 32.592 64.1192 32.712 63.9272 32.952C63.7352 33.176 63.6392 33.536 63.6392 34.032V34.824ZM78.7453 42.192C77.1933 42.192 76.0813 41.88 75.4093 41.256C74.7533 40.632 74.4893 39.672 74.6173 38.376C74.6493 38.152 74.7533 38.04 74.9293 38.04H77.6413C77.8333 38.04 77.9293 38.16 77.9293 38.4C77.9133 38.816 77.9693 39.128 78.0973 39.336C78.2253 39.544 78.4413 39.648 78.7453 39.648C79.0493 39.648 79.2733 39.584 79.4173 39.456C79.5613 39.312 79.6333 39.088 79.6333 38.784C79.6333 38.496 79.5533 38.264 79.3933 38.088C79.2493 37.896 78.9933 37.696 78.6253 37.488L76.4173 36.216C75.8253 35.864 75.3693 35.448 75.0493 34.968C74.7453 34.488 74.5933 33.888 74.5933 33.168C74.5933 32.08 74.9373 31.256 75.6253 30.696C76.3133 30.12 77.3693 29.832 78.7933 29.832C80.2973 29.832 81.3853 30.128 82.0573 30.72C82.7453 31.312 83.0893 32.192 83.0893 33.36C83.0733 33.568 82.9693 33.672 82.7773 33.672H80.0893C79.9773 33.672 79.8973 33.64 79.8493 33.576C79.8013 33.512 79.7773 33.424 79.7773 33.312C79.8093 33.008 79.7533 32.784 79.6093 32.64C79.4813 32.48 79.2733 32.4 78.9853 32.4C78.7293 32.4 78.5373 32.456 78.4093 32.568C78.2813 32.68 78.2173 32.848 78.2173 33.072C78.2173 33.312 78.2813 33.512 78.4093 33.672C78.5373 33.832 78.7693 34.008 79.1053 34.2L81.2173 35.4C81.9053 35.8 82.4173 36.248 82.7533 36.744C83.0893 37.24 83.2573 37.88 83.2573 38.664C83.2573 39.832 82.8813 40.712 82.1293 41.304C81.3933 41.896 80.2653 42.192 78.7453 42.192ZM87.3645 42.192C86.4365 42.192 85.7565 41.912 85.3245 41.352C84.8925 40.792 84.6765 39.912 84.6765 38.712V30.36C84.6765 30.152 84.7805 30.048 84.9885 30.048H87.9885C88.1965 30.048 88.3005 30.152 88.3005 30.36V37.968C88.3005 38.368 88.3565 38.656 88.4685 38.832C88.5805 38.992 88.7565 39.072 88.9965 39.072C89.2685 39.072 89.5405 38.984 89.8125 38.808C90.0845 38.632 90.3485 38.408 90.6045 38.136L91.0365 39.984C90.5885 40.592 90.0445 41.112 89.4045 41.544C88.7805 41.976 88.1005 42.192 87.3645 42.192ZM91.2045 42C91.0285 42 90.9085 41.912 90.8445 41.736C90.8125 41.48 90.7725 41.168 90.7245 40.8C90.6925 40.432 90.6765 40.096 90.6765 39.792L90.3165 38.712V30.36C90.3165 30.152 90.4205 30.048 90.6285 30.048H93.6285C93.8365 30.048 93.9405 30.152 93.9405 30.36V38.88C93.9405 39.392 93.9405 39.888 93.9405 40.368C93.9565 40.832 93.9885 41.264 94.0365 41.664C94.0685 41.888 93.9725 42 93.7485 42H91.2045ZM101.717 42.192C101.285 42.192 100.805 42.128 100.277 42C99.7487 41.888 99.2927 41.728 98.9087 41.52L98.8847 38.832C99.1087 38.96 99.3487 39.064 99.6047 39.144C99.8767 39.224 100.117 39.264 100.325 39.264C100.677 39.264 100.933 39.152 101.093 38.928C101.253 38.688 101.333 38.32 101.333 37.824V34.056C101.333 33.688 101.277 33.416 101.165 33.24C101.053 33.064 100.845 32.976 100.541 32.976C100.285 32.976 100.021 33.056 99.7487 33.216C99.4927 33.376 99.2367 33.584 98.9807 33.84L98.5247 31.92C99.0527 31.376 99.6047 30.896 100.181 30.48C100.773 30.048 101.485 29.832 102.317 29.832C103.197 29.832 103.853 30.12 104.285 30.696C104.733 31.256 104.957 32.152 104.957 33.384V38.016C104.957 39.472 104.685 40.536 104.141 41.208C103.597 41.864 102.789 42.192 101.717 42.192ZM95.9807 46.44C95.7727 46.44 95.6687 46.336 95.6687 46.128V33.144C95.6687 32.632 95.6607 32.144 95.6447 31.68C95.6287 31.216 95.6047 30.792 95.5727 30.408C95.5567 30.168 95.6527 30.048 95.8607 30.048H98.4527C98.6127 30.048 98.7087 30.136 98.7407 30.312C98.7727 30.536 98.8047 30.824 98.8367 31.176C98.8847 31.528 98.9167 31.856 98.9327 32.16L99.2927 33.312V46.128C99.2927 46.336 99.1887 46.44 98.9807 46.44H95.9807ZM112.592 42.192C112.16 42.192 111.68 42.128 111.152 42C110.624 41.888 110.168 41.728 109.784 41.52L109.76 38.832C109.984 38.96 110.224 39.064 110.48 39.144C110.752 39.224 110.992 39.264 111.2 39.264C111.552 39.264 111.808 39.152 111.968 38.928C112.128 38.688 112.208 38.32 112.208 37.824V34.056C112.208 33.688 112.152 33.416 112.04 33.24C111.928 33.064 111.72 32.976 111.416 32.976C111.16 32.976 110.896 33.056 110.624 33.216C110.368 33.376 110.112 33.584 109.856 33.84L109.4 31.92C109.928 31.376 110.48 30.896 111.056 30.48C111.648 30.048 112.36 29.832 113.192 29.832C114.072 29.832 114.728 30.12 115.16 30.696C115.608 31.256 115.832 32.152 115.832 33.384V38.016C115.832 39.472 115.56 40.536 115.016 41.208C114.472 41.864 113.664 42.192 112.592 42.192ZM106.856 46.44C106.648 46.44 106.544 46.336 106.544 46.128V33.144C106.544 32.632 106.536 32.144 106.52 31.68C106.504 31.216 106.48 30.792 106.448 30.408C106.432 30.168 106.528 30.048 106.736 30.048H109.328C109.488 30.048 109.584 30.136 109.616 30.312C109.648 30.536 109.68 30.824 109.712 31.176C109.76 31.528 109.792 31.856 109.808 32.16L110.168 33.312V46.128C110.168 46.336 110.064 46.44 109.856 46.44H106.856ZM117.754 42C117.546 42 117.442 41.896 117.442 41.688V25.92C117.442 25.712 117.546 25.608 117.754 25.608H120.754C120.962 25.608 121.066 25.712 121.066 25.92V41.688C121.066 41.896 120.962 42 120.754 42H117.754ZM127.37 42.192C125.754 42.192 124.554 41.832 123.77 41.112C122.986 40.392 122.594 39.28 122.594 37.776V34.464C122.594 32.96 122.994 31.816 123.794 31.032C124.594 30.232 125.77 29.832 127.322 29.832C128.938 29.832 130.138 30.224 130.922 31.008C131.706 31.776 132.098 32.952 132.098 34.536V36.552C132.098 36.776 131.994 36.888 131.786 36.888H126.17V38.016C126.17 38.512 126.258 38.88 126.434 39.12C126.626 39.344 126.93 39.456 127.346 39.456C127.714 39.456 127.986 39.376 128.162 39.216C128.354 39.056 128.442 38.792 128.426 38.424C128.426 38.248 128.53 38.16 128.738 38.16H131.594C131.77 38.16 131.874 38.264 131.906 38.472C131.906 39.72 131.538 40.656 130.802 41.28C130.066 41.888 128.922 42.192 127.37 42.192ZM126.17 34.824H128.546V34.032C128.546 33.536 128.45 33.176 128.258 32.952C128.082 32.712 127.794 32.592 127.394 32.592C126.962 32.592 126.65 32.712 126.458 32.952C126.266 33.176 126.17 33.536 126.17 34.032V34.824ZM133.996 42C133.788 42 133.684 41.896 133.684 41.688V33.168C133.684 32.64 133.676 32.144 133.66 31.68C133.644 31.2 133.62 30.776 133.588 30.408C133.572 30.168 133.668 30.048 133.876 30.048H136.468C136.628 30.048 136.724 30.136 136.756 30.312C136.788 30.488 136.812 30.704 136.828 30.96C136.86 31.2 136.884 31.44 136.9 31.68C137.348 31.168 137.828 30.736 138.34 30.384C138.868 30.016 139.5 29.832 140.236 29.832C140.876 29.832 141.38 29.968 141.748 30.24C142.116 30.512 142.396 30.928 142.588 31.488C143.02 31.024 143.492 30.632 144.004 30.312C144.532 29.992 145.116 29.832 145.756 29.832C146.668 29.832 147.34 30.12 147.772 30.696C148.22 31.256 148.444 32.128 148.444 33.312V41.688C148.444 41.896 148.348 42 148.156 42H145.108C144.916 42 144.82 41.896 144.82 41.688V33.936C144.82 33.6 144.764 33.36 144.652 33.216C144.54 33.056 144.356 32.976 144.1 32.976C143.892 32.976 143.684 33.032 143.476 33.144C143.284 33.256 143.084 33.408 142.876 33.6V41.688C142.876 41.896 142.78 42 142.588 42H139.54C139.348 42 139.252 41.896 139.252 41.688V33.936C139.252 33.6 139.196 33.36 139.084 33.216C138.972 33.056 138.788 32.976 138.532 32.976C138.324 32.976 138.116 33.032 137.908 33.144C137.716 33.256 137.516 33.408 137.308 33.6V41.688C137.308 41.896 137.204 42 136.996 42H133.996ZM154.745 42.192C153.129 42.192 151.929 41.832 151.145 41.112C150.361 40.392 149.969 39.28 149.969 37.776V34.464C149.969 32.96 150.369 31.816 151.169 31.032C151.969 30.232 153.145 29.832 154.697 29.832C156.313 29.832 157.513 30.224 158.297 31.008C159.081 31.776 159.473 32.952 159.473 34.536V36.552C159.473 36.776 159.369 36.888 159.161 36.888H153.545V38.016C153.545 38.512 153.633 38.88 153.809 39.12C154.001 39.344 154.305 39.456 154.721 39.456C155.089 39.456 155.361 39.376 155.537 39.216C155.729 39.056 155.817 38.792 155.801 38.424C155.801 38.248 155.905 38.16 156.113 38.16H158.969C159.145 38.16 159.249 38.264 159.281 38.472C159.281 39.72 158.913 40.656 158.177 41.28C157.441 41.888 156.297 42.192 154.745 42.192ZM153.545 34.824H155.921V34.032C155.921 33.536 155.825 33.176 155.633 32.952C155.457 32.712 155.169 32.592 154.769 32.592C154.337 32.592 154.025 32.712 153.833 32.952C153.641 33.176 153.545 33.536 153.545 34.032V34.824ZM167.155 42C166.947 42 166.843 41.896 166.843 41.688V34.008C166.843 33.64 166.779 33.376 166.651 33.216C166.523 33.056 166.307 32.976 166.003 32.976C165.747 32.976 165.491 33.056 165.235 33.216C164.979 33.376 164.723 33.584 164.467 33.84L164.011 32.04C164.459 31.448 164.995 30.936 165.619 30.504C166.243 30.056 166.963 29.832 167.779 29.832C168.691 29.832 169.363 30.112 169.795 30.672C170.243 31.216 170.467 32.096 170.467 33.312V41.688C170.467 41.896 170.363 42 170.155 42H167.155ZM161.371 42C161.163 42 161.059 41.896 161.059 41.688V33.168C161.059 32.64 161.051 32.144 161.035 31.68C161.019 31.2 160.995 30.776 160.963 30.408C160.947 30.168 161.043 30.048 161.251 30.048H163.843C164.003 30.048 164.099 30.144 164.131 30.336C164.163 30.56 164.195 30.872 164.227 31.272C164.275 31.656 164.307 32 164.323 32.304L164.683 33.336V41.688C164.683 41.896 164.579 42 164.371 42H161.371ZM177.063 42.192C175.655 42.192 174.663 41.864 174.087 41.208C173.511 40.536 173.223 39.408 173.223 37.824V33.12H171.903C171.711 33.12 171.615 33.016 171.615 32.808V30.36C171.615 30.152 171.711 30.048 171.903 30.048H173.343L173.703 27.24C173.751 27.032 173.855 26.928 174.015 26.928H176.559C176.751 26.928 176.847 27.032 176.847 27.24V30.048H179.223C179.447 30.048 179.559 30.152 179.559 30.36V32.808C179.559 33.016 179.447 33.12 179.223 33.12H176.847V37.56C176.847 38.088 176.927 38.48 177.087 38.736C177.247 38.976 177.535 39.096 177.951 39.096C178.143 39.096 178.335 39.072 178.527 39.024C178.735 38.976 178.967 38.904 179.223 38.808C179.463 38.728 179.583 38.816 179.583 39.072V41.472C179.583 41.664 179.495 41.784 179.319 41.832C179.031 41.944 178.687 42.032 178.287 42.096C177.903 42.16 177.495 42.192 177.063 42.192Z" fill="white"/>
</svg>
