<svg width="121" height="20" viewBox="0 0 121 20" fill="none" xmlns="http://www.w3.org/2000/svg">
<path fill-rule="evenodd" clip-rule="evenodd" d="M34.5117 0.491262C34.7223 -0.163752 35.6405 -0.163755 35.8511 0.491259L37.8162 6.60286C37.9104 6.89577 38.1808 7.09412 38.4859 7.09412H44.8471C45.5289 7.09412 45.8127 7.97455 45.2613 8.37937L40.1135 12.1587C39.867 12.3397 39.7639 12.6602 39.858 12.9527L41.8239 19.0668C42.0345 19.7216 41.2916 20.2658 40.74 19.8608L35.5956 16.0839C35.3487 15.9026 35.0141 15.9026 34.7672 16.0839L29.6228 19.8608C29.0712 20.2658 28.3283 19.7216 28.5389 19.0668L30.5048 12.9527C30.5989 12.6602 30.4958 12.3397 30.2493 12.1587L25.1015 8.37937C24.5501 7.97455 24.8339 7.09412 25.5157 7.09412H31.8769C32.182 7.09412 32.4524 6.89577 32.5466 6.60286L34.5117 0.491262ZM9.70141 0.491305C9.91203 -0.163709 10.8302 -0.163711 11.0408 0.491302L13.0059 6.6029C13.1001 6.89581 13.3705 7.09416 13.6757 7.09416H20.0368C20.7186 7.09416 21.0024 7.97459 20.451 8.37941L15.3032 12.1588C15.0567 12.3397 14.9536 12.6602 15.0477 12.9528L17.0136 19.0668C17.2242 19.7217 16.4814 20.2658 15.9297 19.8608L10.7853 16.0839C10.5384 15.9026 10.2038 15.9026 9.95693 16.0839L4.8125 19.8608C4.26087 20.2658 3.51806 19.7217 3.72862 19.0668L5.69454 12.9528C5.78861 12.6602 5.68549 12.3397 5.43902 12.1588L0.29125 8.37941C-0.260145 7.97459 0.0235819 7.09416 0.705434 7.09416H7.06658C7.3717 7.09416 7.6421 6.89581 7.73628 6.6029L9.70141 0.491305ZM61.474 0.491259C61.2634 -0.163755 60.3452 -0.163752 60.1346 0.491262L58.1695 6.60286C58.0753 6.89577 57.8049 7.09412 57.4998 7.09412H51.1386C50.4568 7.09412 50.173 7.97455 50.7244 8.37937L55.8722 12.1587C56.1187 12.3397 56.2218 12.6602 56.1277 12.9527L54.1618 19.0668C53.9512 19.7216 54.6941 20.2658 55.2457 19.8608L60.3901 16.0839C60.637 15.9026 60.9716 15.9026 61.2185 16.0839L66.3629 19.8608C66.9145 20.2658 67.6574 19.7216 67.4468 19.0668L65.4809 12.9527C65.3868 12.6602 65.4899 12.3397 65.7364 12.1587L70.8842 8.37937C71.4356 7.97455 71.1518 7.09412 70.47 7.09412H64.1088C63.8037 7.09412 63.5333 6.89577 63.4391 6.60286L61.474 0.491259ZM85.0469 0.491262C85.2575 -0.163752 86.1757 -0.163755 86.3863 0.491259L88.3514 6.60286C88.4456 6.89577 88.716 7.09412 89.0211 7.09412H95.3823C96.0641 7.09412 96.3478 7.97455 95.7965 8.37937L90.6487 12.1587C90.4022 12.3397 90.2991 12.6602 90.3932 12.9527L92.3591 19.0668C92.5696 19.7216 91.8268 20.2658 91.2752 19.8608L86.1308 16.0839C85.8839 15.9026 85.5493 15.9026 85.3024 16.0839L80.158 19.8608C79.6064 20.2658 78.8635 19.7216 79.0741 19.0668L81.04 12.9527C81.1341 12.6602 81.031 12.3397 80.7845 12.1587L75.6367 8.37937C75.0853 7.97455 75.3691 7.09412 76.0509 7.09412H82.4121C82.7172 7.09412 82.9876 6.89577 83.0818 6.60286L85.0469 0.491262ZM111.299 0.491259C111.088 -0.163755 110.17 -0.163752 109.959 0.491262L107.994 6.60286C107.9 6.89577 107.629 7.09412 107.324 7.09412H100.963C100.281 7.09412 99.9976 7.97455 100.549 8.37937L105.697 12.1587C105.943 12.3397 106.046 12.6602 105.952 12.9527L103.986 19.0668C103.776 19.7216 104.519 20.2658 105.07 19.8608L110.215 16.0839C110.462 15.9026 110.796 15.9026 111.043 16.0839L116.187 19.8608C116.739 20.2658 117.482 19.7216 117.271 19.0668L115.305 12.9527C115.211 12.6602 115.315 12.3397 115.561 12.1587L120.709 8.37937C121.26 7.97455 120.976 7.09412 120.295 7.09412H113.933C113.628 7.09412 113.358 6.89577 113.264 6.60286L111.299 0.491259Z" fill="#FF3D2E"/>
</svg>
