<svg width="260" height="70" viewBox="0 0 260 70" fill="none" xmlns="http://www.w3.org/2000/svg">
<path d="M5.568 19.192C3.712 19.192 2.384 18.776 1.584 17.944C0.784 17.112 0.464 15.904 0.624 14.32C0.64 14.064 0.744 13.936 0.936 13.936H4.008C4.2 13.936 4.28 14.056 4.248 14.296C4.232 14.824 4.336 15.248 4.56 15.568C4.784 15.872 5.144 16.024 5.64 16.024C6.136 16.024 6.496 15.928 6.72 15.736C6.944 15.544 7.056 15.24 7.056 14.824C7.056 14.6 7.016 14.4 6.936 14.224C6.872 14.032 6.76 13.864 6.6 13.72C6.44 13.56 6.224 13.4 5.952 13.24L3.36 11.68C2.384 11.088 1.688 10.456 1.272 9.784C0.856 9.112 0.656 8.264 0.672 7.24C0.688 5.896 1.088 4.872 1.872 4.168C2.672 3.448 3.872 3.088 5.472 3.088C7.28 3.088 8.608 3.496 9.456 4.312C10.304 5.112 10.664 6.272 10.536 7.792C10.52 8.08 10.416 8.224 10.224 8.224H7.104C6.896 8.224 6.808 8.08 6.84 7.792C6.872 7.376 6.784 7.016 6.576 6.712C6.384 6.392 6.064 6.232 5.616 6.232C5.216 6.232 4.912 6.32 4.704 6.496C4.512 6.672 4.416 6.944 4.416 7.312C4.4 7.68 4.488 7.984 4.68 8.224C4.872 8.448 5.16 8.664 5.544 8.872L8.136 10.384C8.792 10.784 9.312 11.2 9.696 11.632C10.096 12.048 10.376 12.512 10.536 13.024C10.712 13.52 10.792 14.136 10.776 14.872C10.776 16.296 10.368 17.376 9.552 18.112C8.736 18.832 7.408 19.192 5.568 19.192ZM18.3015 19C18.1255 19 18.0135 18.904 17.9655 18.712C17.9335 18.504 17.8935 18.216 17.8455 17.848C17.8135 17.464 17.7815 17.104 17.7495 16.768L17.4135 16.072V10.624C17.4135 10.192 17.3495 9.904 17.2215 9.76C17.0935 9.6 16.8615 9.52 16.5255 9.52C15.8695 9.52 15.5815 9.912 15.6615 10.696C15.6935 10.904 15.5895 11.008 15.3495 11.008H12.6855C12.5095 11.008 12.4055 10.888 12.3735 10.648C12.2775 9.4 12.5975 8.456 13.3335 7.816C14.0695 7.16 15.1815 6.832 16.6695 6.832C18.1895 6.832 19.2935 7.144 19.9815 7.768C20.6855 8.392 21.0375 9.384 21.0375 10.744V15.88C21.0375 16.536 21.0455 17.08 21.0615 17.512C21.0775 17.928 21.1015 18.312 21.1335 18.664C21.1655 18.888 21.0695 19 20.8455 19H18.3015ZM14.5335 19.192C13.7175 19.192 13.0775 18.904 12.6135 18.328C12.1495 17.752 11.9175 16.944 11.9175 15.904C11.9175 14.736 12.2135 13.848 12.8055 13.24C13.4135 12.632 14.4535 12.248 15.9255 12.088L17.6775 11.872L17.6535 13.792L16.6695 13.888C16.1895 13.968 15.8455 14.12 15.6375 14.344C15.4455 14.568 15.3495 14.912 15.3495 15.376C15.3495 15.76 15.4055 16.048 15.5175 16.24C15.6455 16.432 15.8375 16.528 16.0935 16.528C16.3655 16.528 16.6375 16.424 16.9095 16.216C17.1975 16.008 17.5095 15.672 17.8455 15.208L18.1335 17.08C17.5415 17.768 16.9735 18.296 16.4295 18.664C15.8855 19.016 15.2535 19.192 14.5335 19.192ZM28.7312 19C28.5552 19 28.4432 18.904 28.3952 18.712C28.3632 18.504 28.3232 18.216 28.2752 17.848C28.2432 17.464 28.2112 17.104 28.1792 16.768L27.8432 16.072V10.624C27.8432 10.192 27.7792 9.904 27.6512 9.76C27.5232 9.6 27.2912 9.52 26.9552 9.52C26.2992 9.52 26.0112 9.912 26.0912 10.696C26.1232 10.904 26.0192 11.008 25.7792 11.008H23.1152C22.9392 11.008 22.8352 10.888 22.8032 10.648C22.7072 9.4 23.0272 8.456 23.7632 7.816C24.4992 7.16 25.6112 6.832 27.0992 6.832C28.6192 6.832 29.7232 7.144 30.4112 7.768C31.1152 8.392 31.4672 9.384 31.4672 10.744V15.88C31.4672 16.536 31.4752 17.08 31.4912 17.512C31.5072 17.928 31.5312 18.312 31.5632 18.664C31.5952 18.888 31.4992 19 31.2752 19H28.7312ZM24.9632 19.192C24.1472 19.192 23.5072 18.904 23.0432 18.328C22.5792 17.752 22.3472 16.944 22.3472 15.904C22.3472 14.736 22.6432 13.848 23.2352 13.24C23.8432 12.632 24.8832 12.248 26.3552 12.088L28.1072 11.872L28.0832 13.792L27.0992 13.888C26.6192 13.968 26.2752 14.12 26.0672 14.344C25.8752 14.568 25.7792 14.912 25.7792 15.376C25.7792 15.76 25.8352 16.048 25.9472 16.24C26.0752 16.432 26.2672 16.528 26.5232 16.528C26.7952 16.528 27.0672 16.424 27.3392 16.216C27.6272 16.008 27.9392 15.672 28.2752 15.208L28.5632 17.08C27.9712 17.768 27.4032 18.296 26.8592 18.664C26.3152 19.016 25.6832 19.192 24.9632 19.192ZM37.8649 19.192C36.0089 19.192 34.6809 18.776 33.8809 17.944C33.0809 17.112 32.7609 15.904 32.9209 14.32C32.9369 14.064 33.0409 13.936 33.2329 13.936H36.3049C36.4969 13.936 36.5769 14.056 36.5449 14.296C36.5289 14.824 36.6329 15.248 36.8569 15.568C37.0809 15.872 37.4409 16.024 37.9369 16.024C38.4329 16.024 38.7929 15.928 39.0169 15.736C39.2409 15.544 39.3529 15.24 39.3529 14.824C39.3529 14.6 39.3129 14.4 39.2329 14.224C39.1689 14.032 39.0569 13.864 38.8969 13.72C38.7369 13.56 38.5209 13.4 38.2489 13.24L35.6569 11.68C34.6809 11.088 33.9849 10.456 33.5689 9.784C33.1529 9.112 32.9529 8.264 32.9689 7.24C32.9849 5.896 33.3849 4.872 34.1689 4.168C34.9689 3.448 36.1689 3.088 37.7689 3.088C39.5769 3.088 40.9049 3.496 41.7529 4.312C42.6009 5.112 42.9609 6.272 42.8329 7.792C42.8169 8.08 42.7129 8.224 42.5209 8.224H39.4009C39.1929 8.224 39.1049 8.08 39.1369 7.792C39.1689 7.376 39.0809 7.016 38.8729 6.712C38.6809 6.392 38.3609 6.232 37.9129 6.232C37.5129 6.232 37.2089 6.32 37.0009 6.496C36.8089 6.672 36.7129 6.944 36.7129 7.312C36.6969 7.68 36.7849 7.984 36.9769 8.224C37.1689 8.448 37.4569 8.664 37.8409 8.872L40.4329 10.384C41.0889 10.784 41.6089 11.2 41.9929 11.632C42.3929 12.048 42.6729 12.512 42.8329 13.024C43.0089 13.52 43.0889 14.136 43.0729 14.872C43.0729 16.296 42.6649 17.376 41.8489 18.112C41.0329 18.832 39.7049 19.192 37.8649 19.192ZM48.7346 19C48.5426 19 48.4466 18.896 48.4466 18.688V3.592C48.4466 3.384 48.5426 3.28 48.7346 3.28H52.9586C54.8466 3.28 56.2306 3.728 57.1106 4.624C57.9906 5.52 58.4306 6.856 58.4306 8.632C58.4306 10.344 57.9746 11.656 57.0626 12.568C56.1506 13.48 54.7986 13.936 53.0066 13.936H52.1906V18.688C52.1906 18.896 52.0866 19 51.8786 19H48.7346ZM52.1906 10.672H52.9346C53.5266 10.672 53.9666 10.512 54.2546 10.192C54.5426 9.856 54.6866 9.344 54.6866 8.656C54.6866 7.904 54.5426 7.368 54.2546 7.048C53.9826 6.728 53.5506 6.568 52.9586 6.568H52.1906V10.672ZM60.0276 19C59.8196 19 59.7156 18.896 59.7156 18.688V10.168C59.7156 9.64 59.7076 9.144 59.6916 8.68C59.6756 8.216 59.6516 7.792 59.6196 7.408C59.6036 7.168 59.6996 7.048 59.9076 7.048H62.4996C62.6596 7.048 62.7556 7.136 62.7876 7.312C62.8356 7.568 62.8756 7.88 62.9076 8.248C62.9396 8.616 62.9636 8.96 62.9796 9.28L63.3396 10.384V18.688C63.3396 18.896 63.2356 19 63.0276 19H60.0276ZM63.0756 11.848L62.8116 8.848C63.0676 8.496 63.3556 8.176 63.6756 7.888C63.9956 7.584 64.3316 7.336 64.6836 7.144C65.0356 6.936 65.3876 6.832 65.7396 6.832C65.8516 6.832 65.9556 6.84 66.0516 6.856C66.1476 6.872 66.2356 6.896 66.3156 6.928C66.4116 6.96 66.4676 7.008 66.4836 7.072C66.5156 7.136 66.5316 7.216 66.5316 7.312C66.5316 7.728 66.5236 8.2 66.5076 8.728C66.5076 9.256 66.4836 9.752 66.4356 10.216C66.4196 10.424 66.3236 10.52 66.1476 10.504C66.0516 10.488 65.9476 10.472 65.8356 10.456C65.7236 10.44 65.6036 10.432 65.4756 10.432C65.2196 10.432 64.9476 10.488 64.6596 10.6C64.3876 10.712 64.1156 10.872 63.8436 11.08C63.5716 11.288 63.3156 11.544 63.0756 11.848ZM72.2226 19.192C70.7186 19.192 69.5426 18.808 68.6946 18.04C67.8466 17.256 67.4226 16.12 67.4226 14.632V11.392C67.4226 9.92 67.8466 8.792 68.6946 8.008C69.5426 7.224 70.7186 6.832 72.2226 6.832C73.7266 6.832 74.9026 7.224 75.7506 8.008C76.5986 8.792 77.0226 9.92 77.0226 11.392V14.632C77.0226 16.12 76.5986 17.256 75.7506 18.04C74.9186 18.808 73.7426 19.192 72.2226 19.192ZM72.2226 16.096C72.6386 16.096 72.9346 15.976 73.1106 15.736C73.3026 15.48 73.3986 15.072 73.3986 14.512V11.536C73.3986 10.96 73.3026 10.552 73.1106 10.312C72.9346 10.072 72.6386 9.952 72.2226 9.952C71.8226 9.952 71.5266 10.072 71.3346 10.312C71.1426 10.552 71.0466 10.96 71.0466 11.536V14.512C71.0466 15.072 71.1426 15.48 71.3346 15.736C71.5266 15.976 71.8226 16.096 72.2226 16.096ZM79.4228 23.536C79.2948 23.632 79.1748 23.608 79.0628 23.464L77.3107 21.448C77.1507 21.272 77.1507 21.12 77.3107 20.992C77.6147 20.72 77.8548 20.4 78.0308 20.032C78.2228 19.68 78.3588 19.256 78.4388 18.76C78.5348 18.264 78.5828 17.664 78.5828 16.96V7.36C78.5828 7.152 78.6788 7.048 78.8708 7.048H81.8948C82.1028 7.048 82.2068 7.152 82.2068 7.36V16.936C82.2068 18.056 82.1188 19.016 81.9428 19.816C81.7828 20.616 81.5028 21.312 81.1028 21.904C80.7028 22.496 80.1428 23.04 79.4228 23.536ZM80.4548 5.704C79.8308 5.704 79.3348 5.552 78.9668 5.248C78.6148 4.928 78.4388 4.496 78.4388 3.952V3.472C78.4388 2.912 78.6148 2.48 78.9668 2.176C79.3348 1.856 79.8308 1.696 80.4548 1.696C81.1108 1.696 81.6068 1.856 81.9428 2.176C82.2948 2.48 82.4708 2.912 82.4708 3.472V3.952C82.4708 4.496 82.2948 4.928 81.9428 5.248C81.6068 5.552 81.1108 5.704 80.4548 5.704ZM88.5345 19.192C86.9185 19.192 85.7185 18.832 84.9345 18.112C84.1505 17.392 83.7585 16.28 83.7585 14.776V11.464C83.7585 9.96 84.1585 8.816 84.9585 8.032C85.7585 7.232 86.9345 6.832 88.4865 6.832C90.1025 6.832 91.3025 7.224 92.0865 8.008C92.8705 8.776 93.2625 9.952 93.2625 11.536V13.552C93.2625 13.776 93.1585 13.888 92.9505 13.888H87.3345V15.016C87.3345 15.512 87.4225 15.88 87.5985 16.12C87.7905 16.344 88.0945 16.456 88.5105 16.456C88.8785 16.456 89.1505 16.376 89.3265 16.216C89.5185 16.056 89.6065 15.792 89.5905 15.424C89.5905 15.248 89.6945 15.16 89.9025 15.16H92.7585C92.9345 15.16 93.0385 15.264 93.0705 15.472C93.0705 16.72 92.7025 17.656 91.9665 18.28C91.2305 18.888 90.0865 19.192 88.5345 19.192ZM87.3345 11.824H89.7105V11.032C89.7105 10.536 89.6145 10.176 89.4225 9.952C89.2465 9.712 88.9585 9.592 88.5585 9.592C88.1265 9.592 87.8145 9.712 87.6225 9.952C87.4305 10.176 87.3345 10.536 87.3345 11.032V11.824ZM99.5273 19.192C97.9753 19.192 96.7833 18.8 95.9513 18.016C95.1353 17.216 94.7273 16.056 94.7273 14.536V11.416C94.7273 9.928 95.1433 8.792 95.9753 8.008C96.8073 7.224 97.9833 6.832 99.5033 6.832C100.511 6.832 101.367 7.032 102.071 7.432C102.775 7.816 103.295 8.352 103.631 9.04C103.967 9.728 104.087 10.504 103.991 11.368C103.959 11.64 103.847 11.776 103.655 11.776H100.991C100.783 11.776 100.679 11.664 100.679 11.44C100.711 10.896 100.631 10.512 100.439 10.288C100.263 10.064 99.9753 9.952 99.5753 9.952C99.1593 9.952 98.8473 10.072 98.6393 10.312C98.4473 10.552 98.3513 10.968 98.3513 11.56V14.392C98.3513 15.016 98.4473 15.456 98.6393 15.712C98.8313 15.952 99.1353 16.072 99.5513 16.072C99.9673 16.072 100.255 15.96 100.415 15.736C100.591 15.496 100.679 15.12 100.679 14.608C100.679 14.368 100.775 14.248 100.967 14.248H103.679C103.887 14.248 103.991 14.36 103.991 14.584C104.039 16.088 103.687 17.232 102.935 18.016C102.199 18.8 101.063 19.192 99.5273 19.192ZM110.36 19.192C108.952 19.192 107.96 18.864 107.384 18.208C106.808 17.536 106.52 16.408 106.52 14.824V10.12H105.2C105.008 10.12 104.912 10.016 104.912 9.808V7.36C104.912 7.152 105.008 7.048 105.2 7.048H106.64L107 4.24C107.048 4.032 107.152 3.928 107.312 3.928H109.856C110.048 3.928 110.144 4.032 110.144 4.24V7.048H112.52C112.744 7.048 112.856 7.152 112.856 7.36V9.808C112.856 10.016 112.744 10.12 112.52 10.12H110.144V14.56C110.144 15.088 110.224 15.48 110.384 15.736C110.544 15.976 110.832 16.096 111.248 16.096C111.44 16.096 111.632 16.072 111.824 16.024C112.032 15.976 112.264 15.904 112.52 15.808C112.76 15.728 112.88 15.816 112.88 16.072V18.472C112.88 18.664 112.792 18.784 112.616 18.832C112.328 18.944 111.984 19.032 111.584 19.096C111.2 19.16 110.792 19.192 110.36 19.192Z" fill="white"/>
</svg>
