<svg width="210" height="60" viewBox="0 0 210 60" fill="none" xmlns="http://www.w3.org/2000/svg">
<g clip-path="url(#clip0_9596_42726)">
<path fill-rule="evenodd" clip-rule="evenodd" d="M65.9456 21.8643H69.6224V38.4816H65.9456V31.4318H59.7706V38.4816H56.0938V21.8643H59.7706V28.2182H65.9456V21.8643Z" fill="white"/>
<path fill-rule="evenodd" clip-rule="evenodd" d="M78.2067 30.1613C78.2067 30.9761 78.3045 31.7114 78.5009 32.367C78.6973 33.0227 78.9805 33.5861 79.3499 34.0575C79.7184 34.5297 80.1705 34.8927 80.705 35.1483C81.2389 35.4047 81.8515 35.5329 82.5432 35.5329C83.2185 35.5329 83.8276 35.4047 84.37 35.1483C84.9114 34.8927 85.3676 34.5297 85.7363 34.0575C86.1055 33.5861 86.3889 33.0227 86.5853 32.367C86.7817 31.7114 86.8799 30.9761 86.8799 30.1613C86.8799 29.3455 86.7817 28.6062 86.5853 27.9426C86.3889 27.2794 86.1055 26.7123 85.7363 26.2403C85.3676 25.7689 84.9114 25.4047 84.37 25.1495C83.8276 24.8937 83.2185 24.7659 82.5432 24.7659C81.8515 24.7659 81.2389 24.8977 80.705 25.1613C80.1705 25.4251 79.7184 25.793 79.3499 26.2647C78.9805 26.7362 78.6973 27.3035 78.5009 27.9667C78.3045 28.6306 78.2067 29.3619 78.2067 30.1613ZM90.6749 30.1613C90.6749 31.5837 90.4663 32.835 90.0508 33.9134C89.6339 34.9927 89.064 35.8959 88.3417 36.623C87.619 37.3509 86.7585 37.8981 85.7609 38.2655C84.7634 38.6338 83.6906 38.8175 82.5442 38.8175C81.4283 38.8175 80.376 38.6338 79.3859 38.2655C78.396 37.8981 77.5315 37.3509 76.7934 36.623C76.0545 35.8959 75.4738 34.9927 75.0494 33.9134C74.6252 32.835 74.4126 31.5837 74.4126 30.1613C74.4126 28.7383 74.6328 27.4873 75.0728 26.4086C75.5123 25.3293 76.1059 24.4219 76.8523 23.6866C77.5982 22.9513 78.4625 22.4 79.445 22.0322C80.4264 21.6641 81.4599 21.48 82.5442 21.48C83.6594 21.48 84.7119 21.6641 85.7022 22.0322C86.6919 22.4 87.556 22.9513 88.2945 23.6866C89.0328 24.4219 89.6144 25.3293 90.0385 26.4086C90.4631 27.4873 90.6749 28.7383 90.6749 30.1613Z" fill="white"/>
<path fill-rule="evenodd" clip-rule="evenodd" d="M99.9201 35.6284C100.439 35.6284 100.867 35.5848 101.204 35.4963C101.542 35.4088 101.813 35.2891 102.017 35.1362C102.221 34.985 102.363 34.8052 102.442 34.5974C102.521 34.3898 102.56 34.1578 102.56 33.9019C102.56 33.3587 102.308 32.9064 101.805 32.5474C101.303 32.1872 100.439 31.7999 99.2132 31.3835C98.6787 31.1924 98.1444 30.972 97.6103 30.7246C97.0761 30.4772 96.5968 30.1654 96.1727 29.7895C95.7489 29.4139 95.4029 28.9583 95.136 28.422C94.8686 27.887 94.7352 27.2358 94.7352 26.4683C94.7352 25.7008 94.8766 25.0094 95.1594 24.394C95.4424 23.7784 95.8429 23.2554 96.3616 22.8232C96.88 22.3913 97.5081 22.0604 98.2466 21.828C98.9851 21.5967 99.8176 21.48 100.745 21.48C101.845 21.48 102.796 21.6007 103.597 21.8401C104.398 22.0798 105.058 22.3441 105.576 22.6317L104.516 25.5811C104.06 25.3414 103.553 25.1294 102.996 24.9454C102.438 24.7619 101.766 24.6694 100.981 24.6694C100.101 24.6694 99.4684 24.7942 99.0834 25.0416C98.6985 25.2894 98.5056 25.6692 98.5056 26.1803C98.5056 26.4844 98.5768 26.7406 98.7182 26.9478C98.8593 27.1556 99.06 27.3434 99.319 27.5114C99.5784 27.6791 99.8769 27.8312 100.215 27.9667C100.552 28.1028 100.926 28.2424 101.335 28.3862C102.183 28.7064 102.921 29.0219 103.55 29.3338C104.178 29.6456 104.701 30.0094 105.117 30.4248C105.533 30.8403 105.844 31.3282 106.048 31.8878C106.252 32.4478 106.354 33.1267 106.354 33.9254C106.354 35.4762 105.82 36.6792 104.751 37.5343C103.683 38.39 102.072 38.8179 99.9201 38.8179C99.1973 38.8179 98.5452 38.7736 97.9639 38.6858C97.3825 38.5972 96.8681 38.4896 96.4203 38.3618C95.9726 38.234 95.5874 38.0983 95.2651 37.9544C94.9431 37.8103 94.6722 37.6748 94.4521 37.5464L95.4896 34.5732C95.976 34.8455 96.5771 35.089 97.2926 35.3042C98.0071 35.5204 98.8834 35.6284 99.9201 35.6284Z" fill="white"/>
<path fill-rule="evenodd" clip-rule="evenodd" d="M122.552 21.8643V25.0536H117.626V38.4816H113.95V25.0536H109.023V21.8643H122.552Z" fill="white"/>
<path fill-rule="evenodd" clip-rule="evenodd" d="M126.636 38.4819H130.312V21.8643H126.636V38.4819Z" fill="white"/>
<path fill-rule="evenodd" clip-rule="evenodd" d="M146.77 38.4816C145.718 36.5794 144.579 34.7013 143.353 32.8465C142.128 30.9918 140.824 29.2416 139.441 27.5949V38.4816H135.811V21.8643H138.805C139.322 22.3914 139.896 23.0388 140.524 23.8064C141.153 24.5738 141.793 25.3933 142.445 26.2645C143.097 27.1356 143.745 28.0389 144.389 28.9737C145.034 29.9089 145.639 30.8078 146.204 31.6712V21.8643H149.858V38.4816H146.77Z" fill="white"/>
<path fill-rule="evenodd" clip-rule="evenodd" d="M163.322 24.7417C161.61 24.7417 160.371 25.2251 159.61 26.1922C158.848 27.1595 158.467 28.4819 158.467 30.1611C158.467 30.9757 158.56 31.7157 158.75 32.3789C158.938 33.0418 159.221 33.6131 159.598 34.093C159.975 34.5727 160.446 34.9446 161.012 35.2085C161.577 35.4721 162.237 35.6038 162.991 35.6038C163.4 35.6038 163.75 35.5958 164.04 35.5801C164.331 35.5642 164.587 35.5325 164.806 35.4841V29.7055H168.483V37.9302C168.043 38.1062 167.336 38.2937 166.362 38.4931C165.388 38.6926 164.185 38.7933 162.756 38.7933C161.53 38.7933 160.418 38.6011 159.421 38.2178C158.423 37.8335 157.571 37.2746 156.864 36.539C156.157 35.8039 155.611 34.9003 155.226 33.8294C154.84 32.7591 154.648 31.5359 154.648 30.1611C154.648 28.7701 154.861 27.5391 155.286 26.4678C155.709 25.3971 156.289 24.4891 157.029 23.7462C157.767 23.0028 158.635 22.4395 159.633 22.0559C160.631 21.672 161.695 21.4795 162.827 21.4795C163.596 21.4795 164.291 21.5321 164.912 21.6357C165.533 21.74 166.067 21.8597 166.515 21.9959C166.963 22.1313 167.332 22.2711 167.623 22.4153C167.913 22.5592 168.121 22.6715 168.248 22.7513L167.187 25.7482C166.684 25.4766 166.106 25.2413 165.454 25.0411C164.802 24.8413 164.091 24.7417 163.322 24.7417Z" fill="white"/>
<path fill-rule="evenodd" clip-rule="evenodd" d="M173.627 38.4816V21.8643H184.658V25.0054H177.304V28.2662H183.832V31.336H177.304V35.3405H185.201V38.4816H173.627Z" fill="white"/>
<path fill-rule="evenodd" clip-rule="evenodd" d="M194.632 24.8618C194.366 24.8618 194.126 24.8698 193.913 24.8855C193.702 24.902 193.502 24.918 193.312 24.9335V29.4414H194.35C195.732 29.4414 196.721 29.2663 197.319 28.9142C197.916 28.5632 198.214 27.9634 198.214 27.1156C198.214 26.3002 197.912 25.7215 197.307 25.3768C196.702 25.0338 195.811 24.8618 194.632 24.8618ZM194.422 21.6724C196.873 21.6724 198.751 22.1156 200.055 23.0032C201.359 23.8904 202.011 25.2691 202.011 27.1398C202.011 28.3063 201.748 29.2542 201.222 29.9815C200.695 30.7084 199.937 31.2804 198.947 31.6956C199.277 32.1116 199.622 32.5871 199.984 33.1226C200.345 33.6584 200.703 34.218 201.057 34.8015C201.41 35.385 201.752 35.9922 202.081 36.6232C202.411 37.2552 202.718 37.8746 203 38.4818H198.891C198.59 37.9383 198.287 37.387 197.98 36.8274C197.671 36.2682 197.357 35.7243 197.034 35.1964C196.711 34.6687 196.39 34.1698 196.076 33.6983C195.76 33.2262 195.444 32.7987 195.129 32.4144H193.314V38.4818H189.638V22.1036C190.439 21.9446 191.267 21.832 192.123 21.7686C192.98 21.7042 193.746 21.6724 194.422 21.6724Z" fill="white"/>
<path fill-rule="evenodd" clip-rule="evenodd" d="M7.00033 28.728V10.0007L16.2632 15.0406V23.4781L28.5254 23.4843L37.9385 28.728H7.00033ZM31.0329 21.9341V10L40.5454 14.9145V27.5729L31.0329 21.9341ZM31.0327 44.8236V36.4588L18.6761 36.45C18.6876 36.5057 9.10674 31.1224 9.10674 31.1224L40.5454 31.2729V50L31.0327 44.8236ZM7 44.8236L7.00033 32.5857L16.2632 38.0911V49.7377L7 44.8236Z" fill="white"/>
</g>
<defs>
<clipPath id="clip0_9596_42726">
<rect width="196" height="40" fill="white" transform="translate(7 10)"/>
</clipPath>
</defs>
</svg>
