<svg width="383" height="383" viewBox="0 0 383 383" fill="none" xmlns="http://www.w3.org/2000/svg">
<path d="M41.2546 109.542C45.2838 116.136 47.123 122.683 46.0696 130.489C49.0352 127.237 51.0473 124.766 49.7738 120.207C46.7071 109.227 49.9113 99.7352 58.1059 91.798C61.2495 96.4363 61.4827 103.259 59.1204 113.536C65.3816 105.029 72.8992 99.5839 84.0195 102.652C81.7024 110.878 70.5786 120.551 60.3064 117.268C59.5682 117.032 58.2076 117.522 57.6599 118.139C55.9446 120.071 54.4801 122.227 52.1971 125.251C59.2138 121.764 65.4279 120.45 71.715 124.151C66.6338 133.644 58.8771 137.196 48.8135 134.794C47.9791 134.594 46.4912 134.756 46.1419 135.293C44.1653 138.333 42.4434 141.539 40.8609 145.011C46.8508 140.299 53.3164 139.18 60.4078 141.387C58.3779 149.643 48.8619 156.832 40.2071 156.071C36.5695 155.751 34.987 157.045 34.0425 160.102C33.2111 162.793 32.3603 165.477 31.7371 168.383C37.0381 162.605 43.0746 158.8 51.8764 159.936C49.9807 165.904 47.2415 171.219 42.351 174.841C39.2131 177.166 35.3465 178.704 31.5881 179.918C29.4279 180.616 28.3169 181.439 28.0684 183.586C27.7439 186.391 27.3772 189.19 27.3927 192.31C31.6989 184.961 37.8379 180.614 46.6706 179.53C45.2061 189.258 41.5935 197.309 32.8653 202.343C30.7621 203.555 27.236 204.378 26.822 206.005C25.9914 209.269 26.8566 212.964 27.447 216.652C30.6414 208.241 36.3394 202.783 45.1106 199.932C45.534 211.657 41.8464 220.966 31.9598 227.09C29.4786 228.627 28.7565 230.086 29.5852 232.75C30.4236 235.444 31.0039 238.218 32.0253 241.056C33.8349 231.936 38.0937 224.715 46.575 220.33C50.5838 232.884 47.4557 243.252 37.405 250.737C35.8518 251.894 35.4621 252.827 36.3537 254.516C37.8829 257.414 39.284 260.379 41.177 263.346C40.6735 253.689 45.43 246.681 51.6203 240.163C58.7051 250.03 56.9631 262.845 47.0161 274.214C48.2789 275.924 49.5559 277.738 50.9232 279.481C52.228 281.145 53.6268 282.735 55.329 284.33C52.8362 275.539 55.0013 267.863 60.1911 260.76C67.8224 268.301 71.9073 280.756 63.3066 293.655C66.7049 296.646 70.1664 299.691 73.6278 302.737C73.9147 302.61 74.2015 302.482 74.4883 302.355C69.8999 293.981 68.9841 285.55 73.4273 276.964C83.4097 281.952 88.7981 295.27 85.0436 306.151C84.1179 308.833 84.4941 310.231 86.9193 311.511C90.1304 313.206 93.2185 315.133 96.7515 317.189C94.421 312.56 91.5482 308.661 90.5304 304.327C89.4995 299.936 90.303 295.115 90.303 290.23C102.149 294.65 108.613 307.066 106.983 321.72C111.178 323.292 115.491 324.909 119.804 326.526C119.741 326.834 119.677 327.143 119.613 327.451C118.931 327.451 118.212 327.589 117.573 327.423C116.087 327.038 114.577 326.641 113.187 326.009C108.682 323.962 105.088 323.864 100.526 327.313C92.5358 333.352 80.0324 332.126 70.8549 325.867C74.6107 319.711 80.4961 317.764 93.9494 318.653C89.8277 316.034 86.5207 313.857 83.1147 311.848C82.6009 311.545 81.5368 311.845 80.876 312.17C68.2253 318.377 57.3835 316.965 46.9068 307.421C54.1623 301.119 62.2303 301.176 70.9373 303.434C67.8482 300.593 64.7593 297.752 61.7009 294.939C47.1703 300.631 36.3399 297.189 28.1224 284.333C33.9579 280.307 40.6985 280.77 53.3896 286.411C50.5402 282.512 48.2517 279.239 45.7677 276.124C45.3754 275.631 44.0385 275.583 43.2408 275.769C28.9297 279.102 19.2113 268.505 16.023 259.15C22.3002 256.399 28.346 257.86 38.994 265.063C36.9276 260.712 35.2244 257.125 33.5308 253.56C19.4357 254.739 10.5801 243.161 8.98825 231.709C17.5314 231.385 23.7985 235.537 29.5279 242.479C28.5334 238.233 27.8227 234.894 26.9266 231.605C26.7235 230.859 25.9698 229.84 25.3134 229.705C13.0538 227.182 8.60893 218.43 7.18458 207.216C7.1102 206.63 7.03134 206.043 7.00075 205.454C6.98931 205.235 7.11009 205.008 7.2726 204.408C14.567 206.834 20.6256 210.694 24.8511 217.502C24.6991 214.313 24.6554 211.112 24.3216 207.942C24.2347 207.118 23.4094 206.08 22.6399 205.663C11.8581 199.828 7.06869 190.176 9.00656 177.959C14.228 179.624 18.0344 183.462 24.641 193.962C25.091 190.292 25.549 187.208 25.7819 184.107C25.8285 183.487 25.1689 182.572 24.5781 182.182C13.5415 174.889 13.0298 164.401 15.3529 152.862C20.3563 154.613 24.6765 160.678 28.4851 171.369C29.4201 168.09 30.5178 165.399 30.834 162.619C30.9812 161.325 29.8571 159.652 28.8911 158.503C22.3325 150.697 21.4859 138.754 27.2111 130.174C32.4503 135.629 34.9024 142.179 36.1698 149.682C37.292 147.42 38.585 145.221 39.4456 142.864C39.7541 142.019 39.2413 140.668 38.727 139.761C33.3483 130.281 33.9373 120.994 39.4823 111.834C39.8981 111.147 40.4662 110.552 41.2546 109.542Z" fill="#121212"/>
<path d="M323.482 113.351C323.266 108.153 322.923 102.698 322.876 97.2407C322.86 95.4237 323.601 93.6001 324.166 91C329.921 96.3148 333.785 101.912 334.298 109.184C334.543 112.667 334.517 116.519 333.275 119.678C331.302 124.695 334.212 127.303 336.913 130.843C336.95 119.59 338.123 114.793 341.892 109.954C348.76 116.781 350.591 129.436 345.223 137.813C343.091 141.14 343.297 143.486 345.267 146.343C346.043 147.469 346.671 148.696 347.947 150.862C347.976 142.313 350.894 136.028 356.182 130.212C359.582 135.842 360.995 141.775 359.435 147.813C358.41 151.777 356.03 155.51 353.688 158.961C352.641 160.505 352.097 161.5 352.682 163.27C353.567 165.95 354.197 168.715 355.239 172.566C357.079 163.922 360.983 157.739 366.884 152.654C371.904 163.34 368.496 175.642 359.188 181.623C358.366 182.151 357.655 183.595 357.693 184.583C357.806 187.51 358.321 190.421 358.814 194.451C362.152 186.642 367.222 181.608 373.681 177.81C377.439 187.104 370.676 202.263 361.449 205.033C359.217 205.703 358.658 206.653 358.714 208.667C358.793 211.456 358.734 214.248 358.734 217.797C363.049 210.856 368.691 206.583 376.511 204.578C375.587 214.36 372.859 222.702 364.003 227.805C363.696 227.982 363.357 228.257 363.043 228.245C355.735 227.965 355.518 233.606 354.42 238.521C354.216 239.437 353.959 240.341 353.42 242.453C359.224 235.494 365.368 231.224 373.823 231.743C373.108 243.247 363.104 252.992 351.91 253.323C350.919 253.353 349.466 253.835 349.054 254.57C347.282 257.733 345.818 261.069 344.427 264.698C350.963 259.104 358.213 256.603 366.654 258.724C365.133 269.807 351.912 278.523 340.496 275.786C338.048 275.199 336.654 275.414 335.382 277.778C333.899 280.533 331.895 283.009 330.093 285.641C334.254 284.332 338.172 282.433 342.245 282.007C346.31 281.582 350.53 282.632 354.955 283.062C350.333 294.795 336.064 300.627 324.504 296.041C321.781 294.96 320.069 295.087 318.147 297.317C316.235 299.536 313.917 301.405 311.811 303.713C320.459 300.798 328.558 301.109 335.878 307.037C328.282 317.08 314.032 318.737 300.306 311.132C296.655 313.408 292.905 315.745 289.156 318.081C298.231 316.826 306.135 318.09 312.373 325.226C304.281 332.808 288.976 333.025 279.889 325.525C277.794 323.795 276.159 323.702 273.872 324.649C271.148 325.778 268.303 326.625 265.485 327.514C264.822 327.724 264.057 327.611 263.16 326.871C267.438 325.136 271.715 323.401 276.124 321.612C273.454 307.24 280.097 297.586 291.285 290.069C295.146 296.813 293.858 303.998 287.142 316.303C291.022 314.048 294.902 311.793 298.67 309.604C295.211 293.326 298.501 283.586 309.658 276.983C313.319 285.549 313.07 293.892 308.434 302.156C308.725 302.286 309.017 302.415 309.308 302.544C312.624 299.47 315.939 296.396 319.16 293.41C312.41 280.665 313.5 271.061 322.525 261.23C327.37 265.203 329.45 274.639 327.956 284.212C330.507 280.89 333.058 277.567 335.669 274.168C325.469 263.962 325.026 252.8 331.328 240.341C338.242 246.457 342.116 253.549 341.289 262.844C341.571 262.919 341.854 262.994 342.136 263.069C343.773 259.788 345.577 256.571 346.906 253.169C347.166 252.503 345.803 250.832 344.828 250.114C336.916 244.288 332.728 233.92 336.829 220.453C344.968 224.836 349.626 231.463 351.469 240.729C352.387 237.061 353.456 233.418 354.092 229.701C354.213 228.993 352.776 227.728 351.801 227.169C342.219 221.675 337.104 211.434 338.521 200.03C347.312 202.626 352.899 208.31 356.23 216.968C356.456 213.437 356.851 209.903 356.787 206.377C356.771 205.531 355.377 204.339 354.367 203.939C343.453 199.624 338.485 191.095 336.918 179.461C345.92 180.536 352.037 185.1 356.518 192.815C356.039 189.284 355.788 185.696 354.937 182.256C354.692 181.268 352.808 180.312 351.52 180.015C340.835 177.553 335.384 170.08 332.066 160.359C338.38 158.16 343.912 160.476 352.223 168.965C351.605 166.598 351.213 164.824 350.676 163.095C348.641 156.538 348.622 156.571 341.898 156.232C332.352 155.75 327.409 149.326 322.93 141.513C330.516 138.724 336.819 140.254 342.412 145.612C342.656 145.383 342.9 145.154 343.143 144.926C341.196 141.788 339.322 138.6 337.229 135.563C336.872 135.044 335.494 134.846 334.73 135.046C324.145 137.805 317.279 132.625 311.536 124.245C318.448 120.033 324.692 122.038 331.375 125.247C329.101 122.619 326.855 119.964 324.51 117.399C324.247 117.112 323.371 117.178 322.868 117.345C313.864 120.339 302.841 111.754 299.832 102.739C310.801 100.134 317.806 106.013 323.482 113.351Z" fill="#121212"/>
<path d="M156.249 348.208C153.332 342.714 151.267 337.546 144.813 336.368C150.455 334.365 154.264 330.866 156.061 324.977C158.359 330.336 161.26 334.716 167.438 336.218C161.174 337.68 158.499 342.293 156.249 348.208Z" fill="#121212"/>
<path d="M188.837 352.402C185.921 346.907 183.855 341.739 177.402 340.561C183.043 338.559 186.853 335.059 188.649 329.17C190.947 334.529 193.848 338.91 200.026 340.412C193.762 341.873 191.088 346.486 188.837 352.402Z" fill="#121212"/>
<path d="M221.426 348.208C218.509 342.714 216.444 337.546 209.991 336.368C215.632 334.365 219.441 330.866 221.238 324.977C223.536 330.336 226.437 334.716 232.615 336.218C226.351 337.68 223.676 342.293 221.426 348.208Z" fill="#121212"/>
</svg>
