<svg width="210" height="60" viewBox="0 0 210 60" fill="none" xmlns="http://www.w3.org/2000/svg">
<g clip-path="url(#clip0_9596_42708)">
<path d="M83.0601 14.25H78.0067V45.75H83.0601V14.25Z" fill="white"/>
<path d="M100.747 35.7016C100.747 40.5223 96.6826 40.9066 95.4735 40.9066C92.4529 40.9066 91.9033 38.0868 91.9033 36.3858V24.3301H86.8499V36.3606C86.8499 39.3468 87.7898 41.8113 89.4372 43.4544C90.8926 44.9071 93.0732 45.7009 95.4356 45.7009C97.1109 45.7009 99.4834 45.1806 100.747 44.0302V45.7501H105.8V24.3301H100.747V35.7016Z" fill="white"/>
<path d="M115.907 16.77H110.854V24.33H107.064V29.37H110.854V45.75H115.907V29.37H119.697V24.33H115.907V16.77Z" fill="white"/>
<path d="M135.612 39.3456C134.511 40.3321 133.059 40.879 131.464 40.879C127.949 40.879 125.368 38.3048 125.368 34.7705C125.368 31.2362 127.867 28.7704 131.464 28.7704C133.031 28.7704 134.511 29.2908 135.64 30.2773L136.406 30.9351L139.814 27.5381L138.961 26.7708C136.956 24.9652 134.294 23.9521 131.463 23.9521C125.146 23.9521 120.559 28.4982 120.559 34.744C120.559 40.9634 125.256 45.672 131.463 45.672C134.347 45.672 137.037 44.659 139.017 42.8244L139.84 42.0571L136.38 38.6626L135.612 39.3456Z" fill="white"/>
<path d="M157.851 26.1973C156.395 24.7458 154.69 23.952 152.327 23.952C150.652 23.952 148.755 24.4724 147.491 25.6215V14.25H142.438V45.75H147.491V33.9501C147.491 29.1293 150.925 28.7463 152.134 28.7463C155.155 28.7463 155.071 31.5674 155.071 33.2659V45.75H160.125V33.2924C160.125 30.3062 159.499 27.8416 157.851 26.1973Z" fill="white"/>
<path d="M131.297 31.1816C133.316 31.1816 134.952 32.8108 134.952 34.8256C134.952 36.8378 133.316 38.4695 131.297 38.4695C129.28 38.4695 127.645 36.8378 127.645 34.8256C127.646 32.8121 129.281 31.1816 131.297 31.1816Z" fill="white"/>
<path d="M70.9318 37.8383C69.0103 39.8102 66.4002 40.8787 63.6536 40.8787C58.0241 40.8787 53.9308 36.4687 53.9308 30.4156C53.9308 24.3349 58.0241 19.9249 63.6536 19.9249C66.3736 19.9249 68.9547 20.9921 70.9053 22.9375L71.6734 23.7049L75.0517 20.3356L74.3101 19.5683C71.5092 16.6917 67.7191 15.1318 63.6536 15.1318C55.3597 15.1318 49.125 21.7053 49.125 30.4421C49.125 39.1525 55.3875 45.6994 63.6536 45.6994C67.7469 45.6994 71.537 44.1118 74.3379 41.2353L75.0794 40.4679L71.729 37.0445L70.9318 37.8383Z" fill="white"/>
</g>
<defs>
<clipPath id="clip0_9596_42708">
<rect width="111" height="31.5" fill="white" transform="translate(49.125 14.25)"/>
</clipPath>
</defs>
</svg>
