<svg width="160" height="160" viewBox="0 0 160 160" fill="none" xmlns="http://www.w3.org/2000/svg">
<g clip-path="url(#clip0_172_1074)">
<path d="M46.1955 40.7597H75.0333M107.625 131.37H34.6024C32.4288 131.37 30.6665 129.607 30.6665 127.434V52.8516H129.603V127.434C129.603 127.817 129.548 128.187 129.446 128.537M125.666 28.6665H34.6024C32.4287 28.6665 30.6665 30.4287 30.6665 32.6024V52.8505H129.603V32.6024C129.603 30.4287 127.841 28.6665 125.666 28.6665ZM96.7883 40.7597C96.7883 43.2868 94.7398 45.3354 92.2127 45.3354C89.6856 45.3354 87.6369 43.2868 87.6369 40.7597C87.6369 38.2326 89.6856 36.1839 92.2127 36.1839C94.7398 36.1839 96.7883 38.2326 96.7883 40.7597ZM114.073 40.7597C114.073 43.2868 112.024 45.3354 109.497 45.3354C106.97 45.3354 104.921 43.2868 104.921 40.7597C104.921 38.2326 106.97 36.1839 109.497 36.1839C112.024 36.1839 114.073 38.2326 114.073 40.7597Z" stroke="white" stroke-miterlimit="10" stroke-linecap="round" stroke-linejoin="round"/>
<path d="M100.722 112.14C111.907 100.955 111.907 82.8212 100.722 71.6365C89.5376 60.4518 71.4036 60.4518 60.2189 71.6365C49.0343 82.8212 49.0343 100.955 60.2189 112.14C71.4036 123.325 89.5376 123.325 100.722 112.14ZM100.722 112.14L107.766 119.184M107.766 119.184L101.691 125.26C101.642 125.308 101.642 125.387 101.691 125.435L127.137 150.882C130.541 154.286 136.061 154.286 139.465 150.882C142.869 147.478 142.869 141.959 139.465 138.555L114.018 113.108C113.969 113.06 113.891 113.06 113.842 113.108L107.766 119.184Z" stroke="url(#paint0_linear_172_1074)"/>
</g>
<defs>
<linearGradient id="paint0_linear_172_1074" x1="120.093" y1="91.0077" x2="79.5901" y2="131.511" gradientUnits="userSpaceOnUse">
<stop stop-color="#D278FE"/>
<stop offset="1" stop-color="#2D69FB"/>
</linearGradient>
<clipPath id="clip0_172_1074">
<rect width="160" height="160" fill="white"/>
</clipPath>
</defs>
</svg>
