<svg width="160px" height="160px" viewBox="0 0 160 160" fill="none" xmlns="http://www.w3.org/2000/svg" transform="rotate(0) scale(1, 1)">
<path d="M71.5783 88.1339C67.5312 85.9266 62.3564 86.5355 58.9313 89.9606L41.9608 106.931C37.7952 111.097 37.7952 117.85 41.9608 122.016L47.6176 127.673C51.7832 131.839 58.537 131.839 62.7026 127.673L79.6731 110.702C83.2759 107.1 83.7627 101.561 81.1335 97.4349M88.7665 89.8019C95.51 98.179 94.993 110.467 87.2156 118.245L70.2451 135.215C61.9139 143.547 48.4063 143.547 40.0752 135.215L34.4183 129.559C26.0871 121.227 26.0871 107.72 34.4183 99.3887L51.3889 82.4181C58.9962 74.8107 70.9196 74.1498 79.2769 80.4353M83.7811 75.9311C82.2181 72.9649 81.3334 69.5857 81.3334 65.9998V41.9998C81.3334 30.2178 90.8846 20.6665 102.667 20.6665H110.667C122.449 20.6665 132 30.2178 132 41.9998V65.9998C132 77.7819 122.449 87.3332 110.667 87.3332H102.667C99.332 87.3332 96.176 86.568 93.3647 85.2038M92.1183 67.5939C92.0404 67.0739 92 66.5416 92 65.9998V41.9998C92 36.1088 96.7757 31.3332 102.667 31.3332H110.667C116.558 31.3332 121.333 36.1088 121.333 41.9998V65.9998C121.333 71.8909 116.558 76.6665 110.667 76.6665H102.667C102.418 76.6665 102.171 76.658 101.927 76.6413" stroke="#ffffff"/>
<path d="M102.667 76.6666C102.418 76.6666 102.171 76.6581 101.927 76.6414M101.927 76.6414L105.093 73.4754C107.697 70.8719 107.697 66.6508 105.093 64.0473C102.49 61.4439 98.2685 61.4439 95.665 64.0473L92.1183 67.594L83.7811 75.9312L79.2769 80.4355L71.5783 88.134L67.3807 92.3316C64.7772 94.9351 64.7772 99.1562 67.3807 101.76C69.9842 104.363 74.2053 104.363 76.8088 101.76L81.1335 97.435L88.7665 89.802L93.3646 85.2039L101.927 76.6414Z" stroke="url(#paint0_linear_172_1056)"/>
<defs>
<linearGradient id="paint0_linear_172_1056" x1="107.046" y1="82.9035" x2="65.4281" y2="82.9035" gradientUnits="userSpaceOnUse">
<stop stop-color="#f0f569" data-originalstopcolor="#f0f569"/>
<stop offset="1" stop-color="#ffe278" data-originalstopcolor="#ffe278"/>
</linearGradient>
</defs>
</svg>