<svg width="160" height="160" viewBox="0 0 160 160" fill="none" xmlns="http://www.w3.org/2000/svg">
<path d="M87.9383 114.639V101.303C93.7352 98.307 97.7053 92.2689 97.7053 85.2933C97.7053 77.7222 93.0306 71.2518 86.4147 68.583V79.1879C86.4147 82.9061 83.3996 85.9211 79.6815 85.9211C75.9633 85.9211 72.9483 82.9061 72.9483 79.1879V68.583C66.3324 71.2518 61.6577 77.7222 61.6577 85.2933C61.6577 92.2689 65.6278 98.307 71.4247 101.303V114.64" stroke="url(#paint0_linear_172_996)" stroke-miterlimit="10" stroke-linecap="round" stroke-linejoin="round"/>
<path d="M140.033 87.2951V72.0707C140.033 70.4029 138.681 69.0503 137.013 69.0503H132.349C130.948 69.0503 129.762 68.0777 129.409 66.7211C128.201 62.0747 126.355 57.6856 123.975 53.6481C123.28 52.468 123.427 50.9767 124.395 50.0081L127.739 46.6644C128.919 45.4843 128.919 43.5727 127.739 42.3926L116.974 31.6273C115.794 30.4472 113.882 30.4472 112.702 31.6273L109.358 34.971C108.39 35.9396 106.898 36.0878 105.718 35.3913C101.681 33.0122 97.2915 31.1666 92.6451 29.9568C91.2885 29.6039 90.3159 28.4183 90.3159 27.0173V22.3534C90.3159 20.6856 88.9633 19.333 87.2955 19.333H72.0711C70.4033 19.333 69.0508 20.6856 69.0508 22.3534V27.0173C69.0508 28.4183 68.0781 29.6039 66.7215 29.9568C62.0751 31.1652 57.6861 33.0108 53.6486 35.3913C52.4685 36.0864 50.9771 35.9396 50.0085 34.971L46.6648 31.6273C45.4847 30.4472 43.5731 30.4472 42.393 31.6273L31.6277 42.3926C30.4476 43.5727 30.4476 45.4843 31.6277 46.6644L34.9714 50.0081C35.94 50.9767 36.0882 52.468 35.3917 53.6481C33.0126 57.6856 31.167 62.0747 29.9573 66.7211C29.6043 68.0777 28.4188 69.0503 27.0177 69.0503H22.3539C20.6861 69.0503 19.3335 70.4029 19.3335 72.0707V87.2951C19.3335 88.9629 20.6861 90.3154 22.3539 90.3154H27.0177C28.4188 90.3154 29.6043 91.2881 29.9573 92.6447C31.1657 97.2924 33.0113 101.68 35.3917 105.718C36.0869 106.898 35.94 108.389 34.9714 109.358L31.6277 112.701C30.4476 113.881 30.4476 115.793 31.6277 116.973L42.393 127.738C43.5731 128.919 45.4847 128.919 46.6648 127.738L50.0085 124.395C50.9771 123.426 52.4685 123.278 53.6486 123.974C57.6861 126.354 62.0751 128.199 66.7215 129.409C68.0781 129.762 69.0508 130.947 69.0508 132.348V137.012C69.0508 138.68 70.4033 140.033 72.0711 140.033H87.2955C88.9633 140.033 90.3159 138.68 90.3159 137.012V132.348C90.3159 130.947 91.2885 129.762 92.6451 129.409C97.2915 128.201 101.681 126.355 105.718 123.974C106.898 123.279 108.39 123.426 109.358 124.395L112.702 127.738C113.882 128.919 115.794 128.919 116.974 127.738L127.739 116.973C128.919 115.793 128.919 113.881 127.739 112.701L124.395 109.358C123.427 108.389 123.278 106.898 123.975 105.718C126.354 101.68 128.2 97.2911 129.409 92.6447C129.762 91.2881 130.948 90.3154 132.349 90.3154H137.013C138.681 90.3154 140.033 88.9629 140.033 87.2951Z" stroke="white" stroke-miterlimit="10" stroke-linecap="round" stroke-linejoin="round"/>
<path d="M79.6826 115.594C99.5153 115.594 115.593 99.5162 115.593 79.6836C115.593 59.851 99.5153 43.7734 79.6826 43.7734C59.85 43.7734 43.7725 59.851 43.7725 79.6836C43.7725 99.5162 59.85 115.594 79.6826 115.594Z" stroke="white" stroke-miterlimit="10" stroke-linecap="round" stroke-linejoin="round"/>
<defs>
<linearGradient id="paint0_linear_172_996" x1="97.7053" y1="91.6115" x2="61.6577" y2="91.6115" gradientUnits="userSpaceOnUse">
<stop stop-color="#F66979"/>
<stop offset="1" stop-color="#D278FE"/>
</linearGradient>
</defs>
</svg>
