<svg width="160px" height="160px" viewBox="0 0 160 160" fill="none" xmlns="http://www.w3.org/2000/svg" transform="rotate(0) scale(1, 1)">
<path d="M57.2169 41.6553H32.7567C29.7616 41.6553 27.3335 44.0834 27.3335 47.0784V130.695C27.3335 133.69 29.7616 136.118 32.7567 136.118H92.1471C95.1421 136.118 97.5703 133.69 97.5703 130.695V81.0495" stroke="#ffffff" stroke-miterlimit="10" stroke-linecap="round" stroke-linejoin="round"/>
<path d="M89.5748 66.122C98.6261 66.122 105.964 58.784 105.964 49.7322C105.964 40.6805 98.6261 33.3425 89.5748 33.3425C80.5234 33.3425 73.1859 40.6805 73.1859 49.7322C73.1859 58.784 80.5234 66.122 89.5748 66.122Z" stroke="url(#paint0_linear_172_1048)" stroke-miterlimit="10" stroke-linecap="round" stroke-linejoin="round"/>
<path d="M119.293 49.7323C119.293 47.8849 119.116 46.0811 118.793 44.3258L126.465 37.8029L118.832 24.7328L109.87 28.0316C106.95 25.2988 103.481 23.1459 99.6424 21.7639L97.882 11.8589H82.7466L81.0765 21.2517C76.6147 22.5816 72.5938 24.9307 69.2813 28.0316L60.3195 24.7328L52.6858 37.8029L60.3577 44.3258C60.0348 46.0794 59.8577 47.8849 59.8577 49.7323C59.8577 51.5796 60.0348 53.3835 60.3577 55.1388L52.6858 61.6617L60.3195 74.7318L69.2813 71.433C72.2015 74.1658 75.6702 76.3187 79.5087 77.7007L81.2691 87.6057H96.4046L98.0748 78.2129C102.537 76.883 106.557 74.5339 109.87 71.433L118.832 74.7318L126.465 61.6617L118.793 55.1388C119.116 53.3835 119.293 51.5796 119.293 49.7323Z" stroke="url(#paint1_linear_172_1048)" stroke-miterlimit="10" stroke-linecap="round" stroke-linejoin="round"/>
<defs>
<linearGradient id="paint0_linear_172_1048" x1="126.465" y1="49.7323" x2="52.6858" y2="49.7323" gradientUnits="userSpaceOnUse">
<stop stop-color="#f0f569" data-originalstopcolor="#f0f569"/>
<stop offset="1" stop-color="#ffe278" data-originalstopcolor="#ffe278"/>
</linearGradient>
<linearGradient id="paint1_linear_172_1048" x1="126.465" y1="49.7323" x2="52.6858" y2="49.7323" gradientUnits="userSpaceOnUse">
<stop stop-color="#f0f569" data-originalstopcolor="#f0f569"/>
<stop offset="1" stop-color="#ffe278" data-originalstopcolor="#ffe278"/>
</linearGradient>
</defs>
</svg>