<svg width="160px" height="160px" viewBox="0 0 160 160" fill="none" xmlns="http://www.w3.org/2000/svg" transform="rotate(0) scale(1, 1)">
<path d="M65.3333 44L65.6107 43.584L65.4331 43.4656L65.2248 43.5119L65.3333 44ZM95.3333 64L95.056 64.416L95.4298 64.6652L95.7174 64.3201L95.3333 64ZM125.333 28L119.915 29.9931L124.35 33.6892L125.333 28ZM35.4418 51.1548L65.4418 44.4881L65.2248 43.5119L35.2248 50.1786L35.4418 51.1548ZM65.056 44.416L95.056 64.416L95.6107 63.584L65.6107 43.584L65.056 44.416ZM95.7174 64.3201L122.837 31.7771L122.068 31.1369L94.9492 63.6799L95.7174 64.3201Z" fill="url(#paint0_linear_172_1063)"/>
<path d="M27.3333 74.0002C27.3333 69.5819 30.915 66.0002 35.3333 66.0002C39.7516 66.0002 43.3333 69.5819 43.3333 74.0002V124.667C43.3333 129.085 39.7516 132.667 35.3333 132.667C30.915 132.667 27.3333 129.085 27.3333 124.667V74.0002Z" stroke="#ffffff"/>
<path d="M57.3333 67.3335C57.3333 62.9152 60.915 59.3335 65.3333 59.3335C69.7516 59.3335 73.3333 62.9152 73.3333 67.3335V124.667C73.3333 129.085 69.7516 132.667 65.3333 132.667C60.915 132.667 57.3333 129.085 57.3333 124.667V67.3335Z" stroke="#ffffff"/>
<path d="M87.3333 87.3335C87.3333 82.9152 90.915 79.3335 95.3333 79.3335C99.7516 79.3335 103.333 82.9152 103.333 87.3335V124.667C103.333 129.085 99.7516 132.667 95.3333 132.667C90.915 132.667 87.3333 129.085 87.3333 124.667V87.3335Z" stroke="#ffffff"/>
<path d="M117.333 51.3335C117.333 46.9152 120.915 43.3335 125.333 43.3335C129.752 43.3335 133.333 46.9152 133.333 51.3335V124.667C133.333 129.085 129.752 132.667 125.333 132.667C120.915 132.667 117.333 129.085 117.333 124.667V51.3335Z" stroke="#ffffff"/>
<defs>
<linearGradient id="paint0_linear_172_1063" x1="125.333" y1="46" x2="35.3333" y2="46" gradientUnits="userSpaceOnUse">
<stop stop-color="#f0f569" data-originalstopcolor="#f0f569"/>
<stop offset="1" stop-color="#ffe278" data-originalstopcolor="#ffe278"/>
</linearGradient>
</defs>
</svg>