<svg width="160" height="160" viewBox="0 0 160 160" fill="none" xmlns="http://www.w3.org/2000/svg">
<path d="M124.529 65.5037C124.529 90.0627 80.061 127.951 80.061 127.951C80.061 127.951 35.5935 90.0627 35.5935 65.5037C35.5935 40.9446 55.5019 21.0361 80.061 21.0361C104.619 21.0361 124.529 40.9446 124.529 65.5037Z" stroke="white" stroke-miterlimit="10" stroke-linecap="round" stroke-linejoin="round"/>
<path d="M80.0611 88.42C93.1006 88.42 103.671 77.8493 103.671 64.8098C103.671 51.7703 93.1006 41.1997 80.0611 41.1997C67.0216 41.1997 56.4509 51.7703 56.4509 64.8098C56.4509 77.8493 67.0216 88.42 80.0611 88.42Z" stroke="url(#paint0_linear_172_1005)" stroke-miterlimit="10" stroke-linecap="round" stroke-linejoin="round"/>
<path d="M91.9718 116.838C110.824 118.185 124.667 122.65 124.667 127.951C124.667 134.317 104.696 139.478 80.061 139.478C55.4258 139.478 35.4556 134.317 35.4556 127.951C35.4556 122.65 49.2978 118.184 68.1503 116.838" stroke="white" stroke-miterlimit="10" stroke-linecap="round" stroke-linejoin="round"/>
<path d="M87.7478 69.4115C87.1287 69.4115 86.5598 69.286 86.0411 69.0351C85.5308 68.7757 85.0916 68.4369 84.7235 68.0186C84.3554 67.592 84.071 67.1068 83.8702 66.563C83.6694 66.0192 83.569 65.4629 83.569 64.894C83.569 64.3 83.6736 63.7312 83.8828 63.1874C84.1003 62.6436 84.3973 62.1626 84.7737 61.7443C85.1502 61.326 85.5936 60.9955 86.1039 60.7529C86.6142 60.502 87.1663 60.3765 87.7603 60.3765C88.3794 60.3765 88.9441 60.5103 89.4544 60.778C89.9731 61.0374 90.4123 61.3804 90.772 61.807C91.1401 62.2337 91.4245 62.7189 91.6253 63.2627C91.8261 63.7981 91.9265 64.346 91.9265 64.9065C91.9265 65.5005 91.8177 66.0694 91.6002 66.6132C91.3911 67.1569 91.0983 67.638 90.7218 68.0563C90.3537 68.4662 89.9145 68.7966 89.4042 69.0476C88.8939 69.2902 88.3417 69.4115 87.7478 69.4115ZM84.4475 64.894C84.4475 65.3792 84.5269 65.8477 84.6859 66.2995C84.8448 66.7428 85.0707 67.1402 85.3635 67.4916C85.6563 67.8346 86.0035 68.1107 86.4051 68.3198C86.8066 68.5206 87.2542 68.621 87.7478 68.621C88.2497 68.621 88.7057 68.5122 89.1156 68.2947C89.5255 68.0772 89.8727 67.7928 90.1571 67.4414C90.4416 67.09 90.6591 66.6926 90.8097 66.2493C90.9686 65.8059 91.0481 65.3541 91.0481 64.894C91.0481 64.4088 90.9644 63.9445 90.7971 63.5011C90.6382 63.0493 90.4123 62.652 90.1195 62.309C89.8267 61.966 89.4795 61.6941 89.0779 61.4933C88.6764 61.2842 88.233 61.1796 87.7478 61.1796C87.2458 61.1796 86.7899 61.2883 86.38 61.5058C85.97 61.715 85.6229 61.9952 85.3384 62.3466C85.054 62.698 84.8323 63.0954 84.6733 63.5387C84.5228 63.9821 84.4475 64.4339 84.4475 64.894Z" fill="url(#paint1_linear_172_1005)"/>
<path d="M82.4305 68.5708V69.3488H76.4448V60.4392H82.3176V61.2172H77.3232V64.4297H81.6776V65.1701H77.3232V68.5708H82.4305Z" fill="url(#paint2_linear_172_1005)"/>
<path d="M73.7792 62.1082C73.5282 61.8237 73.1936 61.5937 72.7753 61.418C72.357 61.2423 71.8802 61.1545 71.3447 61.1545C70.5584 61.1545 69.9853 61.3051 69.6256 61.6062C69.2658 61.899 69.086 62.3006 69.086 62.8109C69.086 63.0786 69.132 63.3003 69.224 63.476C69.3244 63.6433 69.475 63.7897 69.6758 63.9152C69.8765 64.0407 70.1317 64.1494 70.4412 64.2415C70.7591 64.3335 71.1314 64.4255 71.5581 64.5175C72.0349 64.6179 72.4616 64.7309 72.838 64.8564C73.2229 64.9818 73.5491 65.1408 73.8168 65.3332C74.0845 65.5173 74.2895 65.7431 74.4317 66.0108C74.5739 66.2785 74.6451 66.6132 74.6451 67.0147C74.6451 67.4247 74.5656 67.7802 74.4066 68.0814C74.2477 68.3825 74.026 68.6335 73.7415 68.8343C73.4571 69.0351 73.1183 69.1857 72.7251 69.286C72.3319 69.3781 71.9011 69.4241 71.4326 69.4241C70.0522 69.4241 68.8601 68.9932 67.8562 68.1316L68.2954 67.4163C68.4544 67.5836 68.6426 67.7426 68.8601 67.8931C69.086 68.0437 69.3328 68.1776 69.6005 68.2947C69.8765 68.4035 70.1693 68.4913 70.4789 68.5582C70.7884 68.6168 71.1147 68.6461 71.4577 68.6461C72.1688 68.6461 72.7209 68.5206 73.1141 68.2696C73.5157 68.0103 73.7164 67.6213 73.7164 67.1026C73.7164 66.8265 73.6579 66.5964 73.5408 66.4124C73.432 66.22 73.2647 66.0568 73.0388 65.923C72.8129 65.7808 72.5327 65.6595 72.1981 65.5591C71.8634 65.4587 71.4744 65.3583 71.031 65.2579C70.5625 65.1492 70.1526 65.0362 69.8013 64.9191C69.4499 64.802 69.1529 64.6556 68.9103 64.4799C68.6677 64.3042 68.4836 64.0951 68.3581 63.8525C68.241 63.6015 68.1825 63.2961 68.1825 62.9364C68.1825 62.5265 68.2578 62.1626 68.4083 61.8447C68.5673 61.5184 68.789 61.2507 69.0734 61.0415C69.3579 60.824 69.6925 60.6609 70.0773 60.5521C70.4622 60.435 70.8888 60.3765 71.3573 60.3765C71.9513 60.3765 72.4783 60.4685 72.9384 60.6525C73.4069 60.8282 73.8294 61.0792 74.2058 61.4055L73.7792 62.1082Z" fill="url(#paint3_linear_172_1005)"/>
<defs>
<linearGradient id="paint0_linear_172_1005" x1="103.671" y1="64.8098" x2="56.4509" y2="64.8098" gradientUnits="userSpaceOnUse">
<stop stop-color="#F66979"/>
<stop offset="1" stop-color="#D278FE"/>
</linearGradient>
<linearGradient id="paint1_linear_172_1005" x1="91.9265" y1="64.9003" x2="67.8562" y2="64.9003" gradientUnits="userSpaceOnUse">
<stop stop-color="#F66979"/>
<stop offset="1" stop-color="#D278FE"/>
</linearGradient>
<linearGradient id="paint2_linear_172_1005" x1="91.9265" y1="64.9003" x2="67.8562" y2="64.9003" gradientUnits="userSpaceOnUse">
<stop stop-color="#F66979"/>
<stop offset="1" stop-color="#D278FE"/>
</linearGradient>
<linearGradient id="paint3_linear_172_1005" x1="91.9265" y1="64.9003" x2="67.8562" y2="64.9003" gradientUnits="userSpaceOnUse">
<stop stop-color="#F66979"/>
<stop offset="1" stop-color="#D278FE"/>
</linearGradient>
</defs>
</svg>
