<svg width="160" height="160" viewBox="0 0 160 160" fill="none" xmlns="http://www.w3.org/2000/svg">
<path d="M93.2323 91.9947C92.8703 90.5418 92.8908 89.0192 93.2916 87.5767C93.6924 86.1342 94.4597 84.8214 95.5182 83.7676L103.31 75.9326C103.588 75.6535 103.936 75.4555 104.317 75.3598C104.697 75.264 105.097 75.2742 105.473 75.3891L114.958 79.2201C115.333 79.335 115.733 79.3452 116.114 79.2494C116.495 79.1537 116.843 78.9556 117.12 78.6765C117.398 78.3973 117.595 78.0476 117.69 77.6646C117.785 77.2816 117.775 76.8796 117.661 76.5019L113.851 66.9643C113.737 66.5866 113.727 66.1848 113.822 65.8018C113.917 65.4188 114.114 65.069 114.392 64.7898L119.229 59.9261C119.506 59.647 119.854 59.449 120.235 59.3533C120.616 59.2575 121.016 59.2677 121.391 59.3827L130.876 63.2136C131.252 63.3285 131.652 63.3387 132.032 63.2429C132.413 63.1472 132.761 62.9491 133.039 62.67C133.317 62.3908 133.514 62.0411 133.609 61.6581C133.704 61.2751 133.694 60.8731 133.58 60.4955L129.77 50.9578C129.655 50.5801 129.645 50.1783 129.74 49.7953C129.836 49.4123 130.033 49.0625 130.31 48.7833L136 43.0622L135.479 23.8577L116.379 23.3335L75.8972 64.0394C74.8446 65.1047 73.5343 65.8762 72.0952 66.2779C70.6561 66.6796 69.1379 66.6977 67.6897 66.3305C60.1472 64.3803 52.1762 64.9772 45.0042 68.0295C37.8322 71.0817 31.8569 76.4199 27.9984 83.2222C24.1399 90.0244 22.612 97.9135 23.6503 105.675C24.6885 113.436 28.2352 120.638 33.7442 126.173C39.2532 131.709 46.419 135.269 54.1382 136.307C61.8574 137.346 69.7019 135.803 76.4638 131.918C83.2257 128.033 88.5301 122.021 91.5601 114.807C94.59 107.593 95.1776 99.5774 93.2323 91.9947Z" stroke="white" stroke-linecap="round" stroke-linejoin="round"/>
<path d="M49.1657 105.499C55.1819 105.499 60.0588 100.622 60.0588 94.6061C60.0588 88.59 55.1819 83.7129 49.1657 83.7129C43.1495 83.7129 38.2725 88.59 38.2725 94.6061C38.2725 100.622 43.1495 105.499 49.1657 105.499Z" stroke="url(#paint0_linear_172_1038)" stroke-linecap="round" stroke-linejoin="round"/>
<path d="M122.306 37.0278L102.387 56.9468" stroke="url(#paint1_linear_172_1038)" stroke-linecap="round" stroke-linejoin="round"/>
<path d="M93.6723 66.2837L83.0903 76.2432" stroke="url(#paint2_linear_172_1038)" stroke-linecap="round" stroke-linejoin="round"/>
<defs>
<linearGradient id="paint0_linear_172_1038" x1="60.0588" y1="94.6061" x2="38.2725" y2="94.6061" gradientUnits="userSpaceOnUse">
<stop stop-color="#FBA05A"/>
<stop offset="1" stop-color="#F66979"/>
</linearGradient>
<linearGradient id="paint1_linear_172_1038" x1="122.306" y1="46.9873" x2="102.387" y2="46.9873" gradientUnits="userSpaceOnUse">
<stop stop-color="#FBA05A"/>
<stop offset="1" stop-color="#F66979"/>
</linearGradient>
<linearGradient id="paint2_linear_172_1038" x1="93.6723" y1="71.2634" x2="83.0903" y2="71.2634" gradientUnits="userSpaceOnUse">
<stop stop-color="#FBA05A"/>
<stop offset="1" stop-color="#F66979"/>
</linearGradient>
</defs>
</svg>
