<svg width="160px" height="160px" viewBox="0 0 160 160" fill="none" xmlns="http://www.w3.org/2000/svg" transform="rotate(0) scale(1, 1)">
<path d="M80 144C115.346 144 144 115.346 144 80C144 44.6538 115.346 16 80 16C44.6538 16 16 44.6538 16 80C16 115.346 44.6538 144 80 144Z" stroke="#ffffff"/>
<path d="M106 89.3381C106 92.2524 101.106 98.5667 97.1903 98.5667C94.4737 98.5667 95.9979 109.088 97.1859 115.531C97.6505 118.05 95.7418 120.424 93.1801 120.424C85.9421 120.424 73.2731 120.424 72.2293 120.424C70.761 120.424 65.8667 110.224 54.6099 110.71C43.353 111.195 49.2261 103.91 49.2261 102.938C49.2261 101.967 47.2685 97.1095 47.7579 97.1095C48.2473 97.1095 49.7156 97.1095 49.7156 96.1381C49.7156 95.1667 47.7579 94.681 47.7579 93.7095C47.7579 92.7381 48.7367 92.2524 48.7367 89.8238C48.7367 87.3953 43.8424 86.4238 43.353 84.9667C42.8636 83.5095 51.6733 76.2238 51.6733 74.281C51.6733 72.3381 50.6945 72.3381 50.6945 70.881C50.6945 69.4238 57.0571 52.4238 59.9936 52.4238" stroke="#ffffff"/>
<path d="M97.6779 71.5209C106.426 62.7726 106.426 48.5887 97.6779 39.8404C88.9296 31.0921 74.7457 31.0921 65.9974 39.8404C57.249 48.5887 57.249 62.7726 65.9974 71.5209C74.7457 80.2693 88.9296 80.2693 97.6779 71.5209ZM97.6779 71.5209L103.188 77.0306M103.188 77.0306L98.4353 81.7829C98.3974 81.8208 98.3974 81.8823 98.4353 81.9202L118.339 101.824C121.002 104.487 125.318 104.487 127.981 101.824C130.644 99.1615 130.644 94.8447 127.981 92.1821L108.077 72.2783C108.039 72.2404 107.978 72.2404 107.94 72.2783L103.188 77.0306Z" stroke="url(#paint0_linear_172_1025)"/>
<defs>
<linearGradient id="paint0_linear_172_1025" x1="112.829" y1="54.992" x2="81.1489" y2="86.6725" gradientUnits="userSpaceOnUse">
<stop stop-color="#f0f569" data-originalstopcolor="#f0f569"/>
<stop offset="1" stop-color="#ffe278" data-originalstopcolor="#ffe278"/>
</linearGradient>
</defs>
</svg>