<svg width="40" height="40" viewBox="0 0 40 40" fill="none" xmlns="http://www.w3.org/2000/svg">
<path d="M36.6667 29.167H25" stroke="white" stroke-miterlimit="10" stroke-linecap="round" stroke-linejoin="round"/>
<path d="M8.33334 29.167H3.33334" stroke="white" stroke-miterlimit="10" stroke-linecap="round" stroke-linejoin="round"/>
<path d="M36.6667 10.833H31.6667" stroke="white" stroke-miterlimit="10" stroke-linecap="round" stroke-linejoin="round"/>
<path d="M15 10.833H3.33334" stroke="white" stroke-miterlimit="10" stroke-linecap="round" stroke-linejoin="round"/>
<path d="M11.6667 24.167H21.6667C23.5 24.167 25 25.0003 25 27.5003V30.8337C25 33.3337 23.5 34.167 21.6667 34.167H11.6667C9.83334 34.167 8.33334 33.3337 8.33334 30.8337V27.5003C8.33334 25.0003 9.83334 24.167 11.6667 24.167Z" stroke="white" stroke-miterlimit="10" stroke-linecap="round" stroke-linejoin="round"/>
<path d="M18.3333 5.83301H28.3333C30.1667 5.83301 31.6667 6.66634 31.6667 9.16634V12.4997C31.6667 14.9997 30.1667 15.833 28.3333 15.833H18.3333C16.5 15.833 15 14.9997 15 12.4997V9.16634C15 6.66634 16.5 5.83301 18.3333 5.83301Z" stroke="white" stroke-miterlimit="10" stroke-linecap="round" stroke-linejoin="round"/>
</svg>
