<svg width="40" height="40" viewBox="0 0 40 40" fill="none" xmlns="http://www.w3.org/2000/svg">
<path d="M5 5H35M14.7167 30.2L10 35M18.3333 21.6667C17.3444 21.6667 16.3777 21.9599 15.5555 22.5093C14.7332 23.0587 14.0924 23.8396 13.7139 24.7532C13.3355 25.6669 13.2365 26.6722 13.4294 27.6421C13.6223 28.612 14.0985 29.5029 14.7978 30.2022C15.4971 30.9015 16.388 31.3777 17.3579 31.5706C18.3278 31.7635 19.3331 31.6645 20.2468 31.2861C21.1604 30.9076 21.9413 30.2668 22.4907 29.4445C23.0401 28.6223 23.3333 27.6556 23.3333 26.6667C23.3333 25.3406 22.8065 24.0688 21.8689 23.1311C20.9312 22.1934 19.6594 21.6667 18.3333 21.6667Z" stroke="white" stroke-linecap="round" stroke-linejoin="round"/>
<path d="M13.3333 16.667L16.6667 13.3337L23.3333 16.667L26.6667 11.667" stroke="white" stroke-linecap="round" stroke-linejoin="round"/>
<path d="M6.66666 25V5H33.3333V25C33.3333 25.442 33.1577 25.866 32.8452 26.1785C32.5326 26.4911 32.1087 26.6667 31.6667 26.6667H30" stroke="white" stroke-linecap="round" stroke-linejoin="round"/>
</svg>
