<svg width="161" height="160" viewBox="0 0 161 160" fill="none" xmlns="http://www.w3.org/2000/svg">
<path d="M80.5 144C115.846 144 144.5 115.346 144.5 80C144.5 44.6538 115.846 16 80.5 16C45.1538 16 16.5 44.6538 16.5 80C16.5 115.346 45.1538 144 80.5 144Z" stroke="white"/>
<path d="M97.1878 71.7474C96.7961 70.2747 95.6372 69.1128 94.1628 68.7147C91.4969 68.0001 80.8006 68.0001 80.8006 68.0001C80.8006 68.0001 70.1097 68.0001 67.4383 68.7147C65.9693 69.1074 64.8105 70.2692 64.4133 71.7474C63.7006 74.4201 63.7006 80.0001 63.7006 80.0001C63.7006 80.0001 63.7006 85.5801 64.4133 88.2529C64.805 89.7256 65.9639 90.8874 67.4383 91.2856C70.1097 92.0001 80.8006 92.0001 80.8006 92.0001C80.8006 92.0001 91.4969 92.0001 94.1628 91.2856C95.6318 90.8928 96.7907 89.731 97.1878 88.2529C97.9006 85.5801 97.9006 80.0001 97.9006 80.0001C97.9006 80.0001 97.9006 74.4201 97.1878 71.7474Z" fill="#FF3000"/>
<path d="M77.3838 85.1438L86.2684 80.0001L77.3838 74.8565V85.1438Z" fill="white"/>
</svg>
