<svg width="160" height="160" viewBox="0 0 160 160" fill="none" xmlns="http://www.w3.org/2000/svg">
<path d="M70.4044 61.6667C66.5044 73.3467 66.7667 87.9867 70.6667 99.6667M82.6667 61.6667C86.5667 73.3467 86.5667 88.0711 82.6667 99.7511M57.5823 86.6667C69.2623 90.5667 83.9867 90.5667 95.6667 86.6667M57.6667 74.6667C69.3467 70.7667 83.9867 70.7667 95.6667 74.6667M91.3333 67.0691C87.6807 63.1311 82.4615 60.6667 76.6667 60.6667C71.9746 60.6667 67.6599 62.2824 64.2487 64.9878M91.3333 67.0691C94.6431 70.6375 96.6667 75.4158 96.6667 80.6667C96.6667 85.4735 94.9709 89.8842 92.145 93.3333M91.3333 67.0691L115.48 42.9229M115.48 42.9229C117.79 44.8444 120.76 46 124 46C131.364 46 137.333 40.0305 137.333 32.6667C137.333 25.3029 131.364 19.3333 124 19.3333C116.636 19.3333 110.667 25.3029 110.667 32.6667C110.667 36.7905 112.539 40.4771 115.48 42.9229ZM53 53.7392C55.2383 51.9053 56.6667 49.1194 56.6667 46C56.6667 40.4771 52.1895 36 46.6667 36C41.1438 36 36.6667 40.4771 36.6667 46C36.6667 51.5228 41.1438 56 46.6667 56C49.0701 56 51.2755 55.1521 53 53.7392ZM53 53.7392L64.2487 64.9878M64.2487 64.9878C59.6294 68.6514 56.6667 74.313 56.6667 80.6667C56.6667 86.6401 59.2854 92.0019 63.4376 95.6667M63.4376 95.6667C66.9632 98.7785 71.5944 100.667 76.6667 100.667C79.7716 100.667 82.7113 99.9591 85.3333 98.6964M63.4376 95.6667L44.5357 114.569M44.5357 114.569C42.3301 112.954 39.6098 112 36.6667 112C29.3029 112 23.3333 117.97 23.3333 125.333C23.3333 132.697 29.3029 138.667 36.6667 138.667C44.0305 138.667 50 132.697 50 125.333C50 120.913 47.8486 116.994 44.5357 114.569ZM114.873 96.6667C113.898 98.2103 113.333 100.039 113.333 102C113.333 107.523 117.81 112 123.333 112C128.856 112 133.333 107.523 133.333 102C133.333 96.4771 128.856 92 123.333 92C119.771 92 116.644 93.8624 114.873 96.6667ZM114.873 96.6667L92.145 93.3333M92.145 93.3333C90.3026 95.582 87.9798 97.422 85.3333 98.6964M90.6667 121.333C85.1438 121.333 80.6667 125.81 80.6667 131.333C80.6667 136.856 85.1438 141.333 90.6667 141.333C96.1895 141.333 100.667 136.856 100.667 131.333C100.667 125.81 96.1895 121.333 90.6667 121.333ZM90.6667 121.333L85.3333 98.6964" stroke="white"/>
<path d="M70.4044 61.6667C66.5044 73.3467 66.7667 87.9867 70.6667 99.6667M82.6667 61.6667C86.5667 73.3467 86.5667 88.0711 82.6667 99.7511M57.5823 86.6667C69.2623 90.5667 83.9867 90.5667 95.6667 86.6667M57.6667 74.6667C69.3467 70.7667 83.9867 70.7667 95.6667 74.6667M91.3333 67.0691C87.6807 63.1311 82.4615 60.6667 76.6667 60.6667C65.621 60.6667 56.6667 69.621 56.6667 80.6667C56.6667 91.7124 65.621 100.667 76.6667 100.667C87.7124 100.667 96.6667 91.7124 96.6667 80.6667C96.6667 75.4158 94.6431 70.6375 91.3333 67.0691ZM91.3333 67.0691L115.48 42.9229M115.48 42.9229C117.79 44.8444 120.76 46 124 46C131.364 46 137.333 40.0305 137.333 32.6667C137.333 25.3029 131.364 19.3333 124 19.3333C116.636 19.3333 110.667 25.3029 110.667 32.6667C110.667 36.7905 112.539 40.4771 115.48 42.9229Z" stroke="url(#paint0_linear_2027_5262)"/>
<defs>
<linearGradient id="paint0_linear_2027_5262" x1="137.333" y1="60" x2="56.6667" y2="60" gradientUnits="userSpaceOnUse">
<stop stop-color="#F66979"/>
<stop offset="1" stop-color="#D278FE"/>
</linearGradient>
</defs>
</svg>
