<svg width="161" height="160" viewBox="0 0 161 160" fill="none" xmlns="http://www.w3.org/2000/svg">
<path d="M80.5 144C115.846 144 144.5 115.346 144.5 80C144.5 44.6538 115.846 16 80.5 16C45.1538 16 16.5 44.6538 16.5 80C16.5 115.346 45.1538 144 80.5 144Z" stroke="white"/>
<path d="M87.5193 81.8737L88.3742 76.4469H83.1082V72.9195C83.1082 71.4356 83.8434 69.9857 86.1943 69.9857H88.6221V65.3644C87.2083 65.1391 85.7796 65.0173 84.3477 64.9998C80.0135 64.9998 77.1838 67.603 77.1838 72.309V76.4469H72.3794V81.8737H77.1838V94.9998H83.1082V81.8737H87.5193Z" fill="#337FFF"/>
</svg>
