<svg width="160px" height="160px" viewBox="0 0 160 160" fill="none" xmlns="http://www.w3.org/2000/svg" transform="rotate(0) scale(1, 1)">
<path d="M77.9438 90.3333C68.0549 92 47.3333 91.6667 47.3333 77C40.8889 76.8889 28 73.6667 28 61.6667C28 51 31.8293 45.6341 38.9805 38.6667M77.9438 90.3333C74.9092 83.312 73.4966 76.9901 73.3065 71.3314M77.9438 90.3333C79.1447 93.1119 80.5996 96.0001 82.3333 99M38.9805 38.6667C38.9805 49.3283 54.4321 69.9837 73.3065 71.3314M38.9805 38.6667C45.3556 32.4553 54.3708 27.6165 65.6667 26.3346M73.3065 71.3314C73.3155 71.3321 73.3244 71.3327 73.3333 71.3333C79.6591 71.7788 85.842 71.1765 91.5064 69.7094M73.3065 71.3314C73.1356 66.2426 73.9532 61.6902 75.4689 57.6479M91.5064 69.7094C107.034 65.6876 118.667 55.1673 118.667 41.9193M91.5064 69.7094C84.5947 66.4057 79.3628 62.2162 75.4689 57.6479M91.5064 69.7094C100.812 74.1575 113.164 77 129.395 77M118.667 41.9193C114.614 38.3395 109.719 35.3107 104.333 32.8874M118.667 41.9193C129.117 51.1494 131.904 63.7531 129.395 77M104.333 32.8874C94.3832 28.4103 82.7571 26 71.6667 26C69.601 26 67.6004 26.1152 65.6667 26.3346M104.333 32.8874C94.4072 35.7268 80.7311 43.613 75.4689 57.6479M75.4689 57.6479C66.533 47.1643 64.6431 34.685 65.6667 26.3346M129.395 77C127.226 88.4471 115 91.3333 115 91.3333C115 100 107.667 104 95.3333 104H64.6667C62.0893 104 60 106.089 60 108.667C60 111.244 62.0893 113.333 64.6667 113.333H92.6667C95.244 113.333 97.3333 115.423 97.3333 118C97.3333 120.577 95.244 122.667 92.6667 122.667H70C67.4227 122.667 65.3333 124.756 65.3333 127.333C65.3333 129.911 67.4227 132 70 132H75.3333C75.3333 134.577 77.4227 136.667 80 136.667C82.5773 136.667 84.6667 134.577 84.6667 132H90" stroke="#ffffff"/>
<path d="M77.9438 90.3333C68.0549 92 47.3333 91.6667 47.3333 77C40.8889 76.8889 28 73.6667 28 61.6667C28 51 31.8293 45.6341 38.9805 38.6667C46.447 31.392 57.5349 26 71.6667 26C82.7571 26 94.3832 28.4103 104.333 32.8874C109.719 35.3107 114.614 38.3395 118.667 41.9193C129.117 51.1494 131.904 63.7531 129.395 77C127.226 88.4471 115 91.3333 115 91.3333" stroke="url(#paint0_linear_2027_5277)"/>
<defs>
<linearGradient id="paint0_linear_2027_5277" x1="130.257" y1="58.6667" x2="28" y2="58.6667" gradientUnits="userSpaceOnUse">
<stop stop-color="#fafa5a" data-originalstopcolor="#fafa5a"/>
<stop offset="1" stop-color="#f9ff84" data-originalstopcolor="#f9ff84"/>
</linearGradient>
</defs>
</svg>