<svg width="160" height="160" viewBox="0 0 160 160" fill="none" xmlns="http://www.w3.org/2000/svg">
<path d="M103.333 20V43.3333C103.333 56.22 92.8866 66.6667 80 66.6667C67.1133 66.6667 56.6666 56.22 56.6666 43.3333V20" stroke="url(#paint0_linear_2027_5292)"/>
<path d="M93.3333 140V116.667C93.3333 103.78 103.78 93.3333 116.667 93.3333M140 140V116.667C140 103.78 129.553 93.3333 116.667 93.3333M116.667 93.3333C116.667 85.9695 110.697 80 103.333 80H80M20 140L20 116.667C20 103.78 30.4467 93.3333 43.3333 93.3333M66.6667 140V116.667C66.6667 103.78 56.22 93.3333 43.3333 93.3333M43.3333 93.3333C43.3333 85.9695 49.3029 80 56.6667 80H80M80 66.6667V80" stroke="white"/>
<defs>
<linearGradient id="paint0_linear_2027_5292" x1="103.333" y1="43.3333" x2="56.6666" y2="43.3333" gradientUnits="userSpaceOnUse">
<stop stop-color="#D278FE"/>
<stop offset="1" stop-color="#2D69FB"/>
</linearGradient>
</defs>
</svg>
