<svg width="161" height="160" viewBox="0 0 161 160" fill="none" xmlns="http://www.w3.org/2000/svg">
<path d="M80.5 144C115.846 144 144.5 115.346 144.5 80C144.5 44.6538 115.846 16 80.5 16C45.1538 16 16.5 44.6538 16.5 80C16.5 115.346 45.1538 144 80.5 144Z" stroke="white"/>
<g clip-path="url(#clip0_2036_600)">
<path d="M76.5866 65.23C76.0363 65.6791 75.5718 66.224 75.2157 66.8386L63.4586 87.1152C62.674 88.4778 62.4604 90.0954 62.8645 91.615C63.2686 93.1345 64.2576 94.4323 65.6155 95.225C66.9781 96.0097 68.5957 96.2233 70.1152 95.8191C71.6348 95.415 72.9326 94.426 73.7253 93.0681L83.8308 75.6411C81.601 72.44 78.3482 67.7712 76.5866 65.23Z" fill="#FEBD00"/>
<path d="M68.5919 96.0256C71.8692 96.0256 74.5259 93.3689 74.5259 90.0917C74.5259 86.8144 71.8692 84.1577 68.5919 84.1577C65.3147 84.1577 62.658 86.8144 62.658 90.0917C62.658 93.3689 65.3147 96.0256 68.5919 96.0256Z" fill="#25A84A"/>
<path d="M86.9212 93.0813C88.5598 95.9194 92.1889 96.8917 95.027 95.2531C97.865 93.6145 98.8374 89.9854 97.1988 87.1473L85.4793 66.8491C83.8406 64.011 80.2116 63.0386 77.3735 64.6773C74.5354 66.3159 73.563 69.945 75.2016 72.7831L86.9212 93.0813Z" fill="#2E8ADD"/>
</g>
<defs>
<clipPath id="clip0_2036_600">
<rect width="37.3333" height="37.3333" fill="white" transform="translate(61.8333 61.3333)"/>
</clipPath>
</defs>
</svg>
