<svg width="160px" height="160px" viewBox="0 0 160 160" fill="none" xmlns="http://www.w3.org/2000/svg" transform="rotate(0) scale(1, 1)">
<path d="M65.3333 44L65.6106 43.584L65.4331 43.4656L65.2248 43.5119L65.3333 44ZM95.3333 64L95.0559 64.416L95.4297 64.6652L95.7174 64.3201L95.3333 64ZM125.333 28L119.915 29.9931L124.35 33.6892L125.333 28ZM35.3333 50.6667L35.4417 51.1548L65.4417 44.4881L65.3333 44L65.2248 43.5119L35.2248 50.1786L35.3333 50.6667ZM65.3333 44L65.0559 44.416L95.0559 64.416L95.3333 64L95.6106 63.584L65.6106 43.584L65.3333 44ZM95.3333 64L95.7174 64.3201L122.837 31.7771L122.452 31.457L122.068 31.1369L94.9491 63.6799L95.3333 64Z" fill="url(#paint0_linear_2027_5306)"/>
<path d="M27.3333 74C27.3333 69.5817 30.915 66 35.3333 66C39.7515 66 43.3333 69.5817 43.3333 74V124.667C43.3333 129.085 39.7515 132.667 35.3333 132.667C30.915 132.667 27.3333 129.085 27.3333 124.667V74Z" stroke="#ffffff"/>
<path d="M57.3333 67.3333C57.3333 62.9151 60.915 59.3333 65.3332 59.3333C69.7515 59.3333 73.3332 62.9151 73.3332 67.3333V124.667C73.3332 129.085 69.7515 132.667 65.3332 132.667C60.915 132.667 57.3333 129.085 57.3333 124.667V67.3333Z" stroke="#ffffff"/>
<path d="M87.3332 87.3333C87.3332 82.9151 90.915 79.3333 95.3332 79.3333C99.7515 79.3333 103.333 82.9151 103.333 87.3333V124.667C103.333 129.085 99.7515 132.667 95.3332 132.667C90.915 132.667 87.3332 129.085 87.3332 124.667V87.3333Z" stroke="#ffffff"/>
<path d="M117.333 51.3333C117.333 46.915 120.915 43.3333 125.333 43.3333C129.752 43.3333 133.333 46.9151 133.333 51.3333V124.667C133.333 129.085 129.752 132.667 125.333 132.667C120.915 132.667 117.333 129.085 117.333 124.667V51.3333Z" stroke="#ffffff"/>
<defs>
<linearGradient id="paint0_linear_2027_5306" x1="125.333" y1="46" x2="35.3333" y2="46" gradientUnits="userSpaceOnUse">
<stop stop-color="#fffd73" data-originalstopcolor="#fffd73"/>
<stop offset="1" stop-color="#fff678" data-originalstopcolor="#fff678"/>
</linearGradient>
</defs>
</svg>