<svg width="161" height="160" viewBox="0 0 161 160" fill="none" xmlns="http://www.w3.org/2000/svg">
<path d="M80.5 144C115.846 144 144.5 115.346 144.5 80C144.5 44.6538 115.846 16 80.5 16C45.1538 16 16.5 44.6538 16.5 80C16.5 115.346 45.1538 144 80.5 144Z" stroke="white"/>
<rect x="52.5" y="52" width="56" height="56" rx="28" fill="#7D2DFE"/>
<path d="M74.8066 98.48C78.0541 98.48 80.6866 95.8056 80.6866 92.5067C80.6866 89.2077 78.0541 86.5333 74.8066 86.5333C71.5592 86.5333 68.9266 89.2077 68.9266 92.5067C68.9266 95.8056 71.5592 98.48 74.8066 98.48Z" fill="white"/>
<path d="M82.6037 84.6667H72.1L81.4222 61.7067H91.8866L82.6037 84.6667Z" fill="white"/>
</svg>
