<svg width="160" height="160" viewBox="0 0 160 160" fill="none" xmlns="http://www.w3.org/2000/svg">
<path d="M144 80C144 115.346 115.346 144 80 144C44.6538 144 16 115.346 16 80C16 44.6538 44.6538 16 80 16C115.346 16 144 44.6538 144 80ZM144 80C143.678 84.4713 140.856 88.7378 137.109 94.0641C133.364 99.3903 128.079 104.823 121.642 109.963C115.204 115.103 107.778 119.82 99.9089 123.77C92.0388 127.719 83.9241 130.8 76.1595 132.787C68.3949 134.773 61.1773 135.615 55.0358 135.251C48.8943 134.886 43.9846 133.325 40.6667 130.68M24 110.725C28.0432 117.235 37.7829 120.245 51.0766 119.092C64.3704 117.939 80.129 112.718 94.8861 104.577C109.643 96.4358 122.19 86.0419 129.766 75.6818C137.341 65.3216 140.043 55.5105 136 49" stroke="white"/>
<path d="M81.9558 78.3713C81.2693 89.5907 76.6594 98.6616 71.4108 105.202C67.8654 109.62 64.4905 113.432 62 117.371M121.667 84.6667C121.667 71.9183 113.458 42.2078 85.4082 42.7215C72.7739 42.9529 65.6976 37.3964 62.6966 34.2204C62.2222 33.7183 61.1345 34.1394 61.1912 34.8267C61.4823 38.3585 61.9409 44.3574 61.9409 47.1111C61.9409 50.7192 50.3519 63.8882 43.7563 71.0909C41.3151 73.7568 41.4248 77.893 44.0479 80.3816L48.8304 84.919C51.2508 87.2153 55.0141 87.3285 57.7242 85.3797C61.296 82.8114 66.073 79.7992 68.8317 79.7992C73.6406 79.7992 90.4886 82.4143 90.4886 62.1476" stroke="url(#paint0_linear_2027_5248)"/>
<defs>
<linearGradient id="paint0_linear_2027_5248" x1="121.667" y1="75.6857" x2="42" y2="75.6857" gradientUnits="userSpaceOnUse">
<stop stop-color="#D278FE"/>
<stop offset="1" stop-color="#2D69FB"/>
</linearGradient>
</defs>
</svg>
