<svg width="160" height="160" viewBox="0 0 160 160" fill="none" xmlns="http://www.w3.org/2000/svg">
<path d="M115.808 84.2283V75.111C115.808 74.1122 114.998 73.3022 113.999 73.3022H111.206C110.367 73.3022 109.657 72.7197 109.446 71.9073C108.722 69.1247 107.617 66.4963 106.191 64.0784C105.775 63.3717 105.863 62.4786 106.443 61.8985L108.445 59.8961C109.152 59.1894 109.152 58.0446 108.445 57.3379L101.999 50.8909C101.292 50.1842 100.147 50.1842 99.4403 50.8909L97.4379 52.8933C96.8578 53.4734 95.9647 53.5621 95.258 53.145C92.8401 51.7203 90.2116 50.615 87.4291 49.8905C86.6167 49.6792 86.0342 48.9692 86.0342 48.1302V45.3371C86.0342 44.3383 85.2242 43.5283 84.2254 43.5283H75.108C74.1093 43.5283 73.2993 44.3383 73.2993 45.3371V48.1302C73.2993 48.9692 72.7168 49.6792 71.9043 49.8905C69.1218 50.6142 66.4933 51.7195 64.0755 53.145C63.3687 53.5613 62.4756 53.4734 61.8955 52.8933L59.8931 50.8909C59.1864 50.1842 58.0416 50.1842 57.3349 50.8909L50.888 57.3379C50.1812 58.0446 50.1812 59.1894 50.888 59.8961L52.8904 61.8985C53.4704 62.4786 53.5592 63.3717 53.1421 64.0784C51.7173 66.4963 50.6121 69.1247 49.8876 71.9073C49.6762 72.7197 48.9662 73.3022 48.1272 73.3022H45.3342C44.3354 73.3022 43.5254 74.1122 43.5254 75.111V84.2283C43.5254 85.2271 44.3354 86.0371 45.3342 86.0371H48.1272C48.9662 86.0371 49.6762 86.6196 49.8876 87.432C50.6113 90.2154 51.7165 92.843 53.1421 95.2609C53.5584 95.9676 53.4704 96.8607 52.8904 97.4408L50.888 99.4432C50.1812 100.15 50.1812 101.295 50.888 102.001L57.3349 108.448C58.0416 109.155 59.1864 109.155 59.8931 108.448L61.8955 106.446C62.4756 105.866 63.3687 105.777 64.0755 106.194C66.4933 107.619 69.1218 108.724 71.9043 109.449C72.7168 109.66 73.2993 110.37 73.2993 111.209V114.002C73.2993 115.001 74.1093 115.811 75.108 115.811H84.2254C85.2242 115.811 86.0342 115.001 86.0342 114.002V111.209C86.0342 110.37 86.6167 109.66 87.4291 109.449C90.2116 108.725 92.8401 107.62 95.258 106.194C95.9647 105.778 96.8578 105.866 97.4379 106.446L99.4403 108.448C100.147 109.155 101.292 109.155 101.999 108.448L108.445 102.001C109.152 101.295 109.152 100.15 108.445 99.4432L106.443 97.4408C105.863 96.8607 105.774 95.9676 106.191 95.2609C107.616 92.843 108.721 90.2146 109.446 87.432C109.657 86.6196 110.367 86.0371 111.206 86.0371H113.999C114.998 86.0371 115.808 85.2271 115.808 84.2283Z" stroke="url(#paint0_linear_172_1015)" stroke-miterlimit="10" stroke-linecap="round" stroke-linejoin="round"/>
<path d="M79.6664 101.175C91.5434 101.175 101.172 91.5471 101.172 79.6701C101.172 67.7931 91.5434 58.1648 79.6664 58.1648C67.7894 58.1648 58.1611 67.7931 58.1611 79.6701C58.1611 91.5471 67.7894 101.175 79.6664 101.175Z" stroke="url(#paint1_linear_172_1015)" stroke-miterlimit="10" stroke-linecap="round" stroke-linejoin="round"/>
<path d="M134.826 100.402C134.943 100.652 135.241 100.759 135.491 100.641L139.562 98.725C139.812 98.6074 139.919 98.3095 139.802 98.0596C139.684 97.8098 139.386 97.7026 139.136 97.8202L135.517 99.5237L133.814 95.9045C133.696 95.6547 133.398 95.5475 133.149 95.6651C132.899 95.7827 132.791 96.0806 132.909 96.3304L134.826 100.402ZM125.944 41.2166L126.329 40.8979L126.329 40.8979L125.944 41.2166ZM135.748 100.358C136.056 99.5025 138.955 91.0066 139.156 79.5484C139.357 68.087 136.858 53.626 126.329 40.8979L125.558 41.5353C135.889 54.023 138.354 68.2228 138.156 79.5309C137.958 90.8422 135.094 99.2247 134.807 100.02L135.748 100.358ZM126.329 40.8979C111.537 23.0166 90.7345 20.455 86.1478 19.999L86.0489 20.9941C90.574 21.4439 111.03 23.9723 125.558 41.5353L126.329 40.8979Z" fill="white"/>
<path d="M35.6868 120.422C35.4106 120.422 35.1864 120.645 35.186 120.922L35.179 125.422C35.1785 125.698 35.402 125.922 35.6782 125.922C35.9543 125.923 36.1785 125.699 36.179 125.423L36.1852 121.423L40.1852 121.429C40.4613 121.43 40.6855 121.206 40.686 120.93C40.6864 120.654 40.4629 120.43 40.1867 120.429L35.6868 120.422ZM92.9959 137.669L92.8723 137.185L92.8723 137.185L92.9959 137.669ZM35.3319 121.275C35.9741 121.92 42.4183 128.169 52.6931 133.244C62.9709 138.321 77.1139 142.238 93.1196 138.153L92.8723 137.185C77.169 141.192 63.2763 137.357 53.136 132.348C42.9928 127.337 36.6365 121.168 36.0401 120.569L35.3319 121.275ZM93.1195 138.153C115.607 132.416 126.807 114.701 129.179 110.748L128.321 110.234C125.982 114.134 114.96 131.549 92.8723 137.185L93.1195 138.153Z" fill="white"/>
<path d="M69.2037 20.3243C69.3543 20.0928 69.2886 19.7831 69.0571 19.6326L65.2845 17.1795C65.053 17.029 64.7433 17.0946 64.5928 17.3261C64.4423 17.5576 64.5079 17.8673 64.7394 18.0179L68.0928 20.1984L65.9123 23.5518C65.7618 23.7833 65.8274 24.093 66.0589 24.2435C66.2904 24.3941 66.6001 24.3284 66.7507 24.0969L69.2037 20.3243ZM23.5648 59.0396L23.091 58.8799L23.091 58.8799L23.5648 59.0396ZM68.6809 19.5626C67.7908 19.7513 59.0418 21.7609 49.195 27.6237C39.3454 33.4881 28.3673 43.2269 23.091 58.8799L24.0386 59.1993C29.2152 43.8421 39.9887 34.2689 49.7066 28.4829C59.4272 22.6953 68.0616 20.7161 68.8882 20.5409L68.6809 19.5626ZM23.091 58.8799C15.6784 80.8717 24.4531 99.9034 26.4814 104.044L27.3795 103.604C25.3784 99.5191 16.758 80.7997 24.0387 59.1993L23.091 58.8799Z" fill="white"/>
<defs>
<linearGradient id="paint0_linear_172_1015" x1="115.808" y1="79.6697" x2="43.5254" y2="79.6697" gradientUnits="userSpaceOnUse">
<stop stop-color="#FBA05A"/>
<stop offset="1" stop-color="#F66979"/>
</linearGradient>
<linearGradient id="paint1_linear_172_1015" x1="115.808" y1="79.6697" x2="43.5254" y2="79.6697" gradientUnits="userSpaceOnUse">
<stop stop-color="#FBA05A"/>
<stop offset="1" stop-color="#F66979"/>
</linearGradient>
</defs>
</svg>
