<svg width="161" height="160" viewBox="0 0 161 160" fill="none" xmlns="http://www.w3.org/2000/svg">
<path d="M80.5 144C115.846 144 144.5 115.346 144.5 80C144.5 44.6538 115.846 16 80.5 16C45.1538 16 16.5 44.6538 16.5 80C16.5 115.346 45.1538 144 80.5 144Z" stroke="white"/>
<g clip-path="url(#clip0_2036_672)">
<path d="M93.9728 91.4744C78.8603 98.6667 69.4813 92.6491 63.4776 88.9942C63.106 88.7638 62.4746 89.048 63.0225 89.6773C65.0226 92.1026 71.5776 97.9481 80.1337 97.9481C88.6956 97.9481 93.7892 93.2763 94.4264 92.4613C95.0593 91.6532 94.6122 91.2075 93.9726 91.4744H93.9728ZM98.2171 89.1305C97.8112 88.602 95.7493 88.5035 94.4517 88.6629C93.152 88.8177 91.2013 89.612 91.3709 90.0889C91.4579 90.2675 91.6356 90.1874 92.5284 90.1071C93.4236 90.0178 95.9316 89.7013 96.4541 90.3844C96.9792 91.0723 95.6543 94.3491 95.4123 94.8776C95.1785 95.4061 95.5016 95.5424 95.9407 95.1904C96.3739 94.8385 97.158 93.9274 97.6841 92.6379C98.2067 91.3414 98.5255 89.5328 98.2171 89.1305Z" fill="#FF9900"/>
<path fill-rule="evenodd" clip-rule="evenodd" d="M83.8113 76.7987C83.8113 78.6858 83.859 80.2596 82.9051 81.9355C82.1353 83.2982 80.9157 84.1361 79.5532 84.1361C77.6932 84.1361 76.61 82.719 76.61 80.6275C76.61 76.4988 80.3093 75.7495 83.8113 75.7495V76.7987ZM88.6961 88.6054C88.3758 88.8915 87.9126 88.912 87.5515 88.7212C85.9437 87.3859 85.6575 86.766 84.7719 85.4919C82.1149 88.2035 80.2345 89.0141 76.7872 89.0141C72.7131 89.0141 69.5382 86.5002 69.5382 81.4654C69.5382 77.5345 71.6708 74.8569 74.7023 73.549C77.3322 72.3906 81.0044 72.1863 83.8113 71.8662V71.2393C83.8113 70.0879 83.8998 68.7254 83.2254 67.7307C82.6326 66.8382 81.5017 66.4703 80.5069 66.4703C78.6607 66.4703 77.0119 67.4172 76.61 69.3793C76.5281 69.8155 76.208 70.2447 75.772 70.2651L71.0711 69.7611C70.676 69.6723 70.24 69.3522 70.349 68.7458C71.4322 63.0503 76.5758 61.3333 81.1813 61.3333C83.5386 61.3333 86.6179 61.9602 88.4779 63.7452C90.8353 65.9457 90.6104 68.882 90.6104 72.0773V79.626C90.6104 81.8947 91.5506 82.8893 92.4362 84.1157C92.7495 84.5517 92.8177 85.0764 92.4225 85.4033C91.4347 86.2276 89.6769 87.7606 88.7096 88.6191L88.6959 88.6054" fill="white"/>
<path d="M93.9728 91.4744C78.8603 98.6667 69.4813 92.6491 63.4776 88.9942C63.106 88.7638 62.4746 89.048 63.0225 89.6773C65.0226 92.1026 71.5776 97.9481 80.1337 97.9481C88.6956 97.9481 93.7892 93.2763 94.4264 92.4613C95.0593 91.6532 94.6122 91.2075 93.9726 91.4744H93.9728ZM98.2171 89.1305C97.8112 88.602 95.7493 88.5035 94.4517 88.6629C93.152 88.8177 91.2013 89.612 91.3709 90.0889C91.4579 90.2675 91.6356 90.1874 92.5284 90.1071C93.4236 90.0178 95.9316 89.7013 96.4541 90.3844C96.9792 91.0723 95.6543 94.3491 95.4123 94.8776C95.1785 95.4061 95.5016 95.5424 95.9407 95.1904C96.3739 94.8385 97.158 93.9274 97.6841 92.6379C98.2067 91.3414 98.5255 89.5328 98.2171 89.1305Z" fill="#FF9900"/>
<path fill-rule="evenodd" clip-rule="evenodd" d="M83.8113 76.7987C83.8113 78.6858 83.859 80.2596 82.9051 81.9355C82.1353 83.2982 80.9157 84.1361 79.5532 84.1361C77.6932 84.1361 76.61 82.719 76.61 80.6275C76.61 76.4988 80.3093 75.7495 83.8113 75.7495V76.7987ZM88.6961 88.6054C88.3758 88.8915 87.9126 88.912 87.5515 88.7212C85.9437 87.3859 85.6575 86.766 84.7719 85.4919C82.1149 88.2035 80.2345 89.0141 76.7872 89.0141C72.7131 89.0141 69.5382 86.5002 69.5382 81.4654C69.5382 77.5345 71.6708 74.8569 74.7023 73.549C77.3322 72.3906 81.0044 72.1863 83.8113 71.8662V71.2393C83.8113 70.0879 83.8998 68.7254 83.2254 67.7307C82.6326 66.8382 81.5017 66.4703 80.5069 66.4703C78.6607 66.4703 77.0119 67.4172 76.61 69.3793C76.5281 69.8155 76.208 70.2447 75.772 70.2651L71.0711 69.7611C70.676 69.6723 70.24 69.3522 70.349 68.7458C71.4322 63.0503 76.5758 61.3333 81.1813 61.3333C83.5386 61.3333 86.6179 61.9602 88.4779 63.7452C90.8353 65.9457 90.6104 68.882 90.6104 72.0773V79.626C90.6104 81.8947 91.5506 82.8893 92.4362 84.1157C92.7495 84.5517 92.8177 85.0764 92.4225 85.4033C91.4347 86.2276 89.6769 87.7606 88.7096 88.6191L88.6959 88.6054" fill="white"/>
</g>
<defs>
<clipPath id="clip0_2036_672">
<rect width="37.3333" height="37.3333" fill="white" transform="translate(61.8333 61.3333)"/>
</clipPath>
</defs>
</svg>
