<svg width="161" height="160" viewBox="0 0 161 160" fill="none" xmlns="http://www.w3.org/2000/svg">
<path d="M80.5 144C115.846 144 144.5 115.346 144.5 80C144.5 44.6538 115.846 16 80.5 16C45.1538 16 16.5 44.6538 16.5 80C16.5 115.346 45.1538 144 80.5 144Z" stroke="white"/>
<path d="M64.2612 66.1096C64.2612 64.8134 65.3464 63.7612 66.6841 63.7612H94.6226C95.9609 63.7612 97.0456 64.8134 97.0456 66.1096V94.1976C97.0456 95.4942 95.9609 96.5456 94.6226 96.5456H66.6841C65.3465 96.5456 64.2612 95.4943 64.2612 94.1979V66.1093V66.1096Z" fill="#006699"/>
<path d="M74.2237 91.1975V76.4379H69.3179V91.1975H74.2242H74.2237ZM71.7718 74.423C73.4822 74.423 74.5471 73.2897 74.5471 71.8733C74.5151 70.4246 73.4822 69.3229 71.8043 69.3229C70.1253 69.3229 69.0287 70.4246 69.0287 71.8731C69.0287 73.2895 70.0932 74.4229 71.7397 74.4229H71.7714L71.7718 74.423ZM76.9392 91.1975H81.8447V82.9559C81.8447 82.5154 81.8767 82.0737 82.0063 81.7591C82.3608 80.8773 83.168 79.9646 84.5235 79.9646C86.2983 79.9646 87.0086 81.318 87.0086 83.3024V91.1975H91.914V82.7348C91.914 78.2014 89.4941 76.0918 86.2665 76.0918C83.6203 76.0918 82.4581 77.5708 81.8124 78.5782H81.8451V76.4384H76.9395C77.0035 77.823 76.9391 91.198 76.9391 91.198L76.9392 91.1975Z" fill="white"/>
</svg>
