<svg width="50" height="50" viewBox="0 0 50 50" fill="none" xmlns="http://www.w3.org/2000/svg">
<path d="M19.2488 35.1316V21.6251H14.7634V35.1316H19.2492H19.2488ZM17.007 19.7814C18.5708 19.7814 19.5444 18.7442 19.5444 17.4481C19.5151 16.1224 18.5708 15.1143 17.0368 15.1143C15.5016 15.1143 14.499 16.1224 14.499 17.448C14.499 18.7441 15.4722 19.7813 16.9776 19.7813H17.0067L17.007 19.7814ZM21.7315 35.1316H26.2164V27.5898C26.2164 27.1866 26.2457 26.7824 26.3642 26.4945C26.6883 25.6877 27.4263 24.8524 28.6657 24.8524C30.2882 24.8524 30.9377 26.0909 30.9377 27.9068V35.1316H35.4226V27.3874C35.4226 23.239 33.2101 21.3085 30.2592 21.3085C27.8398 21.3085 26.7773 22.6619 26.1869 23.5837H26.2168V21.6256H21.7317C21.7902 22.8927 21.7313 35.132 21.7313 35.132L21.7315 35.1316Z" fill="white"/>
</svg>
