<svg width="50" height="50" viewBox="0 0 50 50" fill="none" xmlns="http://www.w3.org/2000/svg">
<path fill-rule="evenodd" clip-rule="evenodd" d="M36.3862 15.5955C37.6149 15.9273 38.5806 16.8955 38.907 18.1227C39.501 20.35 39.501 25 39.501 25C39.501 25 39.501 29.65 38.907 31.8773C38.5761 33.1091 37.6103 34.0773 36.3862 34.4045C34.1646 35 25.251 35 25.251 35C25.251 35 16.3419 35 14.1158 34.4045C12.8871 34.0727 11.9214 33.1045 11.5949 31.8773C11.001 29.65 11.001 25 11.001 25C11.001 25 11.001 20.35 11.5949 18.1227C11.9259 16.8909 12.8916 15.9227 14.1158 15.5955C16.3419 15 25.251 15 25.251 15C25.251 15 34.1646 15 36.3862 15.5955ZM29.8075 25L22.4037 29.2864V20.7136L29.8075 25Z" fill="white"/>
</svg>
