<svg width="50" height="50" viewBox="0 0 50 50" fill="none" xmlns="http://www.w3.org/2000/svg">
<path d="M20.839 25.0638C20.839 22.7607 22.705 20.8931 25.0075 20.8931C27.31 20.8931 29.177 22.7607 29.177 25.0638C29.177 27.367 27.31 29.2346 25.0075 29.2346C22.705 29.2346 20.839 27.367 20.839 25.0638ZM18.585 25.0638C18.585 28.612 21.4604 31.4882 25.0075 31.4882C28.5546 31.4882 31.43 28.612 31.43 25.0638C31.43 21.5157 28.5546 18.6395 25.0075 18.6395C21.4604 18.6395 18.585 21.5157 18.585 25.0638ZM30.1833 18.3848C30.1832 18.6817 30.2711 18.9721 30.4359 19.219C30.6007 19.466 30.8351 19.6585 31.1093 19.7722C31.3835 19.886 31.6853 19.9158 31.9764 19.858C32.2676 19.8002 32.5351 19.6573 32.7451 19.4474C32.9551 19.2376 33.0981 18.9701 33.1561 18.6789C33.2142 18.3877 33.1846 18.0858 33.0711 17.8114C32.9576 17.5371 32.7653 17.3025 32.5186 17.1374C32.2718 16.9724 31.9817 16.8842 31.6848 16.8841H31.6842C31.2863 16.8843 30.9047 17.0424 30.6233 17.3238C30.3419 17.6052 30.1836 17.9868 30.1833 18.3848ZM19.9545 35.2476C18.735 35.192 18.0722 34.9889 17.6318 34.8172C17.0478 34.5898 16.6312 34.319 16.1931 33.8814C15.7551 33.4438 15.4839 33.0274 15.2576 32.4433C15.0859 32.0029 14.8827 31.3397 14.8273 30.1199C14.7667 28.8012 14.7546 28.405 14.7546 25.0639C14.7546 21.7229 14.7677 21.3278 14.8273 20.008C14.8828 18.7882 15.0875 18.1263 15.2576 17.6846C15.4849 17.1005 15.7557 16.6837 16.1931 16.2455C16.6306 15.8073 17.0468 15.5361 17.6318 15.3097C18.072 15.1379 18.735 14.9347 19.9545 14.8793C21.2729 14.8186 21.6689 14.8065 25.0075 14.8065C28.3461 14.8065 28.7425 14.8196 30.062 14.8793C31.2815 14.9348 31.9432 15.1395 32.3847 15.3097C32.9687 15.5361 33.3853 15.8079 33.8234 16.2455C34.2614 16.6831 34.5316 17.1005 34.7589 17.6846C34.9307 18.125 35.1338 18.7882 35.1892 20.008C35.2498 21.3278 35.2619 21.7229 35.2619 25.0639C35.2619 28.405 35.2498 28.8001 35.1892 30.1199C35.1337 31.3397 34.9296 32.0027 34.7589 32.4433C34.5316 33.0274 34.2608 33.4442 33.8234 33.8814C33.3859 34.3186 32.9687 34.5898 32.3847 34.8172C31.9445 34.989 31.2815 35.1921 30.062 35.2476C28.7436 35.3082 28.3476 35.3204 25.0075 35.3204C21.6674 35.3204 21.2725 35.3082 19.9545 35.2476ZM19.8509 12.6285C18.5194 12.6892 17.6096 12.9003 16.815 13.2096C15.9921 13.529 15.2955 13.9575 14.5994 14.6527C13.9032 15.3479 13.476 16.0458 13.1567 16.869C12.8475 17.6643 12.6364 18.5739 12.5757 19.9058C12.5141 21.2397 12.5 21.6662 12.5 25.0638C12.5 28.4615 12.5141 28.8879 12.5757 30.2219C12.6364 31.5539 12.8475 32.4634 13.1567 33.2587C13.476 34.0814 13.9033 34.7801 14.5994 35.475C15.2954 36.1699 15.9921 36.5978 16.815 36.9181C17.6111 37.2274 18.5194 37.4385 19.8509 37.4992C21.1852 37.5598 21.6109 37.575 25.0075 37.575C28.4041 37.575 28.8305 37.5608 30.1641 37.4992C31.4957 37.4385 32.4049 37.2274 33.2 36.9181C34.0224 36.5978 34.7195 36.1702 35.4156 35.475C36.1118 34.7798 36.5381 34.0814 36.8583 33.2587C37.1675 32.4634 37.3796 31.5538 37.4393 30.2219C37.4999 28.8869 37.514 28.4615 37.514 25.0638C37.514 21.6662 37.4999 21.2397 37.4393 19.9058C37.3786 18.5738 37.1675 17.6638 36.8583 16.869C36.5381 16.0463 36.1107 15.349 35.4156 14.6527C34.7206 13.9564 34.0224 13.529 33.201 13.2096C32.4049 12.9003 31.4956 12.6882 30.1651 12.6285C28.8315 12.5678 28.4051 12.5527 25.0085 12.5527C21.6119 12.5527 21.1852 12.5668 19.8509 12.6285Z" fill="white"/>
</svg>
