<svg width="50" height="50" viewBox="0 0 50 50" fill="none" xmlns="http://www.w3.org/2000/svg">
<path d="M22.5951 24.7223C22.5951 24.7223 24.9614 24.5424 24.9614 21.7085C24.9614 18.8769 23.3565 17.4811 20.9035 17.4811L12.5 17.4678V33.116H21.0989C21.0989 33.116 25.3984 33.2522 25.3984 28.4216C25.3984 28.4216 25.7142 24.7223 22.5951 24.7223ZM15.6269 19.815H19.9263C19.9263 19.815 21.3975 19.8393 21.3975 21.7484C21.3975 23.7271 19.9263 23.7271 19.9263 23.7271H15.6269V19.815ZM20.3172 30.7688H15.6269V26.0743H20.3172C20.3172 26.0743 22.6623 26.0986 22.6623 28.4216C22.6623 30.7445 20.6549 30.7688 20.3172 30.7688Z" fill="white"/>
<path d="M32.0435 21.3799C26.1704 21.3799 26.1806 27.248 26.1806 27.248C26.1806 27.248 25.7897 33.1161 32.0435 33.1161C32.0435 33.1161 37.5155 33.1161 37.5155 28.4216H34.3887C34.3887 28.4216 34.3887 30.7688 32.0435 30.7688C32.0435 30.7688 29.6983 30.7688 29.6983 27.6392C29.6983 27.6392 35.9521 27.6392 37.5155 27.6392C37.5155 26.0744 37.5155 21.3799 32.0435 21.3799ZM29.6983 26.0744C29.6983 26.0744 29.6467 23.7271 32.0435 23.7271C34.4395 23.7271 34.3887 26.0744 34.3887 26.0744H29.6983Z" fill="white"/>
<path d="M35.1707 19.0332H28.917V20.598H35.1707V19.0332Z" fill="white"/>
</svg>
