<svg width="40" height="40" viewBox="0 0 40 40" fill="none" xmlns="http://www.w3.org/2000/svg">
<path d="M21.6667 8.33333H26.6667C27.1087 8.33333 27.5326 8.50893 27.8452 8.82149C28.1577 9.13405 28.3333 9.55797 28.3333 10V16.6667M11.6667 8.33333H6.66667C6.22464 8.33333 5.80072 8.50893 5.48816 8.82149C5.17559 9.13405 5 9.55797 5 10V33.3333C5 33.7754 5.17559 34.1993 5.48816 34.5118C5.80072 34.8244 6.22464 35 6.66667 35H26.6667C27.1087 35 27.5326 34.8244 27.8452 34.5118C28.1577 34.1993 28.3333 33.7754 28.3333 33.3333V26.6667M21.6667 6.66667C21.6667 6.22464 21.4911 5.80072 21.1785 5.48816C20.866 5.17559 20.442 5 20 5H13.3333C12.8913 5 12.4674 5.17559 12.1548 5.48816C11.8423 5.80072 11.6667 6.22464 11.6667 6.66667V11.6667H21.6667V6.66667ZM34.5167 17.8167L32.1833 15.4833C31.8718 15.178 31.4529 15.0069 31.0167 15.0069C30.5804 15.0069 30.1615 15.178 29.85 15.4833L21.6667 23.6667V28.3333H26.3333L34.5167 20.15C34.822 19.8385 34.9931 19.4196 34.9931 18.9833C34.9931 18.5471 34.822 18.1282 34.5167 17.8167Z" stroke="white" stroke-linecap="round" stroke-linejoin="round"/>
</svg>
