<svg width="40" height="40" viewBox="0 0 40 40" fill="none" xmlns="http://www.w3.org/2000/svg">
<path d="M26.4 23.6338C27.2382 25.5521 27.4446 27.6874 26.9892 29.7307C26.5338 31.7741 25.4402 33.6196 23.8667 35.0005L19.1667 30.3005" stroke="white" stroke-linecap="round" stroke-linejoin="round"/>
<path d="M16.3667 13.5998C14.4483 12.7616 12.3131 12.5553 10.2697 13.0107C8.22637 13.4661 6.38083 14.5597 5 16.1332L9.7 20.8332" stroke="white" stroke-linecap="round" stroke-linejoin="round"/>
<path d="M17.8167 31.3168C31.15 21.6335 34.2833 11.3168 34.9833 6.9168C35.026 6.65696 35.0064 6.39071 34.9262 6.13988C34.8461 5.88906 34.7077 5.66079 34.5223 5.47378C34.3369 5.28678 34.1099 5.14636 33.8597 5.06403C33.6096 4.9817 33.3436 4.9598 33.0833 5.00014C28.7333 5.7168 18.3333 8.78347 8.68334 22.1835L17.8167 31.3168ZM14.4833 32.6501L16.85 30.2835L9.71668 23.2001L7.35001 25.5668C7.03959 25.8791 6.86536 26.3015 6.86536 26.7418C6.86536 27.1821 7.03959 27.6045 7.35001 27.9168L12.0833 32.6501C12.3956 32.9606 12.818 33.1348 13.2583 33.1348C13.6987 33.1348 14.1211 32.9606 14.4333 32.6501H14.4833Z" stroke="white" stroke-linecap="round" stroke-linejoin="round"/>
</svg>
