<svg width="160" height="160" viewBox="0 0 160 160" fill="none" xmlns="http://www.w3.org/2000/svg">
<path d="M80 144C115.346 144 144 115.346 144 80C144 44.6538 115.346 16 80 16C44.6538 16 16 44.6538 16 80C16 115.346 44.6538 144 80 144Z" stroke="white"/>
<path d="M71.8068 79.9999C71.8068 75.4762 75.4752 71.808 80.0016 71.808C84.5281 71.808 88.1984 75.4762 88.1984 79.9999C88.1984 84.5236 84.5281 88.1917 80.0016 88.1917C75.4752 88.1917 71.8068 84.5236 71.8068 79.9999ZM67.3758 79.9999C67.3758 86.9689 73.0284 92.6181 80.0016 92.6181C86.9749 92.6181 92.6274 86.9689 92.6274 79.9999C92.6274 73.0308 86.9749 67.3816 80.0016 67.3816C73.0284 67.3816 67.3758 73.0308 67.3758 79.9999ZM90.1767 66.8813C90.1764 67.4645 90.3493 68.0347 90.6733 68.5198C90.9973 69.0049 91.458 69.383 91.997 69.6064C92.5361 69.8298 93.1293 69.8884 93.7018 69.7749C94.2742 69.6613 94.8 69.3807 95.2128 68.9685C95.6256 68.5562 95.9069 68.0309 96.0209 67.4589C96.135 66.887 96.0768 66.294 95.8537 65.7551C95.6306 65.2162 95.2526 64.7555 94.7675 64.4313C94.2824 64.1071 93.712 63.9339 93.1285 63.9337H93.1273C92.345 63.934 91.5949 64.2447 91.0417 64.7973C90.4885 65.35 90.1774 66.0996 90.1767 66.8813V66.8813ZM70.068 100.002C67.6707 99.8931 66.3677 99.494 65.5018 99.1568C64.3538 98.7102 63.5348 98.1782 62.6736 97.3187C61.8124 96.4592 61.2793 95.6414 60.8344 94.4941C60.4968 93.6292 60.0975 92.3266 59.9885 89.9307C59.8693 87.3405 59.8455 86.5624 59.8455 80.0001C59.8455 73.4377 59.8713 72.6618 59.9885 70.0694C60.0977 67.6736 60.5 66.3735 60.8344 65.506C61.2813 64.3587 61.8136 63.5401 62.6736 62.6794C63.5336 61.8188 64.3519 61.286 65.5018 60.8413C66.3673 60.504 67.6707 60.1049 70.068 59.996C72.6598 59.8769 73.4383 59.8531 80.0016 59.8531C86.5649 59.8531 87.3443 59.8788 89.9383 59.996C92.3355 60.1051 93.6364 60.5071 94.5044 60.8413C95.6524 61.286 96.4715 61.8199 97.3327 62.6794C98.1938 63.5389 98.725 64.3587 99.1719 65.506C99.5094 66.371 99.9087 67.6736 100.018 70.0694C100.137 72.6618 100.161 73.4377 100.161 80.0001C100.161 86.5624 100.137 87.3383 100.018 89.9307C99.9085 92.3266 99.5073 93.6288 99.1719 94.4941C98.725 95.6414 98.1927 96.46 97.3327 97.3187C96.4727 98.1774 95.6524 98.7102 94.5044 99.1568C93.6389 99.4942 92.3355 99.8932 89.9383 100.002C87.3465 100.121 86.5679 100.145 80.0016 100.145C73.4354 100.145 72.659 100.121 70.068 100.002V100.002ZM69.8644 55.5751C67.2468 55.6943 65.4581 56.1091 63.8961 56.7165C62.2784 57.3438 60.9089 58.1854 59.5404 59.5509C58.1719 60.9164 57.332 62.2872 56.7043 63.904C56.0965 65.4661 55.6814 67.2527 55.5622 69.8687C55.4411 72.4888 55.4133 73.3265 55.4133 79.9999C55.4133 86.6733 55.4411 87.5109 55.5622 90.1311C55.6814 92.7473 56.0965 94.5337 56.7043 96.0957C57.332 97.7115 58.1721 99.0839 59.5404 100.449C60.9087 101.814 62.2784 102.654 63.8961 103.283C65.4611 103.891 67.2468 104.305 69.8644 104.425C72.4875 104.544 73.3242 104.573 80.0016 104.573C86.679 104.573 87.5172 104.546 90.1389 104.425C92.7567 104.305 94.5442 103.891 96.1072 103.283C97.7239 102.654 99.0944 101.814 100.463 100.449C101.831 99.0833 102.67 97.7115 103.299 96.0957C103.907 94.5337 104.324 92.7471 104.441 90.1311C104.56 87.509 104.588 86.6733 104.588 79.9999C104.588 73.3265 104.56 72.4888 104.441 69.8687C104.322 67.2525 103.907 65.4651 103.299 63.904C102.67 62.2882 101.829 60.9186 100.463 59.5509C99.0965 58.1833 97.7239 57.3438 96.1092 56.7165C94.5442 56.1091 92.7565 55.6923 90.1409 55.5751C87.5192 55.456 86.681 55.4263 80.0036 55.4263C73.3262 55.4263 72.4875 55.454 69.8644 55.5751Z" fill="url(#paint0_radial_2010_581)"/>
<path d="M71.8068 79.9999C71.8068 75.4762 75.4752 71.808 80.0016 71.808C84.5281 71.808 88.1984 75.4762 88.1984 79.9999C88.1984 84.5236 84.5281 88.1917 80.0016 88.1917C75.4752 88.1917 71.8068 84.5236 71.8068 79.9999ZM67.3758 79.9999C67.3758 86.9689 73.0284 92.6181 80.0016 92.6181C86.9749 92.6181 92.6274 86.9689 92.6274 79.9999C92.6274 73.0308 86.9749 67.3816 80.0016 67.3816C73.0284 67.3816 67.3758 73.0308 67.3758 79.9999ZM90.1767 66.8813C90.1764 67.4645 90.3493 68.0347 90.6733 68.5198C90.9973 69.0049 91.458 69.383 91.997 69.6064C92.5361 69.8298 93.1293 69.8884 93.7018 69.7749C94.2742 69.6613 94.8 69.3807 95.2128 68.9685C95.6256 68.5562 95.9069 68.0309 96.0209 67.4589C96.135 66.887 96.0768 66.294 95.8537 65.7551C95.6306 65.2162 95.2526 64.7555 94.7675 64.4313C94.2824 64.1071 93.712 63.9339 93.1285 63.9337H93.1273C92.345 63.934 91.5949 64.2447 91.0417 64.7973C90.4885 65.35 90.1774 66.0996 90.1767 66.8813V66.8813ZM70.068 100.002C67.6707 99.8931 66.3677 99.494 65.5018 99.1568C64.3538 98.7102 63.5348 98.1782 62.6736 97.3187C61.8124 96.4592 61.2793 95.6414 60.8344 94.4941C60.4968 93.6292 60.0975 92.3266 59.9885 89.9307C59.8693 87.3405 59.8455 86.5624 59.8455 80.0001C59.8455 73.4377 59.8713 72.6618 59.9885 70.0694C60.0977 67.6736 60.5 66.3735 60.8344 65.506C61.2813 64.3587 61.8136 63.5401 62.6736 62.6794C63.5336 61.8188 64.3519 61.286 65.5018 60.8413C66.3673 60.504 67.6707 60.1049 70.068 59.996C72.6598 59.8769 73.4383 59.8531 80.0016 59.8531C86.5649 59.8531 87.3443 59.8788 89.9383 59.996C92.3355 60.1051 93.6364 60.5071 94.5044 60.8413C95.6524 61.286 96.4715 61.8199 97.3327 62.6794C98.1938 63.5389 98.725 64.3587 99.1719 65.506C99.5094 66.371 99.9087 67.6736 100.018 70.0694C100.137 72.6618 100.161 73.4377 100.161 80.0001C100.161 86.5624 100.137 87.3383 100.018 89.9307C99.9085 92.3266 99.5073 93.6288 99.1719 94.4941C98.725 95.6414 98.1927 96.46 97.3327 97.3187C96.4727 98.1774 95.6524 98.7102 94.5044 99.1568C93.6389 99.4942 92.3355 99.8932 89.9383 100.002C87.3465 100.121 86.5679 100.145 80.0016 100.145C73.4354 100.145 72.659 100.121 70.068 100.002V100.002ZM69.8644 55.5751C67.2468 55.6943 65.4581 56.1091 63.8961 56.7165C62.2784 57.3438 60.9089 58.1854 59.5404 59.5509C58.1719 60.9164 57.332 62.2872 56.7043 63.904C56.0965 65.4661 55.6814 67.2527 55.5622 69.8687C55.4411 72.4888 55.4133 73.3265 55.4133 79.9999C55.4133 86.6733 55.4411 87.5109 55.5622 90.1311C55.6814 92.7473 56.0965 94.5337 56.7043 96.0957C57.332 97.7115 58.1721 99.0839 59.5404 100.449C60.9087 101.814 62.2784 102.654 63.8961 103.283C65.4611 103.891 67.2468 104.305 69.8644 104.425C72.4875 104.544 73.3242 104.573 80.0016 104.573C86.679 104.573 87.5172 104.546 90.1389 104.425C92.7567 104.305 94.5442 103.891 96.1072 103.283C97.7239 102.654 99.0944 101.814 100.463 100.449C101.831 99.0833 102.67 97.7115 103.299 96.0957C103.907 94.5337 104.324 92.7471 104.441 90.1311C104.56 87.509 104.588 86.6733 104.588 79.9999C104.588 73.3265 104.56 72.4888 104.441 69.8687C104.322 67.2525 103.907 65.4651 103.299 63.904C102.67 62.2882 101.829 60.9186 100.463 59.5509C99.0965 58.1833 97.7239 57.3438 96.1092 56.7165C94.5442 56.1091 92.7565 55.6923 90.1409 55.5751C87.5192 55.456 86.681 55.4263 80.0036 55.4263C73.3262 55.4263 72.4875 55.454 69.8644 55.5751Z" fill="url(#paint1_radial_2010_581)"/>
<defs>
<radialGradient id="paint0_radial_2010_581" cx="0" cy="0" r="1" gradientUnits="userSpaceOnUse" gradientTransform="translate(61.9467 104.806) scale(64.1959 64.1575)">
<stop offset="0.09" stop-color="#FA8F21"/>
<stop offset="0.78" stop-color="#D82D7E"/>
</radialGradient>
<radialGradient id="paint1_radial_2010_581" cx="0" cy="0" r="1" gradientUnits="userSpaceOnUse" gradientTransform="translate(85.2368 107.007) scale(50.5953 50.5649)">
<stop offset="0.64" stop-color="#8C3AAA" stop-opacity="0"/>
<stop offset="1" stop-color="#8C3AAA"/>
</radialGradient>
</defs>
</svg>
