<svg width="160" height="160" viewBox="0 0 160 160" fill="none" xmlns="http://www.w3.org/2000/svg">
<path d="M80 144C115.346 144 144 115.346 144 80C144 44.6538 115.346 16 80 16C44.6538 16 16 44.6538 16 80C16 115.346 44.6538 144 80 144Z" stroke="white"/>
<path d="M77.7988 57.6507C70.494 58.4854 63.215 64.5354 62.9145 73.1775C62.7257 78.4542 64.1892 82.4128 69.0949 83.5244C71.2237 79.68 68.4082 78.832 67.9704 76.0509C66.1721 64.654 80.8118 56.8818 88.4728 64.8385C93.7733 70.3481 90.284 87.2984 81.7345 85.5366C73.5456 83.8539 85.7431 70.3612 79.2066 67.7119C73.8932 65.5591 71.0691 74.2979 73.5885 78.6387C72.1121 86.1034 68.9318 93.1375 70.2194 102.5C74.3954 99.3983 75.8031 93.4582 76.9576 87.2633C79.0564 88.5682 80.1765 89.9258 82.8547 90.1367C92.7303 90.9187 98.2454 80.0447 96.8978 70.0141C95.7003 61.1216 87.0307 56.5962 77.7988 57.6507Z" fill="#FF0000"/>
</svg>
