<svg width="160" height="160" viewBox="0 0 160 160" fill="none" xmlns="http://www.w3.org/2000/svg">
<path d="M80 144C115.346 144 144 115.346 144 80C144 44.6538 115.346 16 80 16C44.6538 16 16 44.6538 16 80C16 115.346 44.6538 144 80 144Z" stroke="white"/>
<path d="M105.032 67.6211C104.444 65.412 102.706 63.6693 100.494 63.072C96.4954 62.0002 80.4509 62.0002 80.4509 62.0002C80.4509 62.0002 64.4146 62.0002 60.4075 63.072C58.204 63.6611 56.4657 65.4038 55.87 67.6211C54.8009 71.6302 54.8009 80.0002 54.8009 80.0002C54.8009 80.0002 54.8009 88.3702 55.87 92.3793C56.4576 94.5884 58.1959 96.3311 60.4075 96.9284C64.4146 98.0002 80.4509 98.0002 80.4509 98.0002C80.4509 98.0002 96.4954 98.0002 100.494 96.9284C102.698 96.3393 104.436 94.5966 105.032 92.3793C106.101 88.3702 106.101 80.0002 106.101 80.0002C106.101 80.0002 106.101 71.6302 105.032 67.6211Z" fill="#FF3000"/>
<path d="M75.3258 87.7157L88.6527 80.0002L75.3258 72.2848V87.7157Z" fill="white"/>
</svg>
