<svg width="160" height="160" viewBox="0 0 160 160" fill="none" xmlns="http://www.w3.org/2000/svg">
<path d="M80 144C115.346 144 144 115.346 144 80C144 44.6538 115.346 16 80 16C44.6538 16 16 44.6538 16 80C16 115.346 44.6538 144 80 144Z" stroke="white"/>
<path d="M90.529 82.8106L91.8113 74.6704H83.9122V69.3793C83.9122 67.1535 85.015 64.9785 88.5414 64.9785H92.1832V58.0466C90.0624 57.7087 87.9194 57.5259 85.7716 57.4997C79.2702 57.4997 75.0257 61.4044 75.0257 68.4635V74.6704H67.8191V82.8106H75.0257V102.5H83.9122V82.8106H90.529Z" fill="#337FFF"/>
</svg>
