<svg width="40" height="40" viewBox="0 0 40 40" fill="none" xmlns="http://www.w3.org/2000/svg">
<path d="M28.1668 21.6673C27.8654 23.1422 27.17 24.5078 26.1547 25.6192C25.1394 26.7306 23.842 27.5462 22.4003 27.9794C20.9586 28.4125 19.4265 28.4471 17.9668 28.0794C16.507 27.7117 15.1742 26.9555 14.1097 25.8911C13.0453 24.8266 12.2891 23.4937 11.9214 22.034C11.5537 20.5743 11.5882 19.0422 12.0214 17.6005C12.4546 16.1588 13.2702 14.8614 14.3816 13.8461C15.493 12.8308 16.8586 12.1354 18.3335 11.834" stroke="white" stroke-linecap="round" stroke-linejoin="round"/>
<path d="M25 15L20.8333 19.1667M25 15V10L30 5V10H35L30 15H25ZM20.55 5H20C17.0333 5 14.1332 5.87973 11.6665 7.52796C9.19972 9.17618 7.27713 11.5189 6.14181 14.2597C5.0065 17.0006 4.70945 20.0166 5.28823 22.9264C5.86701 25.8361 7.29562 28.5088 9.3934 30.6066C11.4912 32.7044 14.1639 34.133 17.0737 34.7118C19.9834 35.2906 22.9994 34.9935 25.7403 33.8582C28.4811 32.7229 30.8238 30.8003 32.4721 28.3336C34.1203 25.8668 35 22.9667 35 20C35 19.8167 35 19.6333 35 19.45" stroke="white" stroke-linecap="round" stroke-linejoin="round"/>
</svg>
