<svg width="260" height="70" viewBox="0 0 260 70" fill="none" xmlns="http://www.w3.org/2000/svg">
<g clip-path="url(#clip0_11012_6186)">
<path d="M77.8834 48.4731L80.5013 48.0541V29.6491L77.8834 29.2428V28.4121H93.2079V33.431H92.2059L91.7197 30.0518C90.0894 29.8832 88.4503 29.8105 86.8112 29.8342H83.4741V37.9764H88.9872L89.4623 35.4842H90.4385V41.8997H89.4623L88.9872 39.3731H83.4408V47.8981H87.4656C89.1891 47.9512 90.9141 47.8675 92.6237 47.6478L93.4908 43.7825H94.4947L94.2044 49.2983H77.8834V48.4731Z" fill="white"/>
<path d="M100.871 48.0541L103.402 48.4731V49.2983H96.7261V48.4731L98.9779 48.0541L105.935 38.6131L100.019 29.6383L97.717 29.232V28.4121H106.164V29.2374L103.576 29.6437L107.784 36.0955L112.524 29.6473L109.965 29.241V28.4157H116.658V29.241L114.406 29.6473L108.662 37.4468L115.687 48.0432L118.004 48.4622V49.2929H109.586V48.4676L112.174 48.0486L106.813 39.9517L100.871 48.0541Z" fill="white"/>
<path d="M4.23185 49.2983V48.1828L7.50418 47.7584V30.0627H6.70181C5.05985 30.0123 3.41676 30.1168 1.79516 30.3747L1.38473 34.2817H0V28.4121H19.8522V34.2508H18.4489L18.0348 30.3475C16.3829 30.107 14.7122 30.0135 13.0431 30.0681H12.3036V47.7421L15.5297 48.1665V49.282L4.23185 49.2983Z" fill="white"/>
<path d="M54.5481 47.5226L65.8478 30.0609H62.1928C60.5594 30.0117 58.9249 30.1168 57.312 30.3747L56.8387 33.6595H55.4799V28.4121H71.2407V30.0845L59.8874 47.6786H64.1525C65.2949 47.6799 66.4365 47.6224 67.5727 47.5063C68.3878 47.4385 69.1982 47.3253 70.0002 47.1671L70.8987 43.1767H72.2871L71.8711 49.311H54.5481V47.5226Z" fill="white"/>
<path d="M33.6071 38.7266L31.3885 44.2896C35.22 47.5169 39.9703 49.5103 44.9955 49.9995L47.3361 44.5127C44.7861 44.5006 42.2642 43.9889 39.9184 43.0078C37.5726 42.0267 35.4501 40.5958 33.6755 38.7991C33.6478 38.7755 33.6293 38.752 33.6071 38.7266Z" fill="white"/>
<path d="M27.9849 24.9258L22.5015 27.2838C22.9428 32.2787 24.8853 37.0328 28.0829 40.9437L33.6034 38.7236C29.9649 35.0212 27.9482 30.0686 27.9849 24.9258Z" fill="white"/>
<path d="M33.6774 11.2136L33.7217 11.1682L28.1754 8.94629C24.9535 12.837 22.9813 17.5785 22.5089 22.57L27.9776 24.9189C27.9865 19.7966 30.0313 14.8798 33.6774 11.2136Z" fill="white"/>
<path d="M61.1482 11.1949L63.3668 5.64645C59.5456 2.45936 54.8232 0.493703 49.8319 0.0126953L47.4913 5.50134C50.0394 5.51104 52.5598 6.01963 54.9049 6.9973C57.25 7.97498 59.3726 9.40208 61.1482 11.1949Z" fill="white"/>
<path d="M33.7273 11.1623C35.5183 9.36359 37.659 7.93577 40.0226 6.96339C42.3862 5.99101 44.9247 5.49385 47.4877 5.50134L45.1379 0C40.1164 0.459211 35.3603 2.4222 31.5143 5.62287L33.7273 11.1623Z" fill="white"/>
<path d="M61.1668 11.213C64.8383 14.908 66.8826 19.8706 66.8592 25.0308L72.3371 22.6728C71.8827 17.6628 69.9178 12.8991 66.6928 8.98926L61.1631 11.2094L61.1668 11.213Z" fill="white"/>
</g>
<defs>
<clipPath id="clip0_11012_6186">
<rect width="118" height="50" fill="white"/>
</clipPath>
</defs>
</svg>
