<svg width="260" height="70" viewBox="0 0 260 70" fill="none" xmlns="http://www.w3.org/2000/svg">
<g clip-path="url(#clip0_10904_1780)">
<path d="M22.3959 29.48C22.7584 27.522 22.9781 25.6003 23.0616 23.6918H27.227C25.6068 25.2901 23.9514 27.3163 22.3959 29.48ZM5.7286 20.3082C9.66557 16.423 13.8332 9.9836 16.2048 5.2822C18.3139 10.7536 19.4783 15.5672 19.698 20.3082H5.7286ZM16.2016 38.7134C13.8277 34.012 9.66667 27.5748 5.7275 23.6918H19.6936C19.4662 28.4141 18.3008 33.2277 16.2016 38.7134ZM27.2248 20.3082H23.0638C22.9825 18.3752 22.7659 16.4502 22.4157 14.5475C23.9645 16.7024 25.6134 18.7176 27.2248 20.3082ZM18.1689 0.0066L14.7878 0C14.7439 1.0681 12.325 6.0313 8.63739 11.3718C4.10833 17.9278 0.991932 20.3082 0 20.3082V23.6907C3.61841 23.6907 14.6681 41.0707 14.7878 43.9945L18.1689 44C18.2129 42.9308 20.6295 37.9698 24.3194 32.6282C28.8462 26.0711 31.9637 23.6907 32.9556 23.6907V20.3082C29.3383 20.3082 18.2876 2.9282 18.1689 0.0066Z" fill="white"/>
<path d="M46.7735 4.8697L43.0232 6.0016V8.7274H40.6439V12.3343H43.0232V17.8981C43.0232 19.701 43.4253 20.9 44.2909 21.6711C45.0741 22.3685 46.244 22.7095 47.9104 22.7095C48.4706 22.7095 49.088 22.6699 49.7646 22.594L49.8635 22.583V19.173L49.746 19.1796C48.464 19.2489 47.5226 19.2665 47.0876 18.8551C46.8734 18.6527 46.7735 18.3491 46.7735 17.8992V12.3354H49.8635V8.7274H46.7735V4.8697ZM55.2329 10.6667V8.7274H51.4816V22.594H55.2329V15.961C55.2329 14.6806 55.6284 13.7918 56.4412 13.2418C57.2651 12.6852 58.2153 12.4718 59.2632 12.6049L59.3896 12.6214V8.4546H59.2775C57.4452 8.4546 55.9711 9.273 55.2329 10.6667ZM62.9541 2.7522C61.7227 2.7522 60.6814 3.8038 60.6814 5.0468C60.6814 6.2766 61.7217 7.315 62.9541 7.315C64.2218 7.315 65.2533 6.2975 65.2533 5.0468C65.2533 3.8038 64.2009 2.7522 62.9541 2.7522ZM64.8424 8.7285H61.0911V22.594H64.8424V8.7285ZM75.3231 8.3468C73.4941 8.3468 72.043 8.9496 71.0038 10.1398V8.7274H67.2525V28.0544H71.0038V21.1849C72.0441 22.3751 73.4941 22.9779 75.322 22.9779C77.2048 22.9779 78.8152 22.2684 80.1059 20.8692C81.4329 19.4634 82.1051 17.7122 82.1051 15.6629C82.1051 13.6334 81.4329 11.891 80.1059 10.4841C78.7987 9.0651 77.1883 8.3479 75.322 8.3479L75.3231 8.3468ZM74.6651 11.9251C75.746 11.9251 76.605 12.2716 77.2949 12.9855C77.9979 13.662 78.3549 14.5618 78.3549 15.6607C78.3549 16.7695 78.0067 17.6528 77.2938 18.3667C76.6072 19.0509 75.7229 19.3974 74.6662 19.3974C73.6084 19.3974 72.7241 19.0498 72.0397 18.3667C71.3521 17.655 71.0038 16.7453 71.0038 15.6607C71.0038 14.5695 71.3521 13.6697 72.0386 12.9822C72.7263 12.2716 73.5853 11.9262 74.6651 11.9262V11.9251ZM99.0174 8.3468C97.2379 8.3468 95.8691 8.9782 94.9486 10.2223C94.1335 8.9771 92.8813 8.3468 91.2248 8.3468C89.5858 8.3468 88.3753 8.8693 87.5338 9.9418V8.7274H83.7836V22.594H87.5349V14.8148C87.5349 12.9536 88.4544 11.8426 89.9934 11.8426C91.3829 11.8426 92.1793 12.7468 92.1793 14.3242V22.594H95.9296V14.8148C95.9296 12.8975 96.793 11.8426 98.3616 11.8426C99.7501 11.8426 100.548 12.7468 100.548 14.3242V22.594H104.298V14.08C104.298 10.5963 102.225 8.3468 99.0174 8.3468ZM113.179 8.3468C111.025 8.3468 109.25 9.0552 107.904 10.4544C106.54 11.8426 105.849 13.5949 105.849 15.6618C105.849 17.7562 106.55 19.5184 107.933 20.8978C109.315 22.2772 111.172 22.9768 113.454 22.9768C116.109 22.9768 118.145 21.9791 119.506 20.009L119.576 19.91L116.542 18.1632L116.482 18.2424C115.817 19.1191 114.816 19.5624 113.508 19.5624C111.497 19.5624 110.282 18.7957 109.8 17.2194H120.057L120.072 17.1259C120.157 16.6419 120.203 16.1535 120.209 15.6629C120.209 13.585 119.556 11.8811 118.211 10.4566C116.918 9.0563 115.226 8.3468 113.179 8.3468ZM113.179 11.7348C114.819 11.7348 116.025 12.6786 116.429 14.2681H109.74C110.174 12.6566 111.419 11.7348 113.179 11.7348ZM129.624 8.3457C127.863 8.3457 126.532 8.9089 125.662 10.021V8.7285H121.911V22.594H125.662V15.114C125.662 13.0042 126.69 11.8426 128.558 11.8426C130.208 11.8426 131.154 12.826 131.154 14.5409V22.5929H134.905V14.1053C134.905 12.3024 134.412 10.9208 133.398 9.8802C132.431 8.8616 131.161 8.3446 129.624 8.3446V8.3457ZM145 12.3354V8.7274H141.91V4.8697L138.159 6.0016V8.7274H135.78V12.3343H138.159V17.8981C138.159 19.701 138.562 20.9 139.427 21.6711C140.209 22.3685 141.38 22.7095 143.047 22.7095C143.607 22.7095 144.223 22.6699 144.901 22.594L145 22.583V19.173L144.882 19.1796C143.601 19.2489 142.658 19.2665 142.223 18.8551C142.009 18.6527 141.909 18.3491 141.909 17.8992V12.3354H145ZM47.0009 31.2466C45.7156 31.2466 44.7687 31.6822 44.1821 32.5721V27.7244H41.7424V40.9838H44.1821V35.8688C44.1821 34.2969 44.995 33.5203 46.2638 33.5203C47.3985 33.5203 48.1356 34.2023 48.1356 35.4717V40.9838H50.5764V35.1692C50.5764 33.9372 50.2359 32.9912 49.5548 32.2894C48.8924 31.5887 48.0411 31.2466 47.0009 31.2466ZM61.413 37.2504C61.4712 36.9193 61.502 36.5838 61.5074 36.2472C61.5074 34.8271 61.0538 33.6512 60.1453 32.6865C59.2566 31.7196 58.1021 31.2455 56.7213 31.2455C55.2648 31.2455 54.0542 31.7196 53.1282 32.6865C52.2011 33.6325 51.7276 34.826 51.7276 36.2472C51.7276 37.6871 52.2 38.8806 53.1469 39.8277C54.0916 40.7737 55.3405 41.2478 56.9114 41.2478C58.7272 41.2478 60.108 40.5658 61.0351 39.2216L59.0677 38.0842C58.5954 38.7101 57.8759 39.0313 56.9487 39.0313C55.4921 39.0313 54.6035 38.445 54.2816 37.2515H61.413V37.2504ZM54.2443 35.3584C54.5277 34.1462 55.4163 33.4444 56.7213 33.4444C57.8374 33.4444 58.7832 34.0703 59.0677 35.3584H54.2443ZM69.8856 32.6293C69.1474 31.7009 68.1258 31.2466 66.8021 31.2466C65.5345 31.2466 64.4569 31.7394 63.5484 32.7052C62.6587 33.671 62.205 34.8458 62.205 36.2472C62.205 37.6486 62.6598 38.8432 63.5484 39.8079C64.4569 40.7748 65.5345 41.2489 66.8021 41.2489C68.1258 41.2489 69.1474 40.7935 69.8856 39.8651V40.9827H72.3253V31.5117H69.8856V32.6293ZM65.3829 38.1799C64.8919 37.6673 64.6458 37.0238 64.6458 36.2472C64.6458 35.4706 64.8919 34.8271 65.3829 34.3332C65.875 33.8228 66.499 33.5764 67.2558 33.5764C68.0127 33.5764 68.6366 33.8228 69.1287 34.3343C69.6395 34.826 69.8856 35.4706 69.8856 36.2472C69.8856 37.0238 69.6395 37.6673 69.1287 38.1799C68.6366 38.6716 68.0127 38.918 67.2558 38.918C66.499 38.918 65.875 38.6727 65.3829 38.1799ZM76.5391 40.9827V27.1557H74.0983V40.9827H76.5391ZM83.7419 31.5117H81.6042V28.8607L79.1645 29.5977V31.5117H77.519V33.8602H79.1645V37.8004C79.1645 40.3964 80.3948 41.3611 83.7419 40.9827V38.7662C82.3424 38.8432 81.6042 38.8234 81.6042 37.8004V33.8602H83.7419V31.5117ZM90.2812 31.2466C88.9959 31.2466 88.049 31.6822 87.4624 32.5721V27.7244H85.0227V40.9838H87.4624V35.8688C87.4624 34.2969 88.2753 33.5203 89.5441 33.5203C90.6788 33.5203 91.4159 34.2023 91.4159 35.4717V40.9838H93.8567V35.1692C93.8567 33.9372 93.5162 32.9912 92.8351 32.2894C92.1727 31.5887 91.3214 31.2466 90.2812 31.2466Z" fill="white"/>
</g>
<defs>
<clipPath id="clip0_10904_1780">
<rect width="145" height="44" fill="white"/>
</clipPath>
</defs>
</svg>
