<svg width="260" height="70" viewBox="0 0 260 70" fill="none" xmlns="http://www.w3.org/2000/svg">
<g clip-path="url(#clip0_11012_15575)">
<path d="M32.7662 30.8086H26.6025V25.3055H32.7662V30.8086ZM26.6025 41.2407H32.784V35.7332H26.6025V41.2407ZM48.4362 11V59H0V11H48.4362ZM37.74 24.1616L33.9205 20.3544H21.602V44.9198H15.4427V24.0335H10.4467V46.0813L14.2617 49.8664H22.783L26.4955 46.1918H33.9383L37.7578 42.4067V34.629L36.4208 33.304L37.7578 31.9525L37.74 24.1616Z" fill="white"/>
<path d="M61.4322 42.5306C60.2913 41.3558 59.7208 39.5538 59.7208 37.1246V27.3418H63.4511V37.5001C63.4511 38.8162 63.7304 39.7746 64.289 40.3753C64.8476 40.976 65.7033 41.2704 66.8561 41.2586C68.0149 41.2586 68.8721 40.9642 69.4277 40.3753C69.9714 39.7614 70.2433 38.8251 70.2433 37.5001V27.3418H73.9067V37.1246C73.9067 39.5538 73.3363 41.3558 72.1953 42.5306C71.0544 43.7054 69.2717 44.2943 66.8472 44.2973C64.39 44.2943 62.585 43.7054 61.4322 42.5306Z" fill="white"/>
<path d="M90.2407 27.3418H93.7438V44.0764H90.0001L82.6553 32.8582V44.0764H79.1478V27.3418H82.896L90.2407 38.5601V27.3418Z" fill="white"/>
<path d="M99.0652 44.0764V27.3418H102.791V44.0764H99.0652Z" fill="white"/>
<path d="M120.377 36.749C120.968 37.5044 121.263 38.4451 121.211 39.399C121.245 40.3621 120.954 41.309 120.382 42.0887C119.687 42.9006 118.751 43.4741 117.708 43.7273C116.129 44.1459 114.497 44.3348 112.863 44.2882C112.15 44.2882 111.357 44.2573 110.483 44.1998C109.61 44.1424 108.817 44.0585 108.104 43.9613V27.6993C108.975 27.5073 109.855 27.3599 110.742 27.2576C111.667 27.1535 112.597 27.1004 113.527 27.0986C116.023 27.0986 117.849 27.4814 119.005 28.247C120.161 29.0125 120.737 30.1903 120.734 31.7803C120.754 32.6056 120.505 33.4154 120.025 34.0902C119.537 34.7458 118.835 35.2139 118.038 35.4152C118.951 35.5757 119.778 36.0475 120.377 36.749ZM111.754 29.9915V34.1211H114.151C115.266 34.1211 116.06 33.9459 116.536 33.5955C116.779 33.3999 116.972 33.1486 117.096 32.8632C117.22 32.5778 117.273 32.2668 117.249 31.9569C117.27 31.5207 117.158 31.0884 116.928 30.7159C116.676 30.3715 116.313 30.1236 115.898 30.0136C115.283 29.8408 114.644 29.7634 114.004 29.7839C113.249 29.7841 112.496 29.8536 111.754 29.9915ZM116.179 41.3025C116.658 41.2123 117.086 40.9481 117.379 40.5616C117.671 40.1752 117.808 39.6944 117.761 39.2135C117.789 38.8801 117.735 38.5451 117.603 38.2372C117.471 37.9294 117.265 37.6581 117.004 37.4468C116.496 37.0758 115.667 36.8903 114.517 36.8903H111.754V41.4748C112.453 41.5409 113.155 41.5704 113.857 41.5631C114.639 41.5893 115.42 41.5075 116.179 41.3202V41.3025Z" fill="white"/>
<path d="M135.58 44.0762L131.261 37.9415H131.056C130.521 37.9415 129.933 37.9415 129.273 37.8841V44.0674H125.605V27.6993C126.414 27.5256 127.274 27.3784 128.186 27.2576C129.085 27.1525 129.99 27.0994 130.896 27.0986C133.338 27.0986 135.168 27.5403 136.386 28.4236C137.604 29.307 138.214 30.6584 138.214 32.4781C138.245 33.5503 137.933 34.6048 137.322 35.4902C136.69 36.3405 135.812 36.9798 134.804 37.3231L139.631 44.0762H135.58ZM129.287 35.0883C129.896 35.1559 130.509 35.1898 131.123 35.1899C132.359 35.1899 133.27 34.9794 133.855 34.5583C134.162 34.3154 134.403 34.0014 134.559 33.6441C134.714 33.2867 134.779 32.8969 134.746 32.509C134.779 32.1288 134.721 31.7461 134.575 31.3928C134.429 31.0395 134.201 30.7257 133.908 30.4774C133.347 30.0504 132.476 29.8369 131.297 29.8369C130.627 29.8369 129.959 29.8945 129.3 30.0092L129.287 35.0883Z" fill="white"/>
<path d="M143.642 44.0764V27.3418H147.363V44.0764H143.642Z" fill="white"/>
<path d="M166.002 35.9277V43.8777C164.609 44.1137 163.199 44.2378 161.785 44.2487C158.55 44.2487 156.131 43.5508 154.53 42.1552C152.928 40.7595 152.123 38.6189 152.114 35.7334C152.114 32.8714 152.933 30.7175 154.57 29.2718C156.207 27.8261 158.584 27.1018 161.701 27.0989C162.98 27.0923 164.255 27.2316 165.502 27.514V30.5482C164.364 30.2837 163.2 30.1474 162.031 30.1419C160.862 30.1081 159.699 30.3048 158.608 30.7205C157.754 31.0666 157.054 31.7064 156.638 32.5225C156.165 33.5413 155.943 34.6571 155.992 35.7775C155.992 37.662 156.437 39.0414 157.329 39.9159C158.22 40.7904 159.602 41.2321 161.473 41.2409C161.708 41.2409 162.056 41.2321 162.516 41.2144V35.9145L166.002 35.9277Z" fill="white"/>
<path d="M171.256 44.0764V27.3418H174.978V33.8873H181.935V27.3418H185.656V44.0764H181.935V37.1379H174.978V44.0764H171.256Z" fill="white"/>
<path d="M194.939 44.0764V30.3849H189.591V27.3418H203.982V30.4114H198.634V44.1029L194.939 44.0764Z" fill="white"/>
</g>
<defs>
<clipPath id="clip0_11012_15575">
<rect width="204" height="48" fill="white" transform="translate(0 11)"/>
</clipPath>
</defs>
</svg>
