<svg width="160px" height="160px" viewBox="0 0 160 160" fill="none" xmlns="http://www.w3.org/2000/svg" transform="rotate(0) scale(1, 1)">
<path d="M51.3335 36.587V120.641M112.452 36.587V120.641M73.9818 131.052H89.6784M105.547 138H58.2378C54.4244 138 51.3335 134.929 51.3335 131.141V28.8587C51.3335 25.0705 54.4244 22 58.2378 22H105.547C109.361 22 112.452 25.0705 112.452 28.8587V131.141C112.452 134.929 109.361 138 105.547 138ZM75.4336 30.077H88.7903C89.9129 30.077 90.8229 29.173 90.8229 28.0579C90.8229 26.9428 89.9129 26.0388 88.7903 26.0388H75.4336C74.3111 26.0388 73.4011 26.9428 73.4011 28.0579C73.4011 29.173 74.3111 30.077 75.4336 30.077Z" stroke="#ffffff" stroke-miterlimit="10" stroke-linecap="round" stroke-linejoin="round"/>
<path d="M22.6453 111.807L60.349 81.3382L91.6651 91.8372L138.022 48.1936M138.022 48.1936L118.244 48.1936M138.022 48.1936L138.022 67.9571" stroke="url(#paint0_linear_13307_1718)" stroke-miterlimit="10" stroke-linecap="round" stroke-linejoin="round"/>
<defs>
<linearGradient id="paint0_linear_13307_1718" x1="138.022" y1="80.0001" x2="22.6453" y2="80.0001" gradientUnits="userSpaceOnUse">
<stop stop-color="#f0f569" data-originalstopcolor="#f0f569"/>
<stop offset="1" stop-color="#ffe278" data-originalstopcolor="#ffe278"/>
</linearGradient>
</defs>
</svg>