<svg width="160px" height="160px" viewBox="0 0 160 160" fill="none" xmlns="http://www.w3.org/2000/svg" transform="rotate(0) scale(1, 1)">
<path d="M45.9414 70.8822C57.6911 70.8822 67.216 61.3554 67.216 49.6035C67.216 37.8515 57.6911 28.3247 45.9414 28.3247C34.1918 28.3247 24.6667 37.8515 24.6667 49.6035C24.6667 61.3554 34.1918 70.8822 45.9414 70.8822Z" stroke="url(#paint0_linear_13307_1790)" stroke-miterlimit="10" stroke-linejoin="round"/>
<path d="M35.6865 55.0527C37.2577 59.1779 41.2551 62.1127 45.9452 62.1127C50.6236 62.1127 54.621 59.1779 56.2039 55.0527" stroke="url(#paint1_linear_13307_1790)" stroke-miterlimit="10" stroke-linecap="round" stroke-linejoin="round"/>
<path d="M39.9725 43.5088H35.9497" stroke="url(#paint2_linear_13307_1790)" stroke-miterlimit="10" stroke-linecap="round" stroke-linejoin="round"/>
<path d="M55.9395 43.5088H51.9167" stroke="url(#paint3_linear_13307_1790)" stroke-miterlimit="10" stroke-linecap="round" stroke-linejoin="round"/>
<path d="M45.9414 132.142C57.6911 132.142 67.216 122.615 67.216 110.863C67.216 99.1113 57.6911 89.5845 45.9414 89.5845C34.1918 89.5845 24.6667 99.1113 24.6667 110.863C24.6667 122.615 34.1918 132.142 45.9414 132.142Z" stroke="#ffffff" stroke-miterlimit="10" stroke-linejoin="round"/>
<path d="M56.2027 119.683C54.6315 115.558 50.6341 112.623 45.944 112.623C41.2656 112.623 37.2682 115.558 35.6853 119.683" stroke="#ffffff" stroke-miterlimit="10" stroke-linecap="round" stroke-linejoin="round"/>
<path d="M39.9725 104.768H35.9497" stroke="#ffffff" stroke-miterlimit="10" stroke-linecap="round" stroke-linejoin="round"/>
<path d="M55.9395 104.768H51.9167" stroke="#ffffff" stroke-miterlimit="10" stroke-linecap="round" stroke-linejoin="round"/>
<path d="M82.703 25.333V73.8735" stroke="#ffffff" stroke-miterlimit="10" stroke-linecap="round" stroke-linejoin="round"/>
<path d="M106.255 30.7129H82.703V44.654H106.255V30.7129Z" stroke="#ffffff" stroke-miterlimit="10" stroke-linecap="round" stroke-linejoin="round"/>
<path d="M115.227 54.5513H82.703V68.4925H115.227V54.5513Z" stroke="#ffffff" stroke-miterlimit="10" stroke-linecap="round" stroke-linejoin="round"/>
<path d="M82.703 86.5928V135.132" stroke="#ffffff" stroke-miterlimit="10" stroke-linecap="round" stroke-linejoin="round"/>
<path d="M134.667 91.9727H82.703V105.914H134.667V91.9727Z" stroke="#ffffff" stroke-miterlimit="10" stroke-linecap="round" stroke-linejoin="round"/>
<path d="M119.713 115.812H82.703V129.753H119.713V115.812Z" stroke="#ffffff" stroke-miterlimit="10" stroke-linecap="round" stroke-linejoin="round"/>
<defs>
<linearGradient id="paint0_linear_13307_1790" x1="67.216" y1="49.6034" x2="24.6667" y2="49.6034" gradientUnits="userSpaceOnUse">
<stop stop-color="#f0f569" data-originalstopcolor="#f0f569"/>
<stop offset="1" stop-color="#ffe278" data-originalstopcolor="#ffe278"/>
</linearGradient>
<linearGradient id="paint1_linear_13307_1790" x1="56.2039" y1="58.5827" x2="35.6865" y2="58.5827" gradientUnits="userSpaceOnUse">
<stop stop-color="#f0f569" data-originalstopcolor="#f0f569"/>
<stop offset="1" stop-color="#ffe278" data-originalstopcolor="#ffe278"/>
</linearGradient>
<linearGradient id="paint2_linear_13307_1790" x1="39.9725" y1="44.0088" x2="35.9497" y2="44.0088" gradientUnits="userSpaceOnUse">
<stop stop-color="#f0f569" data-originalstopcolor="#f0f569"/>
<stop offset="1" stop-color="#ffe278" data-originalstopcolor="#ffe278"/>
</linearGradient>
<linearGradient id="paint3_linear_13307_1790" x1="55.9395" y1="44.0088" x2="51.9167" y2="44.0088" gradientUnits="userSpaceOnUse">
<stop stop-color="#f0f569" data-originalstopcolor="#f0f569"/>
<stop offset="1" stop-color="#ffe278" data-originalstopcolor="#ffe278"/>
</linearGradient>
</defs>
</svg>