<svg width="160" height="160" viewBox="0 0 160 160" fill="none" xmlns="http://www.w3.org/2000/svg">
<path d="M80 144C115.346 144 144 115.346 144 80C144 44.6538 115.346 16 80 16C44.6538 16 16 44.6538 16 80C16 115.346 44.6538 144 80 144Z" stroke="white"/>
<path d="M106 89.3381C106 92.2524 101.106 98.5667 97.1902 98.5667C94.4736 98.5667 95.9978 109.088 97.1859 115.531C97.6504 118.05 95.7417 120.424 93.1801 120.424C85.942 120.424 73.273 120.424 72.2292 120.424C70.7609 120.424 65.8666 110.224 54.6098 110.71C43.3529 111.195 49.2261 103.91 49.2261 102.938C49.2261 101.967 47.2684 97.1095 47.7578 97.1095C48.2473 97.1095 49.7155 97.1095 49.7155 96.1381C49.7155 95.1667 47.7578 94.681 47.7578 93.7095C47.7578 92.7381 48.7366 92.2524 48.7366 89.8238C48.7366 87.3953 43.8423 86.4238 43.3529 84.9667C42.8635 83.5095 51.6732 76.2238 51.6732 74.281C51.6732 72.3381 50.6944 72.3381 50.6944 70.881C50.6944 69.4238 57.057 52.4238 59.9936 52.4238" stroke="white"/>
<path d="M97.678 71.5209C106.426 62.7726 106.426 48.5887 97.678 39.8404C88.9297 31.0921 74.7458 31.0921 65.9975 39.8404C57.2492 48.5887 57.2492 62.7726 65.9975 71.5209C74.7458 80.2693 88.9297 80.2693 97.678 71.5209ZM97.678 71.5209L103.188 77.0306M103.188 77.0306L98.4354 81.7829C98.3975 81.8208 98.3975 81.8823 98.4354 81.9202L118.339 101.824C121.002 104.487 125.319 104.487 127.981 101.824C130.644 99.1615 130.644 94.8447 127.981 92.1821L108.077 72.2783C108.039 72.2404 107.978 72.2404 107.94 72.2783L103.188 77.0306Z" stroke="url(#paint0_linear_13307_1755)"/>
<defs>
<linearGradient id="paint0_linear_13307_1755" x1="112.83" y1="54.992" x2="81.1491" y2="86.6725" gradientUnits="userSpaceOnUse">
<stop stop-color="#D278FE"/>
<stop offset="1" stop-color="#2D69FB"/>
</linearGradient>
</defs>
</svg>
