<svg width="40" height="40" viewBox="0 0 40 40" fill="none" xmlns="http://www.w3.org/2000/svg">
<path d="M25.9667 19.9999C25.9667 23.2999 23.3 25.9665 20 25.9665C16.7 25.9665 14.0333 23.2999 14.0333 19.9999C14.0333 16.6999 16.7 14.0332 20 14.0332C23.3 14.0332 25.9667 16.6999 25.9667 19.9999Z" stroke="white" stroke-linecap="round" stroke-linejoin="round"/>
<path d="M20 33.7835C25.8833 33.7835 31.3667 30.3169 35.1833 24.3169C36.6833 21.9669 36.6833 18.0169 35.1833 15.6669C31.3667 9.66686 25.8833 6.2002 20 6.2002C14.1166 6.2002 8.63332 9.66686 4.81665 15.6669C3.31665 18.0169 3.31665 21.9669 4.81665 24.3169C8.63332 30.3169 14.1166 33.7835 20 33.7835Z" stroke="white" stroke-linecap="round" stroke-linejoin="round"/>
</svg>
