<svg width="40" height="40" viewBox="0 0 40 40" fill="none" xmlns="http://www.w3.org/2000/svg">
<path d="M3.45001 7.6668C4.78334 1.90013 13.4667 1.90013 14.7833 7.6668C15.5667 11.0501 13.4167 13.9168 11.55 15.7001C10.1833 17.0001 8.03334 16.9835 6.66668 15.7001C4.81668 13.9168 2.66668 11.0501 3.45001 7.6668Z" stroke="white"/>
<path d="M25.1167 27.6668C26.45 21.9001 35.1833 21.9001 36.5167 27.6668C37.3 31.0501 35.15 33.9168 33.2667 35.7001C31.9 37.0001 29.7333 36.9835 28.3667 35.7001C26.4833 33.9168 24.3333 31.0501 25.1167 27.6668Z" stroke="white"/>
<path d="M20 8.33301H24.4667C27.55 8.33301 28.9833 12.1497 26.6667 14.183L13.35 25.833C11.0333 27.8497 12.4667 31.6663 15.5333 31.6663H20" stroke="white" stroke-linecap="round" stroke-linejoin="round"/>
<path d="M9.14369 9.16634H9.16295" stroke="white" stroke-linecap="round" stroke-linejoin="round"/>
<path d="M30.8104 29.1663H30.8296" stroke="white" stroke-linecap="round" stroke-linejoin="round"/>
</svg>
