<svg width="260" height="70" viewBox="0 0 260 70" fill="none" xmlns="http://www.w3.org/2000/svg">
<g clip-path="url(#clip0_11012_15729)">
<mask id="mask0_11012_15729" style="mask-type:luminance" maskUnits="userSpaceOnUse" x="0" y="0" width="173" height="32">
<path d="M173 0H0V32H173V0Z" fill="white"/>
</mask>
<g mask="url(#mask0_11012_15729)">
<path d="M45.6309 6.97034L54.7297 31.898H61.0826L70.1813 6.97034H64.6962L58.0058 26.2496L51.2176 6.97034H45.6309ZM71.1903 12.7635C70.1797 14.7119 69.6943 16.9511 69.6943 19.488C69.6943 22.0248 70.1763 24.259 71.2352 26.1588C72.2464 28.0575 73.786 29.6144 75.6633 30.6371C77.5881 31.7081 79.8038 32.1956 82.4034 32.1956C85.3389 32.1956 87.7938 31.4156 89.7686 29.7613C91.7416 28.1542 92.945 26.0628 93.4253 23.5294H88.226C87.8405 24.9415 87.119 26.0125 86.0651 26.7908C84.9564 27.5691 83.6102 27.9104 82.0212 27.9104C79.9999 27.9104 78.3643 27.2782 77.1592 26.0125C75.9075 24.7465 75.2327 23.0419 75.138 20.8513V20.5588H93.7178C93.814 19.898 93.8623 19.2311 93.8625 18.5633C93.8142 16.1778 93.2858 14.0832 92.2269 12.2828C91.2018 10.531 89.7192 9.09884 87.9418 8.14382C86.1134 7.17046 84.0422 6.68286 81.6837 6.68286C79.325 6.68286 77.2556 7.21923 75.4255 8.2901C73.6121 9.33308 72.1382 10.8874 71.1836 12.7635H71.1903ZM88.5683 16.7074H75.3291C75.5219 14.9556 76.1967 13.5923 77.4484 12.5215C78.6777 11.4514 80.2549 10.8788 81.8765 10.9142C83.7049 10.9142 85.2009 11.4489 86.4009 12.4727C87.601 13.4965 88.3208 14.9069 88.5619 16.7074H88.5683ZM109.763 6.97034H108.599C106.675 6.97034 105.182 7.30656 104.075 7.99247C102.938 8.64042 101.991 9.58133 101.331 10.7194L100.754 6.97034H96.1313V31.9048H101.331V19.3922C101.331 17.2505 101.813 15.4483 102.775 14.0361C103.738 12.624 105.278 11.8943 107.444 11.8943H109.755L109.763 6.97034ZM111.97 0.00878906V25.1299C111.97 27.4667 112.5 29.1707 113.558 30.2421C114.617 31.3617 116.302 31.898 118.661 31.898H123.667V27.2732H119.719C118.757 27.2732 118.132 27.0782 117.746 26.6882C117.361 26.2982 117.168 25.5686 117.168 24.5951V11.5952H123.137V6.97034H117.168V0.00878906H111.97ZM125.627 12.7635C124.618 14.7119 124.131 16.9511 124.131 19.488C124.131 22.0248 124.613 24.259 125.672 26.1588C126.683 28.0575 128.223 29.6144 130.1 30.6371C132.025 31.7081 134.239 32.1956 136.838 32.1956C139.775 32.1956 142.23 31.4156 144.203 29.7613C146.178 28.1542 147.382 26.0628 147.86 23.5294H142.663C142.277 24.9415 141.556 26.0125 140.502 26.7908C139.396 27.5691 138.047 27.9104 136.459 27.9104C134.438 27.9104 132.803 27.2782 131.597 26.0125C130.344 24.7465 129.671 23.0419 129.576 20.8513V20.5588H148.158C148.252 19.898 148.3 19.2311 148.301 18.5633C148.252 16.1778 147.722 14.0832 146.663 12.2828C145.637 10.5279 144.151 9.09373 142.37 8.13875C140.542 7.16537 138.47 6.67794 136.112 6.67794C133.753 6.67794 131.684 7.21414 129.854 8.28501C128.043 9.33132 126.572 10.8872 125.62 12.7635H125.627ZM143.005 16.7074H129.767C129.96 14.9556 130.635 13.5923 131.885 12.5215C133.115 11.4517 134.693 10.8792 136.315 10.9142C138.143 10.9142 139.639 11.4489 140.841 12.4727C142.043 13.4965 142.757 14.9069 142.998 16.7074H143.005ZM156.525 19.1416L147.282 31.898H152.913L159.461 22.8419L165.96 31.898H172.025L162.733 19.1416L171.495 6.97034H165.807L159.79 15.3928L153.867 6.97034H147.802L156.525 19.1416Z" fill="#FEFEFE"/>
<mask id="mask1_11012_15729" style="mask-type:luminance" maskUnits="userSpaceOnUse" x="0" y="6" width="36" height="26">
<path d="M35.3203 6.70117H0V31.4853H35.3203V6.70117Z" fill="white"/>
</mask>
<g mask="url(#mask1_11012_15729)">
<path d="M21.2614 28.4863C21.0261 29.3271 20.533 30.071 19.8534 30.6107C19.1723 31.1489 18.3401 31.455 17.4763 31.4852H11.7199L0 6.70117H11.705L17.5591 19.0991C17.5591 19.0991 21.8313 26.449 21.2614 28.4863Z" fill="#FEFEFE"/>
<path d="M21.2617 28.4867C21.8316 26.4493 17.561 19.1045 17.561 19.1045H23.8906L21.2617 28.4867Z" fill="url(#paint0_linear_11012_15729)"/>
<path d="M23.8904 19.1039H35.3204V6.70605H30.7551C29.8878 6.70654 29.0432 6.98582 28.3431 7.50355C27.6431 8.02215 27.1243 8.75273 26.8623 9.5894L23.8904 19.1039Z" fill="#FEFEFE"/>
</g>
</g>
</g>
<defs>
<linearGradient id="paint0_linear_11012_15729" x1="20.9105" y1="18.4477" x2="18.1193" y2="28.2323" gradientUnits="userSpaceOnUse">
<stop stop-color="#F9F9FA"/>
<stop offset="1" stop-color="white" stop-opacity="0"/>
</linearGradient>
<clipPath id="clip0_11012_15729">
<rect width="173" height="32" fill="white"/>
</clipPath>
</defs>
</svg>
