<svg width="260" height="70" viewBox="0 0 260 70" fill="none" xmlns="http://www.w3.org/2000/svg">
<mask id="mask0_10913_2451" style="mask-type:luminance" maskUnits="userSpaceOnUse" x="0" y="4" width="126" height="34">
<path d="M125.669 4H0V37.3333H125.669V4Z" fill="white"/>
</mask>
<g mask="url(#mask0_10913_2451)">
<path fill-rule="evenodd" clip-rule="evenodd" d="M11.6771 4.31727C12.4483 5.86719 19.1771 19.7945 19.2359 19.9622C19.2788 20.085 19.3201 20.3577 19.3311 20.591C19.3468 20.9278 19.3343 21.0505 19.2624 21.2632C19.2142 21.4064 17.4308 25.0726 15.2998 29.4105C13.1685 33.7485 11.4248 37.3053 11.4248 37.3148C11.4248 37.3241 15.6504 37.3266 20.8153 37.3205L30.2057 37.3093L30.4715 37.1641C30.7468 37.0136 31.0273 36.7686 31.2246 36.5068C31.2873 36.4234 32.1946 34.6085 33.241 32.4738C34.2872 30.339 35.8499 27.158 36.7134 25.4049C38.7959 21.1772 38.7381 21.3017 38.7949 20.9172C38.8749 20.3749 38.8131 20.1548 38.2536 18.9864C36.872 16.1021 33.553 9.29688 32.0848 6.33794C31.2018 4.55839 31.157 4.49616 30.5325 4.18426L30.1693 4.00284L26.9957 3.99092L23.8221 3.979L24.8673 6.11594C25.4421 7.29126 26.5182 9.51164 27.2587 11.0501C27.9991 12.5886 29.2435 15.1549 30.0238 16.753C30.804 18.351 31.4928 19.7757 31.5542 19.9188C31.6507 20.1432 31.6661 20.2417 31.6673 20.6344L31.6686 21.0897L31.0174 22.4558C29.6099 25.4082 28.9874 26.692 27.9704 28.7393L26.9124 30.8692H24.331H21.7496L21.8646 30.6414C22.3867 29.6062 26.2535 21.6026 26.3172 21.4249C26.3625 21.299 26.4219 21.0504 26.4494 20.8722C26.5335 20.3268 26.4982 20.223 25.5655 18.28C24.2215 15.4798 22.6888 12.3345 20.7214 8.33919C18.7035 4.2415 18.8119 4.42668 18.2891 4.1801C17.8795 3.98694 17.7719 3.98116 14.5632 3.98116H11.5099L11.6771 4.31727Z" fill="white"/>
<path fill-rule="evenodd" clip-rule="evenodd" d="M-0.35363 4.43378C0.705936 6.43386 1.36342 7.76282 3.29926 11.8171C4.6894 14.7286 5.91672 17.217 6.64657 18.6042C7.2776 19.8034 7.4596 20.0329 7.91632 20.2051C8.15443 20.2949 8.19892 20.2959 11.4074 20.285L14.6572 20.2738L13.6267 18.1922C13.06 17.0473 11.6861 14.3054 10.5736 12.099C9.46109 9.89268 8.16958 7.31894 7.70352 6.37955C6.77591 4.51002 6.63857 4.30167 6.19514 4.09186L5.98001 3.99012L2.69548 3.98968L-0.589111 3.98926L-0.35363 4.43378ZM77.5327 4.05708C75.0309 4.39955 72.765 5.55058 70.9278 7.41214C68.9524 9.41382 67.8447 11.7569 67.5755 14.5026C67.5436 14.8279 67.5291 18.4782 67.5291 26.1577V37.339H70.2397H72.9504V29.4245V21.5098H75.9623H78.9741V18.7777V16.0455H75.9558H72.9375L72.967 15.5142C73.0596 13.8527 73.6764 12.4487 74.8207 11.2953C75.6903 10.4188 76.6529 9.87968 77.8984 9.57159C78.2483 9.48507 78.4093 9.48004 81.5987 9.4565L84.9332 9.43191L84.9443 6.71058L84.9554 3.98926L81.4592 3.99372C78.7742 3.99715 77.8632 4.01184 77.5327 4.05708ZM51.2979 13.7481C49.1754 13.9911 47.2906 14.7321 45.6814 15.9559C43.0642 17.9463 41.5105 20.5173 41.0014 23.6999C40.8939 24.3717 40.8684 26.1493 40.9554 26.9039C41.2609 29.5542 42.3247 31.8033 44.1862 33.7342C44.9935 34.5718 45.7315 35.1679 46.6672 35.7383C49.031 37.1794 52.1118 37.6803 54.9655 37.0873L55.3311 37.0113L55.3422 34.1178C55.3483 32.5263 55.3455 31.2242 55.336 31.2242C55.3265 31.2242 55.123 31.3034 54.8838 31.4001C54.6445 31.4969 54.2311 31.6278 53.9649 31.6911C53.5299 31.7946 53.3963 31.8065 52.642 31.8079C51.7072 31.8099 51.4057 31.7645 50.6348 31.5061C48.8528 30.9085 47.3932 29.497 46.7324 27.7323C46.2117 26.3418 46.1959 24.7206 46.6895 23.3765C47.0019 22.5263 47.3929 21.9087 48.0597 21.2127C48.6304 20.617 49.1012 20.2529 49.718 19.9298C50.6307 19.4519 51.5016 19.2429 52.5775 19.2437C53.6352 19.2443 54.4025 19.4222 55.3382 19.8834C57.0559 20.7301 58.2153 22.203 58.7005 24.1553L58.8137 24.6106L58.8268 30.9749L58.84 37.339H61.571H64.3022V31.2329C64.3022 24.9502 64.2905 24.4381 64.1262 23.4614C63.936 22.3311 63.6275 21.3694 63.1174 20.3173C62.5543 19.1555 61.8333 18.1523 60.8399 17.1483C59.009 15.2979 56.9091 14.2158 54.363 13.8105C53.8392 13.7271 51.8367 13.6863 51.2979 13.7481ZM91.2796 13.735C90.8495 13.7707 89.9431 13.9285 89.4748 14.0491C87.4108 14.5803 85.7338 15.5574 84.1555 17.1482C83.1249 18.187 82.485 19.077 81.8769 20.3173C81.3073 21.479 80.9483 22.7081 80.7749 24.0902C80.6929 24.7446 80.7054 26.4454 80.7971 27.0826C81.0117 28.5743 81.3552 29.6814 81.9829 30.9035C82.552 32.0115 83.1949 32.8842 84.1549 33.8518C85.5602 35.2683 86.9479 36.1486 88.698 36.7341C92.2835 37.9334 96.2483 37.3153 99.2587 35.0877C99.7865 34.697 100.552 34.0222 100.768 33.7562L100.914 33.5777L98.758 31.8739C97.2585 30.6887 96.5861 30.1821 96.5492 30.2093C96.5198 30.2309 96.3376 30.3722 96.1441 30.5234C95.1778 31.2785 94.1433 31.6877 92.9574 31.7839C89.7411 32.0449 86.8978 29.8825 86.2602 26.6907C86.1497 26.1377 86.1504 24.8446 86.2613 24.3287C86.5475 22.9995 87.0869 22.0001 88.0288 21.0538C88.965 20.1134 89.9659 19.5741 91.2597 19.3134C91.742 19.2161 93.0705 19.2043 93.5599 19.293C94.1309 19.3963 94.918 19.6825 95.0001 19.8165C95.0147 19.8401 94.1302 21.0129 93.0348 22.4227C91.9392 23.8325 91.043 25.0022 91.043 25.0222C91.043 25.0877 95.2415 28.4566 95.2966 28.4353C95.3261 28.4239 95.8516 27.7635 96.4646 26.9679C97.0775 26.1723 98.6429 24.1455 99.9433 22.4639C101.244 20.7823 102.326 19.3825 102.349 19.3531C102.441 19.2327 101.619 18.1034 100.875 17.3301C100.235 16.6642 99.7066 16.2201 98.9598 15.7198C97.3347 14.6311 95.6204 13.9947 93.7048 13.7689C93.1987 13.7091 91.82 13.6899 91.2796 13.735ZM114.514 13.7501C112.005 14.0247 109.754 15.0578 107.913 16.7791C105.826 18.7302 104.638 20.9798 104.201 23.8083C104.091 24.5161 104.092 26.4694 104.202 27.2127C104.58 29.7801 105.671 31.9649 107.494 33.8113C109.32 35.6602 111.367 36.751 113.782 37.1621C117.463 37.7886 121.161 36.6659 123.783 34.1255C124.057 33.8602 124.279 33.6207 124.278 33.5937C124.276 33.555 120.422 30.481 120.064 30.2323C119.988 30.1795 119.961 30.1867 119.823 30.2974C118.345 31.4815 117.042 31.9126 115.332 31.7835C114.424 31.7149 113.723 31.5109 112.88 31.0691C111.726 30.465 110.714 29.4074 110.148 28.2149C109.484 26.8151 109.367 25.1183 109.833 23.6349C110.521 21.4405 112.397 19.7457 114.608 19.3205C115.412 19.1657 116.634 19.1943 117.38 19.3855C117.83 19.5009 118.454 19.7995 118.398 19.8731C118.375 19.9027 117.48 21.0571 116.408 22.4385C115.336 23.8198 114.457 24.9769 114.454 25.0097C114.449 25.0715 118.587 28.4486 118.668 28.4486C118.693 28.4486 119.516 27.4095 120.495 26.1393C121.475 24.8691 123.067 22.8093 124.034 21.5617L125.791 19.2934L125.545 18.9197C125.153 18.3257 124.65 17.7115 124.112 17.1702C123.169 16.2209 122.263 15.5733 120.989 14.9378C119.832 14.3603 118.79 14.0273 117.461 13.8094C116.952 13.7261 115.079 13.6883 114.514 13.7501Z" fill="white"/>
</g>
</svg>
