<svg width="260" height="70" viewBox="0 0 260 70" fill="none" xmlns="http://www.w3.org/2000/svg">
<g clip-path="url(#clip0_11012_6103)">
<path d="M19.54 15.1871C19.54 16.3549 19.3714 17.4827 19.0341 18.5704C18.6968 19.658 18.1792 20.6425 17.4812 21.5242C16.7951 22.3943 15.9053 23.0868 14.8121 23.6021C13.7303 24.1058 12.4683 24.3577 11.0261 24.3577C9.86308 24.3577 8.94424 24.2376 8.26959 23.9971C7.60668 23.7567 6.94359 23.4362 6.28067 23.0354V32H-0.00012207V6.56608H6.28067V8.14606C6.90875 7.60795 7.60072 7.16138 8.35677 6.80652C9.12454 6.44004 10.1596 6.25698 11.4623 6.25698C12.7533 6.25698 14.021 6.5718 15.2656 7.20143C16.5101 7.83124 17.5336 8.81573 18.3362 10.1553C19.1388 11.4834 19.54 13.1606 19.54 15.1871ZM12.9279 15.3246C12.9279 14.2713 12.7591 13.4182 12.4218 12.7657C12.0846 12.1015 11.6484 11.6265 11.1133 11.3403C10.5783 11.0427 10.0259 10.8938 9.45591 10.8938C8.7116 10.8938 8.10084 11.0139 7.62401 11.2543C7.14717 11.4834 6.69939 11.7753 6.28067 12.1303V18.8108C6.50159 18.9252 6.73423 19.0568 6.9786 19.2057C7.23435 19.343 7.48449 19.4633 7.72869 19.5663C7.98461 19.6695 8.25209 19.7553 8.53129 19.8239C8.82205 19.8927 9.13032 19.9271 9.45591 19.9271C10.4446 19.9271 11.2703 19.5148 11.9334 18.6905C12.5963 17.8662 12.9279 16.7442 12.9279 15.3246Z" fill="white"/>
<path d="M40.7021 23.1725C39.7832 23.5274 38.9342 23.8136 38.1549 24.0312C37.3756 24.2487 36.4393 24.3574 35.3461 24.3574C34.3108 24.3574 33.5898 24.1801 33.1826 23.825C32.7756 23.4587 32.4847 23.0179 32.3104 22.5027C31.6357 23.041 30.8854 23.4873 30.0597 23.8422C29.2338 24.1858 28.1522 24.3574 26.8147 24.3574C25.5237 24.3574 24.4769 24.14 23.6743 23.7049C22.8834 23.2583 22.3252 22.7031 21.9994 22.0391C21.6853 21.3635 21.5283 20.671 21.5283 19.9611C21.5283 18.8849 21.8018 17.9976 22.3484 17.2992C22.9067 16.5893 23.651 16.0111 24.5815 15.5648C25.5119 15.1182 26.7448 14.6544 28.2802 14.1736C29.1524 13.8988 29.8096 13.6928 30.2516 13.5554C30.7053 13.4066 31.0425 13.292 31.2636 13.2119C31.4845 13.1319 31.7171 13.0287 31.9613 12.9029C31.9613 12.0557 31.787 11.3915 31.4381 10.9106C31.089 10.4297 30.333 10.1895 29.17 10.1895C27.7976 10.1895 26.5239 10.4871 25.3491 11.0824C24.1744 11.6777 23.0985 12.4448 22.1216 13.3836V8.64381C22.9009 8.09427 23.7441 7.6477 24.6514 7.30428C25.5585 6.94924 26.5064 6.68609 27.4951 6.51429C28.4838 6.34249 29.484 6.25668 30.496 6.25668C33.0664 6.25668 34.997 6.74902 36.2882 7.73351C37.5907 8.70674 38.2421 10.052 38.2421 11.7693V18.5186C38.2421 19.1597 38.3002 19.6406 38.4166 19.9611C38.5446 20.2702 38.7713 20.4248 39.097 20.4248C39.4925 20.4248 40.0274 20.2587 40.7021 19.9268V23.1725ZM31.9613 19.8238V15.6849C30.4727 16.2802 29.3851 16.8183 28.6989 17.2992C28.0127 17.7686 27.6696 18.4097 27.6696 19.2226C27.6696 19.8064 27.8382 20.253 28.1755 20.5621C28.5244 20.8712 28.9258 21.0258 29.3793 21.0258C29.8096 21.0258 30.2343 20.9114 30.653 20.6824C31.0833 20.442 31.5195 20.1558 31.9613 19.8238Z" fill="white"/>
<path d="M60.1007 6.56608L48.0276 32H41.6772L46.5621 21.7646L39.5312 6.56608H46.2831L49.8946 15.2558L53.9944 6.56608H60.1007Z" fill="white"/>
<path d="M53.9643 6.52514H60.1007L48.0986 32H41.4208L53.9643 6.52514Z" fill="white"/>
<path d="M101.699 24.1816H95.4056V0.326807H101.699V24.1816Z" fill="white"/>
<path d="M111.419 2.61596C111.419 3.33891 111.157 3.95263 110.634 4.45748C110.111 4.96251 109.489 5.21494 108.769 5.21494C108.281 5.21494 107.833 5.10016 107.427 4.87062C107.031 4.64108 106.718 4.33127 106.485 3.94119C106.253 3.53967 106.137 3.09793 106.137 2.61596C106.137 1.90463 106.392 1.29073 106.904 0.774443C107.415 0.257973 108.037 -0.000169754 108.769 -0.000169754C109.489 -0.000169754 110.111 0.257973 110.634 0.774443C111.157 1.29073 111.419 1.90463 111.419 2.61596ZM111.924 24.1816H105.631V6.66066H111.924V24.1816Z" fill="white"/>
<path d="M129.541 23.166C128.89 23.4758 127.99 23.7742 126.839 24.0609C125.7 24.3478 124.608 24.4912 123.562 24.4912C119.041 24.4912 116.781 22.3111 116.781 17.9511V10.9633H113.939V9.87883L122.359 1.41099H123.074V6.66041H129.07V10.9633H123.074V16.574C123.074 17.2281 123.114 17.7558 123.196 18.1575C123.277 18.5591 123.504 18.8976 123.876 19.173C124.259 19.4368 124.834 19.5688 125.601 19.5688C126.601 19.5688 127.914 19.1558 129.541 18.3297V23.166Z" fill="white"/>
<path d="M151.082 23.3036C150.164 23.6594 149.316 23.9461 148.537 24.1642C147.758 24.3822 146.823 24.4912 145.731 24.4912C144.696 24.4912 143.976 24.3133 143.569 23.9576C143.162 23.5906 142.872 23.1488 142.697 22.6324C142.023 23.1717 141.274 23.6192 140.449 23.9749C139.623 24.3191 138.543 24.4912 137.206 24.4912C135.916 24.4912 134.87 24.2733 134.068 23.8373C133.278 23.3896 132.72 22.8331 132.395 22.1677C132.081 21.4907 131.924 20.7966 131.924 20.085C131.924 19.0065 132.197 18.1173 132.743 17.4174C133.301 16.7059 134.045 16.1265 134.975 15.6791C135.905 15.2316 137.136 14.7668 138.67 14.285C139.542 14.0095 140.199 13.803 140.64 13.6654C141.094 13.5161 141.431 13.4015 141.651 13.3211C141.872 13.2408 142.105 13.1375 142.349 13.0113C142.349 12.1623 142.174 11.4967 141.826 11.0147C141.477 10.533 140.722 10.292 139.56 10.292C138.188 10.292 136.916 10.5903 135.742 11.1869C134.568 11.7836 133.493 12.5524 132.517 13.4932V8.74292C133.296 8.19213 134.138 7.74467 135.045 7.40035C135.951 7.04478 136.898 6.78091 137.886 6.60876C138.874 6.4366 139.873 6.35061 140.884 6.35061C143.453 6.35061 145.382 6.84402 146.672 7.83066C147.973 8.80603 148.624 10.1543 148.624 11.8753V18.6393C148.624 19.282 148.682 19.7638 148.799 20.085C148.926 20.3949 149.153 20.5498 149.478 20.5498C149.874 20.5498 150.408 20.3834 151.082 20.0507V23.3036ZM142.349 19.9474V15.7995C140.861 16.3961 139.774 16.9355 139.089 17.4174C138.403 17.8878 138.06 18.5305 138.06 19.3451C138.06 19.9302 138.229 20.3777 138.566 20.6875C138.914 20.9973 139.316 21.1523 139.769 21.1523C140.199 21.1523 140.623 21.0375 141.041 20.808C141.471 20.567 141.907 20.2803 142.349 19.9474Z" fill="white"/>
<path d="M172 24.1816H165.724V14.7327C165.724 13.7688 165.562 12.9312 165.236 12.2199C164.922 11.4969 164.225 11.1355 163.144 11.1355C162.633 11.1355 162.18 11.2331 161.785 11.4281C161.401 11.6117 161.052 11.8527 160.739 12.1509C160.437 12.4493 160.181 12.7362 159.972 13.0115C159.762 13.287 159.548 13.5795 159.327 13.8893V24.1816H153.051V6.66066H159.327V9.17346C160.315 8.12926 161.302 7.40059 162.29 6.98763C163.29 6.56305 164.399 6.35085 165.62 6.35085C169.873 6.35085 172 8.86365 172 13.8893V24.1816Z" fill="white"/>
<path fill-rule="evenodd" clip-rule="evenodd" d="M74.0597 19.7103C74.8268 18.3449 75.2103 16.7901 75.2103 15.046C75.2103 13.7265 74.9954 12.5218 74.5653 11.4316C74.346 10.876 74.0724 10.356 73.7444 9.87186C73.9946 9.54864 74.2714 9.24116 74.5752 8.9494C75.4467 8.11186 76.5159 7.46918 77.7827 7.02172C79.0495 6.57425 80.5138 6.35043 82.1757 6.35043C83.8491 6.35043 85.3251 6.57997 86.6035 7.03888C87.8934 7.48652 88.9568 8.11758 89.7935 8.93224C90.6419 9.7469 91.2812 10.6992 91.7111 11.7892C92.1412 12.8793 92.3562 14.0841 92.3562 15.4036C92.3562 17.1477 91.9726 18.7024 91.2056 20.0679C90.4385 21.4333 89.288 22.5119 87.754 23.3036C86.2315 24.0952 84.3721 24.4912 82.1757 24.4912C79.9792 24.4912 78.1139 24.0952 76.5798 23.3036C75.2614 22.6179 74.2261 21.717 73.4742 20.601C73.6894 20.3191 73.8845 20.0221 74.0597 19.7103ZM84.8253 12.1507C85.4413 12.931 85.7492 14.0152 85.7492 15.4036C85.7492 16.7921 85.4413 17.8878 84.8253 18.691C84.2211 19.4828 83.3378 19.8786 82.1757 19.8786C81.0368 19.8786 80.1593 19.477 79.5433 18.6738C78.9275 17.8706 78.6194 16.7805 78.6194 15.4036C78.6194 14.0152 78.9216 12.931 79.526 12.1507C80.1418 11.3591 81.0251 10.9631 82.1757 10.9631C83.3378 10.9631 84.2211 11.3591 84.8253 12.1507Z" fill="white"/>
<path d="M71.1102 15.0168C71.1102 17.88 68.7668 20.2012 65.8762 20.2012C62.9856 20.2012 60.6422 17.88 60.6422 15.0168C60.6422 12.1536 62.9856 9.83246 65.8762 9.83246C68.7668 9.83246 71.1102 12.1536 71.1102 15.0168Z" fill="white"/>
<path d="M59.2885 21.3635L55.9496 27.1736L56.6715 27.8887L59.5592 23.0619C60.6421 23.6876 62.6455 24.939 65.9664 24.939C69.2873 24.939 71.0199 23.6876 72.0125 22.4362L71.6516 22.0786C71.1702 22.6745 69.3594 23.8663 65.9664 23.8663C62.5733 23.8663 60.1007 22.2574 59.2885 21.3635Z" fill="white"/>
<path d="M68.042 6.07802C65.6957 5.54171 63.3796 6.28665 61.9958 6.97188V6.34618C62.5373 5.98864 65.425 4.64785 68.3127 5.27355C70.9427 5.84347 72.7647 8.10403 73.0955 9.11713L72.7346 9.2959C72.494 8.72973 70.528 6.64633 68.042 6.07802Z" fill="white"/>
</g>
<defs>
<clipPath id="clip0_11012_6103">
<rect width="172" height="32" fill="white"/>
</clipPath>
</defs>
</svg>
