<svg width="260" height="70" viewBox="0 0 260 70" fill="none" xmlns="http://www.w3.org/2000/svg">
<path d="M0.48 19C0.288 19 0.192 18.896 0.192 18.688V18.52C0.192 18.376 0.224 18.248 0.288 18.136L4.632 9.112C4.84 8.68 5.056 8.248 5.28 7.816C5.504 7.368 5.72 6.96 5.928 6.592V6.52C5.576 6.536 5.2 6.552 4.8 6.568C4.416 6.568 4.04 6.568 3.672 6.568H1.032C0.84 6.568 0.744 6.464 0.744 6.256V3.592C0.744 3.384 0.84 3.28 1.032 3.28H10.752C10.96 3.28 11.064 3.384 11.064 3.592V3.76C11.064 3.824 11.056 3.888 11.04 3.952C11.024 4.016 11 4.08 10.968 4.144L6.576 13.168C6.368 13.6 6.144 14.04 5.904 14.488C5.664 14.936 5.44 15.344 5.232 15.712V15.76C5.584 15.744 5.952 15.736 6.336 15.736C6.736 15.72 7.12 15.712 7.488 15.712H10.296C10.488 15.712 10.584 15.816 10.584 16.024V18.688C10.584 18.896 10.488 19 10.296 19H0.48ZM12.6643 19C12.4723 19 12.3763 18.896 12.3763 18.688V3.592C12.3763 3.384 12.4723 3.28 12.6643 3.28H16.5523C16.7123 3.28 16.8243 3.352 16.8883 3.496L19.1203 9.832C19.2803 10.232 19.4323 10.68 19.5763 11.176C19.7363 11.672 19.8883 12.16 20.0323 12.64C20.1763 13.104 20.2963 13.512 20.3923 13.864H20.4403C20.4083 13.448 20.3683 12.928 20.3203 12.304C20.2883 11.68 20.2563 11.056 20.2243 10.432C20.1923 9.808 20.1763 9.288 20.1763 8.872V3.592C20.1763 3.384 20.2723 3.28 20.4643 3.28H23.4163C23.6243 3.28 23.7283 3.384 23.7283 3.592V18.688C23.7283 18.896 23.6243 19 23.4163 19H19.5523C19.3923 19 19.2803 18.928 19.2163 18.784L16.9843 12.568C16.7443 11.928 16.5203 11.248 16.3123 10.528C16.1043 9.792 15.9203 9.136 15.7603 8.56H15.6883C15.7363 9.008 15.7763 9.552 15.8083 10.192C15.8403 10.816 15.8643 11.44 15.8803 12.064C15.9123 12.672 15.9283 13.208 15.9283 13.672V18.688C15.9283 18.896 15.8163 19 15.5923 19H12.6643ZM28.782 19C28.574 19 28.47 18.896 28.47 18.688V6.568H25.422C25.23 6.568 25.134 6.464 25.134 6.256V3.592C25.134 3.384 25.23 3.28 25.422 3.28H35.262C35.454 3.28 35.55 3.384 35.55 3.592V6.256C35.55 6.464 35.454 6.568 35.262 6.568H32.214V18.688C32.214 18.896 32.118 19 31.926 19H28.782ZM37.2737 19C37.0817 19 36.9857 18.896 36.9857 18.688V3.592C36.9857 3.384 37.0817 3.28 37.2737 3.28H41.8577C43.7937 3.28 45.2017 3.688 46.0817 4.504C46.9777 5.304 47.4257 6.536 47.4257 8.2C47.4257 9.288 47.2417 10.2 46.8737 10.936C46.5217 11.656 45.9537 12.184 45.1697 12.52V12.544L48.1457 18.592C48.2577 18.864 48.1937 19 47.9537 19H44.4497C44.2737 19 44.1537 18.928 44.0897 18.784L41.6177 13.168H40.7297V18.688C40.7297 18.896 40.6257 19 40.4177 19H37.2737ZM40.7297 10.12H41.8577C42.4817 10.12 42.9377 9.976 43.2257 9.688C43.5297 9.4 43.6817 8.944 43.6817 8.32C43.6817 7.696 43.5377 7.248 43.2497 6.976C42.9777 6.688 42.5297 6.544 41.9057 6.544H40.7297V10.12ZM48.5921 19C48.3361 19 48.2721 18.864 48.4001 18.592L52.3601 10.936L48.6161 3.688C48.5681 3.56 48.5601 3.464 48.5921 3.4C48.6241 3.32 48.7041 3.28 48.8321 3.28H52.5041C52.6641 3.28 52.7681 3.344 52.8161 3.472L53.8241 5.944C53.9521 6.296 54.0721 6.656 54.1841 7.024C54.2961 7.376 54.4001 7.728 54.4961 8.08H54.5681C54.6641 7.728 54.7761 7.36 54.9041 6.976C55.0321 6.592 55.1601 6.24 55.2881 5.92L56.2001 3.472C56.2481 3.344 56.3521 3.28 56.5121 3.28H60.1841C60.4081 3.28 60.4641 3.416 60.3521 3.688L56.6081 10.96L60.5681 18.592C60.6161 18.704 60.6241 18.8 60.5921 18.88C60.5601 18.96 60.4801 19 60.3521 19H56.6561C56.4961 19 56.3841 18.936 56.3201 18.808L55.2401 16.024C55.1121 15.688 54.9841 15.336 54.8561 14.968C54.7281 14.584 54.6081 14.208 54.4961 13.84H54.4241C54.3281 14.208 54.2161 14.584 54.0881 14.968C53.9601 15.336 53.8321 15.68 53.7041 16L52.5521 18.784C52.5041 18.928 52.3921 19 52.2161 19H48.5921ZM69.9771 19.192C68.5051 19.192 67.3211 18.72 66.4251 17.776C65.5451 16.832 65.1051 15.408 65.1051 13.504V9.016C65.1051 7.064 65.6011 5.592 66.5931 4.6C67.5851 3.592 69.0011 3.088 70.8411 3.088C72.1371 3.088 73.2091 3.312 74.0571 3.76C74.9051 4.208 75.5291 4.832 75.9291 5.632C76.3451 6.416 76.5051 7.336 76.4091 8.392C76.3931 8.6 76.2971 8.704 76.1211 8.704H72.9531C72.7771 8.704 72.6891 8.584 72.6891 8.344C72.7211 7.736 72.5931 7.264 72.3051 6.928C72.0331 6.576 71.5611 6.4 70.8891 6.4C70.2011 6.4 69.6891 6.608 69.3531 7.024C69.0171 7.44 68.8491 8.12 68.8491 9.064V13.24C68.8491 14.184 69.0091 14.864 69.3291 15.28C69.6491 15.68 70.1611 15.88 70.8651 15.88C71.5051 15.88 71.9851 15.704 72.3051 15.352C72.6411 15 72.8091 14.488 72.8091 13.816V13.144H70.9851C70.7931 13.144 70.6971 13.032 70.6971 12.808V10.888C70.6971 10.68 70.7931 10.576 70.9851 10.576H76.1691C76.3451 10.576 76.4331 10.68 76.4331 10.888V14.992C76.4331 15.744 76.4491 16.432 76.4811 17.056C76.5131 17.68 76.5611 18.216 76.6251 18.664C76.6731 18.888 76.5771 19 76.3371 19H73.8651C73.7051 19 73.6091 18.904 73.5771 18.712C73.5291 18.536 73.4891 18.32 73.4571 18.064C73.4411 17.792 73.4251 17.512 73.4091 17.224H73.3611C73.1531 17.608 72.8971 17.952 72.5931 18.256C72.3051 18.544 71.9451 18.776 71.5131 18.952C71.0971 19.112 70.5851 19.192 69.9771 19.192ZM84.3484 19C84.1724 19 84.0604 18.904 84.0124 18.712C83.9804 18.504 83.9404 18.216 83.8924 17.848C83.8604 17.464 83.8284 17.104 83.7964 16.768L83.4604 16.072V10.624C83.4604 10.192 83.3964 9.904 83.2684 9.76C83.1404 9.6 82.9084 9.52 82.5724 9.52C81.9164 9.52 81.6284 9.912 81.7084 10.696C81.7404 10.904 81.6364 11.008 81.3964 11.008H78.7324C78.5564 11.008 78.4524 10.888 78.4204 10.648C78.3244 9.4 78.6444 8.456 79.3804 7.816C80.1164 7.16 81.2284 6.832 82.7164 6.832C84.2364 6.832 85.3404 7.144 86.0284 7.768C86.7324 8.392 87.0844 9.384 87.0844 10.744V15.88C87.0844 16.536 87.0924 17.08 87.1084 17.512C87.1244 17.928 87.1484 18.312 87.1804 18.664C87.2124 18.888 87.1164 19 86.8924 19H84.3484ZM80.5804 19.192C79.7644 19.192 79.1244 18.904 78.6604 18.328C78.1964 17.752 77.9644 16.944 77.9644 15.904C77.9644 14.736 78.2604 13.848 78.8524 13.24C79.4604 12.632 80.5004 12.248 81.9724 12.088L83.7244 11.872L83.7004 13.792L82.7164 13.888C82.2364 13.968 81.8924 14.12 81.6844 14.344C81.4924 14.568 81.3964 14.912 81.3964 15.376C81.3964 15.76 81.4524 16.048 81.5644 16.24C81.6924 16.432 81.8844 16.528 82.1404 16.528C82.4124 16.528 82.6844 16.424 82.9564 16.216C83.2444 16.008 83.5564 15.672 83.8924 15.208L84.1804 17.08C83.5884 17.768 83.0204 18.296 82.4764 18.664C81.9324 19.016 81.3004 19.192 80.5804 19.192ZM89.0901 19C88.8821 19 88.7781 18.896 88.7781 18.688V10.168C88.7781 9.64 88.7701 9.144 88.7541 8.68C88.7381 8.2 88.7141 7.776 88.6821 7.408C88.6661 7.168 88.7621 7.048 88.9701 7.048H91.5621C91.7221 7.048 91.8181 7.136 91.8501 7.312C91.8821 7.488 91.9061 7.704 91.9221 7.96C91.9541 8.2 91.9781 8.44 91.9941 8.68C92.4421 8.168 92.9221 7.736 93.4341 7.384C93.9621 7.016 94.5941 6.832 95.3301 6.832C95.9701 6.832 96.4741 6.968 96.8421 7.24C97.2101 7.512 97.4901 7.928 97.6821 8.488C98.1141 8.024 98.5861 7.632 99.0981 7.312C99.6261 6.992 100.21 6.832 100.85 6.832C101.762 6.832 102.434 7.12 102.866 7.696C103.314 8.256 103.538 9.128 103.538 10.312V18.688C103.538 18.896 103.442 19 103.25 19H100.202C100.01 19 99.9141 18.896 99.9141 18.688V10.936C99.9141 10.6 99.8581 10.36 99.7461 10.216C99.6341 10.056 99.4501 9.976 99.1941 9.976C98.9861 9.976 98.7781 10.032 98.5701 10.144C98.3781 10.256 98.1781 10.408 97.9701 10.6V18.688C97.9701 18.896 97.8741 19 97.6821 19H94.6341C94.4421 19 94.3461 18.896 94.3461 18.688V10.936C94.3461 10.6 94.2901 10.36 94.1781 10.216C94.0661 10.056 93.8821 9.976 93.6261 9.976C93.4181 9.976 93.2101 10.032 93.0021 10.144C92.8101 10.256 92.6101 10.408 92.4021 10.6V18.688C92.4021 18.896 92.2981 19 92.0901 19H89.0901ZM105.543 19C105.335 19 105.231 18.896 105.231 18.688V7.36C105.231 7.152 105.335 7.048 105.543 7.048H108.543C108.751 7.048 108.855 7.152 108.855 7.36V18.688C108.855 18.896 108.751 19 108.543 19H105.543ZM107.031 5.704C106.407 5.704 105.911 5.552 105.543 5.248C105.191 4.928 105.015 4.496 105.015 3.952V3.472C105.015 2.912 105.191 2.48 105.543 2.176C105.911 1.856 106.407 1.696 107.031 1.696C107.687 1.696 108.183 1.856 108.519 2.176C108.871 2.48 109.047 2.912 109.047 3.472V3.952C109.047 4.496 108.871 4.928 108.519 5.248C108.183 5.552 107.687 5.704 107.031 5.704ZM116.648 19C116.44 19 116.336 18.896 116.336 18.688V11.008C116.336 10.64 116.272 10.376 116.144 10.216C116.016 10.056 115.8 9.976 115.496 9.976C115.24 9.976 114.984 10.056 114.728 10.216C114.472 10.376 114.216 10.584 113.96 10.84L113.504 9.04C113.952 8.448 114.488 7.936 115.112 7.504C115.736 7.056 116.456 6.832 117.272 6.832C118.184 6.832 118.856 7.112 119.288 7.672C119.736 8.216 119.96 9.096 119.96 10.312V18.688C119.96 18.896 119.856 19 119.648 19H116.648ZM110.864 19C110.656 19 110.552 18.896 110.552 18.688V10.168C110.552 9.64 110.544 9.144 110.528 8.68C110.512 8.2 110.488 7.776 110.456 7.408C110.44 7.168 110.536 7.048 110.744 7.048H113.336C113.496 7.048 113.592 7.144 113.624 7.336C113.656 7.56 113.688 7.872 113.72 8.272C113.768 8.656 113.8 9 113.816 9.304L114.176 10.336V18.688C114.176 18.896 114.072 19 113.864 19H110.864ZM125.909 23.632C124.181 23.632 122.917 23.408 122.117 22.96C121.333 22.512 120.941 21.824 120.941 20.896C120.941 20.288 121.085 19.752 121.373 19.288C121.661 18.84 122.125 18.456 122.765 18.136L125.333 18.832C125.045 18.992 124.837 19.168 124.709 19.36C124.581 19.552 124.517 19.768 124.517 20.008C124.517 20.312 124.637 20.536 124.877 20.68C125.133 20.824 125.541 20.904 126.101 20.92C126.789 20.936 127.245 20.864 127.469 20.704C127.709 20.56 127.829 20.32 127.829 19.984C127.829 19.712 127.757 19.504 127.613 19.36C127.485 19.232 127.245 19.16 126.893 19.144L123.869 18.904C123.149 18.824 122.589 18.584 122.189 18.184C121.805 17.784 121.613 17.248 121.613 16.576C121.613 16.016 121.757 15.536 122.045 15.136C122.333 14.72 122.765 14.376 123.341 14.104L125.333 14.944C125.077 15.008 124.893 15.104 124.781 15.232C124.685 15.36 124.637 15.488 124.637 15.616C124.637 15.744 124.685 15.848 124.781 15.928C124.893 16.008 125.093 16.064 125.381 16.096L128.069 16.336C129.221 16.432 130.045 16.768 130.541 17.344C131.037 17.92 131.285 18.792 131.285 19.96C131.285 21.24 130.861 22.168 130.013 22.744C129.181 23.336 127.813 23.632 125.909 23.632ZM126.149 15.232C124.645 15.232 123.549 14.896 122.861 14.224C122.189 13.552 121.853 12.48 121.853 11.008C121.853 9.584 122.189 8.536 122.861 7.864C123.533 7.176 124.629 6.832 126.149 6.832C127.669 6.832 128.757 7.176 129.413 7.864C130.085 8.536 130.421 9.584 130.421 11.008C130.421 12.48 130.085 13.552 129.413 14.224C128.757 14.896 127.669 15.232 126.149 15.232ZM126.149 12.568C126.517 12.568 126.757 12.472 126.869 12.28C126.997 12.072 127.061 11.672 127.061 11.08C127.061 10.472 126.997 10.064 126.869 9.856C126.757 9.632 126.517 9.52 126.149 9.52C125.781 9.52 125.533 9.632 125.405 9.856C125.277 10.064 125.213 10.472 125.213 11.08C125.213 11.672 125.277 12.072 125.405 12.28C125.533 12.472 125.781 12.568 126.149 12.568ZM129.221 8.104L126.893 7.24C126.877 6.68 126.885 6.152 126.917 5.656C126.949 5.144 126.989 4.688 127.037 4.288C127.069 4.112 127.165 4.024 127.325 4.024H129.533C129.773 4.024 129.861 4.136 129.797 4.36C129.637 5.064 129.509 5.712 129.413 6.304C129.317 6.88 129.253 7.48 129.221 8.104Z" fill="white"/>
</svg>
