<svg width="86" height="19" viewBox="0 0 86 19" fill="none" xmlns="http://www.w3.org/2000/svg">
<path d="M13.872 18H0.528V15.72L10.392 3.168V3.12H1.008V0.839999H13.632V3.12L3.768 15.672V15.72H13.872V18ZM20.7373 18.36C19.4893 18.36 18.4013 18.088 17.4733 17.544C16.5453 17 15.8333 16.24 15.3373 15.264C14.8573 14.288 14.6173 13.16 14.6173 11.88C14.6173 10.6 14.8653 9.472 15.3613 8.496C15.8573 7.52 16.5613 6.76 17.4733 6.216C18.4013 5.656 19.4973 5.376 20.7613 5.376C22.0093 5.376 23.0893 5.648 24.0013 6.192C24.9293 6.736 25.6333 7.504 26.1133 8.496C26.6093 9.472 26.8573 10.592 26.8573 11.856C26.8573 13.136 26.6093 14.272 26.1133 15.264C25.6173 16.24 24.9053 17 23.9773 17.544C23.0653 18.088 21.9853 18.36 20.7373 18.36ZM20.7613 16.416C21.9613 16.416 22.8653 16 23.4733 15.168C24.0973 14.32 24.4093 13.224 24.4093 11.88C24.4093 10.536 24.0973 9.448 23.4733 8.616C22.8653 7.768 21.9613 7.344 20.7613 7.344C19.5453 7.344 18.6253 7.76 18.0013 8.592C17.3773 9.424 17.0653 10.52 17.0653 11.88C17.0653 13.224 17.3773 14.32 18.0013 15.168C18.6253 16 19.5453 16.416 20.7613 16.416ZM34.3311 18.36C33.0831 18.36 31.9951 18.088 31.0671 17.544C30.1391 17 29.4271 16.24 28.9311 15.264C28.4511 14.288 28.2111 13.16 28.2111 11.88C28.2111 10.6 28.4591 9.472 28.9551 8.496C29.4511 7.52 30.1551 6.76 31.0671 6.216C31.9951 5.656 33.0911 5.376 34.3551 5.376C35.6031 5.376 36.6831 5.648 37.5951 6.192C38.5231 6.736 39.2271 7.504 39.7071 8.496C40.2031 9.472 40.4511 10.592 40.4511 11.856C40.4511 13.136 40.2031 14.272 39.7071 15.264C39.2111 16.24 38.4991 17 37.5711 17.544C36.6591 18.088 35.5791 18.36 34.3311 18.36ZM34.3551 16.416C35.5551 16.416 36.4591 16 37.0671 15.168C37.6911 14.32 38.0031 13.224 38.0031 11.88C38.0031 10.536 37.6911 9.448 37.0671 8.616C36.4591 7.768 35.5551 7.344 34.3551 7.344C33.1391 7.344 32.2191 7.76 31.5951 8.592C30.9711 9.424 30.6591 10.52 30.6591 11.88C30.6591 13.224 30.9711 14.32 31.5951 15.168C32.2191 16 33.1391 16.416 34.3551 16.416ZM55.7728 5.4C56.9888 5.4 57.9088 5.752 58.5328 6.456C59.1728 7.16 59.4928 8.176 59.4928 9.504V18H57.1408V10.152C57.1408 9.24 56.9888 8.56 56.6848 8.112C56.3968 7.648 55.8368 7.416 55.0048 7.416C54.1408 7.416 53.4448 7.696 52.9168 8.256C52.4048 8.816 52.1488 9.56 52.1488 10.488V18H49.7968V10.152C49.7968 9.24 49.6448 8.56 49.3408 8.112C49.0528 7.648 48.4928 7.416 47.6608 7.416C46.7968 7.416 46.1008 7.696 45.5728 8.256C45.0608 8.816 44.8048 9.56 44.8048 10.488V18H42.4528V5.76H44.8048V7.296H44.8528C45.2368 6.752 45.7248 6.304 46.3168 5.952C46.9088 5.584 47.6288 5.4 48.4768 5.4C50.1408 5.4 51.2208 6.112 51.7168 7.536H51.7648C52.8368 6.112 54.1728 5.4 55.7728 5.4ZM73.302 11.616C73.302 12.08 73.294 12.376 73.278 12.504H63.87C63.902 13.608 64.23 14.544 64.854 15.312C65.494 16.064 66.39 16.44 67.542 16.44C68.502 16.44 69.238 16.208 69.75 15.744C70.278 15.28 70.614 14.776 70.758 14.232H73.158C72.806 15.48 72.158 16.48 71.214 17.232C70.27 17.984 69.03 18.36 67.494 18.36C66.23 18.36 65.142 18.08 64.23 17.52C63.318 16.96 62.622 16.192 62.142 15.216C61.678 14.24 61.446 13.12 61.446 11.856C61.446 10.576 61.686 9.448 62.166 8.472C62.662 7.496 63.366 6.736 64.278 6.192C65.19 5.648 66.262 5.376 67.494 5.376C69.334 5.376 70.758 5.936 71.766 7.056C72.79 8.176 73.302 9.696 73.302 11.616ZM70.854 10.656C70.854 9.68 70.534 8.88 69.894 8.256C69.27 7.616 68.446 7.296 67.422 7.296C66.43 7.296 65.606 7.608 64.95 8.232C64.294 8.84 63.934 9.648 63.87 10.656H70.854ZM75.9268 18H73.1908L77.7988 11.736L73.5988 5.76H76.2868L79.2148 10.128H79.2628L82.1428 5.76H84.8308L80.6308 11.736L85.2868 18H82.5268L79.2148 13.32H79.1668L75.9268 18Z" fill="white"/>
</svg>
